%FSTAX23Y23*%
%MOIN*%
%SFA1B1*%

%IPPOS*%
%ADD9500C,0.015000*%
%ADD9501C,0.028000*%
%ADD9502C,0.035000*%
%ADD9503C,0.039370*%
%ADD9504C,0.050000*%
%ADD9505C,0.055000*%
%ADD9506C,0.260000*%
%LNledcube-1*%
%LPD*%
G54D9500*
X04712Y02552D03*
Y02852D03*
X04526Y02804D03*
Y02654D03*
X04487Y02499D03*
X04526Y02954D03*
Y03104D03*
X03832Y02957D03*
X03747D03*
X03735Y0271D03*
Y02647D03*
X03695Y02675D03*
Y02615D03*
X03771Y02588D03*
X0389Y025D03*
X0371Y02425D03*
X03827Y02157D03*
X0344Y0213D03*
X03142Y02312D03*
X03129Y01919D03*
X0323Y0275D03*
X0355Y0276D03*
X0285Y03D03*
X028Y0305D03*
Y03115D03*
X026Y0298D03*
X025D03*
X024D03*
X023D03*
X022D03*
X021D03*
X02D03*
X019D03*
X018D03*
X022Y024D03*
X02693Y02575D03*
X03017Y02217D03*
X0288Y0197D03*
X027Y017D03*
X0145Y0255D03*
X014D03*
X0135D03*
X013D03*
X0125D03*
X012D03*
X0115D03*
Y026D03*
Y0265D03*
Y027D03*
Y0275D03*
Y028D03*
X012D03*
X0125D03*
X013D03*
X0135D03*
X014D03*
X0145D03*
Y0275D03*
X014D03*
X0135D03*
X013D03*
X0125D03*
X012D03*
Y027D03*
Y0265D03*
Y026D03*
X0125D03*
X013D03*
X0135D03*
X014D03*
Y0265D03*
Y027D03*
X0135D03*
X013D03*
X0125D03*
Y0265D03*
X013D03*
X0135D03*
X0145D03*
Y027D03*
Y026D03*
X01297Y0345D03*
Y03525D03*
Y036D03*
Y03675D03*
Y0375D03*
X01259Y03712D03*
Y03637D03*
Y03562D03*
Y03488D03*
X01181Y03351D03*
X011Y0372D03*
X01418Y03821D03*
X01297Y0445D03*
Y04525D03*
Y046D03*
Y04675D03*
X01247Y04637D03*
X01247Y04562D03*
X0125Y04487D03*
X01181Y04351D03*
X018Y0435D03*
X01881Y04351D03*
X0195Y04487D03*
Y04562D03*
Y04637D03*
X01997Y04675D03*
Y046D03*
Y04525D03*
Y0445D03*
X025Y0435D03*
X02581Y04351D03*
X02656Y04487D03*
Y04562D03*
Y04637D03*
X02697Y04675D03*
Y046D03*
Y04525D03*
Y0445D03*
X027Y0375D03*
X02667Y03712D03*
X027Y03675D03*
X02667Y03637D03*
X027Y036D03*
X02667Y03562D03*
X027Y03525D03*
X02667Y03487D03*
X027Y0345D03*
X02581Y03351D03*
X0285Y03175D03*
X02825Y03825D03*
X025Y038D03*
X02118Y03823D03*
X01997Y0375D03*
X01962Y03712D03*
X01997Y03675D03*
X01962Y03637D03*
X01997Y036D03*
X01962Y03562D03*
X01997Y03525D03*
Y0345D03*
X01962Y03485D03*
X01881Y03351D03*
X018Y0383D03*
X032Y038D03*
X03397Y0375D03*
X03366Y03712D03*
X03397Y03675D03*
X03366Y03637D03*
X03397Y036D03*
X03366Y03562D03*
X03397Y03525D03*
X03366Y03488D03*
X03397Y0345D03*
X03281Y03351D03*
X03518Y03818D03*
X03925Y03712D03*
X0395Y03675D03*
X03975Y03637D03*
X04Y036D03*
X0405Y03562D03*
X04075Y03525D03*
X041Y03487D03*
X04125Y0345D03*
X04025Y0375D03*
X04526Y03704D03*
Y03554D03*
Y03404D03*
Y03254D03*
Y03854D03*
Y04004D03*
Y04154D03*
Y04304D03*
Y04454D03*
Y04604D03*
X04675Y0395D03*
X03397Y0445D03*
X03358Y04484D03*
Y04562D03*
Y04637D03*
X03397Y04675D03*
Y046D03*
Y04525D03*
X03281Y04351D03*
X032Y0435D03*
X04712Y04325D03*
Y03452D03*
Y03152D03*
X048Y0476D03*
X03518Y04821D03*
X03397Y0475D03*
X03358Y04712D03*
X032Y048D03*
X02818Y04821D03*
X02697Y0475D03*
X02656Y04712D03*
X025Y048D03*
X02118Y04826D03*
X01997Y0475D03*
X0195Y04712D03*
X018Y048D03*
X01418Y04821D03*
X01297Y0475D03*
X01249Y04712D03*
X011Y0472D03*
G54D9501*
X0146Y0232D03*
G54D9502*
X0189Y0218D03*
X0199D03*
Y0228D03*
Y0238D03*
Y0248D03*
Y0258D03*
X0189D03*
Y0248D03*
Y0238D03*
Y0228D03*
X02485Y022D03*
X02585D03*
X02685D03*
X02785D03*
X025Y025D03*
X024D03*
Y032D03*
Y033D03*
Y034D03*
Y035D03*
Y036D03*
Y037D03*
Y038D03*
Y039D03*
Y042D03*
Y043D03*
Y044D03*
Y045D03*
Y046D03*
X017D03*
Y045D03*
Y044D03*
Y043D03*
Y042D03*
Y039D03*
Y038D03*
Y037D03*
Y036D03*
Y035D03*
Y034D03*
Y033D03*
Y032D03*
X031D03*
Y033D03*
Y034D03*
Y035D03*
Y036D03*
Y037D03*
Y038D03*
Y039D03*
Y042D03*
Y043D03*
Y044D03*
Y045D03*
Y046D03*
X038D03*
Y045D03*
Y044D03*
Y043D03*
Y042D03*
Y039D03*
Y038D03*
Y037D03*
Y036D03*
Y035D03*
Y034D03*
Y033D03*
Y032D03*
X0484Y0338D03*
Y0348D03*
Y0358D03*
Y0368D03*
Y0378D03*
Y0388D03*
Y0398D03*
Y0408D03*
X038Y047D03*
Y048D03*
Y049D03*
X031D03*
Y048D03*
Y047D03*
X024D03*
Y048D03*
Y049D03*
X017D03*
Y048D03*
Y047D03*
G54D9503*
X01687Y01611D03*
X01832D03*
Y01788D03*
X01687D03*
X02087D03*
X02232D03*
Y01611D03*
X02087D03*
X02487D03*
Y01788D03*
X01432D03*
Y01611D03*
G54D9504*
X0275Y012D03*
X0294D03*
X0324D03*
G54D9505*
X0125Y0175D03*
Y021D03*
G54D9506*
X02326Y01269D03*
X034Y031D03*
M02*