%FSTAX23Y23*%
%MOIN*%
%SFA1B1*%

%IPPOS*%
%ADD47C,0.005000*%
%LNledcube-1*%
%LPD*%
G54D47*
X02212Y01611D02*
X02251D01*
X02232Y01591D02*
Y01631D01*
X02212Y01788D02*
X02251D01*
X02232Y01768D02*
Y01808D01*
X02468Y01788D02*
X02507D01*
X02487Y01768D02*
Y01808D01*
X02468Y01611D02*
X02507D01*
X02487Y01591D02*
Y01631D01*
X04822Y0338D02*
X04857D01*
X0484Y03362D02*
Y03397D01*
X04822Y0348D02*
X04857D01*
X0484Y03462D02*
Y03497D01*
X04822Y0358D02*
X04857D01*
X0484Y03562D02*
Y03597D01*
X04822Y0368D02*
X04857D01*
X0484Y03662D02*
Y03697D01*
X04822Y0378D02*
X04857D01*
X0484Y03762D02*
Y03797D01*
X04822Y0388D02*
X04857D01*
X0484Y03862D02*
Y03897D01*
X04822Y0398D02*
X04857D01*
X0484Y03962D02*
Y03997D01*
X04822Y0408D02*
X04857D01*
X0484Y04062D02*
Y04097D01*
X02467Y022D02*
X02502D01*
X02485Y02182D02*
Y02217D01*
X02567Y022D02*
X02602D01*
X02585Y02182D02*
Y02217D01*
X02667Y022D02*
X02702D01*
X02685Y02182D02*
Y02217D01*
X02767Y022D02*
X02802D01*
X02785Y02182D02*
Y02217D01*
X01972Y0218D02*
X02007D01*
X0199Y02162D02*
Y02197D01*
X01972Y0228D02*
X02007D01*
X0199Y02262D02*
Y02297D01*
X01972Y0238D02*
X02007D01*
X0199Y02362D02*
Y02397D01*
X01972Y0248D02*
X02007D01*
X0199Y02462D02*
Y02497D01*
X01972Y0258D02*
X02007D01*
X0199Y02562D02*
Y02597D01*
X01872Y0218D02*
X01907D01*
X0189Y02162D02*
Y02197D01*
X01872Y0228D02*
X01907D01*
X0189Y02262D02*
Y02297D01*
X01872Y0238D02*
X01907D01*
X0189Y02362D02*
Y02397D01*
X01872Y0248D02*
X01907D01*
X0189Y02462D02*
Y02497D01*
X01872Y0258D02*
X01907D01*
X0189Y02562D02*
Y02597D01*
X02382Y025D02*
X02417D01*
X024Y02482D02*
Y02517D01*
X02482Y025D02*
X02517D01*
X025Y02482D02*
Y02517D01*
X02068Y01611D02*
X02107D01*
X02087Y01591D02*
Y01631D01*
X02068Y01788D02*
X02107D01*
X02087Y01768D02*
Y01808D01*
X01812Y01788D02*
X01851D01*
X01832Y01768D02*
Y01808D01*
X01812Y01611D02*
X01851D01*
X01832Y01591D02*
Y01631D01*
X01682Y049D02*
X01717D01*
X017Y04882D02*
Y04917D01*
X01682Y048D02*
X01717D01*
X017Y04782D02*
Y04817D01*
X01682Y047D02*
X01717D01*
X017Y04682D02*
Y04717D01*
X01682Y046D02*
X01717D01*
X017Y04582D02*
Y04617D01*
X01682Y045D02*
X01717D01*
X017Y04482D02*
Y04517D01*
X01682Y044D02*
X01717D01*
X017Y04382D02*
Y04417D01*
X01682Y043D02*
X01717D01*
X017Y04282D02*
Y04317D01*
X01682Y042D02*
X01717D01*
X017Y04182D02*
Y04217D01*
X02382Y049D02*
X02417D01*
X024Y04882D02*
Y04917D01*
X02382Y048D02*
X02417D01*
X024Y04782D02*
Y04817D01*
X02382Y047D02*
X02417D01*
X024Y04682D02*
Y04717D01*
X02382Y046D02*
X02417D01*
X024Y04582D02*
Y04617D01*
X02382Y045D02*
X02417D01*
X024Y04482D02*
Y04517D01*
X02382Y044D02*
X02417D01*
X024Y04382D02*
Y04417D01*
X02382Y043D02*
X02417D01*
X024Y04282D02*
Y04317D01*
X02382Y042D02*
X02417D01*
X024Y04182D02*
Y04217D01*
X03082Y049D02*
X03117D01*
X031Y04882D02*
Y04917D01*
X03082Y048D02*
X03117D01*
X031Y04782D02*
Y04817D01*
X03082Y047D02*
X03117D01*
X031Y04682D02*
Y04717D01*
X03082Y046D02*
X03117D01*
X031Y04582D02*
Y04617D01*
X03082Y045D02*
X03117D01*
X031Y04482D02*
Y04517D01*
X03082Y044D02*
X03117D01*
X031Y04382D02*
Y04417D01*
X03082Y043D02*
X03117D01*
X031Y04282D02*
Y04317D01*
X03082Y042D02*
X03117D01*
X031Y04182D02*
Y04217D01*
X03782Y049D02*
X03817D01*
X038Y04882D02*
Y04917D01*
X03782Y048D02*
X03817D01*
X038Y04782D02*
Y04817D01*
X03782Y047D02*
X03817D01*
X038Y04682D02*
Y04717D01*
X03782Y046D02*
X03817D01*
X038Y04582D02*
Y04617D01*
X03782Y045D02*
X03817D01*
X038Y04482D02*
Y04517D01*
X03782Y044D02*
X03817D01*
X038Y04382D02*
Y04417D01*
X03782Y043D02*
X03817D01*
X038Y04282D02*
Y04317D01*
X03782Y042D02*
X03817D01*
X038Y04182D02*
Y04217D01*
X01682Y039D02*
X01717D01*
X017Y03882D02*
Y03917D01*
X01682Y038D02*
X01717D01*
X017Y03782D02*
Y03817D01*
X01682Y037D02*
X01717D01*
X017Y03682D02*
Y03717D01*
X01682Y036D02*
X01717D01*
X017Y03582D02*
Y03617D01*
X01682Y035D02*
X01717D01*
X017Y03482D02*
Y03517D01*
X01682Y034D02*
X01717D01*
X017Y03382D02*
Y03417D01*
X01682Y033D02*
X01717D01*
X017Y03282D02*
Y03317D01*
X01682Y032D02*
X01717D01*
X017Y03182D02*
Y03217D01*
X02382Y039D02*
X02417D01*
X024Y03882D02*
Y03917D01*
X02382Y038D02*
X02417D01*
X024Y03782D02*
Y03817D01*
X02382Y037D02*
X02417D01*
X024Y03682D02*
Y03717D01*
X02382Y036D02*
X02417D01*
X024Y03582D02*
Y03617D01*
X02382Y035D02*
X02417D01*
X024Y03482D02*
Y03517D01*
X02382Y034D02*
X02417D01*
X024Y03382D02*
Y03417D01*
X02382Y033D02*
X02417D01*
X024Y03282D02*
Y03317D01*
X02382Y032D02*
X02417D01*
X024Y03182D02*
Y03217D01*
X03082Y039D02*
X03117D01*
X031Y03882D02*
Y03917D01*
X03082Y038D02*
X03117D01*
X031Y03782D02*
Y03817D01*
X03082Y037D02*
X03117D01*
X031Y03682D02*
Y03717D01*
X03082Y036D02*
X03117D01*
X031Y03582D02*
Y03617D01*
X03082Y035D02*
X03117D01*
X031Y03482D02*
Y03517D01*
X03082Y034D02*
X03117D01*
X031Y03382D02*
Y03417D01*
X03082Y033D02*
X03117D01*
X031Y03282D02*
Y03317D01*
X03082Y032D02*
X03117D01*
X031Y03182D02*
Y03217D01*
X03782Y039D02*
X03817D01*
X038Y03882D02*
Y03917D01*
X03782Y038D02*
X03817D01*
X038Y03782D02*
Y03817D01*
X03782Y037D02*
X03817D01*
X038Y03682D02*
Y03717D01*
X03782Y036D02*
X03817D01*
X038Y03582D02*
Y03617D01*
X03782Y035D02*
X03817D01*
X038Y03482D02*
Y03517D01*
X03782Y034D02*
X03817D01*
X038Y03382D02*
Y03417D01*
X03782Y033D02*
X03817D01*
X038Y03282D02*
Y03317D01*
X03782Y032D02*
X03817D01*
X038Y03182D02*
Y03217D01*
X01668Y01611D02*
X01707D01*
X01687Y01591D02*
Y01631D01*
X01668Y01788D02*
X01707D01*
X01687Y01768D02*
Y01808D01*
X01412Y01788D02*
X01451D01*
X01432Y01768D02*
Y01808D01*
X01412Y01611D02*
X01451D01*
X01432Y01591D02*
Y01631D01*
X03358Y03488D02*
X03373D01*
X03366Y0348D02*
Y03495D01*
X02659Y03487D02*
X02674D01*
X02667Y03479D02*
Y03494D01*
X01954Y03485D02*
X01969D01*
X01962Y03477D02*
Y03492D01*
X01251Y03488D02*
X01266D01*
X01259Y0348D02*
Y03495D01*
X0335Y04484D02*
X03365D01*
X03358Y04476D02*
Y04491D01*
X02648Y04487D02*
X02663D01*
X02656Y04479D02*
Y04494D01*
X01942Y04637D02*
X01957D01*
X0195Y0463D02*
Y04645D01*
X01942Y04487D02*
X01957D01*
X0195Y0448D02*
Y04495D01*
X01242Y04712D02*
X01257D01*
X01249Y04705D02*
Y0472D01*
X0124Y04562D02*
X01255D01*
X01247Y04555D02*
Y0457D01*
X01242Y04487D02*
X01257D01*
X0125Y0448D02*
Y04495D01*
X02915Y012D02*
X02965D01*
X0294Y01175D02*
Y01225D01*
X02725Y012D02*
X02775D01*
X0275Y01175D02*
Y01225D01*
X02592Y0298D02*
X02607D01*
X026Y02972D02*
Y02987D01*
X02492Y0298D02*
X02507D01*
X025Y02972D02*
Y02987D01*
X02392Y0298D02*
X02407D01*
X024Y02972D02*
Y02987D01*
X02292Y0298D02*
X02307D01*
X023Y02972D02*
Y02987D01*
X02192Y0298D02*
X02207D01*
X022Y02972D02*
Y02987D01*
X02092Y0298D02*
X02107D01*
X021Y02972D02*
Y02987D01*
X01992Y0298D02*
X02007D01*
X02Y02972D02*
Y02987D01*
X01892Y0298D02*
X01907D01*
X019Y02972D02*
Y02987D01*
X01792Y0298D02*
X01807D01*
X018Y02972D02*
Y02987D01*
X01142Y028D02*
X01157D01*
X0115Y02792D02*
Y02807D01*
X01192Y028D02*
X01207D01*
X012Y02792D02*
Y02807D01*
X01242Y028D02*
X01257D01*
X0125Y02792D02*
Y02807D01*
X01292Y028D02*
X01307D01*
X013Y02792D02*
Y02807D01*
X02685Y02575D02*
X027D01*
X02693Y02567D02*
Y02582D01*
X03542Y0276D02*
X03557D01*
X0355Y02752D02*
Y02767D01*
X01446Y0232D02*
X01474D01*
X0146Y02306D02*
Y02334D01*
X03763Y02588D02*
X03778D01*
X03771Y02581D02*
Y02596D01*
X02192Y024D02*
X02207D01*
X022Y02392D02*
Y02407D01*
X0351Y04821D02*
X03525D01*
X03518Y04814D02*
Y04829D01*
X0281Y04821D02*
X02825D01*
X02818Y04814D02*
Y04829D01*
X0211Y04826D02*
X02125D01*
X02118Y04819D02*
Y04834D01*
X0141Y04821D02*
X01425D01*
X01418Y04814D02*
Y04829D01*
X01989Y0345D02*
X02004D01*
X01997Y03442D02*
Y03457D01*
X0141Y03821D02*
X01425D01*
X01418Y03814D02*
Y03829D01*
X0211Y03823D02*
X02125D01*
X02118Y03815D02*
Y0383D01*
X02817Y03825D02*
X02832D01*
X02825Y03817D02*
Y03832D01*
X0351Y03818D02*
X03525D01*
X03518Y0381D02*
Y03825D01*
X02792Y03115D02*
X02807D01*
X028Y03107D02*
Y03122D01*
X02842Y03175D02*
X02857D01*
X0285Y03167D02*
Y03182D01*
X02792Y0305D02*
X02807D01*
X028Y03042D02*
Y03057D01*
X02842Y03D02*
X02857D01*
X0285Y02992D02*
Y03007D01*
X02692Y03675D02*
X02707D01*
X027Y03667D02*
Y03682D01*
X03992Y036D02*
X04007D01*
X04Y03592D02*
Y03607D01*
X03917Y03712D02*
X03932D01*
X03925Y03705D02*
Y0372D01*
X03967Y03637D02*
X03982D01*
X03975Y0363D02*
Y03645D01*
X04042Y03562D02*
X04057D01*
X0405Y03555D02*
Y0357D01*
X04092Y03487D02*
X04107D01*
X041Y0348D02*
Y03495D01*
X04017Y0375D02*
X04032D01*
X04025Y03742D02*
Y03757D01*
X03942Y03675D02*
X03957D01*
X0395Y03667D02*
Y03682D01*
X04067Y03525D02*
X04082D01*
X04075Y03517D02*
Y03532D01*
X04117Y0345D02*
X04132D01*
X04125Y03442D02*
Y03457D01*
X0335Y04712D02*
X03365D01*
X03358Y04705D02*
Y0472D01*
X03389Y04675D02*
X03404D01*
X03397Y04667D02*
Y04682D01*
X0335Y04637D02*
X03365D01*
X03358Y0463D02*
Y04645D01*
X03389Y046D02*
X03404D01*
X03397Y04592D02*
Y04607D01*
X0335Y04562D02*
X03365D01*
X03358Y04555D02*
Y0457D01*
X03389Y04525D02*
X03404D01*
X03397Y04517D02*
Y04532D01*
X03389Y0445D02*
X03404D01*
X03397Y04442D02*
Y04457D01*
X03389Y0475D02*
X03404D01*
X03397Y04742D02*
Y04757D01*
X02648Y04712D02*
X02663D01*
X02656Y04705D02*
Y0472D01*
X02689Y04675D02*
X02704D01*
X02697Y04667D02*
Y04682D01*
X02648Y04637D02*
X02663D01*
X02656Y0463D02*
Y04645D01*
X02689Y046D02*
X02704D01*
X02697Y04592D02*
Y04607D01*
X02648Y04562D02*
X02663D01*
X02656Y04555D02*
Y0457D01*
X02689Y04525D02*
X02704D01*
X02697Y04517D02*
Y04532D01*
X02689Y0445D02*
X02704D01*
X02697Y04442D02*
Y04457D01*
X02689Y0475D02*
X02704D01*
X02697Y04742D02*
Y04757D01*
X01942Y04712D02*
X01957D01*
X0195Y04705D02*
Y0472D01*
X01989Y04675D02*
X02004D01*
X01997Y04667D02*
Y04682D01*
X01989Y046D02*
X02004D01*
X01997Y04592D02*
Y04607D01*
X01942Y04562D02*
X01957D01*
X0195Y04555D02*
Y0457D01*
X01989Y04525D02*
X02004D01*
X01997Y04517D02*
Y04532D01*
X01989Y0445D02*
X02004D01*
X01997Y04442D02*
Y04457D01*
X01989Y0475D02*
X02004D01*
X01997Y04742D02*
Y04757D01*
X01289Y04675D02*
X01304D01*
X01297Y04667D02*
Y04682D01*
X01239Y04637D02*
X01254D01*
X01247Y0463D02*
Y04645D01*
X01289Y046D02*
X01304D01*
X01297Y04592D02*
Y04607D01*
X01289Y04525D02*
X01304D01*
X01297Y04517D02*
Y04532D01*
X01289Y0445D02*
X01304D01*
X01297Y04442D02*
Y04457D01*
X01289Y0475D02*
X01304D01*
X01297Y04742D02*
Y04757D01*
X01251Y03712D02*
X01266D01*
X01259Y03705D02*
Y0372D01*
X01289Y03675D02*
X01304D01*
X01297Y03667D02*
Y03682D01*
X01251Y03637D02*
X01266D01*
X01259Y0363D02*
Y03645D01*
X01289Y036D02*
X01304D01*
X01297Y03592D02*
Y03607D01*
X01251Y03562D02*
X01266D01*
X01259Y03555D02*
Y0357D01*
X01289Y03525D02*
X01304D01*
X01297Y03517D02*
Y03532D01*
X01289Y0345D02*
X01304D01*
X01297Y03442D02*
Y03457D01*
X01289Y0375D02*
X01304D01*
X01297Y03742D02*
Y03757D01*
X01954Y03712D02*
X01969D01*
X01962Y03705D02*
Y0372D01*
X01989Y03675D02*
X02004D01*
X01997Y03667D02*
Y03682D01*
X01954Y03637D02*
X01969D01*
X01962Y0363D02*
Y03645D01*
X01989Y036D02*
X02004D01*
X01997Y03592D02*
Y03607D01*
X01954Y03562D02*
X01969D01*
X01962Y03555D02*
Y0357D01*
X01989Y03525D02*
X02004D01*
X01997Y03517D02*
Y03532D01*
X01989Y0375D02*
X02004D01*
X01997Y03742D02*
Y03757D01*
X02692Y0375D02*
X02707D01*
X027Y03742D02*
Y03757D01*
X03389Y0375D02*
X03404D01*
X03397Y03742D02*
Y03757D01*
X02692Y0345D02*
X02707D01*
X027Y03442D02*
Y03457D01*
X02692Y03525D02*
X02707D01*
X027Y03517D02*
Y03532D01*
X02659Y03562D02*
X02674D01*
X02667Y03555D02*
Y0357D01*
X02692Y036D02*
X02707D01*
X027Y03592D02*
Y03607D01*
X02659Y03637D02*
X02674D01*
X02667Y0363D02*
Y03645D01*
X02659Y03712D02*
X02674D01*
X02667Y03705D02*
Y0372D01*
X03358Y03712D02*
X03373D01*
X03366Y03705D02*
Y0372D01*
X03358Y03637D02*
X03373D01*
X03366Y0363D02*
Y03645D01*
X03358Y03562D02*
X03373D01*
X03366Y03555D02*
Y0357D01*
X03389Y0345D02*
X03404D01*
X03397Y03442D02*
Y03457D01*
X03389Y03525D02*
X03404D01*
X03397Y03517D02*
Y03532D01*
X03389Y036D02*
X03404D01*
X03397Y03592D02*
Y03607D01*
X03389Y03675D02*
X03404D01*
X03397Y03667D02*
Y03682D01*
X04792Y0476D02*
X04807D01*
X048Y04752D02*
Y04767D01*
X04704Y04325D02*
X04719D01*
X04712Y04317D02*
Y04332D01*
X04667Y0395D02*
X04682D01*
X04675Y03942D02*
Y03957D01*
X04704Y03452D02*
X04719D01*
X04712Y03444D02*
Y03459D01*
X04704Y03152D02*
X04719D01*
X04712Y03144D02*
Y03159D01*
X04704Y02852D02*
X04719D01*
X04712Y02845D02*
Y0286D01*
X04704Y02552D02*
X04719D01*
X04712Y02544D02*
Y02559D01*
X03702Y02425D02*
X03717D01*
X0371Y02417D02*
Y02432D01*
X03727Y02647D02*
X03742D01*
X03735Y02639D02*
Y02654D01*
X03727Y0271D02*
X03742D01*
X03735Y02702D02*
Y02717D01*
X03687Y02675D02*
X03702D01*
X03695Y02667D02*
Y02682D01*
X03687Y02615D02*
X03702D01*
X03695Y02607D02*
Y02622D01*
X0374Y02957D02*
X03755D01*
X03747Y0295D02*
Y02965D01*
X03824Y02957D02*
X03839D01*
X03832Y0295D02*
Y02965D01*
X03819Y02157D02*
X03834D01*
X03827Y02149D02*
Y02164D01*
X03882Y025D02*
X03897D01*
X0389Y02492D02*
Y02507D01*
X02692Y017D02*
X02707D01*
X027Y01692D02*
Y01707D01*
X03135Y02312D02*
X0315D01*
X03142Y02305D02*
Y0232D01*
X03222Y0275D02*
X03237D01*
X0323Y02742D02*
Y02757D01*
X02492Y038D02*
X02507D01*
X025Y03792D02*
Y03807D01*
X03192Y038D02*
X03207D01*
X032Y03792D02*
Y03807D01*
X01792Y0383D02*
X01807D01*
X018Y03822D02*
Y03837D01*
X01092Y0372D02*
X01107D01*
X011Y03712D02*
Y03727D01*
X01092Y0472D02*
X01107D01*
X011Y04712D02*
Y04727D01*
X01792Y048D02*
X01807D01*
X018Y04792D02*
Y04807D01*
X03192Y048D02*
X03207D01*
X032Y04792D02*
Y04807D01*
X02492Y048D02*
X02507D01*
X025Y04792D02*
Y04807D01*
X01174Y04351D02*
X01189D01*
X01181Y04344D02*
Y04359D01*
X01874Y04351D02*
X01889D01*
X01881Y04344D02*
Y04359D01*
X02574Y04351D02*
X02589D01*
X02581Y04344D02*
Y04359D01*
X03274Y04351D02*
X03289D01*
X03281Y04344D02*
Y04359D01*
X03274Y03351D02*
X03289D01*
X03281Y03344D02*
Y03359D01*
X02574Y03351D02*
X02589D01*
X02581Y03344D02*
Y03359D01*
X01874Y03351D02*
X01889D01*
X01881Y03344D02*
Y03359D01*
X01174Y03351D02*
X01189D01*
X01181Y03344D02*
Y03359D01*
X01792Y0435D02*
X01807D01*
X018Y04342D02*
Y04357D01*
X02492Y0435D02*
X02507D01*
X025Y04342D02*
Y04357D01*
X03192Y0435D02*
X03207D01*
X032Y04342D02*
Y04357D01*
X03432Y0213D02*
X03447D01*
X0344Y02122D02*
Y02137D01*
X02872Y0197D02*
X02887D01*
X0288Y01962D02*
Y01977D01*
X03009Y02217D02*
X03024D01*
X03017Y02209D02*
Y02224D01*
X03121Y01919D02*
X03136D01*
X03129Y01911D02*
Y01926D01*
X02196Y01269D02*
X02456D01*
X02326Y01139D02*
Y01399D01*
X0327Y031D02*
X0353D01*
X034Y0297D02*
Y0323D01*
X04479Y02499D02*
X04494D01*
X04487Y02491D02*
Y02506D01*
X04518Y02654D02*
X04533D01*
X04526Y02646D02*
Y02661D01*
X04518Y02804D02*
X04533D01*
X04526Y02796D02*
Y02811D01*
X04518Y02954D02*
X04533D01*
X04526Y02946D02*
Y02961D01*
X04518Y03104D02*
X04533D01*
X04526Y03096D02*
Y03111D01*
X04518Y03254D02*
X04533D01*
X04526Y03246D02*
Y03261D01*
X04518Y03404D02*
X04533D01*
X04526Y03396D02*
Y03411D01*
X04518Y03554D02*
X04533D01*
X04526Y03546D02*
Y03561D01*
X04518Y03704D02*
X04533D01*
X04526Y03696D02*
Y03711D01*
X04518Y03854D02*
X04533D01*
X04526Y03846D02*
Y03861D01*
X04518Y04004D02*
X04533D01*
X04526Y03996D02*
Y04011D01*
X04518Y04154D02*
X04533D01*
X04526Y04146D02*
Y04161D01*
X04518Y04304D02*
X04533D01*
X04526Y04296D02*
Y04311D01*
X04518Y04454D02*
X04533D01*
X04526Y04446D02*
Y04461D01*
X04518Y04604D02*
X04533D01*
X04526Y04596D02*
Y04611D01*
X01142Y0255D02*
X01157D01*
X0115Y02542D02*
Y02557D01*
X01142Y026D02*
X01157D01*
X0115Y02592D02*
Y02607D01*
X01142Y0265D02*
X01157D01*
X0115Y02642D02*
Y02657D01*
X01142Y027D02*
X01157D01*
X0115Y02692D02*
Y02707D01*
X01142Y0275D02*
X01157D01*
X0115Y02742D02*
Y02757D01*
X01192Y0255D02*
X01207D01*
X012Y02542D02*
Y02557D01*
X01242Y0255D02*
X01257D01*
X0125Y02542D02*
Y02557D01*
X01292Y0255D02*
X01307D01*
X013Y02542D02*
Y02557D01*
X01342Y0255D02*
X01357D01*
X0135Y02542D02*
Y02557D01*
X01392Y0255D02*
X01407D01*
X014Y02542D02*
Y02557D01*
X01392Y026D02*
X01407D01*
X014Y02592D02*
Y02607D01*
X01342Y026D02*
X01357D01*
X0135Y02592D02*
Y02607D01*
X01292Y026D02*
X01307D01*
X013Y02592D02*
Y02607D01*
X01242Y026D02*
X01257D01*
X0125Y02592D02*
Y02607D01*
X01192Y026D02*
X01207D01*
X012Y02592D02*
Y02607D01*
X01192Y0265D02*
X01207D01*
X012Y02642D02*
Y02657D01*
X01342Y028D02*
X01357D01*
X0135Y02792D02*
Y02807D01*
X01392Y028D02*
X01407D01*
X014Y02792D02*
Y02807D01*
X01442Y028D02*
X01457D01*
X0145Y02792D02*
Y02807D01*
X01442Y0275D02*
X01457D01*
X0145Y02742D02*
Y02757D01*
X01392Y0275D02*
X01407D01*
X014Y02742D02*
Y02757D01*
X01342Y0275D02*
X01357D01*
X0135Y02742D02*
Y02757D01*
X01292Y0275D02*
X01307D01*
X013Y02742D02*
Y02757D01*
X01242Y0275D02*
X01257D01*
X0125Y02742D02*
Y02757D01*
X01192Y0275D02*
X01207D01*
X012Y02742D02*
Y02757D01*
X01192Y027D02*
X01207D01*
X012Y02692D02*
Y02707D01*
X01242Y027D02*
X01257D01*
X0125Y02692D02*
Y02707D01*
X01292Y027D02*
X01307D01*
X013Y02692D02*
Y02707D01*
X01342Y027D02*
X01357D01*
X0135Y02692D02*
Y02707D01*
X01392Y027D02*
X01407D01*
X014Y02692D02*
Y02707D01*
X01442Y027D02*
X01457D01*
X0145Y02692D02*
Y02707D01*
X01442Y0265D02*
X01457D01*
X0145Y02642D02*
Y02657D01*
X01392Y0265D02*
X01407D01*
X014Y02642D02*
Y02657D01*
X01342Y0265D02*
X01357D01*
X0135Y02642D02*
Y02657D01*
X01292Y0265D02*
X01307D01*
X013Y02642D02*
Y02657D01*
X01242Y0265D02*
X01257D01*
X0125Y02642D02*
Y02657D01*
X01442Y026D02*
X01457D01*
X0145Y02592D02*
Y02607D01*
X01442Y0255D02*
X01457D01*
X0145Y02542D02*
Y02557D01*
X01222Y021D02*
X01277D01*
X0125Y02072D02*
Y02127D01*
X01222Y0175D02*
X01277D01*
X0125Y01722D02*
Y01777D01*
X03215Y012D02*
X03265D01*
X0324Y01175D02*
Y01225D01*
M02*