%FSTAX23Y23*%
%MOIN*%
%SFA1B1*%

%IPPOS*%
%ADD36C,0.040000*%
%ADD37C,0.079370*%
%ADD38C,0.075000*%
%ADD39C,0.055000*%
%ADD40C,0.090000*%
%ADD41C,0.300000*%
%ADD42C,0.095000*%
%ADD43R,0.380000X0.340000*%
%ADD44C,0.068000*%
%LNledcube-1*%
%LPD*%
G54D36*
X01Y01D02*
Y05D01*
X05*
Y01D02*
Y05D01*
X01Y01D02*
X05D01*
G54D37*
X02232Y01611D03*
Y01788D03*
X02487D03*
Y01611D03*
X02087D03*
Y01788D03*
X01832D03*
Y01611D03*
X01687D03*
Y01788D03*
X01432D03*
Y01611D03*
G54D38*
X0484Y0338D03*
Y0348D03*
Y0358D03*
Y0368D03*
Y0378D03*
Y0388D03*
Y0398D03*
Y0408D03*
X02485Y022D03*
X02585D03*
X02685D03*
X02785D03*
X0199Y0218D03*
Y0228D03*
Y0238D03*
Y0248D03*
Y0258D03*
X0189Y0218D03*
Y0228D03*
Y0238D03*
Y0248D03*
Y0258D03*
X024Y025D03*
X017Y049D03*
Y048D03*
Y047D03*
Y046D03*
Y045D03*
Y044D03*
Y043D03*
Y042D03*
X024Y049D03*
Y048D03*
Y047D03*
Y046D03*
Y045D03*
Y044D03*
Y043D03*
Y042D03*
X031Y049D03*
Y048D03*
Y047D03*
Y046D03*
Y045D03*
Y044D03*
Y043D03*
Y042D03*
X038Y049D03*
Y048D03*
Y047D03*
Y046D03*
Y045D03*
Y044D03*
Y043D03*
Y042D03*
X017Y039D03*
Y038D03*
Y037D03*
Y036D03*
Y035D03*
Y034D03*
Y033D03*
Y032D03*
X024Y039D03*
Y038D03*
Y037D03*
Y036D03*
Y035D03*
Y034D03*
Y033D03*
Y032D03*
X031Y039D03*
Y038D03*
Y037D03*
Y036D03*
Y035D03*
Y034D03*
Y033D03*
Y032D03*
X038Y039D03*
Y038D03*
Y037D03*
Y036D03*
Y035D03*
Y034D03*
Y033D03*
Y032D03*
G54D39*
X03366Y03488D03*
X02667Y03487D03*
X01962Y03485D03*
X01259Y03488D03*
X03358Y04484D03*
X02656Y04487D03*
X0195Y04637D03*
Y04487D03*
X01249Y04712D03*
X01247Y04562D03*
X0125Y04487D03*
X0115Y028D03*
X012D03*
X0125D03*
X013D03*
X02693Y02575D03*
X0355Y0276D03*
X022Y024D03*
X01997Y0345D03*
X028Y03115D03*
X0285Y03175D03*
X028Y0305D03*
X0285Y03D03*
X027Y03675D03*
X04Y036D03*
X03925Y03712D03*
X03975Y03637D03*
X0405Y03562D03*
X041Y03487D03*
X04025Y0375D03*
X0395Y03675D03*
X04075Y03525D03*
X04125Y0345D03*
X03358Y04712D03*
X03397Y04675D03*
X03358Y04637D03*
X03397Y046D03*
X03358Y04562D03*
X03397Y04525D03*
Y0445D03*
Y0475D03*
X02656Y04712D03*
X02697Y04675D03*
X02656Y04637D03*
X02697Y046D03*
X02656Y04562D03*
X02697Y04525D03*
Y0445D03*
Y0475D03*
X0195Y04712D03*
X01997Y04675D03*
Y046D03*
X0195Y04562D03*
X01997Y04525D03*
Y0445D03*
Y0475D03*
X01297Y04675D03*
X01247Y04637D03*
X01297Y046D03*
Y04525D03*
Y0445D03*
Y0475D03*
X01259Y03712D03*
X01297Y03675D03*
X01259Y03637D03*
X01297Y036D03*
X01259Y03562D03*
X01297Y03525D03*
Y0345D03*
Y0375D03*
X01962Y03712D03*
X01997Y03675D03*
X01962Y03637D03*
X01997Y036D03*
X01962Y03562D03*
X01997Y03525D03*
Y0375D03*
X027D03*
X03397D03*
X027Y0345D03*
Y03525D03*
X02667Y03562D03*
X027Y036D03*
X02667Y03637D03*
Y03712D03*
X03366D03*
Y03637D03*
Y03562D03*
X03397Y0345D03*
Y03525D03*
Y036D03*
Y03675D03*
X0371Y02425D03*
X03735Y02647D03*
Y0271D03*
X03695Y02675D03*
Y02615D03*
X03747Y02957D03*
X03827Y02157D03*
X03142Y02312D03*
X0323Y0275D03*
X01181Y04351D03*
X01881D03*
X02581D03*
X03281D03*
Y03351D03*
X02581D03*
X01881D03*
X01181D03*
X018Y0435D03*
X025D03*
X032D03*
X0344Y0213D03*
X0288Y0197D03*
X03129Y01919D03*
X04487Y02499D03*
X04526Y02654D03*
Y02804D03*
Y02954D03*
Y03104D03*
Y03254D03*
Y03404D03*
Y03554D03*
Y03704D03*
Y03854D03*
Y04004D03*
Y04154D03*
Y04304D03*
Y04454D03*
Y04604D03*
X0115Y0255D03*
Y026D03*
Y0265D03*
Y027D03*
Y0275D03*
X012Y0255D03*
X0125D03*
X013D03*
X0135D03*
X014D03*
Y026D03*
X0135D03*
X013D03*
X0125D03*
X012D03*
Y0265D03*
X0135Y028D03*
X014D03*
X0145D03*
Y0275D03*
X014D03*
X0135D03*
X013D03*
X0125D03*
X012D03*
Y027D03*
X0125D03*
X013D03*
X0135D03*
X014D03*
X0145D03*
Y0265D03*
X014D03*
X0135D03*
X013D03*
X0125D03*
X0145Y026D03*
Y0255D03*
G54D40*
X0294Y012D03*
X0324D03*
G54D41*
X02326Y01269D03*
X034Y031D03*
G54D42*
X0125Y021D03*
Y0175D03*
G54D43*
X013Y0268D03*
G54D44*
X0146Y0232D03*
M02*