%FSTAX23Y23*%
%MOIN*%
%SFA1B1*%

%IPPOS*%
%ADD26C,0.010000*%
%ADD47C,0.005000*%
%ADD75C,0.006670*%
%ADD76C,0.006000*%
%LNledcube-1*%
%LPD*%
G54D26*
X05Y0059D02*
Y0099D01*
X01Y0059D02*
Y0099D01*
X03194Y006D02*
X05D01*
X01D02*
X02773D01*
X0494Y0062D02*
X05Y006D01*
X0494Y0058D02*
X05Y006D01*
X01D02*
X0106Y0058D01*
X01Y006D02*
X0106Y0062D01*
X0079Y01D02*
X0099D01*
X0079Y05D02*
X0099D01*
X008Y01D02*
Y02773D01*
Y03194D02*
Y05D01*
Y01D02*
X0082Y0106D01*
X0078D02*
X008Y01D01*
X0078Y0494D02*
X008Y05D01*
X0082Y0494*
G54D47*
X02212Y01591D02*
Y01631D01*
X02252*
Y01591*
X02212*
Y01768D02*
Y01808D01*
X02252*
Y01768*
X02212*
X02467D02*
Y01808D01*
X02507*
Y01768*
X02467*
Y01591D02*
Y01631D01*
X02507*
Y01591*
X02467*
X02067D02*
Y01631D01*
X02107*
Y01591*
X02067*
Y01768D02*
Y01808D01*
X02107*
Y01768*
X02067*
X01812D02*
Y01808D01*
X01852*
Y01768*
X01812*
Y01591D02*
Y01631D01*
X01852*
Y01591*
X01812*
X01667D02*
Y01631D01*
X01707*
Y01591*
X01667*
Y01768D02*
Y01808D01*
X01707*
Y01768*
X01667*
X01412D02*
Y01808D01*
X01452*
Y01768*
X01412*
Y01591D02*
Y01631D01*
X01452*
Y01591*
X01412*
X03366Y03468D02*
X03346Y03508D01*
X03386*
X03366Y03468*
X02667Y03467D02*
X02647Y03507D01*
X02687*
X02667Y03467*
X01962Y03465D02*
X01942Y03505D01*
X01982*
X01962Y03465*
X01259Y03468D02*
X01239Y03508D01*
X01279*
X01259Y03468*
X03358Y04464D02*
X03338Y04504D01*
X03378*
X03358Y04464*
X02656Y04467D02*
X02636Y04507D01*
X02676*
X02656Y04467*
X0195Y04617D02*
X0193Y04657D01*
X0197*
X0195Y04617*
Y04467D02*
X0193Y04507D01*
X0197*
X0195Y04467*
X01249Y04692D02*
X01229Y04732D01*
X01269*
X01249Y04692*
X01247Y04542D02*
X01227Y04582D01*
X01267*
X01247Y04542*
X0125Y04467D02*
X0123Y04507D01*
X0127*
X0125Y04467*
X0294Y0118D02*
X0295Y0119D01*
X0296*
X0295Y012*
X0296Y0121*
X0295*
X0294Y0122*
X0293Y0121*
X0292*
X0293Y012*
X0292Y0119*
X0293*
X0294Y0118*
X0275D02*
X0276Y0119D01*
X0277*
X0276Y012*
X0277Y0121*
X0276*
X0275Y0122*
X0274Y0121*
X0273*
X0274Y012*
X0273Y0119*
X0274*
X0275Y0118*
X026Y0296D02*
X0258Y03D01*
X0262*
X026Y0296*
X025D02*
X0248Y03D01*
X0252*
X025Y0296*
X024D02*
X0238Y03D01*
X0242*
X024Y0296*
X023D02*
X0228Y03D01*
X0232*
X023Y0296*
X022D02*
X0218Y03D01*
X0222*
X022Y0296*
X021D02*
X0208Y03D01*
X0212*
X021Y0296*
X02D02*
X0198Y03D01*
X0202*
X02Y0296*
X019D02*
X0188Y03D01*
X0192*
X019Y0296*
X018D02*
X0178Y03D01*
X0182*
X018Y0296*
X0115Y0278D02*
X0113Y0282D01*
X0117*
X0115Y0278*
X012D02*
X0118Y0282D01*
X0122*
X012Y0278*
X0125D02*
X0123Y0282D01*
X0127*
X0125Y0278*
X013D02*
X0128Y0282D01*
X0132*
X013Y0278*
X02693Y02555D02*
X02673Y02595D01*
X02713*
X02693Y02555*
X0355Y0274D02*
X0353Y0278D01*
X0357*
X0355Y0274*
X0144Y023D02*
X0145Y0232D01*
X0144Y0234*
X0146Y0233*
X0148Y0234*
X0147Y0232*
X0148Y023*
X0146Y0231*
X0144Y023*
X03771Y02568D02*
X03751Y02608D01*
X03791*
X03771Y02568*
X022Y0238D02*
X0218Y0242D01*
X0222*
X022Y0238*
X03518Y04801D02*
X03498Y04841D01*
X03538*
X03518Y04801*
X02818D02*
X02798Y04841D01*
X02838*
X02818Y04801*
X02118Y04806D02*
X02098Y04846D01*
X02138*
X02118Y04806*
X01418Y04801D02*
X01398Y04841D01*
X01438*
X01418Y04801*
X01997Y0343D02*
X01977Y0347D01*
X02017*
X01997Y0343*
X01418Y03801D02*
X01398Y03841D01*
X01438*
X01418Y03801*
X02118Y03803D02*
X02098Y03843D01*
X02138*
X02118Y03803*
X02825Y03805D02*
X02805Y03845D01*
X02845*
X02825Y03805*
X03518Y03798D02*
X03498Y03838D01*
X03538*
X03518Y03798*
X028Y03095D02*
X0278Y03135D01*
X0282*
X028Y03095*
X0285Y03155D02*
X0283Y03195D01*
X0287*
X0285Y03155*
X028Y0303D02*
X0278Y0307D01*
X0282*
X028Y0303*
X0285Y0298D02*
X0283Y0302D01*
X0287*
X0285Y0298*
X027Y03655D02*
X0268Y03695D01*
X0272*
X027Y03655*
X04Y0358D02*
X0398Y0362D01*
X0402*
X04Y0358*
X03925Y03692D02*
X03905Y03732D01*
X03945*
X03925Y03692*
X03975Y03617D02*
X03955Y03657D01*
X03995*
X03975Y03617*
X0405Y03542D02*
X0403Y03582D01*
X0407*
X0405Y03542*
X041Y03467D02*
X0408Y03507D01*
X0412*
X041Y03467*
X04025Y0373D02*
X04005Y0377D01*
X04045*
X04025Y0373*
X0395Y03655D02*
X0393Y03695D01*
X0397*
X0395Y03655*
X04075Y03505D02*
X04055Y03545D01*
X04095*
X04075Y03505*
X04125Y0343D02*
X04105Y0347D01*
X04145*
X04125Y0343*
X03358Y04692D02*
X03338Y04732D01*
X03378*
X03358Y04692*
X03397Y04655D02*
X03377Y04695D01*
X03417*
X03397Y04655*
X03358Y04617D02*
X03338Y04657D01*
X03378*
X03358Y04617*
X03397Y0458D02*
X03377Y0462D01*
X03417*
X03397Y0458*
X03358Y04542D02*
X03338Y04582D01*
X03378*
X03358Y04542*
X03397Y04505D02*
X03377Y04545D01*
X03417*
X03397Y04505*
Y0443D02*
X03377Y0447D01*
X03417*
X03397Y0443*
Y0473D02*
X03377Y0477D01*
X03417*
X03397Y0473*
X02656Y04692D02*
X02636Y04732D01*
X02676*
X02656Y04692*
X02697Y04655D02*
X02677Y04695D01*
X02717*
X02697Y04655*
X02656Y04617D02*
X02636Y04657D01*
X02676*
X02656Y04617*
X02697Y0458D02*
X02677Y0462D01*
X02717*
X02697Y0458*
X02656Y04542D02*
X02636Y04582D01*
X02676*
X02656Y04542*
X02697Y04505D02*
X02677Y04545D01*
X02717*
X02697Y04505*
Y0443D02*
X02677Y0447D01*
X02717*
X02697Y0443*
Y0473D02*
X02677Y0477D01*
X02717*
X02697Y0473*
X0195Y04692D02*
X0193Y04732D01*
X0197*
X0195Y04692*
X01997Y04655D02*
X01977Y04695D01*
X02017*
X01997Y04655*
Y0458D02*
X01977Y0462D01*
X02017*
X01997Y0458*
X0195Y04542D02*
X0193Y04582D01*
X0197*
X0195Y04542*
X01997Y04505D02*
X01977Y04545D01*
X02017*
X01997Y04505*
Y0443D02*
X01977Y0447D01*
X02017*
X01997Y0443*
Y0473D02*
X01977Y0477D01*
X02017*
X01997Y0473*
X01297Y04655D02*
X01277Y04695D01*
X01317*
X01297Y04655*
X01247Y04617D02*
X01227Y04657D01*
X01267*
X01247Y04617*
X01297Y0458D02*
X01277Y0462D01*
X01317*
X01297Y0458*
Y04505D02*
X01277Y04545D01*
X01317*
X01297Y04505*
Y0443D02*
X01277Y0447D01*
X01317*
X01297Y0443*
Y0473D02*
X01277Y0477D01*
X01317*
X01297Y0473*
X01259Y03692D02*
X01239Y03732D01*
X01279*
X01259Y03692*
X01297Y03655D02*
X01277Y03695D01*
X01317*
X01297Y03655*
X01259Y03617D02*
X01239Y03657D01*
X01279*
X01259Y03617*
X01297Y0358D02*
X01277Y0362D01*
X01317*
X01297Y0358*
X01259Y03542D02*
X01239Y03582D01*
X01279*
X01259Y03542*
X01297Y03505D02*
X01277Y03545D01*
X01317*
X01297Y03505*
Y0343D02*
X01277Y0347D01*
X01317*
X01297Y0343*
Y0373D02*
X01277Y0377D01*
X01317*
X01297Y0373*
X01962Y03692D02*
X01942Y03732D01*
X01982*
X01962Y03692*
X01997Y03655D02*
X01977Y03695D01*
X02017*
X01997Y03655*
X01962Y03617D02*
X01942Y03657D01*
X01982*
X01962Y03617*
X01997Y0358D02*
X01977Y0362D01*
X02017*
X01997Y0358*
X01962Y03542D02*
X01942Y03582D01*
X01982*
X01962Y03542*
X01997Y03505D02*
X01977Y03545D01*
X02017*
X01997Y03505*
Y0373D02*
X01977Y0377D01*
X02017*
X01997Y0373*
X027D02*
X0268Y0377D01*
X0272*
X027Y0373*
X03397D02*
X03377Y0377D01*
X03417*
X03397Y0373*
X027Y0343D02*
X0268Y0347D01*
X0272*
X027Y0343*
Y03505D02*
X0268Y03545D01*
X0272*
X027Y03505*
X02667Y03542D02*
X02647Y03582D01*
X02687*
X02667Y03542*
X027Y0358D02*
X0268Y0362D01*
X0272*
X027Y0358*
X02667Y03617D02*
X02647Y03657D01*
X02687*
X02667Y03617*
Y03692D02*
X02647Y03732D01*
X02687*
X02667Y03692*
X03366D02*
X03346Y03732D01*
X03386*
X03366Y03692*
Y03617D02*
X03346Y03657D01*
X03386*
X03366Y03617*
Y03542D02*
X03346Y03582D01*
X03386*
X03366Y03542*
X03397Y0343D02*
X03377Y0347D01*
X03417*
X03397Y0343*
Y03505D02*
X03377Y03545D01*
X03417*
X03397Y03505*
Y0358D02*
X03377Y0362D01*
X03417*
X03397Y0358*
Y03655D02*
X03377Y03695D01*
X03417*
X03397Y03655*
X048Y0474D02*
X0478Y0478D01*
X0482*
X048Y0474*
X04712Y04305D02*
X04692Y04345D01*
X04732*
X04712Y04305*
X04675Y0393D02*
X04655Y0397D01*
X04695*
X04675Y0393*
X04712Y03432D02*
X04692Y03472D01*
X04732*
X04712Y03432*
Y03132D02*
X04692Y03172D01*
X04732*
X04712Y03132*
Y02832D02*
X04692Y02872D01*
X04732*
X04712Y02832*
Y02532D02*
X04692Y02572D01*
X04732*
X04712Y02532*
X0371Y02405D02*
X0369Y02445D01*
X0373*
X0371Y02405*
X03735Y02627D02*
X03715Y02667D01*
X03755*
X03735Y02627*
Y0269D02*
X03715Y0273D01*
X03755*
X03735Y0269*
X03695Y02655D02*
X03675Y02695D01*
X03715*
X03695Y02655*
Y02595D02*
X03675Y02635D01*
X03715*
X03695Y02595*
X03747Y02937D02*
X03727Y02977D01*
X03767*
X03747Y02937*
X03832D02*
X03812Y02977D01*
X03852*
X03832Y02937*
X03827Y02137D02*
X03807Y02177D01*
X03847*
X03827Y02137*
X0389Y0248D02*
X0387Y0252D01*
X0391*
X0389Y0248*
X027Y0168D02*
X0268Y0172D01*
X0272*
X027Y0168*
X03142Y02292D02*
X03122Y02332D01*
X03162*
X03142Y02292*
X0323Y0273D02*
X0321Y0277D01*
X0325*
X0323Y0273*
X025Y0378D02*
X0248Y0382D01*
X0252*
X025Y0378*
X032D02*
X0318Y0382D01*
X0322*
X032Y0378*
X018Y0381D02*
X0178Y0385D01*
X0182*
X018Y0381*
X011Y037D02*
X0108Y0374D01*
X0112*
X011Y037*
Y047D02*
X0108Y0474D01*
X0112*
X011Y047*
X018Y0478D02*
X0178Y0482D01*
X0182*
X018Y0478*
X032D02*
X0318Y0482D01*
X0322*
X032Y0478*
X025D02*
X0248Y0482D01*
X0252*
X025Y0478*
X01181Y04331D02*
X01161Y04371D01*
X01201*
X01181Y04331*
X01881D02*
X01861Y04371D01*
X01901*
X01881Y04331*
X02581D02*
X02561Y04371D01*
X02601*
X02581Y04331*
X03281D02*
X03261Y04371D01*
X03301*
X03281Y04331*
Y03331D02*
X03261Y03371D01*
X03301*
X03281Y03331*
X02581D02*
X02561Y03371D01*
X02601*
X02581Y03331*
X01881D02*
X01861Y03371D01*
X01901*
X01881Y03331*
X01181D02*
X01161Y03371D01*
X01201*
X01181Y03331*
X018Y0433D02*
X0178Y0437D01*
X0182*
X018Y0433*
X025D02*
X0248Y0437D01*
X0252*
X025Y0433*
X032D02*
X0318Y0437D01*
X0322*
X032Y0433*
X0344Y0211D02*
X0342Y0215D01*
X0346*
X0344Y0211*
X0288Y0195D02*
X0286Y0199D01*
X029*
X0288Y0195*
X03017Y02197D02*
X02997Y02237D01*
X03037*
X03017Y02197*
X03129Y01899D02*
X03109Y01939D01*
X03149*
X03129Y01899*
X02316Y01259D02*
Y01249D01*
X02336*
Y01259*
X02346*
Y01279*
X02336*
Y01289*
X02316*
Y01279*
X02306*
Y01259*
X02316*
X0339Y0309D02*
Y0308D01*
X0341*
Y0309*
X0342*
Y0311*
X0341*
Y0312*
X0339*
Y0311*
X0338*
Y0309*
X0339*
X04487Y02479D02*
X04467Y02519D01*
X04507*
X04487Y02479*
X04526Y02634D02*
X04506Y02674D01*
X04546*
X04526Y02634*
Y02784D02*
X04506Y02824D01*
X04546*
X04526Y02784*
Y02934D02*
X04506Y02974D01*
X04546*
X04526Y02934*
Y03084D02*
X04506Y03124D01*
X04546*
X04526Y03084*
Y03234D02*
X04506Y03274D01*
X04546*
X04526Y03234*
Y03384D02*
X04506Y03424D01*
X04546*
X04526Y03384*
Y03534D02*
X04506Y03574D01*
X04546*
X04526Y03534*
Y03684D02*
X04506Y03724D01*
X04546*
X04526Y03684*
Y03834D02*
X04506Y03874D01*
X04546*
X04526Y03834*
Y03984D02*
X04506Y04024D01*
X04546*
X04526Y03984*
Y04134D02*
X04506Y04174D01*
X04546*
X04526Y04134*
Y04284D02*
X04506Y04324D01*
X04546*
X04526Y04284*
Y04434D02*
X04506Y04474D01*
X04546*
X04526Y04434*
Y04584D02*
X04506Y04624D01*
X04546*
X04526Y04584*
X0115Y0253D02*
X0113Y0257D01*
X0117*
X0115Y0253*
Y0258D02*
X0113Y0262D01*
X0117*
X0115Y0258*
Y0263D02*
X0113Y0267D01*
X0117*
X0115Y0263*
Y0268D02*
X0113Y0272D01*
X0117*
X0115Y0268*
Y0273D02*
X0113Y0277D01*
X0117*
X0115Y0273*
X012Y0253D02*
X0118Y0257D01*
X0122*
X012Y0253*
X0125D02*
X0123Y0257D01*
X0127*
X0125Y0253*
X013D02*
X0128Y0257D01*
X0132*
X013Y0253*
X0135D02*
X0133Y0257D01*
X0137*
X0135Y0253*
X014D02*
X0138Y0257D01*
X0142*
X014Y0253*
Y0258D02*
X0138Y0262D01*
X0142*
X014Y0258*
X0135D02*
X0133Y0262D01*
X0137*
X0135Y0258*
X013D02*
X0128Y0262D01*
X0132*
X013Y0258*
X0125D02*
X0123Y0262D01*
X0127*
X0125Y0258*
X012D02*
X0118Y0262D01*
X0122*
X012Y0258*
Y0263D02*
X0118Y0267D01*
X0122*
X012Y0263*
X0135Y0278D02*
X0133Y0282D01*
X0137*
X0135Y0278*
X014D02*
X0138Y0282D01*
X0142*
X014Y0278*
X0145D02*
X0143Y0282D01*
X0147*
X0145Y0278*
Y0273D02*
X0143Y0277D01*
X0147*
X0145Y0273*
X014D02*
X0138Y0277D01*
X0142*
X014Y0273*
X0135D02*
X0133Y0277D01*
X0137*
X0135Y0273*
X013D02*
X0128Y0277D01*
X0132*
X013Y0273*
X0125D02*
X0123Y0277D01*
X0127*
X0125Y0273*
X012D02*
X0118Y0277D01*
X0122*
X012Y0273*
Y0268D02*
X0118Y0272D01*
X0122*
X012Y0268*
X0125D02*
X0123Y0272D01*
X0127*
X0125Y0268*
X013D02*
X0128Y0272D01*
X0132*
X013Y0268*
X0135D02*
X0133Y0272D01*
X0137*
X0135Y0268*
X014D02*
X0138Y0272D01*
X0142*
X014Y0268*
X0145D02*
X0143Y0272D01*
X0147*
X0145Y0268*
Y0263D02*
X0143Y0267D01*
X0147*
X0145Y0263*
X014D02*
X0138Y0267D01*
X0142*
X014Y0263*
X0135D02*
X0133Y0267D01*
X0137*
X0135Y0263*
X013D02*
X0128Y0267D01*
X0132*
X013Y0263*
X0125D02*
X0123Y0267D01*
X0127*
X0125Y0263*
X0145Y0258D02*
X0143Y0262D01*
X0147*
X0145Y0258*
Y0253D02*
X0143Y0257D01*
X0147*
X0145Y0253*
X0123Y0208D02*
X0124D01*
X0125Y0209*
X0126Y0208*
X0127*
Y0209*
X0126Y021*
X0127Y0211*
Y0212*
X0126*
X0125Y0211*
X0124Y0212*
X0123*
Y0211*
X0124Y021*
X0123Y0209*
Y0208*
Y0173D02*
X0124D01*
X0125Y0174*
X0126Y0173*
X0127*
Y0174*
X0126Y0175*
X0127Y0176*
Y0177*
X0126*
X0125Y0176*
X0124Y0177*
X0123*
Y0176*
X0124Y0175*
X0123Y0174*
Y0173*
X0324Y0118D02*
X0325Y0119D01*
X0326*
X0325Y012*
X0326Y0121*
X0325*
X0324Y0122*
X0323Y0121*
X0322*
X0323Y012*
X0322Y0119*
X0323*
X0324Y0118*
G54D75*
X0486Y0338D02*
D01*
X04859Y03381*
X04859Y03382*
X04859Y03384*
X04859Y03385*
X04858Y03386*
X04858Y03388*
X04857Y03389*
X04856Y0339*
X04856Y03391*
X04855Y03392*
X04854Y03393*
X04853Y03394*
X04852Y03395*
X04851Y03396*
X0485Y03397*
X04848Y03397*
X04847Y03398*
X04846Y03399*
X04844Y03399*
X04843Y03399*
X04842Y03399*
X0484Y03399*
X04839*
X04837Y03399*
X04836Y03399*
X04835Y03399*
X04833Y03399*
X04832Y03398*
X04831Y03397*
X0483Y03397*
X04828Y03396*
X04827Y03395*
X04826Y03394*
X04825Y03393*
X04824Y03392*
X04823Y03391*
X04823Y0339*
X04822Y03389*
X04821Y03388*
X04821Y03386*
X0482Y03385*
X0482Y03384*
X0482Y03382*
X0482Y03381*
X0482Y0338*
X0482Y03378*
X0482Y03377*
X0482Y03375*
X0482Y03374*
X04821Y03373*
X04821Y03371*
X04822Y0337*
X04823Y03369*
X04823Y03368*
X04824Y03367*
X04825Y03366*
X04826Y03365*
X04827Y03364*
X04828Y03363*
X0483Y03362*
X04831Y03362*
X04832Y03361*
X04833Y0336*
X04835Y0336*
X04836Y0336*
X04837Y0336*
X04839Y0336*
X0484*
X04842Y0336*
X04843Y0336*
X04844Y0336*
X04846Y0336*
X04847Y03361*
X04848Y03362*
X0485Y03362*
X04851Y03363*
X04852Y03364*
X04853Y03365*
X04854Y03366*
X04855Y03367*
X04856Y03368*
X04856Y03369*
X04857Y0337*
X04858Y03371*
X04858Y03373*
X04859Y03374*
X04859Y03375*
X04859Y03377*
X04859Y03378*
X0486Y0338*
Y0348D02*
D01*
X04859Y03481*
X04859Y03482*
X04859Y03484*
X04859Y03485*
X04858Y03486*
X04858Y03488*
X04857Y03489*
X04856Y0349*
X04856Y03491*
X04855Y03492*
X04854Y03493*
X04853Y03494*
X04852Y03495*
X04851Y03496*
X0485Y03497*
X04848Y03497*
X04847Y03498*
X04846Y03499*
X04844Y03499*
X04843Y03499*
X04842Y03499*
X0484Y03499*
X04839*
X04837Y03499*
X04836Y03499*
X04835Y03499*
X04833Y03499*
X04832Y03498*
X04831Y03497*
X0483Y03497*
X04828Y03496*
X04827Y03495*
X04826Y03494*
X04825Y03493*
X04824Y03492*
X04823Y03491*
X04823Y0349*
X04822Y03489*
X04821Y03488*
X04821Y03486*
X0482Y03485*
X0482Y03484*
X0482Y03482*
X0482Y03481*
X0482Y0348*
X0482Y03478*
X0482Y03477*
X0482Y03475*
X0482Y03474*
X04821Y03473*
X04821Y03471*
X04822Y0347*
X04823Y03469*
X04823Y03468*
X04824Y03467*
X04825Y03466*
X04826Y03465*
X04827Y03464*
X04828Y03463*
X0483Y03462*
X04831Y03462*
X04832Y03461*
X04833Y0346*
X04835Y0346*
X04836Y0346*
X04837Y0346*
X04839Y0346*
X0484*
X04842Y0346*
X04843Y0346*
X04844Y0346*
X04846Y0346*
X04847Y03461*
X04848Y03462*
X0485Y03462*
X04851Y03463*
X04852Y03464*
X04853Y03465*
X04854Y03466*
X04855Y03467*
X04856Y03468*
X04856Y03469*
X04857Y0347*
X04858Y03471*
X04858Y03473*
X04859Y03474*
X04859Y03475*
X04859Y03477*
X04859Y03478*
X0486Y0348*
Y0358D02*
D01*
X04859Y03581*
X04859Y03582*
X04859Y03584*
X04859Y03585*
X04858Y03586*
X04858Y03588*
X04857Y03589*
X04856Y0359*
X04856Y03591*
X04855Y03592*
X04854Y03593*
X04853Y03594*
X04852Y03595*
X04851Y03596*
X0485Y03597*
X04848Y03597*
X04847Y03598*
X04846Y03599*
X04844Y03599*
X04843Y03599*
X04842Y03599*
X0484Y03599*
X04839*
X04837Y03599*
X04836Y03599*
X04835Y03599*
X04833Y03599*
X04832Y03598*
X04831Y03597*
X0483Y03597*
X04828Y03596*
X04827Y03595*
X04826Y03594*
X04825Y03593*
X04824Y03592*
X04823Y03591*
X04823Y0359*
X04822Y03589*
X04821Y03588*
X04821Y03586*
X0482Y03585*
X0482Y03584*
X0482Y03582*
X0482Y03581*
X0482Y0358*
X0482Y03578*
X0482Y03577*
X0482Y03575*
X0482Y03574*
X04821Y03573*
X04821Y03571*
X04822Y0357*
X04823Y03569*
X04823Y03568*
X04824Y03567*
X04825Y03566*
X04826Y03565*
X04827Y03564*
X04828Y03563*
X0483Y03562*
X04831Y03562*
X04832Y03561*
X04833Y0356*
X04835Y0356*
X04836Y0356*
X04837Y0356*
X04839Y0356*
X0484*
X04842Y0356*
X04843Y0356*
X04844Y0356*
X04846Y0356*
X04847Y03561*
X04848Y03562*
X0485Y03562*
X04851Y03563*
X04852Y03564*
X04853Y03565*
X04854Y03566*
X04855Y03567*
X04856Y03568*
X04856Y03569*
X04857Y0357*
X04858Y03571*
X04858Y03573*
X04859Y03574*
X04859Y03575*
X04859Y03577*
X04859Y03578*
X0486Y0358*
Y0368D02*
D01*
X04859Y03681*
X04859Y03682*
X04859Y03684*
X04859Y03685*
X04858Y03686*
X04858Y03688*
X04857Y03689*
X04856Y0369*
X04856Y03691*
X04855Y03692*
X04854Y03693*
X04853Y03694*
X04852Y03695*
X04851Y03696*
X0485Y03697*
X04848Y03697*
X04847Y03698*
X04846Y03699*
X04844Y03699*
X04843Y03699*
X04842Y03699*
X0484Y03699*
X04839*
X04837Y03699*
X04836Y03699*
X04835Y03699*
X04833Y03699*
X04832Y03698*
X04831Y03697*
X0483Y03697*
X04828Y03696*
X04827Y03695*
X04826Y03694*
X04825Y03693*
X04824Y03692*
X04823Y03691*
X04823Y0369*
X04822Y03689*
X04821Y03688*
X04821Y03686*
X0482Y03685*
X0482Y03684*
X0482Y03682*
X0482Y03681*
X0482Y0368*
X0482Y03678*
X0482Y03677*
X0482Y03675*
X0482Y03674*
X04821Y03673*
X04821Y03671*
X04822Y0367*
X04823Y03669*
X04823Y03668*
X04824Y03667*
X04825Y03666*
X04826Y03665*
X04827Y03664*
X04828Y03663*
X0483Y03662*
X04831Y03662*
X04832Y03661*
X04833Y0366*
X04835Y0366*
X04836Y0366*
X04837Y0366*
X04839Y0366*
X0484*
X04842Y0366*
X04843Y0366*
X04844Y0366*
X04846Y0366*
X04847Y03661*
X04848Y03662*
X0485Y03662*
X04851Y03663*
X04852Y03664*
X04853Y03665*
X04854Y03666*
X04855Y03667*
X04856Y03668*
X04856Y03669*
X04857Y0367*
X04858Y03671*
X04858Y03673*
X04859Y03674*
X04859Y03675*
X04859Y03677*
X04859Y03678*
X0486Y0368*
Y0378D02*
D01*
X04859Y03781*
X04859Y03782*
X04859Y03784*
X04859Y03785*
X04858Y03786*
X04858Y03788*
X04857Y03789*
X04856Y0379*
X04856Y03791*
X04855Y03792*
X04854Y03793*
X04853Y03794*
X04852Y03795*
X04851Y03796*
X0485Y03797*
X04848Y03797*
X04847Y03798*
X04846Y03799*
X04844Y03799*
X04843Y03799*
X04842Y03799*
X0484Y03799*
X04839*
X04837Y03799*
X04836Y03799*
X04835Y03799*
X04833Y03799*
X04832Y03798*
X04831Y03797*
X0483Y03797*
X04828Y03796*
X04827Y03795*
X04826Y03794*
X04825Y03793*
X04824Y03792*
X04823Y03791*
X04823Y0379*
X04822Y03789*
X04821Y03788*
X04821Y03786*
X0482Y03785*
X0482Y03784*
X0482Y03782*
X0482Y03781*
X0482Y0378*
X0482Y03778*
X0482Y03777*
X0482Y03775*
X0482Y03774*
X04821Y03773*
X04821Y03771*
X04822Y0377*
X04823Y03769*
X04823Y03768*
X04824Y03767*
X04825Y03766*
X04826Y03765*
X04827Y03764*
X04828Y03763*
X0483Y03762*
X04831Y03762*
X04832Y03761*
X04833Y0376*
X04835Y0376*
X04836Y0376*
X04837Y0376*
X04839Y0376*
X0484*
X04842Y0376*
X04843Y0376*
X04844Y0376*
X04846Y0376*
X04847Y03761*
X04848Y03762*
X0485Y03762*
X04851Y03763*
X04852Y03764*
X04853Y03765*
X04854Y03766*
X04855Y03767*
X04856Y03768*
X04856Y03769*
X04857Y0377*
X04858Y03771*
X04858Y03773*
X04859Y03774*
X04859Y03775*
X04859Y03777*
X04859Y03778*
X0486Y0378*
Y0388D02*
D01*
X04859Y03881*
X04859Y03882*
X04859Y03884*
X04859Y03885*
X04858Y03886*
X04858Y03888*
X04857Y03889*
X04856Y0389*
X04856Y03891*
X04855Y03892*
X04854Y03893*
X04853Y03894*
X04852Y03895*
X04851Y03896*
X0485Y03897*
X04848Y03897*
X04847Y03898*
X04846Y03899*
X04844Y03899*
X04843Y03899*
X04842Y03899*
X0484Y03899*
X04839*
X04837Y03899*
X04836Y03899*
X04835Y03899*
X04833Y03899*
X04832Y03898*
X04831Y03897*
X0483Y03897*
X04828Y03896*
X04827Y03895*
X04826Y03894*
X04825Y03893*
X04824Y03892*
X04823Y03891*
X04823Y0389*
X04822Y03889*
X04821Y03888*
X04821Y03886*
X0482Y03885*
X0482Y03884*
X0482Y03882*
X0482Y03881*
X0482Y0388*
X0482Y03878*
X0482Y03877*
X0482Y03875*
X0482Y03874*
X04821Y03873*
X04821Y03871*
X04822Y0387*
X04823Y03869*
X04823Y03868*
X04824Y03867*
X04825Y03866*
X04826Y03865*
X04827Y03864*
X04828Y03863*
X0483Y03862*
X04831Y03862*
X04832Y03861*
X04833Y0386*
X04835Y0386*
X04836Y0386*
X04837Y0386*
X04839Y0386*
X0484*
X04842Y0386*
X04843Y0386*
X04844Y0386*
X04846Y0386*
X04847Y03861*
X04848Y03862*
X0485Y03862*
X04851Y03863*
X04852Y03864*
X04853Y03865*
X04854Y03866*
X04855Y03867*
X04856Y03868*
X04856Y03869*
X04857Y0387*
X04858Y03871*
X04858Y03873*
X04859Y03874*
X04859Y03875*
X04859Y03877*
X04859Y03878*
X0486Y0388*
Y0398D02*
D01*
X04859Y03981*
X04859Y03982*
X04859Y03984*
X04859Y03985*
X04858Y03986*
X04858Y03988*
X04857Y03989*
X04856Y0399*
X04856Y03991*
X04855Y03992*
X04854Y03993*
X04853Y03994*
X04852Y03995*
X04851Y03996*
X0485Y03997*
X04848Y03997*
X04847Y03998*
X04846Y03999*
X04844Y03999*
X04843Y03999*
X04842Y03999*
X0484Y03999*
X04839*
X04837Y03999*
X04836Y03999*
X04835Y03999*
X04833Y03999*
X04832Y03998*
X04831Y03997*
X0483Y03997*
X04828Y03996*
X04827Y03995*
X04826Y03994*
X04825Y03993*
X04824Y03992*
X04823Y03991*
X04823Y0399*
X04822Y03989*
X04821Y03988*
X04821Y03986*
X0482Y03985*
X0482Y03984*
X0482Y03982*
X0482Y03981*
X0482Y0398*
X0482Y03978*
X0482Y03977*
X0482Y03975*
X0482Y03974*
X04821Y03973*
X04821Y03971*
X04822Y0397*
X04823Y03969*
X04823Y03968*
X04824Y03967*
X04825Y03966*
X04826Y03965*
X04827Y03964*
X04828Y03963*
X0483Y03962*
X04831Y03962*
X04832Y03961*
X04833Y0396*
X04835Y0396*
X04836Y0396*
X04837Y0396*
X04839Y0396*
X0484*
X04842Y0396*
X04843Y0396*
X04844Y0396*
X04846Y0396*
X04847Y03961*
X04848Y03962*
X0485Y03962*
X04851Y03963*
X04852Y03964*
X04853Y03965*
X04854Y03966*
X04855Y03967*
X04856Y03968*
X04856Y03969*
X04857Y0397*
X04858Y03971*
X04858Y03973*
X04859Y03974*
X04859Y03975*
X04859Y03977*
X04859Y03978*
X0486Y0398*
Y0408D02*
D01*
X04859Y04081*
X04859Y04082*
X04859Y04084*
X04859Y04085*
X04858Y04086*
X04858Y04088*
X04857Y04089*
X04856Y0409*
X04856Y04091*
X04855Y04092*
X04854Y04093*
X04853Y04094*
X04852Y04095*
X04851Y04096*
X0485Y04097*
X04848Y04097*
X04847Y04098*
X04846Y04099*
X04844Y04099*
X04843Y04099*
X04842Y04099*
X0484Y04099*
X04839*
X04837Y04099*
X04836Y04099*
X04835Y04099*
X04833Y04099*
X04832Y04098*
X04831Y04097*
X0483Y04097*
X04828Y04096*
X04827Y04095*
X04826Y04094*
X04825Y04093*
X04824Y04092*
X04823Y04091*
X04823Y0409*
X04822Y04089*
X04821Y04088*
X04821Y04086*
X0482Y04085*
X0482Y04084*
X0482Y04082*
X0482Y04081*
X0482Y0408*
X0482Y04078*
X0482Y04077*
X0482Y04075*
X0482Y04074*
X04821Y04073*
X04821Y04071*
X04822Y0407*
X04823Y04069*
X04823Y04068*
X04824Y04067*
X04825Y04066*
X04826Y04065*
X04827Y04064*
X04828Y04063*
X0483Y04062*
X04831Y04062*
X04832Y04061*
X04833Y0406*
X04835Y0406*
X04836Y0406*
X04837Y0406*
X04839Y0406*
X0484*
X04842Y0406*
X04843Y0406*
X04844Y0406*
X04846Y0406*
X04847Y04061*
X04848Y04062*
X0485Y04062*
X04851Y04063*
X04852Y04064*
X04853Y04065*
X04854Y04066*
X04855Y04067*
X04856Y04068*
X04856Y04069*
X04857Y0407*
X04858Y04071*
X04858Y04073*
X04859Y04074*
X04859Y04075*
X04859Y04077*
X04859Y04078*
X0486Y0408*
X02505Y022D02*
D01*
X02504Y02201*
X02504Y02202*
X02504Y02204*
X02504Y02205*
X02503Y02206*
X02503Y02208*
X02502Y02209*
X02501Y0221*
X02501Y02211*
X025Y02212*
X02499Y02213*
X02498Y02214*
X02497Y02215*
X02496Y02216*
X02495Y02217*
X02493Y02217*
X02492Y02218*
X02491Y02219*
X02489Y02219*
X02488Y02219*
X02487Y02219*
X02485Y02219*
X02484*
X02482Y02219*
X02481Y02219*
X0248Y02219*
X02478Y02219*
X02477Y02218*
X02476Y02217*
X02475Y02217*
X02473Y02216*
X02472Y02215*
X02471Y02214*
X0247Y02213*
X02469Y02212*
X02468Y02211*
X02468Y0221*
X02467Y02209*
X02466Y02208*
X02466Y02206*
X02465Y02205*
X02465Y02204*
X02465Y02202*
X02465Y02201*
X02465Y022*
X02465Y02198*
X02465Y02197*
X02465Y02195*
X02465Y02194*
X02466Y02193*
X02466Y02191*
X02467Y0219*
X02468Y02189*
X02468Y02188*
X02469Y02187*
X0247Y02186*
X02471Y02185*
X02472Y02184*
X02473Y02183*
X02475Y02182*
X02476Y02182*
X02477Y02181*
X02478Y0218*
X0248Y0218*
X02481Y0218*
X02482Y0218*
X02484Y0218*
X02485*
X02487Y0218*
X02488Y0218*
X02489Y0218*
X02491Y0218*
X02492Y02181*
X02493Y02182*
X02495Y02182*
X02496Y02183*
X02497Y02184*
X02498Y02185*
X02499Y02186*
X025Y02187*
X02501Y02188*
X02501Y02189*
X02502Y0219*
X02503Y02191*
X02503Y02193*
X02504Y02194*
X02504Y02195*
X02504Y02197*
X02504Y02198*
X02505Y022*
X02605D02*
D01*
X02604Y02201*
X02604Y02202*
X02604Y02204*
X02604Y02205*
X02603Y02206*
X02603Y02208*
X02602Y02209*
X02601Y0221*
X02601Y02211*
X026Y02212*
X02599Y02213*
X02598Y02214*
X02597Y02215*
X02596Y02216*
X02595Y02217*
X02593Y02217*
X02592Y02218*
X02591Y02219*
X02589Y02219*
X02588Y02219*
X02587Y02219*
X02585Y02219*
X02584*
X02582Y02219*
X02581Y02219*
X0258Y02219*
X02578Y02219*
X02577Y02218*
X02576Y02217*
X02575Y02217*
X02573Y02216*
X02572Y02215*
X02571Y02214*
X0257Y02213*
X02569Y02212*
X02568Y02211*
X02568Y0221*
X02567Y02209*
X02566Y02208*
X02566Y02206*
X02565Y02205*
X02565Y02204*
X02565Y02202*
X02565Y02201*
X02565Y022*
X02565Y02198*
X02565Y02197*
X02565Y02195*
X02565Y02194*
X02566Y02193*
X02566Y02191*
X02567Y0219*
X02568Y02189*
X02568Y02188*
X02569Y02187*
X0257Y02186*
X02571Y02185*
X02572Y02184*
X02573Y02183*
X02575Y02182*
X02576Y02182*
X02577Y02181*
X02578Y0218*
X0258Y0218*
X02581Y0218*
X02582Y0218*
X02584Y0218*
X02585*
X02587Y0218*
X02588Y0218*
X02589Y0218*
X02591Y0218*
X02592Y02181*
X02593Y02182*
X02595Y02182*
X02596Y02183*
X02597Y02184*
X02598Y02185*
X02599Y02186*
X026Y02187*
X02601Y02188*
X02601Y02189*
X02602Y0219*
X02603Y02191*
X02603Y02193*
X02604Y02194*
X02604Y02195*
X02604Y02197*
X02604Y02198*
X02605Y022*
X02705D02*
D01*
X02704Y02201*
X02704Y02202*
X02704Y02204*
X02704Y02205*
X02703Y02206*
X02703Y02208*
X02702Y02209*
X02701Y0221*
X02701Y02211*
X027Y02212*
X02699Y02213*
X02698Y02214*
X02697Y02215*
X02696Y02216*
X02695Y02217*
X02693Y02217*
X02692Y02218*
X02691Y02219*
X02689Y02219*
X02688Y02219*
X02687Y02219*
X02685Y02219*
X02684*
X02682Y02219*
X02681Y02219*
X0268Y02219*
X02678Y02219*
X02677Y02218*
X02676Y02217*
X02675Y02217*
X02673Y02216*
X02672Y02215*
X02671Y02214*
X0267Y02213*
X02669Y02212*
X02668Y02211*
X02668Y0221*
X02667Y02209*
X02666Y02208*
X02666Y02206*
X02665Y02205*
X02665Y02204*
X02665Y02202*
X02665Y02201*
X02665Y022*
X02665Y02198*
X02665Y02197*
X02665Y02195*
X02665Y02194*
X02666Y02193*
X02666Y02191*
X02667Y0219*
X02668Y02189*
X02668Y02188*
X02669Y02187*
X0267Y02186*
X02671Y02185*
X02672Y02184*
X02673Y02183*
X02675Y02182*
X02676Y02182*
X02677Y02181*
X02678Y0218*
X0268Y0218*
X02681Y0218*
X02682Y0218*
X02684Y0218*
X02685*
X02687Y0218*
X02688Y0218*
X02689Y0218*
X02691Y0218*
X02692Y02181*
X02693Y02182*
X02695Y02182*
X02696Y02183*
X02697Y02184*
X02698Y02185*
X02699Y02186*
X027Y02187*
X02701Y02188*
X02701Y02189*
X02702Y0219*
X02703Y02191*
X02703Y02193*
X02704Y02194*
X02704Y02195*
X02704Y02197*
X02704Y02198*
X02705Y022*
X02805D02*
D01*
X02804Y02201*
X02804Y02202*
X02804Y02204*
X02804Y02205*
X02803Y02206*
X02803Y02208*
X02802Y02209*
X02801Y0221*
X02801Y02211*
X028Y02212*
X02799Y02213*
X02798Y02214*
X02797Y02215*
X02796Y02216*
X02795Y02217*
X02793Y02217*
X02792Y02218*
X02791Y02219*
X02789Y02219*
X02788Y02219*
X02787Y02219*
X02785Y02219*
X02784*
X02782Y02219*
X02781Y02219*
X0278Y02219*
X02778Y02219*
X02777Y02218*
X02776Y02217*
X02775Y02217*
X02773Y02216*
X02772Y02215*
X02771Y02214*
X0277Y02213*
X02769Y02212*
X02768Y02211*
X02768Y0221*
X02767Y02209*
X02766Y02208*
X02766Y02206*
X02765Y02205*
X02765Y02204*
X02765Y02202*
X02765Y02201*
X02765Y022*
X02765Y02198*
X02765Y02197*
X02765Y02195*
X02765Y02194*
X02766Y02193*
X02766Y02191*
X02767Y0219*
X02768Y02189*
X02768Y02188*
X02769Y02187*
X0277Y02186*
X02771Y02185*
X02772Y02184*
X02773Y02183*
X02775Y02182*
X02776Y02182*
X02777Y02181*
X02778Y0218*
X0278Y0218*
X02781Y0218*
X02782Y0218*
X02784Y0218*
X02785*
X02787Y0218*
X02788Y0218*
X02789Y0218*
X02791Y0218*
X02792Y02181*
X02793Y02182*
X02795Y02182*
X02796Y02183*
X02797Y02184*
X02798Y02185*
X02799Y02186*
X028Y02187*
X02801Y02188*
X02801Y02189*
X02802Y0219*
X02803Y02191*
X02803Y02193*
X02804Y02194*
X02804Y02195*
X02804Y02197*
X02804Y02198*
X02805Y022*
X0201Y0218D02*
D01*
X02009Y02181*
X02009Y02182*
X02009Y02184*
X02009Y02185*
X02008Y02186*
X02008Y02188*
X02007Y02189*
X02006Y0219*
X02006Y02191*
X02005Y02192*
X02004Y02193*
X02003Y02194*
X02002Y02195*
X02001Y02196*
X02Y02197*
X01998Y02197*
X01997Y02198*
X01996Y02199*
X01994Y02199*
X01993Y02199*
X01992Y02199*
X0199Y02199*
X01989*
X01987Y02199*
X01986Y02199*
X01985Y02199*
X01983Y02199*
X01982Y02198*
X01981Y02197*
X0198Y02197*
X01978Y02196*
X01977Y02195*
X01976Y02194*
X01975Y02193*
X01974Y02192*
X01973Y02191*
X01973Y0219*
X01972Y02189*
X01971Y02188*
X01971Y02186*
X0197Y02185*
X0197Y02184*
X0197Y02182*
X0197Y02181*
X0197Y0218*
X0197Y02178*
X0197Y02177*
X0197Y02175*
X0197Y02174*
X01971Y02173*
X01971Y02171*
X01972Y0217*
X01973Y02169*
X01973Y02168*
X01974Y02167*
X01975Y02166*
X01976Y02165*
X01977Y02164*
X01978Y02163*
X0198Y02162*
X01981Y02162*
X01982Y02161*
X01983Y0216*
X01985Y0216*
X01986Y0216*
X01987Y0216*
X01989Y0216*
X0199*
X01992Y0216*
X01993Y0216*
X01994Y0216*
X01996Y0216*
X01997Y02161*
X01998Y02162*
X02Y02162*
X02001Y02163*
X02002Y02164*
X02003Y02165*
X02004Y02166*
X02005Y02167*
X02006Y02168*
X02006Y02169*
X02007Y0217*
X02008Y02171*
X02008Y02173*
X02009Y02174*
X02009Y02175*
X02009Y02177*
X02009Y02178*
X0201Y0218*
Y0228D02*
D01*
X02009Y02281*
X02009Y02282*
X02009Y02284*
X02009Y02285*
X02008Y02286*
X02008Y02288*
X02007Y02289*
X02006Y0229*
X02006Y02291*
X02005Y02292*
X02004Y02293*
X02003Y02294*
X02002Y02295*
X02001Y02296*
X02Y02297*
X01998Y02297*
X01997Y02298*
X01996Y02299*
X01994Y02299*
X01993Y02299*
X01992Y02299*
X0199Y02299*
X01989*
X01987Y02299*
X01986Y02299*
X01985Y02299*
X01983Y02299*
X01982Y02298*
X01981Y02297*
X0198Y02297*
X01978Y02296*
X01977Y02295*
X01976Y02294*
X01975Y02293*
X01974Y02292*
X01973Y02291*
X01973Y0229*
X01972Y02289*
X01971Y02288*
X01971Y02286*
X0197Y02285*
X0197Y02284*
X0197Y02282*
X0197Y02281*
X0197Y0228*
X0197Y02278*
X0197Y02277*
X0197Y02275*
X0197Y02274*
X01971Y02273*
X01971Y02271*
X01972Y0227*
X01973Y02269*
X01973Y02268*
X01974Y02267*
X01975Y02266*
X01976Y02265*
X01977Y02264*
X01978Y02263*
X0198Y02262*
X01981Y02262*
X01982Y02261*
X01983Y0226*
X01985Y0226*
X01986Y0226*
X01987Y0226*
X01989Y0226*
X0199*
X01992Y0226*
X01993Y0226*
X01994Y0226*
X01996Y0226*
X01997Y02261*
X01998Y02262*
X02Y02262*
X02001Y02263*
X02002Y02264*
X02003Y02265*
X02004Y02266*
X02005Y02267*
X02006Y02268*
X02006Y02269*
X02007Y0227*
X02008Y02271*
X02008Y02273*
X02009Y02274*
X02009Y02275*
X02009Y02277*
X02009Y02278*
X0201Y0228*
Y0238D02*
D01*
X02009Y02381*
X02009Y02382*
X02009Y02384*
X02009Y02385*
X02008Y02386*
X02008Y02388*
X02007Y02389*
X02006Y0239*
X02006Y02391*
X02005Y02392*
X02004Y02393*
X02003Y02394*
X02002Y02395*
X02001Y02396*
X02Y02397*
X01998Y02397*
X01997Y02398*
X01996Y02399*
X01994Y02399*
X01993Y02399*
X01992Y02399*
X0199Y02399*
X01989*
X01987Y02399*
X01986Y02399*
X01985Y02399*
X01983Y02399*
X01982Y02398*
X01981Y02397*
X0198Y02397*
X01978Y02396*
X01977Y02395*
X01976Y02394*
X01975Y02393*
X01974Y02392*
X01973Y02391*
X01973Y0239*
X01972Y02389*
X01971Y02388*
X01971Y02386*
X0197Y02385*
X0197Y02384*
X0197Y02382*
X0197Y02381*
X0197Y0238*
X0197Y02378*
X0197Y02377*
X0197Y02375*
X0197Y02374*
X01971Y02373*
X01971Y02371*
X01972Y0237*
X01973Y02369*
X01973Y02368*
X01974Y02367*
X01975Y02366*
X01976Y02365*
X01977Y02364*
X01978Y02363*
X0198Y02362*
X01981Y02362*
X01982Y02361*
X01983Y0236*
X01985Y0236*
X01986Y0236*
X01987Y0236*
X01989Y0236*
X0199*
X01992Y0236*
X01993Y0236*
X01994Y0236*
X01996Y0236*
X01997Y02361*
X01998Y02362*
X02Y02362*
X02001Y02363*
X02002Y02364*
X02003Y02365*
X02004Y02366*
X02005Y02367*
X02006Y02368*
X02006Y02369*
X02007Y0237*
X02008Y02371*
X02008Y02373*
X02009Y02374*
X02009Y02375*
X02009Y02377*
X02009Y02378*
X0201Y0238*
Y0248D02*
D01*
X02009Y02481*
X02009Y02482*
X02009Y02484*
X02009Y02485*
X02008Y02486*
X02008Y02488*
X02007Y02489*
X02006Y0249*
X02006Y02491*
X02005Y02492*
X02004Y02493*
X02003Y02494*
X02002Y02495*
X02001Y02496*
X02Y02497*
X01998Y02497*
X01997Y02498*
X01996Y02499*
X01994Y02499*
X01993Y02499*
X01992Y02499*
X0199Y02499*
X01989*
X01987Y02499*
X01986Y02499*
X01985Y02499*
X01983Y02499*
X01982Y02498*
X01981Y02497*
X0198Y02497*
X01978Y02496*
X01977Y02495*
X01976Y02494*
X01975Y02493*
X01974Y02492*
X01973Y02491*
X01973Y0249*
X01972Y02489*
X01971Y02488*
X01971Y02486*
X0197Y02485*
X0197Y02484*
X0197Y02482*
X0197Y02481*
X0197Y0248*
X0197Y02478*
X0197Y02477*
X0197Y02475*
X0197Y02474*
X01971Y02473*
X01971Y02471*
X01972Y0247*
X01973Y02469*
X01973Y02468*
X01974Y02467*
X01975Y02466*
X01976Y02465*
X01977Y02464*
X01978Y02463*
X0198Y02462*
X01981Y02462*
X01982Y02461*
X01983Y0246*
X01985Y0246*
X01986Y0246*
X01987Y0246*
X01989Y0246*
X0199*
X01992Y0246*
X01993Y0246*
X01994Y0246*
X01996Y0246*
X01997Y02461*
X01998Y02462*
X02Y02462*
X02001Y02463*
X02002Y02464*
X02003Y02465*
X02004Y02466*
X02005Y02467*
X02006Y02468*
X02006Y02469*
X02007Y0247*
X02008Y02471*
X02008Y02473*
X02009Y02474*
X02009Y02475*
X02009Y02477*
X02009Y02478*
X0201Y0248*
Y0258D02*
D01*
X02009Y02581*
X02009Y02582*
X02009Y02584*
X02009Y02585*
X02008Y02586*
X02008Y02588*
X02007Y02589*
X02006Y0259*
X02006Y02591*
X02005Y02592*
X02004Y02593*
X02003Y02594*
X02002Y02595*
X02001Y02596*
X02Y02597*
X01998Y02597*
X01997Y02598*
X01996Y02599*
X01994Y02599*
X01993Y02599*
X01992Y02599*
X0199Y02599*
X01989*
X01987Y02599*
X01986Y02599*
X01985Y02599*
X01983Y02599*
X01982Y02598*
X01981Y02597*
X0198Y02597*
X01978Y02596*
X01977Y02595*
X01976Y02594*
X01975Y02593*
X01974Y02592*
X01973Y02591*
X01973Y0259*
X01972Y02589*
X01971Y02588*
X01971Y02586*
X0197Y02585*
X0197Y02584*
X0197Y02582*
X0197Y02581*
X0197Y0258*
X0197Y02578*
X0197Y02577*
X0197Y02575*
X0197Y02574*
X01971Y02573*
X01971Y02571*
X01972Y0257*
X01973Y02569*
X01973Y02568*
X01974Y02567*
X01975Y02566*
X01976Y02565*
X01977Y02564*
X01978Y02563*
X0198Y02562*
X01981Y02562*
X01982Y02561*
X01983Y0256*
X01985Y0256*
X01986Y0256*
X01987Y0256*
X01989Y0256*
X0199*
X01992Y0256*
X01993Y0256*
X01994Y0256*
X01996Y0256*
X01997Y02561*
X01998Y02562*
X02Y02562*
X02001Y02563*
X02002Y02564*
X02003Y02565*
X02004Y02566*
X02005Y02567*
X02006Y02568*
X02006Y02569*
X02007Y0257*
X02008Y02571*
X02008Y02573*
X02009Y02574*
X02009Y02575*
X02009Y02577*
X02009Y02578*
X0201Y0258*
X0191Y0218D02*
D01*
X01909Y02181*
X01909Y02182*
X01909Y02184*
X01909Y02185*
X01908Y02186*
X01908Y02188*
X01907Y02189*
X01906Y0219*
X01906Y02191*
X01905Y02192*
X01904Y02193*
X01903Y02194*
X01902Y02195*
X01901Y02196*
X019Y02197*
X01898Y02197*
X01897Y02198*
X01896Y02199*
X01894Y02199*
X01893Y02199*
X01892Y02199*
X0189Y02199*
X01889*
X01887Y02199*
X01886Y02199*
X01885Y02199*
X01883Y02199*
X01882Y02198*
X01881Y02197*
X0188Y02197*
X01878Y02196*
X01877Y02195*
X01876Y02194*
X01875Y02193*
X01874Y02192*
X01873Y02191*
X01873Y0219*
X01872Y02189*
X01871Y02188*
X01871Y02186*
X0187Y02185*
X0187Y02184*
X0187Y02182*
X0187Y02181*
X0187Y0218*
X0187Y02178*
X0187Y02177*
X0187Y02175*
X0187Y02174*
X01871Y02173*
X01871Y02171*
X01872Y0217*
X01873Y02169*
X01873Y02168*
X01874Y02167*
X01875Y02166*
X01876Y02165*
X01877Y02164*
X01878Y02163*
X0188Y02162*
X01881Y02162*
X01882Y02161*
X01883Y0216*
X01885Y0216*
X01886Y0216*
X01887Y0216*
X01889Y0216*
X0189*
X01892Y0216*
X01893Y0216*
X01894Y0216*
X01896Y0216*
X01897Y02161*
X01898Y02162*
X019Y02162*
X01901Y02163*
X01902Y02164*
X01903Y02165*
X01904Y02166*
X01905Y02167*
X01906Y02168*
X01906Y02169*
X01907Y0217*
X01908Y02171*
X01908Y02173*
X01909Y02174*
X01909Y02175*
X01909Y02177*
X01909Y02178*
X0191Y0218*
Y0228D02*
D01*
X01909Y02281*
X01909Y02282*
X01909Y02284*
X01909Y02285*
X01908Y02286*
X01908Y02288*
X01907Y02289*
X01906Y0229*
X01906Y02291*
X01905Y02292*
X01904Y02293*
X01903Y02294*
X01902Y02295*
X01901Y02296*
X019Y02297*
X01898Y02297*
X01897Y02298*
X01896Y02299*
X01894Y02299*
X01893Y02299*
X01892Y02299*
X0189Y02299*
X01889*
X01887Y02299*
X01886Y02299*
X01885Y02299*
X01883Y02299*
X01882Y02298*
X01881Y02297*
X0188Y02297*
X01878Y02296*
X01877Y02295*
X01876Y02294*
X01875Y02293*
X01874Y02292*
X01873Y02291*
X01873Y0229*
X01872Y02289*
X01871Y02288*
X01871Y02286*
X0187Y02285*
X0187Y02284*
X0187Y02282*
X0187Y02281*
X0187Y0228*
X0187Y02278*
X0187Y02277*
X0187Y02275*
X0187Y02274*
X01871Y02273*
X01871Y02271*
X01872Y0227*
X01873Y02269*
X01873Y02268*
X01874Y02267*
X01875Y02266*
X01876Y02265*
X01877Y02264*
X01878Y02263*
X0188Y02262*
X01881Y02262*
X01882Y02261*
X01883Y0226*
X01885Y0226*
X01886Y0226*
X01887Y0226*
X01889Y0226*
X0189*
X01892Y0226*
X01893Y0226*
X01894Y0226*
X01896Y0226*
X01897Y02261*
X01898Y02262*
X019Y02262*
X01901Y02263*
X01902Y02264*
X01903Y02265*
X01904Y02266*
X01905Y02267*
X01906Y02268*
X01906Y02269*
X01907Y0227*
X01908Y02271*
X01908Y02273*
X01909Y02274*
X01909Y02275*
X01909Y02277*
X01909Y02278*
X0191Y0228*
Y0238D02*
D01*
X01909Y02381*
X01909Y02382*
X01909Y02384*
X01909Y02385*
X01908Y02386*
X01908Y02388*
X01907Y02389*
X01906Y0239*
X01906Y02391*
X01905Y02392*
X01904Y02393*
X01903Y02394*
X01902Y02395*
X01901Y02396*
X019Y02397*
X01898Y02397*
X01897Y02398*
X01896Y02399*
X01894Y02399*
X01893Y02399*
X01892Y02399*
X0189Y02399*
X01889*
X01887Y02399*
X01886Y02399*
X01885Y02399*
X01883Y02399*
X01882Y02398*
X01881Y02397*
X0188Y02397*
X01878Y02396*
X01877Y02395*
X01876Y02394*
X01875Y02393*
X01874Y02392*
X01873Y02391*
X01873Y0239*
X01872Y02389*
X01871Y02388*
X01871Y02386*
X0187Y02385*
X0187Y02384*
X0187Y02382*
X0187Y02381*
X0187Y0238*
X0187Y02378*
X0187Y02377*
X0187Y02375*
X0187Y02374*
X01871Y02373*
X01871Y02371*
X01872Y0237*
X01873Y02369*
X01873Y02368*
X01874Y02367*
X01875Y02366*
X01876Y02365*
X01877Y02364*
X01878Y02363*
X0188Y02362*
X01881Y02362*
X01882Y02361*
X01883Y0236*
X01885Y0236*
X01886Y0236*
X01887Y0236*
X01889Y0236*
X0189*
X01892Y0236*
X01893Y0236*
X01894Y0236*
X01896Y0236*
X01897Y02361*
X01898Y02362*
X019Y02362*
X01901Y02363*
X01902Y02364*
X01903Y02365*
X01904Y02366*
X01905Y02367*
X01906Y02368*
X01906Y02369*
X01907Y0237*
X01908Y02371*
X01908Y02373*
X01909Y02374*
X01909Y02375*
X01909Y02377*
X01909Y02378*
X0191Y0238*
Y0248D02*
D01*
X01909Y02481*
X01909Y02482*
X01909Y02484*
X01909Y02485*
X01908Y02486*
X01908Y02488*
X01907Y02489*
X01906Y0249*
X01906Y02491*
X01905Y02492*
X01904Y02493*
X01903Y02494*
X01902Y02495*
X01901Y02496*
X019Y02497*
X01898Y02497*
X01897Y02498*
X01896Y02499*
X01894Y02499*
X01893Y02499*
X01892Y02499*
X0189Y02499*
X01889*
X01887Y02499*
X01886Y02499*
X01885Y02499*
X01883Y02499*
X01882Y02498*
X01881Y02497*
X0188Y02497*
X01878Y02496*
X01877Y02495*
X01876Y02494*
X01875Y02493*
X01874Y02492*
X01873Y02491*
X01873Y0249*
X01872Y02489*
X01871Y02488*
X01871Y02486*
X0187Y02485*
X0187Y02484*
X0187Y02482*
X0187Y02481*
X0187Y0248*
X0187Y02478*
X0187Y02477*
X0187Y02475*
X0187Y02474*
X01871Y02473*
X01871Y02471*
X01872Y0247*
X01873Y02469*
X01873Y02468*
X01874Y02467*
X01875Y02466*
X01876Y02465*
X01877Y02464*
X01878Y02463*
X0188Y02462*
X01881Y02462*
X01882Y02461*
X01883Y0246*
X01885Y0246*
X01886Y0246*
X01887Y0246*
X01889Y0246*
X0189*
X01892Y0246*
X01893Y0246*
X01894Y0246*
X01896Y0246*
X01897Y02461*
X01898Y02462*
X019Y02462*
X01901Y02463*
X01902Y02464*
X01903Y02465*
X01904Y02466*
X01905Y02467*
X01906Y02468*
X01906Y02469*
X01907Y0247*
X01908Y02471*
X01908Y02473*
X01909Y02474*
X01909Y02475*
X01909Y02477*
X01909Y02478*
X0191Y0248*
Y0258D02*
D01*
X01909Y02581*
X01909Y02582*
X01909Y02584*
X01909Y02585*
X01908Y02586*
X01908Y02588*
X01907Y02589*
X01906Y0259*
X01906Y02591*
X01905Y02592*
X01904Y02593*
X01903Y02594*
X01902Y02595*
X01901Y02596*
X019Y02597*
X01898Y02597*
X01897Y02598*
X01896Y02599*
X01894Y02599*
X01893Y02599*
X01892Y02599*
X0189Y02599*
X01889*
X01887Y02599*
X01886Y02599*
X01885Y02599*
X01883Y02599*
X01882Y02598*
X01881Y02597*
X0188Y02597*
X01878Y02596*
X01877Y02595*
X01876Y02594*
X01875Y02593*
X01874Y02592*
X01873Y02591*
X01873Y0259*
X01872Y02589*
X01871Y02588*
X01871Y02586*
X0187Y02585*
X0187Y02584*
X0187Y02582*
X0187Y02581*
X0187Y0258*
X0187Y02578*
X0187Y02577*
X0187Y02575*
X0187Y02574*
X01871Y02573*
X01871Y02571*
X01872Y0257*
X01873Y02569*
X01873Y02568*
X01874Y02567*
X01875Y02566*
X01876Y02565*
X01877Y02564*
X01878Y02563*
X0188Y02562*
X01881Y02562*
X01882Y02561*
X01883Y0256*
X01885Y0256*
X01886Y0256*
X01887Y0256*
X01889Y0256*
X0189*
X01892Y0256*
X01893Y0256*
X01894Y0256*
X01896Y0256*
X01897Y02561*
X01898Y02562*
X019Y02562*
X01901Y02563*
X01902Y02564*
X01903Y02565*
X01904Y02566*
X01905Y02567*
X01906Y02568*
X01906Y02569*
X01907Y0257*
X01908Y02571*
X01908Y02573*
X01909Y02574*
X01909Y02575*
X01909Y02577*
X01909Y02578*
X0191Y0258*
X0242Y025D02*
D01*
X02419Y02501*
X02419Y02502*
X02419Y02504*
X02419Y02505*
X02418Y02506*
X02418Y02508*
X02417Y02509*
X02416Y0251*
X02416Y02511*
X02415Y02512*
X02414Y02513*
X02413Y02514*
X02412Y02515*
X02411Y02516*
X0241Y02517*
X02408Y02517*
X02407Y02518*
X02406Y02519*
X02404Y02519*
X02403Y02519*
X02402Y02519*
X024Y02519*
X02399*
X02397Y02519*
X02396Y02519*
X02395Y02519*
X02393Y02519*
X02392Y02518*
X02391Y02517*
X0239Y02517*
X02388Y02516*
X02387Y02515*
X02386Y02514*
X02385Y02513*
X02384Y02512*
X02383Y02511*
X02383Y0251*
X02382Y02509*
X02381Y02508*
X02381Y02506*
X0238Y02505*
X0238Y02504*
X0238Y02502*
X0238Y02501*
X0238Y025*
X0238Y02498*
X0238Y02497*
X0238Y02495*
X0238Y02494*
X02381Y02493*
X02381Y02491*
X02382Y0249*
X02383Y02489*
X02383Y02488*
X02384Y02487*
X02385Y02486*
X02386Y02485*
X02387Y02484*
X02388Y02483*
X0239Y02482*
X02391Y02482*
X02392Y02481*
X02393Y0248*
X02395Y0248*
X02396Y0248*
X02397Y0248*
X02399Y0248*
X024*
X02402Y0248*
X02403Y0248*
X02404Y0248*
X02406Y0248*
X02407Y02481*
X02408Y02482*
X0241Y02482*
X02411Y02483*
X02412Y02484*
X02413Y02485*
X02414Y02486*
X02415Y02487*
X02416Y02488*
X02416Y02489*
X02417Y0249*
X02418Y02491*
X02418Y02493*
X02419Y02494*
X02419Y02495*
X02419Y02497*
X02419Y02498*
X0242Y025*
X0252D02*
D01*
X02519Y02501*
X02519Y02502*
X02519Y02504*
X02519Y02505*
X02518Y02506*
X02518Y02508*
X02517Y02509*
X02516Y0251*
X02516Y02511*
X02515Y02512*
X02514Y02513*
X02513Y02514*
X02512Y02515*
X02511Y02516*
X0251Y02517*
X02508Y02517*
X02507Y02518*
X02506Y02519*
X02504Y02519*
X02503Y02519*
X02502Y02519*
X025Y02519*
X02499*
X02497Y02519*
X02496Y02519*
X02495Y02519*
X02493Y02519*
X02492Y02518*
X02491Y02517*
X0249Y02517*
X02488Y02516*
X02487Y02515*
X02486Y02514*
X02485Y02513*
X02484Y02512*
X02483Y02511*
X02483Y0251*
X02482Y02509*
X02481Y02508*
X02481Y02506*
X0248Y02505*
X0248Y02504*
X0248Y02502*
X0248Y02501*
X0248Y025*
X0248Y02498*
X0248Y02497*
X0248Y02495*
X0248Y02494*
X02481Y02493*
X02481Y02491*
X02482Y0249*
X02483Y02489*
X02483Y02488*
X02484Y02487*
X02485Y02486*
X02486Y02485*
X02487Y02484*
X02488Y02483*
X0249Y02482*
X02491Y02482*
X02492Y02481*
X02493Y0248*
X02495Y0248*
X02496Y0248*
X02497Y0248*
X02499Y0248*
X025*
X02502Y0248*
X02503Y0248*
X02504Y0248*
X02506Y0248*
X02507Y02481*
X02508Y02482*
X0251Y02482*
X02511Y02483*
X02512Y02484*
X02513Y02485*
X02514Y02486*
X02515Y02487*
X02516Y02488*
X02516Y02489*
X02517Y0249*
X02518Y02491*
X02518Y02493*
X02519Y02494*
X02519Y02495*
X02519Y02497*
X02519Y02498*
X0252Y025*
X0172Y049D02*
D01*
X01719Y04901*
X01719Y04902*
X01719Y04904*
X01719Y04905*
X01718Y04906*
X01718Y04908*
X01717Y04909*
X01716Y0491*
X01716Y04911*
X01715Y04912*
X01714Y04913*
X01713Y04914*
X01712Y04915*
X01711Y04916*
X0171Y04917*
X01708Y04917*
X01707Y04918*
X01706Y04919*
X01704Y04919*
X01703Y04919*
X01702Y04919*
X017Y04919*
X01699*
X01697Y04919*
X01696Y04919*
X01695Y04919*
X01693Y04919*
X01692Y04918*
X01691Y04917*
X0169Y04917*
X01688Y04916*
X01687Y04915*
X01686Y04914*
X01685Y04913*
X01684Y04912*
X01683Y04911*
X01683Y0491*
X01682Y04909*
X01681Y04908*
X01681Y04906*
X0168Y04905*
X0168Y04904*
X0168Y04902*
X0168Y04901*
X0168Y049*
X0168Y04898*
X0168Y04897*
X0168Y04895*
X0168Y04894*
X01681Y04893*
X01681Y04891*
X01682Y0489*
X01683Y04889*
X01683Y04888*
X01684Y04887*
X01685Y04886*
X01686Y04885*
X01687Y04884*
X01688Y04883*
X0169Y04882*
X01691Y04882*
X01692Y04881*
X01693Y0488*
X01695Y0488*
X01696Y0488*
X01697Y0488*
X01699Y0488*
X017*
X01702Y0488*
X01703Y0488*
X01704Y0488*
X01706Y0488*
X01707Y04881*
X01708Y04882*
X0171Y04882*
X01711Y04883*
X01712Y04884*
X01713Y04885*
X01714Y04886*
X01715Y04887*
X01716Y04888*
X01716Y04889*
X01717Y0489*
X01718Y04891*
X01718Y04893*
X01719Y04894*
X01719Y04895*
X01719Y04897*
X01719Y04898*
X0172Y049*
Y048D02*
D01*
X01719Y04801*
X01719Y04802*
X01719Y04804*
X01719Y04805*
X01718Y04806*
X01718Y04808*
X01717Y04809*
X01716Y0481*
X01716Y04811*
X01715Y04812*
X01714Y04813*
X01713Y04814*
X01712Y04815*
X01711Y04816*
X0171Y04817*
X01708Y04817*
X01707Y04818*
X01706Y04819*
X01704Y04819*
X01703Y04819*
X01702Y04819*
X017Y04819*
X01699*
X01697Y04819*
X01696Y04819*
X01695Y04819*
X01693Y04819*
X01692Y04818*
X01691Y04817*
X0169Y04817*
X01688Y04816*
X01687Y04815*
X01686Y04814*
X01685Y04813*
X01684Y04812*
X01683Y04811*
X01683Y0481*
X01682Y04809*
X01681Y04808*
X01681Y04806*
X0168Y04805*
X0168Y04804*
X0168Y04802*
X0168Y04801*
X0168Y048*
X0168Y04798*
X0168Y04797*
X0168Y04795*
X0168Y04794*
X01681Y04793*
X01681Y04791*
X01682Y0479*
X01683Y04789*
X01683Y04788*
X01684Y04787*
X01685Y04786*
X01686Y04785*
X01687Y04784*
X01688Y04783*
X0169Y04782*
X01691Y04782*
X01692Y04781*
X01693Y0478*
X01695Y0478*
X01696Y0478*
X01697Y0478*
X01699Y0478*
X017*
X01702Y0478*
X01703Y0478*
X01704Y0478*
X01706Y0478*
X01707Y04781*
X01708Y04782*
X0171Y04782*
X01711Y04783*
X01712Y04784*
X01713Y04785*
X01714Y04786*
X01715Y04787*
X01716Y04788*
X01716Y04789*
X01717Y0479*
X01718Y04791*
X01718Y04793*
X01719Y04794*
X01719Y04795*
X01719Y04797*
X01719Y04798*
X0172Y048*
Y047D02*
D01*
X01719Y04701*
X01719Y04702*
X01719Y04704*
X01719Y04705*
X01718Y04706*
X01718Y04708*
X01717Y04709*
X01716Y0471*
X01716Y04711*
X01715Y04712*
X01714Y04713*
X01713Y04714*
X01712Y04715*
X01711Y04716*
X0171Y04717*
X01708Y04717*
X01707Y04718*
X01706Y04719*
X01704Y04719*
X01703Y04719*
X01702Y04719*
X017Y04719*
X01699*
X01697Y04719*
X01696Y04719*
X01695Y04719*
X01693Y04719*
X01692Y04718*
X01691Y04717*
X0169Y04717*
X01688Y04716*
X01687Y04715*
X01686Y04714*
X01685Y04713*
X01684Y04712*
X01683Y04711*
X01683Y0471*
X01682Y04709*
X01681Y04708*
X01681Y04706*
X0168Y04705*
X0168Y04704*
X0168Y04702*
X0168Y04701*
X0168Y047*
X0168Y04698*
X0168Y04697*
X0168Y04695*
X0168Y04694*
X01681Y04693*
X01681Y04691*
X01682Y0469*
X01683Y04689*
X01683Y04688*
X01684Y04687*
X01685Y04686*
X01686Y04685*
X01687Y04684*
X01688Y04683*
X0169Y04682*
X01691Y04682*
X01692Y04681*
X01693Y0468*
X01695Y0468*
X01696Y0468*
X01697Y0468*
X01699Y0468*
X017*
X01702Y0468*
X01703Y0468*
X01704Y0468*
X01706Y0468*
X01707Y04681*
X01708Y04682*
X0171Y04682*
X01711Y04683*
X01712Y04684*
X01713Y04685*
X01714Y04686*
X01715Y04687*
X01716Y04688*
X01716Y04689*
X01717Y0469*
X01718Y04691*
X01718Y04693*
X01719Y04694*
X01719Y04695*
X01719Y04697*
X01719Y04698*
X0172Y047*
Y046D02*
D01*
X01719Y04601*
X01719Y04602*
X01719Y04604*
X01719Y04605*
X01718Y04606*
X01718Y04608*
X01717Y04609*
X01716Y0461*
X01716Y04611*
X01715Y04612*
X01714Y04613*
X01713Y04614*
X01712Y04615*
X01711Y04616*
X0171Y04617*
X01708Y04617*
X01707Y04618*
X01706Y04619*
X01704Y04619*
X01703Y04619*
X01702Y04619*
X017Y04619*
X01699*
X01697Y04619*
X01696Y04619*
X01695Y04619*
X01693Y04619*
X01692Y04618*
X01691Y04617*
X0169Y04617*
X01688Y04616*
X01687Y04615*
X01686Y04614*
X01685Y04613*
X01684Y04612*
X01683Y04611*
X01683Y0461*
X01682Y04609*
X01681Y04608*
X01681Y04606*
X0168Y04605*
X0168Y04604*
X0168Y04602*
X0168Y04601*
X0168Y046*
X0168Y04598*
X0168Y04597*
X0168Y04595*
X0168Y04594*
X01681Y04593*
X01681Y04591*
X01682Y0459*
X01683Y04589*
X01683Y04588*
X01684Y04587*
X01685Y04586*
X01686Y04585*
X01687Y04584*
X01688Y04583*
X0169Y04582*
X01691Y04582*
X01692Y04581*
X01693Y0458*
X01695Y0458*
X01696Y0458*
X01697Y0458*
X01699Y0458*
X017*
X01702Y0458*
X01703Y0458*
X01704Y0458*
X01706Y0458*
X01707Y04581*
X01708Y04582*
X0171Y04582*
X01711Y04583*
X01712Y04584*
X01713Y04585*
X01714Y04586*
X01715Y04587*
X01716Y04588*
X01716Y04589*
X01717Y0459*
X01718Y04591*
X01718Y04593*
X01719Y04594*
X01719Y04595*
X01719Y04597*
X01719Y04598*
X0172Y046*
Y045D02*
D01*
X01719Y04501*
X01719Y04502*
X01719Y04504*
X01719Y04505*
X01718Y04506*
X01718Y04508*
X01717Y04509*
X01716Y0451*
X01716Y04511*
X01715Y04512*
X01714Y04513*
X01713Y04514*
X01712Y04515*
X01711Y04516*
X0171Y04517*
X01708Y04517*
X01707Y04518*
X01706Y04519*
X01704Y04519*
X01703Y04519*
X01702Y04519*
X017Y04519*
X01699*
X01697Y04519*
X01696Y04519*
X01695Y04519*
X01693Y04519*
X01692Y04518*
X01691Y04517*
X0169Y04517*
X01688Y04516*
X01687Y04515*
X01686Y04514*
X01685Y04513*
X01684Y04512*
X01683Y04511*
X01683Y0451*
X01682Y04509*
X01681Y04508*
X01681Y04506*
X0168Y04505*
X0168Y04504*
X0168Y04502*
X0168Y04501*
X0168Y045*
X0168Y04498*
X0168Y04497*
X0168Y04495*
X0168Y04494*
X01681Y04493*
X01681Y04491*
X01682Y0449*
X01683Y04489*
X01683Y04488*
X01684Y04487*
X01685Y04486*
X01686Y04485*
X01687Y04484*
X01688Y04483*
X0169Y04482*
X01691Y04482*
X01692Y04481*
X01693Y0448*
X01695Y0448*
X01696Y0448*
X01697Y0448*
X01699Y0448*
X017*
X01702Y0448*
X01703Y0448*
X01704Y0448*
X01706Y0448*
X01707Y04481*
X01708Y04482*
X0171Y04482*
X01711Y04483*
X01712Y04484*
X01713Y04485*
X01714Y04486*
X01715Y04487*
X01716Y04488*
X01716Y04489*
X01717Y0449*
X01718Y04491*
X01718Y04493*
X01719Y04494*
X01719Y04495*
X01719Y04497*
X01719Y04498*
X0172Y045*
Y044D02*
D01*
X01719Y04401*
X01719Y04402*
X01719Y04404*
X01719Y04405*
X01718Y04406*
X01718Y04408*
X01717Y04409*
X01716Y0441*
X01716Y04411*
X01715Y04412*
X01714Y04413*
X01713Y04414*
X01712Y04415*
X01711Y04416*
X0171Y04417*
X01708Y04417*
X01707Y04418*
X01706Y04419*
X01704Y04419*
X01703Y04419*
X01702Y04419*
X017Y04419*
X01699*
X01697Y04419*
X01696Y04419*
X01695Y04419*
X01693Y04419*
X01692Y04418*
X01691Y04417*
X0169Y04417*
X01688Y04416*
X01687Y04415*
X01686Y04414*
X01685Y04413*
X01684Y04412*
X01683Y04411*
X01683Y0441*
X01682Y04409*
X01681Y04408*
X01681Y04406*
X0168Y04405*
X0168Y04404*
X0168Y04402*
X0168Y04401*
X0168Y044*
X0168Y04398*
X0168Y04397*
X0168Y04395*
X0168Y04394*
X01681Y04393*
X01681Y04391*
X01682Y0439*
X01683Y04389*
X01683Y04388*
X01684Y04387*
X01685Y04386*
X01686Y04385*
X01687Y04384*
X01688Y04383*
X0169Y04382*
X01691Y04382*
X01692Y04381*
X01693Y0438*
X01695Y0438*
X01696Y0438*
X01697Y0438*
X01699Y0438*
X017*
X01702Y0438*
X01703Y0438*
X01704Y0438*
X01706Y0438*
X01707Y04381*
X01708Y04382*
X0171Y04382*
X01711Y04383*
X01712Y04384*
X01713Y04385*
X01714Y04386*
X01715Y04387*
X01716Y04388*
X01716Y04389*
X01717Y0439*
X01718Y04391*
X01718Y04393*
X01719Y04394*
X01719Y04395*
X01719Y04397*
X01719Y04398*
X0172Y044*
Y043D02*
D01*
X01719Y04301*
X01719Y04302*
X01719Y04304*
X01719Y04305*
X01718Y04306*
X01718Y04308*
X01717Y04309*
X01716Y0431*
X01716Y04311*
X01715Y04312*
X01714Y04313*
X01713Y04314*
X01712Y04315*
X01711Y04316*
X0171Y04317*
X01708Y04317*
X01707Y04318*
X01706Y04319*
X01704Y04319*
X01703Y04319*
X01702Y04319*
X017Y04319*
X01699*
X01697Y04319*
X01696Y04319*
X01695Y04319*
X01693Y04319*
X01692Y04318*
X01691Y04317*
X0169Y04317*
X01688Y04316*
X01687Y04315*
X01686Y04314*
X01685Y04313*
X01684Y04312*
X01683Y04311*
X01683Y0431*
X01682Y04309*
X01681Y04308*
X01681Y04306*
X0168Y04305*
X0168Y04304*
X0168Y04302*
X0168Y04301*
X0168Y043*
X0168Y04298*
X0168Y04297*
X0168Y04295*
X0168Y04294*
X01681Y04293*
X01681Y04291*
X01682Y0429*
X01683Y04289*
X01683Y04288*
X01684Y04287*
X01685Y04286*
X01686Y04285*
X01687Y04284*
X01688Y04283*
X0169Y04282*
X01691Y04282*
X01692Y04281*
X01693Y0428*
X01695Y0428*
X01696Y0428*
X01697Y0428*
X01699Y0428*
X017*
X01702Y0428*
X01703Y0428*
X01704Y0428*
X01706Y0428*
X01707Y04281*
X01708Y04282*
X0171Y04282*
X01711Y04283*
X01712Y04284*
X01713Y04285*
X01714Y04286*
X01715Y04287*
X01716Y04288*
X01716Y04289*
X01717Y0429*
X01718Y04291*
X01718Y04293*
X01719Y04294*
X01719Y04295*
X01719Y04297*
X01719Y04298*
X0172Y043*
Y042D02*
D01*
X01719Y04201*
X01719Y04202*
X01719Y04204*
X01719Y04205*
X01718Y04206*
X01718Y04208*
X01717Y04209*
X01716Y0421*
X01716Y04211*
X01715Y04212*
X01714Y04213*
X01713Y04214*
X01712Y04215*
X01711Y04216*
X0171Y04217*
X01708Y04217*
X01707Y04218*
X01706Y04219*
X01704Y04219*
X01703Y04219*
X01702Y04219*
X017Y04219*
X01699*
X01697Y04219*
X01696Y04219*
X01695Y04219*
X01693Y04219*
X01692Y04218*
X01691Y04217*
X0169Y04217*
X01688Y04216*
X01687Y04215*
X01686Y04214*
X01685Y04213*
X01684Y04212*
X01683Y04211*
X01683Y0421*
X01682Y04209*
X01681Y04208*
X01681Y04206*
X0168Y04205*
X0168Y04204*
X0168Y04202*
X0168Y04201*
X0168Y042*
X0168Y04198*
X0168Y04197*
X0168Y04195*
X0168Y04194*
X01681Y04193*
X01681Y04191*
X01682Y0419*
X01683Y04189*
X01683Y04188*
X01684Y04187*
X01685Y04186*
X01686Y04185*
X01687Y04184*
X01688Y04183*
X0169Y04182*
X01691Y04182*
X01692Y04181*
X01693Y0418*
X01695Y0418*
X01696Y0418*
X01697Y0418*
X01699Y0418*
X017*
X01702Y0418*
X01703Y0418*
X01704Y0418*
X01706Y0418*
X01707Y04181*
X01708Y04182*
X0171Y04182*
X01711Y04183*
X01712Y04184*
X01713Y04185*
X01714Y04186*
X01715Y04187*
X01716Y04188*
X01716Y04189*
X01717Y0419*
X01718Y04191*
X01718Y04193*
X01719Y04194*
X01719Y04195*
X01719Y04197*
X01719Y04198*
X0172Y042*
X0242Y049D02*
D01*
X02419Y04901*
X02419Y04902*
X02419Y04904*
X02419Y04905*
X02418Y04906*
X02418Y04908*
X02417Y04909*
X02416Y0491*
X02416Y04911*
X02415Y04912*
X02414Y04913*
X02413Y04914*
X02412Y04915*
X02411Y04916*
X0241Y04917*
X02408Y04917*
X02407Y04918*
X02406Y04919*
X02404Y04919*
X02403Y04919*
X02402Y04919*
X024Y04919*
X02399*
X02397Y04919*
X02396Y04919*
X02395Y04919*
X02393Y04919*
X02392Y04918*
X02391Y04917*
X0239Y04917*
X02388Y04916*
X02387Y04915*
X02386Y04914*
X02385Y04913*
X02384Y04912*
X02383Y04911*
X02383Y0491*
X02382Y04909*
X02381Y04908*
X02381Y04906*
X0238Y04905*
X0238Y04904*
X0238Y04902*
X0238Y04901*
X0238Y049*
X0238Y04898*
X0238Y04897*
X0238Y04895*
X0238Y04894*
X02381Y04893*
X02381Y04891*
X02382Y0489*
X02383Y04889*
X02383Y04888*
X02384Y04887*
X02385Y04886*
X02386Y04885*
X02387Y04884*
X02388Y04883*
X0239Y04882*
X02391Y04882*
X02392Y04881*
X02393Y0488*
X02395Y0488*
X02396Y0488*
X02397Y0488*
X02399Y0488*
X024*
X02402Y0488*
X02403Y0488*
X02404Y0488*
X02406Y0488*
X02407Y04881*
X02408Y04882*
X0241Y04882*
X02411Y04883*
X02412Y04884*
X02413Y04885*
X02414Y04886*
X02415Y04887*
X02416Y04888*
X02416Y04889*
X02417Y0489*
X02418Y04891*
X02418Y04893*
X02419Y04894*
X02419Y04895*
X02419Y04897*
X02419Y04898*
X0242Y049*
Y048D02*
D01*
X02419Y04801*
X02419Y04802*
X02419Y04804*
X02419Y04805*
X02418Y04806*
X02418Y04808*
X02417Y04809*
X02416Y0481*
X02416Y04811*
X02415Y04812*
X02414Y04813*
X02413Y04814*
X02412Y04815*
X02411Y04816*
X0241Y04817*
X02408Y04817*
X02407Y04818*
X02406Y04819*
X02404Y04819*
X02403Y04819*
X02402Y04819*
X024Y04819*
X02399*
X02397Y04819*
X02396Y04819*
X02395Y04819*
X02393Y04819*
X02392Y04818*
X02391Y04817*
X0239Y04817*
X02388Y04816*
X02387Y04815*
X02386Y04814*
X02385Y04813*
X02384Y04812*
X02383Y04811*
X02383Y0481*
X02382Y04809*
X02381Y04808*
X02381Y04806*
X0238Y04805*
X0238Y04804*
X0238Y04802*
X0238Y04801*
X0238Y048*
X0238Y04798*
X0238Y04797*
X0238Y04795*
X0238Y04794*
X02381Y04793*
X02381Y04791*
X02382Y0479*
X02383Y04789*
X02383Y04788*
X02384Y04787*
X02385Y04786*
X02386Y04785*
X02387Y04784*
X02388Y04783*
X0239Y04782*
X02391Y04782*
X02392Y04781*
X02393Y0478*
X02395Y0478*
X02396Y0478*
X02397Y0478*
X02399Y0478*
X024*
X02402Y0478*
X02403Y0478*
X02404Y0478*
X02406Y0478*
X02407Y04781*
X02408Y04782*
X0241Y04782*
X02411Y04783*
X02412Y04784*
X02413Y04785*
X02414Y04786*
X02415Y04787*
X02416Y04788*
X02416Y04789*
X02417Y0479*
X02418Y04791*
X02418Y04793*
X02419Y04794*
X02419Y04795*
X02419Y04797*
X02419Y04798*
X0242Y048*
Y047D02*
D01*
X02419Y04701*
X02419Y04702*
X02419Y04704*
X02419Y04705*
X02418Y04706*
X02418Y04708*
X02417Y04709*
X02416Y0471*
X02416Y04711*
X02415Y04712*
X02414Y04713*
X02413Y04714*
X02412Y04715*
X02411Y04716*
X0241Y04717*
X02408Y04717*
X02407Y04718*
X02406Y04719*
X02404Y04719*
X02403Y04719*
X02402Y04719*
X024Y04719*
X02399*
X02397Y04719*
X02396Y04719*
X02395Y04719*
X02393Y04719*
X02392Y04718*
X02391Y04717*
X0239Y04717*
X02388Y04716*
X02387Y04715*
X02386Y04714*
X02385Y04713*
X02384Y04712*
X02383Y04711*
X02383Y0471*
X02382Y04709*
X02381Y04708*
X02381Y04706*
X0238Y04705*
X0238Y04704*
X0238Y04702*
X0238Y04701*
X0238Y047*
X0238Y04698*
X0238Y04697*
X0238Y04695*
X0238Y04694*
X02381Y04693*
X02381Y04691*
X02382Y0469*
X02383Y04689*
X02383Y04688*
X02384Y04687*
X02385Y04686*
X02386Y04685*
X02387Y04684*
X02388Y04683*
X0239Y04682*
X02391Y04682*
X02392Y04681*
X02393Y0468*
X02395Y0468*
X02396Y0468*
X02397Y0468*
X02399Y0468*
X024*
X02402Y0468*
X02403Y0468*
X02404Y0468*
X02406Y0468*
X02407Y04681*
X02408Y04682*
X0241Y04682*
X02411Y04683*
X02412Y04684*
X02413Y04685*
X02414Y04686*
X02415Y04687*
X02416Y04688*
X02416Y04689*
X02417Y0469*
X02418Y04691*
X02418Y04693*
X02419Y04694*
X02419Y04695*
X02419Y04697*
X02419Y04698*
X0242Y047*
Y046D02*
D01*
X02419Y04601*
X02419Y04602*
X02419Y04604*
X02419Y04605*
X02418Y04606*
X02418Y04608*
X02417Y04609*
X02416Y0461*
X02416Y04611*
X02415Y04612*
X02414Y04613*
X02413Y04614*
X02412Y04615*
X02411Y04616*
X0241Y04617*
X02408Y04617*
X02407Y04618*
X02406Y04619*
X02404Y04619*
X02403Y04619*
X02402Y04619*
X024Y04619*
X02399*
X02397Y04619*
X02396Y04619*
X02395Y04619*
X02393Y04619*
X02392Y04618*
X02391Y04617*
X0239Y04617*
X02388Y04616*
X02387Y04615*
X02386Y04614*
X02385Y04613*
X02384Y04612*
X02383Y04611*
X02383Y0461*
X02382Y04609*
X02381Y04608*
X02381Y04606*
X0238Y04605*
X0238Y04604*
X0238Y04602*
X0238Y04601*
X0238Y046*
X0238Y04598*
X0238Y04597*
X0238Y04595*
X0238Y04594*
X02381Y04593*
X02381Y04591*
X02382Y0459*
X02383Y04589*
X02383Y04588*
X02384Y04587*
X02385Y04586*
X02386Y04585*
X02387Y04584*
X02388Y04583*
X0239Y04582*
X02391Y04582*
X02392Y04581*
X02393Y0458*
X02395Y0458*
X02396Y0458*
X02397Y0458*
X02399Y0458*
X024*
X02402Y0458*
X02403Y0458*
X02404Y0458*
X02406Y0458*
X02407Y04581*
X02408Y04582*
X0241Y04582*
X02411Y04583*
X02412Y04584*
X02413Y04585*
X02414Y04586*
X02415Y04587*
X02416Y04588*
X02416Y04589*
X02417Y0459*
X02418Y04591*
X02418Y04593*
X02419Y04594*
X02419Y04595*
X02419Y04597*
X02419Y04598*
X0242Y046*
Y045D02*
D01*
X02419Y04501*
X02419Y04502*
X02419Y04504*
X02419Y04505*
X02418Y04506*
X02418Y04508*
X02417Y04509*
X02416Y0451*
X02416Y04511*
X02415Y04512*
X02414Y04513*
X02413Y04514*
X02412Y04515*
X02411Y04516*
X0241Y04517*
X02408Y04517*
X02407Y04518*
X02406Y04519*
X02404Y04519*
X02403Y04519*
X02402Y04519*
X024Y04519*
X02399*
X02397Y04519*
X02396Y04519*
X02395Y04519*
X02393Y04519*
X02392Y04518*
X02391Y04517*
X0239Y04517*
X02388Y04516*
X02387Y04515*
X02386Y04514*
X02385Y04513*
X02384Y04512*
X02383Y04511*
X02383Y0451*
X02382Y04509*
X02381Y04508*
X02381Y04506*
X0238Y04505*
X0238Y04504*
X0238Y04502*
X0238Y04501*
X0238Y045*
X0238Y04498*
X0238Y04497*
X0238Y04495*
X0238Y04494*
X02381Y04493*
X02381Y04491*
X02382Y0449*
X02383Y04489*
X02383Y04488*
X02384Y04487*
X02385Y04486*
X02386Y04485*
X02387Y04484*
X02388Y04483*
X0239Y04482*
X02391Y04482*
X02392Y04481*
X02393Y0448*
X02395Y0448*
X02396Y0448*
X02397Y0448*
X02399Y0448*
X024*
X02402Y0448*
X02403Y0448*
X02404Y0448*
X02406Y0448*
X02407Y04481*
X02408Y04482*
X0241Y04482*
X02411Y04483*
X02412Y04484*
X02413Y04485*
X02414Y04486*
X02415Y04487*
X02416Y04488*
X02416Y04489*
X02417Y0449*
X02418Y04491*
X02418Y04493*
X02419Y04494*
X02419Y04495*
X02419Y04497*
X02419Y04498*
X0242Y045*
Y044D02*
D01*
X02419Y04401*
X02419Y04402*
X02419Y04404*
X02419Y04405*
X02418Y04406*
X02418Y04408*
X02417Y04409*
X02416Y0441*
X02416Y04411*
X02415Y04412*
X02414Y04413*
X02413Y04414*
X02412Y04415*
X02411Y04416*
X0241Y04417*
X02408Y04417*
X02407Y04418*
X02406Y04419*
X02404Y04419*
X02403Y04419*
X02402Y04419*
X024Y04419*
X02399*
X02397Y04419*
X02396Y04419*
X02395Y04419*
X02393Y04419*
X02392Y04418*
X02391Y04417*
X0239Y04417*
X02388Y04416*
X02387Y04415*
X02386Y04414*
X02385Y04413*
X02384Y04412*
X02383Y04411*
X02383Y0441*
X02382Y04409*
X02381Y04408*
X02381Y04406*
X0238Y04405*
X0238Y04404*
X0238Y04402*
X0238Y04401*
X0238Y044*
X0238Y04398*
X0238Y04397*
X0238Y04395*
X0238Y04394*
X02381Y04393*
X02381Y04391*
X02382Y0439*
X02383Y04389*
X02383Y04388*
X02384Y04387*
X02385Y04386*
X02386Y04385*
X02387Y04384*
X02388Y04383*
X0239Y04382*
X02391Y04382*
X02392Y04381*
X02393Y0438*
X02395Y0438*
X02396Y0438*
X02397Y0438*
X02399Y0438*
X024*
X02402Y0438*
X02403Y0438*
X02404Y0438*
X02406Y0438*
X02407Y04381*
X02408Y04382*
X0241Y04382*
X02411Y04383*
X02412Y04384*
X02413Y04385*
X02414Y04386*
X02415Y04387*
X02416Y04388*
X02416Y04389*
X02417Y0439*
X02418Y04391*
X02418Y04393*
X02419Y04394*
X02419Y04395*
X02419Y04397*
X02419Y04398*
X0242Y044*
Y043D02*
D01*
X02419Y04301*
X02419Y04302*
X02419Y04304*
X02419Y04305*
X02418Y04306*
X02418Y04308*
X02417Y04309*
X02416Y0431*
X02416Y04311*
X02415Y04312*
X02414Y04313*
X02413Y04314*
X02412Y04315*
X02411Y04316*
X0241Y04317*
X02408Y04317*
X02407Y04318*
X02406Y04319*
X02404Y04319*
X02403Y04319*
X02402Y04319*
X024Y04319*
X02399*
X02397Y04319*
X02396Y04319*
X02395Y04319*
X02393Y04319*
X02392Y04318*
X02391Y04317*
X0239Y04317*
X02388Y04316*
X02387Y04315*
X02386Y04314*
X02385Y04313*
X02384Y04312*
X02383Y04311*
X02383Y0431*
X02382Y04309*
X02381Y04308*
X02381Y04306*
X0238Y04305*
X0238Y04304*
X0238Y04302*
X0238Y04301*
X0238Y043*
X0238Y04298*
X0238Y04297*
X0238Y04295*
X0238Y04294*
X02381Y04293*
X02381Y04291*
X02382Y0429*
X02383Y04289*
X02383Y04288*
X02384Y04287*
X02385Y04286*
X02386Y04285*
X02387Y04284*
X02388Y04283*
X0239Y04282*
X02391Y04282*
X02392Y04281*
X02393Y0428*
X02395Y0428*
X02396Y0428*
X02397Y0428*
X02399Y0428*
X024*
X02402Y0428*
X02403Y0428*
X02404Y0428*
X02406Y0428*
X02407Y04281*
X02408Y04282*
X0241Y04282*
X02411Y04283*
X02412Y04284*
X02413Y04285*
X02414Y04286*
X02415Y04287*
X02416Y04288*
X02416Y04289*
X02417Y0429*
X02418Y04291*
X02418Y04293*
X02419Y04294*
X02419Y04295*
X02419Y04297*
X02419Y04298*
X0242Y043*
Y042D02*
D01*
X02419Y04201*
X02419Y04202*
X02419Y04204*
X02419Y04205*
X02418Y04206*
X02418Y04208*
X02417Y04209*
X02416Y0421*
X02416Y04211*
X02415Y04212*
X02414Y04213*
X02413Y04214*
X02412Y04215*
X02411Y04216*
X0241Y04217*
X02408Y04217*
X02407Y04218*
X02406Y04219*
X02404Y04219*
X02403Y04219*
X02402Y04219*
X024Y04219*
X02399*
X02397Y04219*
X02396Y04219*
X02395Y04219*
X02393Y04219*
X02392Y04218*
X02391Y04217*
X0239Y04217*
X02388Y04216*
X02387Y04215*
X02386Y04214*
X02385Y04213*
X02384Y04212*
X02383Y04211*
X02383Y0421*
X02382Y04209*
X02381Y04208*
X02381Y04206*
X0238Y04205*
X0238Y04204*
X0238Y04202*
X0238Y04201*
X0238Y042*
X0238Y04198*
X0238Y04197*
X0238Y04195*
X0238Y04194*
X02381Y04193*
X02381Y04191*
X02382Y0419*
X02383Y04189*
X02383Y04188*
X02384Y04187*
X02385Y04186*
X02386Y04185*
X02387Y04184*
X02388Y04183*
X0239Y04182*
X02391Y04182*
X02392Y04181*
X02393Y0418*
X02395Y0418*
X02396Y0418*
X02397Y0418*
X02399Y0418*
X024*
X02402Y0418*
X02403Y0418*
X02404Y0418*
X02406Y0418*
X02407Y04181*
X02408Y04182*
X0241Y04182*
X02411Y04183*
X02412Y04184*
X02413Y04185*
X02414Y04186*
X02415Y04187*
X02416Y04188*
X02416Y04189*
X02417Y0419*
X02418Y04191*
X02418Y04193*
X02419Y04194*
X02419Y04195*
X02419Y04197*
X02419Y04198*
X0242Y042*
X0312Y049D02*
D01*
X03119Y04901*
X03119Y04902*
X03119Y04904*
X03119Y04905*
X03118Y04906*
X03118Y04908*
X03117Y04909*
X03116Y0491*
X03116Y04911*
X03115Y04912*
X03114Y04913*
X03113Y04914*
X03112Y04915*
X03111Y04916*
X0311Y04917*
X03108Y04917*
X03107Y04918*
X03106Y04919*
X03104Y04919*
X03103Y04919*
X03102Y04919*
X031Y04919*
X03099*
X03097Y04919*
X03096Y04919*
X03095Y04919*
X03093Y04919*
X03092Y04918*
X03091Y04917*
X0309Y04917*
X03088Y04916*
X03087Y04915*
X03086Y04914*
X03085Y04913*
X03084Y04912*
X03083Y04911*
X03083Y0491*
X03082Y04909*
X03081Y04908*
X03081Y04906*
X0308Y04905*
X0308Y04904*
X0308Y04902*
X0308Y04901*
X0308Y049*
X0308Y04898*
X0308Y04897*
X0308Y04895*
X0308Y04894*
X03081Y04893*
X03081Y04891*
X03082Y0489*
X03083Y04889*
X03083Y04888*
X03084Y04887*
X03085Y04886*
X03086Y04885*
X03087Y04884*
X03088Y04883*
X0309Y04882*
X03091Y04882*
X03092Y04881*
X03093Y0488*
X03095Y0488*
X03096Y0488*
X03097Y0488*
X03099Y0488*
X031*
X03102Y0488*
X03103Y0488*
X03104Y0488*
X03106Y0488*
X03107Y04881*
X03108Y04882*
X0311Y04882*
X03111Y04883*
X03112Y04884*
X03113Y04885*
X03114Y04886*
X03115Y04887*
X03116Y04888*
X03116Y04889*
X03117Y0489*
X03118Y04891*
X03118Y04893*
X03119Y04894*
X03119Y04895*
X03119Y04897*
X03119Y04898*
X0312Y049*
Y048D02*
D01*
X03119Y04801*
X03119Y04802*
X03119Y04804*
X03119Y04805*
X03118Y04806*
X03118Y04808*
X03117Y04809*
X03116Y0481*
X03116Y04811*
X03115Y04812*
X03114Y04813*
X03113Y04814*
X03112Y04815*
X03111Y04816*
X0311Y04817*
X03108Y04817*
X03107Y04818*
X03106Y04819*
X03104Y04819*
X03103Y04819*
X03102Y04819*
X031Y04819*
X03099*
X03097Y04819*
X03096Y04819*
X03095Y04819*
X03093Y04819*
X03092Y04818*
X03091Y04817*
X0309Y04817*
X03088Y04816*
X03087Y04815*
X03086Y04814*
X03085Y04813*
X03084Y04812*
X03083Y04811*
X03083Y0481*
X03082Y04809*
X03081Y04808*
X03081Y04806*
X0308Y04805*
X0308Y04804*
X0308Y04802*
X0308Y04801*
X0308Y048*
X0308Y04798*
X0308Y04797*
X0308Y04795*
X0308Y04794*
X03081Y04793*
X03081Y04791*
X03082Y0479*
X03083Y04789*
X03083Y04788*
X03084Y04787*
X03085Y04786*
X03086Y04785*
X03087Y04784*
X03088Y04783*
X0309Y04782*
X03091Y04782*
X03092Y04781*
X03093Y0478*
X03095Y0478*
X03096Y0478*
X03097Y0478*
X03099Y0478*
X031*
X03102Y0478*
X03103Y0478*
X03104Y0478*
X03106Y0478*
X03107Y04781*
X03108Y04782*
X0311Y04782*
X03111Y04783*
X03112Y04784*
X03113Y04785*
X03114Y04786*
X03115Y04787*
X03116Y04788*
X03116Y04789*
X03117Y0479*
X03118Y04791*
X03118Y04793*
X03119Y04794*
X03119Y04795*
X03119Y04797*
X03119Y04798*
X0312Y048*
Y047D02*
D01*
X03119Y04701*
X03119Y04702*
X03119Y04704*
X03119Y04705*
X03118Y04706*
X03118Y04708*
X03117Y04709*
X03116Y0471*
X03116Y04711*
X03115Y04712*
X03114Y04713*
X03113Y04714*
X03112Y04715*
X03111Y04716*
X0311Y04717*
X03108Y04717*
X03107Y04718*
X03106Y04719*
X03104Y04719*
X03103Y04719*
X03102Y04719*
X031Y04719*
X03099*
X03097Y04719*
X03096Y04719*
X03095Y04719*
X03093Y04719*
X03092Y04718*
X03091Y04717*
X0309Y04717*
X03088Y04716*
X03087Y04715*
X03086Y04714*
X03085Y04713*
X03084Y04712*
X03083Y04711*
X03083Y0471*
X03082Y04709*
X03081Y04708*
X03081Y04706*
X0308Y04705*
X0308Y04704*
X0308Y04702*
X0308Y04701*
X0308Y047*
X0308Y04698*
X0308Y04697*
X0308Y04695*
X0308Y04694*
X03081Y04693*
X03081Y04691*
X03082Y0469*
X03083Y04689*
X03083Y04688*
X03084Y04687*
X03085Y04686*
X03086Y04685*
X03087Y04684*
X03088Y04683*
X0309Y04682*
X03091Y04682*
X03092Y04681*
X03093Y0468*
X03095Y0468*
X03096Y0468*
X03097Y0468*
X03099Y0468*
X031*
X03102Y0468*
X03103Y0468*
X03104Y0468*
X03106Y0468*
X03107Y04681*
X03108Y04682*
X0311Y04682*
X03111Y04683*
X03112Y04684*
X03113Y04685*
X03114Y04686*
X03115Y04687*
X03116Y04688*
X03116Y04689*
X03117Y0469*
X03118Y04691*
X03118Y04693*
X03119Y04694*
X03119Y04695*
X03119Y04697*
X03119Y04698*
X0312Y047*
Y046D02*
D01*
X03119Y04601*
X03119Y04602*
X03119Y04604*
X03119Y04605*
X03118Y04606*
X03118Y04608*
X03117Y04609*
X03116Y0461*
X03116Y04611*
X03115Y04612*
X03114Y04613*
X03113Y04614*
X03112Y04615*
X03111Y04616*
X0311Y04617*
X03108Y04617*
X03107Y04618*
X03106Y04619*
X03104Y04619*
X03103Y04619*
X03102Y04619*
X031Y04619*
X03099*
X03097Y04619*
X03096Y04619*
X03095Y04619*
X03093Y04619*
X03092Y04618*
X03091Y04617*
X0309Y04617*
X03088Y04616*
X03087Y04615*
X03086Y04614*
X03085Y04613*
X03084Y04612*
X03083Y04611*
X03083Y0461*
X03082Y04609*
X03081Y04608*
X03081Y04606*
X0308Y04605*
X0308Y04604*
X0308Y04602*
X0308Y04601*
X0308Y046*
X0308Y04598*
X0308Y04597*
X0308Y04595*
X0308Y04594*
X03081Y04593*
X03081Y04591*
X03082Y0459*
X03083Y04589*
X03083Y04588*
X03084Y04587*
X03085Y04586*
X03086Y04585*
X03087Y04584*
X03088Y04583*
X0309Y04582*
X03091Y04582*
X03092Y04581*
X03093Y0458*
X03095Y0458*
X03096Y0458*
X03097Y0458*
X03099Y0458*
X031*
X03102Y0458*
X03103Y0458*
X03104Y0458*
X03106Y0458*
X03107Y04581*
X03108Y04582*
X0311Y04582*
X03111Y04583*
X03112Y04584*
X03113Y04585*
X03114Y04586*
X03115Y04587*
X03116Y04588*
X03116Y04589*
X03117Y0459*
X03118Y04591*
X03118Y04593*
X03119Y04594*
X03119Y04595*
X03119Y04597*
X03119Y04598*
X0312Y046*
Y045D02*
D01*
X03119Y04501*
X03119Y04502*
X03119Y04504*
X03119Y04505*
X03118Y04506*
X03118Y04508*
X03117Y04509*
X03116Y0451*
X03116Y04511*
X03115Y04512*
X03114Y04513*
X03113Y04514*
X03112Y04515*
X03111Y04516*
X0311Y04517*
X03108Y04517*
X03107Y04518*
X03106Y04519*
X03104Y04519*
X03103Y04519*
X03102Y04519*
X031Y04519*
X03099*
X03097Y04519*
X03096Y04519*
X03095Y04519*
X03093Y04519*
X03092Y04518*
X03091Y04517*
X0309Y04517*
X03088Y04516*
X03087Y04515*
X03086Y04514*
X03085Y04513*
X03084Y04512*
X03083Y04511*
X03083Y0451*
X03082Y04509*
X03081Y04508*
X03081Y04506*
X0308Y04505*
X0308Y04504*
X0308Y04502*
X0308Y04501*
X0308Y045*
X0308Y04498*
X0308Y04497*
X0308Y04495*
X0308Y04494*
X03081Y04493*
X03081Y04491*
X03082Y0449*
X03083Y04489*
X03083Y04488*
X03084Y04487*
X03085Y04486*
X03086Y04485*
X03087Y04484*
X03088Y04483*
X0309Y04482*
X03091Y04482*
X03092Y04481*
X03093Y0448*
X03095Y0448*
X03096Y0448*
X03097Y0448*
X03099Y0448*
X031*
X03102Y0448*
X03103Y0448*
X03104Y0448*
X03106Y0448*
X03107Y04481*
X03108Y04482*
X0311Y04482*
X03111Y04483*
X03112Y04484*
X03113Y04485*
X03114Y04486*
X03115Y04487*
X03116Y04488*
X03116Y04489*
X03117Y0449*
X03118Y04491*
X03118Y04493*
X03119Y04494*
X03119Y04495*
X03119Y04497*
X03119Y04498*
X0312Y045*
Y044D02*
D01*
X03119Y04401*
X03119Y04402*
X03119Y04404*
X03119Y04405*
X03118Y04406*
X03118Y04408*
X03117Y04409*
X03116Y0441*
X03116Y04411*
X03115Y04412*
X03114Y04413*
X03113Y04414*
X03112Y04415*
X03111Y04416*
X0311Y04417*
X03108Y04417*
X03107Y04418*
X03106Y04419*
X03104Y04419*
X03103Y04419*
X03102Y04419*
X031Y04419*
X03099*
X03097Y04419*
X03096Y04419*
X03095Y04419*
X03093Y04419*
X03092Y04418*
X03091Y04417*
X0309Y04417*
X03088Y04416*
X03087Y04415*
X03086Y04414*
X03085Y04413*
X03084Y04412*
X03083Y04411*
X03083Y0441*
X03082Y04409*
X03081Y04408*
X03081Y04406*
X0308Y04405*
X0308Y04404*
X0308Y04402*
X0308Y04401*
X0308Y044*
X0308Y04398*
X0308Y04397*
X0308Y04395*
X0308Y04394*
X03081Y04393*
X03081Y04391*
X03082Y0439*
X03083Y04389*
X03083Y04388*
X03084Y04387*
X03085Y04386*
X03086Y04385*
X03087Y04384*
X03088Y04383*
X0309Y04382*
X03091Y04382*
X03092Y04381*
X03093Y0438*
X03095Y0438*
X03096Y0438*
X03097Y0438*
X03099Y0438*
X031*
X03102Y0438*
X03103Y0438*
X03104Y0438*
X03106Y0438*
X03107Y04381*
X03108Y04382*
X0311Y04382*
X03111Y04383*
X03112Y04384*
X03113Y04385*
X03114Y04386*
X03115Y04387*
X03116Y04388*
X03116Y04389*
X03117Y0439*
X03118Y04391*
X03118Y04393*
X03119Y04394*
X03119Y04395*
X03119Y04397*
X03119Y04398*
X0312Y044*
Y043D02*
D01*
X03119Y04301*
X03119Y04302*
X03119Y04304*
X03119Y04305*
X03118Y04306*
X03118Y04308*
X03117Y04309*
X03116Y0431*
X03116Y04311*
X03115Y04312*
X03114Y04313*
X03113Y04314*
X03112Y04315*
X03111Y04316*
X0311Y04317*
X03108Y04317*
X03107Y04318*
X03106Y04319*
X03104Y04319*
X03103Y04319*
X03102Y04319*
X031Y04319*
X03099*
X03097Y04319*
X03096Y04319*
X03095Y04319*
X03093Y04319*
X03092Y04318*
X03091Y04317*
X0309Y04317*
X03088Y04316*
X03087Y04315*
X03086Y04314*
X03085Y04313*
X03084Y04312*
X03083Y04311*
X03083Y0431*
X03082Y04309*
X03081Y04308*
X03081Y04306*
X0308Y04305*
X0308Y04304*
X0308Y04302*
X0308Y04301*
X0308Y043*
X0308Y04298*
X0308Y04297*
X0308Y04295*
X0308Y04294*
X03081Y04293*
X03081Y04291*
X03082Y0429*
X03083Y04289*
X03083Y04288*
X03084Y04287*
X03085Y04286*
X03086Y04285*
X03087Y04284*
X03088Y04283*
X0309Y04282*
X03091Y04282*
X03092Y04281*
X03093Y0428*
X03095Y0428*
X03096Y0428*
X03097Y0428*
X03099Y0428*
X031*
X03102Y0428*
X03103Y0428*
X03104Y0428*
X03106Y0428*
X03107Y04281*
X03108Y04282*
X0311Y04282*
X03111Y04283*
X03112Y04284*
X03113Y04285*
X03114Y04286*
X03115Y04287*
X03116Y04288*
X03116Y04289*
X03117Y0429*
X03118Y04291*
X03118Y04293*
X03119Y04294*
X03119Y04295*
X03119Y04297*
X03119Y04298*
X0312Y043*
Y042D02*
D01*
X03119Y04201*
X03119Y04202*
X03119Y04204*
X03119Y04205*
X03118Y04206*
X03118Y04208*
X03117Y04209*
X03116Y0421*
X03116Y04211*
X03115Y04212*
X03114Y04213*
X03113Y04214*
X03112Y04215*
X03111Y04216*
X0311Y04217*
X03108Y04217*
X03107Y04218*
X03106Y04219*
X03104Y04219*
X03103Y04219*
X03102Y04219*
X031Y04219*
X03099*
X03097Y04219*
X03096Y04219*
X03095Y04219*
X03093Y04219*
X03092Y04218*
X03091Y04217*
X0309Y04217*
X03088Y04216*
X03087Y04215*
X03086Y04214*
X03085Y04213*
X03084Y04212*
X03083Y04211*
X03083Y0421*
X03082Y04209*
X03081Y04208*
X03081Y04206*
X0308Y04205*
X0308Y04204*
X0308Y04202*
X0308Y04201*
X0308Y042*
X0308Y04198*
X0308Y04197*
X0308Y04195*
X0308Y04194*
X03081Y04193*
X03081Y04191*
X03082Y0419*
X03083Y04189*
X03083Y04188*
X03084Y04187*
X03085Y04186*
X03086Y04185*
X03087Y04184*
X03088Y04183*
X0309Y04182*
X03091Y04182*
X03092Y04181*
X03093Y0418*
X03095Y0418*
X03096Y0418*
X03097Y0418*
X03099Y0418*
X031*
X03102Y0418*
X03103Y0418*
X03104Y0418*
X03106Y0418*
X03107Y04181*
X03108Y04182*
X0311Y04182*
X03111Y04183*
X03112Y04184*
X03113Y04185*
X03114Y04186*
X03115Y04187*
X03116Y04188*
X03116Y04189*
X03117Y0419*
X03118Y04191*
X03118Y04193*
X03119Y04194*
X03119Y04195*
X03119Y04197*
X03119Y04198*
X0312Y042*
X0382Y049D02*
D01*
X03819Y04901*
X03819Y04902*
X03819Y04904*
X03819Y04905*
X03818Y04906*
X03818Y04908*
X03817Y04909*
X03816Y0491*
X03816Y04911*
X03815Y04912*
X03814Y04913*
X03813Y04914*
X03812Y04915*
X03811Y04916*
X0381Y04917*
X03808Y04917*
X03807Y04918*
X03806Y04919*
X03804Y04919*
X03803Y04919*
X03802Y04919*
X038Y04919*
X03799*
X03797Y04919*
X03796Y04919*
X03795Y04919*
X03793Y04919*
X03792Y04918*
X03791Y04917*
X0379Y04917*
X03788Y04916*
X03787Y04915*
X03786Y04914*
X03785Y04913*
X03784Y04912*
X03783Y04911*
X03783Y0491*
X03782Y04909*
X03781Y04908*
X03781Y04906*
X0378Y04905*
X0378Y04904*
X0378Y04902*
X0378Y04901*
X0378Y049*
X0378Y04898*
X0378Y04897*
X0378Y04895*
X0378Y04894*
X03781Y04893*
X03781Y04891*
X03782Y0489*
X03783Y04889*
X03783Y04888*
X03784Y04887*
X03785Y04886*
X03786Y04885*
X03787Y04884*
X03788Y04883*
X0379Y04882*
X03791Y04882*
X03792Y04881*
X03793Y0488*
X03795Y0488*
X03796Y0488*
X03797Y0488*
X03799Y0488*
X038*
X03802Y0488*
X03803Y0488*
X03804Y0488*
X03806Y0488*
X03807Y04881*
X03808Y04882*
X0381Y04882*
X03811Y04883*
X03812Y04884*
X03813Y04885*
X03814Y04886*
X03815Y04887*
X03816Y04888*
X03816Y04889*
X03817Y0489*
X03818Y04891*
X03818Y04893*
X03819Y04894*
X03819Y04895*
X03819Y04897*
X03819Y04898*
X0382Y049*
Y048D02*
D01*
X03819Y04801*
X03819Y04802*
X03819Y04804*
X03819Y04805*
X03818Y04806*
X03818Y04808*
X03817Y04809*
X03816Y0481*
X03816Y04811*
X03815Y04812*
X03814Y04813*
X03813Y04814*
X03812Y04815*
X03811Y04816*
X0381Y04817*
X03808Y04817*
X03807Y04818*
X03806Y04819*
X03804Y04819*
X03803Y04819*
X03802Y04819*
X038Y04819*
X03799*
X03797Y04819*
X03796Y04819*
X03795Y04819*
X03793Y04819*
X03792Y04818*
X03791Y04817*
X0379Y04817*
X03788Y04816*
X03787Y04815*
X03786Y04814*
X03785Y04813*
X03784Y04812*
X03783Y04811*
X03783Y0481*
X03782Y04809*
X03781Y04808*
X03781Y04806*
X0378Y04805*
X0378Y04804*
X0378Y04802*
X0378Y04801*
X0378Y048*
X0378Y04798*
X0378Y04797*
X0378Y04795*
X0378Y04794*
X03781Y04793*
X03781Y04791*
X03782Y0479*
X03783Y04789*
X03783Y04788*
X03784Y04787*
X03785Y04786*
X03786Y04785*
X03787Y04784*
X03788Y04783*
X0379Y04782*
X03791Y04782*
X03792Y04781*
X03793Y0478*
X03795Y0478*
X03796Y0478*
X03797Y0478*
X03799Y0478*
X038*
X03802Y0478*
X03803Y0478*
X03804Y0478*
X03806Y0478*
X03807Y04781*
X03808Y04782*
X0381Y04782*
X03811Y04783*
X03812Y04784*
X03813Y04785*
X03814Y04786*
X03815Y04787*
X03816Y04788*
X03816Y04789*
X03817Y0479*
X03818Y04791*
X03818Y04793*
X03819Y04794*
X03819Y04795*
X03819Y04797*
X03819Y04798*
X0382Y048*
Y047D02*
D01*
X03819Y04701*
X03819Y04702*
X03819Y04704*
X03819Y04705*
X03818Y04706*
X03818Y04708*
X03817Y04709*
X03816Y0471*
X03816Y04711*
X03815Y04712*
X03814Y04713*
X03813Y04714*
X03812Y04715*
X03811Y04716*
X0381Y04717*
X03808Y04717*
X03807Y04718*
X03806Y04719*
X03804Y04719*
X03803Y04719*
X03802Y04719*
X038Y04719*
X03799*
X03797Y04719*
X03796Y04719*
X03795Y04719*
X03793Y04719*
X03792Y04718*
X03791Y04717*
X0379Y04717*
X03788Y04716*
X03787Y04715*
X03786Y04714*
X03785Y04713*
X03784Y04712*
X03783Y04711*
X03783Y0471*
X03782Y04709*
X03781Y04708*
X03781Y04706*
X0378Y04705*
X0378Y04704*
X0378Y04702*
X0378Y04701*
X0378Y047*
X0378Y04698*
X0378Y04697*
X0378Y04695*
X0378Y04694*
X03781Y04693*
X03781Y04691*
X03782Y0469*
X03783Y04689*
X03783Y04688*
X03784Y04687*
X03785Y04686*
X03786Y04685*
X03787Y04684*
X03788Y04683*
X0379Y04682*
X03791Y04682*
X03792Y04681*
X03793Y0468*
X03795Y0468*
X03796Y0468*
X03797Y0468*
X03799Y0468*
X038*
X03802Y0468*
X03803Y0468*
X03804Y0468*
X03806Y0468*
X03807Y04681*
X03808Y04682*
X0381Y04682*
X03811Y04683*
X03812Y04684*
X03813Y04685*
X03814Y04686*
X03815Y04687*
X03816Y04688*
X03816Y04689*
X03817Y0469*
X03818Y04691*
X03818Y04693*
X03819Y04694*
X03819Y04695*
X03819Y04697*
X03819Y04698*
X0382Y047*
Y046D02*
D01*
X03819Y04601*
X03819Y04602*
X03819Y04604*
X03819Y04605*
X03818Y04606*
X03818Y04608*
X03817Y04609*
X03816Y0461*
X03816Y04611*
X03815Y04612*
X03814Y04613*
X03813Y04614*
X03812Y04615*
X03811Y04616*
X0381Y04617*
X03808Y04617*
X03807Y04618*
X03806Y04619*
X03804Y04619*
X03803Y04619*
X03802Y04619*
X038Y04619*
X03799*
X03797Y04619*
X03796Y04619*
X03795Y04619*
X03793Y04619*
X03792Y04618*
X03791Y04617*
X0379Y04617*
X03788Y04616*
X03787Y04615*
X03786Y04614*
X03785Y04613*
X03784Y04612*
X03783Y04611*
X03783Y0461*
X03782Y04609*
X03781Y04608*
X03781Y04606*
X0378Y04605*
X0378Y04604*
X0378Y04602*
X0378Y04601*
X0378Y046*
X0378Y04598*
X0378Y04597*
X0378Y04595*
X0378Y04594*
X03781Y04593*
X03781Y04591*
X03782Y0459*
X03783Y04589*
X03783Y04588*
X03784Y04587*
X03785Y04586*
X03786Y04585*
X03787Y04584*
X03788Y04583*
X0379Y04582*
X03791Y04582*
X03792Y04581*
X03793Y0458*
X03795Y0458*
X03796Y0458*
X03797Y0458*
X03799Y0458*
X038*
X03802Y0458*
X03803Y0458*
X03804Y0458*
X03806Y0458*
X03807Y04581*
X03808Y04582*
X0381Y04582*
X03811Y04583*
X03812Y04584*
X03813Y04585*
X03814Y04586*
X03815Y04587*
X03816Y04588*
X03816Y04589*
X03817Y0459*
X03818Y04591*
X03818Y04593*
X03819Y04594*
X03819Y04595*
X03819Y04597*
X03819Y04598*
X0382Y046*
Y045D02*
D01*
X03819Y04501*
X03819Y04502*
X03819Y04504*
X03819Y04505*
X03818Y04506*
X03818Y04508*
X03817Y04509*
X03816Y0451*
X03816Y04511*
X03815Y04512*
X03814Y04513*
X03813Y04514*
X03812Y04515*
X03811Y04516*
X0381Y04517*
X03808Y04517*
X03807Y04518*
X03806Y04519*
X03804Y04519*
X03803Y04519*
X03802Y04519*
X038Y04519*
X03799*
X03797Y04519*
X03796Y04519*
X03795Y04519*
X03793Y04519*
X03792Y04518*
X03791Y04517*
X0379Y04517*
X03788Y04516*
X03787Y04515*
X03786Y04514*
X03785Y04513*
X03784Y04512*
X03783Y04511*
X03783Y0451*
X03782Y04509*
X03781Y04508*
X03781Y04506*
X0378Y04505*
X0378Y04504*
X0378Y04502*
X0378Y04501*
X0378Y045*
X0378Y04498*
X0378Y04497*
X0378Y04495*
X0378Y04494*
X03781Y04493*
X03781Y04491*
X03782Y0449*
X03783Y04489*
X03783Y04488*
X03784Y04487*
X03785Y04486*
X03786Y04485*
X03787Y04484*
X03788Y04483*
X0379Y04482*
X03791Y04482*
X03792Y04481*
X03793Y0448*
X03795Y0448*
X03796Y0448*
X03797Y0448*
X03799Y0448*
X038*
X03802Y0448*
X03803Y0448*
X03804Y0448*
X03806Y0448*
X03807Y04481*
X03808Y04482*
X0381Y04482*
X03811Y04483*
X03812Y04484*
X03813Y04485*
X03814Y04486*
X03815Y04487*
X03816Y04488*
X03816Y04489*
X03817Y0449*
X03818Y04491*
X03818Y04493*
X03819Y04494*
X03819Y04495*
X03819Y04497*
X03819Y04498*
X0382Y045*
Y044D02*
D01*
X03819Y04401*
X03819Y04402*
X03819Y04404*
X03819Y04405*
X03818Y04406*
X03818Y04408*
X03817Y04409*
X03816Y0441*
X03816Y04411*
X03815Y04412*
X03814Y04413*
X03813Y04414*
X03812Y04415*
X03811Y04416*
X0381Y04417*
X03808Y04417*
X03807Y04418*
X03806Y04419*
X03804Y04419*
X03803Y04419*
X03802Y04419*
X038Y04419*
X03799*
X03797Y04419*
X03796Y04419*
X03795Y04419*
X03793Y04419*
X03792Y04418*
X03791Y04417*
X0379Y04417*
X03788Y04416*
X03787Y04415*
X03786Y04414*
X03785Y04413*
X03784Y04412*
X03783Y04411*
X03783Y0441*
X03782Y04409*
X03781Y04408*
X03781Y04406*
X0378Y04405*
X0378Y04404*
X0378Y04402*
X0378Y04401*
X0378Y044*
X0378Y04398*
X0378Y04397*
X0378Y04395*
X0378Y04394*
X03781Y04393*
X03781Y04391*
X03782Y0439*
X03783Y04389*
X03783Y04388*
X03784Y04387*
X03785Y04386*
X03786Y04385*
X03787Y04384*
X03788Y04383*
X0379Y04382*
X03791Y04382*
X03792Y04381*
X03793Y0438*
X03795Y0438*
X03796Y0438*
X03797Y0438*
X03799Y0438*
X038*
X03802Y0438*
X03803Y0438*
X03804Y0438*
X03806Y0438*
X03807Y04381*
X03808Y04382*
X0381Y04382*
X03811Y04383*
X03812Y04384*
X03813Y04385*
X03814Y04386*
X03815Y04387*
X03816Y04388*
X03816Y04389*
X03817Y0439*
X03818Y04391*
X03818Y04393*
X03819Y04394*
X03819Y04395*
X03819Y04397*
X03819Y04398*
X0382Y044*
Y043D02*
D01*
X03819Y04301*
X03819Y04302*
X03819Y04304*
X03819Y04305*
X03818Y04306*
X03818Y04308*
X03817Y04309*
X03816Y0431*
X03816Y04311*
X03815Y04312*
X03814Y04313*
X03813Y04314*
X03812Y04315*
X03811Y04316*
X0381Y04317*
X03808Y04317*
X03807Y04318*
X03806Y04319*
X03804Y04319*
X03803Y04319*
X03802Y04319*
X038Y04319*
X03799*
X03797Y04319*
X03796Y04319*
X03795Y04319*
X03793Y04319*
X03792Y04318*
X03791Y04317*
X0379Y04317*
X03788Y04316*
X03787Y04315*
X03786Y04314*
X03785Y04313*
X03784Y04312*
X03783Y04311*
X03783Y0431*
X03782Y04309*
X03781Y04308*
X03781Y04306*
X0378Y04305*
X0378Y04304*
X0378Y04302*
X0378Y04301*
X0378Y043*
X0378Y04298*
X0378Y04297*
X0378Y04295*
X0378Y04294*
X03781Y04293*
X03781Y04291*
X03782Y0429*
X03783Y04289*
X03783Y04288*
X03784Y04287*
X03785Y04286*
X03786Y04285*
X03787Y04284*
X03788Y04283*
X0379Y04282*
X03791Y04282*
X03792Y04281*
X03793Y0428*
X03795Y0428*
X03796Y0428*
X03797Y0428*
X03799Y0428*
X038*
X03802Y0428*
X03803Y0428*
X03804Y0428*
X03806Y0428*
X03807Y04281*
X03808Y04282*
X0381Y04282*
X03811Y04283*
X03812Y04284*
X03813Y04285*
X03814Y04286*
X03815Y04287*
X03816Y04288*
X03816Y04289*
X03817Y0429*
X03818Y04291*
X03818Y04293*
X03819Y04294*
X03819Y04295*
X03819Y04297*
X03819Y04298*
X0382Y043*
Y042D02*
D01*
X03819Y04201*
X03819Y04202*
X03819Y04204*
X03819Y04205*
X03818Y04206*
X03818Y04208*
X03817Y04209*
X03816Y0421*
X03816Y04211*
X03815Y04212*
X03814Y04213*
X03813Y04214*
X03812Y04215*
X03811Y04216*
X0381Y04217*
X03808Y04217*
X03807Y04218*
X03806Y04219*
X03804Y04219*
X03803Y04219*
X03802Y04219*
X038Y04219*
X03799*
X03797Y04219*
X03796Y04219*
X03795Y04219*
X03793Y04219*
X03792Y04218*
X03791Y04217*
X0379Y04217*
X03788Y04216*
X03787Y04215*
X03786Y04214*
X03785Y04213*
X03784Y04212*
X03783Y04211*
X03783Y0421*
X03782Y04209*
X03781Y04208*
X03781Y04206*
X0378Y04205*
X0378Y04204*
X0378Y04202*
X0378Y04201*
X0378Y042*
X0378Y04198*
X0378Y04197*
X0378Y04195*
X0378Y04194*
X03781Y04193*
X03781Y04191*
X03782Y0419*
X03783Y04189*
X03783Y04188*
X03784Y04187*
X03785Y04186*
X03786Y04185*
X03787Y04184*
X03788Y04183*
X0379Y04182*
X03791Y04182*
X03792Y04181*
X03793Y0418*
X03795Y0418*
X03796Y0418*
X03797Y0418*
X03799Y0418*
X038*
X03802Y0418*
X03803Y0418*
X03804Y0418*
X03806Y0418*
X03807Y04181*
X03808Y04182*
X0381Y04182*
X03811Y04183*
X03812Y04184*
X03813Y04185*
X03814Y04186*
X03815Y04187*
X03816Y04188*
X03816Y04189*
X03817Y0419*
X03818Y04191*
X03818Y04193*
X03819Y04194*
X03819Y04195*
X03819Y04197*
X03819Y04198*
X0382Y042*
X0172Y039D02*
D01*
X01719Y03901*
X01719Y03902*
X01719Y03904*
X01719Y03905*
X01718Y03906*
X01718Y03908*
X01717Y03909*
X01716Y0391*
X01716Y03911*
X01715Y03912*
X01714Y03913*
X01713Y03914*
X01712Y03915*
X01711Y03916*
X0171Y03917*
X01708Y03917*
X01707Y03918*
X01706Y03919*
X01704Y03919*
X01703Y03919*
X01702Y03919*
X017Y03919*
X01699*
X01697Y03919*
X01696Y03919*
X01695Y03919*
X01693Y03919*
X01692Y03918*
X01691Y03917*
X0169Y03917*
X01688Y03916*
X01687Y03915*
X01686Y03914*
X01685Y03913*
X01684Y03912*
X01683Y03911*
X01683Y0391*
X01682Y03909*
X01681Y03908*
X01681Y03906*
X0168Y03905*
X0168Y03904*
X0168Y03902*
X0168Y03901*
X0168Y039*
X0168Y03898*
X0168Y03897*
X0168Y03895*
X0168Y03894*
X01681Y03893*
X01681Y03891*
X01682Y0389*
X01683Y03889*
X01683Y03888*
X01684Y03887*
X01685Y03886*
X01686Y03885*
X01687Y03884*
X01688Y03883*
X0169Y03882*
X01691Y03882*
X01692Y03881*
X01693Y0388*
X01695Y0388*
X01696Y0388*
X01697Y0388*
X01699Y0388*
X017*
X01702Y0388*
X01703Y0388*
X01704Y0388*
X01706Y0388*
X01707Y03881*
X01708Y03882*
X0171Y03882*
X01711Y03883*
X01712Y03884*
X01713Y03885*
X01714Y03886*
X01715Y03887*
X01716Y03888*
X01716Y03889*
X01717Y0389*
X01718Y03891*
X01718Y03893*
X01719Y03894*
X01719Y03895*
X01719Y03897*
X01719Y03898*
X0172Y039*
Y038D02*
D01*
X01719Y03801*
X01719Y03802*
X01719Y03804*
X01719Y03805*
X01718Y03806*
X01718Y03808*
X01717Y03809*
X01716Y0381*
X01716Y03811*
X01715Y03812*
X01714Y03813*
X01713Y03814*
X01712Y03815*
X01711Y03816*
X0171Y03817*
X01708Y03817*
X01707Y03818*
X01706Y03819*
X01704Y03819*
X01703Y03819*
X01702Y03819*
X017Y03819*
X01699*
X01697Y03819*
X01696Y03819*
X01695Y03819*
X01693Y03819*
X01692Y03818*
X01691Y03817*
X0169Y03817*
X01688Y03816*
X01687Y03815*
X01686Y03814*
X01685Y03813*
X01684Y03812*
X01683Y03811*
X01683Y0381*
X01682Y03809*
X01681Y03808*
X01681Y03806*
X0168Y03805*
X0168Y03804*
X0168Y03802*
X0168Y03801*
X0168Y038*
X0168Y03798*
X0168Y03797*
X0168Y03795*
X0168Y03794*
X01681Y03793*
X01681Y03791*
X01682Y0379*
X01683Y03789*
X01683Y03788*
X01684Y03787*
X01685Y03786*
X01686Y03785*
X01687Y03784*
X01688Y03783*
X0169Y03782*
X01691Y03782*
X01692Y03781*
X01693Y0378*
X01695Y0378*
X01696Y0378*
X01697Y0378*
X01699Y0378*
X017*
X01702Y0378*
X01703Y0378*
X01704Y0378*
X01706Y0378*
X01707Y03781*
X01708Y03782*
X0171Y03782*
X01711Y03783*
X01712Y03784*
X01713Y03785*
X01714Y03786*
X01715Y03787*
X01716Y03788*
X01716Y03789*
X01717Y0379*
X01718Y03791*
X01718Y03793*
X01719Y03794*
X01719Y03795*
X01719Y03797*
X01719Y03798*
X0172Y038*
Y037D02*
D01*
X01719Y03701*
X01719Y03702*
X01719Y03704*
X01719Y03705*
X01718Y03706*
X01718Y03708*
X01717Y03709*
X01716Y0371*
X01716Y03711*
X01715Y03712*
X01714Y03713*
X01713Y03714*
X01712Y03715*
X01711Y03716*
X0171Y03717*
X01708Y03717*
X01707Y03718*
X01706Y03719*
X01704Y03719*
X01703Y03719*
X01702Y03719*
X017Y03719*
X01699*
X01697Y03719*
X01696Y03719*
X01695Y03719*
X01693Y03719*
X01692Y03718*
X01691Y03717*
X0169Y03717*
X01688Y03716*
X01687Y03715*
X01686Y03714*
X01685Y03713*
X01684Y03712*
X01683Y03711*
X01683Y0371*
X01682Y03709*
X01681Y03708*
X01681Y03706*
X0168Y03705*
X0168Y03704*
X0168Y03702*
X0168Y03701*
X0168Y037*
X0168Y03698*
X0168Y03697*
X0168Y03695*
X0168Y03694*
X01681Y03693*
X01681Y03691*
X01682Y0369*
X01683Y03689*
X01683Y03688*
X01684Y03687*
X01685Y03686*
X01686Y03685*
X01687Y03684*
X01688Y03683*
X0169Y03682*
X01691Y03682*
X01692Y03681*
X01693Y0368*
X01695Y0368*
X01696Y0368*
X01697Y0368*
X01699Y0368*
X017*
X01702Y0368*
X01703Y0368*
X01704Y0368*
X01706Y0368*
X01707Y03681*
X01708Y03682*
X0171Y03682*
X01711Y03683*
X01712Y03684*
X01713Y03685*
X01714Y03686*
X01715Y03687*
X01716Y03688*
X01716Y03689*
X01717Y0369*
X01718Y03691*
X01718Y03693*
X01719Y03694*
X01719Y03695*
X01719Y03697*
X01719Y03698*
X0172Y037*
Y036D02*
D01*
X01719Y03601*
X01719Y03602*
X01719Y03604*
X01719Y03605*
X01718Y03606*
X01718Y03608*
X01717Y03609*
X01716Y0361*
X01716Y03611*
X01715Y03612*
X01714Y03613*
X01713Y03614*
X01712Y03615*
X01711Y03616*
X0171Y03617*
X01708Y03617*
X01707Y03618*
X01706Y03619*
X01704Y03619*
X01703Y03619*
X01702Y03619*
X017Y03619*
X01699*
X01697Y03619*
X01696Y03619*
X01695Y03619*
X01693Y03619*
X01692Y03618*
X01691Y03617*
X0169Y03617*
X01688Y03616*
X01687Y03615*
X01686Y03614*
X01685Y03613*
X01684Y03612*
X01683Y03611*
X01683Y0361*
X01682Y03609*
X01681Y03608*
X01681Y03606*
X0168Y03605*
X0168Y03604*
X0168Y03602*
X0168Y03601*
X0168Y036*
X0168Y03598*
X0168Y03597*
X0168Y03595*
X0168Y03594*
X01681Y03593*
X01681Y03591*
X01682Y0359*
X01683Y03589*
X01683Y03588*
X01684Y03587*
X01685Y03586*
X01686Y03585*
X01687Y03584*
X01688Y03583*
X0169Y03582*
X01691Y03582*
X01692Y03581*
X01693Y0358*
X01695Y0358*
X01696Y0358*
X01697Y0358*
X01699Y0358*
X017*
X01702Y0358*
X01703Y0358*
X01704Y0358*
X01706Y0358*
X01707Y03581*
X01708Y03582*
X0171Y03582*
X01711Y03583*
X01712Y03584*
X01713Y03585*
X01714Y03586*
X01715Y03587*
X01716Y03588*
X01716Y03589*
X01717Y0359*
X01718Y03591*
X01718Y03593*
X01719Y03594*
X01719Y03595*
X01719Y03597*
X01719Y03598*
X0172Y036*
Y035D02*
D01*
X01719Y03501*
X01719Y03502*
X01719Y03504*
X01719Y03505*
X01718Y03506*
X01718Y03508*
X01717Y03509*
X01716Y0351*
X01716Y03511*
X01715Y03512*
X01714Y03513*
X01713Y03514*
X01712Y03515*
X01711Y03516*
X0171Y03517*
X01708Y03517*
X01707Y03518*
X01706Y03519*
X01704Y03519*
X01703Y03519*
X01702Y03519*
X017Y03519*
X01699*
X01697Y03519*
X01696Y03519*
X01695Y03519*
X01693Y03519*
X01692Y03518*
X01691Y03517*
X0169Y03517*
X01688Y03516*
X01687Y03515*
X01686Y03514*
X01685Y03513*
X01684Y03512*
X01683Y03511*
X01683Y0351*
X01682Y03509*
X01681Y03508*
X01681Y03506*
X0168Y03505*
X0168Y03504*
X0168Y03502*
X0168Y03501*
X0168Y035*
X0168Y03498*
X0168Y03497*
X0168Y03495*
X0168Y03494*
X01681Y03493*
X01681Y03491*
X01682Y0349*
X01683Y03489*
X01683Y03488*
X01684Y03487*
X01685Y03486*
X01686Y03485*
X01687Y03484*
X01688Y03483*
X0169Y03482*
X01691Y03482*
X01692Y03481*
X01693Y0348*
X01695Y0348*
X01696Y0348*
X01697Y0348*
X01699Y0348*
X017*
X01702Y0348*
X01703Y0348*
X01704Y0348*
X01706Y0348*
X01707Y03481*
X01708Y03482*
X0171Y03482*
X01711Y03483*
X01712Y03484*
X01713Y03485*
X01714Y03486*
X01715Y03487*
X01716Y03488*
X01716Y03489*
X01717Y0349*
X01718Y03491*
X01718Y03493*
X01719Y03494*
X01719Y03495*
X01719Y03497*
X01719Y03498*
X0172Y035*
Y034D02*
D01*
X01719Y03401*
X01719Y03402*
X01719Y03404*
X01719Y03405*
X01718Y03406*
X01718Y03408*
X01717Y03409*
X01716Y0341*
X01716Y03411*
X01715Y03412*
X01714Y03413*
X01713Y03414*
X01712Y03415*
X01711Y03416*
X0171Y03417*
X01708Y03417*
X01707Y03418*
X01706Y03419*
X01704Y03419*
X01703Y03419*
X01702Y03419*
X017Y03419*
X01699*
X01697Y03419*
X01696Y03419*
X01695Y03419*
X01693Y03419*
X01692Y03418*
X01691Y03417*
X0169Y03417*
X01688Y03416*
X01687Y03415*
X01686Y03414*
X01685Y03413*
X01684Y03412*
X01683Y03411*
X01683Y0341*
X01682Y03409*
X01681Y03408*
X01681Y03406*
X0168Y03405*
X0168Y03404*
X0168Y03402*
X0168Y03401*
X0168Y034*
X0168Y03398*
X0168Y03397*
X0168Y03395*
X0168Y03394*
X01681Y03393*
X01681Y03391*
X01682Y0339*
X01683Y03389*
X01683Y03388*
X01684Y03387*
X01685Y03386*
X01686Y03385*
X01687Y03384*
X01688Y03383*
X0169Y03382*
X01691Y03382*
X01692Y03381*
X01693Y0338*
X01695Y0338*
X01696Y0338*
X01697Y0338*
X01699Y0338*
X017*
X01702Y0338*
X01703Y0338*
X01704Y0338*
X01706Y0338*
X01707Y03381*
X01708Y03382*
X0171Y03382*
X01711Y03383*
X01712Y03384*
X01713Y03385*
X01714Y03386*
X01715Y03387*
X01716Y03388*
X01716Y03389*
X01717Y0339*
X01718Y03391*
X01718Y03393*
X01719Y03394*
X01719Y03395*
X01719Y03397*
X01719Y03398*
X0172Y034*
Y033D02*
D01*
X01719Y03301*
X01719Y03302*
X01719Y03304*
X01719Y03305*
X01718Y03306*
X01718Y03308*
X01717Y03309*
X01716Y0331*
X01716Y03311*
X01715Y03312*
X01714Y03313*
X01713Y03314*
X01712Y03315*
X01711Y03316*
X0171Y03317*
X01708Y03317*
X01707Y03318*
X01706Y03319*
X01704Y03319*
X01703Y03319*
X01702Y03319*
X017Y03319*
X01699*
X01697Y03319*
X01696Y03319*
X01695Y03319*
X01693Y03319*
X01692Y03318*
X01691Y03317*
X0169Y03317*
X01688Y03316*
X01687Y03315*
X01686Y03314*
X01685Y03313*
X01684Y03312*
X01683Y03311*
X01683Y0331*
X01682Y03309*
X01681Y03308*
X01681Y03306*
X0168Y03305*
X0168Y03304*
X0168Y03302*
X0168Y03301*
X0168Y033*
X0168Y03298*
X0168Y03297*
X0168Y03295*
X0168Y03294*
X01681Y03293*
X01681Y03291*
X01682Y0329*
X01683Y03289*
X01683Y03288*
X01684Y03287*
X01685Y03286*
X01686Y03285*
X01687Y03284*
X01688Y03283*
X0169Y03282*
X01691Y03282*
X01692Y03281*
X01693Y0328*
X01695Y0328*
X01696Y0328*
X01697Y0328*
X01699Y0328*
X017*
X01702Y0328*
X01703Y0328*
X01704Y0328*
X01706Y0328*
X01707Y03281*
X01708Y03282*
X0171Y03282*
X01711Y03283*
X01712Y03284*
X01713Y03285*
X01714Y03286*
X01715Y03287*
X01716Y03288*
X01716Y03289*
X01717Y0329*
X01718Y03291*
X01718Y03293*
X01719Y03294*
X01719Y03295*
X01719Y03297*
X01719Y03298*
X0172Y033*
Y032D02*
D01*
X01719Y03201*
X01719Y03202*
X01719Y03204*
X01719Y03205*
X01718Y03206*
X01718Y03208*
X01717Y03209*
X01716Y0321*
X01716Y03211*
X01715Y03212*
X01714Y03213*
X01713Y03214*
X01712Y03215*
X01711Y03216*
X0171Y03217*
X01708Y03217*
X01707Y03218*
X01706Y03219*
X01704Y03219*
X01703Y03219*
X01702Y03219*
X017Y03219*
X01699*
X01697Y03219*
X01696Y03219*
X01695Y03219*
X01693Y03219*
X01692Y03218*
X01691Y03217*
X0169Y03217*
X01688Y03216*
X01687Y03215*
X01686Y03214*
X01685Y03213*
X01684Y03212*
X01683Y03211*
X01683Y0321*
X01682Y03209*
X01681Y03208*
X01681Y03206*
X0168Y03205*
X0168Y03204*
X0168Y03202*
X0168Y03201*
X0168Y032*
X0168Y03198*
X0168Y03197*
X0168Y03195*
X0168Y03194*
X01681Y03193*
X01681Y03191*
X01682Y0319*
X01683Y03189*
X01683Y03188*
X01684Y03187*
X01685Y03186*
X01686Y03185*
X01687Y03184*
X01688Y03183*
X0169Y03182*
X01691Y03182*
X01692Y03181*
X01693Y0318*
X01695Y0318*
X01696Y0318*
X01697Y0318*
X01699Y0318*
X017*
X01702Y0318*
X01703Y0318*
X01704Y0318*
X01706Y0318*
X01707Y03181*
X01708Y03182*
X0171Y03182*
X01711Y03183*
X01712Y03184*
X01713Y03185*
X01714Y03186*
X01715Y03187*
X01716Y03188*
X01716Y03189*
X01717Y0319*
X01718Y03191*
X01718Y03193*
X01719Y03194*
X01719Y03195*
X01719Y03197*
X01719Y03198*
X0172Y032*
X0242Y039D02*
D01*
X02419Y03901*
X02419Y03902*
X02419Y03904*
X02419Y03905*
X02418Y03906*
X02418Y03908*
X02417Y03909*
X02416Y0391*
X02416Y03911*
X02415Y03912*
X02414Y03913*
X02413Y03914*
X02412Y03915*
X02411Y03916*
X0241Y03917*
X02408Y03917*
X02407Y03918*
X02406Y03919*
X02404Y03919*
X02403Y03919*
X02402Y03919*
X024Y03919*
X02399*
X02397Y03919*
X02396Y03919*
X02395Y03919*
X02393Y03919*
X02392Y03918*
X02391Y03917*
X0239Y03917*
X02388Y03916*
X02387Y03915*
X02386Y03914*
X02385Y03913*
X02384Y03912*
X02383Y03911*
X02383Y0391*
X02382Y03909*
X02381Y03908*
X02381Y03906*
X0238Y03905*
X0238Y03904*
X0238Y03902*
X0238Y03901*
X0238Y039*
X0238Y03898*
X0238Y03897*
X0238Y03895*
X0238Y03894*
X02381Y03893*
X02381Y03891*
X02382Y0389*
X02383Y03889*
X02383Y03888*
X02384Y03887*
X02385Y03886*
X02386Y03885*
X02387Y03884*
X02388Y03883*
X0239Y03882*
X02391Y03882*
X02392Y03881*
X02393Y0388*
X02395Y0388*
X02396Y0388*
X02397Y0388*
X02399Y0388*
X024*
X02402Y0388*
X02403Y0388*
X02404Y0388*
X02406Y0388*
X02407Y03881*
X02408Y03882*
X0241Y03882*
X02411Y03883*
X02412Y03884*
X02413Y03885*
X02414Y03886*
X02415Y03887*
X02416Y03888*
X02416Y03889*
X02417Y0389*
X02418Y03891*
X02418Y03893*
X02419Y03894*
X02419Y03895*
X02419Y03897*
X02419Y03898*
X0242Y039*
Y038D02*
D01*
X02419Y03801*
X02419Y03802*
X02419Y03804*
X02419Y03805*
X02418Y03806*
X02418Y03808*
X02417Y03809*
X02416Y0381*
X02416Y03811*
X02415Y03812*
X02414Y03813*
X02413Y03814*
X02412Y03815*
X02411Y03816*
X0241Y03817*
X02408Y03817*
X02407Y03818*
X02406Y03819*
X02404Y03819*
X02403Y03819*
X02402Y03819*
X024Y03819*
X02399*
X02397Y03819*
X02396Y03819*
X02395Y03819*
X02393Y03819*
X02392Y03818*
X02391Y03817*
X0239Y03817*
X02388Y03816*
X02387Y03815*
X02386Y03814*
X02385Y03813*
X02384Y03812*
X02383Y03811*
X02383Y0381*
X02382Y03809*
X02381Y03808*
X02381Y03806*
X0238Y03805*
X0238Y03804*
X0238Y03802*
X0238Y03801*
X0238Y038*
X0238Y03798*
X0238Y03797*
X0238Y03795*
X0238Y03794*
X02381Y03793*
X02381Y03791*
X02382Y0379*
X02383Y03789*
X02383Y03788*
X02384Y03787*
X02385Y03786*
X02386Y03785*
X02387Y03784*
X02388Y03783*
X0239Y03782*
X02391Y03782*
X02392Y03781*
X02393Y0378*
X02395Y0378*
X02396Y0378*
X02397Y0378*
X02399Y0378*
X024*
X02402Y0378*
X02403Y0378*
X02404Y0378*
X02406Y0378*
X02407Y03781*
X02408Y03782*
X0241Y03782*
X02411Y03783*
X02412Y03784*
X02413Y03785*
X02414Y03786*
X02415Y03787*
X02416Y03788*
X02416Y03789*
X02417Y0379*
X02418Y03791*
X02418Y03793*
X02419Y03794*
X02419Y03795*
X02419Y03797*
X02419Y03798*
X0242Y038*
Y037D02*
D01*
X02419Y03701*
X02419Y03702*
X02419Y03704*
X02419Y03705*
X02418Y03706*
X02418Y03708*
X02417Y03709*
X02416Y0371*
X02416Y03711*
X02415Y03712*
X02414Y03713*
X02413Y03714*
X02412Y03715*
X02411Y03716*
X0241Y03717*
X02408Y03717*
X02407Y03718*
X02406Y03719*
X02404Y03719*
X02403Y03719*
X02402Y03719*
X024Y03719*
X02399*
X02397Y03719*
X02396Y03719*
X02395Y03719*
X02393Y03719*
X02392Y03718*
X02391Y03717*
X0239Y03717*
X02388Y03716*
X02387Y03715*
X02386Y03714*
X02385Y03713*
X02384Y03712*
X02383Y03711*
X02383Y0371*
X02382Y03709*
X02381Y03708*
X02381Y03706*
X0238Y03705*
X0238Y03704*
X0238Y03702*
X0238Y03701*
X0238Y037*
X0238Y03698*
X0238Y03697*
X0238Y03695*
X0238Y03694*
X02381Y03693*
X02381Y03691*
X02382Y0369*
X02383Y03689*
X02383Y03688*
X02384Y03687*
X02385Y03686*
X02386Y03685*
X02387Y03684*
X02388Y03683*
X0239Y03682*
X02391Y03682*
X02392Y03681*
X02393Y0368*
X02395Y0368*
X02396Y0368*
X02397Y0368*
X02399Y0368*
X024*
X02402Y0368*
X02403Y0368*
X02404Y0368*
X02406Y0368*
X02407Y03681*
X02408Y03682*
X0241Y03682*
X02411Y03683*
X02412Y03684*
X02413Y03685*
X02414Y03686*
X02415Y03687*
X02416Y03688*
X02416Y03689*
X02417Y0369*
X02418Y03691*
X02418Y03693*
X02419Y03694*
X02419Y03695*
X02419Y03697*
X02419Y03698*
X0242Y037*
Y036D02*
D01*
X02419Y03601*
X02419Y03602*
X02419Y03604*
X02419Y03605*
X02418Y03606*
X02418Y03608*
X02417Y03609*
X02416Y0361*
X02416Y03611*
X02415Y03612*
X02414Y03613*
X02413Y03614*
X02412Y03615*
X02411Y03616*
X0241Y03617*
X02408Y03617*
X02407Y03618*
X02406Y03619*
X02404Y03619*
X02403Y03619*
X02402Y03619*
X024Y03619*
X02399*
X02397Y03619*
X02396Y03619*
X02395Y03619*
X02393Y03619*
X02392Y03618*
X02391Y03617*
X0239Y03617*
X02388Y03616*
X02387Y03615*
X02386Y03614*
X02385Y03613*
X02384Y03612*
X02383Y03611*
X02383Y0361*
X02382Y03609*
X02381Y03608*
X02381Y03606*
X0238Y03605*
X0238Y03604*
X0238Y03602*
X0238Y03601*
X0238Y036*
X0238Y03598*
X0238Y03597*
X0238Y03595*
X0238Y03594*
X02381Y03593*
X02381Y03591*
X02382Y0359*
X02383Y03589*
X02383Y03588*
X02384Y03587*
X02385Y03586*
X02386Y03585*
X02387Y03584*
X02388Y03583*
X0239Y03582*
X02391Y03582*
X02392Y03581*
X02393Y0358*
X02395Y0358*
X02396Y0358*
X02397Y0358*
X02399Y0358*
X024*
X02402Y0358*
X02403Y0358*
X02404Y0358*
X02406Y0358*
X02407Y03581*
X02408Y03582*
X0241Y03582*
X02411Y03583*
X02412Y03584*
X02413Y03585*
X02414Y03586*
X02415Y03587*
X02416Y03588*
X02416Y03589*
X02417Y0359*
X02418Y03591*
X02418Y03593*
X02419Y03594*
X02419Y03595*
X02419Y03597*
X02419Y03598*
X0242Y036*
Y035D02*
D01*
X02419Y03501*
X02419Y03502*
X02419Y03504*
X02419Y03505*
X02418Y03506*
X02418Y03508*
X02417Y03509*
X02416Y0351*
X02416Y03511*
X02415Y03512*
X02414Y03513*
X02413Y03514*
X02412Y03515*
X02411Y03516*
X0241Y03517*
X02408Y03517*
X02407Y03518*
X02406Y03519*
X02404Y03519*
X02403Y03519*
X02402Y03519*
X024Y03519*
X02399*
X02397Y03519*
X02396Y03519*
X02395Y03519*
X02393Y03519*
X02392Y03518*
X02391Y03517*
X0239Y03517*
X02388Y03516*
X02387Y03515*
X02386Y03514*
X02385Y03513*
X02384Y03512*
X02383Y03511*
X02383Y0351*
X02382Y03509*
X02381Y03508*
X02381Y03506*
X0238Y03505*
X0238Y03504*
X0238Y03502*
X0238Y03501*
X0238Y035*
X0238Y03498*
X0238Y03497*
X0238Y03495*
X0238Y03494*
X02381Y03493*
X02381Y03491*
X02382Y0349*
X02383Y03489*
X02383Y03488*
X02384Y03487*
X02385Y03486*
X02386Y03485*
X02387Y03484*
X02388Y03483*
X0239Y03482*
X02391Y03482*
X02392Y03481*
X02393Y0348*
X02395Y0348*
X02396Y0348*
X02397Y0348*
X02399Y0348*
X024*
X02402Y0348*
X02403Y0348*
X02404Y0348*
X02406Y0348*
X02407Y03481*
X02408Y03482*
X0241Y03482*
X02411Y03483*
X02412Y03484*
X02413Y03485*
X02414Y03486*
X02415Y03487*
X02416Y03488*
X02416Y03489*
X02417Y0349*
X02418Y03491*
X02418Y03493*
X02419Y03494*
X02419Y03495*
X02419Y03497*
X02419Y03498*
X0242Y035*
Y034D02*
D01*
X02419Y03401*
X02419Y03402*
X02419Y03404*
X02419Y03405*
X02418Y03406*
X02418Y03408*
X02417Y03409*
X02416Y0341*
X02416Y03411*
X02415Y03412*
X02414Y03413*
X02413Y03414*
X02412Y03415*
X02411Y03416*
X0241Y03417*
X02408Y03417*
X02407Y03418*
X02406Y03419*
X02404Y03419*
X02403Y03419*
X02402Y03419*
X024Y03419*
X02399*
X02397Y03419*
X02396Y03419*
X02395Y03419*
X02393Y03419*
X02392Y03418*
X02391Y03417*
X0239Y03417*
X02388Y03416*
X02387Y03415*
X02386Y03414*
X02385Y03413*
X02384Y03412*
X02383Y03411*
X02383Y0341*
X02382Y03409*
X02381Y03408*
X02381Y03406*
X0238Y03405*
X0238Y03404*
X0238Y03402*
X0238Y03401*
X0238Y034*
X0238Y03398*
X0238Y03397*
X0238Y03395*
X0238Y03394*
X02381Y03393*
X02381Y03391*
X02382Y0339*
X02383Y03389*
X02383Y03388*
X02384Y03387*
X02385Y03386*
X02386Y03385*
X02387Y03384*
X02388Y03383*
X0239Y03382*
X02391Y03382*
X02392Y03381*
X02393Y0338*
X02395Y0338*
X02396Y0338*
X02397Y0338*
X02399Y0338*
X024*
X02402Y0338*
X02403Y0338*
X02404Y0338*
X02406Y0338*
X02407Y03381*
X02408Y03382*
X0241Y03382*
X02411Y03383*
X02412Y03384*
X02413Y03385*
X02414Y03386*
X02415Y03387*
X02416Y03388*
X02416Y03389*
X02417Y0339*
X02418Y03391*
X02418Y03393*
X02419Y03394*
X02419Y03395*
X02419Y03397*
X02419Y03398*
X0242Y034*
Y033D02*
D01*
X02419Y03301*
X02419Y03302*
X02419Y03304*
X02419Y03305*
X02418Y03306*
X02418Y03308*
X02417Y03309*
X02416Y0331*
X02416Y03311*
X02415Y03312*
X02414Y03313*
X02413Y03314*
X02412Y03315*
X02411Y03316*
X0241Y03317*
X02408Y03317*
X02407Y03318*
X02406Y03319*
X02404Y03319*
X02403Y03319*
X02402Y03319*
X024Y03319*
X02399*
X02397Y03319*
X02396Y03319*
X02395Y03319*
X02393Y03319*
X02392Y03318*
X02391Y03317*
X0239Y03317*
X02388Y03316*
X02387Y03315*
X02386Y03314*
X02385Y03313*
X02384Y03312*
X02383Y03311*
X02383Y0331*
X02382Y03309*
X02381Y03308*
X02381Y03306*
X0238Y03305*
X0238Y03304*
X0238Y03302*
X0238Y03301*
X0238Y033*
X0238Y03298*
X0238Y03297*
X0238Y03295*
X0238Y03294*
X02381Y03293*
X02381Y03291*
X02382Y0329*
X02383Y03289*
X02383Y03288*
X02384Y03287*
X02385Y03286*
X02386Y03285*
X02387Y03284*
X02388Y03283*
X0239Y03282*
X02391Y03282*
X02392Y03281*
X02393Y0328*
X02395Y0328*
X02396Y0328*
X02397Y0328*
X02399Y0328*
X024*
X02402Y0328*
X02403Y0328*
X02404Y0328*
X02406Y0328*
X02407Y03281*
X02408Y03282*
X0241Y03282*
X02411Y03283*
X02412Y03284*
X02413Y03285*
X02414Y03286*
X02415Y03287*
X02416Y03288*
X02416Y03289*
X02417Y0329*
X02418Y03291*
X02418Y03293*
X02419Y03294*
X02419Y03295*
X02419Y03297*
X02419Y03298*
X0242Y033*
Y032D02*
D01*
X02419Y03201*
X02419Y03202*
X02419Y03204*
X02419Y03205*
X02418Y03206*
X02418Y03208*
X02417Y03209*
X02416Y0321*
X02416Y03211*
X02415Y03212*
X02414Y03213*
X02413Y03214*
X02412Y03215*
X02411Y03216*
X0241Y03217*
X02408Y03217*
X02407Y03218*
X02406Y03219*
X02404Y03219*
X02403Y03219*
X02402Y03219*
X024Y03219*
X02399*
X02397Y03219*
X02396Y03219*
X02395Y03219*
X02393Y03219*
X02392Y03218*
X02391Y03217*
X0239Y03217*
X02388Y03216*
X02387Y03215*
X02386Y03214*
X02385Y03213*
X02384Y03212*
X02383Y03211*
X02383Y0321*
X02382Y03209*
X02381Y03208*
X02381Y03206*
X0238Y03205*
X0238Y03204*
X0238Y03202*
X0238Y03201*
X0238Y032*
X0238Y03198*
X0238Y03197*
X0238Y03195*
X0238Y03194*
X02381Y03193*
X02381Y03191*
X02382Y0319*
X02383Y03189*
X02383Y03188*
X02384Y03187*
X02385Y03186*
X02386Y03185*
X02387Y03184*
X02388Y03183*
X0239Y03182*
X02391Y03182*
X02392Y03181*
X02393Y0318*
X02395Y0318*
X02396Y0318*
X02397Y0318*
X02399Y0318*
X024*
X02402Y0318*
X02403Y0318*
X02404Y0318*
X02406Y0318*
X02407Y03181*
X02408Y03182*
X0241Y03182*
X02411Y03183*
X02412Y03184*
X02413Y03185*
X02414Y03186*
X02415Y03187*
X02416Y03188*
X02416Y03189*
X02417Y0319*
X02418Y03191*
X02418Y03193*
X02419Y03194*
X02419Y03195*
X02419Y03197*
X02419Y03198*
X0242Y032*
X0312Y039D02*
D01*
X03119Y03901*
X03119Y03902*
X03119Y03904*
X03119Y03905*
X03118Y03906*
X03118Y03908*
X03117Y03909*
X03116Y0391*
X03116Y03911*
X03115Y03912*
X03114Y03913*
X03113Y03914*
X03112Y03915*
X03111Y03916*
X0311Y03917*
X03108Y03917*
X03107Y03918*
X03106Y03919*
X03104Y03919*
X03103Y03919*
X03102Y03919*
X031Y03919*
X03099*
X03097Y03919*
X03096Y03919*
X03095Y03919*
X03093Y03919*
X03092Y03918*
X03091Y03917*
X0309Y03917*
X03088Y03916*
X03087Y03915*
X03086Y03914*
X03085Y03913*
X03084Y03912*
X03083Y03911*
X03083Y0391*
X03082Y03909*
X03081Y03908*
X03081Y03906*
X0308Y03905*
X0308Y03904*
X0308Y03902*
X0308Y03901*
X0308Y039*
X0308Y03898*
X0308Y03897*
X0308Y03895*
X0308Y03894*
X03081Y03893*
X03081Y03891*
X03082Y0389*
X03083Y03889*
X03083Y03888*
X03084Y03887*
X03085Y03886*
X03086Y03885*
X03087Y03884*
X03088Y03883*
X0309Y03882*
X03091Y03882*
X03092Y03881*
X03093Y0388*
X03095Y0388*
X03096Y0388*
X03097Y0388*
X03099Y0388*
X031*
X03102Y0388*
X03103Y0388*
X03104Y0388*
X03106Y0388*
X03107Y03881*
X03108Y03882*
X0311Y03882*
X03111Y03883*
X03112Y03884*
X03113Y03885*
X03114Y03886*
X03115Y03887*
X03116Y03888*
X03116Y03889*
X03117Y0389*
X03118Y03891*
X03118Y03893*
X03119Y03894*
X03119Y03895*
X03119Y03897*
X03119Y03898*
X0312Y039*
Y038D02*
D01*
X03119Y03801*
X03119Y03802*
X03119Y03804*
X03119Y03805*
X03118Y03806*
X03118Y03808*
X03117Y03809*
X03116Y0381*
X03116Y03811*
X03115Y03812*
X03114Y03813*
X03113Y03814*
X03112Y03815*
X03111Y03816*
X0311Y03817*
X03108Y03817*
X03107Y03818*
X03106Y03819*
X03104Y03819*
X03103Y03819*
X03102Y03819*
X031Y03819*
X03099*
X03097Y03819*
X03096Y03819*
X03095Y03819*
X03093Y03819*
X03092Y03818*
X03091Y03817*
X0309Y03817*
X03088Y03816*
X03087Y03815*
X03086Y03814*
X03085Y03813*
X03084Y03812*
X03083Y03811*
X03083Y0381*
X03082Y03809*
X03081Y03808*
X03081Y03806*
X0308Y03805*
X0308Y03804*
X0308Y03802*
X0308Y03801*
X0308Y038*
X0308Y03798*
X0308Y03797*
X0308Y03795*
X0308Y03794*
X03081Y03793*
X03081Y03791*
X03082Y0379*
X03083Y03789*
X03083Y03788*
X03084Y03787*
X03085Y03786*
X03086Y03785*
X03087Y03784*
X03088Y03783*
X0309Y03782*
X03091Y03782*
X03092Y03781*
X03093Y0378*
X03095Y0378*
X03096Y0378*
X03097Y0378*
X03099Y0378*
X031*
X03102Y0378*
X03103Y0378*
X03104Y0378*
X03106Y0378*
X03107Y03781*
X03108Y03782*
X0311Y03782*
X03111Y03783*
X03112Y03784*
X03113Y03785*
X03114Y03786*
X03115Y03787*
X03116Y03788*
X03116Y03789*
X03117Y0379*
X03118Y03791*
X03118Y03793*
X03119Y03794*
X03119Y03795*
X03119Y03797*
X03119Y03798*
X0312Y038*
Y037D02*
D01*
X03119Y03701*
X03119Y03702*
X03119Y03704*
X03119Y03705*
X03118Y03706*
X03118Y03708*
X03117Y03709*
X03116Y0371*
X03116Y03711*
X03115Y03712*
X03114Y03713*
X03113Y03714*
X03112Y03715*
X03111Y03716*
X0311Y03717*
X03108Y03717*
X03107Y03718*
X03106Y03719*
X03104Y03719*
X03103Y03719*
X03102Y03719*
X031Y03719*
X03099*
X03097Y03719*
X03096Y03719*
X03095Y03719*
X03093Y03719*
X03092Y03718*
X03091Y03717*
X0309Y03717*
X03088Y03716*
X03087Y03715*
X03086Y03714*
X03085Y03713*
X03084Y03712*
X03083Y03711*
X03083Y0371*
X03082Y03709*
X03081Y03708*
X03081Y03706*
X0308Y03705*
X0308Y03704*
X0308Y03702*
X0308Y03701*
X0308Y037*
X0308Y03698*
X0308Y03697*
X0308Y03695*
X0308Y03694*
X03081Y03693*
X03081Y03691*
X03082Y0369*
X03083Y03689*
X03083Y03688*
X03084Y03687*
X03085Y03686*
X03086Y03685*
X03087Y03684*
X03088Y03683*
X0309Y03682*
X03091Y03682*
X03092Y03681*
X03093Y0368*
X03095Y0368*
X03096Y0368*
X03097Y0368*
X03099Y0368*
X031*
X03102Y0368*
X03103Y0368*
X03104Y0368*
X03106Y0368*
X03107Y03681*
X03108Y03682*
X0311Y03682*
X03111Y03683*
X03112Y03684*
X03113Y03685*
X03114Y03686*
X03115Y03687*
X03116Y03688*
X03116Y03689*
X03117Y0369*
X03118Y03691*
X03118Y03693*
X03119Y03694*
X03119Y03695*
X03119Y03697*
X03119Y03698*
X0312Y037*
Y036D02*
D01*
X03119Y03601*
X03119Y03602*
X03119Y03604*
X03119Y03605*
X03118Y03606*
X03118Y03608*
X03117Y03609*
X03116Y0361*
X03116Y03611*
X03115Y03612*
X03114Y03613*
X03113Y03614*
X03112Y03615*
X03111Y03616*
X0311Y03617*
X03108Y03617*
X03107Y03618*
X03106Y03619*
X03104Y03619*
X03103Y03619*
X03102Y03619*
X031Y03619*
X03099*
X03097Y03619*
X03096Y03619*
X03095Y03619*
X03093Y03619*
X03092Y03618*
X03091Y03617*
X0309Y03617*
X03088Y03616*
X03087Y03615*
X03086Y03614*
X03085Y03613*
X03084Y03612*
X03083Y03611*
X03083Y0361*
X03082Y03609*
X03081Y03608*
X03081Y03606*
X0308Y03605*
X0308Y03604*
X0308Y03602*
X0308Y03601*
X0308Y036*
X0308Y03598*
X0308Y03597*
X0308Y03595*
X0308Y03594*
X03081Y03593*
X03081Y03591*
X03082Y0359*
X03083Y03589*
X03083Y03588*
X03084Y03587*
X03085Y03586*
X03086Y03585*
X03087Y03584*
X03088Y03583*
X0309Y03582*
X03091Y03582*
X03092Y03581*
X03093Y0358*
X03095Y0358*
X03096Y0358*
X03097Y0358*
X03099Y0358*
X031*
X03102Y0358*
X03103Y0358*
X03104Y0358*
X03106Y0358*
X03107Y03581*
X03108Y03582*
X0311Y03582*
X03111Y03583*
X03112Y03584*
X03113Y03585*
X03114Y03586*
X03115Y03587*
X03116Y03588*
X03116Y03589*
X03117Y0359*
X03118Y03591*
X03118Y03593*
X03119Y03594*
X03119Y03595*
X03119Y03597*
X03119Y03598*
X0312Y036*
Y035D02*
D01*
X03119Y03501*
X03119Y03502*
X03119Y03504*
X03119Y03505*
X03118Y03506*
X03118Y03508*
X03117Y03509*
X03116Y0351*
X03116Y03511*
X03115Y03512*
X03114Y03513*
X03113Y03514*
X03112Y03515*
X03111Y03516*
X0311Y03517*
X03108Y03517*
X03107Y03518*
X03106Y03519*
X03104Y03519*
X03103Y03519*
X03102Y03519*
X031Y03519*
X03099*
X03097Y03519*
X03096Y03519*
X03095Y03519*
X03093Y03519*
X03092Y03518*
X03091Y03517*
X0309Y03517*
X03088Y03516*
X03087Y03515*
X03086Y03514*
X03085Y03513*
X03084Y03512*
X03083Y03511*
X03083Y0351*
X03082Y03509*
X03081Y03508*
X03081Y03506*
X0308Y03505*
X0308Y03504*
X0308Y03502*
X0308Y03501*
X0308Y035*
X0308Y03498*
X0308Y03497*
X0308Y03495*
X0308Y03494*
X03081Y03493*
X03081Y03491*
X03082Y0349*
X03083Y03489*
X03083Y03488*
X03084Y03487*
X03085Y03486*
X03086Y03485*
X03087Y03484*
X03088Y03483*
X0309Y03482*
X03091Y03482*
X03092Y03481*
X03093Y0348*
X03095Y0348*
X03096Y0348*
X03097Y0348*
X03099Y0348*
X031*
X03102Y0348*
X03103Y0348*
X03104Y0348*
X03106Y0348*
X03107Y03481*
X03108Y03482*
X0311Y03482*
X03111Y03483*
X03112Y03484*
X03113Y03485*
X03114Y03486*
X03115Y03487*
X03116Y03488*
X03116Y03489*
X03117Y0349*
X03118Y03491*
X03118Y03493*
X03119Y03494*
X03119Y03495*
X03119Y03497*
X03119Y03498*
X0312Y035*
Y034D02*
D01*
X03119Y03401*
X03119Y03402*
X03119Y03404*
X03119Y03405*
X03118Y03406*
X03118Y03408*
X03117Y03409*
X03116Y0341*
X03116Y03411*
X03115Y03412*
X03114Y03413*
X03113Y03414*
X03112Y03415*
X03111Y03416*
X0311Y03417*
X03108Y03417*
X03107Y03418*
X03106Y03419*
X03104Y03419*
X03103Y03419*
X03102Y03419*
X031Y03419*
X03099*
X03097Y03419*
X03096Y03419*
X03095Y03419*
X03093Y03419*
X03092Y03418*
X03091Y03417*
X0309Y03417*
X03088Y03416*
X03087Y03415*
X03086Y03414*
X03085Y03413*
X03084Y03412*
X03083Y03411*
X03083Y0341*
X03082Y03409*
X03081Y03408*
X03081Y03406*
X0308Y03405*
X0308Y03404*
X0308Y03402*
X0308Y03401*
X0308Y034*
X0308Y03398*
X0308Y03397*
X0308Y03395*
X0308Y03394*
X03081Y03393*
X03081Y03391*
X03082Y0339*
X03083Y03389*
X03083Y03388*
X03084Y03387*
X03085Y03386*
X03086Y03385*
X03087Y03384*
X03088Y03383*
X0309Y03382*
X03091Y03382*
X03092Y03381*
X03093Y0338*
X03095Y0338*
X03096Y0338*
X03097Y0338*
X03099Y0338*
X031*
X03102Y0338*
X03103Y0338*
X03104Y0338*
X03106Y0338*
X03107Y03381*
X03108Y03382*
X0311Y03382*
X03111Y03383*
X03112Y03384*
X03113Y03385*
X03114Y03386*
X03115Y03387*
X03116Y03388*
X03116Y03389*
X03117Y0339*
X03118Y03391*
X03118Y03393*
X03119Y03394*
X03119Y03395*
X03119Y03397*
X03119Y03398*
X0312Y034*
Y033D02*
D01*
X03119Y03301*
X03119Y03302*
X03119Y03304*
X03119Y03305*
X03118Y03306*
X03118Y03308*
X03117Y03309*
X03116Y0331*
X03116Y03311*
X03115Y03312*
X03114Y03313*
X03113Y03314*
X03112Y03315*
X03111Y03316*
X0311Y03317*
X03108Y03317*
X03107Y03318*
X03106Y03319*
X03104Y03319*
X03103Y03319*
X03102Y03319*
X031Y03319*
X03099*
X03097Y03319*
X03096Y03319*
X03095Y03319*
X03093Y03319*
X03092Y03318*
X03091Y03317*
X0309Y03317*
X03088Y03316*
X03087Y03315*
X03086Y03314*
X03085Y03313*
X03084Y03312*
X03083Y03311*
X03083Y0331*
X03082Y03309*
X03081Y03308*
X03081Y03306*
X0308Y03305*
X0308Y03304*
X0308Y03302*
X0308Y03301*
X0308Y033*
X0308Y03298*
X0308Y03297*
X0308Y03295*
X0308Y03294*
X03081Y03293*
X03081Y03291*
X03082Y0329*
X03083Y03289*
X03083Y03288*
X03084Y03287*
X03085Y03286*
X03086Y03285*
X03087Y03284*
X03088Y03283*
X0309Y03282*
X03091Y03282*
X03092Y03281*
X03093Y0328*
X03095Y0328*
X03096Y0328*
X03097Y0328*
X03099Y0328*
X031*
X03102Y0328*
X03103Y0328*
X03104Y0328*
X03106Y0328*
X03107Y03281*
X03108Y03282*
X0311Y03282*
X03111Y03283*
X03112Y03284*
X03113Y03285*
X03114Y03286*
X03115Y03287*
X03116Y03288*
X03116Y03289*
X03117Y0329*
X03118Y03291*
X03118Y03293*
X03119Y03294*
X03119Y03295*
X03119Y03297*
X03119Y03298*
X0312Y033*
Y032D02*
D01*
X03119Y03201*
X03119Y03202*
X03119Y03204*
X03119Y03205*
X03118Y03206*
X03118Y03208*
X03117Y03209*
X03116Y0321*
X03116Y03211*
X03115Y03212*
X03114Y03213*
X03113Y03214*
X03112Y03215*
X03111Y03216*
X0311Y03217*
X03108Y03217*
X03107Y03218*
X03106Y03219*
X03104Y03219*
X03103Y03219*
X03102Y03219*
X031Y03219*
X03099*
X03097Y03219*
X03096Y03219*
X03095Y03219*
X03093Y03219*
X03092Y03218*
X03091Y03217*
X0309Y03217*
X03088Y03216*
X03087Y03215*
X03086Y03214*
X03085Y03213*
X03084Y03212*
X03083Y03211*
X03083Y0321*
X03082Y03209*
X03081Y03208*
X03081Y03206*
X0308Y03205*
X0308Y03204*
X0308Y03202*
X0308Y03201*
X0308Y032*
X0308Y03198*
X0308Y03197*
X0308Y03195*
X0308Y03194*
X03081Y03193*
X03081Y03191*
X03082Y0319*
X03083Y03189*
X03083Y03188*
X03084Y03187*
X03085Y03186*
X03086Y03185*
X03087Y03184*
X03088Y03183*
X0309Y03182*
X03091Y03182*
X03092Y03181*
X03093Y0318*
X03095Y0318*
X03096Y0318*
X03097Y0318*
X03099Y0318*
X031*
X03102Y0318*
X03103Y0318*
X03104Y0318*
X03106Y0318*
X03107Y03181*
X03108Y03182*
X0311Y03182*
X03111Y03183*
X03112Y03184*
X03113Y03185*
X03114Y03186*
X03115Y03187*
X03116Y03188*
X03116Y03189*
X03117Y0319*
X03118Y03191*
X03118Y03193*
X03119Y03194*
X03119Y03195*
X03119Y03197*
X03119Y03198*
X0312Y032*
X0382Y039D02*
D01*
X03819Y03901*
X03819Y03902*
X03819Y03904*
X03819Y03905*
X03818Y03906*
X03818Y03908*
X03817Y03909*
X03816Y0391*
X03816Y03911*
X03815Y03912*
X03814Y03913*
X03813Y03914*
X03812Y03915*
X03811Y03916*
X0381Y03917*
X03808Y03917*
X03807Y03918*
X03806Y03919*
X03804Y03919*
X03803Y03919*
X03802Y03919*
X038Y03919*
X03799*
X03797Y03919*
X03796Y03919*
X03795Y03919*
X03793Y03919*
X03792Y03918*
X03791Y03917*
X0379Y03917*
X03788Y03916*
X03787Y03915*
X03786Y03914*
X03785Y03913*
X03784Y03912*
X03783Y03911*
X03783Y0391*
X03782Y03909*
X03781Y03908*
X03781Y03906*
X0378Y03905*
X0378Y03904*
X0378Y03902*
X0378Y03901*
X0378Y039*
X0378Y03898*
X0378Y03897*
X0378Y03895*
X0378Y03894*
X03781Y03893*
X03781Y03891*
X03782Y0389*
X03783Y03889*
X03783Y03888*
X03784Y03887*
X03785Y03886*
X03786Y03885*
X03787Y03884*
X03788Y03883*
X0379Y03882*
X03791Y03882*
X03792Y03881*
X03793Y0388*
X03795Y0388*
X03796Y0388*
X03797Y0388*
X03799Y0388*
X038*
X03802Y0388*
X03803Y0388*
X03804Y0388*
X03806Y0388*
X03807Y03881*
X03808Y03882*
X0381Y03882*
X03811Y03883*
X03812Y03884*
X03813Y03885*
X03814Y03886*
X03815Y03887*
X03816Y03888*
X03816Y03889*
X03817Y0389*
X03818Y03891*
X03818Y03893*
X03819Y03894*
X03819Y03895*
X03819Y03897*
X03819Y03898*
X0382Y039*
Y038D02*
D01*
X03819Y03801*
X03819Y03802*
X03819Y03804*
X03819Y03805*
X03818Y03806*
X03818Y03808*
X03817Y03809*
X03816Y0381*
X03816Y03811*
X03815Y03812*
X03814Y03813*
X03813Y03814*
X03812Y03815*
X03811Y03816*
X0381Y03817*
X03808Y03817*
X03807Y03818*
X03806Y03819*
X03804Y03819*
X03803Y03819*
X03802Y03819*
X038Y03819*
X03799*
X03797Y03819*
X03796Y03819*
X03795Y03819*
X03793Y03819*
X03792Y03818*
X03791Y03817*
X0379Y03817*
X03788Y03816*
X03787Y03815*
X03786Y03814*
X03785Y03813*
X03784Y03812*
X03783Y03811*
X03783Y0381*
X03782Y03809*
X03781Y03808*
X03781Y03806*
X0378Y03805*
X0378Y03804*
X0378Y03802*
X0378Y03801*
X0378Y038*
X0378Y03798*
X0378Y03797*
X0378Y03795*
X0378Y03794*
X03781Y03793*
X03781Y03791*
X03782Y0379*
X03783Y03789*
X03783Y03788*
X03784Y03787*
X03785Y03786*
X03786Y03785*
X03787Y03784*
X03788Y03783*
X0379Y03782*
X03791Y03782*
X03792Y03781*
X03793Y0378*
X03795Y0378*
X03796Y0378*
X03797Y0378*
X03799Y0378*
X038*
X03802Y0378*
X03803Y0378*
X03804Y0378*
X03806Y0378*
X03807Y03781*
X03808Y03782*
X0381Y03782*
X03811Y03783*
X03812Y03784*
X03813Y03785*
X03814Y03786*
X03815Y03787*
X03816Y03788*
X03816Y03789*
X03817Y0379*
X03818Y03791*
X03818Y03793*
X03819Y03794*
X03819Y03795*
X03819Y03797*
X03819Y03798*
X0382Y038*
Y037D02*
D01*
X03819Y03701*
X03819Y03702*
X03819Y03704*
X03819Y03705*
X03818Y03706*
X03818Y03708*
X03817Y03709*
X03816Y0371*
X03816Y03711*
X03815Y03712*
X03814Y03713*
X03813Y03714*
X03812Y03715*
X03811Y03716*
X0381Y03717*
X03808Y03717*
X03807Y03718*
X03806Y03719*
X03804Y03719*
X03803Y03719*
X03802Y03719*
X038Y03719*
X03799*
X03797Y03719*
X03796Y03719*
X03795Y03719*
X03793Y03719*
X03792Y03718*
X03791Y03717*
X0379Y03717*
X03788Y03716*
X03787Y03715*
X03786Y03714*
X03785Y03713*
X03784Y03712*
X03783Y03711*
X03783Y0371*
X03782Y03709*
X03781Y03708*
X03781Y03706*
X0378Y03705*
X0378Y03704*
X0378Y03702*
X0378Y03701*
X0378Y037*
X0378Y03698*
X0378Y03697*
X0378Y03695*
X0378Y03694*
X03781Y03693*
X03781Y03691*
X03782Y0369*
X03783Y03689*
X03783Y03688*
X03784Y03687*
X03785Y03686*
X03786Y03685*
X03787Y03684*
X03788Y03683*
X0379Y03682*
X03791Y03682*
X03792Y03681*
X03793Y0368*
X03795Y0368*
X03796Y0368*
X03797Y0368*
X03799Y0368*
X038*
X03802Y0368*
X03803Y0368*
X03804Y0368*
X03806Y0368*
X03807Y03681*
X03808Y03682*
X0381Y03682*
X03811Y03683*
X03812Y03684*
X03813Y03685*
X03814Y03686*
X03815Y03687*
X03816Y03688*
X03816Y03689*
X03817Y0369*
X03818Y03691*
X03818Y03693*
X03819Y03694*
X03819Y03695*
X03819Y03697*
X03819Y03698*
X0382Y037*
Y036D02*
D01*
X03819Y03601*
X03819Y03602*
X03819Y03604*
X03819Y03605*
X03818Y03606*
X03818Y03608*
X03817Y03609*
X03816Y0361*
X03816Y03611*
X03815Y03612*
X03814Y03613*
X03813Y03614*
X03812Y03615*
X03811Y03616*
X0381Y03617*
X03808Y03617*
X03807Y03618*
X03806Y03619*
X03804Y03619*
X03803Y03619*
X03802Y03619*
X038Y03619*
X03799*
X03797Y03619*
X03796Y03619*
X03795Y03619*
X03793Y03619*
X03792Y03618*
X03791Y03617*
X0379Y03617*
X03788Y03616*
X03787Y03615*
X03786Y03614*
X03785Y03613*
X03784Y03612*
X03783Y03611*
X03783Y0361*
X03782Y03609*
X03781Y03608*
X03781Y03606*
X0378Y03605*
X0378Y03604*
X0378Y03602*
X0378Y03601*
X0378Y036*
X0378Y03598*
X0378Y03597*
X0378Y03595*
X0378Y03594*
X03781Y03593*
X03781Y03591*
X03782Y0359*
X03783Y03589*
X03783Y03588*
X03784Y03587*
X03785Y03586*
X03786Y03585*
X03787Y03584*
X03788Y03583*
X0379Y03582*
X03791Y03582*
X03792Y03581*
X03793Y0358*
X03795Y0358*
X03796Y0358*
X03797Y0358*
X03799Y0358*
X038*
X03802Y0358*
X03803Y0358*
X03804Y0358*
X03806Y0358*
X03807Y03581*
X03808Y03582*
X0381Y03582*
X03811Y03583*
X03812Y03584*
X03813Y03585*
X03814Y03586*
X03815Y03587*
X03816Y03588*
X03816Y03589*
X03817Y0359*
X03818Y03591*
X03818Y03593*
X03819Y03594*
X03819Y03595*
X03819Y03597*
X03819Y03598*
X0382Y036*
Y035D02*
D01*
X03819Y03501*
X03819Y03502*
X03819Y03504*
X03819Y03505*
X03818Y03506*
X03818Y03508*
X03817Y03509*
X03816Y0351*
X03816Y03511*
X03815Y03512*
X03814Y03513*
X03813Y03514*
X03812Y03515*
X03811Y03516*
X0381Y03517*
X03808Y03517*
X03807Y03518*
X03806Y03519*
X03804Y03519*
X03803Y03519*
X03802Y03519*
X038Y03519*
X03799*
X03797Y03519*
X03796Y03519*
X03795Y03519*
X03793Y03519*
X03792Y03518*
X03791Y03517*
X0379Y03517*
X03788Y03516*
X03787Y03515*
X03786Y03514*
X03785Y03513*
X03784Y03512*
X03783Y03511*
X03783Y0351*
X03782Y03509*
X03781Y03508*
X03781Y03506*
X0378Y03505*
X0378Y03504*
X0378Y03502*
X0378Y03501*
X0378Y035*
X0378Y03498*
X0378Y03497*
X0378Y03495*
X0378Y03494*
X03781Y03493*
X03781Y03491*
X03782Y0349*
X03783Y03489*
X03783Y03488*
X03784Y03487*
X03785Y03486*
X03786Y03485*
X03787Y03484*
X03788Y03483*
X0379Y03482*
X03791Y03482*
X03792Y03481*
X03793Y0348*
X03795Y0348*
X03796Y0348*
X03797Y0348*
X03799Y0348*
X038*
X03802Y0348*
X03803Y0348*
X03804Y0348*
X03806Y0348*
X03807Y03481*
X03808Y03482*
X0381Y03482*
X03811Y03483*
X03812Y03484*
X03813Y03485*
X03814Y03486*
X03815Y03487*
X03816Y03488*
X03816Y03489*
X03817Y0349*
X03818Y03491*
X03818Y03493*
X03819Y03494*
X03819Y03495*
X03819Y03497*
X03819Y03498*
X0382Y035*
Y034D02*
D01*
X03819Y03401*
X03819Y03402*
X03819Y03404*
X03819Y03405*
X03818Y03406*
X03818Y03408*
X03817Y03409*
X03816Y0341*
X03816Y03411*
X03815Y03412*
X03814Y03413*
X03813Y03414*
X03812Y03415*
X03811Y03416*
X0381Y03417*
X03808Y03417*
X03807Y03418*
X03806Y03419*
X03804Y03419*
X03803Y03419*
X03802Y03419*
X038Y03419*
X03799*
X03797Y03419*
X03796Y03419*
X03795Y03419*
X03793Y03419*
X03792Y03418*
X03791Y03417*
X0379Y03417*
X03788Y03416*
X03787Y03415*
X03786Y03414*
X03785Y03413*
X03784Y03412*
X03783Y03411*
X03783Y0341*
X03782Y03409*
X03781Y03408*
X03781Y03406*
X0378Y03405*
X0378Y03404*
X0378Y03402*
X0378Y03401*
X0378Y034*
X0378Y03398*
X0378Y03397*
X0378Y03395*
X0378Y03394*
X03781Y03393*
X03781Y03391*
X03782Y0339*
X03783Y03389*
X03783Y03388*
X03784Y03387*
X03785Y03386*
X03786Y03385*
X03787Y03384*
X03788Y03383*
X0379Y03382*
X03791Y03382*
X03792Y03381*
X03793Y0338*
X03795Y0338*
X03796Y0338*
X03797Y0338*
X03799Y0338*
X038*
X03802Y0338*
X03803Y0338*
X03804Y0338*
X03806Y0338*
X03807Y03381*
X03808Y03382*
X0381Y03382*
X03811Y03383*
X03812Y03384*
X03813Y03385*
X03814Y03386*
X03815Y03387*
X03816Y03388*
X03816Y03389*
X03817Y0339*
X03818Y03391*
X03818Y03393*
X03819Y03394*
X03819Y03395*
X03819Y03397*
X03819Y03398*
X0382Y034*
Y033D02*
D01*
X03819Y03301*
X03819Y03302*
X03819Y03304*
X03819Y03305*
X03818Y03306*
X03818Y03308*
X03817Y03309*
X03816Y0331*
X03816Y03311*
X03815Y03312*
X03814Y03313*
X03813Y03314*
X03812Y03315*
X03811Y03316*
X0381Y03317*
X03808Y03317*
X03807Y03318*
X03806Y03319*
X03804Y03319*
X03803Y03319*
X03802Y03319*
X038Y03319*
X03799*
X03797Y03319*
X03796Y03319*
X03795Y03319*
X03793Y03319*
X03792Y03318*
X03791Y03317*
X0379Y03317*
X03788Y03316*
X03787Y03315*
X03786Y03314*
X03785Y03313*
X03784Y03312*
X03783Y03311*
X03783Y0331*
X03782Y03309*
X03781Y03308*
X03781Y03306*
X0378Y03305*
X0378Y03304*
X0378Y03302*
X0378Y03301*
X0378Y033*
X0378Y03298*
X0378Y03297*
X0378Y03295*
X0378Y03294*
X03781Y03293*
X03781Y03291*
X03782Y0329*
X03783Y03289*
X03783Y03288*
X03784Y03287*
X03785Y03286*
X03786Y03285*
X03787Y03284*
X03788Y03283*
X0379Y03282*
X03791Y03282*
X03792Y03281*
X03793Y0328*
X03795Y0328*
X03796Y0328*
X03797Y0328*
X03799Y0328*
X038*
X03802Y0328*
X03803Y0328*
X03804Y0328*
X03806Y0328*
X03807Y03281*
X03808Y03282*
X0381Y03282*
X03811Y03283*
X03812Y03284*
X03813Y03285*
X03814Y03286*
X03815Y03287*
X03816Y03288*
X03816Y03289*
X03817Y0329*
X03818Y03291*
X03818Y03293*
X03819Y03294*
X03819Y03295*
X03819Y03297*
X03819Y03298*
X0382Y033*
Y032D02*
D01*
X03819Y03201*
X03819Y03202*
X03819Y03204*
X03819Y03205*
X03818Y03206*
X03818Y03208*
X03817Y03209*
X03816Y0321*
X03816Y03211*
X03815Y03212*
X03814Y03213*
X03813Y03214*
X03812Y03215*
X03811Y03216*
X0381Y03217*
X03808Y03217*
X03807Y03218*
X03806Y03219*
X03804Y03219*
X03803Y03219*
X03802Y03219*
X038Y03219*
X03799*
X03797Y03219*
X03796Y03219*
X03795Y03219*
X03793Y03219*
X03792Y03218*
X03791Y03217*
X0379Y03217*
X03788Y03216*
X03787Y03215*
X03786Y03214*
X03785Y03213*
X03784Y03212*
X03783Y03211*
X03783Y0321*
X03782Y03209*
X03781Y03208*
X03781Y03206*
X0378Y03205*
X0378Y03204*
X0378Y03202*
X0378Y03201*
X0378Y032*
X0378Y03198*
X0378Y03197*
X0378Y03195*
X0378Y03194*
X03781Y03193*
X03781Y03191*
X03782Y0319*
X03783Y03189*
X03783Y03188*
X03784Y03187*
X03785Y03186*
X03786Y03185*
X03787Y03184*
X03788Y03183*
X0379Y03182*
X03791Y03182*
X03792Y03181*
X03793Y0318*
X03795Y0318*
X03796Y0318*
X03797Y0318*
X03799Y0318*
X038*
X03802Y0318*
X03803Y0318*
X03804Y0318*
X03806Y0318*
X03807Y03181*
X03808Y03182*
X0381Y03182*
X03811Y03183*
X03812Y03184*
X03813Y03185*
X03814Y03186*
X03815Y03187*
X03816Y03188*
X03816Y03189*
X03817Y0319*
X03818Y03191*
X03818Y03193*
X03819Y03194*
X03819Y03195*
X03819Y03197*
X03819Y03198*
X0382Y032*
G54D76*
X02819Y00564D02*
Y00623D01*
X02789Y00594*
X02829*
X02849Y00613D02*
X02859Y00623D01*
X02879*
X02889Y00613*
Y00574*
X02879Y00564*
X02859*
X02849Y00574*
Y00613*
X02909D02*
X02919Y00623D01*
X02939*
X02949Y00613*
Y00574*
X02939Y00564*
X02919*
X02909Y00574*
Y00613*
X02969D02*
X02979Y00623D01*
X02999*
X03008Y00613*
Y00574*
X02999Y00564*
X02979*
X02969Y00574*
Y00613*
X03028Y00564D02*
Y00574D01*
X03038*
Y00564*
X03028*
X03078Y00613D02*
X03088Y00623D01*
X03108*
X03118Y00613*
Y00574*
X03108Y00564*
X03088*
X03078Y00574*
Y00613*
X03138D02*
X03148Y00623D01*
X03168*
X03178Y00613*
Y00574*
X03168Y00564*
X03148*
X03138Y00574*
Y00613*
X00835Y02819D02*
X00776D01*
X00806Y02789*
Y02829*
X00786Y02849D02*
X00776Y02859D01*
Y02879*
X00786Y02889*
X00825*
X00835Y02879*
Y02859*
X00825Y02849*
X00786*
Y02909D02*
X00776Y02919D01*
Y02939*
X00786Y02949*
X00825*
X00835Y02939*
Y02919*
X00825Y02909*
X00786*
Y02969D02*
X00776Y02979D01*
Y02999*
X00786Y03008*
X00825*
X00835Y02999*
Y02979*
X00825Y02969*
X00786*
X00835Y03028D02*
X00825D01*
Y03038*
X00835*
Y03028*
X00786Y03078D02*
X00776Y03088D01*
Y03108*
X00786Y03118*
X00825*
X00835Y03108*
Y03088*
X00825Y03078*
X00786*
Y03138D02*
X00776Y03148D01*
Y03168*
X00786Y03178*
X00825*
X00835Y03168*
Y03148*
X00825Y03138*
X00786*
M02*