%FSTAX23Y23*%
%MOIN*%
%SFA1B1*%

%IPPOS*%
%AMD29*
4,1,8,0.042500,-0.015000,0.042500,0.015000,0.027500,0.030000,-0.027500,0.030000,-0.042500,0.015000,-0.042500,-0.015000,-0.027500,-0.030000,0.027500,-0.030000,0.042500,-0.015000,0.0*
%
%AMD30*
4,1,8,-0.015000,-0.042500,0.015000,-0.042500,0.030000,-0.027500,0.030000,0.027500,0.015000,0.042500,-0.015000,0.042500,-0.030000,0.027500,-0.030000,-0.027500,-0.015000,-0.042500,0.0*
%
%ADD10R,0.033470X0.055120*%
%ADD11R,0.039370X0.013780*%
%ADD12R,0.055120X0.033470*%
%ADD13O,0.021650X0.059060*%
%ADD14R,0.021650X0.059060*%
%ADD15R,0.059060X0.023620*%
%ADD16R,0.051180X0.045280*%
%ADD17R,0.059060X0.051180*%
%ADD18R,0.051180X0.059060*%
%ADD19R,0.110240X0.037400*%
%ADD20R,0.047240X0.137800*%
%ADD21R,0.015980X0.059060*%
%ADD22R,0.059060X0.015980*%
%ADD23R,0.120470X0.035040*%
%ADD24R,0.336220X0.210630*%
%ADD25R,0.039370X0.043310*%
%ADD26C,0.010000*%
%ADD27R,0.064960X0.064960*%
%ADD28C,0.064960*%
G04~CAMADD=29~4~0.0~0.0~600.0~850.0~0.0~150.0~0~0.0~0.0~0.0~0.0~0~0.0~0.0~0.0~0.0~0~0.0~0.0~0.0~270.0~850.0~600.0*
%ADD29D29*%
G04~CAMADD=30~4~0.0~0.0~600.0~850.0~0.0~150.0~0~0.0~0.0~0.0~0.0~0~0.0~0.0~0.0~0.0~0~0.0~0.0~0.0~180.0~600.0~850.0*
%ADD30D30*%
%ADD31C,0.080000*%
%ADD32C,0.100000*%
%ADD33C,0.030000*%
%ADD34C,0.400000*%
%ADD35C,0.050000*%
%LNledcube-1*%
%LPD*%
G36*
X0273Y02989D02*
Y02884D01*
Y02873*
X0272Y02863*
X02532*
X02505Y0289*
X02501Y02892*
X02497Y02893*
X02474*
Y02909*
X02442*
Y02882*
Y02855*
X02474*
Y02871*
X02492*
X02515Y02848*
X0251Y02842*
X0167*
Y02821*
X01669Y0282*
X01662*
Y02813*
X01658Y02809*
X01657*
X01653Y02808*
X01649Y02805*
X01649*
X01641Y02797*
X01637Y02799*
Y02808*
X01504*
Y0279*
X015*
X0148Y0281*
Y02978*
Y02989*
X015Y0301*
X0271*
X0273Y02989*
G37*
G36*
X0349Y02632D02*
X03485Y0263D01*
X03463Y02652*
Y02701*
X03475*
Y02768*
X03429*
Y02702*
X03424Y027*
X03395Y0273*
X03372*
Y02697*
X03394*
X03396Y02698*
X03425Y02669*
Y0262*
X03425Y02616*
X03428Y02612*
X03433Y02608*
X0343Y02603*
X03426Y02604*
X03409*
Y02668*
X0335*
Y02604*
X03323*
X03318Y02603*
X03315Y02601*
X03295Y02581*
X03255*
Y02609*
X03204*
Y02553*
X03255*
Y02558*
X033*
X03304Y02559*
X03307Y02562*
X03327Y02582*
X0335*
Y02518*
X03409*
Y02582*
X03422*
X0349Y02514*
Y02495*
X03414Y0242*
X03409Y02422*
Y02451*
X0335*
Y02387*
X03327*
X0331Y02405*
X03306Y02407*
X03302Y02408*
X03255*
Y02416*
X03204*
Y0236*
X03255*
Y02386*
X03298*
X03315Y02368*
X03318Y02366*
X03323Y02365*
X0335*
Y02301*
X03409*
Y02383*
X03485Y02459*
X0349Y02457*
Y02437*
X03476*
X03472Y02436*
X03468Y02434*
Y02434*
X03432Y02397*
X03429Y02394*
X03428Y0239*
X03428*
Y0228*
X03301*
Y02315*
X03301*
X033Y02319*
X03297Y02322*
X03291Y02329*
X03287Y02331*
X03283Y02332*
X03259*
Y02353*
X03235*
Y02321*
Y02289*
X03259*
Y0231*
X03278*
Y0228*
X031*
Y02637*
X032*
Y02616*
X03225*
Y02648*
Y0268*
X032*
Y02659*
X031*
Y0278*
X0349*
Y02632*
G37*
G36*
X0156Y02536D02*
X01559Y02535D01*
X0156Y0253*
X01563Y02527*
X01566Y02524*
X01571Y02523*
X01656*
X0166Y0252*
Y02514*
X01658*
Y02492*
X01696*
Y02482*
X01658*
Y0246*
X0166*
Y0244*
Y0206*
X0165Y0205*
X016Y02*
X0115*
X0114Y0201*
Y0224*
X0115Y0225*
X0156*
X0157Y0226*
Y0247*
X0156Y0248*
X0151*
X015Y0249*
Y0253*
X0151Y0254*
X01556*
X0156Y02536*
G37*
%LNledcube-2*%
%LPC*%
G36*
X02341Y02877D02*
X02308D01*
Y02855*
X02341*
Y02877*
G37*
G36*
X02383D02*
X02351D01*
Y02855*
X02383*
Y02877*
G37*
G36*
X0225D02*
X02217D01*
Y02855*
X0225*
Y02877*
G37*
G36*
X02292D02*
X0226D01*
Y02855*
X02292*
Y02877*
G37*
G36*
X0178Y02877D02*
X01747D01*
Y02855*
X0178*
Y02877*
G37*
G36*
X01822D02*
X0179D01*
Y02855*
X01822*
Y02877*
G37*
G36*
X01691D02*
X01658D01*
Y02855*
X01691*
Y02877*
G37*
G36*
X01733D02*
X01701D01*
Y02855*
X01733*
Y02877*
G37*
G36*
X02201Y02877D02*
X02169D01*
Y02855*
X02201*
Y02877*
G37*
G36*
X03362Y02772D02*
X0334D01*
Y02746*
X03325*
X0332Y02745*
X03317Y02742*
X03292Y02717*
X03289Y02714*
X03288Y0271*
Y02684*
X03272Y02668*
X03259*
Y0268*
X03235*
Y02648*
Y02616*
X03259*
Y02646*
X03277*
X03281Y02646*
X03285Y02649*
X03307Y02672*
X0331Y02675*
X03311Y0268*
X03311*
Y02705*
X03329Y02723*
X0334*
Y02697*
X03362*
Y02735*
Y02772*
G37*
G36*
X03394D02*
X03372D01*
Y0274*
X03394*
Y02772*
G37*
G36*
X03225Y02316D02*
X032D01*
Y02289*
X03225*
Y02316*
G37*
G36*
Y02353D02*
X032D01*
Y02326*
X03225*
Y02353*
G37*
G36*
X02041Y02875D02*
X0198D01*
Y02852*
X02041*
Y02875*
G37*
G36*
X01967Y02876D02*
X01907D01*
Y02852*
X01967*
Y02876*
G37*
G36*
X02159Y02877D02*
X02126D01*
Y02855*
X02159*
Y02877*
G37*
G36*
X02111Y02875D02*
X02051D01*
Y02852*
X02111*
Y02875*
G37*
G36*
X01897Y02876D02*
X01836D01*
Y02852*
X01897*
Y02876*
G37*
G36*
X01691Y02909D02*
X01658D01*
Y02887*
X01691*
Y02909*
G37*
G36*
X01733D02*
X01701D01*
Y02887*
X01733*
Y02909*
G37*
G36*
X02383Y02909D02*
X02351D01*
Y02887*
X02383*
Y02909*
G37*
G36*
X02292D02*
X0226D01*
Y02887*
X02292*
Y02909*
G37*
G36*
X02341D02*
X02308D01*
Y02887*
X02341*
Y02909*
G37*
G36*
X02695Y02951D02*
X02691Y0295D01*
X02684Y02946*
X0268Y02939*
X02678Y02931*
Y02917*
X02695*
Y02951*
G37*
G36*
X02705D02*
Y02917D01*
X02721*
Y02931*
X02719Y02939*
X02715Y02946*
X02708Y0295*
X02705Y02951*
G37*
G36*
X02432Y02909D02*
X02399D01*
Y02887*
X02432*
Y02909*
G37*
G36*
X0178D02*
X01747D01*
Y02887*
X0178*
Y02909*
G37*
G36*
X01822D02*
X0179D01*
Y02887*
X01822*
Y02909*
G37*
G36*
X02041Y02909D02*
X0198D01*
Y02885*
X02041*
Y02909*
G37*
G36*
X02111D02*
X02051D01*
Y02885*
X02111*
Y02909*
G37*
G36*
X02721Y02907D02*
X02705D01*
Y02873*
X02708Y02874*
X02715Y02878*
X02719Y02885*
X02721Y02893*
Y02907*
G37*
G36*
X02432Y02877D02*
X02399D01*
Y02855*
X02432*
Y02877*
G37*
G36*
X02695Y02907D02*
X02678D01*
Y02893*
X0268Y02885*
X02684Y02878*
X02691Y02874*
X02695Y02873*
Y02907*
G37*
G36*
X02201Y02909D02*
X02169D01*
Y02887*
X02201*
Y02909*
G37*
G36*
X0225D02*
X02217D01*
Y02887*
X0225*
Y02909*
G37*
G36*
X02159D02*
X02126D01*
Y02887*
X02159*
Y02909*
G37*
G36*
X01897Y0291D02*
X01836D01*
Y02886*
X01897*
Y0291*
G37*
G36*
X01967D02*
X01907D01*
Y02886*
X01967*
Y0291*
G37*
%LNledcube-3*%
%LPD*%
G54D10*
X01584Y049D03*
X015D03*
X01584Y0482D03*
X015D03*
X01584Y0474D03*
X015D03*
X01584Y0466D03*
X015D03*
X01584Y0458D03*
X015D03*
X01584Y045D03*
X015D03*
X01584Y0442D03*
X015D03*
X01582Y0389D03*
X01497D03*
X01582Y0365D03*
X01497D03*
X01582Y0381D03*
X01497D03*
X01582Y0373D03*
X01497D03*
X02284Y039D03*
X022D03*
X02284Y0382D03*
X022D03*
X02284Y0374D03*
X022D03*
X02284Y0366D03*
X022D03*
X02284Y0358D03*
X022D03*
X02284Y035D03*
X022D03*
X02284Y0342D03*
X022D03*
X01582Y0333D03*
X01497D03*
X02284Y0334D03*
X022D03*
X02984Y039D03*
X029D03*
X02984Y0382D03*
X029D03*
X02984Y0374D03*
X029D03*
X02984Y0366D03*
X029D03*
X02984Y0358D03*
X029D03*
X02984Y035D03*
X029D03*
X02984Y0342D03*
X029D03*
X02984Y0334D03*
X029D03*
X03684Y039D03*
X036D03*
X03684Y0382D03*
X036D03*
X03684Y0374D03*
X036D03*
X03684Y0366D03*
X036D03*
X03684Y0358D03*
X036D03*
X03684Y035D03*
X036D03*
X03684Y0342D03*
X036D03*
X03684Y0334D03*
X036D03*
X03047Y012D03*
X03132D03*
X04627Y04458D03*
X04712D03*
X04627Y04157D03*
X04712D03*
X04627Y03855D03*
X04712D03*
X04627Y03554D03*
X04712D03*
X04627Y03252D03*
X04712D03*
X04627Y02951D03*
X04712D03*
X04627Y0265D03*
X04712D03*
X04392Y0471D03*
X04307D03*
X04392Y048D03*
X04307D03*
X04392Y0441D03*
X04307D03*
X04392Y045D03*
X04307D03*
X04392Y0411D03*
X04307D03*
X04392Y042D03*
X04307D03*
X04392Y0381D03*
X04307D03*
X04392Y039D03*
X04307D03*
X04392Y0351D03*
X04307D03*
X04392Y036D03*
X04307D03*
X04392Y0321D03*
X04307D03*
X04392Y033D03*
X04307D03*
X04392Y0291D03*
X04307D03*
X04392Y03D03*
X04307D03*
X04392Y0261D03*
X04307D03*
X04392Y027D03*
X04307D03*
X01582Y0341D03*
X01497D03*
X01582Y0349D03*
X01497D03*
X01582Y0357D03*
X01497D03*
X03684Y0434D03*
X036D03*
X02984D03*
X029D03*
X02284D03*
X022D03*
X01584D03*
X015D03*
X03684Y0442D03*
X036D03*
X02984D03*
X029D03*
X02284D03*
X022D03*
X03684Y045D03*
X036D03*
X02984D03*
X029D03*
X02284D03*
X022D03*
X03684Y0458D03*
X036D03*
X02984D03*
X029D03*
X02284D03*
X022D03*
X03684Y0466D03*
X036D03*
X02984D03*
X029D03*
X02284D03*
X022D03*
X03684Y0474D03*
X036D03*
X02984D03*
X029D03*
X02284D03*
X022D03*
X03684Y0482D03*
X036D03*
X02984D03*
X029D03*
X02284D03*
X022D03*
X03684Y049D03*
X036D03*
X02984D03*
X029D03*
X02284D03*
X022D03*
X03452Y02735D03*
X03367D03*
X03227Y018D03*
X03312D03*
X03377Y0189D03*
X03462D03*
X03227D03*
X03312D03*
X03742Y0223D03*
X03827D03*
X01532Y02409D03*
X01617D03*
X01532Y02321D03*
X01617D03*
X01462Y02408D03*
X01377D03*
X03832Y0289D03*
X03747D03*
X04627Y0476D03*
X04712D03*
X02342Y024D03*
X02257D03*
G54D11*
X02818Y03715D03*
Y03689D03*
Y03663D03*
Y03638D03*
Y03612D03*
Y03587D03*
Y03561D03*
Y03536D03*
Y0351D03*
Y03484D03*
X02581D03*
Y0351D03*
Y03536D03*
Y03561D03*
Y03587D03*
Y03612D03*
Y03638D03*
Y03663D03*
Y03689D03*
Y03715D03*
X03518D03*
Y03689D03*
Y03663D03*
Y03638D03*
Y03612D03*
Y03587D03*
Y03561D03*
Y03536D03*
Y0351D03*
Y03484D03*
X03281D03*
Y0351D03*
Y03536D03*
Y03561D03*
Y03587D03*
Y03612D03*
Y03638D03*
Y03663D03*
Y03689D03*
Y03715D03*
X01418D03*
Y03689D03*
Y03663D03*
Y03638D03*
Y03612D03*
Y03587D03*
Y03561D03*
Y03536D03*
Y0351D03*
Y03484D03*
X01181D03*
Y0351D03*
Y03536D03*
Y03561D03*
Y03587D03*
Y03612D03*
Y03638D03*
Y03663D03*
Y03689D03*
Y03715D03*
X03518Y04715D03*
Y04689D03*
Y04663D03*
Y04638D03*
Y04612D03*
Y04587D03*
Y04561D03*
Y04536D03*
Y0451D03*
Y04484D03*
X03281D03*
Y0451D03*
Y04536D03*
Y04561D03*
Y04587D03*
Y04612D03*
Y04638D03*
Y04663D03*
Y04689D03*
Y04715D03*
X02818D03*
Y04689D03*
Y04663D03*
Y04638D03*
Y04612D03*
Y04587D03*
Y04561D03*
Y04536D03*
Y0451D03*
Y04484D03*
X02581D03*
Y0451D03*
Y04536D03*
Y04561D03*
Y04587D03*
Y04612D03*
Y04638D03*
Y04663D03*
Y04689D03*
Y04715D03*
X02118D03*
Y04689D03*
Y04663D03*
Y04638D03*
Y04612D03*
Y04587D03*
Y04561D03*
Y04536D03*
Y0451D03*
Y04484D03*
X01881D03*
Y0451D03*
Y04536D03*
Y04561D03*
Y04587D03*
Y04612D03*
Y04638D03*
Y04663D03*
Y04689D03*
Y04715D03*
X01418D03*
Y04689D03*
Y04663D03*
Y04638D03*
Y04612D03*
Y04587D03*
Y04561D03*
Y04536D03*
Y0451D03*
Y04484D03*
X01181D03*
Y0451D03*
Y04536D03*
Y04561D03*
Y04587D03*
Y04612D03*
Y04638D03*
Y04663D03*
Y04689D03*
Y04715D03*
X02118Y03715D03*
Y03689D03*
Y03663D03*
Y03638D03*
Y03612D03*
Y03587D03*
Y03561D03*
Y03536D03*
Y0351D03*
Y03484D03*
X01881D03*
Y0351D03*
Y03536D03*
Y03561D03*
Y03587D03*
Y03612D03*
Y03638D03*
Y03663D03*
Y03689D03*
Y03715D03*
G54D12*
X0277Y01528D03*
Y01612D03*
X0319D03*
Y01528D03*
X041Y02512D03*
Y02597D03*
X02437Y02882D03*
Y02797D03*
X02346Y02882D03*
Y02797D03*
X0295Y01922D03*
Y01837D03*
X0268Y01922D03*
Y01837D03*
X01696Y02572D03*
Y02487D03*
X01785Y02572D03*
Y02487D03*
X01696Y02642D03*
Y02727D03*
X01785D03*
Y02642D03*
X02164Y02882D03*
Y02797D03*
X02255Y02882D03*
Y02797D03*
X01696Y02882D03*
Y02797D03*
X01785Y02882D03*
Y02797D03*
G54D13*
X0305Y02912D03*
X03D03*
X0295D03*
X029D03*
X0285D03*
X028D03*
X0275D03*
X027D03*
X0305Y027D03*
X03D03*
X0295D03*
X029D03*
X0285D03*
X028D03*
X0275D03*
X0329Y0201D03*
X0334D03*
X0339D03*
X0344D03*
X0349D03*
X0354D03*
X0359D03*
X0324Y02222D03*
X0329D03*
X0334D03*
X0339D03*
X0344D03*
X0349D03*
X0354D03*
X0359D03*
G54D14*
X027Y027D03*
X0324Y0201D03*
G54D15*
X04545Y0483D03*
X04474Y04792D03*
Y04867D03*
X04545Y0438D03*
X04474Y04342D03*
Y04417D03*
X04545Y0453D03*
X04474Y04492D03*
Y04567D03*
X04545Y0408D03*
X04474Y04042D03*
Y04117D03*
X04545Y0423D03*
X04474Y04192D03*
Y04267D03*
X04545Y0378D03*
X04474Y03742D03*
Y03817D03*
X04545Y0393D03*
X04474Y03892D03*
Y03967D03*
X04545Y0348D03*
X04474Y03442D03*
Y03517D03*
X04545Y0363D03*
X04474Y03592D03*
Y03667D03*
X04545Y0318D03*
X04474Y03142D03*
Y03217D03*
X04545Y0333D03*
X04474Y03292D03*
Y03367D03*
X04545Y0288D03*
X04474Y02842D03*
Y02917D03*
X04545Y0303D03*
X04474Y02992D03*
Y03067D03*
X04545Y0258D03*
X04474Y02542D03*
Y02617D03*
X04545Y0273D03*
X04474Y02692D03*
Y02767D03*
X04545Y0468D03*
X04474Y04642D03*
Y04717D03*
G54D16*
X03105Y01609D03*
Y0153D03*
X0304Y01919D03*
Y0184D03*
X02764Y01919D03*
Y0184D03*
X0268Y01609D03*
Y0153D03*
G54D17*
X011Y04637D03*
Y04562D03*
X018Y04637D03*
Y04562D03*
X025Y04637D03*
Y04562D03*
X032Y04637D03*
Y04562D03*
X011Y03637D03*
Y03562D03*
X018Y03637D03*
Y03562D03*
X025Y03637D03*
Y03562D03*
X032Y03637D03*
Y03562D03*
X0314Y02217D03*
Y02142D03*
G54D18*
X02927Y02575D03*
X02852D03*
G54D19*
X02046Y02745D03*
Y0288D03*
X01902Y02745D03*
Y02881D03*
G54D20*
X0338Y02376D03*
Y02593D03*
G54D21*
X03613Y02778D03*
X03645D03*
X03676D03*
X03708D03*
X03739D03*
X03771D03*
X03802D03*
X03834D03*
X03865D03*
X03897D03*
X03928D03*
Y02326D03*
X03897D03*
X03865D03*
X03834D03*
X03802D03*
X03771D03*
X03739D03*
X03708D03*
X03676D03*
X03645D03*
X03613D03*
G54D22*
X03997Y0271D03*
Y02678D03*
Y02647D03*
Y02615D03*
Y02584D03*
Y02552D03*
Y02521D03*
Y02489D03*
Y02458D03*
Y02426D03*
Y02395D03*
X03545D03*
Y02426D03*
Y02458D03*
Y02489D03*
Y02521D03*
Y02552D03*
Y02584D03*
Y02615D03*
Y02647D03*
Y02678D03*
Y0271D03*
G54D23*
X01571Y02835D03*
Y02785D03*
Y02735D03*
Y02685D03*
Y02635D03*
Y02585D03*
Y02535D03*
G54D24*
X01283Y02685D03*
G54D25*
X0323Y02648D03*
Y02581D03*
Y02388D03*
Y02321D03*
G54D26*
X03132Y012D02*
X0324D01*
X0294D02*
X03047D01*
X01785Y02642D02*
X01882D01*
X01902Y02662*
Y02745*
X01482Y02512D02*
Y02621D01*
X01377Y02408D02*
X01482Y02512D01*
X01496Y02635D02*
X01571D01*
X01482Y02621D02*
X01496Y02635D01*
X01463Y02409D02*
X01532D01*
Y02321D02*
Y02409D01*
X01696Y02487D02*
X01785D01*
X01696Y02642D02*
Y02673D01*
X01684Y02685D02*
X01696Y02673D01*
X01571Y02685D02*
X01684D01*
X01696Y02642D02*
D01*
X01785*
X01571Y02785D02*
X01645D01*
X01657Y02797*
X01696*
X01785*
Y02727D02*
Y02797D01*
X01647Y02727D02*
X01696D01*
X0164Y02735D02*
X01647Y02727D01*
X01571Y02735D02*
X0164D01*
X01739Y02606D02*
X01772Y02572D01*
X01669Y02606D02*
X01739D01*
X01772Y02572D02*
X01785D01*
X0164Y02635D02*
X01669Y02606D01*
X01571Y02635D02*
X0164D01*
X01653Y02572D02*
X01696D01*
X01641Y02585D02*
X01653Y02572D01*
X01571Y02585D02*
X01641D01*
X01165Y0351D02*
X01181D01*
X01151Y03524D02*
X01165Y0351D01*
X03436Y0262D02*
X03504Y02552D01*
X0329Y02222D02*
Y02315D01*
X03504Y02552D02*
X03545D01*
X04474Y04611D02*
Y04642D01*
X04482Y04604D02*
X04526D01*
X04474Y04611D02*
X04482Y04604D01*
X04474Y04461D02*
Y04492D01*
X04482Y04454D02*
X04526D01*
X04474Y04461D02*
X04482Y04454D01*
X04474Y04311D02*
Y04342D01*
X04482Y04304D02*
X04526D01*
X04474Y04311D02*
X04482Y04304D01*
X04474Y04161D02*
Y04192D01*
X04482Y04154D02*
X04526D01*
X04474Y04161D02*
X04482Y04154D01*
X04474Y04011D02*
Y04042D01*
X04482Y04004D02*
X04526D01*
X04474Y04011D02*
X04482Y04004D01*
X04474Y03861D02*
Y03892D01*
X04482Y03854D02*
X04526D01*
X04474Y03861D02*
X04482Y03854D01*
X04474Y03711D02*
Y03742D01*
X04482Y03704D02*
X04526D01*
X04474Y03711D02*
X04482Y03704D01*
X04474Y03561D02*
Y03592D01*
X04482Y03554D02*
X04526D01*
X04474Y03561D02*
X04482Y03554D01*
X04474Y03411D02*
Y03442D01*
X04482Y03404D02*
X04526D01*
X04474Y03411D02*
X04482Y03404D01*
X04474Y03261D02*
Y03292D01*
X04482Y03254D02*
X04526D01*
X04474Y03261D02*
X04482Y03254D01*
X04474Y03111D02*
Y03142D01*
X04482Y03104D02*
X04526D01*
X04474Y03111D02*
X04482Y03104D01*
X04474Y02961D02*
Y02992D01*
X04482Y02954D02*
X04526D01*
X04474Y02961D02*
X04482Y02954D01*
X04474Y02811D02*
Y02842D01*
X04482Y02804D02*
X04526D01*
X04474Y02811D02*
X04482Y02804D01*
X04474Y02661D02*
X04482Y02654D01*
X04526*
X04474Y02661D02*
Y02692D01*
Y02511D02*
X04487Y02499D01*
X04474Y02511D02*
Y02542D01*
X032Y03515D02*
Y03562D01*
Y03515D02*
X0323Y03484D01*
X03281*
X03449Y03389D02*
X03657Y03181D01*
Y03022D02*
Y03181D01*
X03492Y02857D02*
X03657Y03022D01*
X03449Y03389D02*
Y03851D01*
X03674Y03016D02*
Y03189D01*
X0354Y03323D02*
X03674Y03189D01*
X0354Y03323D02*
Y03462D01*
X03498Y02841D02*
X03674Y03016D01*
X0304Y01919D02*
X03129D01*
X03017Y02217D02*
X0314D01*
X02764Y01919D02*
X02893D01*
X02917Y01894*
X02982*
X03006Y01919*
X0304*
X0295Y01837D02*
X03037D01*
X0268D02*
X02761D01*
X0288Y0197D02*
X02902D01*
X0295Y01922*
X0344Y0213D02*
Y0216D01*
X03461Y02182*
Y02351*
X03505Y02395*
X03545*
X0268Y01922D02*
Y0195D01*
X02788Y02058*
X03538*
X03613Y02133*
Y02326*
X0189Y0238D02*
X0191Y02359D01*
X0232Y0258D02*
X024Y025D01*
X0199Y0258D02*
X0232D01*
X032Y0435D02*
Y04562D01*
X025Y0435D02*
Y04562D01*
X018Y0435D02*
Y04562D01*
X01181Y03351D02*
Y03484D01*
X025Y0352D02*
Y03562D01*
Y0352D02*
X02535Y03484D01*
X02581*
X01881Y03351D02*
Y03484D01*
X02581Y03351D02*
Y03484D01*
X03281Y03351D02*
Y03484D01*
Y04351D02*
Y04484D01*
X02581Y04351D02*
Y04484D01*
X01881Y04351D02*
Y04484D01*
X01181Y04351D02*
Y04484D01*
X025Y04637D02*
Y048D01*
X018Y04637D02*
Y048D01*
Y03637D02*
Y0383D01*
X032Y03637D02*
Y038D01*
X025Y03637D02*
Y038D01*
X032Y04637D02*
Y048D01*
X011Y04637D02*
Y0472D01*
Y03637D02*
Y0372D01*
X0329Y0216D02*
Y02222D01*
X03272Y02142D02*
X0329Y0216D01*
X0314Y02142D02*
X03272D01*
X0268Y0168D02*
X027Y017D01*
X0268Y01609D02*
Y0168D01*
X0389Y025D02*
X03911Y02521D01*
X03997*
X03827Y02157D02*
Y0223D01*
X03822Y02552D02*
X03997D01*
X03802Y02532D02*
X03822Y02552D01*
X03802Y02326D02*
Y02532D01*
X03771Y02588D02*
X03775Y02584D01*
X03997*
X03742Y02885D02*
X03771Y02856D01*
X03747Y0289D02*
Y02957D01*
X03822Y02877D02*
Y0289D01*
X03832D02*
Y02957D01*
X02693Y02575D02*
X02852D01*
X01218Y0275D02*
X013D01*
X02732Y01575D02*
X0277Y01612D01*
X02649Y01575D02*
X02732D01*
X02614Y01611D02*
X02649Y01575D01*
X02989Y0153D02*
X03105D01*
X02907Y01612D02*
X02989Y0153D01*
X0277Y01612D02*
X02907D01*
X03281Y02074D02*
X0339Y02182D01*
X02837Y02074D02*
X03281D01*
X02895Y0209D02*
X03275D01*
X0334Y02155*
X02785Y022D02*
X02895Y0209D01*
X02711Y022D02*
X02837Y02074D01*
X0324Y0195D02*
Y0201D01*
X03227Y01937D02*
X0324Y0195D01*
X03227Y0189D02*
Y01937D01*
X03312Y0189D02*
Y01942D01*
X0334Y0197*
Y0201*
X0329Y0196D02*
Y0201D01*
X0327Y0194D02*
X0329Y0196D01*
X0327Y0186D02*
Y0194D01*
X03227Y01817D02*
X0327Y0186D01*
X03377Y0189D02*
Y01927D01*
X0339Y0194*
Y0201*
X03462Y0189D02*
Y01927D01*
X0344Y0195D02*
X03462Y01927D01*
X0344Y0195D02*
Y0201D01*
X03323Y02376D02*
X0338D01*
X03302Y02397D02*
X03323Y02376D01*
X0323Y02397D02*
X03302D01*
X03323Y02593D02*
X0338D01*
X033Y0257D02*
X03323Y02593D01*
X03232Y0257D02*
X033D01*
X03498Y02521D02*
X03545D01*
X03426Y02593D02*
X03498Y02521D01*
X0338Y02593D02*
X03426D01*
X03499Y02489D02*
X03545D01*
X03386Y02376D02*
X03499Y02489D01*
X03545Y02615D02*
X03694D01*
X03545Y02647D02*
X03735D01*
X03545Y02678D02*
X03691D01*
X03545Y0271D02*
X03735D01*
X03771Y02291D02*
Y02326D01*
X03742Y02262D02*
X03771Y02291D01*
X03742Y0223D02*
Y02262D01*
X03802Y02292D02*
Y02326D01*
Y02292D02*
X03827Y02267D01*
Y0223D02*
Y02267D01*
X03105Y01609D02*
X03186D01*
X03676Y02326D02*
Y02391D01*
X0371Y02425*
X03997Y02521D02*
X04091D01*
X03997Y02552D02*
X04087D01*
X041Y02565*
Y02597*
X0349Y0196D02*
Y0201D01*
Y0196D02*
X03515Y01935D01*
X03312Y018D02*
X03485D01*
X03515Y0183*
Y01935*
X03997Y02489D02*
X04002Y02484D01*
X04134*
X03997Y02458D02*
X0413D01*
X03997Y02426D02*
X04121D01*
X042Y02483D02*
Y03635D01*
X03928Y02326D02*
X04066D01*
X03897Y02292D02*
Y02326D01*
Y02292D02*
X03915Y02275D01*
X04038*
X03865Y02289D02*
Y02326D01*
Y02289D02*
X03896Y02259D01*
X04044*
X03834Y02298D02*
X03889Y02243D01*
X04051*
X04307Y0261D02*
Y027D01*
X04248Y02803D02*
X04307Y02862D01*
Y0291*
Y03*
X04232Y03072D02*
X04307Y03147D01*
Y0321*
Y033*
X04216Y03351D02*
X04307Y03442D01*
Y0351*
Y036*
X042Y03635D02*
X04307Y03742D01*
Y0381*
Y039*
Y04042D02*
Y0411D01*
Y04347D02*
Y0441D01*
Y04652D02*
Y0471D01*
Y048*
Y0411D02*
Y042D01*
Y0441D02*
Y045D01*
X0415Y04495D02*
X04307Y04652D01*
X04166Y04206D02*
X04307Y04347D01*
X04182Y03917D02*
X04307Y04042D01*
X04134Y02484D02*
X0415Y025D01*
Y04495*
X0413Y02458D02*
X04166Y02493D01*
Y04206*
X04121Y02426D02*
X04182Y02486D01*
Y03917*
X04066Y02326D02*
X04216Y02475D01*
Y03351*
X04038Y02275D02*
X04232Y02468D01*
Y03072*
X04044Y02259D02*
X04248Y02462D01*
Y02803*
X04051Y02243D02*
X04265Y02456D01*
Y02567*
X04307Y0261*
X03997Y02395D02*
X04112D01*
X04198Y0248*
X03834Y02298D02*
Y02326D01*
X04392Y0261D02*
X04467D01*
X04392Y027D02*
Y02742D01*
X04417Y02767*
X04474*
X04399Y02917D02*
X04474D01*
X04392Y03D02*
Y03042D01*
X04417Y03067*
X04474*
X04399Y03217D02*
X04474D01*
X04392Y033D02*
Y03347D01*
X04412Y03367*
X04474*
X04399Y03517D02*
X04474D01*
X04392Y036D02*
Y03647D01*
X04412Y03667*
X04474*
X04399Y03817D02*
X04474D01*
X04392Y039D02*
Y03942D01*
X04417Y03967*
X04474*
X04399Y04117D02*
X04474D01*
X04392Y042D02*
Y04242D01*
X04417Y04267*
X04474*
X04399Y04417D02*
X04474D01*
X04392Y045D02*
Y04547D01*
X04412Y04567*
X04474*
X04399Y04717D02*
X04474D01*
X04392Y048D02*
Y04852D01*
X04407Y04867*
X04474*
X04627Y0476D02*
Y04812D01*
X0461Y0483D02*
X04627Y04812D01*
X04545Y0483D02*
X0461D01*
X04545Y0468D02*
X0461D01*
X04627Y04697*
Y0476*
Y04458D02*
Y04512D01*
X0461Y0453D02*
X04627Y04512D01*
X04545Y0453D02*
X0461D01*
X04627Y04397D02*
Y04458D01*
X0461Y0438D02*
X04627Y04397D01*
X04545Y0438D02*
X0461D01*
X04627Y04157D02*
Y04212D01*
X0461Y0423D02*
X04627Y04212D01*
X04545Y0423D02*
X0461D01*
X04627Y04097D02*
Y04157D01*
X0461Y0408D02*
X04627Y04097D01*
X04545Y0408D02*
X0461D01*
X04627Y03855D02*
Y03912D01*
X0461Y0393D02*
X04627Y03912D01*
X04545Y0393D02*
X0461D01*
X04627Y03797D02*
Y03855D01*
X0461Y0378D02*
X04627Y03797D01*
X04545Y0378D02*
X0461D01*
X04627Y03554D02*
Y03612D01*
X0461Y0363D02*
X04627Y03612D01*
X04545Y0363D02*
X0461D01*
X04627Y03497D02*
Y03554D01*
X0461Y0348D02*
X04627Y03497D01*
X04545Y0348D02*
X0461D01*
X04627Y03252D02*
Y03312D01*
X0461Y0333D02*
X04627Y03312D01*
X04545Y0333D02*
X0461D01*
X04627Y03197D02*
Y03252D01*
X0461Y0318D02*
X04627Y03197D01*
X04545Y0318D02*
X0461D01*
X04627Y02951D02*
Y03012D01*
X0461Y0303D02*
X04627Y03012D01*
X04545Y0303D02*
X0461D01*
X04627Y02897D02*
Y02951D01*
X0461Y0288D02*
X04627Y02897D01*
X04545Y0288D02*
X0461D01*
X04627Y0265D02*
Y02712D01*
X0461Y0273D02*
X04627Y02712D01*
X04545Y0273D02*
X0461D01*
X04627Y02597D02*
Y0265D01*
X0461Y0258D02*
X04627Y02597D01*
X04545Y0258D02*
X0461D01*
X04545Y0273D02*
Y0276D01*
X0457Y02785*
X048*
X0484Y02825*
Y0338*
X04545Y0303D02*
Y03065D01*
X04585Y03105*
X0473*
X04786Y03161*
Y03421*
X0484Y03474*
Y0348*
X04627Y03554D02*
X04652D01*
X04691Y03592*
X04752*
X0484Y0368*
X04627Y03855D02*
X04703Y0378D01*
X0484*
X04545Y04044D02*
Y0408D01*
Y04044D02*
X0457Y0402D01*
X047*
X0475Y0397*
Y039D02*
Y0397D01*
Y039D02*
X0477Y0388D01*
X0484*
X04656Y04458D02*
X04675Y0444D01*
X04627Y04458D02*
X04656D01*
X04785Y0398D02*
X0484D01*
X04675Y0409D02*
X04785Y0398D01*
X04675Y0409D02*
Y0444D01*
X0484Y0408D02*
Y0457D01*
X0465Y0476D02*
X0484Y0457D01*
X04627Y0476D02*
X0465D01*
X04627Y03252D02*
X04657D01*
X04675Y0327*
X04712Y02552D02*
Y0265D01*
Y02852D02*
Y02951D01*
Y03152D02*
Y03252D01*
X04675Y0327D02*
Y03355D01*
X04786Y03466*
Y03499*
X0484Y03553D02*
Y0358D01*
X04786Y03499D02*
X0484Y03553D01*
X04712Y03452D02*
Y03554D01*
Y03855D02*
Y03912D01*
X04675Y0395D02*
X04712Y03912D01*
Y04157D02*
Y04458D01*
Y0476D02*
X048D01*
X0443Y04748D02*
X04474Y04792D01*
X04371Y04748D02*
X0443D01*
X04364Y04742D02*
X04371Y04748D01*
X04364Y04677D02*
Y04742D01*
Y04677D02*
X04371Y04671D01*
X04428*
X04457Y04642*
X04474*
X03684Y039D02*
X038D01*
X03684Y0382D02*
X0378D01*
X03684Y0374D02*
X0376D01*
X038Y037*
X03684Y0366D02*
X0374D01*
X038Y036*
X03684Y0358D02*
X0372D01*
X038Y035*
X03684D02*
X037D01*
X038Y034*
X03684Y03415D02*
Y0342D01*
Y03415D02*
X038Y033D01*
X03684Y0324D02*
Y0334D01*
Y0324D02*
X03725Y032D01*
X038*
X03518Y03587D02*
X03592D01*
X03518Y03612D02*
X03572D01*
X036Y0364*
Y0366*
X03518Y03638D02*
X03565D01*
X03572Y03645*
Y03698*
X036Y03726*
Y0374*
X03518Y03663D02*
X03548D01*
X03556Y03671*
Y03709*
X03572Y03725*
Y03792*
X036Y0382*
X03517Y0369D02*
X03518Y03689D01*
X0348Y0369D02*
X03517D01*
X03465Y03705D02*
X0348Y0369D01*
X03465Y03705D02*
Y03845D01*
X0352Y039*
X036*
Y035D02*
Y0352D01*
X03518Y03536D02*
X03561D01*
X03572Y03525*
Y03461D02*
Y03525D01*
Y03461D02*
X036Y03433D01*
Y0342D02*
Y03433D01*
X03518Y0351D02*
X03545D01*
X03556Y035*
X0356Y0356D02*
X036Y0352D01*
X03519Y0356D02*
X0356D01*
X03281Y0351D02*
X03282Y0351D01*
X0331*
X03324Y03496*
Y03476D02*
Y03496D01*
Y03476D02*
X0335Y0345D01*
X03397*
X03281Y03536D02*
X03306D01*
X0335Y03492*
Y03487D02*
Y03492D01*
X03281Y03561D02*
X03311D01*
X03337Y03536*
X03385*
X03397Y03525*
X03281Y03587D02*
X03323D01*
X03347Y03562*
X03281Y03612D02*
X03283Y03611D01*
X03385*
X03397Y036*
X03281Y03638D02*
X03347D01*
X03281Y03663D02*
X03386D01*
X03281Y03689D02*
X03326D01*
X03349Y03712*
X03281Y03715D02*
X03315D01*
X03338Y03738*
X03385*
X03397Y0375*
X02639Y03738D02*
X02688D01*
X02615Y03715D02*
X02638Y03738D01*
X02581Y03715D02*
X02615D01*
X02626Y03689D02*
X02649Y03712D01*
X02581Y03689D02*
X02626D01*
X02581Y03638D02*
X02647D01*
X02685Y03611D02*
X02697Y036D01*
X02583Y03611D02*
X02685D01*
X02581Y03612D02*
X02583Y03611D01*
X02623Y03587D02*
X02647Y03562D01*
X02581Y03587D02*
X02623D01*
X02685Y03536D02*
X02697Y03525D01*
X02637Y03536D02*
X02685D01*
X02611Y03561D02*
X02637Y03536D01*
X02581Y03561D02*
X02611D01*
X0265Y03487D02*
Y03492D01*
X02606Y03536D02*
X0265Y03492D01*
X02581Y03536D02*
X02606D01*
X0265Y0345D02*
X02697D01*
X02624Y03476D02*
X0265Y0345D01*
X02624Y03476D02*
Y03496D01*
X0261Y0351D02*
X02624Y03496D01*
X02582Y0351D02*
X0261D01*
X02581Y0351D02*
X02582Y0351D01*
X01985Y03738D02*
X01997Y0375D01*
X01938Y03738D02*
X01985D01*
X01915Y03715D02*
X01938Y03738D01*
X01881Y03715D02*
X01915D01*
X01881Y03689D02*
X01926D01*
X01881Y03663D02*
X01986D01*
X01985Y03611D02*
X01997Y036D01*
X01883Y03611D02*
X01985D01*
X01881Y03612D02*
X01883Y03611D01*
X01881Y03587D02*
X01923D01*
X01985Y03536D02*
X01997Y03525D01*
X01937Y03536D02*
X01985D01*
X01911Y03561D02*
X01937Y03536D01*
X01881Y03561D02*
X01911D01*
X01906Y03536D02*
X0195Y03492D01*
X01881Y03536D02*
X01906D01*
X01181Y0351D02*
X01182Y0351D01*
X0121*
X01181Y03536D02*
X01206D01*
X0125Y03492*
X01181Y03561D02*
X01211D01*
X01237Y03536*
X01285*
X01297Y03525*
X01181Y03587D02*
X01223D01*
X01181Y03612D02*
X01183Y03611D01*
X01285*
X01297Y036*
X01181Y03663D02*
X01286D01*
X01181Y03689D02*
X01226D01*
X01181Y03715D02*
X01215D01*
X01238Y03738*
X01285*
X01297Y0375*
X01285Y04738D02*
X01297Y0475D01*
X01238Y04738D02*
X01285D01*
X01215Y04715D02*
X01238Y04738D01*
X01181Y04715D02*
X01215D01*
X01181Y04689D02*
X01226D01*
X01181Y04663D02*
X01286D01*
X01285Y04611D02*
X01297Y046D01*
X01183Y04611D02*
X01285D01*
X01181Y04612D02*
X01183Y04611D01*
X01181Y04587D02*
X01223D01*
X01285Y04536D02*
X01325Y04497D01*
X01237Y04536D02*
X01285D01*
X01211Y04561D02*
X01237Y04536D01*
X01181Y04561D02*
X01211D01*
X01206Y04536D02*
X0125Y04492D01*
X01181Y04536D02*
X01206D01*
X0125Y0445D02*
X01297D01*
X01224Y04476D02*
X0125Y0445D01*
X01224Y04476D02*
Y04496D01*
X0121Y0451D02*
X01224Y04496D01*
X01182Y0451D02*
X0121D01*
X01181Y0451D02*
X01182Y0451D01*
X01985Y04738D02*
X01997Y0475D01*
X01938Y04738D02*
X01985D01*
X01915Y04715D02*
X01938Y04738D01*
X01881Y04715D02*
X01915D01*
X01881Y04689D02*
X01926D01*
X01881Y04663D02*
X01986D01*
X01985Y04611D02*
X0203Y04567D01*
X01883Y04611D02*
X01985D01*
X01881Y04612D02*
X01883Y04611D01*
X01881Y04587D02*
X01923D01*
X01985Y04536D02*
X01997Y04525D01*
X01937Y04536D02*
X01985D01*
X01911Y04561D02*
X01937Y04536D01*
X01881Y04561D02*
X01911D01*
X01906Y04536D02*
X0195Y04492D01*
X01881Y04536D02*
X01906D01*
X0195Y0445D02*
X01997D01*
X01924Y04476D02*
X0195Y0445D01*
X01924Y04476D02*
Y04496D01*
X0191Y0451D02*
X01924Y04496D01*
X01882Y0451D02*
X0191D01*
X02685Y04738D02*
X02697Y0475D01*
X02638Y04738D02*
X02685D01*
X02615Y04715D02*
X02638Y04738D01*
X02581Y04715D02*
X02615D01*
X02581Y04689D02*
X02626D01*
X02581Y04663D02*
X02686D01*
X02583Y04611D02*
X02685D01*
X02581Y04612D02*
X02583Y04611D01*
X02581Y04587D02*
X02623D01*
X02637Y04536D02*
X02685D01*
X02611Y04561D02*
X02637Y04536D01*
X02581Y04561D02*
X02611D01*
X02606Y04536D02*
X0265Y04492D01*
X02581Y04536D02*
X02606D01*
X0265Y0445D02*
X02697D01*
X02624Y04476D02*
X0265Y0445D01*
X02624Y04476D02*
Y04496D01*
X0261Y0451D02*
X02624Y04496D01*
X02582Y0451D02*
X0261D01*
X02581Y0451D02*
X02582Y0451D01*
X03385Y04738D02*
X03397Y0475D01*
X03338Y04738D02*
X03385D01*
X03315Y04715D02*
X03338Y04738D01*
X03281Y04715D02*
X03315D01*
X03281Y04689D02*
X03326D01*
X03281Y04663D02*
X03386D01*
X03385Y04611D02*
X03397Y046D01*
X03283Y04611D02*
X03385D01*
X03281Y04612D02*
X03283Y04611D01*
X03281Y04587D02*
X03323D01*
X03385Y04536D02*
X03397Y04525D01*
X03337Y04536D02*
X03385D01*
X03311Y04561D02*
X03337Y04536D01*
X03281Y04561D02*
X03311D01*
X03306Y04536D02*
X0335Y04492D01*
X03281Y04536D02*
X03306D01*
X0333Y0445D02*
X03397D01*
X03282Y0451D02*
X0331D01*
X03281Y0451D02*
X03282Y0451D01*
X01181Y03638D02*
X01247D01*
X01226Y03689D02*
X01249Y03712D01*
X01926Y03689D02*
X01949Y03712D01*
X01223Y03587D02*
X01247Y03562D01*
X0125Y03487D02*
Y03492D01*
X01881Y03638D02*
X01947D01*
X01923Y03587D02*
X01947Y03562D01*
X0195Y03487D02*
Y03492D01*
X01226Y04689D02*
X01249Y04712D01*
X01181Y04638D02*
X01247D01*
X01223Y04587D02*
X01247Y04562D01*
X0125Y04487D02*
Y04492D01*
X01926Y04689D02*
X01949Y04712D01*
X02626Y04689D02*
X02649Y04712D01*
X02581Y04638D02*
X02647D01*
X01881D02*
X01947D01*
X03323Y04587D02*
X03347Y04562D01*
X02623Y04587D02*
X02647Y04562D01*
X01923Y04587D02*
X01947Y04562D01*
X0335Y04487D02*
Y04492D01*
X0195Y04487D02*
Y04492D01*
X03771Y02778D02*
Y02856D01*
X03997Y02615D02*
X04054D01*
X04134Y02695*
Y03441*
X04125Y0345D02*
X04134Y03441D01*
X03997Y02647D02*
X04059D01*
X04113Y02701*
Y03424*
X04099Y03439D02*
X04113Y03424D01*
X04099Y03439D02*
Y03486D01*
X041Y03487*
X03997Y02678D02*
X04067D01*
X04097Y02708*
Y03417*
X04074Y03441D02*
X04097Y03417D01*
X04074Y03441D02*
Y03524D01*
X03997Y0271D02*
X04071D01*
X04081Y0272*
Y03411*
X04049Y03443D02*
X04081Y03411D01*
X04049Y03443D02*
Y03561D01*
X0405Y03562*
X03897Y02778D02*
Y02812D01*
X03865Y02778D02*
Y0282D01*
X03834Y02778D02*
Y02812D01*
X04025Y0375D02*
X04026Y03749D01*
X04024Y03446D02*
X04065Y03404D01*
X03645Y02757D02*
X03664Y02738D01*
X03645Y02757D02*
Y02778D01*
X04024Y03446D02*
Y03584D01*
X04026Y03586*
Y03749*
X04Y03447D02*
Y036D01*
Y03447D02*
X04049Y03397D01*
X03974Y03451D02*
X04033Y03391D01*
X03974Y03451D02*
Y03636D01*
X03949Y03453D02*
X04017Y03384D01*
X03949Y03453D02*
Y03674D01*
X03924Y03455D02*
X04001Y03378D01*
X03924Y03455D02*
Y03711D01*
X03925Y03712*
X04001Y02866D02*
Y03378D01*
X03963Y02738D02*
X04065Y0284D01*
X04017Y0286D02*
Y03384D01*
X04033Y02853D02*
Y03391D01*
X04049Y02846D02*
Y03397D01*
X03664Y02738D02*
X03963D01*
X04065Y0284D02*
Y03404D01*
X03928Y02778D02*
X03981D01*
X04049Y02846*
X03865Y0282D02*
X0388Y02835D01*
X03897Y02812D02*
X03904Y02819D01*
X03834Y02812D02*
X03873Y02851D01*
X03904Y02819D02*
X03999D01*
X04033Y02853*
X0388Y02835D02*
X03993D01*
X04017Y0286*
X03873Y02851D02*
X03986D01*
X04001Y02866*
X02581Y03663D02*
X02688D01*
X027Y03675*
X02688Y03738D02*
X027Y0375D01*
X02726Y03701D02*
Y04646D01*
X02697Y04675D02*
X02726Y04646D01*
X027Y03675D02*
X02726Y03701D01*
X01997Y036D02*
X0203Y03632D01*
Y04567*
X01297Y03525D02*
X0131D01*
X01125Y03484D02*
X01181D01*
X011Y0351D02*
X01125Y03484D01*
X011Y0351D02*
Y03562D01*
X0125Y0345D02*
X01297D01*
X0121Y0351D02*
X01224Y03496D01*
Y03476D02*
Y03496D01*
Y03476D02*
X0125Y0345D01*
X01825Y03484D02*
X01881D01*
X018Y0351D02*
X01825Y03484D01*
X018Y0351D02*
Y03562D01*
Y03633D02*
Y03637D01*
X01858Y03536D02*
X01881D01*
X01845Y0355D02*
X01858Y03536D01*
X01845Y0355D02*
Y0453D01*
X01851Y04536*
X01881*
X01125Y04484D02*
X01181D01*
X011Y0451D02*
X01125Y04484D01*
X011Y0451D02*
Y04562D01*
X01151Y03726D02*
X01297Y03872D01*
X01151Y03524D02*
Y03726D01*
X01297Y03872D02*
Y0445D01*
X02552Y03587D02*
X02581D01*
X02545Y03595D02*
X02552Y03587D01*
X02545Y03595D02*
Y04575D01*
X02557Y04587*
X02581*
X03251Y03638D02*
X03281D01*
X03245Y03645D02*
X03251Y03638D01*
X03245Y03645D02*
Y0463D01*
X03253Y04638*
X03281*
X03347*
X03349Y03712D02*
X03359Y03722D01*
X03423Y03739D02*
Y04685D01*
X03359Y03722D02*
X03406D01*
X03423Y03739*
X03326Y04689D02*
X03349Y04712D01*
X03396*
X03423Y04685*
X03802Y02778D02*
Y02857D01*
X03822Y02877*
X03739Y02778D02*
Y02835D01*
X037Y02875D02*
X03739Y02835D01*
X03708Y02778D02*
Y02843D01*
X03693Y02859D02*
X03708Y02843D01*
X03676Y02778D02*
Y02826D01*
X0366Y02843D02*
X03676Y02826D01*
X027Y027D02*
Y0279D01*
X02735Y02825*
X0275Y02785D02*
X02774Y02809D01*
X0275Y027D02*
Y02785D01*
X028Y02775D02*
X02818Y02793D01*
X028Y027D02*
Y02775D01*
X0285Y027D02*
X029D01*
X0285D02*
X02852Y02697D01*
Y02575D02*
Y02697D01*
X02927Y02575D02*
Y02677D01*
X0295Y027*
X02959Y0274D02*
X03Y027D01*
X0284Y0274D02*
X02959D01*
X02828Y02727D02*
X0284Y0274D01*
X02828Y02678D02*
Y02727D01*
X02809Y02659D02*
X02828Y02678D01*
X02684Y02659D02*
X02809D01*
X02678Y02665D02*
X02684Y02659D01*
X02678Y02665D02*
Y0279D01*
X02728Y02841*
X03518Y0392D02*
Y04484D01*
X03449Y03851D02*
X03518Y0392D01*
X029Y02875D02*
X02918Y02857D01*
X029Y02875D02*
Y02912D01*
X02118Y03196D02*
Y03484D01*
X02818D02*
X02821Y03481D01*
X03Y02912D02*
Y0297D01*
X0295Y02912D02*
Y02997D01*
X0275Y02912D02*
Y0306D01*
X028Y02912D02*
Y0305D01*
X0285Y02912D02*
Y03D01*
X02821Y03269D02*
Y03481D01*
Y03269D02*
X0305Y0304D01*
Y02912D02*
Y0304D01*
X02805Y03225D02*
X0285Y0318D01*
Y03175D02*
Y0318D01*
X02805Y03225D02*
Y03449D01*
X02118Y03196D02*
X02165Y0315D01*
X0282*
X03Y0297*
X015Y0308D02*
X02867D01*
X0295Y02997*
X01493Y03064D02*
X02746D01*
X0275Y0306*
X02158Y03134D02*
X02781D01*
X028Y03115*
X02099Y04484D02*
X02118D01*
X02818Y03587D02*
X02892D01*
X02818Y03612D02*
X02823Y03618D01*
X02841D02*
X02876D01*
X02893D02*
X029Y03625D01*
Y0366*
X02818Y03638D02*
X02865D01*
X02872Y03645*
X02818Y03663D02*
X02848D01*
X02856Y03671*
Y03756*
X02818Y03689D02*
X02832D01*
X0277Y03484D02*
X02805Y03449D01*
X02856Y03756D02*
X029Y03799D01*
Y0382*
X02872Y03645D02*
Y03712D01*
X029Y0374*
X0277Y03484D02*
Y04436D01*
X02818Y04484*
X02823Y03618D02*
X02841D01*
X02876D02*
X02893D01*
X02787Y03703D02*
X02801Y03689D01*
X02818*
Y03561D02*
X02858D01*
X029Y0352*
Y035D02*
Y0352D01*
X02818Y03536D02*
X02856D01*
X02872Y0352*
Y03461D02*
Y0352D01*
Y03461D02*
X029Y03433D01*
X02818Y0351D02*
X02844D01*
X02856Y03498*
Y03383D02*
Y03498D01*
Y03383D02*
X029Y0334D01*
X02118Y03612D02*
X02162D01*
X022Y0365*
X02118Y03638D02*
X0216D01*
X02172Y0365*
Y03698*
X022Y03726*
X02118Y03663D02*
X02145D01*
X02156Y03675*
Y03776*
X022Y0382*
X0205Y03242D02*
X02158Y03134D01*
X0205Y03242D02*
Y04435D01*
X02099Y04484*
X02085Y03689D02*
X02118D01*
X02066Y03709D02*
X02085Y03689D01*
X02066Y03709D02*
Y03881D01*
X02085Y039*
X022*
X01418Y03612D02*
X01477D01*
X01497Y03632*
Y0365*
X01418Y03638D02*
X01458D01*
X01469Y0365*
Y03688*
X01497Y03716*
Y0373*
X01418Y03663D02*
X01447D01*
X01453Y0367*
Y03766*
X01497Y0381*
X01325Y0354D02*
Y04497D01*
X0131Y03525D02*
X01325Y0354D01*
X01341Y03216D02*
Y04407D01*
X01418Y04484*
X01372Y03689D02*
X01418D01*
X01357Y03705D02*
X01372Y03689D01*
X01357Y03705D02*
Y03877D01*
X0137Y0389*
X01497*
X01418Y03587D02*
X0148D01*
X01497Y0357*
X01418Y03561D02*
X01463D01*
X01469Y03555*
Y03537D02*
Y03555D01*
Y03537D02*
X01497Y0351D01*
Y0349D02*
Y0351D01*
X01418Y03536D02*
X01449D01*
X01469Y03515*
Y03451D02*
Y03515D01*
Y03451D02*
X01497Y03423D01*
X01418Y0351D02*
X01443D01*
X01453Y035*
Y03393D02*
Y035D01*
Y03393D02*
X01497Y0335D01*
X02118Y03587D02*
X02192D01*
X02118Y03561D02*
X02165D01*
X02172Y03555*
Y03541D02*
Y03555D01*
Y03541D02*
X022Y03513D01*
X02118Y03536D02*
X02155D01*
X02172Y03518*
Y03461D02*
Y03518D01*
Y03461D02*
X022Y03433D01*
X02118Y0351D02*
X02118Y0351D01*
X02146*
X02156Y035*
Y03397D02*
Y035D01*
Y03397D02*
X022Y03353D01*
Y0334D02*
Y03353D01*
X01418Y04612D02*
X01452D01*
X015Y0466*
X01418Y04638D02*
X01455D01*
X01472Y04655*
Y04698*
X015Y04726*
Y0474*
X01418Y04663D02*
X01445D01*
X01456Y04675*
Y04776*
X015Y0482*
X0137Y04689D02*
X01418D01*
X0135Y0471D02*
X0137Y04689D01*
X0135Y0471D02*
Y04875D01*
X01375Y049*
X015*
X01418Y04587D02*
X01492D01*
X01418Y04561D02*
X0146D01*
X01472Y0455*
Y04541D02*
Y0455D01*
Y04541D02*
X015Y04513D01*
Y045D02*
Y04513D01*
X01418Y04536D02*
X01455D01*
X01472Y04518*
Y04461D02*
Y04518D01*
Y04461D02*
X015Y04433D01*
X01418Y0451D02*
X01418Y0451D01*
X01446*
X01456Y045*
Y04383D02*
Y045D01*
Y04383D02*
X015Y0434D01*
X02118Y04587D02*
X02192D01*
X02118Y04561D02*
X02165D01*
X02172Y04555*
Y04541D02*
Y04555D01*
Y04541D02*
X022Y04513D01*
X02118Y04536D02*
X02155D01*
X02172Y04518*
Y04461D02*
Y04518D01*
Y04461D02*
X022Y04433D01*
X02118Y0451D02*
X02145D01*
X02156Y045*
Y04383D02*
Y045D01*
Y04383D02*
X022Y0434D01*
X02118Y04612D02*
X02152D01*
X022Y0466*
X02118Y04638D02*
X02155D01*
X02172Y04655*
Y04698*
X022Y04726*
X02118Y04663D02*
X0215D01*
X02156Y0467*
Y04776*
X022Y0482*
X02045Y04689D02*
X02118D01*
X02025Y0471D02*
X02045Y04689D01*
X02025Y0471D02*
Y04875D01*
X0205Y049*
X022*
X02818Y04587D02*
X02892D01*
X02818Y04612D02*
X02872D01*
X029Y0464*
X02818Y04638D02*
X0286D01*
X02872Y0465*
Y04698*
X029Y04726*
Y0474*
X02818Y04663D02*
X02845D01*
X02856Y04675*
Y04705*
X02872Y04721*
Y04792*
X029Y0482*
X0275Y04689D02*
X02818D01*
X02725Y04715D02*
X0275Y04689D01*
X02725Y04715D02*
Y04875D01*
X0275Y049*
X029*
X02818Y04561D02*
X02865D01*
X02872Y04555*
Y04541D02*
Y04555D01*
Y04541D02*
X029Y04513D01*
X02818Y04536D02*
X02855D01*
X02872Y04518*
Y04461D02*
Y04518D01*
Y04461D02*
X029Y04433D01*
X02818Y0451D02*
X02845D01*
X02856Y045*
Y04383D02*
Y045D01*
Y04383D02*
X029Y0434D01*
X03518Y04587D02*
X03592D01*
X03518Y04612D02*
X03552D01*
X036Y0466*
X03518Y04638D02*
X03555D01*
X03572Y04655*
Y04698*
X036Y04726*
X03518Y04663D02*
X03545D01*
X03556Y04675*
Y04776*
X036Y0482*
X0345Y04689D02*
X03518D01*
X03425Y04715D02*
X0345Y04689D01*
X03425Y04715D02*
Y04875D01*
X0345Y049*
X036*
X03518Y04561D02*
X03565D01*
X03572Y04555*
Y04541D02*
Y04555D01*
Y04541D02*
X036Y04513D01*
X03518Y04536D02*
X03555D01*
X03572Y04518*
Y04461D02*
Y04518D01*
Y04461D02*
X036Y04433D01*
X03518Y0451D02*
X03544D01*
X03556Y04498*
Y04383D02*
Y04498D01*
Y04383D02*
X036Y0434D01*
X03684Y049D02*
X038D01*
X03684Y0482D02*
X0378D01*
X03684Y0474D02*
X0376D01*
X038Y047*
X03684Y0466D02*
X0374D01*
X038Y046*
X03684Y0458D02*
X0372D01*
X038Y045*
X03684D02*
X037D01*
X038Y044*
X03684Y0442D02*
X038Y04304D01*
Y043D02*
Y04304D01*
X03684Y04315D02*
Y0434D01*
Y04315D02*
X038Y042D01*
X02984Y049D02*
X031D01*
X02984Y0482D02*
X0308D01*
X02984Y0474D02*
X0306D01*
X031Y047*
X02984Y0466D02*
X0304D01*
X031Y046*
X02984Y0458D02*
X0302D01*
X031Y045*
X02984D02*
X03D01*
X031Y044*
X02984Y04415D02*
Y0442D01*
Y04415D02*
X031Y043D01*
X02984Y04315D02*
Y0434D01*
Y04315D02*
X031Y042D01*
X02284Y049D02*
X024D01*
X02284Y0482D02*
X0238D01*
X02284Y0474D02*
X0236D01*
X024Y047*
X02284Y0466D02*
X0234D01*
X024Y046*
X02284Y0458D02*
X0232D01*
X024Y045*
X02284D02*
X023D01*
X024Y044*
X02284Y04415D02*
Y0442D01*
Y04415D02*
X024Y043D01*
X02284Y04315D02*
Y0434D01*
Y04315D02*
X024Y042D01*
X01584Y049D02*
X017D01*
X01584Y0482D02*
X0168D01*
X017Y048*
X01584Y0474D02*
X0166D01*
X017Y047*
X01584Y0466D02*
X0164D01*
X017Y046*
X01584Y0458D02*
X0162D01*
X017Y045*
X01584D02*
X016D01*
X017Y044*
X01584Y04415D02*
Y0442D01*
Y04415D02*
X017Y043D01*
X01584Y04315D02*
Y0434D01*
Y04315D02*
X017Y042D01*
X03518Y03484D02*
X0354Y03462D01*
X02918Y02857D02*
X03492D01*
X03505Y02825D02*
X03555Y02875D01*
X037*
X03511Y02809D02*
X03561Y02859D01*
X03693*
X03518Y02793D02*
X03568Y02843D01*
X0366*
X02728Y02841D02*
X03498D01*
X02735Y02825D02*
X03505D01*
X02774Y02809D02*
X03511D01*
X02818Y02793D02*
X03518D01*
X03556Y03383D02*
X036Y0334D01*
X03556Y03383D02*
Y035D01*
X02984Y039D02*
X031D01*
X02984Y0382D02*
X0308D01*
X02984Y0374D02*
X0306D01*
X031Y037*
X02984Y0366D02*
X0304D01*
X031Y036*
X02984Y0358D02*
X0302D01*
X031Y035*
X02984D02*
X03D01*
X031Y034*
X02984Y03415D02*
Y0342D01*
Y03415D02*
X031Y033D01*
X02984Y03315D02*
Y0334D01*
Y03315D02*
X031Y032D01*
X02284Y039D02*
X024D01*
X02284Y0382D02*
X0238D01*
X02284Y0374D02*
X0236D01*
X024Y037*
X02284Y0366D02*
X0234D01*
X024Y036*
X02284Y0358D02*
X0232D01*
X024Y035*
X02284D02*
X023D01*
X024Y034*
X02284Y03415D02*
Y0342D01*
Y03415D02*
X024Y033D01*
X02284Y03315D02*
Y0334D01*
Y03315D02*
X024Y032D01*
X01582Y0389D02*
X0169D01*
X01582Y0381D02*
X0169D01*
X01582Y0373D02*
X0167D01*
X017Y037*
X01582Y0365D02*
X0165D01*
X017Y036*
X01582Y0357D02*
X0163D01*
X017Y035*
X01582Y0349D02*
X0161D01*
X017Y034*
X01582Y0341D02*
X0159D01*
X017Y033*
X01582Y03317D02*
Y0333D01*
Y03317D02*
X017Y032D01*
X01341Y03216D02*
X01493Y03064D01*
X0136Y0322D02*
X015Y0308D01*
X0136Y0322D02*
Y03426D01*
X01418Y03484*
X03518Y03715D02*
Y03818D01*
X02787Y03703D02*
Y03872D01*
X02815Y039*
X029*
X02818Y03715D02*
Y03818D01*
X02825Y03825*
X02118Y03715D02*
Y03823D01*
X01418Y03715D02*
Y03821D01*
X01921Y03476D02*
Y03498D01*
X01947Y0345D02*
X01997D01*
X01921Y03476D02*
X01947Y0345D01*
X01909Y0351D02*
X01921Y03498D01*
X01881Y0351D02*
X01909D01*
X01418Y04715D02*
Y04821D01*
X02118Y04715D02*
Y04826D01*
X02818Y04715D02*
Y04821D01*
X03518Y04715D02*
Y04821D01*
X03515Y02584D02*
X03545D01*
X03452Y02647D02*
X03515Y02584D01*
X03452Y02647D02*
Y02735D01*
X0344Y02222D02*
Y0239D01*
X03476Y02426*
X03545*
X0349Y02222D02*
Y0227D01*
X03595Y02375*
Y02445*
X03581Y02458D02*
X03595Y02445D01*
X03545Y02458D02*
X03581D01*
X0319Y01528D02*
X03598D01*
X03645Y01575*
Y02326*
X0268Y0153D02*
X02767D01*
X0334Y02155D02*
Y02222D01*
X02685Y022D02*
X02711D01*
X0339Y02182D02*
Y02222D01*
X0314Y02217D02*
X03234D01*
X03277Y02657D02*
X033Y0268D01*
Y0271*
X03325Y02735*
X03367*
X025Y025D02*
X029D01*
X02927Y02527*
Y02575*
X03545Y02584D02*
X03766D01*
X03771Y02326D02*
Y02588D01*
X0189Y0238D02*
X01916D01*
X01957Y02339*
X02139*
X022Y024*
X01283Y02685D02*
X01571D01*
X0146Y0232D02*
X01531D01*
X022Y024D02*
X02257D01*
X02342D02*
X0247D01*
X025Y0243*
Y025*
X01432Y01611D02*
Y01788D01*
X01832Y01611D02*
Y01788D01*
X02232Y01611D02*
Y01788D01*
X0355Y0276D02*
X0356D01*
X03578Y02778*
X03613*
X0323Y02321D02*
X03283D01*
X0329Y02315*
X03081Y02648D02*
X0323D01*
X0305Y0268D02*
X03081Y02648D01*
X0305Y0268D02*
Y027D01*
X0323Y02657D02*
X03277D01*
X02487Y01611D02*
X02614D01*
X03367Y02735D02*
X03375D01*
X03436Y02673*
Y0262D02*
Y02673D01*
X025Y025D02*
Y0256D01*
X0255Y0261*
X026*
X0265Y0266*
Y0283*
X0263Y0285D02*
X0265Y0283D01*
X0253Y0285D02*
X0263D01*
X02497Y02882D02*
X0253Y0285D01*
X02437Y02882D02*
X02497D01*
X01902Y02745D02*
X02045D01*
Y02775*
X02067Y02797*
X02255D02*
X02346D01*
X02067D02*
X02164D01*
X02255*
X02346D02*
X02436D01*
X0332Y0446D02*
X0333Y0445D01*
X0332Y0446D02*
Y045D01*
X0331Y0451D02*
X0332Y045D01*
X01571Y02535D02*
X01675D01*
X01696Y02514*
Y02487D02*
Y02514D01*
G54D27*
X01432Y01611D03*
X01832D03*
X02232D03*
G54D28*
X01432Y01788D03*
X01687D03*
Y01611D03*
X01832Y01788D03*
X02087D03*
Y01611D03*
X02487D03*
Y01788D03*
X02232D03*
G54D29*
X038Y032D03*
Y033D03*
Y034D03*
Y035D03*
Y036D03*
Y037D03*
Y038D03*
Y039D03*
X031Y032D03*
Y033D03*
Y034D03*
Y035D03*
Y036D03*
Y037D03*
Y038D03*
Y039D03*
X024Y032D03*
Y033D03*
Y034D03*
Y035D03*
Y036D03*
Y037D03*
Y038D03*
Y039D03*
X017Y032D03*
Y033D03*
Y034D03*
Y035D03*
Y036D03*
Y037D03*
Y038D03*
Y039D03*
X038Y042D03*
Y043D03*
Y044D03*
Y045D03*
Y046D03*
Y047D03*
Y048D03*
Y049D03*
X031Y042D03*
Y043D03*
Y044D03*
Y045D03*
Y046D03*
Y047D03*
Y048D03*
Y049D03*
X024Y042D03*
Y043D03*
Y044D03*
Y045D03*
Y046D03*
Y047D03*
Y048D03*
Y049D03*
X017Y042D03*
Y043D03*
Y044D03*
Y045D03*
Y046D03*
Y047D03*
Y048D03*
Y049D03*
X0189Y0258D03*
Y0248D03*
Y0238D03*
Y0228D03*
Y0218D03*
X0199Y0258D03*
Y0248D03*
Y0238D03*
Y0228D03*
Y0218D03*
X0484Y0408D03*
Y0398D03*
Y0388D03*
Y0378D03*
Y0368D03*
Y0358D03*
Y0348D03*
Y0338D03*
G54D30*
X025Y025D03*
X024D03*
X02785Y022D03*
X02685D03*
X02585D03*
X02485D03*
G54D31*
X0324Y012D03*
X0275D03*
X0294D03*
G54D32*
X0125Y0175D03*
Y021D03*
G54D33*
X0145Y0255D03*
Y026D03*
X0125Y0265D03*
X013D03*
X0135D03*
X014D03*
X0145D03*
Y027D03*
X014D03*
X0135D03*
X013D03*
X0125D03*
X012D03*
Y0275D03*
X0125D03*
X013D03*
X0135D03*
X014D03*
X0145D03*
Y028D03*
X014D03*
X0135D03*
X012Y0265D03*
Y026D03*
X0125D03*
X013D03*
X0135D03*
X014D03*
Y0255D03*
X0135D03*
X013D03*
X0125D03*
X012D03*
X0115Y0275D03*
Y027D03*
Y0265D03*
Y026D03*
Y0255D03*
X04526Y04604D03*
Y04454D03*
Y04304D03*
Y04154D03*
Y04004D03*
Y03854D03*
Y03704D03*
Y03554D03*
Y03404D03*
Y03254D03*
Y03104D03*
Y02954D03*
Y02804D03*
Y02654D03*
X04487Y02499D03*
X03129Y01919D03*
X03017Y02217D03*
X0288Y0197D03*
X0344Y0213D03*
X032Y0435D03*
X025D03*
X018D03*
X01181Y03351D03*
X01881D03*
X02581D03*
X03281D03*
Y04351D03*
X02581D03*
X01881D03*
X01181D03*
X025Y048D03*
X032D03*
X018D03*
X011Y0472D03*
Y0372D03*
X018Y0383D03*
X032Y038D03*
X025D03*
X0323Y0275D03*
X03142Y02312D03*
X027Y017D03*
X0389Y025D03*
X03827Y02157D03*
X03832Y02957D03*
X03747D03*
X03695Y02615D03*
Y02675D03*
X03735Y0271D03*
Y02647D03*
X0371Y02425D03*
X04712Y02552D03*
Y02852D03*
Y03152D03*
Y03452D03*
X04675Y0395D03*
X04712Y04325D03*
X048Y0476D03*
X03397Y03675D03*
Y036D03*
Y03525D03*
Y0345D03*
X0335Y03487D03*
X03347Y03562D03*
X03348Y03637D03*
X03349Y03712D03*
X0265D03*
Y03637D03*
X027Y036D03*
X0265Y03562D03*
X027Y03525D03*
X0265Y03487D03*
X027Y0345D03*
X03397Y0375D03*
X027D03*
X01997D03*
X01947Y03487D03*
X01997Y03525D03*
X01947Y03562D03*
X01997Y036D03*
X01947Y03637D03*
X01997Y03675D03*
X01947Y03712D03*
X01297Y0375D03*
Y0345D03*
Y03525D03*
X01247Y03562D03*
X01297Y036D03*
X01247Y03637D03*
X01297Y03675D03*
X01247Y03712D03*
X01297Y0475D03*
Y0445D03*
X01247Y04487D03*
X01297Y04525D03*
X01247Y04562D03*
X01297Y046D03*
X01247Y04637D03*
X01297Y04675D03*
X01247Y04712D03*
X01997Y0475D03*
Y0445D03*
X01947Y04487D03*
X01997Y04525D03*
X01947Y04562D03*
X01997Y046D03*
X01947Y04637D03*
X01997Y04675D03*
X01947Y04712D03*
X02697Y0475D03*
Y0445D03*
X02647Y04487D03*
X02697Y04525D03*
X02647Y04562D03*
X02697Y046D03*
X02647Y04637D03*
X02697Y04675D03*
X02647Y04712D03*
X03397Y0475D03*
Y0445D03*
X03347Y04487D03*
X03397Y04525D03*
X03347Y04562D03*
X03397Y046D03*
X03347Y04637D03*
X03397Y04675D03*
X03347Y04712D03*
X04125Y0345D03*
X04075Y03525D03*
X0395Y03675D03*
X04025Y0375D03*
X041Y03487D03*
X0405Y03562D03*
X03975Y03637D03*
X03925Y03712D03*
X04Y036D03*
X027Y03675D03*
X01247Y03487D03*
X0285Y03D03*
X028Y0305D03*
X0285Y03175D03*
X028Y03115D03*
X03518Y03818D03*
X02825Y03825D03*
X02118Y03823D03*
X01418Y03821D03*
X01997Y0345D03*
X01418Y04821D03*
X02118Y04826D03*
X02818Y04821D03*
X03518D03*
X022Y024D03*
X03771Y02588D03*
X0355Y0276D03*
X02693Y02575D03*
X013Y028D03*
X0125D03*
X012D03*
X0115D03*
X018Y0298D03*
X019D03*
X02D03*
X021D03*
X022D03*
X023D03*
X024D03*
X025D03*
X026D03*
G54D34*
X034Y031D03*
X02326Y01269D03*
G54D35*
X0146Y0232D03*
M02*