%FSTAX23Y23*%
%MOIN*%
%SFA1B1*%

%IPPOS*%
%ADD10R,0.033470X0.055120*%
%ADD11R,0.039370X0.013780*%
%ADD12R,0.055120X0.033470*%
%ADD13O,0.021650X0.059060*%
%ADD14R,0.021650X0.059060*%
%ADD15R,0.059060X0.023620*%
%ADD16R,0.051180X0.045280*%
%ADD17R,0.059060X0.051180*%
%ADD18R,0.051180X0.059060*%
%ADD19R,0.110240X0.037400*%
%ADD20R,0.047240X0.137800*%
%ADD21R,0.015980X0.059060*%
%ADD22R,0.059060X0.015980*%
%ADD23R,0.120470X0.035040*%
%ADD24R,0.336220X0.210630*%
%ADD25R,0.039370X0.043310*%
%LNledcube-1*%
%LPD*%
G54D10*
X01584Y049D03*
X015D03*
X01584Y0482D03*
X015D03*
X01584Y0474D03*
X015D03*
X01584Y0466D03*
X015D03*
X01584Y0458D03*
X015D03*
X01584Y045D03*
X015D03*
X01584Y0442D03*
X015D03*
X01582Y0389D03*
X01497D03*
X01582Y0365D03*
X01497D03*
X01582Y0381D03*
X01497D03*
X01582Y0373D03*
X01497D03*
X02284Y039D03*
X022D03*
X02284Y0382D03*
X022D03*
X02284Y0374D03*
X022D03*
X02284Y0366D03*
X022D03*
X02284Y0358D03*
X022D03*
X02284Y035D03*
X022D03*
X02284Y0342D03*
X022D03*
X01582Y0333D03*
X01497D03*
X02284Y0334D03*
X022D03*
X02984Y039D03*
X029D03*
X02984Y0382D03*
X029D03*
X02984Y0374D03*
X029D03*
X02984Y0366D03*
X029D03*
X02984Y0358D03*
X029D03*
X02984Y035D03*
X029D03*
X02984Y0342D03*
X029D03*
X02984Y0334D03*
X029D03*
X03684Y039D03*
X036D03*
X03684Y0382D03*
X036D03*
X03684Y0374D03*
X036D03*
X03684Y0366D03*
X036D03*
X03684Y0358D03*
X036D03*
X03684Y035D03*
X036D03*
X03684Y0342D03*
X036D03*
X03684Y0334D03*
X036D03*
X03047Y012D03*
X03132D03*
X04627Y04458D03*
X04712D03*
X04627Y04157D03*
X04712D03*
X04627Y03855D03*
X04712D03*
X04627Y03554D03*
X04712D03*
X04627Y03252D03*
X04712D03*
X04627Y02951D03*
X04712D03*
X04627Y0265D03*
X04712D03*
X04392Y0471D03*
X04307D03*
X04392Y048D03*
X04307D03*
X04392Y0441D03*
X04307D03*
X04392Y045D03*
X04307D03*
X04392Y0411D03*
X04307D03*
X04392Y042D03*
X04307D03*
X04392Y0381D03*
X04307D03*
X04392Y039D03*
X04307D03*
X04392Y0351D03*
X04307D03*
X04392Y036D03*
X04307D03*
X04392Y0321D03*
X04307D03*
X04392Y033D03*
X04307D03*
X04392Y0291D03*
X04307D03*
X04392Y03D03*
X04307D03*
X04392Y0261D03*
X04307D03*
X04392Y027D03*
X04307D03*
X01582Y0341D03*
X01497D03*
X01582Y0349D03*
X01497D03*
X01582Y0357D03*
X01497D03*
X03684Y0434D03*
X036D03*
X02984D03*
X029D03*
X02284D03*
X022D03*
X01584D03*
X015D03*
X03684Y0442D03*
X036D03*
X02984D03*
X029D03*
X02284D03*
X022D03*
X03684Y045D03*
X036D03*
X02984D03*
X029D03*
X02284D03*
X022D03*
X03684Y0458D03*
X036D03*
X02984D03*
X029D03*
X02284D03*
X022D03*
X03684Y0466D03*
X036D03*
X02984D03*
X029D03*
X02284D03*
X022D03*
X03684Y0474D03*
X036D03*
X02984D03*
X029D03*
X02284D03*
X022D03*
X03684Y0482D03*
X036D03*
X02984D03*
X029D03*
X02284D03*
X022D03*
X03684Y049D03*
X036D03*
X02984D03*
X029D03*
X02284D03*
X022D03*
X03452Y02735D03*
X03367D03*
X03227Y018D03*
X03312D03*
X03377Y0189D03*
X03462D03*
X03227D03*
X03312D03*
X03742Y0223D03*
X03827D03*
X01532Y02409D03*
X01617D03*
X01532Y02321D03*
X01617D03*
X01462Y02408D03*
X01377D03*
X03832Y0289D03*
X03747D03*
X04627Y0476D03*
X04712D03*
X02342Y024D03*
X02257D03*
G54D11*
X02818Y03715D03*
Y03689D03*
Y03663D03*
Y03638D03*
Y03612D03*
Y03587D03*
Y03561D03*
Y03536D03*
Y0351D03*
Y03484D03*
X02581D03*
Y0351D03*
Y03536D03*
Y03561D03*
Y03587D03*
Y03612D03*
Y03638D03*
Y03663D03*
Y03689D03*
Y03715D03*
X03518D03*
Y03689D03*
Y03663D03*
Y03638D03*
Y03612D03*
Y03587D03*
Y03561D03*
Y03536D03*
Y0351D03*
Y03484D03*
X03281D03*
Y0351D03*
Y03536D03*
Y03561D03*
Y03587D03*
Y03612D03*
Y03638D03*
Y03663D03*
Y03689D03*
Y03715D03*
X01418D03*
Y03689D03*
Y03663D03*
Y03638D03*
Y03612D03*
Y03587D03*
Y03561D03*
Y03536D03*
Y0351D03*
Y03484D03*
X01181D03*
Y0351D03*
Y03536D03*
Y03561D03*
Y03587D03*
Y03612D03*
Y03638D03*
Y03663D03*
Y03689D03*
Y03715D03*
X03518Y04715D03*
Y04689D03*
Y04663D03*
Y04638D03*
Y04612D03*
Y04587D03*
Y04561D03*
Y04536D03*
Y0451D03*
Y04484D03*
X03281D03*
Y0451D03*
Y04536D03*
Y04561D03*
Y04587D03*
Y04612D03*
Y04638D03*
Y04663D03*
Y04689D03*
Y04715D03*
X02818D03*
Y04689D03*
Y04663D03*
Y04638D03*
Y04612D03*
Y04587D03*
Y04561D03*
Y04536D03*
Y0451D03*
Y04484D03*
X02581D03*
Y0451D03*
Y04536D03*
Y04561D03*
Y04587D03*
Y04612D03*
Y04638D03*
Y04663D03*
Y04689D03*
Y04715D03*
X02118D03*
Y04689D03*
Y04663D03*
Y04638D03*
Y04612D03*
Y04587D03*
Y04561D03*
Y04536D03*
Y0451D03*
Y04484D03*
X01881D03*
Y0451D03*
Y04536D03*
Y04561D03*
Y04587D03*
Y04612D03*
Y04638D03*
Y04663D03*
Y04689D03*
Y04715D03*
X01418D03*
Y04689D03*
Y04663D03*
Y04638D03*
Y04612D03*
Y04587D03*
Y04561D03*
Y04536D03*
Y0451D03*
Y04484D03*
X01181D03*
Y0451D03*
Y04536D03*
Y04561D03*
Y04587D03*
Y04612D03*
Y04638D03*
Y04663D03*
Y04689D03*
Y04715D03*
X02118Y03715D03*
Y03689D03*
Y03663D03*
Y03638D03*
Y03612D03*
Y03587D03*
Y03561D03*
Y03536D03*
Y0351D03*
Y03484D03*
X01881D03*
Y0351D03*
Y03536D03*
Y03561D03*
Y03587D03*
Y03612D03*
Y03638D03*
Y03663D03*
Y03689D03*
Y03715D03*
G54D12*
X0277Y01528D03*
Y01612D03*
X0319D03*
Y01528D03*
X041Y02512D03*
Y02597D03*
X02437Y02882D03*
Y02797D03*
X02346Y02882D03*
Y02797D03*
X0295Y01922D03*
Y01837D03*
X0268Y01922D03*
Y01837D03*
X01696Y02572D03*
Y02487D03*
X01785Y02572D03*
Y02487D03*
X01696Y02642D03*
Y02727D03*
X01785D03*
Y02642D03*
X02164Y02882D03*
Y02797D03*
X02255Y02882D03*
Y02797D03*
X01696Y02882D03*
Y02797D03*
X01785Y02882D03*
Y02797D03*
G54D13*
X0305Y02912D03*
X03D03*
X0295D03*
X029D03*
X0285D03*
X028D03*
X0275D03*
X027D03*
X0305Y027D03*
X03D03*
X0295D03*
X029D03*
X0285D03*
X028D03*
X0275D03*
X0329Y0201D03*
X0334D03*
X0339D03*
X0344D03*
X0349D03*
X0354D03*
X0359D03*
X0324Y02222D03*
X0329D03*
X0334D03*
X0339D03*
X0344D03*
X0349D03*
X0354D03*
X0359D03*
G54D14*
X027Y027D03*
X0324Y0201D03*
G54D15*
X04545Y0483D03*
X04474Y04792D03*
Y04867D03*
X04545Y0438D03*
X04474Y04342D03*
Y04417D03*
X04545Y0453D03*
X04474Y04492D03*
Y04567D03*
X04545Y0408D03*
X04474Y04042D03*
Y04117D03*
X04545Y0423D03*
X04474Y04192D03*
Y04267D03*
X04545Y0378D03*
X04474Y03742D03*
Y03817D03*
X04545Y0393D03*
X04474Y03892D03*
Y03967D03*
X04545Y0348D03*
X04474Y03442D03*
Y03517D03*
X04545Y0363D03*
X04474Y03592D03*
Y03667D03*
X04545Y0318D03*
X04474Y03142D03*
Y03217D03*
X04545Y0333D03*
X04474Y03292D03*
Y03367D03*
X04545Y0288D03*
X04474Y02842D03*
Y02917D03*
X04545Y0303D03*
X04474Y02992D03*
Y03067D03*
X04545Y0258D03*
X04474Y02542D03*
Y02617D03*
X04545Y0273D03*
X04474Y02692D03*
Y02767D03*
X04545Y0468D03*
X04474Y04642D03*
Y04717D03*
G54D16*
X03105Y01609D03*
Y0153D03*
X0304Y01919D03*
Y0184D03*
X02764Y01919D03*
Y0184D03*
X0268Y01609D03*
Y0153D03*
G54D17*
X011Y04637D03*
Y04562D03*
X018Y04637D03*
Y04562D03*
X025Y04637D03*
Y04562D03*
X032Y04637D03*
Y04562D03*
X011Y03637D03*
Y03562D03*
X018Y03637D03*
Y03562D03*
X025Y03637D03*
Y03562D03*
X032Y03637D03*
Y03562D03*
X0314Y02217D03*
Y02142D03*
G54D18*
X02927Y02575D03*
X02852D03*
G54D19*
X02046Y02745D03*
Y0288D03*
X01902Y02745D03*
Y02881D03*
G54D20*
X0338Y02376D03*
Y02593D03*
G54D21*
X03613Y02778D03*
X03645D03*
X03676D03*
X03708D03*
X03739D03*
X03771D03*
X03802D03*
X03834D03*
X03865D03*
X03897D03*
X03928D03*
Y02326D03*
X03897D03*
X03865D03*
X03834D03*
X03802D03*
X03771D03*
X03739D03*
X03708D03*
X03676D03*
X03645D03*
X03613D03*
G54D22*
X03997Y0271D03*
Y02678D03*
Y02647D03*
Y02615D03*
Y02584D03*
Y02552D03*
Y02521D03*
Y02489D03*
Y02458D03*
Y02426D03*
Y02395D03*
X03545D03*
Y02426D03*
Y02458D03*
Y02489D03*
Y02521D03*
Y02552D03*
Y02584D03*
Y02615D03*
Y02647D03*
Y02678D03*
Y0271D03*
G54D23*
X01571Y02835D03*
Y02785D03*
Y02735D03*
Y02685D03*
Y02635D03*
Y02585D03*
Y02535D03*
G54D24*
X01283Y02685D03*
G54D25*
X0323Y02648D03*
Y02581D03*
Y02388D03*
Y02321D03*
M02*