%FSTAX23Y23*%
%MOIN*%
%SFA1B1*%

%IPPOS*%
%ADD36C,0.040000*%
%ADD37C,0.079370*%
%ADD38C,0.075000*%
%ADD39C,0.090000*%
%ADD40C,0.095000*%
%ADD41C,0.300000*%
%ADD42C,0.055000*%
%LNledcube-1*%
%LPD*%
G54D36*
X01Y01D02*
Y05D01*
X05*
Y01D02*
Y05D01*
X01Y01D02*
X05D01*
G54D37*
X01432Y01611D03*
Y01788D03*
X01832Y01611D03*
Y01788D03*
X02232D03*
Y01611D03*
G54D38*
X038Y032D03*
Y033D03*
Y034D03*
Y035D03*
Y036D03*
Y037D03*
Y038D03*
Y039D03*
X031Y032D03*
Y033D03*
Y034D03*
Y035D03*
Y036D03*
Y037D03*
Y038D03*
Y039D03*
X024Y032D03*
Y033D03*
Y034D03*
Y035D03*
Y036D03*
Y037D03*
Y038D03*
Y039D03*
X017Y032D03*
Y033D03*
Y034D03*
Y035D03*
Y036D03*
Y037D03*
Y038D03*
Y039D03*
X038Y042D03*
Y043D03*
Y044D03*
Y045D03*
Y046D03*
Y047D03*
Y048D03*
Y049D03*
X031Y042D03*
Y043D03*
Y044D03*
Y045D03*
Y046D03*
Y047D03*
Y048D03*
Y049D03*
X024Y042D03*
Y043D03*
Y044D03*
Y045D03*
Y046D03*
Y047D03*
Y048D03*
Y049D03*
X017Y042D03*
Y043D03*
Y044D03*
Y045D03*
Y046D03*
Y047D03*
Y048D03*
Y049D03*
X025Y025D03*
X024D03*
X0189Y0258D03*
Y0248D03*
Y0238D03*
Y0228D03*
Y0218D03*
X0199Y0258D03*
X02785Y022D03*
X02685D03*
X02585D03*
X0484Y0408D03*
Y0398D03*
Y0388D03*
Y0378D03*
Y0368D03*
Y0358D03*
Y0348D03*
Y0338D03*
G54D39*
X0324Y012D03*
X0275D03*
G54D40*
X0125Y021D03*
G54D41*
X034Y031D03*
X02326Y01269D03*
G54D42*
X03017Y02217D03*
X0288Y0197D03*
X0344Y0213D03*
X025Y048D03*
X032D03*
X018D03*
X011Y0472D03*
Y0372D03*
X018Y0383D03*
X032Y038D03*
X025D03*
X027Y017D03*
X0389Y025D03*
X03832Y02957D03*
X03695Y02615D03*
Y02675D03*
X03735Y0271D03*
Y02647D03*
X0371Y02425D03*
X04712Y02552D03*
Y02852D03*
Y03152D03*
Y03452D03*
X04675Y0395D03*
X04712Y04325D03*
X048Y0476D03*
X03397Y03675D03*
Y036D03*
Y03525D03*
Y0345D03*
X0335Y03487D03*
X03347Y03562D03*
X03348Y03637D03*
X03349Y03712D03*
X0265D03*
Y03637D03*
X027Y036D03*
X0265Y03562D03*
X027Y03525D03*
X0265Y03487D03*
X027Y0345D03*
X03397Y0375D03*
X027D03*
X01997D03*
X01947Y03487D03*
X01997Y03525D03*
X01947Y03562D03*
X01997Y036D03*
X01947Y03637D03*
X01997Y03675D03*
X01947Y03712D03*
X01297Y0375D03*
Y0345D03*
Y03525D03*
X01247Y03562D03*
X01297Y036D03*
X01247Y03637D03*
X01297Y03675D03*
X01247Y03712D03*
X01297Y0475D03*
Y0445D03*
X01247Y04487D03*
X01297Y04525D03*
X01247Y04562D03*
X01297Y046D03*
X01247Y04637D03*
X01297Y04675D03*
X01247Y04712D03*
X01997Y0475D03*
Y0445D03*
X01947Y04487D03*
X01997Y04525D03*
X01947Y04562D03*
X01997Y046D03*
X01947Y04637D03*
X01997Y04675D03*
X01947Y04712D03*
X02697Y0475D03*
Y0445D03*
X02647Y04487D03*
X02697Y04525D03*
X02647Y04562D03*
X02697Y046D03*
X02647Y04637D03*
X02697Y04675D03*
X02647Y04712D03*
X03397Y0475D03*
Y0445D03*
X03347Y04487D03*
X03397Y04525D03*
X03347Y04562D03*
X03397Y046D03*
X03347Y04637D03*
X03397Y04675D03*
X03347Y04712D03*
X04125Y0345D03*
X04075Y03525D03*
X0395Y03675D03*
X04025Y0375D03*
X041Y03487D03*
X0405Y03562D03*
X03975Y03637D03*
X03925Y03712D03*
X04Y036D03*
X027Y03675D03*
X01247Y03487D03*
X0285Y03D03*
X028Y0305D03*
X0285Y03175D03*
X028Y03115D03*
X03518Y03818D03*
X02825Y03825D03*
X02118Y03823D03*
X01418Y03821D03*
X01997Y0345D03*
X01418Y04821D03*
X02118Y04826D03*
X02818Y04821D03*
X03518D03*
X022Y024D03*
X03771Y02588D03*
X0355Y0276D03*
X018Y0298D03*
X019D03*
X02D03*
X021D03*
X022D03*
X023D03*
X024D03*
X025D03*
X026D03*
M02*