M48
;Layer_Color=9474304
;FILE_FORMAT=2:5
INCH,LZ
;TYPE=PLATED
T1F00S00C0.01500
T2F00S00C0.02000
T3F00S00C0.03500
T4F00S00C0.03937
T6F00S00C0.25700
%
T01
X0471232Y0255232
Y0285268
X04526Y02804
Y02954
Y03104
Y02654
X04487Y02499
X0389Y025
X0377138Y0258862
X03735Y0264701
Y0271
X03695Y02675
Y02615
X0371Y02425
X0382732Y0215732
X0344Y0213
X0314268Y0231268
X0312937Y0191937
X0323Y0275
X0374768Y0295768
X0383232Y0295768
X0285Y03
X028Y0305
Y03115
X024Y029
Y028252
X022Y024
X030174Y022174
X0288Y0197
X027Y017
X0129721Y0345
Y03525
Y036
Y03675
Y0375
X012472Y037125
Y036375
Y035625
Y034875
X0118189Y0335189
X011Y0372
X0141811Y0382189
X0129721Y0445
Y04525
Y046
Y04675
X012472Y046375
Y045625
Y044875
X0118189Y0435189
X018Y0435
X0188189Y0435189
X019472Y044875
Y045625
Y046375
X0199721Y046
Y04525
Y0445
Y04675
X026472Y046375
Y045625
Y044875
X0269721Y0445
Y04525
Y046
Y04675
X0258189Y0435189
X025Y0435
Y038
X0265Y037125
Y036375
Y035625
Y034875
X027Y03525
Y036
Y03675
Y0375
X02825Y03825
X027Y0345
X0258189Y0335189
X0285Y03175
X0199721Y0345
Y03525
Y036
Y03675
Y0375
X019472Y037125
Y036375
Y035625
Y034875
X0188189Y0335189
X018Y0383
X0211811Y0382311
X032Y038
X0334957Y037125
X0334839Y036375
X033478Y035625
X0335Y034875
X0339721Y03525
Y0345
Y036
Y03675
Y0375
X0351811Y0381811
X03925Y037125
X0395Y03675
X03975Y036375
X04Y036
X0405Y035625
X04075Y03525
X041Y034875
X04125Y0345
X04025Y0375
X04526Y03704
Y03854
Y04004
Y04154
Y04304
Y04454
Y04604
X04675Y0395
X04526Y03554
Y03404
Y03254
X0328189Y0335189
Y0435189
X032Y0435
X033472Y044875
Y045625
Y046375
X0339721Y046
Y04525
Y0445
Y04675
X0471232Y04325
Y0345232
Y0315232
X048Y0476
X0351811Y0482189
X0339721Y0475
X033472Y047125
X032Y048
X0281811Y0482189
X0269721Y0475
X026472Y047125
X025Y048
X0211811Y0482689
X0199721Y0475
X019472Y047125
X018Y048
X0141811Y0482189
X0129721Y0475
X012472Y047125
X011Y0472
T02
X0112Y0257
Y0263
Y0269
Y0275
Y0281
Y0287
Y0293
X0118
Y0287
Y0281
Y0275
Y0269
Y0263
Y0257
X0124
Y0263
Y0269
Y0275
Y0281
Y0287
Y0293
X013
Y0287
Y0281
Y0275
Y0269
Y0263
Y0257
T03
X0189Y0218
Y0228
Y0238
Y0248
Y0258
X0199
Y0248
Y0238
Y0228
Y0218
X02485Y022
X02585
X02685
X02785
X025Y025
X024
Y032
Y033
Y034
Y035
Y036
Y037
Y038
Y039
Y042
Y043
Y044
Y045
Y046
X031
Y045
Y044
Y043
Y042
Y039
Y038
Y037
Y036
Y035
Y034
Y033
Y032
X017
Y033
Y034
Y035
Y036
Y037
Y038
Y039
Y042
Y043
Y044
Y045
Y046
X038
Y045
Y044
Y043
Y042
Y039
Y038
Y037
Y036
Y035
Y034
Y033
Y032
X0484Y0338
Y0348
Y0358
Y0368
Y0378
Y0388
Y0398
Y0408
X038Y047
Y048
Y049
X031
Y048
Y047
X024
Y048
Y049
X017
Y048
Y047
T04
X0180795Y0161142
X0197205
Y0178858
X0180795
X0222795
Y0161142
X0155205
Y0178858
T06
X02326Y01269
X034Y031
M30
