%FSLAX25Y25*%
%MOIN*%
G70*
G01*
G75*
G04 Layer_Physical_Order=1*
G04 Layer_Color=255*
%ADD10R,0.03937X0.04331*%
%ADD11R,0.33622X0.21063*%
%ADD12R,0.12047X0.03504*%
%ADD13R,0.05906X0.01598*%
%ADD14R,0.01598X0.05906*%
%ADD15R,0.05906X0.05118*%
%ADD16R,0.11024X0.03740*%
%ADD17R,0.05906X0.02362*%
%ADD18R,0.03347X0.05512*%
%ADD19R,0.04724X0.13780*%
%ADD20O,0.02165X0.05906*%
%ADD21R,0.02165X0.05906*%
%ADD22R,0.05118X0.04528*%
%ADD23R,0.03937X0.01378*%
%ADD24R,0.05512X0.03347*%
%ADD25R,0.05118X0.05906*%
%ADD26C,0.01000*%
%ADD27R,0.06496X0.06496*%
%ADD28C,0.06496*%
G04:AMPARAMS|DCode=29|XSize=60mil|YSize=85mil|CornerRadius=0mil|HoleSize=0mil|Usage=FLASHONLY|Rotation=90.000|XOffset=0mil|YOffset=0mil|HoleType=Round|Shape=Octagon|*
%AMOCTAGOND29*
4,1,8,-0.04250,-0.01500,-0.04250,0.01500,-0.02750,0.03000,0.02750,0.03000,0.04250,0.01500,0.04250,-0.01500,0.02750,-0.03000,-0.02750,-0.03000,-0.04250,-0.01500,0.0*
%
%ADD29OCTAGOND29*%

G04:AMPARAMS|DCode=30|XSize=60mil|YSize=85mil|CornerRadius=0mil|HoleSize=0mil|Usage=FLASHONLY|Rotation=180.000|XOffset=0mil|YOffset=0mil|HoleType=Round|Shape=Octagon|*
%AMOCTAGOND30*
4,1,8,0.01500,-0.04250,-0.01500,-0.04250,-0.03000,-0.02750,-0.03000,0.02750,-0.01500,0.04250,0.01500,0.04250,0.03000,0.02750,0.03000,-0.02750,0.01500,-0.04250,0.0*
%
%ADD30OCTAGOND30*%

%ADD31C,0.03000*%
%ADD32C,0.08000*%
%ADD33C,0.05000*%
%ADD34C,0.40000*%
%ADD35C,0.10000*%
G36*
X273000Y298905D02*
Y288429D01*
Y287381D01*
X272000Y286333D01*
X253253D01*
X250549Y289037D01*
X250185Y289280D01*
X249756Y289366D01*
X249756Y289366D01*
X247456D01*
Y290917D01*
X244200D01*
Y288244D01*
Y285571D01*
X247456D01*
Y287123D01*
X249291D01*
X251574Y284840D01*
X251000Y284238D01*
X167000D01*
Y282143D01*
X166914Y282053D01*
X166244D01*
Y281351D01*
X165815Y280901D01*
X165779D01*
X165350Y280816D01*
X164987Y280573D01*
X164986Y280573D01*
X164186Y279772D01*
X163724Y279963D01*
Y280852D01*
X150476D01*
Y279000D01*
X150000D01*
X148000Y281095D01*
Y297857D01*
Y298905D01*
X150000Y301000D01*
X271000D01*
X273000Y298905D01*
D02*
G37*
G36*
X349000Y263239D02*
X348538Y263048D01*
X346354Y265232D01*
Y270144D01*
X347505D01*
Y276856D01*
X342959D01*
Y270280D01*
X342497Y270089D01*
X339586Y273000D01*
X337268D01*
Y269744D01*
X339441D01*
X339441Y269744D01*
Y269744D01*
X339603Y269811D01*
X342511Y266903D01*
Y262068D01*
X342511Y262068D01*
X342596Y261638D01*
X342839Y261275D01*
X343303Y260811D01*
X343067Y260370D01*
X342673Y260448D01*
X342673Y260448D01*
X340962D01*
Y266816D01*
X335038D01*
Y260448D01*
X332327D01*
X332327Y260448D01*
X331898Y260363D01*
X331534Y260120D01*
X329535Y258121D01*
X325569D01*
Y260919D01*
X320431D01*
Y255388D01*
X325569D01*
Y255878D01*
X330000D01*
X330000Y255878D01*
X330429Y255964D01*
X330793Y256207D01*
X332791Y258205D01*
X335038D01*
Y251837D01*
X340962D01*
Y258205D01*
X342209D01*
X349000Y251414D01*
Y249586D01*
X341424Y242010D01*
X340962Y242202D01*
Y245163D01*
X335038D01*
Y238795D01*
X332791D01*
X331061Y240525D01*
X330697Y240769D01*
X330268Y240854D01*
X330268Y240854D01*
X325569D01*
Y241612D01*
X320431D01*
Y236081D01*
X325569D01*
Y238611D01*
X329803D01*
X331534Y236880D01*
X331534Y236880D01*
X331898Y236637D01*
X332327Y236552D01*
X332327Y236552D01*
X335038D01*
Y230184D01*
X340962D01*
Y238376D01*
X348538Y245952D01*
X349000Y245761D01*
Y243775D01*
X347654D01*
X347224Y243690D01*
X346860Y243447D01*
X346860Y243446D01*
X343207Y239793D01*
X342964Y239429D01*
X342878Y239000D01*
X342879Y239000D01*
Y228000D01*
X330121D01*
Y231500D01*
X330122Y231500D01*
X330036Y231929D01*
X329793Y232293D01*
X329793Y232293D01*
X329139Y232947D01*
X328776Y233190D01*
X328346Y233275D01*
X328346Y233275D01*
X325969D01*
Y235319D01*
X323500D01*
Y232154D01*
Y228988D01*
X325969D01*
Y231032D01*
X327878D01*
Y228000D01*
X310000D01*
Y263725D01*
X320031D01*
Y261681D01*
X322500D01*
Y264846D01*
Y268012D01*
X320031D01*
Y265968D01*
X310000D01*
Y278000D01*
X349000D01*
Y263239D01*
D02*
G37*
G36*
X156001Y253613D02*
X155978Y253500D01*
X156064Y253071D01*
X156307Y252707D01*
X156671Y252464D01*
X157100Y252379D01*
X165622D01*
X166000Y252000D01*
Y251429D01*
X165844D01*
Y249256D01*
X169600D01*
Y248256D01*
X165844D01*
Y246083D01*
X166000D01*
Y244000D01*
Y206000D01*
X165000Y205000D01*
X160000Y200000D01*
X115000D01*
X114000Y201000D01*
Y224000D01*
X115000Y225000D01*
X156000D01*
X157000Y226000D01*
Y247000D01*
X156000Y248000D01*
X151000D01*
X150000Y249000D01*
Y253000D01*
X151000Y254000D01*
X155684D01*
X156001Y253613D01*
D02*
G37*
%LPC*%
G36*
X234100Y287732D02*
X230844D01*
Y285559D01*
X234100D01*
Y287732D01*
D02*
G37*
G36*
X238356D02*
X235100D01*
Y285559D01*
X238356D01*
Y287732D01*
D02*
G37*
G36*
X225000D02*
X221744D01*
Y285559D01*
X225000D01*
Y287732D01*
D02*
G37*
G36*
X229256D02*
X226000D01*
Y285559D01*
X229256D01*
Y287732D01*
D02*
G37*
G36*
X178000Y287744D02*
X174744D01*
Y285571D01*
X178000D01*
Y287744D01*
D02*
G37*
G36*
X182256D02*
X179000D01*
Y285571D01*
X182256D01*
Y287744D01*
D02*
G37*
G36*
X169100D02*
X165844D01*
Y285571D01*
X169100D01*
Y287744D01*
D02*
G37*
G36*
X173356D02*
X170100D01*
Y285571D01*
X173356D01*
Y287744D01*
D02*
G37*
G36*
X220156Y287732D02*
X216900D01*
Y285559D01*
X220156D01*
Y287732D01*
D02*
G37*
G36*
X336268Y277256D02*
X334095D01*
Y274622D01*
X332500D01*
X332071Y274536D01*
X331707Y274293D01*
X331707Y274293D01*
X329207Y271793D01*
X328964Y271429D01*
X328878Y271000D01*
X328878Y271000D01*
Y268465D01*
X327268Y266854D01*
X325969D01*
Y268012D01*
X323500D01*
Y264846D01*
Y261681D01*
X325969D01*
Y264611D01*
X327732D01*
X327732Y264611D01*
X328162Y264696D01*
X328525Y264939D01*
X330793Y267207D01*
X331036Y267571D01*
X331122Y268000D01*
X331121Y268000D01*
Y270535D01*
X332965Y272378D01*
X334095D01*
Y269744D01*
X336268D01*
Y273500D01*
Y277256D01*
D02*
G37*
G36*
X339441D02*
X337268D01*
Y274000D01*
X339441D01*
Y277256D01*
D02*
G37*
G36*
X322500Y231653D02*
X320031D01*
Y228988D01*
X322500D01*
Y231653D01*
D02*
G37*
G36*
Y235319D02*
X320031D01*
Y232653D01*
X322500D01*
Y235319D01*
D02*
G37*
G36*
X204100Y287591D02*
X198088D01*
Y285221D01*
X204100D01*
Y287591D01*
D02*
G37*
G36*
X196712Y287646D02*
X190700D01*
Y285276D01*
X196712D01*
Y287646D01*
D02*
G37*
G36*
X215900Y287732D02*
X212644D01*
Y285559D01*
X215900D01*
Y287732D01*
D02*
G37*
G36*
X211112Y287591D02*
X205100D01*
Y285221D01*
X211112D01*
Y287591D01*
D02*
G37*
G36*
X189700Y287646D02*
X183688D01*
Y285276D01*
X189700D01*
Y287646D01*
D02*
G37*
G36*
X169100Y290917D02*
X165844D01*
Y288744D01*
X169100D01*
Y290917D01*
D02*
G37*
G36*
X173356D02*
X170100D01*
Y288744D01*
X173356D01*
Y290917D01*
D02*
G37*
G36*
X238356Y290905D02*
X235100D01*
Y288732D01*
X238356D01*
Y290905D01*
D02*
G37*
G36*
X229256D02*
X226000D01*
Y288732D01*
X229256D01*
Y290905D01*
D02*
G37*
G36*
X234100D02*
X230844D01*
Y288732D01*
X234100D01*
Y290905D01*
D02*
G37*
G36*
X269500Y295154D02*
X269187Y295092D01*
X268498Y294631D01*
X268038Y293942D01*
X267877Y293130D01*
Y291760D01*
X269500D01*
Y295154D01*
D02*
G37*
G36*
X270500D02*
Y291760D01*
X272124D01*
Y293130D01*
X271962Y293942D01*
X271501Y294631D01*
X270813Y295092D01*
X270500Y295154D01*
D02*
G37*
G36*
X243200Y290917D02*
X239944D01*
Y288744D01*
X243200D01*
Y290917D01*
D02*
G37*
G36*
X178000D02*
X174744D01*
Y288744D01*
X178000D01*
Y290917D01*
D02*
G37*
G36*
X182256D02*
X179000D01*
Y288744D01*
X182256D01*
Y290917D01*
D02*
G37*
G36*
X204100Y290961D02*
X198088D01*
Y288591D01*
X204100D01*
Y290961D01*
D02*
G37*
G36*
X211112D02*
X205100D01*
Y288591D01*
X211112D01*
Y290961D01*
D02*
G37*
G36*
X272124Y290760D02*
X270500D01*
Y287366D01*
X270813Y287428D01*
X271501Y287888D01*
X271962Y288577D01*
X272124Y289390D01*
Y290760D01*
D02*
G37*
G36*
X243200Y287744D02*
X239944D01*
Y285571D01*
X243200D01*
Y287744D01*
D02*
G37*
G36*
X269500Y290760D02*
X267877D01*
Y289390D01*
X268038Y288577D01*
X268498Y287888D01*
X269187Y287428D01*
X269500Y287366D01*
Y290760D01*
D02*
G37*
G36*
X220156Y290905D02*
X216900D01*
Y288732D01*
X220156D01*
Y290905D01*
D02*
G37*
G36*
X225000D02*
X221744D01*
Y288732D01*
X225000D01*
Y290905D01*
D02*
G37*
G36*
X215900D02*
X212644D01*
Y288732D01*
X215900D01*
Y290905D01*
D02*
G37*
G36*
X189700Y291016D02*
X183688D01*
Y288646D01*
X189700D01*
Y291016D01*
D02*
G37*
G36*
X196712D02*
X190700D01*
Y288646D01*
X196712D01*
Y291016D01*
D02*
G37*
%LPD*%
D10*
X323000Y232154D02*
D03*
Y238846D02*
D03*
Y258154D02*
D03*
Y264846D02*
D03*
D11*
X128340Y268500D02*
D03*
D12*
X157100Y253500D02*
D03*
Y258500D02*
D03*
Y263500D02*
D03*
Y268500D02*
D03*
Y273500D02*
D03*
Y278500D02*
D03*
Y283500D02*
D03*
D13*
X354500Y271000D02*
D03*
Y267850D02*
D03*
Y264701D02*
D03*
Y261551D02*
D03*
Y258402D02*
D03*
Y255252D02*
D03*
Y252102D02*
D03*
Y248953D02*
D03*
Y245803D02*
D03*
Y242653D02*
D03*
Y239504D02*
D03*
X399776D02*
D03*
Y242653D02*
D03*
Y245803D02*
D03*
Y248953D02*
D03*
Y252102D02*
D03*
Y255252D02*
D03*
Y258402D02*
D03*
Y261551D02*
D03*
Y264701D02*
D03*
Y267850D02*
D03*
Y271000D02*
D03*
D14*
X361390Y232614D02*
D03*
X364539D02*
D03*
X367689D02*
D03*
X370839D02*
D03*
X373988D02*
D03*
X377138D02*
D03*
X380287D02*
D03*
X383437D02*
D03*
X386587D02*
D03*
X389736D02*
D03*
X392886D02*
D03*
Y277890D02*
D03*
X389736D02*
D03*
X386587D02*
D03*
X383437D02*
D03*
X380287D02*
D03*
X377138D02*
D03*
X373988D02*
D03*
X370839D02*
D03*
X367689D02*
D03*
X364539D02*
D03*
X361390D02*
D03*
D15*
X314000Y214260D02*
D03*
Y221740D02*
D03*
X320000Y356260D02*
D03*
Y363740D02*
D03*
X250000Y356260D02*
D03*
Y363740D02*
D03*
X180000Y356260D02*
D03*
Y363740D02*
D03*
X110000Y356260D02*
D03*
Y363740D02*
D03*
X320000Y456260D02*
D03*
Y463740D02*
D03*
X250000Y456260D02*
D03*
Y463740D02*
D03*
X180000Y456260D02*
D03*
Y463740D02*
D03*
X110000Y456260D02*
D03*
Y463740D02*
D03*
D16*
X190200Y288146D02*
D03*
Y274563D02*
D03*
X204600Y288091D02*
D03*
Y274509D02*
D03*
D17*
X447457Y471740D02*
D03*
Y464260D02*
D03*
X454543Y468000D02*
D03*
X447457Y276740D02*
D03*
Y269260D02*
D03*
X454543Y273000D02*
D03*
X447457Y261740D02*
D03*
Y254260D02*
D03*
X454543Y258000D02*
D03*
X447457Y306740D02*
D03*
Y299260D02*
D03*
X454543Y303000D02*
D03*
X447457Y291740D02*
D03*
Y284260D02*
D03*
X454543Y288000D02*
D03*
X447457Y336740D02*
D03*
Y329260D02*
D03*
X454543Y333000D02*
D03*
X447457Y321740D02*
D03*
Y314260D02*
D03*
X454543Y318000D02*
D03*
X447457Y366740D02*
D03*
Y359260D02*
D03*
X454543Y363000D02*
D03*
X447457Y351740D02*
D03*
Y344260D02*
D03*
X454543Y348000D02*
D03*
X447457Y396740D02*
D03*
Y389260D02*
D03*
X454543Y393000D02*
D03*
X447457Y381740D02*
D03*
Y374260D02*
D03*
X454543Y378000D02*
D03*
X447457Y426740D02*
D03*
Y419260D02*
D03*
X454543Y423000D02*
D03*
X447457Y411740D02*
D03*
Y404260D02*
D03*
X454543Y408000D02*
D03*
X447457Y456740D02*
D03*
Y449260D02*
D03*
X454543Y453000D02*
D03*
X447457Y441740D02*
D03*
Y434260D02*
D03*
X454543Y438000D02*
D03*
X447457Y486740D02*
D03*
Y479260D02*
D03*
X454543Y483000D02*
D03*
D18*
X471232Y476000D02*
D03*
X462768D02*
D03*
X374768Y289000D02*
D03*
X383232D02*
D03*
X137768Y240800D02*
D03*
X146232D02*
D03*
X161732Y232100D02*
D03*
X153268D02*
D03*
X161732Y240900D02*
D03*
X153268D02*
D03*
X382732Y223000D02*
D03*
X374268D02*
D03*
X331232Y189000D02*
D03*
X322768D02*
D03*
X346232D02*
D03*
X337768D02*
D03*
X331232Y180000D02*
D03*
X322768D02*
D03*
X336768Y273500D02*
D03*
X345232D02*
D03*
X220000Y490000D02*
D03*
X228465D02*
D03*
X290000D02*
D03*
X298465D02*
D03*
X360000D02*
D03*
X368465D02*
D03*
X220000Y482000D02*
D03*
X228465D02*
D03*
X290000D02*
D03*
X298465D02*
D03*
X360000D02*
D03*
X368465D02*
D03*
X220000Y474000D02*
D03*
X228465D02*
D03*
X290000D02*
D03*
X298465D02*
D03*
X360000D02*
D03*
X368465D02*
D03*
X220000Y466000D02*
D03*
X228465D02*
D03*
X290000D02*
D03*
X298465D02*
D03*
X360000D02*
D03*
X368465D02*
D03*
X220000Y458000D02*
D03*
X228465D02*
D03*
X290000D02*
D03*
X298465D02*
D03*
X360000D02*
D03*
X368465D02*
D03*
X220000Y450000D02*
D03*
X228465D02*
D03*
X290000D02*
D03*
X298465D02*
D03*
X360000D02*
D03*
X368465D02*
D03*
X220000Y442000D02*
D03*
X228465D02*
D03*
X290000D02*
D03*
X298465D02*
D03*
X360000D02*
D03*
X368465D02*
D03*
X150000Y434000D02*
D03*
X158465D02*
D03*
X220000D02*
D03*
X228465D02*
D03*
X290000D02*
D03*
X298465D02*
D03*
X360000D02*
D03*
X368465D02*
D03*
X149768Y357000D02*
D03*
X158232D02*
D03*
X149768Y349000D02*
D03*
X158232D02*
D03*
X149768Y341000D02*
D03*
X158232D02*
D03*
X430768Y270000D02*
D03*
X439232D02*
D03*
X430768Y261000D02*
D03*
X439232D02*
D03*
X430768Y300000D02*
D03*
X439232D02*
D03*
X430768Y291000D02*
D03*
X439232D02*
D03*
X430768Y330000D02*
D03*
X439232D02*
D03*
X430768Y321000D02*
D03*
X439232D02*
D03*
X430768Y360000D02*
D03*
X439232D02*
D03*
X430768Y351000D02*
D03*
X439232D02*
D03*
X430768Y390000D02*
D03*
X439232D02*
D03*
X430768Y381000D02*
D03*
X439232D02*
D03*
X430768Y420000D02*
D03*
X439232D02*
D03*
X430768Y411000D02*
D03*
X439232D02*
D03*
X430768Y450000D02*
D03*
X439232D02*
D03*
X430768Y441000D02*
D03*
X439232D02*
D03*
X430768Y480000D02*
D03*
X439232D02*
D03*
X430768Y471000D02*
D03*
X439232D02*
D03*
X471232Y265000D02*
D03*
X462768D02*
D03*
X471232Y295143D02*
D03*
X462768D02*
D03*
X471232Y325286D02*
D03*
X462768D02*
D03*
X471232Y355429D02*
D03*
X462768D02*
D03*
X471232Y385571D02*
D03*
X462768D02*
D03*
X471232Y415714D02*
D03*
X462768D02*
D03*
X471232Y445857D02*
D03*
X462768D02*
D03*
X313232Y120000D02*
D03*
X304768D02*
D03*
X360000Y334000D02*
D03*
X368465D02*
D03*
X360000Y342000D02*
D03*
X368465D02*
D03*
X360000Y350000D02*
D03*
X368465D02*
D03*
X360000Y358000D02*
D03*
X368465D02*
D03*
X360000Y366000D02*
D03*
X368465D02*
D03*
X360000Y374000D02*
D03*
X368465D02*
D03*
X360000Y382000D02*
D03*
X368465D02*
D03*
X360000Y390000D02*
D03*
X368465D02*
D03*
X290000Y334000D02*
D03*
X298465D02*
D03*
X290000Y342000D02*
D03*
X298465D02*
D03*
X290000Y350000D02*
D03*
X298465D02*
D03*
X290000Y358000D02*
D03*
X298465D02*
D03*
X290000Y366000D02*
D03*
X298465D02*
D03*
X290000Y374000D02*
D03*
X298465D02*
D03*
X290000Y382000D02*
D03*
X298465D02*
D03*
X290000Y390000D02*
D03*
X298465D02*
D03*
X220000Y334000D02*
D03*
X228465D02*
D03*
X149768Y333000D02*
D03*
X158232D02*
D03*
X220000Y342000D02*
D03*
X228465D02*
D03*
X220000Y350000D02*
D03*
X228465D02*
D03*
X220000Y358000D02*
D03*
X228465D02*
D03*
X220000Y366000D02*
D03*
X228465D02*
D03*
X220000Y374000D02*
D03*
X228465D02*
D03*
X220000Y382000D02*
D03*
X228465D02*
D03*
X220000Y390000D02*
D03*
X228465D02*
D03*
X149768Y373000D02*
D03*
X158232D02*
D03*
X149768Y381000D02*
D03*
X158232D02*
D03*
X149768Y365000D02*
D03*
X158232D02*
D03*
X149768Y389000D02*
D03*
X158232D02*
D03*
X150000Y442000D02*
D03*
X158465D02*
D03*
X150000Y450000D02*
D03*
X158465D02*
D03*
X150000Y458000D02*
D03*
X158465D02*
D03*
X150000Y466000D02*
D03*
X158465D02*
D03*
X150000Y474000D02*
D03*
X158465D02*
D03*
X150000Y482000D02*
D03*
X158465D02*
D03*
X150000Y490000D02*
D03*
X158465D02*
D03*
X225768Y240000D02*
D03*
X234232D02*
D03*
D19*
X338000Y259327D02*
D03*
Y237673D02*
D03*
D20*
X359000Y222260D02*
D03*
X354000D02*
D03*
X349000D02*
D03*
X344000D02*
D03*
X339000D02*
D03*
X334000D02*
D03*
X329000D02*
D03*
X324000D02*
D03*
X359000Y201000D02*
D03*
X354000D02*
D03*
X349000D02*
D03*
X344000D02*
D03*
X339000D02*
D03*
X334000D02*
D03*
X329000D02*
D03*
X275000Y270000D02*
D03*
X280000D02*
D03*
X285000D02*
D03*
X290000D02*
D03*
X295000D02*
D03*
X300000D02*
D03*
X305000D02*
D03*
X270000Y291260D02*
D03*
X275000D02*
D03*
X280000D02*
D03*
X285000D02*
D03*
X290000D02*
D03*
X295000D02*
D03*
X300000D02*
D03*
X305000D02*
D03*
D21*
X324000Y201000D02*
D03*
X270000Y270000D02*
D03*
D22*
X268000Y153063D02*
D03*
Y160937D02*
D03*
X276445Y184063D02*
D03*
Y191937D02*
D03*
X304000Y184063D02*
D03*
Y191937D02*
D03*
X310500Y153063D02*
D03*
Y160937D02*
D03*
D23*
X188189Y371516D02*
D03*
Y368957D02*
D03*
Y366398D02*
D03*
Y363839D02*
D03*
Y361279D02*
D03*
Y358720D02*
D03*
Y356161D02*
D03*
Y353602D02*
D03*
Y351043D02*
D03*
Y348484D02*
D03*
X211811Y348484D02*
D03*
Y351043D02*
D03*
Y353602D02*
D03*
Y356161D02*
D03*
Y358720D02*
D03*
Y361279D02*
D03*
Y363838D02*
D03*
Y366398D02*
D03*
Y368957D02*
D03*
Y371516D02*
D03*
X118189Y471516D02*
D03*
Y468957D02*
D03*
Y466397D02*
D03*
Y463838D02*
D03*
Y461279D02*
D03*
Y458720D02*
D03*
Y456161D02*
D03*
Y453602D02*
D03*
Y451043D02*
D03*
Y448484D02*
D03*
X141811Y448484D02*
D03*
Y451043D02*
D03*
Y453602D02*
D03*
Y456161D02*
D03*
Y458720D02*
D03*
Y461279D02*
D03*
Y463838D02*
D03*
Y466397D02*
D03*
Y468957D02*
D03*
Y471516D02*
D03*
X188189Y471516D02*
D03*
Y468957D02*
D03*
Y466397D02*
D03*
Y463838D02*
D03*
Y461279D02*
D03*
Y458720D02*
D03*
Y456161D02*
D03*
Y453602D02*
D03*
Y451043D02*
D03*
Y448484D02*
D03*
X211811Y448484D02*
D03*
Y451043D02*
D03*
Y453602D02*
D03*
Y456161D02*
D03*
Y458720D02*
D03*
Y461279D02*
D03*
Y463838D02*
D03*
Y466397D02*
D03*
Y468957D02*
D03*
Y471516D02*
D03*
X258189Y471516D02*
D03*
Y468957D02*
D03*
Y466397D02*
D03*
Y463838D02*
D03*
Y461279D02*
D03*
Y458720D02*
D03*
Y456161D02*
D03*
Y453602D02*
D03*
Y451043D02*
D03*
Y448484D02*
D03*
X281811Y448484D02*
D03*
Y451043D02*
D03*
Y453602D02*
D03*
Y456161D02*
D03*
Y458720D02*
D03*
Y461279D02*
D03*
Y463838D02*
D03*
Y466397D02*
D03*
Y468957D02*
D03*
Y471516D02*
D03*
X328189Y471516D02*
D03*
Y468957D02*
D03*
Y466397D02*
D03*
Y463838D02*
D03*
Y461279D02*
D03*
Y458720D02*
D03*
Y456161D02*
D03*
Y453602D02*
D03*
Y451043D02*
D03*
Y448484D02*
D03*
X351811Y448484D02*
D03*
Y451043D02*
D03*
Y453602D02*
D03*
Y456161D02*
D03*
Y458720D02*
D03*
Y461279D02*
D03*
Y463838D02*
D03*
Y466397D02*
D03*
Y468957D02*
D03*
Y471516D02*
D03*
X118189Y371516D02*
D03*
Y368957D02*
D03*
Y366398D02*
D03*
Y363839D02*
D03*
Y361279D02*
D03*
Y358720D02*
D03*
Y356161D02*
D03*
Y353602D02*
D03*
Y351043D02*
D03*
Y348484D02*
D03*
X141811Y348484D02*
D03*
Y351043D02*
D03*
Y353602D02*
D03*
Y356161D02*
D03*
Y358720D02*
D03*
Y361279D02*
D03*
Y363838D02*
D03*
Y366398D02*
D03*
Y368957D02*
D03*
Y371516D02*
D03*
X328189Y371516D02*
D03*
Y368957D02*
D03*
Y366398D02*
D03*
Y363839D02*
D03*
Y361279D02*
D03*
Y358720D02*
D03*
Y356161D02*
D03*
Y353602D02*
D03*
Y351043D02*
D03*
Y348484D02*
D03*
X351811Y348484D02*
D03*
Y351043D02*
D03*
Y353602D02*
D03*
Y356161D02*
D03*
Y358720D02*
D03*
Y361279D02*
D03*
Y363838D02*
D03*
Y366398D02*
D03*
Y368957D02*
D03*
Y371516D02*
D03*
X258189Y371516D02*
D03*
Y368957D02*
D03*
Y366398D02*
D03*
Y363839D02*
D03*
Y361279D02*
D03*
Y358720D02*
D03*
Y356161D02*
D03*
Y353602D02*
D03*
Y351043D02*
D03*
Y348484D02*
D03*
X281811Y348484D02*
D03*
Y351043D02*
D03*
Y353602D02*
D03*
Y356161D02*
D03*
Y358720D02*
D03*
Y361279D02*
D03*
Y363838D02*
D03*
Y366398D02*
D03*
Y368957D02*
D03*
Y371516D02*
D03*
D24*
X178500Y279780D02*
D03*
Y288244D02*
D03*
X169600Y279780D02*
D03*
Y288244D02*
D03*
X225500Y279768D02*
D03*
Y288232D02*
D03*
X216400Y279768D02*
D03*
Y288232D02*
D03*
X178500Y264268D02*
D03*
Y272732D02*
D03*
X169600Y272732D02*
D03*
Y264268D02*
D03*
X178500Y248756D02*
D03*
Y257221D02*
D03*
X169600Y248756D02*
D03*
Y257221D02*
D03*
X268000Y183768D02*
D03*
Y192232D02*
D03*
X295000Y183768D02*
D03*
Y192232D02*
D03*
X234600Y279768D02*
D03*
Y288232D02*
D03*
X243700Y279780D02*
D03*
Y288244D02*
D03*
X410000Y259732D02*
D03*
Y251268D02*
D03*
X319000Y152815D02*
D03*
Y161279D02*
D03*
X277000D02*
D03*
Y152815D02*
D03*
D25*
X285260Y257500D02*
D03*
X292740D02*
D03*
D26*
X334780Y356250D02*
X336600D01*
X339648Y371250D02*
X342321Y373923D01*
X336600Y371250D02*
X339648D01*
X334957D02*
X336600D01*
X332663Y368957D02*
X334957Y371250D01*
X335463Y348800D02*
X336600D01*
X330661Y353602D02*
X335463Y348800D01*
X335073Y345000D02*
X339721D01*
X332400Y347673D02*
X335073Y345000D01*
X332400Y347673D02*
Y349600D01*
X264780Y356250D02*
X266700D01*
X264957Y371250D02*
X266700D01*
X265563Y348700D02*
X266700D01*
X262400Y347673D02*
X265073Y345000D01*
X262400Y347673D02*
Y349600D01*
X265073Y345000D02*
X269721D01*
X194780Y356250D02*
X196200D01*
X194957Y371250D02*
X196200D01*
X122400Y347673D02*
X125073Y345000D01*
X122400Y347673D02*
Y349600D01*
X125073Y345000D02*
X129721D01*
X188318Y461150D02*
X198571D01*
X188189Y461279D02*
X188318Y461150D01*
X188189Y466397D02*
X198618D01*
X169600Y248756D02*
Y251400D01*
X167500Y253500D02*
X169600Y251400D01*
X157100Y253500D02*
X167500D01*
X331000Y451000D02*
X332000Y450000D01*
Y446000D02*
Y450000D01*
Y446000D02*
X333000Y445000D01*
X234600Y279768D02*
X243688D01*
X216400D02*
X225500D01*
X206768D02*
X216400D01*
X225500D02*
X234600D01*
X204546Y277546D02*
X206768Y279768D01*
X204546Y274563D02*
Y277546D01*
X190200Y274563D02*
X204546D01*
X243700Y288244D02*
X249756D01*
X253000Y285000D01*
X263000D01*
X265000Y283000D01*
Y266000D02*
Y283000D01*
X260000Y261000D02*
X265000Y266000D01*
X255000Y261000D02*
X260000D01*
X250000Y256000D02*
X255000Y261000D01*
X250000Y250000D02*
Y256000D01*
X343632Y262068D02*
Y267368D01*
X337500Y273500D02*
X343632Y267368D01*
X336768Y273500D02*
X337500D01*
X248795Y161142D02*
X261417D01*
X323000Y265732D02*
X327732D01*
X305000Y268000D02*
Y270000D01*
Y268000D02*
X308154Y264846D01*
X323000D01*
X328346Y232154D02*
X329000Y231500D01*
X323000Y232154D02*
X328346D01*
X357890Y277890D02*
X361390D01*
X356000Y276000D02*
X357890Y277890D01*
X355000Y276000D02*
X356000D01*
X223205Y161142D02*
Y178858D01*
X183205Y161142D02*
Y178858D01*
X143205Y161142D02*
Y178858D01*
X250000Y243000D02*
Y250000D01*
X247000Y240000D02*
X250000Y243000D01*
X234232Y240000D02*
X247000D01*
X220000D02*
X225768D01*
X146000Y232000D02*
X153168D01*
X128340Y268500D02*
X157100D01*
X213900Y233900D02*
X220000Y240000D01*
X195794Y233900D02*
X213900D01*
X191694Y238000D02*
X195794Y233900D01*
X189000Y238000D02*
X191694D01*
X377138Y232614D02*
Y258862D01*
X354500Y258402D02*
X376677D01*
X292740Y252740D02*
Y257500D01*
X290000Y250000D02*
X292740Y252740D01*
X250000Y250000D02*
X290000D01*
X332500Y273500D02*
X336768D01*
X330000Y271000D02*
X332500Y273500D01*
X330000Y268000D02*
Y271000D01*
X327732Y265732D02*
X330000Y268000D01*
X314000Y221740D02*
X323480D01*
X339000Y218237D02*
Y222260D01*
X268500Y220000D02*
X271194D01*
X334000Y215500D02*
Y222260D01*
X268000Y153063D02*
X276752D01*
X364539Y157539D02*
Y232614D01*
X359815Y152815D02*
X364539Y157539D01*
X319000Y152815D02*
X359815D01*
X354500Y245803D02*
X358197D01*
X359500Y244500D01*
Y237500D02*
Y244500D01*
X349000Y227000D02*
X359500Y237500D01*
X349000Y222260D02*
Y227000D01*
X347654Y242653D02*
X354500D01*
X344000Y239000D02*
X347654Y242653D01*
X344000Y222260D02*
Y239000D01*
X345232Y264768D02*
Y273500D01*
Y264768D02*
X351598Y258402D01*
X354500D01*
X351811Y471516D02*
Y482189D01*
X281811Y471516D02*
Y482189D01*
X211811Y471516D02*
Y482689D01*
X141811Y471516D02*
Y482189D01*
X188189Y351043D02*
X190957D01*
X192120Y349880D01*
Y347673D02*
X194793Y345000D01*
X199721D01*
X192120Y347673D02*
Y349880D01*
X141811Y371516D02*
Y382189D01*
X211811Y371516D02*
Y382311D01*
X281811Y381811D02*
X282500Y382500D01*
X281811Y371516D02*
Y381811D01*
X281500Y390000D02*
X290000D01*
X278743Y387243D02*
X281500Y390000D01*
X278743Y370371D02*
Y387243D01*
X351811Y371516D02*
Y381811D01*
X136000Y342673D02*
X141811Y348484D01*
X136000Y322000D02*
Y342673D01*
Y322000D02*
X150000Y308000D01*
X134100Y321637D02*
X149337Y306400D01*
X158232Y331768D02*
X170000Y320000D01*
X158232Y331768D02*
Y333000D01*
X159000Y341000D02*
X170000Y330000D01*
X158232Y341000D02*
X159000D01*
X161000Y349000D02*
X170000Y340000D01*
X158232Y349000D02*
X161000D01*
X163000Y357000D02*
X170000Y350000D01*
X158232Y357000D02*
X163000D01*
X165000Y365000D02*
X170000Y360000D01*
X158232Y365000D02*
X165000D01*
X167000Y373000D02*
X170000Y370000D01*
X158232Y373000D02*
X167000D01*
X158232Y381000D02*
X169000D01*
X158232Y389000D02*
X169000D01*
X228465Y331535D02*
X240000Y320000D01*
X228465Y331535D02*
Y334000D01*
Y341535D02*
X240000Y330000D01*
X228465Y341535D02*
Y342000D01*
X230000Y350000D02*
X240000Y340000D01*
X228465Y350000D02*
X230000D01*
X232000Y358000D02*
X240000Y350000D01*
X228465Y358000D02*
X232000D01*
X234000Y366000D02*
X240000Y360000D01*
X228465Y366000D02*
X234000D01*
X236000Y374000D02*
X240000Y370000D01*
X228465Y374000D02*
X236000D01*
X228465Y382000D02*
X238000D01*
X228465Y390000D02*
X240000D01*
X298465Y331535D02*
X310000Y320000D01*
X298465Y331535D02*
Y334000D01*
Y341535D02*
X310000Y330000D01*
X298465Y341535D02*
Y342000D01*
X300000Y350000D02*
X310000Y340000D01*
X298465Y350000D02*
X300000D01*
X302000Y358000D02*
X310000Y350000D01*
X298465Y358000D02*
X302000D01*
X304000Y366000D02*
X310000Y360000D01*
X298465Y366000D02*
X304000D01*
X306000Y374000D02*
X310000Y370000D01*
X298465Y374000D02*
X306000D01*
X298465Y382000D02*
X308000D01*
X298465Y390000D02*
X310000D01*
X355627Y338373D02*
Y350000D01*
Y338373D02*
X360000Y334000D01*
X281800Y279300D02*
X351851D01*
X277400Y280900D02*
X351188D01*
X273500Y282500D02*
X350525D01*
X272837Y284100D02*
X349863D01*
X356851Y284300D02*
X366000D01*
X351851Y279300D02*
X356851Y284300D01*
X356188Y285900D02*
X369337D01*
X351188Y280900D02*
X356188Y285900D01*
X355525Y287500D02*
X370000D01*
X350525Y282500D02*
X355525Y287500D01*
X291800Y285700D02*
X349200D01*
X351811Y348484D02*
X354000Y346295D01*
X158465Y431535D02*
X170000Y420000D01*
X158465Y431535D02*
Y434000D01*
Y441535D02*
X170000Y430000D01*
X158465Y441535D02*
Y442000D01*
X160000Y450000D02*
X170000Y440000D01*
X158465Y450000D02*
X160000D01*
X162000Y458000D02*
X170000Y450000D01*
X158465Y458000D02*
X162000D01*
X164000Y466000D02*
X170000Y460000D01*
X158465Y466000D02*
X164000D01*
X166000Y474000D02*
X170000Y470000D01*
X158465Y474000D02*
X166000D01*
X168000Y482000D02*
X170000Y480000D01*
X158465Y482000D02*
X168000D01*
X158465Y490000D02*
X170000D01*
X228465Y431535D02*
X240000Y420000D01*
X228465Y431535D02*
Y434000D01*
Y441535D02*
X240000Y430000D01*
X228465Y441535D02*
Y442000D01*
X230000Y450000D02*
X240000Y440000D01*
X228465Y450000D02*
X230000D01*
X232000Y458000D02*
X240000Y450000D01*
X228465Y458000D02*
X232000D01*
X234000Y466000D02*
X240000Y460000D01*
X228465Y466000D02*
X234000D01*
X236000Y474000D02*
X240000Y470000D01*
X228465Y474000D02*
X236000D01*
X228465Y482000D02*
X238000D01*
X228465Y490000D02*
X240000D01*
X298465Y431535D02*
X310000Y420000D01*
X298465Y431535D02*
Y434000D01*
Y441535D02*
X310000Y430000D01*
X298465Y441535D02*
Y442000D01*
X300000Y450000D02*
X310000Y440000D01*
X298465Y450000D02*
X300000D01*
X302000Y458000D02*
X310000Y450000D01*
X298465Y458000D02*
X302000D01*
X304000Y466000D02*
X310000Y460000D01*
X298465Y466000D02*
X304000D01*
X306000Y474000D02*
X310000Y470000D01*
X298465Y474000D02*
X306000D01*
X298465Y482000D02*
X308000D01*
X298465Y490000D02*
X310000D01*
X368465Y431535D02*
X380000Y420000D01*
X368465Y431535D02*
Y434000D01*
X380000Y430000D02*
Y430465D01*
X368465Y442000D02*
X380000Y430465D01*
X370000Y450000D02*
X380000Y440000D01*
X368465Y450000D02*
X370000D01*
X372000Y458000D02*
X380000Y450000D01*
X368465Y458000D02*
X372000D01*
X374000Y466000D02*
X380000Y460000D01*
X368465Y466000D02*
X374000D01*
X376000Y474000D02*
X380000Y470000D01*
X368465Y474000D02*
X376000D01*
X368465Y482000D02*
X378000D01*
X368465Y490000D02*
X380000D01*
X355627Y438373D02*
X360000Y434000D01*
X355627Y438373D02*
Y449873D01*
X354457Y451043D02*
X355627Y449873D01*
X351811Y451043D02*
X354457D01*
X357227Y446144D02*
X360000Y443371D01*
X357227Y446144D02*
Y451881D01*
X355506Y453602D02*
X357227Y451881D01*
X351811Y453602D02*
X355506D01*
X357227Y454144D02*
X360000Y451371D01*
X357227Y454144D02*
Y455500D01*
X356566Y456161D02*
X357227Y455500D01*
X351811Y456161D02*
X356566D01*
X345000Y490000D02*
X360000D01*
X342500Y487500D02*
X345000Y490000D01*
X342500Y471500D02*
Y487500D01*
Y471500D02*
X345043Y468957D01*
X351811D01*
X355627Y477627D02*
X360000Y482000D01*
X355627Y467500D02*
Y477627D01*
X354524Y466397D02*
X355627Y467500D01*
X351811Y466397D02*
X354524D01*
X357227Y469856D02*
X360000Y472629D01*
X357227Y465500D02*
Y469856D01*
X355565Y463838D02*
X357227Y465500D01*
X351811Y463838D02*
X355565D01*
X355279Y461279D02*
X360000Y466000D01*
X351811Y461279D02*
X355279D01*
X351811Y458720D02*
X359280D01*
X285627Y438373D02*
X290000Y434000D01*
X285627Y438373D02*
Y450000D01*
X284584Y451043D02*
X285627Y450000D01*
X281811Y451043D02*
X284584D01*
X287227Y446144D02*
X290000Y443371D01*
X287227Y446144D02*
Y451881D01*
X285506Y453602D02*
X287227Y451881D01*
X281811Y453602D02*
X285506D01*
X287227Y454144D02*
X290000Y451371D01*
X287227Y454144D02*
Y455500D01*
X286566Y456161D02*
X287227Y455500D01*
X281811Y456161D02*
X286566D01*
X275000Y490000D02*
X290000D01*
X272500Y487500D02*
X275000Y490000D01*
X272500Y471500D02*
Y487500D01*
Y471500D02*
X275043Y468957D01*
X281811D01*
X287227Y479227D02*
X290000Y482000D01*
X287227Y472119D02*
Y479227D01*
X285627Y470519D02*
X287227Y472119D01*
X285627Y467500D02*
Y470519D01*
X284524Y466397D02*
X285627Y467500D01*
X281811Y466397D02*
X284524D01*
X290000Y472629D02*
Y474000D01*
X287227Y469856D02*
X290000Y472629D01*
X287227Y465000D02*
Y469856D01*
X286065Y463838D02*
X287227Y465000D01*
X281811Y463838D02*
X286065D01*
X287279Y461279D02*
X290000Y464000D01*
X281811Y461279D02*
X287279D01*
X281811Y458720D02*
X289280D01*
X205000Y490000D02*
X220000D01*
X202500Y487500D02*
X205000Y490000D01*
X202500Y471000D02*
Y487500D01*
Y471000D02*
X204543Y468957D01*
X211811D01*
X215627Y477627D02*
X220000Y482000D01*
X215627Y467000D02*
Y477627D01*
X215024Y466397D02*
X215627Y467000D01*
X211811Y466397D02*
X215024D01*
X217227Y469856D02*
X220000Y472629D01*
X217227Y465500D02*
Y469856D01*
X215565Y463838D02*
X217227Y465500D01*
X211811Y463838D02*
X215565D01*
X215279Y461279D02*
X220000Y466000D01*
X211811Y461279D02*
X215279D01*
X215627Y438373D02*
X220000Y434000D01*
X215627Y438373D02*
Y450000D01*
X214584Y451043D02*
X215627Y450000D01*
X211811Y451043D02*
X214584D01*
X217227Y446144D02*
X220000Y443371D01*
X217227Y446144D02*
Y451881D01*
X215506Y453602D02*
X217227Y451881D01*
X211811Y453602D02*
X215506D01*
X217227Y454144D02*
X220000Y451371D01*
X217227Y454144D02*
Y455500D01*
X216566Y456161D02*
X217227Y455500D01*
X211811Y456161D02*
X216566D01*
X211811Y458720D02*
X219280D01*
X145627Y438373D02*
X150000Y434000D01*
X145627Y438373D02*
Y450000D01*
X144627Y451000D02*
X145627Y450000D01*
X141854Y451000D02*
X144627D01*
X141811Y451043D02*
X141854Y451000D01*
X147227Y446144D02*
X150000Y443371D01*
X147227Y446144D02*
Y451881D01*
X145506Y453602D02*
X147227Y451881D01*
X141811Y453602D02*
X145506D01*
X150000Y450000D02*
Y451371D01*
X147227Y454144D02*
X150000Y451371D01*
X147227Y454144D02*
Y455000D01*
X146066Y456161D02*
X147227Y455000D01*
X141811Y456161D02*
X146066D01*
X141811Y458720D02*
X149280D01*
X137500Y490000D02*
X150000D01*
X135000Y487500D02*
X137500Y490000D01*
X135000Y471000D02*
Y487500D01*
Y471000D02*
X137043Y468957D01*
X141811D01*
X145627Y477627D02*
X150000Y482000D01*
X145627Y467500D02*
Y477627D01*
X144524Y466397D02*
X145627Y467500D01*
X141811Y466397D02*
X144524D01*
X150000Y472629D02*
Y474000D01*
X147227Y469856D02*
X150000Y472629D01*
X147227Y465500D02*
Y469856D01*
X145565Y463838D02*
X147227Y465500D01*
X141811Y463838D02*
X145565D01*
X145279Y461279D02*
X150000Y466000D01*
X141811Y461279D02*
X145279D01*
X220000Y334000D02*
Y335371D01*
X215627Y339744D02*
X220000Y335371D01*
X215627Y339744D02*
Y350000D01*
X214627Y351000D02*
X215627Y350000D01*
X211854Y351000D02*
X214627D01*
X211811Y351043D02*
X211854Y351000D01*
X217227Y346144D02*
X220000Y343371D01*
X217227Y346144D02*
Y351881D01*
X215506Y353602D02*
X217227Y351881D01*
X211811Y353602D02*
X215506D01*
X217227Y354144D02*
X220000Y351371D01*
X217227Y354144D02*
Y355500D01*
X216566Y356161D02*
X217227Y355500D01*
X211811Y356161D02*
X216566D01*
X211811Y358720D02*
X219280D01*
X145395Y339388D02*
X149768Y335015D01*
X145395Y339388D02*
Y350000D01*
X144352Y351043D02*
X145395Y350000D01*
X141811Y351043D02*
X144352D01*
X146994Y345144D02*
X149768Y342371D01*
X146994Y345144D02*
Y351526D01*
X144918Y353602D02*
X146994Y351526D01*
X141811Y353602D02*
X144918D01*
X149768Y349000D02*
Y351015D01*
X146994Y353788D02*
X149768Y351015D01*
X146994Y353788D02*
Y355505D01*
X146339Y356161D02*
X146994Y355505D01*
X141811Y356161D02*
X146339D01*
X148047Y358720D02*
X149768Y357000D01*
X141811Y358720D02*
X148047D01*
X137000Y389000D02*
X149768D01*
X135700Y387700D02*
X137000Y389000D01*
X135700Y370500D02*
Y387700D01*
Y370500D02*
X137243Y368957D01*
X141811D01*
X134100Y440773D02*
X141811Y448484D01*
X134100Y321637D02*
Y440773D01*
X131000Y352500D02*
X132500Y354000D01*
Y449721D01*
X145395Y376627D02*
X149768Y381000D01*
X145395Y367000D02*
Y376627D01*
X144792Y366398D02*
X145395Y367000D01*
X141811Y366398D02*
X144792D01*
X149768Y371629D02*
Y373000D01*
X146994Y368856D02*
X149768Y371629D01*
X146994Y365000D02*
Y368856D01*
X145833Y363838D02*
X146994Y365000D01*
X141811Y363838D02*
X145833D01*
X149768Y363268D02*
Y365000D01*
X147779Y361279D02*
X149768Y363268D01*
X141811Y361279D02*
X147779D01*
X208500Y390000D02*
X220000D01*
X206600Y388100D02*
X208500Y390000D01*
X206600Y370900D02*
Y388100D01*
Y370900D02*
X208543Y368957D01*
X211811D01*
X205000Y443500D02*
X209984Y448484D01*
X205000Y324237D02*
Y443500D01*
Y324237D02*
X215837Y313400D01*
X215627Y377627D02*
X220000Y382000D01*
X215627Y367500D02*
Y377627D01*
X214524Y366398D02*
X215627Y367500D01*
X211811Y366398D02*
X214524D01*
X217227Y369856D02*
X220000Y372629D01*
X217227Y365000D02*
Y369856D01*
X216065Y363838D02*
X217227Y365000D01*
X211811Y363838D02*
X216065D01*
X216279Y361279D02*
X220000Y365000D01*
X211811Y361279D02*
X216279D01*
X285627Y338373D02*
X290000Y334000D01*
X285627Y338373D02*
Y349873D01*
X284457Y351043D02*
X285627Y349873D01*
X281811Y351043D02*
X284457D01*
X287227Y346144D02*
X290000Y343371D01*
X287227Y346144D02*
Y352000D01*
X285625Y353602D02*
X287227Y352000D01*
X281811Y353602D02*
X285625D01*
X290000Y350000D02*
Y352000D01*
X285839Y356161D02*
X290000Y352000D01*
X281811Y356161D02*
X285839D01*
X280157Y368957D02*
X281811D01*
X278743Y370371D02*
X280157Y368957D01*
X287614Y361856D02*
X289356D01*
X282388D02*
X284130D01*
X277000Y443673D02*
X281811Y448484D01*
X277000Y348437D02*
Y443673D01*
X287227Y371227D02*
X290000Y374000D01*
X287227Y364500D02*
Y371227D01*
X290000Y379985D02*
Y382000D01*
X285627Y375611D02*
X290000Y379985D01*
X277000Y348437D02*
X280500Y344937D01*
X281811Y368957D02*
X283257D01*
X285627Y367127D02*
Y375611D01*
X284897Y366398D02*
X285627Y367127D01*
X281811Y366398D02*
X284897D01*
X286565Y363838D02*
X287227Y364500D01*
X281811Y363838D02*
X286565D01*
X290000Y362500D02*
Y366000D01*
X289356Y361856D02*
X290000Y362500D01*
X284130Y361856D02*
X287614D01*
X281811Y361279D02*
X282388Y361856D01*
X281811Y358720D02*
X289280D01*
X209984Y448484D02*
X211811D01*
X278100Y313400D02*
X280000Y311500D01*
X215837Y313400D02*
X278100D01*
X274600Y306400D02*
X275000Y306000D01*
X149337Y306400D02*
X274600D01*
X286737Y308000D02*
X295000Y299737D01*
X150000Y308000D02*
X286737D01*
X282000Y315000D02*
X300000Y297000D01*
X216500Y315000D02*
X282000D01*
X211811Y319689D02*
X216500Y315000D01*
X280500Y322500D02*
Y344937D01*
X285000Y317500D02*
Y318000D01*
X280500Y322500D02*
X285000Y318000D01*
X305000Y291260D02*
Y304000D01*
X282100Y326900D02*
X305000Y304000D01*
X282100Y326900D02*
Y348195D01*
X285000Y291260D02*
Y300000D01*
X280000Y291260D02*
Y305000D01*
X275000Y291260D02*
Y306000D01*
X295000Y291260D02*
Y299737D01*
X300000Y291260D02*
Y297000D01*
X281811Y348484D02*
X282100Y348195D01*
X211811Y319689D02*
Y348484D01*
X290000Y287500D02*
Y291260D01*
Y287500D02*
X291800Y285700D01*
X344900Y385163D02*
X351811Y392074D01*
Y448484D01*
X267817Y279080D02*
X272837Y284100D01*
X267817Y266592D02*
Y279080D01*
Y266592D02*
X268462Y265947D01*
X280904D01*
X282817Y267861D01*
Y272774D01*
X284096Y274053D01*
X295947D01*
X300000Y270000D01*
X292740Y267740D02*
X295000Y270000D01*
X292740Y257500D02*
Y267740D01*
X285260Y257500D02*
Y269740D01*
X285000Y270000D02*
X285260Y269740D01*
X285000Y270000D02*
X290000D01*
X280000D02*
Y277500D01*
X281800Y279300D01*
X275000Y270000D02*
Y278500D01*
X277400Y280900D01*
X270000Y279000D02*
X273500Y282500D01*
X270000Y270000D02*
Y279000D01*
X366000Y284300D02*
X367689Y282611D01*
Y277890D02*
Y282611D01*
X369337Y285900D02*
X370839Y284399D01*
Y277890D02*
Y284399D01*
X370000Y287500D02*
X373988Y283512D01*
Y277890D02*
Y283512D01*
X380287Y285787D02*
X382232Y287732D01*
X380287Y277890D02*
Y285787D01*
X339648Y471250D02*
X342321Y468577D01*
X334957Y471250D02*
X339648D01*
X332663Y468957D02*
X334957Y471250D01*
X342321Y373923D02*
Y468577D01*
X328189Y463838D02*
X334750D01*
X325339D02*
X328189D01*
X324500Y463000D02*
X325339Y463838D01*
X324500Y364500D02*
Y463000D01*
Y364500D02*
X325162Y363839D01*
X328189D01*
X255720Y458720D02*
X258189D01*
X254500Y457500D02*
X255720Y458720D01*
X254500Y359500D02*
Y457500D01*
Y359500D02*
X255280Y358720D01*
X258189D01*
X129721Y445000D02*
Y445000D01*
Y387261D02*
Y445000D01*
X115120Y352457D02*
Y372660D01*
X129721Y387261D01*
X110000Y451000D02*
Y456260D01*
Y451000D02*
X112516Y448484D01*
X118189D01*
X185102Y453602D02*
X188189D01*
X184500Y453000D02*
X185102Y453602D01*
X184500Y355000D02*
Y453000D01*
Y355000D02*
X185898Y353602D01*
X188189D01*
X180000Y363327D02*
Y363740D01*
Y351000D02*
Y356260D01*
Y351000D02*
X182516Y348484D01*
X188189D01*
X121000Y351000D02*
X122400Y349600D01*
X110000Y351000D02*
Y356260D01*
Y351000D02*
X112516Y348484D01*
X118189D01*
X129721Y352500D02*
X131000D01*
X203000Y363279D02*
Y456721D01*
X199721Y360000D02*
X203000Y363279D01*
X270000Y367500D02*
X272600Y370100D01*
X269721Y467500D02*
X272600Y464621D01*
Y370100D02*
Y464621D01*
X268850Y373850D02*
X270000Y375000D01*
X268898Y366398D02*
X270000Y367500D01*
X258189Y366398D02*
X268898D01*
X398642Y285142D02*
X400182Y286682D01*
X387380Y285142D02*
X398642D01*
X399305Y283542D02*
X401782Y286020D01*
X388042Y283542D02*
X399305D01*
X399968Y281943D02*
X403382Y285357D01*
X390442Y281943D02*
X399968D01*
X383437Y281200D02*
X387380Y285142D01*
X389736Y281236D02*
X390442Y281943D01*
X386587Y282087D02*
X388042Y283542D01*
X398178Y277890D02*
X404982Y284694D01*
X392886Y277890D02*
X398178D01*
X406582Y284031D02*
Y340452D01*
X366434Y273837D02*
X396388D01*
X404982Y284694D02*
Y339790D01*
X403382Y285357D02*
Y339127D01*
X401782Y286020D02*
Y338464D01*
X396388Y273837D02*
X406582Y284031D01*
X400182Y286682D02*
Y337802D01*
X392400Y371150D02*
X392500Y371250D01*
X392400Y345584D02*
Y371150D01*
Y345584D02*
X400182Y337802D01*
X394900Y345347D02*
Y367400D01*
Y345347D02*
X401782Y338464D01*
X397400Y345109D02*
Y363650D01*
Y345109D02*
X403382Y339127D01*
X400000Y344772D02*
X404982Y339790D01*
X400000Y344772D02*
Y360000D01*
X402600Y358600D02*
Y374900D01*
X402400Y358400D02*
X402600Y358600D01*
X402400Y344635D02*
Y358400D01*
X364539Y275732D02*
Y277890D01*
Y275732D02*
X366434Y273837D01*
X402400Y344635D02*
X406582Y340452D01*
X402500Y375000D02*
X402600Y374900D01*
X383437Y277890D02*
Y281200D01*
X386587Y277890D02*
Y282087D01*
X389736Y277890D02*
Y281236D01*
X404900Y356150D02*
X405000Y356250D01*
X404900Y344398D02*
Y356150D01*
Y344398D02*
X408182Y341115D01*
Y272000D02*
Y341115D01*
X407182Y271000D02*
X408182Y272000D01*
X399776Y271000D02*
X407182D01*
X407400Y344160D02*
Y352400D01*
Y344160D02*
X409782Y341778D01*
Y270844D02*
Y341778D01*
X406789Y267850D02*
X409782Y270844D01*
X399776Y267850D02*
X406789D01*
X409900Y348650D02*
X410000Y348750D01*
X409900Y343923D02*
Y348650D01*
Y343923D02*
X411382Y342441D01*
Y270181D02*
Y342441D01*
X405902Y264701D02*
X411382Y270181D01*
X399776Y264701D02*
X405902D01*
X412500Y345000D02*
X413400Y344100D01*
Y269500D02*
Y344100D01*
X405451Y261551D02*
X413400Y269500D01*
X399776Y261551D02*
X405451D01*
X377138Y277890D02*
Y285630D01*
X195000Y448750D02*
Y449263D01*
X335000Y448750D02*
Y449263D01*
X192309Y458720D02*
X194780Y456250D01*
X262310Y458720D02*
X264750Y456280D01*
X332310Y458720D02*
X334780Y456250D01*
X188189Y463838D02*
X194750D01*
X258189D02*
X264720D01*
X262663Y468957D02*
X264957Y471250D01*
X192663Y468957D02*
X194957Y471250D01*
X125000Y448750D02*
Y449263D01*
X122310Y458720D02*
X124780Y456250D01*
X118189Y463838D02*
X124750D01*
X122663Y468957D02*
X124957Y471250D01*
X192309Y358720D02*
X194780Y356250D01*
X188189Y363839D02*
X196200D01*
X125000Y348750D02*
Y349263D01*
X122310Y358720D02*
X124780Y356250D01*
X192663Y368957D02*
X194957Y371250D01*
X122663Y368957D02*
X124957Y371250D01*
X118189Y363839D02*
X124750D01*
X328189Y451043D02*
X328232Y451000D01*
X331000D01*
X333000Y445000D02*
X339721D01*
X328189Y453602D02*
X330661D01*
X335000Y449263D01*
X328189Y456161D02*
X331192D01*
X333703Y453650D01*
X338571D01*
X339721Y452500D01*
X328189Y458720D02*
X332310D01*
X328189Y461279D02*
X328318Y461150D01*
X338571D01*
X339721Y460000D01*
X328189Y466397D02*
X338618D01*
X328189Y468957D02*
X332663D01*
X328189Y471516D02*
X331545D01*
X333880Y473850D01*
X338571D01*
X339721Y475000D01*
X258189Y451043D02*
X258232Y451000D01*
X261000D01*
X262400Y449600D01*
Y447673D02*
Y449600D01*
Y447673D02*
X265073Y445000D01*
X269721D01*
X258189Y453602D02*
X260661D01*
X265000Y449263D01*
X258189Y456161D02*
X261192D01*
X263703Y453650D01*
X268571D01*
X258189Y458720D02*
X262310D01*
X258189Y461279D02*
X258318Y461150D01*
X268571D01*
X258189Y466397D02*
X268618D01*
X258189Y468957D02*
X262663D01*
X258189Y471516D02*
X261545D01*
X263880Y473850D01*
X268571D01*
X269721Y475000D01*
X188232Y451000D02*
X191000D01*
X192400Y449600D01*
Y447673D02*
Y449600D01*
Y447673D02*
X195073Y445000D01*
X199721D01*
X188189Y453602D02*
X190661D01*
X195000Y449263D01*
X188189Y456161D02*
X191192D01*
X193703Y453650D01*
X198571D01*
X199721Y452500D01*
X188189Y458720D02*
X192309D01*
X198571Y461150D02*
X203000Y456721D01*
X188189Y468957D02*
X192663D01*
X188189Y471516D02*
X191545D01*
X193880Y473850D01*
X198571D01*
X199721Y475000D01*
X118189Y451043D02*
X118232Y451000D01*
X121000D01*
X122400Y449600D01*
Y447673D02*
Y449600D01*
Y447673D02*
X125073Y445000D01*
X129721D01*
X118189Y453602D02*
X120661D01*
X125000Y449263D01*
X118189Y456161D02*
X121192D01*
X123703Y453650D01*
X128571D01*
X132500Y449721D01*
X118189Y458720D02*
X122310D01*
X118189Y461279D02*
X118318Y461150D01*
X128571D01*
X129721Y460000D01*
X118189Y466397D02*
X128618D01*
X118189Y468957D02*
X122663D01*
X118189Y471516D02*
X121546D01*
X123880Y473850D01*
X128571D01*
X129721Y475000D01*
X128571Y373850D02*
X129721Y375000D01*
X123880Y373850D02*
X128571D01*
X121546Y371516D02*
X123880Y373850D01*
X118189Y371516D02*
X121546D01*
X118189Y368957D02*
X122663D01*
X118189Y366398D02*
X128618D01*
X128571Y361150D02*
X129721Y360000D01*
X118318Y361150D02*
X128571D01*
X118189Y361279D02*
X118318Y361150D01*
X118189Y358720D02*
X122310D01*
X128571Y353650D02*
X129721Y352500D01*
X123703Y353650D02*
X128571D01*
X121192Y356161D02*
X123703Y353650D01*
X118189Y356161D02*
X121192D01*
X120661Y353602D02*
X125000Y349263D01*
X118189Y353602D02*
X120661D01*
X118232Y351000D02*
X121000D01*
X118189Y351043D02*
X118232Y351000D01*
X188189Y353602D02*
X190661D01*
X195981Y348281D01*
X188189Y356161D02*
X191192D01*
X193703Y353650D01*
X198571D01*
X199721Y352500D01*
X188189Y358720D02*
X192309D01*
X188189Y361279D02*
X188318Y361150D01*
X198571D01*
X199721Y360000D01*
X188189Y366398D02*
X198618D01*
X188189Y368957D02*
X192663D01*
X188189Y371516D02*
X191545D01*
X193880Y373850D01*
X198571D01*
X199721Y375000D01*
X258189Y351043D02*
X258232Y351000D01*
X261000D01*
X262400Y349600D01*
X258189Y353602D02*
X260661D01*
X265563Y348700D01*
X258189Y356161D02*
X261192D01*
X263703Y353650D01*
X268571D01*
X269721Y352500D01*
X258189Y358720D02*
X262310D01*
X264780Y356250D01*
X258189Y361279D02*
X258318Y361150D01*
X268571D01*
X269721Y360000D01*
X258189Y363839D02*
X266700D01*
X258189Y368957D02*
X262663D01*
X264957Y371250D01*
X258189Y371516D02*
X261545D01*
X263880Y373850D01*
X263923Y373850D02*
X268850D01*
X338571Y373850D02*
X339721Y375000D01*
X333880Y373850D02*
X338571D01*
X331545Y371516D02*
X333880Y373850D01*
X328189Y371516D02*
X331545D01*
X328189Y368957D02*
X332663D01*
X328189Y366398D02*
X338618D01*
X328189Y363839D02*
X336600D01*
X338571Y361150D02*
X339721Y360000D01*
X328318Y361150D02*
X338571D01*
X328189Y361279D02*
X328318Y361150D01*
X332310Y358720D02*
X334780Y356250D01*
X328189Y358720D02*
X332310D01*
X338571Y353650D02*
X339721Y352500D01*
X333703Y353650D02*
X338571D01*
X331192Y356161D02*
X333703Y353650D01*
X328189Y356161D02*
X331192D01*
X328189Y353602D02*
X330661D01*
X331000Y351000D02*
X332400Y349600D01*
X328232Y351000D02*
X331000D01*
X328189Y351043D02*
X328232Y351000D01*
X351972Y356000D02*
X356015D01*
X360000Y352015D01*
X354584Y351043D02*
X355627Y350000D01*
X351811Y351043D02*
X354584D01*
X360000Y342000D02*
Y343371D01*
X357227Y346144D02*
X360000Y343371D01*
X357227Y346144D02*
Y352526D01*
X356151Y353602D02*
X357227Y352526D01*
X351811Y353602D02*
X356151D01*
X360000Y350000D02*
Y352015D01*
X352000Y390000D02*
X360000D01*
X346500Y384500D02*
X352000Y390000D01*
X346500Y370500D02*
Y384500D01*
Y370500D02*
X348000Y369000D01*
X351768D01*
X351811Y368957D01*
X357227Y379227D02*
X360000Y382000D01*
X357227Y372500D02*
Y379227D01*
X355627Y370900D02*
X357227Y372500D01*
X355627Y367127D02*
Y370900D01*
X354897Y366398D02*
X355627Y367127D01*
X351811Y366398D02*
X354897D01*
X360000Y372629D02*
Y374000D01*
X357227Y369856D02*
X360000Y372629D01*
X357227Y364500D02*
Y369856D01*
X356565Y363838D02*
X357227Y364500D01*
X351811Y363838D02*
X356565D01*
X360000Y364000D02*
Y366000D01*
X357279Y361279D02*
X360000Y364000D01*
X351811Y361279D02*
X357279D01*
X351811Y358720D02*
X359280D01*
X372500Y320000D02*
X380000D01*
X368465Y324035D02*
X372500Y320000D01*
X368465Y324035D02*
Y334000D01*
Y341535D02*
X380000Y330000D01*
X368465Y341535D02*
Y342000D01*
X370000Y350000D02*
X380000Y340000D01*
X368465Y350000D02*
X370000D01*
X372000Y358000D02*
X380000Y350000D01*
X368465Y358000D02*
X372000D01*
X374000Y366000D02*
X380000Y360000D01*
X368465Y366000D02*
X374000D01*
X376000Y374000D02*
X380000Y370000D01*
X368465Y374000D02*
X376000D01*
X368465Y382000D02*
X378000D01*
X368465Y390000D02*
X380000D01*
X445740Y464260D02*
X447457D01*
X442856Y467144D02*
X445740Y464260D01*
X437103Y467144D02*
X442856D01*
X436459Y467789D02*
X437103Y467144D01*
X436459Y467789D02*
Y474212D01*
X437103Y474856D01*
X443053D01*
X447457Y479260D01*
X471232Y476000D02*
X480000D01*
X471232Y415714D02*
Y445857D01*
X467500Y395000D02*
X471232Y391268D01*
Y385571D02*
Y391268D01*
Y345232D02*
Y355429D01*
X478650Y349956D02*
X484000Y355306D01*
Y358000D01*
X478650Y346650D02*
Y349956D01*
X467500Y335500D02*
X478650Y346650D01*
X467500Y327000D02*
Y335500D01*
X471232Y315232D02*
Y325286D01*
Y285268D02*
Y295143D01*
Y255232D02*
Y265000D01*
X465786Y325286D02*
X467500Y327000D01*
X462768Y325286D02*
X465786D01*
X462768Y476000D02*
X465000D01*
X484000Y457000D01*
Y408000D02*
Y457000D01*
X467500Y409000D02*
Y444000D01*
Y409000D02*
X478500Y398000D01*
X484000D01*
X462768Y445857D02*
X465643D01*
X467500Y444000D01*
X477000Y388000D02*
X484000D01*
X475000Y390000D02*
X477000Y388000D01*
X475000Y390000D02*
Y397000D01*
X470000Y402000D02*
X475000Y397000D01*
X457000Y402000D02*
X470000D01*
X454543Y404457D02*
X457000Y402000D01*
X454543Y404457D02*
Y408000D01*
X470339Y378000D02*
X484000D01*
X462768Y385571D02*
X470339Y378000D01*
X475284Y359284D02*
X484000Y368000D01*
X469103Y359284D02*
X475284D01*
X465247Y355429D02*
X469103Y359284D01*
X462768Y355429D02*
X465247D01*
X484000Y347450D02*
Y348000D01*
X478650Y342100D02*
X484000Y347450D01*
X478650Y316150D02*
Y342100D01*
X473000Y310500D02*
X478650Y316150D01*
X458500Y310500D02*
X473000D01*
X454543Y306543D02*
X458500Y310500D01*
X454543Y303000D02*
Y306543D01*
X484000Y282500D02*
Y338000D01*
X480000Y278500D02*
X484000Y282500D01*
X457000Y278500D02*
X480000D01*
X454543Y276043D02*
X457000Y278500D01*
X454543Y273000D02*
Y276043D01*
Y258000D02*
X461000D01*
X462768Y259768D01*
Y265000D01*
X454543Y273000D02*
X461000D01*
X462768Y271232D01*
Y265000D02*
Y271232D01*
X454543Y288000D02*
X461000D01*
X462768Y289768D01*
Y295143D01*
X454543Y303000D02*
X461000D01*
X462768Y301232D01*
Y295143D02*
Y301232D01*
X454543Y318000D02*
X461000D01*
X462768Y319768D01*
Y325286D01*
X454543Y333000D02*
X461000D01*
X462768Y331232D01*
Y325286D02*
Y331232D01*
X454543Y348000D02*
X461000D01*
X462768Y349768D01*
Y355429D01*
X454543Y363000D02*
X461000D01*
X462768Y361232D01*
Y355429D02*
Y361232D01*
X454543Y378000D02*
X461000D01*
X462768Y379768D01*
Y385571D01*
X454543Y393000D02*
X461000D01*
X462768Y391232D01*
Y385571D02*
Y391232D01*
X454543Y408000D02*
X461000D01*
X462768Y409768D01*
Y415714D01*
X454543Y423000D02*
X461000D01*
X462768Y421232D01*
Y415714D02*
Y421232D01*
X454543Y438000D02*
X461000D01*
X462768Y439768D01*
Y445857D01*
X454543Y453000D02*
X461000D01*
X462768Y451232D01*
Y445857D02*
Y451232D01*
Y469768D02*
Y476000D01*
X461000Y468000D02*
X462768Y469768D01*
X454543Y468000D02*
X461000D01*
X454543Y483000D02*
X461000D01*
X462768Y481232D01*
Y476000D02*
Y481232D01*
X440740Y486740D02*
X447457D01*
X439232Y485232D02*
X440740Y486740D01*
X439232Y480000D02*
Y485232D01*
X439972Y471740D02*
X447457D01*
X441240Y456740D02*
X447457D01*
X439232Y454732D02*
X441240Y456740D01*
X439232Y450000D02*
Y454732D01*
X439972Y441740D02*
X447457D01*
X441740Y426740D02*
X447457D01*
X439232Y424232D02*
X441740Y426740D01*
X439232Y420000D02*
Y424232D01*
X439972Y411740D02*
X447457D01*
X441740Y396740D02*
X447457D01*
X439232Y394232D02*
X441740Y396740D01*
X439232Y390000D02*
Y394232D01*
X439972Y381740D02*
X447457D01*
X441240Y366740D02*
X447457D01*
X439232Y364732D02*
X441240Y366740D01*
X439232Y360000D02*
Y364732D01*
X439972Y351740D02*
X447457D01*
X441240Y336740D02*
X447457D01*
X439232Y334732D02*
X441240Y336740D01*
X439232Y330000D02*
Y334732D01*
X439972Y321740D02*
X447457D01*
X441740Y306740D02*
X447457D01*
X439232Y304232D02*
X441740Y306740D01*
X439232Y300000D02*
Y304232D01*
X439972Y291740D02*
X447457D01*
X441740Y276740D02*
X447457D01*
X439232Y274232D02*
X441740Y276740D01*
X439232Y270000D02*
Y274232D01*
Y261000D02*
X446716D01*
X383437Y229800D02*
Y232614D01*
X411292Y239504D02*
X419800Y248012D01*
X399776Y239504D02*
X411292D01*
X426500Y256732D02*
X430768Y261000D01*
X426500Y245661D02*
Y256732D01*
X405139Y224300D02*
X426500Y245661D01*
X424800Y246224D02*
Y280300D01*
X404476Y225900D02*
X424800Y246224D01*
X423200Y246886D02*
Y307200D01*
X403814Y227500D02*
X423200Y246886D01*
X421600Y247549D02*
Y335100D01*
X406665Y232614D02*
X421600Y247549D01*
X418200Y248675D02*
Y391700D01*
X412179Y242653D02*
X418200Y248675D01*
X416600Y249337D02*
Y420600D01*
X413066Y245803D02*
X416600Y249337D01*
X415000Y250000D02*
Y449500D01*
X413494Y248495D02*
X415000Y250000D01*
X418200Y391700D02*
X430768Y404268D01*
X416600Y420600D02*
X430768Y434768D01*
X415000Y449500D02*
X430768Y465268D01*
Y441000D02*
Y450000D01*
Y411000D02*
Y420000D01*
Y471000D02*
Y480000D01*
Y465268D02*
Y471000D01*
Y434768D02*
Y441000D01*
Y404268D02*
Y411000D01*
Y381000D02*
Y390000D01*
Y374268D02*
Y381000D01*
X420000Y363500D02*
X430768Y374268D01*
Y351000D02*
Y360000D01*
Y344268D02*
Y351000D01*
X421600Y335100D02*
X430768Y344268D01*
Y321000D02*
Y330000D01*
Y314768D02*
Y321000D01*
X423200Y307200D02*
X430768Y314768D01*
Y291000D02*
Y300000D01*
Y286268D02*
Y291000D01*
X424800Y280300D02*
X430768Y286268D01*
Y261000D02*
Y270000D01*
X388937Y224300D02*
X405139D01*
X383437Y229800D02*
X388937Y224300D01*
X389600Y225900D02*
X404476D01*
X386587Y228913D02*
X389600Y225900D01*
X386587Y228913D02*
Y232614D01*
X391500Y227500D02*
X403814D01*
X389736Y229264D02*
X391500Y227500D01*
X389736Y229264D02*
Y232614D01*
X392886D02*
X406665D01*
X420000Y248349D02*
Y363500D01*
X399776Y242653D02*
X412179D01*
X399776Y245803D02*
X413066D01*
X400234Y248495D02*
X413494D01*
X399776Y248953D02*
X400234Y248495D01*
X351500Y183000D02*
Y193500D01*
X348500Y180000D02*
X351500Y183000D01*
X331232Y180000D02*
X348500D01*
X349000Y196000D02*
X351500Y193500D01*
X349000Y196000D02*
Y201000D01*
X410000Y256500D02*
Y259732D01*
X408752Y255252D02*
X410000Y256500D01*
X399776Y255252D02*
X408752D01*
X399776Y252102D02*
X409165D01*
X367689Y239189D02*
X371000Y242500D01*
X367689Y232614D02*
Y239189D01*
X310500Y160937D02*
X318658D01*
X382732Y223000D02*
Y226768D01*
X380287Y229213D02*
X382732Y226768D01*
X380287Y229213D02*
Y232614D01*
X374268Y223000D02*
Y226268D01*
X377138Y229138D01*
Y232614D01*
X354500Y271000D02*
X373500D01*
X354500Y267850D02*
X369150D01*
X354500Y264701D02*
X373500D01*
X354500Y261551D02*
X369449D01*
X338673Y237673D02*
X349953Y248953D01*
X354500D01*
X338000Y259327D02*
X342673D01*
X349898Y252102D01*
X354500D01*
X323268Y257000D02*
X330000D01*
X332327Y259327D01*
X338000D01*
X323000Y239732D02*
X330268D01*
X332327Y237673D01*
X338000D01*
X344000Y195000D02*
Y201000D01*
Y195000D02*
X346232Y192768D01*
Y189000D02*
Y192768D01*
X339000Y194000D02*
Y201000D01*
X337768Y192768D02*
X339000Y194000D01*
X337768Y189000D02*
Y192768D01*
X322768Y181768D02*
X327000Y186000D01*
Y194000D01*
X329000Y196000D01*
Y201000D01*
X334000Y197000D02*
Y201000D01*
X331232Y194232D02*
X334000Y197000D01*
X331232Y189000D02*
Y194232D01*
X322768Y189000D02*
Y193768D01*
X324000Y195000D01*
Y201000D01*
X271194Y220000D02*
X283794Y207400D01*
X278500Y220000D02*
X289500Y209000D01*
X327500D02*
X334000Y215500D01*
X289500Y209000D02*
X327500D01*
X283794Y207400D02*
X328163D01*
X339000Y218237D01*
X277000Y161279D02*
X290721D01*
X298937Y153063D01*
X310500D01*
X261417Y161142D02*
X264985Y157573D01*
X273294D01*
X277000Y161279D01*
X121850Y275000D02*
X130000D01*
X269321Y257500D02*
X285260D01*
X383232Y289000D02*
Y295768D01*
X382232Y287732D02*
Y289000D01*
X374768D02*
Y295768D01*
X374268Y288500D02*
X377138Y285630D01*
X377598Y258402D02*
X399776D01*
X377138Y258862D02*
X377598Y258402D01*
X380287Y232614D02*
Y253287D01*
X382252Y255252D01*
X399776D01*
X382732Y215732D02*
Y223000D01*
X391102Y252102D02*
X399776D01*
X389000Y250000D02*
X391102Y252102D01*
X268000Y160937D02*
Y168000D01*
X270000Y170000D01*
X314000Y214260D02*
X327260D01*
X329000Y216000D01*
Y222260D01*
X110000Y363740D02*
Y372000D01*
Y463740D02*
Y472000D01*
X320000Y463740D02*
Y480000D01*
X250000Y363740D02*
Y380000D01*
X320000Y363740D02*
Y380000D01*
X180000Y363740D02*
Y383000D01*
Y463740D02*
Y480000D01*
X250000Y463740D02*
Y480000D01*
X118189Y435189D02*
Y448484D01*
X188189Y435189D02*
Y448484D01*
X258189Y435189D02*
Y448484D01*
X328189Y435189D02*
Y448484D01*
Y335189D02*
Y348484D01*
X258189Y335189D02*
Y348484D01*
X188189Y335189D02*
Y348484D01*
X253516D02*
X258189D01*
X250000Y352000D02*
X253516Y348484D01*
X250000Y352000D02*
Y356260D01*
X118189Y335189D02*
Y348484D01*
X180000Y435000D02*
Y456260D01*
X250000Y435000D02*
Y456260D01*
X320000Y435000D02*
Y456260D01*
X199000Y258000D02*
X232000D01*
X240000Y250000D01*
X189000Y238000D02*
X191071Y235929D01*
X361390Y213390D02*
Y232614D01*
X353800Y205800D02*
X361390Y213390D01*
X278800Y205800D02*
X353800D01*
X268000Y195000D02*
X278800Y205800D01*
X268000Y192232D02*
Y195000D01*
X350504Y239504D02*
X354500D01*
X346183Y235183D02*
X350504Y239504D01*
X346183Y218207D02*
Y235183D01*
X344000Y216024D02*
X346183Y218207D01*
X344000Y213000D02*
Y216024D01*
X290232Y197000D02*
X295000Y192232D01*
X288000Y197000D02*
X290232D01*
X268000Y183768D02*
X276149D01*
X295000D02*
X303705D01*
X300690Y191937D02*
X304000D01*
X298212Y189459D02*
X300690Y191937D01*
X291789Y189459D02*
X298212D01*
X289311Y191937D02*
X291789Y189459D01*
X276445Y191937D02*
X289311D01*
X301740Y221740D02*
X314000D01*
X304000Y191937D02*
X312937D01*
X349863Y284100D02*
X367400Y301637D01*
X354000Y332300D02*
Y346295D01*
Y332300D02*
X367400Y318900D01*
Y301637D02*
Y318900D01*
X344900Y338900D02*
Y385163D01*
X349200Y285700D02*
X365700Y302200D01*
Y318100D01*
X344900Y338900D02*
X365700Y318100D01*
X323016Y348484D02*
X328189D01*
X320000Y351500D02*
X323016Y348484D01*
X320000Y351500D02*
Y356260D01*
X447457Y251143D02*
Y254260D01*
Y251143D02*
X448700Y249900D01*
X447457Y266143D02*
Y269260D01*
X448200Y265400D02*
X452600D01*
X447457Y266143D02*
X448200Y265400D01*
X447457Y281143D02*
X448200Y280400D01*
X452600D01*
X447457Y281143D02*
Y284260D01*
Y296143D02*
X448200Y295400D01*
X452600D01*
X447457Y296143D02*
Y299260D01*
Y311143D02*
X448200Y310400D01*
X452600D01*
X447457Y311143D02*
Y314260D01*
Y326143D02*
X448200Y325400D01*
X452600D01*
X447457Y326143D02*
Y329260D01*
Y341143D02*
X448200Y340400D01*
X452600D01*
X447457Y341143D02*
Y344260D01*
Y356143D02*
X448200Y355400D01*
X452600D01*
X447457Y356143D02*
Y359260D01*
Y371143D02*
X448200Y370400D01*
X452600D01*
X447457Y371143D02*
Y374260D01*
Y386143D02*
X448200Y385400D01*
X452600D01*
X447457Y386143D02*
Y389260D01*
Y401143D02*
X448200Y400400D01*
X452600D01*
X447457Y401143D02*
Y404260D01*
Y416143D02*
X448200Y415400D01*
X452600D01*
X447457Y416143D02*
Y419260D01*
Y431143D02*
X448200Y430400D01*
X452600D01*
X447457Y431143D02*
Y434260D01*
Y446143D02*
X448200Y445400D01*
X452600D01*
X447457Y446143D02*
Y449260D01*
Y461143D02*
X448200Y460400D01*
X452600D01*
X447457Y461143D02*
Y464260D01*
X350448Y255252D02*
X354500D01*
X329000Y222260D02*
Y231500D01*
X343632Y262068D02*
X350448Y255252D01*
X115120Y352457D02*
X116535Y351043D01*
X118189D01*
X157100Y258500D02*
X164100D01*
X165380Y257221D01*
X169600D01*
X157100Y263500D02*
X164000D01*
X166900Y260600D01*
X177279Y257221D02*
X178500D01*
X166900Y260600D02*
X173900D01*
X177279Y257221D01*
X157100Y273500D02*
X164000D01*
X164768Y272732D01*
X169600D01*
X178500Y272732D02*
Y279780D01*
X169600D02*
X178500D01*
X165779D02*
X169600D01*
X164500Y278500D02*
X165779Y279780D01*
X157100Y278500D02*
X164500D01*
X169600Y264268D02*
X178500D01*
X169600Y264268D02*
X169600Y264268D01*
X157100Y268500D02*
X168400D01*
X169600Y267300D01*
Y264268D02*
Y267300D01*
Y248756D02*
X178500D01*
X153268Y232100D02*
Y240900D01*
X146332D02*
X153268D01*
X148200Y262100D02*
X149600Y263500D01*
X157100D01*
X137768Y240800D02*
X148200Y251232D01*
Y262100D01*
X190200Y266200D02*
Y274563D01*
X188268Y264268D02*
X190200Y266200D01*
X178500Y264268D02*
X188268D01*
X294000Y120000D02*
X304768D01*
X313232D02*
X324000D01*
D27*
X223205Y161142D02*
D03*
X183205D02*
D03*
X143205D02*
D03*
D28*
X223205Y178858D02*
D03*
X248795D02*
D03*
Y161142D02*
D03*
X208795D02*
D03*
Y178858D02*
D03*
X183205D02*
D03*
X168795Y161142D02*
D03*
Y178858D02*
D03*
X143205D02*
D03*
D29*
X484000Y338000D02*
D03*
Y348000D02*
D03*
Y358000D02*
D03*
Y368000D02*
D03*
Y378000D02*
D03*
Y388000D02*
D03*
Y398000D02*
D03*
Y408000D02*
D03*
X199000Y218000D02*
D03*
Y228000D02*
D03*
Y238000D02*
D03*
Y248000D02*
D03*
Y258000D02*
D03*
X189000Y218000D02*
D03*
Y228000D02*
D03*
Y238000D02*
D03*
Y248000D02*
D03*
Y258000D02*
D03*
X170000Y490000D02*
D03*
Y480000D02*
D03*
Y470000D02*
D03*
Y460000D02*
D03*
Y450000D02*
D03*
Y440000D02*
D03*
Y430000D02*
D03*
Y420000D02*
D03*
X240000Y490000D02*
D03*
Y480000D02*
D03*
Y470000D02*
D03*
Y460000D02*
D03*
Y450000D02*
D03*
Y440000D02*
D03*
Y430000D02*
D03*
Y420000D02*
D03*
X310000Y490000D02*
D03*
Y480000D02*
D03*
Y470000D02*
D03*
Y460000D02*
D03*
Y450000D02*
D03*
Y440000D02*
D03*
Y430000D02*
D03*
Y420000D02*
D03*
X380000Y490000D02*
D03*
Y480000D02*
D03*
Y470000D02*
D03*
Y460000D02*
D03*
Y450000D02*
D03*
Y440000D02*
D03*
Y430000D02*
D03*
Y420000D02*
D03*
X170000Y390000D02*
D03*
Y380000D02*
D03*
Y370000D02*
D03*
Y360000D02*
D03*
Y350000D02*
D03*
Y340000D02*
D03*
Y330000D02*
D03*
Y320000D02*
D03*
X240000Y390000D02*
D03*
Y380000D02*
D03*
Y370000D02*
D03*
Y360000D02*
D03*
Y350000D02*
D03*
Y340000D02*
D03*
Y330000D02*
D03*
Y320000D02*
D03*
X310000Y390000D02*
D03*
Y380000D02*
D03*
Y370000D02*
D03*
Y360000D02*
D03*
Y350000D02*
D03*
Y340000D02*
D03*
Y330000D02*
D03*
Y320000D02*
D03*
X380000Y390000D02*
D03*
Y380000D02*
D03*
Y370000D02*
D03*
Y360000D02*
D03*
Y350000D02*
D03*
Y340000D02*
D03*
Y330000D02*
D03*
Y320000D02*
D03*
D30*
X248500Y220000D02*
D03*
X258500D02*
D03*
X268500D02*
D03*
X278500D02*
D03*
X240000Y250000D02*
D03*
X250000D02*
D03*
D31*
X336600Y348800D02*
D03*
X266700Y348700D02*
D03*
X196200Y348500D02*
D03*
X125900Y348800D02*
D03*
X335800Y448400D02*
D03*
X265600Y448700D02*
D03*
X195000Y463750D02*
D03*
Y448750D02*
D03*
X124957Y471250D02*
D03*
X124780Y456250D02*
D03*
X125000Y448750D02*
D03*
X260000Y298000D02*
D03*
X250000D02*
D03*
X240000D02*
D03*
X230000D02*
D03*
X220000D02*
D03*
X210000D02*
D03*
X200000D02*
D03*
X190000D02*
D03*
X180000D02*
D03*
X115000Y280000D02*
D03*
X120000D02*
D03*
X125000D02*
D03*
X130000D02*
D03*
X269321Y257500D02*
D03*
X355000Y276000D02*
D03*
X377138Y258862D02*
D03*
X220000Y240000D02*
D03*
X351811Y482189D02*
D03*
X281811D02*
D03*
X211811Y482689D02*
D03*
X141811Y482189D02*
D03*
X199721Y345000D02*
D03*
X141811Y382189D02*
D03*
X211811Y382311D02*
D03*
X282500Y382500D02*
D03*
X351811Y381811D02*
D03*
X280000Y311500D02*
D03*
X285000Y317500D02*
D03*
X280000Y305000D02*
D03*
X285000Y300000D02*
D03*
X270000Y367500D02*
D03*
X400000Y360000D02*
D03*
X392500Y371250D02*
D03*
X397500Y363750D02*
D03*
X405000Y356250D02*
D03*
X410000Y348750D02*
D03*
X402500Y375000D02*
D03*
X395000Y367500D02*
D03*
X407500Y352500D02*
D03*
X412500Y345000D02*
D03*
X335800Y471250D02*
D03*
X339721Y467500D02*
D03*
X335800Y463750D02*
D03*
X339721Y460000D02*
D03*
X335800Y456250D02*
D03*
X339721Y452500D02*
D03*
Y445000D02*
D03*
Y475000D02*
D03*
X265600Y471250D02*
D03*
X269721Y467500D02*
D03*
X265600Y463750D02*
D03*
X269721Y460000D02*
D03*
X265600Y456250D02*
D03*
X269721Y452500D02*
D03*
Y445000D02*
D03*
Y475000D02*
D03*
X195000Y471250D02*
D03*
X199721Y467500D02*
D03*
Y460000D02*
D03*
X195000Y456250D02*
D03*
X199721Y452500D02*
D03*
Y445000D02*
D03*
Y475000D02*
D03*
X129721Y467500D02*
D03*
X124720Y463750D02*
D03*
X129721Y460000D02*
D03*
Y452500D02*
D03*
Y445000D02*
D03*
Y475000D02*
D03*
X125900Y371250D02*
D03*
X129721Y367500D02*
D03*
X125900Y363750D02*
D03*
X129721Y360000D02*
D03*
X125900Y356250D02*
D03*
X129721Y352500D02*
D03*
Y345000D02*
D03*
Y375000D02*
D03*
X196200Y371250D02*
D03*
X199721Y367500D02*
D03*
X196200Y363750D02*
D03*
X199721Y360000D02*
D03*
X196200Y356250D02*
D03*
X199721Y352500D02*
D03*
Y375000D02*
D03*
X270000Y375000D02*
D03*
X339721Y375000D02*
D03*
X270000Y345000D02*
D03*
Y352500D02*
D03*
X266700Y356250D02*
D03*
X270000Y360000D02*
D03*
X266700Y363750D02*
D03*
Y371250D02*
D03*
X336600Y371250D02*
D03*
Y363750D02*
D03*
Y356250D02*
D03*
X339721Y345000D02*
D03*
Y352500D02*
D03*
Y360000D02*
D03*
Y367500D02*
D03*
X480000Y476000D02*
D03*
X471232Y432500D02*
D03*
X467500Y395000D02*
D03*
X471232Y345232D02*
D03*
Y315232D02*
D03*
Y285268D02*
D03*
Y255232D02*
D03*
X371000Y242500D02*
D03*
X373500Y264701D02*
D03*
Y271000D02*
D03*
X369500Y267500D02*
D03*
Y261500D02*
D03*
X374768Y295768D02*
D03*
X383232Y295768D02*
D03*
X382732Y215732D02*
D03*
X389000Y250000D02*
D03*
X270000Y170000D02*
D03*
X314268Y231268D02*
D03*
X323000Y275000D02*
D03*
X250000Y380000D02*
D03*
X320000D02*
D03*
X180000Y383000D02*
D03*
X110000Y372000D02*
D03*
Y472000D02*
D03*
X180000Y480000D02*
D03*
X320000D02*
D03*
X250000D02*
D03*
X118189Y435189D02*
D03*
X188189D02*
D03*
X258189D02*
D03*
X328189D02*
D03*
Y335189D02*
D03*
X258189D02*
D03*
X188189D02*
D03*
X118189D02*
D03*
X180000Y435000D02*
D03*
X250000D02*
D03*
X320000D02*
D03*
X344000Y213000D02*
D03*
X288000Y197000D02*
D03*
X301740Y221740D02*
D03*
X312937Y191937D02*
D03*
X448700Y249900D02*
D03*
X452600Y265400D02*
D03*
Y280400D02*
D03*
Y295400D02*
D03*
Y310400D02*
D03*
Y325400D02*
D03*
Y340400D02*
D03*
Y355400D02*
D03*
Y370400D02*
D03*
Y385400D02*
D03*
Y400400D02*
D03*
Y415400D02*
D03*
Y430400D02*
D03*
Y445400D02*
D03*
Y460400D02*
D03*
X115000Y255000D02*
D03*
Y260000D02*
D03*
Y265000D02*
D03*
Y270000D02*
D03*
Y275000D02*
D03*
X120000Y255000D02*
D03*
X125000D02*
D03*
X130000D02*
D03*
X135000D02*
D03*
X140000D02*
D03*
Y260000D02*
D03*
X135000D02*
D03*
X130000D02*
D03*
X125000D02*
D03*
X120000D02*
D03*
Y265000D02*
D03*
X135000Y280000D02*
D03*
X140000D02*
D03*
X145000D02*
D03*
Y275000D02*
D03*
X140000D02*
D03*
X135000D02*
D03*
X130000D02*
D03*
X125000D02*
D03*
X120000D02*
D03*
Y270000D02*
D03*
X125000D02*
D03*
X130000D02*
D03*
X135000D02*
D03*
X140000D02*
D03*
X145000D02*
D03*
Y265000D02*
D03*
X140000D02*
D03*
X135000D02*
D03*
X130000D02*
D03*
X125000D02*
D03*
X145000Y260000D02*
D03*
Y255000D02*
D03*
D32*
X294000Y120000D02*
D03*
X275000D02*
D03*
X324000D02*
D03*
D33*
X146000Y232000D02*
D03*
D34*
X232600Y126900D02*
D03*
X340000Y310000D02*
D03*
D35*
X125000Y210000D02*
D03*
Y175000D02*
D03*
M02*
