%FSLAX25Y25*%
%MOIN*%
G70*
G01*
G75*
G04 Layer_Color=65535*
%ADD10R,0.03937X0.04331*%
%ADD11R,0.33622X0.21063*%
%ADD12R,0.12047X0.03504*%
%ADD13R,0.05906X0.01598*%
%ADD14R,0.01598X0.05906*%
%ADD15R,0.05906X0.05118*%
%ADD16R,0.11024X0.03740*%
%ADD17R,0.05906X0.02362*%
%ADD18R,0.03347X0.05512*%
%ADD19R,0.04724X0.13780*%
%ADD20O,0.02165X0.05906*%
%ADD21R,0.02165X0.05906*%
%ADD22R,0.05118X0.04528*%
%ADD23R,0.03937X0.01378*%
%ADD24R,0.05512X0.03347*%
%ADD25R,0.05118X0.05906*%
%ADD26C,0.01000*%
%ADD27R,0.06496X0.06496*%
%ADD28C,0.06496*%
G04:AMPARAMS|DCode=29|XSize=60mil|YSize=85mil|CornerRadius=0mil|HoleSize=0mil|Usage=FLASHONLY|Rotation=90.000|XOffset=0mil|YOffset=0mil|HoleType=Round|Shape=Octagon|*
%AMOCTAGOND29*
4,1,8,-0.04250,-0.01500,-0.04250,0.01500,-0.02750,0.03000,0.02750,0.03000,0.04250,0.01500,0.04250,-0.01500,0.02750,-0.03000,-0.02750,-0.03000,-0.04250,-0.01500,0.0*
%
%ADD29OCTAGOND29*%

G04:AMPARAMS|DCode=30|XSize=60mil|YSize=85mil|CornerRadius=0mil|HoleSize=0mil|Usage=FLASHONLY|Rotation=180.000|XOffset=0mil|YOffset=0mil|HoleType=Round|Shape=Octagon|*
%AMOCTAGOND30*
4,1,8,0.01500,-0.04250,-0.01500,-0.04250,-0.03000,-0.02750,-0.03000,0.02750,-0.01500,0.04250,0.01500,0.04250,0.03000,0.02750,0.03000,-0.02750,0.01500,-0.04250,0.0*
%
%ADD30OCTAGOND30*%

%ADD31C,0.03000*%
%ADD32C,0.08000*%
%ADD33C,0.05000*%
%ADD34C,0.40000*%
%ADD35C,0.10000*%
%ADD36C,0.04000*%
%ADD37C,0.07937*%
%ADD38C,0.07500*%
%ADD39C,0.05500*%
%ADD40C,0.09000*%
%ADD41C,0.30000*%
%ADD42C,0.09500*%
%ADD43R,0.38000X0.34000*%
%ADD44C,0.06800*%
%ADD45C,0.00984*%
%ADD46C,0.00787*%
%ADD47C,0.00500*%
%ADD48C,0.00800*%
%ADD49C,0.00700*%
G36*
X386211Y137507D02*
X385899D01*
X385762Y137498D01*
X385616Y137488D01*
X385479Y137478D01*
X385352Y137468D01*
X385343D01*
X385304Y137459D01*
X385255D01*
X385187Y137449D01*
X385040Y137419D01*
X384982Y137410D01*
X384923Y137390D01*
X384913D01*
X384904Y137381D01*
X384855Y137361D01*
X384806Y137332D01*
X384786Y137322D01*
X384777Y137302D01*
X384767Y137283D01*
X384757Y137263D01*
Y137224D01*
X384747Y137176D01*
X384738Y137117D01*
X384728Y137039D01*
Y136951D01*
Y131954D01*
Y131944D01*
Y131905D01*
Y131856D01*
Y131807D01*
X384738Y131681D01*
X384747Y131632D01*
X384757Y131593D01*
X384767Y131583D01*
X384777Y131573D01*
X384816Y131544D01*
X384874Y131515D01*
X384894D01*
X384943Y131495D01*
X385021Y131485D01*
X385148Y131466D01*
X385216Y131456D01*
X385304Y131446D01*
X385391Y131437D01*
X385499D01*
X385616Y131427D01*
X385743Y131417D01*
X386075D01*
X386143Y131427D01*
X386221D01*
X386319Y131437D01*
X386436Y131456D01*
X386563Y131476D01*
X386699Y131505D01*
X386836Y131544D01*
X386982Y131593D01*
X387139Y131651D01*
X387285Y131720D01*
X387431Y131798D01*
X387578Y131895D01*
X387705Y132003D01*
X387831Y132130D01*
X387841Y132139D01*
X387861Y132169D01*
X387890Y132208D01*
X387929Y132266D01*
X387978Y132344D01*
X388027Y132432D01*
X388085Y132549D01*
X388144Y132676D01*
X388202Y132823D01*
X388261Y132979D01*
X388310Y133164D01*
X388359Y133359D01*
X388398Y133574D01*
X388427Y133799D01*
X388446Y134052D01*
X388456Y134316D01*
X388583D01*
Y131300D01*
X382200D01*
Y131398D01*
X382454D01*
X382571Y131407D01*
X382688D01*
X382815Y131417D01*
X382932Y131427D01*
X382942D01*
X382981Y131437D01*
X383030D01*
X383098Y131446D01*
X383235Y131466D01*
X383293Y131485D01*
X383342Y131495D01*
X383352D01*
X383361Y131505D01*
X383401Y131525D01*
X383449Y131563D01*
X383488Y131603D01*
X383498Y131622D01*
Y131642D01*
X383508Y131671D01*
X383518Y131720D01*
Y131778D01*
X383527Y131847D01*
Y131944D01*
Y136951D01*
Y136961D01*
Y137000D01*
Y137049D01*
Y137097D01*
X383508Y137215D01*
X383498Y137263D01*
X383488Y137302D01*
Y137312D01*
X383469Y137332D01*
X383420Y137351D01*
X383352Y137381D01*
X383342D01*
X383332Y137390D01*
X383303Y137400D01*
X383254Y137410D01*
X383195Y137419D01*
X383117Y137429D01*
X383030Y137449D01*
X382912Y137459D01*
X382903D01*
X382854Y137468D01*
X382786Y137478D01*
X382708Y137488D01*
X382600D01*
X382473Y137498D01*
X382346Y137507D01*
X382200D01*
Y137595D01*
X386211D01*
Y137507D01*
D02*
G37*
G36*
X394839Y135155D02*
X394712D01*
Y135165D01*
Y135185D01*
Y135233D01*
X394703Y135282D01*
Y135350D01*
X394693Y135429D01*
X394683Y135516D01*
X394664Y135614D01*
X394624Y135838D01*
X394556Y136082D01*
X394459Y136336D01*
X394332Y136590D01*
X394322Y136600D01*
X394312Y136629D01*
X394283Y136678D01*
X394234Y136736D01*
X394185Y136805D01*
X394127Y136883D01*
X394049Y136961D01*
X393961Y137049D01*
X393863Y137136D01*
X393756Y137215D01*
X393639Y137293D01*
X393512Y137361D01*
X393375Y137419D01*
X393229Y137468D01*
X393063Y137498D01*
X392897Y137507D01*
X392428D01*
X392145Y137498D01*
X392009D01*
X391921Y137488D01*
X391823Y137478D01*
X391706Y137459D01*
X391482Y137400D01*
X391472Y137390D01*
X391433Y137371D01*
X391394Y137341D01*
X391365Y137293D01*
Y137283D01*
X391355Y137263D01*
Y137224D01*
X391345Y137185D01*
Y137127D01*
X391335Y137049D01*
Y136951D01*
Y134667D01*
X391501D01*
X391579Y134677D01*
X391667D01*
X391872Y134696D01*
X392087Y134716D01*
X392282Y134755D01*
X392380Y134775D01*
X392458Y134804D01*
X392526Y134833D01*
X392585Y134872D01*
X392604Y134892D01*
X392624Y134911D01*
X392643Y134941D01*
X392672Y134989D01*
X392711Y135048D01*
X392751Y135116D01*
X392790Y135204D01*
X392829Y135302D01*
X392877Y135419D01*
X392916Y135555D01*
X392955Y135712D01*
X393004Y135887D01*
X393034Y136082D01*
X393073Y136307D01*
X393102Y136551D01*
X393219D01*
Y132705D01*
X393102D01*
Y132725D01*
X393092Y132764D01*
X393082Y132832D01*
X393073Y132920D01*
X393053Y133028D01*
X393034Y133145D01*
X393014Y133272D01*
X392985Y133418D01*
X392916Y133691D01*
X392868Y133838D01*
X392829Y133965D01*
X392780Y134091D01*
X392721Y134199D01*
X392663Y134287D01*
X392594Y134355D01*
X392585Y134365D01*
X392536Y134384D01*
X392507Y134404D01*
X392458Y134423D01*
X392409Y134443D01*
X392341Y134462D01*
X392263Y134482D01*
X392175Y134501D01*
X392077Y134521D01*
X391960Y134540D01*
X391823Y134550D01*
X391677Y134560D01*
X391511Y134570D01*
X391335D01*
Y131954D01*
Y131944D01*
Y131915D01*
Y131866D01*
Y131807D01*
X391345Y131690D01*
Y131651D01*
X391355Y131612D01*
X391365Y131603D01*
X391394Y131573D01*
X391443Y131534D01*
X391492Y131505D01*
X391540Y131485D01*
X391550D01*
X391570Y131476D01*
X391599Y131466D01*
X391648Y131456D01*
X391755Y131437D01*
X391901Y131427D01*
X392067D01*
X392175Y131417D01*
X392741D01*
X392819Y131427D01*
X392907Y131437D01*
X393014Y131456D01*
X393131Y131476D01*
X393258Y131495D01*
X393531Y131573D01*
X393668Y131632D01*
X393814Y131690D01*
X393951Y131769D01*
X394078Y131856D01*
X394205Y131954D01*
X394312Y132071D01*
X394322Y132081D01*
X394341Y132100D01*
X394371Y132139D01*
X394400Y132198D01*
X394449Y132266D01*
X394498Y132354D01*
X394556Y132461D01*
X394615Y132588D01*
X394683Y132725D01*
X394742Y132881D01*
X394800Y133057D01*
X394859Y133252D01*
X394917Y133457D01*
X394966Y133691D01*
X395005Y133935D01*
X395034Y134199D01*
X395161D01*
Y131300D01*
X388817D01*
Y131398D01*
X389032D01*
X389110Y131407D01*
X389286D01*
X389481Y131427D01*
X389666Y131446D01*
X389842Y131466D01*
X389910Y131485D01*
X389969Y131505D01*
X389988Y131515D01*
X390018Y131534D01*
X390067Y131563D01*
X390096Y131603D01*
X390106Y131622D01*
Y131642D01*
X390115Y131671D01*
X390125Y131720D01*
Y131778D01*
X390135Y131847D01*
Y131944D01*
Y136951D01*
Y136961D01*
Y137000D01*
Y137049D01*
Y137097D01*
X390115Y137215D01*
X390106Y137263D01*
X390096Y137302D01*
Y137312D01*
X390076Y137332D01*
X390037Y137351D01*
X389969Y137381D01*
X389959D01*
X389949Y137390D01*
X389920Y137400D01*
X389871Y137410D01*
X389813Y137419D01*
X389735Y137429D01*
X389647Y137449D01*
X389530Y137459D01*
X389510D01*
X389471Y137468D01*
X389403Y137478D01*
X389315Y137488D01*
X389208D01*
X389091Y137498D01*
X388954Y137507D01*
X388817D01*
Y137595D01*
X394839D01*
Y135155D01*
D02*
G37*
G36*
X399553Y137585D02*
X399631D01*
X399729Y137566D01*
X399846Y137556D01*
X399973Y137527D01*
X400110Y137498D01*
X400256Y137449D01*
X400412Y137400D01*
X400578Y137332D01*
X400754Y137254D01*
X400920Y137166D01*
X401095Y137049D01*
X401271Y136932D01*
X401437Y136785D01*
X401447Y136775D01*
X401486Y136746D01*
X401535Y136688D01*
X401593Y136619D01*
X401671Y136522D01*
X401759Y136414D01*
X401857Y136287D01*
X401954Y136141D01*
X402042Y135975D01*
X402140Y135799D01*
X402227Y135604D01*
X402306Y135389D01*
X402364Y135165D01*
X402423Y134931D01*
X402452Y134677D01*
X402462Y134413D01*
Y134394D01*
Y134355D01*
X402452Y134277D01*
Y134179D01*
X402432Y134052D01*
X402413Y133916D01*
X402384Y133759D01*
X402345Y133594D01*
X402296Y133418D01*
X402237Y133223D01*
X402169Y133037D01*
X402081Y132842D01*
X401974Y132657D01*
X401857Y132471D01*
X401710Y132286D01*
X401554Y132120D01*
X401544Y132110D01*
X401515Y132081D01*
X401466Y132042D01*
X401398Y131993D01*
X401320Y131934D01*
X401213Y131856D01*
X401095Y131788D01*
X400969Y131710D01*
X400822Y131632D01*
X400656Y131563D01*
X400490Y131495D01*
X400295Y131427D01*
X400100Y131378D01*
X399885Y131339D01*
X399670Y131310D01*
X399436Y131300D01*
X395639D01*
Y131398D01*
X395903D01*
X396020Y131407D01*
X396147D01*
X396274Y131417D01*
X396391Y131427D01*
X396401D01*
X396440Y131437D01*
X396498D01*
X396567Y131446D01*
X396703Y131466D01*
X396772Y131485D01*
X396820Y131495D01*
X396830D01*
X396840Y131505D01*
X396879Y131525D01*
X396928Y131554D01*
X396957Y131583D01*
X396967Y131603D01*
Y131622D01*
X396977Y131651D01*
X396986Y131700D01*
Y131769D01*
X396996Y131847D01*
Y131944D01*
Y136951D01*
Y136961D01*
Y137000D01*
Y137039D01*
Y137097D01*
X396977Y137215D01*
X396967Y137263D01*
X396957Y137302D01*
Y137312D01*
X396938Y137332D01*
X396899Y137351D01*
X396830Y137381D01*
X396811Y137390D01*
X396772Y137400D01*
X396684Y137419D01*
X396625Y137429D01*
X396567Y137449D01*
X396489Y137459D01*
X396401Y137468D01*
X396303Y137478D01*
X396196Y137488D01*
X396079Y137498D01*
X395942D01*
X395796Y137507D01*
X395639D01*
Y137595D01*
X399495D01*
X399553Y137585D01*
D02*
G37*
G36*
X424480Y137507D02*
X424412D01*
X424363Y137498D01*
X424305D01*
X424236Y137488D01*
X424080Y137459D01*
X423924Y137410D01*
X423758Y137332D01*
X423621Y137224D01*
X423553Y137166D01*
X423504Y137088D01*
X423495Y137078D01*
X423475Y137029D01*
X423446Y136961D01*
X423417Y136853D01*
X423387Y136717D01*
X423358Y136551D01*
X423338Y136346D01*
X423329Y136102D01*
Y133174D01*
Y133164D01*
Y133125D01*
Y133076D01*
X423319Y132998D01*
X423309Y132910D01*
X423290Y132813D01*
X423260Y132696D01*
X423231Y132579D01*
X423192Y132452D01*
X423143Y132325D01*
X423075Y132188D01*
X423007Y132061D01*
X422919Y131925D01*
X422811Y131807D01*
X422694Y131690D01*
X422558Y131583D01*
X422548D01*
X422538Y131563D01*
X422509Y131554D01*
X422470Y131525D01*
X422353Y131466D01*
X422216Y131398D01*
X422050Y131329D01*
X421855Y131271D01*
X421650Y131232D01*
X421435Y131212D01*
X421328D01*
X421250Y131222D01*
X421162D01*
X421045Y131241D01*
X420928Y131251D01*
X420791Y131271D01*
X420498Y131329D01*
X420196Y131407D01*
X419883Y131525D01*
X419737Y131593D01*
X419591Y131671D01*
X419581Y131681D01*
X419552Y131690D01*
X419513Y131720D01*
X419464Y131769D01*
X419405Y131817D01*
X419327Y131876D01*
X419259Y131954D01*
X419181Y132042D01*
X419103Y132130D01*
X419034Y132237D01*
X418966Y132354D01*
X418898Y132481D01*
X418849Y132618D01*
X418810Y132754D01*
X418781Y132910D01*
X418771Y133076D01*
Y136951D01*
Y136961D01*
Y137000D01*
Y137039D01*
Y137097D01*
X418751Y137215D01*
X418741Y137263D01*
X418732Y137302D01*
Y137312D01*
X418712Y137332D01*
X418673Y137351D01*
X418615Y137381D01*
X418605Y137390D01*
X418556Y137400D01*
X418478Y137419D01*
X418361Y137449D01*
X418214Y137468D01*
X418029Y137488D01*
X417922Y137498D01*
X417804D01*
X417678Y137507D01*
X417541D01*
Y137595D01*
X421299D01*
Y137507D01*
X421035D01*
X420928Y137498D01*
X420801D01*
X420684Y137488D01*
X420567Y137478D01*
X420557D01*
X420518Y137468D01*
X420469D01*
X420410Y137459D01*
X420284Y137429D01*
X420225Y137419D01*
X420166Y137400D01*
X420157D01*
X420147Y137390D01*
X420098Y137371D01*
X420049Y137341D01*
X420030Y137332D01*
X420020Y137312D01*
X420010Y137293D01*
X420001Y137273D01*
Y137234D01*
X419991Y137185D01*
X419981Y137127D01*
X419971Y137049D01*
Y136961D01*
Y133281D01*
Y133272D01*
Y133242D01*
Y133193D01*
X419981Y133125D01*
Y133047D01*
X419991Y132949D01*
X420010Y132745D01*
X420040Y132510D01*
X420098Y132286D01*
X420166Y132071D01*
X420215Y131973D01*
X420264Y131886D01*
Y131876D01*
X420284Y131866D01*
X420332Y131807D01*
X420371Y131769D01*
X420420Y131729D01*
X420489Y131681D01*
X420557Y131632D01*
X420635Y131583D01*
X420732Y131534D01*
X420830Y131495D01*
X420947Y131456D01*
X421074Y131427D01*
X421211Y131398D01*
X421367Y131388D01*
X421533Y131378D01*
X421582D01*
X421621Y131388D01*
X421718Y131398D01*
X421845Y131427D01*
X422001Y131466D01*
X422167Y131534D01*
X422343Y131622D01*
X422519Y131739D01*
X422528Y131749D01*
X422548Y131759D01*
X422577Y131788D01*
X422626Y131837D01*
X422675Y131886D01*
X422733Y131954D01*
X422792Y132022D01*
X422860Y132110D01*
X422919Y132208D01*
X422977Y132315D01*
X423036Y132432D01*
X423085Y132559D01*
X423133Y132705D01*
X423163Y132852D01*
X423182Y133018D01*
X423192Y133184D01*
Y135731D01*
Y135741D01*
Y135780D01*
Y135829D01*
Y135897D01*
X423182Y135975D01*
X423173Y136073D01*
X423153Y136278D01*
X423114Y136512D01*
X423065Y136736D01*
X423026Y136844D01*
X422987Y136951D01*
X422938Y137039D01*
X422880Y137117D01*
X422870Y137136D01*
X422821Y137176D01*
X422743Y137244D01*
X422636Y137312D01*
X422489Y137381D01*
X422314Y137449D01*
X422109Y137488D01*
X421855Y137507D01*
Y137595D01*
X424480D01*
Y137507D01*
D02*
G37*
G36*
X428667Y137585D02*
X428755Y137576D01*
X428863Y137566D01*
X428970Y137546D01*
X429097Y137527D01*
X429360Y137459D01*
X429507Y137410D01*
X429643Y137361D01*
X429780Y137293D01*
X429917Y137215D01*
X430053Y137127D01*
X430170Y137029D01*
X430180D01*
X430190Y137010D01*
X430248Y136951D01*
X430327Y136863D01*
X430424Y136746D01*
X430512Y136609D01*
X430590Y136453D01*
X430649Y136278D01*
X430658Y136190D01*
X430668Y136102D01*
Y136092D01*
Y136073D01*
Y136043D01*
Y136004D01*
X430649Y135897D01*
X430629Y135770D01*
X430590Y135633D01*
X430541Y135487D01*
X430463Y135350D01*
X430366Y135223D01*
X430346Y135204D01*
X430317Y135185D01*
X430288Y135155D01*
X430239Y135126D01*
X430180Y135087D01*
X430112Y135048D01*
X430024Y134999D01*
X429926Y134960D01*
X429819Y134911D01*
X429692Y134862D01*
X429556Y134814D01*
X429409Y134775D01*
X429233Y134726D01*
X429058Y134687D01*
X428853Y134657D01*
X428863D01*
X428902Y134648D01*
X428960Y134638D01*
X429048Y134628D01*
X429146Y134609D01*
X429253Y134579D01*
X429380Y134550D01*
X429507Y134521D01*
X429790Y134433D01*
X430073Y134316D01*
X430336Y134169D01*
X430463Y134082D01*
X430571Y133984D01*
X430580D01*
X430590Y133965D01*
X430639Y133906D01*
X430717Y133808D01*
X430795Y133681D01*
X430873Y133525D01*
X430951Y133340D01*
X431000Y133125D01*
X431019Y133008D01*
Y132881D01*
Y132871D01*
Y132862D01*
Y132832D01*
X431010Y132793D01*
X430990Y132686D01*
X430961Y132549D01*
X430893Y132393D01*
X430805Y132217D01*
X430746Y132130D01*
X430678Y132042D01*
X430600Y131944D01*
X430512Y131856D01*
X430502Y131847D01*
X430483Y131837D01*
X430453Y131807D01*
X430405Y131769D01*
X430346Y131729D01*
X430278Y131681D01*
X430200Y131632D01*
X430112Y131583D01*
X430005Y131525D01*
X429897Y131476D01*
X429643Y131388D01*
X429507Y131349D01*
X429360Y131319D01*
X429214Y131310D01*
X429048Y131300D01*
X424500D01*
Y131398D01*
X424832D01*
X425037Y131407D01*
X425251Y131417D01*
X425447Y131427D01*
X425544Y131437D01*
X425622Y131446D01*
X425681Y131466D01*
X425730Y131476D01*
X425749Y131485D01*
X425788Y131505D01*
X425827Y131534D01*
X425866Y131583D01*
X425876Y131603D01*
Y131622D01*
X425886Y131661D01*
X425896Y131710D01*
Y131769D01*
X425905Y131847D01*
Y131944D01*
Y136961D01*
Y136971D01*
Y137010D01*
Y137049D01*
Y137107D01*
X425886Y137224D01*
X425876Y137273D01*
X425866Y137312D01*
Y137322D01*
X425847Y137341D01*
X425808Y137361D01*
X425739Y137390D01*
X425730Y137400D01*
X425681Y137410D01*
X425642Y137419D01*
X425603Y137429D01*
X425544Y137439D01*
X425476Y137449D01*
X425398Y137459D01*
X425310Y137468D01*
X425212Y137478D01*
X425095Y137488D01*
X424968Y137498D01*
X424832Y137507D01*
X424500D01*
Y137595D01*
X428589D01*
X428667Y137585D01*
D02*
G37*
G36*
X442800Y180400D02*
X423600Y174000D01*
Y160600D01*
X425200Y161200D01*
X441600Y167400D01*
X442800Y167600D01*
Y153200D01*
X413200Y142800D01*
X412400D01*
Y184400D01*
X442000Y194800D01*
X442800Y195100D01*
Y180400D01*
D02*
G37*
G36*
X412400Y206800D02*
X439600Y197200D01*
X440600Y196800D01*
X439600Y196400D01*
X429200Y192400D01*
X428500Y192100D01*
X410200Y198200D01*
X394000Y192400D01*
X392400Y191800D01*
X390800Y192400D01*
X380400Y196400D01*
X379100Y196800D01*
X380400Y197200D01*
X408400Y206800D01*
X410400Y207400D01*
X412400Y206800D01*
D02*
G37*
G36*
X380400Y194000D02*
X390000Y190000D01*
Y163600D01*
X408400Y157200D01*
Y142800D01*
X407600D01*
X378000Y153200D01*
X378100Y194900D01*
X380400Y194000D01*
D02*
G37*
G36*
X437471Y135155D02*
X437344D01*
Y135165D01*
Y135185D01*
Y135233D01*
X437334Y135282D01*
Y135350D01*
X437324Y135429D01*
X437315Y135516D01*
X437295Y135614D01*
X437256Y135838D01*
X437188Y136082D01*
X437090Y136336D01*
X436963Y136590D01*
X436954Y136600D01*
X436944Y136629D01*
X436915Y136678D01*
X436866Y136736D01*
X436817Y136805D01*
X436758Y136883D01*
X436680Y136961D01*
X436592Y137049D01*
X436495Y137136D01*
X436387Y137215D01*
X436270Y137293D01*
X436143Y137361D01*
X436007Y137419D01*
X435860Y137468D01*
X435695Y137498D01*
X435529Y137507D01*
X435060D01*
X434777Y137498D01*
X434641D01*
X434553Y137488D01*
X434455Y137478D01*
X434338Y137459D01*
X434113Y137400D01*
X434104Y137390D01*
X434065Y137371D01*
X434026Y137341D01*
X433996Y137293D01*
Y137283D01*
X433987Y137263D01*
Y137224D01*
X433977Y137185D01*
Y137127D01*
X433967Y137049D01*
Y136951D01*
Y134667D01*
X434133D01*
X434211Y134677D01*
X434299D01*
X434504Y134696D01*
X434719Y134716D01*
X434914Y134755D01*
X435011Y134775D01*
X435089Y134804D01*
X435158Y134833D01*
X435216Y134872D01*
X435236Y134892D01*
X435255Y134911D01*
X435275Y134941D01*
X435304Y134989D01*
X435343Y135048D01*
X435382Y135116D01*
X435421Y135204D01*
X435460Y135302D01*
X435509Y135419D01*
X435548Y135555D01*
X435587Y135712D01*
X435636Y135887D01*
X435665Y136082D01*
X435704Y136307D01*
X435734Y136551D01*
X435851D01*
Y132705D01*
X435734D01*
Y132725D01*
X435724Y132764D01*
X435714Y132832D01*
X435704Y132920D01*
X435685Y133028D01*
X435665Y133145D01*
X435646Y133272D01*
X435616Y133418D01*
X435548Y133691D01*
X435499Y133838D01*
X435460Y133965D01*
X435412Y134091D01*
X435353Y134199D01*
X435294Y134287D01*
X435226Y134355D01*
X435216Y134365D01*
X435168Y134384D01*
X435138Y134404D01*
X435089Y134423D01*
X435041Y134443D01*
X434972Y134462D01*
X434894Y134482D01*
X434806Y134501D01*
X434709Y134521D01*
X434592Y134540D01*
X434455Y134550D01*
X434309Y134560D01*
X434143Y134570D01*
X433967D01*
Y131954D01*
Y131944D01*
Y131915D01*
Y131866D01*
Y131807D01*
X433977Y131690D01*
Y131651D01*
X433987Y131612D01*
X433996Y131603D01*
X434026Y131573D01*
X434074Y131534D01*
X434123Y131505D01*
X434172Y131485D01*
X434182D01*
X434201Y131476D01*
X434231Y131466D01*
X434279Y131456D01*
X434387Y131437D01*
X434533Y131427D01*
X434699D01*
X434806Y131417D01*
X435372D01*
X435451Y131427D01*
X435538Y131437D01*
X435646Y131456D01*
X435763Y131476D01*
X435890Y131495D01*
X436163Y131573D01*
X436300Y131632D01*
X436446Y131690D01*
X436583Y131769D01*
X436710Y131856D01*
X436836Y131954D01*
X436944Y132071D01*
X436954Y132081D01*
X436973Y132100D01*
X437002Y132139D01*
X437032Y132198D01*
X437080Y132266D01*
X437129Y132354D01*
X437188Y132461D01*
X437246Y132588D01*
X437315Y132725D01*
X437373Y132881D01*
X437432Y133057D01*
X437490Y133252D01*
X437549Y133457D01*
X437598Y133691D01*
X437637Y133935D01*
X437666Y134199D01*
X437793D01*
Y131300D01*
X431449D01*
Y131398D01*
X431664D01*
X431742Y131407D01*
X431917D01*
X432113Y131427D01*
X432298Y131446D01*
X432474Y131466D01*
X432542Y131485D01*
X432601Y131505D01*
X432620Y131515D01*
X432649Y131534D01*
X432698Y131563D01*
X432727Y131603D01*
X432737Y131622D01*
Y131642D01*
X432747Y131671D01*
X432757Y131720D01*
Y131778D01*
X432767Y131847D01*
Y131944D01*
Y136951D01*
Y136961D01*
Y137000D01*
Y137049D01*
Y137097D01*
X432747Y137215D01*
X432737Y137263D01*
X432727Y137302D01*
Y137312D01*
X432708Y137332D01*
X432669Y137351D01*
X432601Y137381D01*
X432591D01*
X432581Y137390D01*
X432552Y137400D01*
X432503Y137410D01*
X432444Y137419D01*
X432366Y137429D01*
X432279Y137449D01*
X432161Y137459D01*
X432142D01*
X432103Y137468D01*
X432035Y137478D01*
X431947Y137488D01*
X431839D01*
X431722Y137498D01*
X431586Y137507D01*
X431449D01*
Y137595D01*
X437471D01*
Y135155D01*
D02*
G37*
G36*
X417219Y134892D02*
X417141Y134941D01*
Y134950D01*
Y134999D01*
Y135058D01*
X417131Y135145D01*
X417121Y135253D01*
X417102Y135380D01*
X417082Y135516D01*
X417053Y135663D01*
X417014Y135819D01*
X416965Y135985D01*
X416916Y136151D01*
X416848Y136317D01*
X416760Y136483D01*
X416672Y136648D01*
X416565Y136805D01*
X416438Y136951D01*
X416428Y136961D01*
X416409Y136980D01*
X416379Y137010D01*
X416340Y137049D01*
X416282Y137097D01*
X416223Y137156D01*
X416067Y137273D01*
X415892Y137381D01*
X415687Y137488D01*
X415579Y137527D01*
X415462Y137556D01*
X415345Y137576D01*
X415228Y137585D01*
X415189D01*
X415150Y137576D01*
X415091D01*
X415023Y137566D01*
X414945Y137546D01*
X414759Y137488D01*
X414662Y137449D01*
X414554Y137390D01*
X414457Y137332D01*
X414359Y137254D01*
X414262Y137166D01*
X414164Y137058D01*
X414086Y136932D01*
X414008Y136795D01*
Y136785D01*
X413988Y136756D01*
X413979Y136717D01*
X413949Y136648D01*
X413920Y136570D01*
X413891Y136463D01*
X413861Y136346D01*
X413822Y136209D01*
X413783Y136053D01*
X413754Y135877D01*
X413725Y135682D01*
X413695Y135468D01*
X413676Y135243D01*
X413657Y134989D01*
X413637Y134716D01*
Y134433D01*
Y134413D01*
Y134365D01*
Y134287D01*
X413647Y134179D01*
Y134052D01*
X413657Y133896D01*
X413666Y133740D01*
X413686Y133555D01*
X413735Y133184D01*
X413803Y132793D01*
X413852Y132598D01*
X413901Y132422D01*
X413969Y132247D01*
X414037Y132091D01*
X414047Y132081D01*
X414057Y132061D01*
X414076Y132022D01*
X414115Y131964D01*
X414203Y131837D01*
X414340Y131700D01*
X414515Y131554D01*
X414720Y131427D01*
X414837Y131378D01*
X414974Y131339D01*
X415111Y131310D01*
X415257Y131300D01*
X415345D01*
X415413Y131310D01*
X415491Y131319D01*
X415579Y131329D01*
X415677Y131349D01*
X415784Y131368D01*
X416009Y131437D01*
X416253Y131534D01*
X416370Y131593D01*
X416477Y131671D01*
X416584Y131749D01*
X416682Y131847D01*
X416692Y131856D01*
X416711Y131876D01*
X416741Y131915D01*
X416780Y131973D01*
X416819Y132042D01*
X416877Y132130D01*
X416926Y132227D01*
X416985Y132344D01*
X417043Y132481D01*
X417092Y132637D01*
X417151Y132803D01*
X417190Y132989D01*
X417229Y133193D01*
X417258Y133418D01*
X417277Y133662D01*
X417287Y133916D01*
X417365D01*
Y133896D01*
Y133857D01*
Y133779D01*
X417355Y133681D01*
X417346Y133564D01*
X417336Y133437D01*
X417316Y133291D01*
X417297Y133125D01*
X417229Y132793D01*
X417131Y132452D01*
X417072Y132286D01*
X417004Y132130D01*
X416916Y131983D01*
X416819Y131856D01*
X416809Y131847D01*
X416789Y131827D01*
X416760Y131798D01*
X416721Y131759D01*
X416663Y131710D01*
X416594Y131651D01*
X416516Y131593D01*
X416419Y131534D01*
X416321Y131476D01*
X416204Y131417D01*
X416077Y131359D01*
X415931Y131310D01*
X415784Y131271D01*
X415618Y131241D01*
X415443Y131222D01*
X415257Y131212D01*
X415208D01*
X415150Y131222D01*
X415062D01*
X414964Y131232D01*
X414847Y131251D01*
X414720Y131271D01*
X414574Y131300D01*
X414428Y131339D01*
X414271Y131388D01*
X414105Y131437D01*
X413940Y131505D01*
X413774Y131593D01*
X413608Y131681D01*
X413451Y131788D01*
X413295Y131915D01*
X413286Y131925D01*
X413256Y131954D01*
X413207Y132003D01*
X413149Y132071D01*
X413071Y132159D01*
X412993Y132266D01*
X412905Y132383D01*
X412817Y132530D01*
X412729Y132696D01*
X412641Y132871D01*
X412563Y133067D01*
X412485Y133291D01*
X412427Y133516D01*
X412378Y133769D01*
X412349Y134043D01*
X412339Y134326D01*
Y134345D01*
Y134394D01*
X412349Y134472D01*
X412358Y134579D01*
X412368Y134706D01*
X412388Y134862D01*
X412417Y135028D01*
X412456Y135214D01*
X412515Y135409D01*
X412573Y135614D01*
X412651Y135819D01*
X412749Y136034D01*
X412856Y136239D01*
X412983Y136443D01*
X413139Y136648D01*
X413305Y136834D01*
X413315Y136844D01*
X413344Y136873D01*
X413393Y136912D01*
X413451Y136961D01*
X413530Y137029D01*
X413617Y137097D01*
X413725Y137176D01*
X413842Y137254D01*
X413969Y137332D01*
X414105Y137410D01*
X414252Y137478D01*
X414408Y137546D01*
X414564Y137595D01*
X414730Y137634D01*
X414906Y137663D01*
X415081Y137673D01*
X415160D01*
X415247Y137663D01*
X415355Y137654D01*
X415482Y137634D01*
X415609Y137605D01*
X415745Y137566D01*
X415882Y137507D01*
X415892D01*
X415901Y137498D01*
X415960Y137468D01*
X416038Y137410D01*
X416145Y137341D01*
X416272Y137244D01*
X416409Y137117D01*
X416545Y136971D01*
X416682Y136805D01*
X417170Y137722D01*
X417219D01*
Y134892D01*
D02*
G37*
%LPC*%
G36*
X428160Y137507D02*
X427428D01*
X427330Y137488D01*
X427281Y137478D01*
X427242Y137468D01*
X427223Y137459D01*
X427194Y137439D01*
X427155Y137400D01*
X427125Y137341D01*
Y137322D01*
X427115Y137293D01*
Y137254D01*
Y137205D01*
X427106Y137136D01*
Y137058D01*
Y136961D01*
Y134696D01*
X428121D01*
X428179Y134706D01*
X428248D01*
X428404Y134726D01*
X428570Y134765D01*
X428745Y134804D01*
X428911Y134872D01*
X429058Y134960D01*
X429077Y134979D01*
X429126Y135019D01*
X429185Y135097D01*
X429263Y135204D01*
X429341Y135350D01*
X429399Y135536D01*
X429448Y135751D01*
X429468Y135868D01*
Y136004D01*
Y136014D01*
Y136043D01*
Y136082D01*
Y136141D01*
X429458Y136209D01*
X429448Y136287D01*
X429429Y136463D01*
X429390Y136648D01*
X429331Y136844D01*
X429243Y137019D01*
X429194Y137097D01*
X429136Y137166D01*
X429116Y137185D01*
X429068Y137224D01*
X428989Y137273D01*
X428872Y137341D01*
X428716Y137400D01*
X428628Y137429D01*
X428521Y137459D01*
X428414Y137478D01*
X428287Y137498D01*
X428160Y137507D01*
D02*
G37*
G36*
X399436D02*
X399056D01*
X398938Y137498D01*
X398821D01*
X398714Y137488D01*
X398675D01*
X398636Y137478D01*
X398577D01*
X398460Y137459D01*
X398411Y137439D01*
X398363Y137429D01*
X398343Y137419D01*
X398314Y137400D01*
X398265Y137361D01*
X398226Y137312D01*
Y137293D01*
X398216Y137273D01*
Y137244D01*
X398206Y137195D01*
Y137127D01*
X398197Y137049D01*
Y136951D01*
Y131944D01*
Y131934D01*
Y131895D01*
Y131847D01*
Y131788D01*
X398206Y131671D01*
X398216Y131612D01*
X398226Y131573D01*
X398236Y131563D01*
X398255Y131525D01*
X398304Y131485D01*
X398363Y131446D01*
X398372D01*
X398382Y131437D01*
X398411D01*
X398450Y131427D01*
X398509Y131417D01*
X398577Y131407D01*
X398675D01*
X398782Y131398D01*
X399475D01*
X399524Y131407D01*
X399592D01*
X399661Y131417D01*
X399748Y131437D01*
X399953Y131495D01*
X400061Y131534D01*
X400178Y131583D01*
X400285Y131642D01*
X400402Y131720D01*
X400510Y131798D01*
X400607Y131905D01*
X400705Y132012D01*
X400793Y132149D01*
X400803Y132159D01*
X400812Y132188D01*
X400832Y132227D01*
X400861Y132286D01*
X400890Y132374D01*
X400929Y132471D01*
X400969Y132579D01*
X401008Y132715D01*
X401047Y132862D01*
X401086Y133028D01*
X401125Y133213D01*
X401154Y133418D01*
X401183Y133642D01*
X401203Y133877D01*
X401222Y134130D01*
Y134404D01*
Y134423D01*
Y134472D01*
Y134540D01*
X401213Y134638D01*
Y134765D01*
X401203Y134901D01*
X401183Y135058D01*
X401164Y135223D01*
X401115Y135585D01*
X401037Y135956D01*
X400929Y136317D01*
X400861Y136483D01*
X400783Y136639D01*
X400773Y136648D01*
X400764Y136678D01*
X400734Y136717D01*
X400695Y136775D01*
X400646Y136844D01*
X400588Y136912D01*
X400520Y136990D01*
X400441Y137078D01*
X400354Y137156D01*
X400256Y137234D01*
X400139Y137302D01*
X400022Y137371D01*
X399895Y137429D01*
X399748Y137468D01*
X399602Y137498D01*
X399436Y137507D01*
D02*
G37*
G36*
X428257Y134609D02*
X427106D01*
Y131944D01*
Y131934D01*
Y131895D01*
Y131847D01*
Y131788D01*
X427115Y131661D01*
X427125Y131612D01*
X427135Y131573D01*
X427145Y131563D01*
X427164Y131525D01*
X427213Y131485D01*
X427281Y131446D01*
X427291D01*
X427301Y131437D01*
X427359Y131427D01*
X427457Y131407D01*
X427574Y131398D01*
X427750D01*
X427867Y131388D01*
X428492D01*
X428541Y131398D01*
X428599D01*
X428658Y131407D01*
X428814Y131437D01*
X428980Y131495D01*
X429155Y131563D01*
X429312Y131671D01*
X429390Y131729D01*
X429458Y131807D01*
X429468Y131827D01*
X429507Y131876D01*
X429556Y131964D01*
X429624Y132081D01*
X429682Y132237D01*
X429731Y132413D01*
X429770Y132627D01*
X429780Y132871D01*
Y132881D01*
Y132910D01*
Y132949D01*
X429770Y133008D01*
Y133076D01*
X429761Y133154D01*
X429731Y133330D01*
X429692Y133535D01*
X429624Y133740D01*
X429536Y133945D01*
X429409Y134121D01*
Y134130D01*
X429390Y134140D01*
X429341Y134199D01*
X429243Y134277D01*
X429116Y134365D01*
X428960Y134452D01*
X428755Y134531D01*
X428521Y134589D01*
X428394Y134599D01*
X428257Y134609D01*
D02*
G37*
%LPD*%
D26*
X366300Y267900D02*
G03*
X366300Y267900I-1389J0D01*
G01*
X164600Y246000D02*
Y291000D01*
X104600D02*
X164600D01*
X104600Y246000D02*
Y291000D01*
Y246000D02*
X164600D01*
X349500Y283500D02*
X404500D01*
Y228500D02*
Y283500D01*
X349500Y228500D02*
X404500D01*
X349500D02*
Y283500D01*
X183704Y271709D02*
X196598D01*
Y291000D01*
X183704D02*
X196598D01*
X183704Y271709D02*
Y291000D01*
X473988Y472260D02*
Y479740D01*
X460012D02*
X473988D01*
X460012Y472260D02*
Y479740D01*
Y472260D02*
X473988D01*
X328000Y228500D02*
X348000D01*
X328000D02*
Y268500D01*
X348000D01*
Y228500D02*
Y268500D01*
X364000Y197000D02*
Y227000D01*
X320000D02*
X364000D01*
X320000Y195000D02*
Y227000D01*
Y195000D02*
X364000D01*
Y197000D01*
X372012Y285260D02*
Y292740D01*
Y285260D02*
X385988D01*
Y292740D01*
X372012D02*
X385988D01*
X182240Y277024D02*
Y291000D01*
X174760Y277024D02*
X182240D01*
X174760D02*
Y291000D01*
X182240D01*
X173340Y277024D02*
Y291000D01*
X165860Y277024D02*
X173340D01*
X165860D02*
Y291000D01*
X173340D01*
X229240Y277012D02*
Y290988D01*
X221760Y277012D02*
X229240D01*
X221760D02*
Y290988D01*
X229240D01*
X220140Y277012D02*
Y290988D01*
X212660Y277012D02*
X220140D01*
X212660D02*
Y290988D01*
X220140D01*
X182240Y261512D02*
Y275488D01*
X174760Y261512D02*
X182240D01*
X174760D02*
Y275488D01*
X182240D01*
X165860Y261512D02*
Y275488D01*
X173340D01*
Y261512D02*
Y275488D01*
X165860Y261512D02*
X173340D01*
X182240Y246000D02*
Y259976D01*
X174760Y246000D02*
X182240D01*
X174760D02*
Y259976D01*
X182240D01*
X173340Y246000D02*
Y259976D01*
X165860Y246000D02*
X173340D01*
X165860D02*
Y259976D01*
X173340D01*
X135012Y237060D02*
X148988D01*
X135012D02*
Y244540D01*
X148988D01*
Y237060D02*
Y244540D01*
X198104Y271654D02*
X210998D01*
Y290946D01*
X198104D02*
X210998D01*
X198104Y271654D02*
Y290946D01*
X271740Y181012D02*
Y194988D01*
X264260Y181012D02*
X271740D01*
X264260D02*
Y194988D01*
X271740D01*
X298740Y181012D02*
Y194988D01*
X291260Y181012D02*
X298740D01*
X291260D02*
Y194988D01*
X298740D01*
X238340Y277012D02*
Y290988D01*
X230860Y277012D02*
X238340D01*
X230860D02*
Y290988D01*
X238340D01*
X247440Y277024D02*
Y291000D01*
X239960Y277024D02*
X247440D01*
X239960D02*
Y291000D01*
X247440D01*
X150512Y235840D02*
X164488D01*
Y228360D02*
Y235840D01*
X150512Y228360D02*
X164488D01*
X150512D02*
Y235840D01*
Y244640D02*
X164488D01*
Y237160D02*
Y244640D01*
X150512Y237160D02*
X164488D01*
X150512D02*
Y244640D01*
X385488Y219260D02*
Y226740D01*
X371512D02*
X385488D01*
X371512Y219260D02*
Y226740D01*
Y219260D02*
X385488D01*
X333988Y185260D02*
Y192740D01*
X320012D02*
X333988D01*
X320012Y185260D02*
Y192740D01*
Y185260D02*
X333988D01*
X348988D02*
Y192740D01*
X335012D02*
X348988D01*
X335012Y185260D02*
Y192740D01*
Y185260D02*
X348988D01*
X333988Y176260D02*
Y183740D01*
X320012D02*
X333988D01*
X320012Y176260D02*
Y183740D01*
Y176260D02*
X333988D01*
X334012Y269760D02*
Y277240D01*
Y269760D02*
X347988D01*
Y277240D01*
X334012D02*
X347988D01*
X406260Y262488D02*
X413740D01*
X406260Y248512D02*
Y262488D01*
Y248512D02*
X413740D01*
Y262488D01*
X217244Y486260D02*
Y493740D01*
Y486260D02*
X231221D01*
Y493740D01*
X217244D02*
X231221D01*
X287244Y486260D02*
Y493740D01*
Y486260D02*
X301220D01*
Y493740D01*
X287244D02*
X301220D01*
X357244Y486260D02*
Y493740D01*
Y486260D02*
X371220D01*
Y493740D01*
X357244D02*
X371220D01*
X217244Y478260D02*
Y485740D01*
Y478260D02*
X231221D01*
Y485740D01*
X217244D02*
X231221D01*
X287244Y478260D02*
Y485740D01*
Y478260D02*
X301220D01*
Y485740D01*
X287244D02*
X301220D01*
X357244Y478260D02*
Y485740D01*
Y478260D02*
X371220D01*
Y485740D01*
X357244D02*
X371220D01*
X217244Y470260D02*
Y477740D01*
Y470260D02*
X231221D01*
Y477740D01*
X217244D02*
X231221D01*
X287244Y470260D02*
Y477740D01*
Y470260D02*
X301220D01*
Y477740D01*
X287244D02*
X301220D01*
X357244Y470260D02*
Y477740D01*
Y470260D02*
X371220D01*
Y477740D01*
X357244D02*
X371220D01*
X217244Y462260D02*
Y469740D01*
Y462260D02*
X231221D01*
Y469740D01*
X217244D02*
X231221D01*
X287244Y462260D02*
Y469740D01*
Y462260D02*
X301220D01*
Y469740D01*
X287244D02*
X301220D01*
X357244Y462260D02*
Y469740D01*
Y462260D02*
X371220D01*
Y469740D01*
X357244D02*
X371220D01*
X217244Y454260D02*
Y461740D01*
Y454260D02*
X231221D01*
Y461740D01*
X217244D02*
X231221D01*
X287244Y454260D02*
Y461740D01*
Y454260D02*
X301220D01*
Y461740D01*
X287244D02*
X301220D01*
X357244Y454260D02*
Y461740D01*
Y454260D02*
X371220D01*
Y461740D01*
X357244D02*
X371220D01*
X217244Y446260D02*
Y453740D01*
Y446260D02*
X231221D01*
Y453740D01*
X217244D02*
X231221D01*
X287244Y446260D02*
Y453740D01*
Y446260D02*
X301220D01*
Y453740D01*
X287244D02*
X301220D01*
X357244Y446260D02*
Y453740D01*
Y446260D02*
X371220D01*
Y453740D01*
X357244D02*
X371220D01*
X217244Y438260D02*
Y445740D01*
Y438260D02*
X231221D01*
Y445740D01*
X217244D02*
X231221D01*
X287244Y438260D02*
Y445740D01*
Y438260D02*
X301220D01*
Y445740D01*
X287244D02*
X301220D01*
X357244Y438260D02*
Y445740D01*
Y438260D02*
X371220D01*
Y445740D01*
X357244D02*
X371220D01*
X147244Y430260D02*
Y437740D01*
Y430260D02*
X161221D01*
Y437740D01*
X147244D02*
X161221D01*
X217244Y430260D02*
Y437740D01*
Y430260D02*
X231221D01*
Y437740D01*
X217244D02*
X231221D01*
X287244Y430260D02*
Y437740D01*
Y430260D02*
X301220D01*
Y437740D01*
X287244D02*
X301220D01*
X357244Y430260D02*
Y437740D01*
Y430260D02*
X371220D01*
Y437740D01*
X357244D02*
X371220D01*
X147012Y353260D02*
Y360740D01*
Y353260D02*
X160988D01*
Y360740D01*
X147012D02*
X160988D01*
X147012Y345260D02*
Y352740D01*
Y345260D02*
X160988D01*
Y352740D01*
X147012D02*
X160988D01*
X147012Y337260D02*
Y344740D01*
Y337260D02*
X160988D01*
Y344740D01*
X147012D02*
X160988D01*
X428012Y266260D02*
Y273740D01*
Y266260D02*
X441988D01*
Y273740D01*
X428012D02*
X441988D01*
X428012Y257260D02*
Y264740D01*
Y257260D02*
X441988D01*
Y264740D01*
X428012D02*
X441988D01*
X428012Y296260D02*
Y303740D01*
Y296260D02*
X441988D01*
Y303740D01*
X428012D02*
X441988D01*
X428012Y287260D02*
Y294740D01*
Y287260D02*
X441988D01*
Y294740D01*
X428012D02*
X441988D01*
X428012Y326260D02*
Y333740D01*
Y326260D02*
X441988D01*
Y333740D01*
X428012D02*
X441988D01*
X428012Y317260D02*
Y324740D01*
Y317260D02*
X441988D01*
Y324740D01*
X428012D02*
X441988D01*
X428012Y356260D02*
Y363740D01*
Y356260D02*
X441988D01*
Y363740D01*
X428012D02*
X441988D01*
X428012Y347260D02*
Y354740D01*
Y347260D02*
X441988D01*
Y354740D01*
X428012D02*
X441988D01*
X428012Y386260D02*
Y393740D01*
Y386260D02*
X441988D01*
Y393740D01*
X428012D02*
X441988D01*
X428012Y377260D02*
Y384740D01*
Y377260D02*
X441988D01*
Y384740D01*
X428012D02*
X441988D01*
X428012Y416260D02*
Y423740D01*
Y416260D02*
X441988D01*
Y423740D01*
X428012D02*
X441988D01*
X428012Y407260D02*
Y414740D01*
Y407260D02*
X441988D01*
Y414740D01*
X428012D02*
X441988D01*
X428012Y446260D02*
Y453740D01*
Y446260D02*
X441988D01*
Y453740D01*
X428012D02*
X441988D01*
X428012Y437260D02*
Y444740D01*
Y437260D02*
X441988D01*
Y444740D01*
X428012D02*
X441988D01*
X315260Y150059D02*
X322740D01*
Y164035D01*
X315260D02*
X322740D01*
X315260Y150059D02*
Y164035D01*
X428012Y476260D02*
Y483740D01*
Y476260D02*
X441988D01*
Y483740D01*
X428012D02*
X441988D01*
X428012Y467260D02*
Y474740D01*
Y467260D02*
X441988D01*
Y474740D01*
X428012D02*
X441988D01*
X473988Y261260D02*
Y268740D01*
X460012D02*
X473988D01*
X460012Y261260D02*
Y268740D01*
Y261260D02*
X473988D01*
Y291403D02*
Y298883D01*
X460012D02*
X473988D01*
X460012Y291403D02*
Y298883D01*
Y291403D02*
X473988D01*
Y321546D02*
Y329026D01*
X460012D02*
X473988D01*
X460012Y321546D02*
Y329026D01*
Y321546D02*
X473988D01*
Y351688D02*
Y359169D01*
X460012D02*
X473988D01*
X460012Y351688D02*
Y359169D01*
Y351688D02*
X473988D01*
Y381831D02*
Y389312D01*
X460012D02*
X473988D01*
X460012Y381831D02*
Y389312D01*
Y381831D02*
X473988D01*
Y411974D02*
Y419454D01*
X460012D02*
X473988D01*
X460012Y411974D02*
Y419454D01*
Y411974D02*
X473988D01*
Y442117D02*
Y449597D01*
X460012D02*
X473988D01*
X460012Y442117D02*
Y449597D01*
Y442117D02*
X473988D01*
X310000Y264000D02*
Y266000D01*
X266000Y264000D02*
X310000D01*
X266000D02*
Y296000D01*
X310000D01*
Y266000D02*
Y296000D01*
X273260Y150059D02*
Y164035D01*
X280740D01*
Y150059D02*
Y164035D01*
X273260Y150059D02*
X280740D01*
X315988Y116260D02*
Y123740D01*
X302012D02*
X315988D01*
X302012Y116260D02*
Y123740D01*
Y116260D02*
X315988D01*
X357244Y330260D02*
Y337740D01*
Y330260D02*
X371220D01*
Y337740D01*
X357244D02*
X371220D01*
X357244Y338260D02*
Y345740D01*
Y338260D02*
X371220D01*
Y345740D01*
X357244D02*
X371220D01*
X357244Y346260D02*
Y353740D01*
Y346260D02*
X371220D01*
Y353740D01*
X357244D02*
X371220D01*
X357244Y354260D02*
Y361740D01*
Y354260D02*
X371220D01*
Y361740D01*
X357244D02*
X371220D01*
X357244Y362260D02*
Y369740D01*
Y362260D02*
X371220D01*
Y369740D01*
X357244D02*
X371220D01*
X357244Y370260D02*
Y377740D01*
Y370260D02*
X371220D01*
Y377740D01*
X357244D02*
X371220D01*
X357244Y378260D02*
Y385740D01*
Y378260D02*
X371220D01*
Y385740D01*
X357244D02*
X371220D01*
X357244Y386260D02*
Y393740D01*
Y386260D02*
X371220D01*
Y393740D01*
X357244D02*
X371220D01*
X287244Y330260D02*
Y337740D01*
Y330260D02*
X301220D01*
Y337740D01*
X287244D02*
X301220D01*
X287244Y338260D02*
Y345740D01*
Y338260D02*
X301220D01*
Y345740D01*
X287244D02*
X301220D01*
X287244Y346260D02*
Y353740D01*
Y346260D02*
X301220D01*
Y353740D01*
X287244D02*
X301220D01*
X287244Y354260D02*
Y361740D01*
Y354260D02*
X301220D01*
Y361740D01*
X287244D02*
X301220D01*
X287244Y362260D02*
Y369740D01*
Y362260D02*
X301220D01*
Y369740D01*
X287244D02*
X301220D01*
X287244Y370260D02*
Y377740D01*
Y370260D02*
X301220D01*
Y377740D01*
X287244D02*
X301220D01*
X287244Y378260D02*
Y385740D01*
Y378260D02*
X301220D01*
Y385740D01*
X287244D02*
X301220D01*
X287244Y386260D02*
Y393740D01*
Y386260D02*
X301220D01*
Y393740D01*
X287244D02*
X301220D01*
X217244Y330260D02*
Y337740D01*
Y330260D02*
X231221D01*
Y337740D01*
X217244D02*
X231221D01*
X147012Y329260D02*
Y336740D01*
Y329260D02*
X160988D01*
Y336740D01*
X147012D02*
X160988D01*
X217244Y338260D02*
Y345740D01*
Y338260D02*
X231221D01*
Y345740D01*
X217244D02*
X231221D01*
X217244Y346260D02*
Y353740D01*
Y346260D02*
X231221D01*
Y353740D01*
X217244D02*
X231221D01*
X217244Y354260D02*
Y361740D01*
Y354260D02*
X231221D01*
Y361740D01*
X217244D02*
X231221D01*
X217244Y362260D02*
Y369740D01*
Y362260D02*
X231221D01*
Y369740D01*
X217244D02*
X231221D01*
X217244Y370260D02*
Y377740D01*
Y370260D02*
X231221D01*
Y377740D01*
X217244D02*
X231221D01*
X217244Y378260D02*
Y385740D01*
Y378260D02*
X231221D01*
Y385740D01*
X217244D02*
X231221D01*
X217244Y386260D02*
Y393740D01*
Y386260D02*
X231221D01*
Y393740D01*
X217244D02*
X231221D01*
X147012Y369260D02*
Y376740D01*
Y369260D02*
X160988D01*
Y376740D01*
X147012D02*
X160988D01*
X147012Y377260D02*
Y384740D01*
Y377260D02*
X160988D01*
Y384740D01*
X147012D02*
X160988D01*
X147012Y361260D02*
Y368740D01*
Y361260D02*
X160988D01*
Y368740D01*
X147012D02*
X160988D01*
X147012Y385260D02*
Y392740D01*
Y385260D02*
X160988D01*
Y392740D01*
X147012D02*
X160988D01*
X147244Y438260D02*
Y445740D01*
Y438260D02*
X161221D01*
Y445740D01*
X147244D02*
X161221D01*
X147244Y446260D02*
Y453740D01*
Y446260D02*
X161221D01*
Y453740D01*
X147244D02*
X161221D01*
X147244Y454260D02*
Y461740D01*
Y454260D02*
X161221D01*
Y461740D01*
X147244D02*
X161221D01*
X147244Y462260D02*
Y469740D01*
Y462260D02*
X161221D01*
Y469740D01*
X147244D02*
X161221D01*
X147244Y470260D02*
Y477740D01*
Y470260D02*
X161221D01*
Y477740D01*
X147244D02*
X161221D01*
X147244Y478260D02*
Y485740D01*
Y478260D02*
X161221D01*
Y485740D01*
X147244D02*
X161221D01*
X147244Y486260D02*
Y493740D01*
Y486260D02*
X161221D01*
Y493740D01*
X147244D02*
X161221D01*
X223012Y236260D02*
Y243740D01*
Y236260D02*
X236988D01*
Y243740D01*
X223012D02*
X236988D01*
X470506Y113899D02*
Y110900D01*
Y111900D01*
X472505Y113899D01*
X471005Y112399D01*
X472505Y110900D01*
X473505D02*
Y111400D01*
X474005D01*
Y110900D01*
X473505D01*
X479003D02*
Y113899D01*
X481002Y110900D01*
Y113899D01*
X482502Y112899D02*
X483501D01*
X484001Y112399D01*
Y110900D01*
X482502D01*
X482002Y111400D01*
X482502Y111900D01*
X484001D01*
X485001Y110900D02*
Y113899D01*
Y111900D02*
X486501Y112899D01*
X485001Y111900D02*
X486501Y110900D01*
X488500Y112899D02*
X489500D01*
X489999Y112399D01*
Y110900D01*
X488500D01*
X488000Y111400D01*
X488500Y111900D01*
X489999D01*
X490999Y110900D02*
Y112899D01*
X492498D01*
X492998Y112399D01*
Y110900D01*
X494498D02*
X495498D01*
X495997Y111400D01*
Y112399D01*
X495498Y112899D01*
X494498D01*
X493998Y112399D01*
Y111400D01*
X494498Y110900D01*
X221899Y192599D02*
X221399Y193099D01*
X220400D01*
X219900Y192599D01*
Y192099D01*
X220400Y191600D01*
X221399D01*
X221899Y191100D01*
Y190600D01*
X221399Y190100D01*
X220400D01*
X219900Y190600D01*
X222899Y192599D02*
X223399Y193099D01*
X224398D01*
X224898Y192599D01*
Y192099D01*
X224398Y191600D01*
X223899D01*
X224398D01*
X224898Y191100D01*
Y190600D01*
X224398Y190100D01*
X223399D01*
X222899Y190600D01*
X225100Y230600D02*
Y233599D01*
X226600D01*
X227099Y233099D01*
Y232100D01*
X226600Y231600D01*
X225100D01*
X226100D02*
X227099Y230600D01*
X228099Y231100D02*
X228599Y230600D01*
X229598D01*
X230098Y231100D01*
Y233099D01*
X229598Y233599D01*
X228599D01*
X228099Y233099D01*
Y232599D01*
X228599Y232100D01*
X230098D01*
X231098Y233099D02*
X231598Y233599D01*
X232598D01*
X233097Y233099D01*
Y232599D01*
X232598Y232100D01*
X233097Y231600D01*
Y231100D01*
X232598Y230600D01*
X231598D01*
X231098Y231100D01*
Y231600D01*
X231598Y232100D01*
X231098Y232599D01*
Y233099D01*
X231598Y232100D02*
X232598D01*
X366999Y295499D02*
X366499Y295999D01*
X365500D01*
X365000Y295499D01*
Y293500D01*
X365500Y293000D01*
X366499D01*
X366999Y293500D01*
X369998Y295999D02*
X368999Y295499D01*
X367999Y294499D01*
Y293500D01*
X368499Y293000D01*
X369498D01*
X369998Y293500D01*
Y294000D01*
X369498Y294499D01*
X367999D01*
X186800Y378999D02*
Y376500D01*
X187300Y376000D01*
X188300D01*
X188799Y376500D01*
Y378999D01*
X191798D02*
X190799Y378499D01*
X189799Y377500D01*
Y376500D01*
X190299Y376000D01*
X191299D01*
X191798Y376500D01*
Y377000D01*
X191299Y377500D01*
X189799D01*
X256800Y378999D02*
Y376500D01*
X257300Y376000D01*
X258299D01*
X258799Y376500D01*
Y378999D01*
X259799D02*
X261798D01*
Y378499D01*
X259799Y376500D01*
Y376000D01*
X326800Y378999D02*
Y376500D01*
X327300Y376000D01*
X328299D01*
X328799Y376500D01*
Y378999D01*
X329799Y378499D02*
X330299Y378999D01*
X331298D01*
X331798Y378499D01*
Y377999D01*
X331298Y377500D01*
X331798Y377000D01*
Y376500D01*
X331298Y376000D01*
X330299D01*
X329799Y376500D01*
Y377000D01*
X330299Y377500D01*
X329799Y377999D01*
Y378499D01*
X330299Y377500D02*
X331298D01*
X286000Y154000D02*
X283001D01*
Y155499D01*
X283501Y155999D01*
X284501D01*
X285000Y155499D01*
Y154000D01*
Y155000D02*
X286000Y155999D01*
X285500Y156999D02*
X286000Y157499D01*
Y158499D01*
X285500Y158998D01*
X283501D01*
X283001Y158499D01*
Y157499D01*
X283501Y156999D01*
X284001D01*
X284501Y157499D01*
Y158998D01*
X283501Y159998D02*
X283001Y160498D01*
Y161498D01*
X283501Y161997D01*
X285500D01*
X286000Y161498D01*
Y160498D01*
X285500Y159998D01*
X283501D01*
X259501Y152000D02*
X262500D01*
Y153999D01*
X259501Y156998D02*
Y154999D01*
X262500D01*
Y156998D01*
X261000Y154999D02*
Y155999D01*
X259501Y157998D02*
X262500D01*
Y159498D01*
X262000Y159997D01*
X260001D01*
X259501Y159498D01*
Y157998D01*
X262500Y162996D02*
Y160997D01*
X260501Y162996D01*
X260001D01*
X259501Y162497D01*
Y161497D01*
X260001Y160997D01*
X315001Y196500D02*
X317500D01*
X318000Y197000D01*
Y198000D01*
X317500Y198499D01*
X315001D01*
X318000Y199499D02*
Y200499D01*
Y199999D01*
X315001D01*
X315501Y199499D01*
Y201998D02*
X315001Y202498D01*
Y203498D01*
X315501Y203998D01*
X317500D01*
X318000Y203498D01*
Y202498D01*
X317500Y201998D01*
X315501D01*
X266500Y302499D02*
Y300000D01*
X267000Y299500D01*
X268000D01*
X268499Y300000D01*
Y302499D01*
X269499Y300000D02*
X269999Y299500D01*
X270999D01*
X271498Y300000D01*
Y301999D01*
X270999Y302499D01*
X269999D01*
X269499Y301999D01*
Y301499D01*
X269999Y300999D01*
X271498D01*
X323501Y247000D02*
X326500Y248999D01*
X323501D02*
X326500Y247000D01*
Y249999D02*
Y250999D01*
Y250499D01*
X323501D01*
X324001Y249999D01*
X116800Y378999D02*
Y376500D01*
X117300Y376000D01*
X118299D01*
X118799Y376500D01*
Y378999D01*
X121798D02*
X119799D01*
Y377500D01*
X120799Y377999D01*
X121299D01*
X121798Y377500D01*
Y376500D01*
X121299Y376000D01*
X120299D01*
X119799Y376500D01*
X326800Y478999D02*
Y476500D01*
X327300Y476000D01*
X328299D01*
X328799Y476500D01*
Y478999D01*
X331298Y476000D02*
Y478999D01*
X329799Y477499D01*
X331798D01*
X256800Y478999D02*
Y476500D01*
X257300Y476000D01*
X258299D01*
X258799Y476500D01*
Y478999D01*
X259799Y478499D02*
X260299Y478999D01*
X261298D01*
X261798Y478499D01*
Y477999D01*
X261298Y477499D01*
X260799D01*
X261298D01*
X261798Y477000D01*
Y476500D01*
X261298Y476000D01*
X260299D01*
X259799Y476500D01*
X186800Y478999D02*
Y476500D01*
X187300Y476000D01*
X188300D01*
X188799Y476500D01*
Y478999D01*
X191798Y476000D02*
X189799D01*
X191798Y477999D01*
Y478499D01*
X191299Y478999D01*
X190299D01*
X189799Y478499D01*
X116800Y478999D02*
Y476500D01*
X117300Y476000D01*
X118299D01*
X118799Y476500D01*
Y478999D01*
X119799Y476000D02*
X120799D01*
X120299D01*
Y478999D01*
X119799Y478499D01*
X181899Y192599D02*
X181400Y193099D01*
X180400D01*
X179900Y192599D01*
Y192099D01*
X180400Y191600D01*
X181400D01*
X181899Y191100D01*
Y190600D01*
X181400Y190100D01*
X180400D01*
X179900Y190600D01*
X184898Y190100D02*
X182899D01*
X184898Y192099D01*
Y192599D01*
X184399Y193099D01*
X183399D01*
X182899Y192599D01*
X141899D02*
X141400Y193099D01*
X140400D01*
X139900Y192599D01*
Y192099D01*
X140400Y191600D01*
X141400D01*
X141899Y191100D01*
Y190600D01*
X141400Y190100D01*
X140400D01*
X139900Y190600D01*
X142899Y190100D02*
X143899D01*
X143399D01*
Y193099D01*
X142899Y192599D01*
X476000Y474000D02*
Y476999D01*
X477499D01*
X477999Y476499D01*
Y475499D01*
X477499Y475000D01*
X476000D01*
X477000D02*
X477999Y474000D01*
X478999Y476499D02*
X479499Y476999D01*
X480499D01*
X480998Y476499D01*
Y475999D01*
X480499Y475499D01*
X480998Y475000D01*
Y474500D01*
X480499Y474000D01*
X479499D01*
X478999Y474500D01*
Y475000D01*
X479499Y475499D01*
X478999Y475999D01*
Y476499D01*
X479499Y475499D02*
X480499D01*
X481998Y474500D02*
X482498Y474000D01*
X483498D01*
X483997Y474500D01*
Y476499D01*
X483498Y476999D01*
X482498D01*
X481998Y476499D01*
Y475999D01*
X482498Y475499D01*
X483997D01*
X476000Y444000D02*
Y446999D01*
X477499D01*
X477999Y446499D01*
Y445500D01*
X477499Y445000D01*
X476000D01*
X477000D02*
X477999Y444000D01*
X478999Y446499D02*
X479499Y446999D01*
X480499D01*
X480998Y446499D01*
Y445999D01*
X480499Y445500D01*
X480998Y445000D01*
Y444500D01*
X480499Y444000D01*
X479499D01*
X478999Y444500D01*
Y445000D01*
X479499Y445500D01*
X478999Y445999D01*
Y446499D01*
X479499Y445500D02*
X480499D01*
X481998Y446499D02*
X482498Y446999D01*
X483498D01*
X483997Y446499D01*
Y445999D01*
X483498Y445500D01*
X483997Y445000D01*
Y444500D01*
X483498Y444000D01*
X482498D01*
X481998Y444500D01*
Y445000D01*
X482498Y445500D01*
X481998Y445999D01*
Y446499D01*
X482498Y445500D02*
X483498D01*
X469000Y407000D02*
Y409999D01*
X470500D01*
X470999Y409499D01*
Y408499D01*
X470500Y408000D01*
X469000D01*
X470000D02*
X470999Y407000D01*
X471999Y409499D02*
X472499Y409999D01*
X473498D01*
X473998Y409499D01*
Y408999D01*
X473498Y408499D01*
X473998Y408000D01*
Y407500D01*
X473498Y407000D01*
X472499D01*
X471999Y407500D01*
Y408000D01*
X472499Y408499D01*
X471999Y408999D01*
Y409499D01*
X472499Y408499D02*
X473498D01*
X474998Y409999D02*
X476997D01*
Y409499D01*
X474998Y407500D01*
Y407000D01*
X469000Y377000D02*
Y379999D01*
X470500D01*
X470999Y379499D01*
Y378500D01*
X470500Y378000D01*
X469000D01*
X470000D02*
X470999Y377000D01*
X471999Y379499D02*
X472499Y379999D01*
X473498D01*
X473998Y379499D01*
Y378999D01*
X473498Y378500D01*
X473998Y378000D01*
Y377500D01*
X473498Y377000D01*
X472499D01*
X471999Y377500D01*
Y378000D01*
X472499Y378500D01*
X471999Y378999D01*
Y379499D01*
X472499Y378500D02*
X473498D01*
X476997Y379999D02*
X475998Y379499D01*
X474998Y378500D01*
Y377500D01*
X475498Y377000D01*
X476498D01*
X476997Y377500D01*
Y378000D01*
X476498Y378500D01*
X474998D01*
X469000Y347000D02*
Y349999D01*
X470500D01*
X470999Y349499D01*
Y348499D01*
X470500Y348000D01*
X469000D01*
X470000D02*
X470999Y347000D01*
X471999Y349499D02*
X472499Y349999D01*
X473498D01*
X473998Y349499D01*
Y348999D01*
X473498Y348499D01*
X473998Y348000D01*
Y347500D01*
X473498Y347000D01*
X472499D01*
X471999Y347500D01*
Y348000D01*
X472499Y348499D01*
X471999Y348999D01*
Y349499D01*
X472499Y348499D02*
X473498D01*
X476997Y349999D02*
X474998D01*
Y348499D01*
X475998Y348999D01*
X476498D01*
X476997Y348499D01*
Y347500D01*
X476498Y347000D01*
X475498D01*
X474998Y347500D01*
X476000Y324000D02*
Y326999D01*
X477499D01*
X477999Y326499D01*
Y325500D01*
X477499Y325000D01*
X476000D01*
X477000D02*
X477999Y324000D01*
X478999Y326499D02*
X479499Y326999D01*
X480499D01*
X480998Y326499D01*
Y325999D01*
X480499Y325500D01*
X480998Y325000D01*
Y324500D01*
X480499Y324000D01*
X479499D01*
X478999Y324500D01*
Y325000D01*
X479499Y325500D01*
X478999Y325999D01*
Y326499D01*
X479499Y325500D02*
X480499D01*
X483498Y324000D02*
Y326999D01*
X481998Y325500D01*
X483997D01*
X475500Y293500D02*
Y296499D01*
X477000D01*
X477499Y295999D01*
Y295000D01*
X477000Y294500D01*
X475500D01*
X476500D02*
X477499Y293500D01*
X478499Y295999D02*
X478999Y296499D01*
X479998D01*
X480498Y295999D01*
Y295499D01*
X479998Y295000D01*
X480498Y294500D01*
Y294000D01*
X479998Y293500D01*
X478999D01*
X478499Y294000D01*
Y294500D01*
X478999Y295000D01*
X478499Y295499D01*
Y295999D01*
X478999Y295000D02*
X479998D01*
X481498Y295999D02*
X481998Y296499D01*
X482998D01*
X483497Y295999D01*
Y295499D01*
X482998Y295000D01*
X482498D01*
X482998D01*
X483497Y294500D01*
Y294000D01*
X482998Y293500D01*
X481998D01*
X481498Y294000D01*
X476000Y263500D02*
Y266499D01*
X477499D01*
X477999Y265999D01*
Y265000D01*
X477499Y264500D01*
X476000D01*
X477000D02*
X477999Y263500D01*
X478999Y265999D02*
X479499Y266499D01*
X480499D01*
X480998Y265999D01*
Y265499D01*
X480499Y265000D01*
X480998Y264500D01*
Y264000D01*
X480499Y263500D01*
X479499D01*
X478999Y264000D01*
Y264500D01*
X479499Y265000D01*
X478999Y265499D01*
Y265999D01*
X479499Y265000D02*
X480499D01*
X483997Y263500D02*
X481998D01*
X483997Y265499D01*
Y265999D01*
X483498Y266499D01*
X482498D01*
X481998Y265999D01*
X418000Y469000D02*
Y471999D01*
X419499D01*
X419999Y471499D01*
Y470500D01*
X419499Y470000D01*
X418000D01*
X419000D02*
X419999Y469000D01*
X420999Y471499D02*
X421499Y471999D01*
X422499D01*
X422998Y471499D01*
Y470999D01*
X422499Y470500D01*
X422998Y470000D01*
Y469500D01*
X422499Y469000D01*
X421499D01*
X420999Y469500D01*
Y470000D01*
X421499Y470500D01*
X420999Y470999D01*
Y471499D01*
X421499Y470500D02*
X422499D01*
X423998Y469000D02*
X424998D01*
X424498D01*
Y471999D01*
X423998Y471499D01*
X418000Y478000D02*
Y480999D01*
X419499D01*
X419999Y480499D01*
Y479499D01*
X419499Y479000D01*
X418000D01*
X419000D02*
X419999Y478000D01*
X420999Y480499D02*
X421499Y480999D01*
X422499D01*
X422998Y480499D01*
Y479999D01*
X422499Y479499D01*
X422998Y479000D01*
Y478500D01*
X422499Y478000D01*
X421499D01*
X420999Y478500D01*
Y479000D01*
X421499Y479499D01*
X420999Y479999D01*
Y480499D01*
X421499Y479499D02*
X422499D01*
X423998Y480499D02*
X424498Y480999D01*
X425498D01*
X425997Y480499D01*
Y478500D01*
X425498Y478000D01*
X424498D01*
X423998Y478500D01*
Y480499D01*
X327500Y153500D02*
X324501D01*
Y154999D01*
X325001Y155499D01*
X326000D01*
X326500Y154999D01*
Y153500D01*
Y154500D02*
X327500Y155499D01*
X324501Y156499D02*
Y158498D01*
X325001D01*
X327000Y156499D01*
X327500D01*
X327000Y159498D02*
X327500Y159998D01*
Y160998D01*
X327000Y161497D01*
X325001D01*
X324501Y160998D01*
Y159998D01*
X325001Y159498D01*
X325501D01*
X326000Y159998D01*
Y161497D01*
X418000Y440000D02*
Y442999D01*
X419499D01*
X419999Y442499D01*
Y441500D01*
X419499Y441000D01*
X418000D01*
X419000D02*
X419999Y440000D01*
X420999Y442999D02*
X422998D01*
Y442499D01*
X420999Y440500D01*
Y440000D01*
X423998Y442499D02*
X424498Y442999D01*
X425498D01*
X425997Y442499D01*
Y441999D01*
X425498Y441500D01*
X425997Y441000D01*
Y440500D01*
X425498Y440000D01*
X424498D01*
X423998Y440500D01*
Y441000D01*
X424498Y441500D01*
X423998Y441999D01*
Y442499D01*
X424498Y441500D02*
X425498D01*
X418000Y448000D02*
Y450999D01*
X419499D01*
X419999Y450499D01*
Y449500D01*
X419499Y449000D01*
X418000D01*
X419000D02*
X419999Y448000D01*
X420999Y450999D02*
X422998D01*
Y450499D01*
X420999Y448500D01*
Y448000D01*
X423998Y450999D02*
X425997D01*
Y450499D01*
X423998Y448500D01*
Y448000D01*
X418000Y410000D02*
Y412999D01*
X419499D01*
X419999Y412499D01*
Y411500D01*
X419499Y411000D01*
X418000D01*
X419000D02*
X419999Y410000D01*
X420999Y412999D02*
X422998D01*
Y412499D01*
X420999Y410500D01*
Y410000D01*
X425997Y412999D02*
X424998Y412499D01*
X423998Y411500D01*
Y410500D01*
X424498Y410000D01*
X425498D01*
X425997Y410500D01*
Y411000D01*
X425498Y411500D01*
X423998D01*
X418000Y419000D02*
Y421999D01*
X419499D01*
X419999Y421499D01*
Y420500D01*
X419499Y420000D01*
X418000D01*
X419000D02*
X419999Y419000D01*
X420999Y421999D02*
X422998D01*
Y421499D01*
X420999Y419500D01*
Y419000D01*
X425997Y421999D02*
X423998D01*
Y420500D01*
X424998Y420999D01*
X425498D01*
X425997Y420500D01*
Y419500D01*
X425498Y419000D01*
X424498D01*
X423998Y419500D01*
X418000Y380000D02*
Y382999D01*
X419499D01*
X419999Y382499D01*
Y381500D01*
X419499Y381000D01*
X418000D01*
X419000D02*
X419999Y380000D01*
X420999Y382999D02*
X422998D01*
Y382499D01*
X420999Y380500D01*
Y380000D01*
X425498D02*
Y382999D01*
X423998Y381500D01*
X425997D01*
X418000Y388000D02*
Y390999D01*
X419499D01*
X419999Y390499D01*
Y389499D01*
X419499Y389000D01*
X418000D01*
X419000D02*
X419999Y388000D01*
X420999Y390999D02*
X422998D01*
Y390499D01*
X420999Y388500D01*
Y388000D01*
X423998Y390499D02*
X424498Y390999D01*
X425498D01*
X425997Y390499D01*
Y389999D01*
X425498Y389499D01*
X424998D01*
X425498D01*
X425997Y389000D01*
Y388500D01*
X425498Y388000D01*
X424498D01*
X423998Y388500D01*
X418000Y350000D02*
Y352999D01*
X419499D01*
X419999Y352499D01*
Y351500D01*
X419499Y351000D01*
X418000D01*
X419000D02*
X419999Y350000D01*
X420999Y352999D02*
X422998D01*
Y352499D01*
X420999Y350500D01*
Y350000D01*
X425997D02*
X423998D01*
X425997Y351999D01*
Y352499D01*
X425498Y352999D01*
X424498D01*
X423998Y352499D01*
X418000Y359000D02*
Y361999D01*
X419499D01*
X419999Y361499D01*
Y360500D01*
X419499Y360000D01*
X418000D01*
X419000D02*
X419999Y359000D01*
X420999Y361999D02*
X422998D01*
Y361499D01*
X420999Y359500D01*
Y359000D01*
X423998D02*
X424998D01*
X424498D01*
Y361999D01*
X423998Y361499D01*
X418000Y320000D02*
Y322999D01*
X419499D01*
X419999Y322499D01*
Y321499D01*
X419499Y321000D01*
X418000D01*
X419000D02*
X419999Y320000D01*
X420999Y322999D02*
X422998D01*
Y322499D01*
X420999Y320500D01*
Y320000D01*
X423998Y322499D02*
X424498Y322999D01*
X425498D01*
X425997Y322499D01*
Y320500D01*
X425498Y320000D01*
X424498D01*
X423998Y320500D01*
Y322499D01*
X418000Y329000D02*
Y331999D01*
X419499D01*
X419999Y331499D01*
Y330500D01*
X419499Y330000D01*
X418000D01*
X419000D02*
X419999Y329000D01*
X422998Y331999D02*
X421999Y331499D01*
X420999Y330500D01*
Y329500D01*
X421499Y329000D01*
X422499D01*
X422998Y329500D01*
Y330000D01*
X422499Y330500D01*
X420999D01*
X423998Y329500D02*
X424498Y329000D01*
X425498D01*
X425997Y329500D01*
Y331499D01*
X425498Y331999D01*
X424498D01*
X423998Y331499D01*
Y330999D01*
X424498Y330500D01*
X425997D01*
X418000Y289000D02*
Y291999D01*
X419499D01*
X419999Y291499D01*
Y290499D01*
X419499Y290000D01*
X418000D01*
X419000D02*
X419999Y289000D01*
X422998Y291999D02*
X421999Y291499D01*
X420999Y290499D01*
Y289500D01*
X421499Y289000D01*
X422499D01*
X422998Y289500D01*
Y290000D01*
X422499Y290499D01*
X420999D01*
X423998Y291499D02*
X424498Y291999D01*
X425498D01*
X425997Y291499D01*
Y290999D01*
X425498Y290499D01*
X425997Y290000D01*
Y289500D01*
X425498Y289000D01*
X424498D01*
X423998Y289500D01*
Y290000D01*
X424498Y290499D01*
X423998Y290999D01*
Y291499D01*
X424498Y290499D02*
X425498D01*
X418000Y299000D02*
Y301999D01*
X419499D01*
X419999Y301499D01*
Y300500D01*
X419499Y300000D01*
X418000D01*
X419000D02*
X419999Y299000D01*
X422998Y301999D02*
X421999Y301499D01*
X420999Y300500D01*
Y299500D01*
X421499Y299000D01*
X422499D01*
X422998Y299500D01*
Y300000D01*
X422499Y300500D01*
X420999D01*
X423998Y301999D02*
X425997D01*
Y301499D01*
X423998Y299500D01*
Y299000D01*
X429000Y252500D02*
Y255499D01*
X430500D01*
X430999Y254999D01*
Y253999D01*
X430500Y253500D01*
X429000D01*
X430000D02*
X430999Y252500D01*
X433998Y255499D02*
X432999Y254999D01*
X431999Y253999D01*
Y253000D01*
X432499Y252500D01*
X433498D01*
X433998Y253000D01*
Y253500D01*
X433498Y253999D01*
X431999D01*
X436997Y255499D02*
X435998Y254999D01*
X434998Y253999D01*
Y253000D01*
X435498Y252500D01*
X436498D01*
X436997Y253000D01*
Y253500D01*
X436498Y253999D01*
X434998D01*
X428500Y276000D02*
Y278999D01*
X429999D01*
X430499Y278499D01*
Y277500D01*
X429999Y277000D01*
X428500D01*
X429500D02*
X430499Y276000D01*
X433498Y278999D02*
X432499Y278499D01*
X431499Y277500D01*
Y276500D01*
X431999Y276000D01*
X432999D01*
X433498Y276500D01*
Y277000D01*
X432999Y277500D01*
X431499D01*
X436497Y278999D02*
X434498D01*
Y277500D01*
X435498Y277999D01*
X435998D01*
X436497Y277500D01*
Y276500D01*
X435998Y276000D01*
X434998D01*
X434498Y276500D01*
X488000Y136000D02*
Y138999D01*
X489500D01*
X489999Y138499D01*
Y137499D01*
X489500Y137000D01*
X488000D01*
X489000D02*
X489999Y136000D01*
X492998Y138999D02*
X491999Y138499D01*
X490999Y137499D01*
Y136500D01*
X491499Y136000D01*
X492498D01*
X492998Y136500D01*
Y137000D01*
X492498Y137499D01*
X490999D01*
X495498Y136000D02*
Y138999D01*
X493998Y137499D01*
X495997D01*
X476333Y136000D02*
Y138999D01*
X477833D01*
X478333Y138499D01*
Y137499D01*
X477833Y137000D01*
X476333D01*
X477333D02*
X478333Y136000D01*
X481332Y138999D02*
X480332Y138499D01*
X479332Y137499D01*
Y136500D01*
X479832Y136000D01*
X480832D01*
X481332Y136500D01*
Y137000D01*
X480832Y137499D01*
X479332D01*
X482331Y138499D02*
X482831Y138999D01*
X483831D01*
X484331Y138499D01*
Y137999D01*
X483831Y137499D01*
X483331D01*
X483831D01*
X484331Y137000D01*
Y136500D01*
X483831Y136000D01*
X482831D01*
X482331Y136500D01*
X464667Y136000D02*
Y138999D01*
X466166D01*
X466666Y138499D01*
Y137499D01*
X466166Y137000D01*
X464667D01*
X465666D02*
X466666Y136000D01*
X469665Y138999D02*
X468665Y138499D01*
X467666Y137499D01*
Y136500D01*
X468165Y136000D01*
X469165D01*
X469665Y136500D01*
Y137000D01*
X469165Y137499D01*
X467666D01*
X472664Y136000D02*
X470665D01*
X472664Y137999D01*
Y138499D01*
X472164Y138999D01*
X471165D01*
X470665Y138499D01*
X452000Y136000D02*
Y138999D01*
X453500D01*
X454000Y138499D01*
Y137499D01*
X453500Y137000D01*
X452000D01*
X453000D02*
X454000Y136000D01*
X456999Y138999D02*
X455999Y138499D01*
X454999Y137499D01*
Y136500D01*
X455499Y136000D01*
X456499D01*
X456999Y136500D01*
Y137000D01*
X456499Y137499D01*
X454999D01*
X457998Y136000D02*
X458998D01*
X458498D01*
Y138999D01*
X457998Y138499D01*
X488000Y141000D02*
Y143999D01*
X489500D01*
X489999Y143499D01*
Y142499D01*
X489500Y142000D01*
X488000D01*
X489000D02*
X489999Y141000D01*
X492998Y143999D02*
X491999Y143499D01*
X490999Y142499D01*
Y141500D01*
X491499Y141000D01*
X492498D01*
X492998Y141500D01*
Y142000D01*
X492498Y142499D01*
X490999D01*
X493998Y143499D02*
X494498Y143999D01*
X495498D01*
X495997Y143499D01*
Y141500D01*
X495498Y141000D01*
X494498D01*
X493998Y141500D01*
Y143499D01*
X476333Y141000D02*
Y143999D01*
X477833D01*
X478333Y143499D01*
Y142499D01*
X477833Y142000D01*
X476333D01*
X477333D02*
X478333Y141000D01*
X481332Y143999D02*
X479332D01*
Y142499D01*
X480332Y142999D01*
X480832D01*
X481332Y142499D01*
Y141500D01*
X480832Y141000D01*
X479832D01*
X479332Y141500D01*
X482331D02*
X482831Y141000D01*
X483831D01*
X484331Y141500D01*
Y143499D01*
X483831Y143999D01*
X482831D01*
X482331Y143499D01*
Y142999D01*
X482831Y142499D01*
X484331D01*
X464667Y141000D02*
Y143999D01*
X466166D01*
X466666Y143499D01*
Y142499D01*
X466166Y142000D01*
X464667D01*
X465666D02*
X466666Y141000D01*
X469665Y143999D02*
X467666D01*
Y142499D01*
X468665Y142999D01*
X469165D01*
X469665Y142499D01*
Y141500D01*
X469165Y141000D01*
X468165D01*
X467666Y141500D01*
X470665Y143499D02*
X471165Y143999D01*
X472164D01*
X472664Y143499D01*
Y142999D01*
X472164Y142499D01*
X472664Y142000D01*
Y141500D01*
X472164Y141000D01*
X471165D01*
X470665Y141500D01*
Y142000D01*
X471165Y142499D01*
X470665Y142999D01*
Y143499D01*
X471165Y142499D02*
X472164D01*
X452000Y141000D02*
Y143999D01*
X453500D01*
X454000Y143499D01*
Y142499D01*
X453500Y142000D01*
X452000D01*
X453000D02*
X454000Y141000D01*
X456999Y143999D02*
X454999D01*
Y142499D01*
X455999Y142999D01*
X456499D01*
X456999Y142499D01*
Y141500D01*
X456499Y141000D01*
X455499D01*
X454999Y141500D01*
X457998Y143999D02*
X459998D01*
Y143499D01*
X457998Y141500D01*
Y141000D01*
X488000Y146000D02*
Y148999D01*
X489500D01*
X489999Y148499D01*
Y147500D01*
X489500Y147000D01*
X488000D01*
X489000D02*
X489999Y146000D01*
X492998Y148999D02*
X490999D01*
Y147500D01*
X491999Y147999D01*
X492498D01*
X492998Y147500D01*
Y146500D01*
X492498Y146000D01*
X491499D01*
X490999Y146500D01*
X495997Y148999D02*
X494998Y148499D01*
X493998Y147500D01*
Y146500D01*
X494498Y146000D01*
X495498D01*
X495997Y146500D01*
Y147000D01*
X495498Y147500D01*
X493998D01*
X476333Y146000D02*
Y148999D01*
X477833D01*
X478333Y148499D01*
Y147500D01*
X477833Y147000D01*
X476333D01*
X477333D02*
X478333Y146000D01*
X481332Y148999D02*
X479332D01*
Y147500D01*
X480332Y147999D01*
X480832D01*
X481332Y147500D01*
Y146500D01*
X480832Y146000D01*
X479832D01*
X479332Y146500D01*
X484331Y148999D02*
X482331D01*
Y147500D01*
X483331Y147999D01*
X483831D01*
X484331Y147500D01*
Y146500D01*
X483831Y146000D01*
X482831D01*
X482331Y146500D01*
X464667Y146000D02*
Y148999D01*
X466166D01*
X466666Y148499D01*
Y147500D01*
X466166Y147000D01*
X464667D01*
X465666D02*
X466666Y146000D01*
X469665Y148999D02*
X467666D01*
Y147500D01*
X468665Y147999D01*
X469165D01*
X469665Y147500D01*
Y146500D01*
X469165Y146000D01*
X468165D01*
X467666Y146500D01*
X472164Y146000D02*
Y148999D01*
X470665Y147500D01*
X472664D01*
X452000Y146000D02*
Y148999D01*
X453500D01*
X454000Y148499D01*
Y147500D01*
X453500Y147000D01*
X452000D01*
X453000D02*
X454000Y146000D01*
X456999Y148999D02*
X454999D01*
Y147500D01*
X455999Y147999D01*
X456499D01*
X456999Y147500D01*
Y146500D01*
X456499Y146000D01*
X455499D01*
X454999Y146500D01*
X457998Y148499D02*
X458498Y148999D01*
X459498D01*
X459998Y148499D01*
Y147999D01*
X459498Y147500D01*
X458998D01*
X459498D01*
X459998Y147000D01*
Y146500D01*
X459498Y146000D01*
X458498D01*
X457998Y146500D01*
X488000Y151000D02*
Y153999D01*
X489500D01*
X489999Y153499D01*
Y152499D01*
X489500Y152000D01*
X488000D01*
X489000D02*
X489999Y151000D01*
X492998Y153999D02*
X490999D01*
Y152499D01*
X491999Y152999D01*
X492498D01*
X492998Y152499D01*
Y151500D01*
X492498Y151000D01*
X491499D01*
X490999Y151500D01*
X495997Y151000D02*
X493998D01*
X495997Y152999D01*
Y153499D01*
X495498Y153999D01*
X494498D01*
X493998Y153499D01*
X476333Y151000D02*
Y153999D01*
X477833D01*
X478333Y153499D01*
Y152499D01*
X477833Y152000D01*
X476333D01*
X477333D02*
X478333Y151000D01*
X481332Y153999D02*
X479332D01*
Y152499D01*
X480332Y152999D01*
X480832D01*
X481332Y152499D01*
Y151500D01*
X480832Y151000D01*
X479832D01*
X479332Y151500D01*
X482331Y151000D02*
X483331D01*
X482831D01*
Y153999D01*
X482331Y153499D01*
X464667Y151000D02*
Y153999D01*
X466166D01*
X466666Y153499D01*
Y152499D01*
X466166Y152000D01*
X464667D01*
X465666D02*
X466666Y151000D01*
X469665Y153999D02*
X467666D01*
Y152499D01*
X468665Y152999D01*
X469165D01*
X469665Y152499D01*
Y151500D01*
X469165Y151000D01*
X468165D01*
X467666Y151500D01*
X470665Y153499D02*
X471165Y153999D01*
X472164D01*
X472664Y153499D01*
Y151500D01*
X472164Y151000D01*
X471165D01*
X470665Y151500D01*
Y153499D01*
X452000Y151000D02*
Y153999D01*
X453500D01*
X454000Y153499D01*
Y152499D01*
X453500Y152000D01*
X452000D01*
X453000D02*
X454000Y151000D01*
X456499D02*
Y153999D01*
X454999Y152499D01*
X456999D01*
X457998Y151500D02*
X458498Y151000D01*
X459498D01*
X459998Y151500D01*
Y153499D01*
X459498Y153999D01*
X458498D01*
X457998Y153499D01*
Y152999D01*
X458498Y152499D01*
X459998D01*
X488000Y156000D02*
Y158999D01*
X489500D01*
X489999Y158499D01*
Y157500D01*
X489500Y157000D01*
X488000D01*
X489000D02*
X489999Y156000D01*
X492498D02*
Y158999D01*
X490999Y157500D01*
X492998D01*
X493998Y158499D02*
X494498Y158999D01*
X495498D01*
X495997Y158499D01*
Y157999D01*
X495498Y157500D01*
X495997Y157000D01*
Y156500D01*
X495498Y156000D01*
X494498D01*
X493998Y156500D01*
Y157000D01*
X494498Y157500D01*
X493998Y157999D01*
Y158499D01*
X494498Y157500D02*
X495498D01*
X476333Y156000D02*
Y158999D01*
X477833D01*
X478333Y158499D01*
Y157500D01*
X477833Y157000D01*
X476333D01*
X477333D02*
X478333Y156000D01*
X480832D02*
Y158999D01*
X479332Y157500D01*
X481332D01*
X482331Y158999D02*
X484331D01*
Y158499D01*
X482331Y156500D01*
Y156000D01*
X464667D02*
Y158999D01*
X466166D01*
X466666Y158499D01*
Y157500D01*
X466166Y157000D01*
X464667D01*
X465666D02*
X466666Y156000D01*
X469165D02*
Y158999D01*
X467666Y157500D01*
X469665D01*
X472664Y158999D02*
X471664Y158499D01*
X470665Y157500D01*
Y156500D01*
X471165Y156000D01*
X472164D01*
X472664Y156500D01*
Y157000D01*
X472164Y157500D01*
X470665D01*
X452000Y156000D02*
Y158999D01*
X453500D01*
X454000Y158499D01*
Y157500D01*
X453500Y157000D01*
X452000D01*
X453000D02*
X454000Y156000D01*
X456499D02*
Y158999D01*
X454999Y157500D01*
X456999D01*
X459998Y158999D02*
X457998D01*
Y157500D01*
X458998Y157999D01*
X459498D01*
X459998Y157500D01*
Y156500D01*
X459498Y156000D01*
X458498D01*
X457998Y156500D01*
X488000Y161000D02*
Y163999D01*
X489500D01*
X489999Y163499D01*
Y162499D01*
X489500Y162000D01*
X488000D01*
X489000D02*
X489999Y161000D01*
X492498D02*
Y163999D01*
X490999Y162499D01*
X492998D01*
X495498Y161000D02*
Y163999D01*
X493998Y162499D01*
X495997D01*
X476333Y161000D02*
Y163999D01*
X477833D01*
X478333Y163499D01*
Y162499D01*
X477833Y162000D01*
X476333D01*
X477333D02*
X478333Y161000D01*
X480832D02*
Y163999D01*
X479332Y162499D01*
X481332D01*
X482331Y163499D02*
X482831Y163999D01*
X483831D01*
X484331Y163499D01*
Y162999D01*
X483831Y162499D01*
X483331D01*
X483831D01*
X484331Y162000D01*
Y161500D01*
X483831Y161000D01*
X482831D01*
X482331Y161500D01*
X464667Y161000D02*
Y163999D01*
X466166D01*
X466666Y163499D01*
Y162499D01*
X466166Y162000D01*
X464667D01*
X465666D02*
X466666Y161000D01*
X469165D02*
Y163999D01*
X467666Y162499D01*
X469665D01*
X472664Y161000D02*
X470665D01*
X472664Y162999D01*
Y163499D01*
X472164Y163999D01*
X471165D01*
X470665Y163499D01*
X452000Y161000D02*
Y163999D01*
X453500D01*
X454000Y163499D01*
Y162499D01*
X453500Y162000D01*
X452000D01*
X453000D02*
X454000Y161000D01*
X456499D02*
Y163999D01*
X454999Y162499D01*
X456999D01*
X457998Y161000D02*
X458998D01*
X458498D01*
Y163999D01*
X457998Y163499D01*
X488000Y166000D02*
Y168999D01*
X489500D01*
X489999Y168499D01*
Y167499D01*
X489500Y167000D01*
X488000D01*
X489000D02*
X489999Y166000D01*
X492498D02*
Y168999D01*
X490999Y167499D01*
X492998D01*
X493998Y168499D02*
X494498Y168999D01*
X495498D01*
X495997Y168499D01*
Y166500D01*
X495498Y166000D01*
X494498D01*
X493998Y166500D01*
Y168499D01*
X476333Y166000D02*
Y168999D01*
X477833D01*
X478333Y168499D01*
Y167499D01*
X477833Y167000D01*
X476333D01*
X477333D02*
X478333Y166000D01*
X479332Y168499D02*
X479832Y168999D01*
X480832D01*
X481332Y168499D01*
Y167999D01*
X480832Y167499D01*
X480332D01*
X480832D01*
X481332Y167000D01*
Y166500D01*
X480832Y166000D01*
X479832D01*
X479332Y166500D01*
X482331D02*
X482831Y166000D01*
X483831D01*
X484331Y166500D01*
Y168499D01*
X483831Y168999D01*
X482831D01*
X482331Y168499D01*
Y167999D01*
X482831Y167499D01*
X484331D01*
X464667Y166000D02*
Y168999D01*
X466166D01*
X466666Y168499D01*
Y167499D01*
X466166Y167000D01*
X464667D01*
X465666D02*
X466666Y166000D01*
X467666Y168499D02*
X468165Y168999D01*
X469165D01*
X469665Y168499D01*
Y167999D01*
X469165Y167499D01*
X468665D01*
X469165D01*
X469665Y167000D01*
Y166500D01*
X469165Y166000D01*
X468165D01*
X467666Y166500D01*
X470665Y168499D02*
X471165Y168999D01*
X472164D01*
X472664Y168499D01*
Y167999D01*
X472164Y167499D01*
X472664Y167000D01*
Y166500D01*
X472164Y166000D01*
X471165D01*
X470665Y166500D01*
Y167000D01*
X471165Y167499D01*
X470665Y167999D01*
Y168499D01*
X471165Y167499D02*
X472164D01*
X452000Y166000D02*
Y168999D01*
X453500D01*
X454000Y168499D01*
Y167499D01*
X453500Y167000D01*
X452000D01*
X453000D02*
X454000Y166000D01*
X454999Y168499D02*
X455499Y168999D01*
X456499D01*
X456999Y168499D01*
Y167999D01*
X456499Y167499D01*
X455999D01*
X456499D01*
X456999Y167000D01*
Y166500D01*
X456499Y166000D01*
X455499D01*
X454999Y166500D01*
X457998Y168999D02*
X459998D01*
Y168499D01*
X457998Y166500D01*
Y166000D01*
X488000Y171000D02*
Y173999D01*
X489500D01*
X489999Y173499D01*
Y172500D01*
X489500Y172000D01*
X488000D01*
X489000D02*
X489999Y171000D01*
X490999Y173499D02*
X491499Y173999D01*
X492498D01*
X492998Y173499D01*
Y172999D01*
X492498Y172500D01*
X491999D01*
X492498D01*
X492998Y172000D01*
Y171500D01*
X492498Y171000D01*
X491499D01*
X490999Y171500D01*
X495997Y173999D02*
X494998Y173499D01*
X493998Y172500D01*
Y171500D01*
X494498Y171000D01*
X495498D01*
X495997Y171500D01*
Y172000D01*
X495498Y172500D01*
X493998D01*
X476333Y171000D02*
Y173999D01*
X477833D01*
X478333Y173499D01*
Y172500D01*
X477833Y172000D01*
X476333D01*
X477333D02*
X478333Y171000D01*
X479332Y173499D02*
X479832Y173999D01*
X480832D01*
X481332Y173499D01*
Y172999D01*
X480832Y172500D01*
X480332D01*
X480832D01*
X481332Y172000D01*
Y171500D01*
X480832Y171000D01*
X479832D01*
X479332Y171500D01*
X484331Y173999D02*
X482331D01*
Y172500D01*
X483331Y172999D01*
X483831D01*
X484331Y172500D01*
Y171500D01*
X483831Y171000D01*
X482831D01*
X482331Y171500D01*
X464667Y171000D02*
Y173999D01*
X466166D01*
X466666Y173499D01*
Y172500D01*
X466166Y172000D01*
X464667D01*
X465666D02*
X466666Y171000D01*
X467666Y173499D02*
X468165Y173999D01*
X469165D01*
X469665Y173499D01*
Y172999D01*
X469165Y172500D01*
X468665D01*
X469165D01*
X469665Y172000D01*
Y171500D01*
X469165Y171000D01*
X468165D01*
X467666Y171500D01*
X472164Y171000D02*
Y173999D01*
X470665Y172500D01*
X472664D01*
X452000Y171000D02*
Y173999D01*
X453500D01*
X454000Y173499D01*
Y172500D01*
X453500Y172000D01*
X452000D01*
X453000D02*
X454000Y171000D01*
X454999Y173499D02*
X455499Y173999D01*
X456499D01*
X456999Y173499D01*
Y172999D01*
X456499Y172500D01*
X455999D01*
X456499D01*
X456999Y172000D01*
Y171500D01*
X456499Y171000D01*
X455499D01*
X454999Y171500D01*
X457998Y173499D02*
X458498Y173999D01*
X459498D01*
X459998Y173499D01*
Y172999D01*
X459498Y172500D01*
X458998D01*
X459498D01*
X459998Y172000D01*
Y171500D01*
X459498Y171000D01*
X458498D01*
X457998Y171500D01*
X488700Y181200D02*
Y184199D01*
X490200D01*
X490699Y183699D01*
Y182700D01*
X490200Y182200D01*
X488700D01*
X489700D02*
X490699Y181200D01*
X491699Y183699D02*
X492199Y184199D01*
X493198D01*
X493698Y183699D01*
Y183199D01*
X493198Y182700D01*
X492699D01*
X493198D01*
X493698Y182200D01*
Y181700D01*
X493198Y181200D01*
X492199D01*
X491699Y181700D01*
X496697Y181200D02*
X494698D01*
X496697Y183199D01*
Y183699D01*
X496198Y184199D01*
X495198D01*
X494698Y183699D01*
X476700Y181200D02*
Y184199D01*
X478199D01*
X478699Y183699D01*
Y182700D01*
X478199Y182200D01*
X476700D01*
X477700D02*
X478699Y181200D01*
X479699Y183699D02*
X480199Y184199D01*
X481199D01*
X481698Y183699D01*
Y183199D01*
X481199Y182700D01*
X480699D01*
X481199D01*
X481698Y182200D01*
Y181700D01*
X481199Y181200D01*
X480199D01*
X479699Y181700D01*
X482698Y181200D02*
X483698D01*
X483198D01*
Y184199D01*
X482698Y183699D01*
X464700Y181200D02*
Y184199D01*
X466199D01*
X466699Y183699D01*
Y182700D01*
X466199Y182200D01*
X464700D01*
X465700D02*
X466699Y181200D01*
X467699Y183699D02*
X468199Y184199D01*
X469199D01*
X469698Y183699D01*
Y183199D01*
X469199Y182700D01*
X468699D01*
X469199D01*
X469698Y182200D01*
Y181700D01*
X469199Y181200D01*
X468199D01*
X467699Y181700D01*
X470698Y183699D02*
X471198Y184199D01*
X472198D01*
X472697Y183699D01*
Y181700D01*
X472198Y181200D01*
X471198D01*
X470698Y181700D01*
Y183699D01*
X452000Y181200D02*
Y184199D01*
X453500D01*
X454000Y183699D01*
Y182700D01*
X453500Y182200D01*
X452000D01*
X453000D02*
X454000Y181200D01*
X456999D02*
X454999D01*
X456999Y183199D01*
Y183699D01*
X456499Y184199D01*
X455499D01*
X454999Y183699D01*
X457998Y181700D02*
X458498Y181200D01*
X459498D01*
X459998Y181700D01*
Y183699D01*
X459498Y184199D01*
X458498D01*
X457998Y183699D01*
Y183199D01*
X458498Y182700D01*
X459998D01*
X488700Y186000D02*
Y188999D01*
X490200D01*
X490699Y188499D01*
Y187499D01*
X490200Y187000D01*
X488700D01*
X489700D02*
X490699Y186000D01*
X493698D02*
X491699D01*
X493698Y187999D01*
Y188499D01*
X493198Y188999D01*
X492199D01*
X491699Y188499D01*
X494698D02*
X495198Y188999D01*
X496198D01*
X496697Y188499D01*
Y187999D01*
X496198Y187499D01*
X496697Y187000D01*
Y186500D01*
X496198Y186000D01*
X495198D01*
X494698Y186500D01*
Y187000D01*
X495198Y187499D01*
X494698Y187999D01*
Y188499D01*
X495198Y187499D02*
X496198D01*
X476700Y186000D02*
Y188999D01*
X478199D01*
X478699Y188499D01*
Y187499D01*
X478199Y187000D01*
X476700D01*
X477700D02*
X478699Y186000D01*
X481698D02*
X479699D01*
X481698Y187999D01*
Y188499D01*
X481199Y188999D01*
X480199D01*
X479699Y188499D01*
X482698Y188999D02*
X484697D01*
Y188499D01*
X482698Y186500D01*
Y186000D01*
X464700D02*
Y188999D01*
X466199D01*
X466699Y188499D01*
Y187499D01*
X466199Y187000D01*
X464700D01*
X465700D02*
X466699Y186000D01*
X469698D02*
X467699D01*
X469698Y187999D01*
Y188499D01*
X469199Y188999D01*
X468199D01*
X467699Y188499D01*
X472697Y188999D02*
X471698Y188499D01*
X470698Y187499D01*
Y186500D01*
X471198Y186000D01*
X472198D01*
X472697Y186500D01*
Y187000D01*
X472198Y187499D01*
X470698D01*
X452000Y186000D02*
Y188999D01*
X453500D01*
X453999Y188499D01*
Y187499D01*
X453500Y187000D01*
X452000D01*
X453000D02*
X453999Y186000D01*
X456998D02*
X454999D01*
X456998Y187999D01*
Y188499D01*
X456498Y188999D01*
X455499D01*
X454999Y188499D01*
X459997Y188999D02*
X457998D01*
Y187499D01*
X458998Y187999D01*
X459498D01*
X459997Y187499D01*
Y186500D01*
X459498Y186000D01*
X458498D01*
X457998Y186500D01*
X488700Y191000D02*
Y193999D01*
X490200D01*
X490699Y193499D01*
Y192499D01*
X490200Y192000D01*
X488700D01*
X489700D02*
X490699Y191000D01*
X493698D02*
X491699D01*
X493698Y192999D01*
Y193499D01*
X493198Y193999D01*
X492199D01*
X491699Y193499D01*
X496198Y191000D02*
Y193999D01*
X494698Y192499D01*
X496697D01*
X476700Y191000D02*
Y193999D01*
X478199D01*
X478699Y193499D01*
Y192499D01*
X478199Y192000D01*
X476700D01*
X477700D02*
X478699Y191000D01*
X481698D02*
X479699D01*
X481698Y192999D01*
Y193499D01*
X481199Y193999D01*
X480199D01*
X479699Y193499D01*
X482698D02*
X483198Y193999D01*
X484198D01*
X484697Y193499D01*
Y192999D01*
X484198Y192499D01*
X483698D01*
X484198D01*
X484697Y192000D01*
Y191500D01*
X484198Y191000D01*
X483198D01*
X482698Y191500D01*
X464700Y191000D02*
Y193999D01*
X466199D01*
X466699Y193499D01*
Y192499D01*
X466199Y192000D01*
X464700D01*
X465700D02*
X466699Y191000D01*
X469698D02*
X467699D01*
X469698Y192999D01*
Y193499D01*
X469199Y193999D01*
X468199D01*
X467699Y193499D01*
X472697Y191000D02*
X470698D01*
X472697Y192999D01*
Y193499D01*
X472198Y193999D01*
X471198D01*
X470698Y193499D01*
X452000Y191000D02*
Y193999D01*
X453500D01*
X453999Y193499D01*
Y192499D01*
X453500Y192000D01*
X452000D01*
X453000D02*
X453999Y191000D01*
X456998D02*
X454999D01*
X456998Y192999D01*
Y193499D01*
X456498Y193999D01*
X455499D01*
X454999Y193499D01*
X457998Y191000D02*
X458998D01*
X458498D01*
Y193999D01*
X457998Y193499D01*
X488700Y196000D02*
Y198999D01*
X490200D01*
X490699Y198499D01*
Y197500D01*
X490200Y197000D01*
X488700D01*
X489700D02*
X490699Y196000D01*
X493698D02*
X491699D01*
X493698Y197999D01*
Y198499D01*
X493198Y198999D01*
X492199D01*
X491699Y198499D01*
X494698D02*
X495198Y198999D01*
X496198D01*
X496697Y198499D01*
Y196500D01*
X496198Y196000D01*
X495198D01*
X494698Y196500D01*
Y198499D01*
X476700Y196000D02*
Y198999D01*
X478199D01*
X478699Y198499D01*
Y197500D01*
X478199Y197000D01*
X476700D01*
X477700D02*
X478699Y196000D01*
X479699D02*
X480699D01*
X480199D01*
Y198999D01*
X479699Y198499D01*
X482198Y196500D02*
X482698Y196000D01*
X483698D01*
X484198Y196500D01*
Y198499D01*
X483698Y198999D01*
X482698D01*
X482198Y198499D01*
Y197999D01*
X482698Y197500D01*
X484198D01*
X464700Y196000D02*
Y198999D01*
X466199D01*
X466699Y198499D01*
Y197500D01*
X466199Y197000D01*
X464700D01*
X465700D02*
X466699Y196000D01*
X467699D02*
X468699D01*
X468199D01*
Y198999D01*
X467699Y198499D01*
X470198D02*
X470698Y198999D01*
X471698D01*
X472198Y198499D01*
Y197999D01*
X471698Y197500D01*
X472198Y197000D01*
Y196500D01*
X471698Y196000D01*
X470698D01*
X470198Y196500D01*
Y197000D01*
X470698Y197500D01*
X470198Y197999D01*
Y198499D01*
X470698Y197500D02*
X471698D01*
X452000Y196000D02*
Y198999D01*
X453500D01*
X453999Y198499D01*
Y197500D01*
X453500Y197000D01*
X452000D01*
X453000D02*
X453999Y196000D01*
X454999D02*
X455999D01*
X455499D01*
Y198999D01*
X454999Y198499D01*
X457498Y198999D02*
X459498D01*
Y198499D01*
X457498Y196500D01*
Y196000D01*
X488700Y201000D02*
Y203999D01*
X490200D01*
X490699Y203499D01*
Y202500D01*
X490200Y202000D01*
X488700D01*
X489700D02*
X490699Y201000D01*
X491699D02*
X492699D01*
X492199D01*
Y203999D01*
X491699Y203499D01*
X496198Y203999D02*
X495198Y203499D01*
X494198Y202500D01*
Y201500D01*
X494698Y201000D01*
X495698D01*
X496198Y201500D01*
Y202000D01*
X495698Y202500D01*
X494198D01*
X476700Y201000D02*
Y203999D01*
X478199D01*
X478699Y203499D01*
Y202500D01*
X478199Y202000D01*
X476700D01*
X477700D02*
X478699Y201000D01*
X479699D02*
X480699D01*
X480199D01*
Y203999D01*
X479699Y203499D01*
X484198Y203999D02*
X482198D01*
Y202500D01*
X483198Y202999D01*
X483698D01*
X484198Y202500D01*
Y201500D01*
X483698Y201000D01*
X482698D01*
X482198Y201500D01*
X464700Y201000D02*
Y203999D01*
X466199D01*
X466699Y203499D01*
Y202500D01*
X466199Y202000D01*
X464700D01*
X465700D02*
X466699Y201000D01*
X467699D02*
X468699D01*
X468199D01*
Y203999D01*
X467699Y203499D01*
X471698Y201000D02*
Y203999D01*
X470198Y202500D01*
X472198D01*
X452000Y201000D02*
Y203999D01*
X453500D01*
X453999Y203499D01*
Y202500D01*
X453500Y202000D01*
X452000D01*
X453000D02*
X453999Y201000D01*
X454999D02*
X455999D01*
X455499D01*
Y203999D01*
X454999Y203499D01*
X457498D02*
X457998Y203999D01*
X458998D01*
X459498Y203499D01*
Y202999D01*
X458998Y202500D01*
X458498D01*
X458998D01*
X459498Y202000D01*
Y201500D01*
X458998Y201000D01*
X457998D01*
X457498Y201500D01*
X488700Y206000D02*
Y208999D01*
X490200D01*
X490699Y208499D01*
Y207500D01*
X490200Y207000D01*
X488700D01*
X489700D02*
X490699Y206000D01*
X491699D02*
X492699D01*
X492199D01*
Y208999D01*
X491699Y208499D01*
X496198Y206000D02*
X494198D01*
X496198Y207999D01*
Y208499D01*
X495698Y208999D01*
X494698D01*
X494198Y208499D01*
X476700Y206000D02*
Y208999D01*
X478199D01*
X478699Y208499D01*
Y207500D01*
X478199Y207000D01*
X476700D01*
X477700D02*
X478699Y206000D01*
X479699D02*
X480699D01*
X480199D01*
Y208999D01*
X479699Y208499D01*
X482198Y206000D02*
X483198D01*
X482698D01*
Y208999D01*
X482198Y208499D01*
X464700Y206000D02*
Y208999D01*
X466199D01*
X466699Y208499D01*
Y207500D01*
X466199Y207000D01*
X464700D01*
X465700D02*
X466699Y206000D01*
X467699D02*
X468699D01*
X468199D01*
Y208999D01*
X467699Y208499D01*
X470198D02*
X470698Y208999D01*
X471698D01*
X472198Y208499D01*
Y206500D01*
X471698Y206000D01*
X470698D01*
X470198Y206500D01*
Y208499D01*
X452000Y206000D02*
Y208999D01*
X453500D01*
X453999Y208499D01*
Y207500D01*
X453500Y207000D01*
X452000D01*
X453000D02*
X453999Y206000D01*
X454999Y206500D02*
X455499Y206000D01*
X456498D01*
X456998Y206500D01*
Y208499D01*
X456498Y208999D01*
X455499D01*
X454999Y208499D01*
Y207999D01*
X455499Y207500D01*
X456998D01*
X488700Y211000D02*
Y213999D01*
X490200D01*
X490699Y213499D01*
Y212499D01*
X490200Y212000D01*
X488700D01*
X489700D02*
X490699Y211000D01*
X491699Y213499D02*
X492199Y213999D01*
X493198D01*
X493698Y213499D01*
Y212999D01*
X493198Y212499D01*
X493698Y212000D01*
Y211500D01*
X493198Y211000D01*
X492199D01*
X491699Y211500D01*
Y212000D01*
X492199Y212499D01*
X491699Y212999D01*
Y213499D01*
X492199Y212499D02*
X493198D01*
X476700Y211000D02*
Y213999D01*
X478199D01*
X478699Y213499D01*
Y212499D01*
X478199Y212000D01*
X476700D01*
X477700D02*
X478699Y211000D01*
X479699Y213999D02*
X481698D01*
Y213499D01*
X479699Y211500D01*
Y211000D01*
X464700D02*
Y213999D01*
X466199D01*
X466699Y213499D01*
Y212499D01*
X466199Y212000D01*
X464700D01*
X465700D02*
X466699Y211000D01*
X469698Y213999D02*
X468699Y213499D01*
X467699Y212499D01*
Y211500D01*
X468199Y211000D01*
X469199D01*
X469698Y211500D01*
Y212000D01*
X469199Y212499D01*
X467699D01*
X452000Y211000D02*
Y213999D01*
X453500D01*
X453999Y213499D01*
Y212499D01*
X453500Y212000D01*
X452000D01*
X453000D02*
X453999Y211000D01*
X456998Y213999D02*
X454999D01*
Y212499D01*
X455999Y212999D01*
X456498D01*
X456998Y212499D01*
Y211500D01*
X456498Y211000D01*
X455499D01*
X454999Y211500D01*
X488700Y216000D02*
Y218999D01*
X490200D01*
X490699Y218499D01*
Y217499D01*
X490200Y217000D01*
X488700D01*
X489700D02*
X490699Y216000D01*
X493198D02*
Y218999D01*
X491699Y217499D01*
X493698D01*
X476700Y216000D02*
Y218999D01*
X478199D01*
X478699Y218499D01*
Y217499D01*
X478199Y217000D01*
X476700D01*
X477700D02*
X478699Y216000D01*
X479699Y218499D02*
X480199Y218999D01*
X481199D01*
X481698Y218499D01*
Y217999D01*
X481199Y217499D01*
X480699D01*
X481199D01*
X481698Y217000D01*
Y216500D01*
X481199Y216000D01*
X480199D01*
X479699Y216500D01*
X464700Y216000D02*
Y218999D01*
X466199D01*
X466699Y218499D01*
Y217499D01*
X466199Y217000D01*
X464700D01*
X465700D02*
X466699Y216000D01*
X469698D02*
X467699D01*
X469698Y217999D01*
Y218499D01*
X469199Y218999D01*
X468199D01*
X467699Y218499D01*
X452000Y216000D02*
Y218999D01*
X453500D01*
X453999Y218499D01*
Y217499D01*
X453500Y217000D01*
X452000D01*
X453000D02*
X453999Y216000D01*
X454999D02*
X455999D01*
X455499D01*
Y218999D01*
X454999Y218499D01*
X461999Y462500D02*
Y464499D01*
X461500Y464999D01*
X460500D01*
X460000Y464499D01*
Y462500D01*
X460500Y462000D01*
X461500D01*
X461000Y463000D02*
X461999Y462000D01*
X461500D02*
X461999Y462500D01*
X462999Y462000D02*
X463999D01*
X463499D01*
Y464999D01*
X462999Y464499D01*
X467498Y464999D02*
X466498Y464499D01*
X465498Y463499D01*
Y462500D01*
X465998Y462000D01*
X466998D01*
X467498Y462500D01*
Y463000D01*
X466998Y463499D01*
X465498D01*
X461999Y487500D02*
Y489499D01*
X461500Y489999D01*
X460500D01*
X460000Y489499D01*
Y487500D01*
X460500Y487000D01*
X461500D01*
X461000Y488000D02*
X461999Y487000D01*
X461500D02*
X461999Y487500D01*
X462999Y487000D02*
X463999D01*
X463499D01*
Y489999D01*
X462999Y489499D01*
X467498Y489999D02*
X465498D01*
Y488499D01*
X466498Y488999D01*
X466998D01*
X467498Y488499D01*
Y487500D01*
X466998Y487000D01*
X465998D01*
X465498Y487500D01*
X462999Y436500D02*
Y438499D01*
X462500Y438999D01*
X461500D01*
X461000Y438499D01*
Y436500D01*
X461500Y436000D01*
X462500D01*
X462000Y437000D02*
X462999Y436000D01*
X462500D02*
X462999Y436500D01*
X463999Y436000D02*
X464999D01*
X464499D01*
Y438999D01*
X463999Y438499D01*
X467998Y436000D02*
Y438999D01*
X466498Y437500D01*
X468498D01*
X461999Y456500D02*
Y458499D01*
X461500Y458999D01*
X460500D01*
X460000Y458499D01*
Y456500D01*
X460500Y456000D01*
X461500D01*
X461000Y457000D02*
X461999Y456000D01*
X461500D02*
X461999Y456500D01*
X462999Y456000D02*
X463999D01*
X463499D01*
Y458999D01*
X462999Y458499D01*
X465498D02*
X465998Y458999D01*
X466998D01*
X467498Y458499D01*
Y457999D01*
X466998Y457500D01*
X466498D01*
X466998D01*
X467498Y457000D01*
Y456500D01*
X466998Y456000D01*
X465998D01*
X465498Y456500D01*
X461999Y402500D02*
Y404499D01*
X461500Y404999D01*
X460500D01*
X460000Y404499D01*
Y402500D01*
X460500Y402000D01*
X461500D01*
X461000Y403000D02*
X461999Y402000D01*
X461500D02*
X461999Y402500D01*
X462999Y402000D02*
X463999D01*
X463499D01*
Y404999D01*
X462999Y404499D01*
X467498Y402000D02*
X465498D01*
X467498Y403999D01*
Y404499D01*
X466998Y404999D01*
X465998D01*
X465498Y404499D01*
X462999Y426500D02*
Y428499D01*
X462500Y428999D01*
X461500D01*
X461000Y428499D01*
Y426500D01*
X461500Y426000D01*
X462500D01*
X462000Y427000D02*
X462999Y426000D01*
X462500D02*
X462999Y426500D01*
X463999Y426000D02*
X464999D01*
X464499D01*
Y428999D01*
X463999Y428499D01*
X466498Y426000D02*
X467498D01*
X466998D01*
Y428999D01*
X466498Y428499D01*
X461999Y372500D02*
Y374499D01*
X461500Y374999D01*
X460500D01*
X460000Y374499D01*
Y372500D01*
X460500Y372000D01*
X461500D01*
X461000Y373000D02*
X461999Y372000D01*
X461500D02*
X461999Y372500D01*
X462999Y372000D02*
X463999D01*
X463499D01*
Y374999D01*
X462999Y374499D01*
X465498D02*
X465998Y374999D01*
X466998D01*
X467498Y374499D01*
Y372500D01*
X466998Y372000D01*
X465998D01*
X465498Y372500D01*
Y374499D01*
X461999Y396500D02*
Y398499D01*
X461500Y398999D01*
X460500D01*
X460000Y398499D01*
Y396500D01*
X460500Y396000D01*
X461500D01*
X461000Y397000D02*
X461999Y396000D01*
X461500D02*
X461999Y396500D01*
X462999D02*
X463499Y396000D01*
X464499D01*
X464998Y396500D01*
Y398499D01*
X464499Y398999D01*
X463499D01*
X462999Y398499D01*
Y397999D01*
X463499Y397499D01*
X464998D01*
X462999Y342500D02*
Y344499D01*
X462500Y344999D01*
X461500D01*
X461000Y344499D01*
Y342500D01*
X461500Y342000D01*
X462500D01*
X462000Y343000D02*
X462999Y342000D01*
X462500D02*
X462999Y342500D01*
X463999Y344499D02*
X464499Y344999D01*
X465498D01*
X465998Y344499D01*
Y343999D01*
X465498Y343499D01*
X465998Y343000D01*
Y342500D01*
X465498Y342000D01*
X464499D01*
X463999Y342500D01*
Y343000D01*
X464499Y343499D01*
X463999Y343999D01*
Y344499D01*
X464499Y343499D02*
X465498D01*
X461999Y366500D02*
Y368499D01*
X461500Y368999D01*
X460500D01*
X460000Y368499D01*
Y366500D01*
X460500Y366000D01*
X461500D01*
X461000Y367000D02*
X461999Y366000D01*
X461500D02*
X461999Y366500D01*
X462999Y368999D02*
X464998D01*
Y368499D01*
X462999Y366500D01*
Y366000D01*
X462999Y312500D02*
Y314499D01*
X462500Y314999D01*
X461500D01*
X461000Y314499D01*
Y312500D01*
X461500Y312000D01*
X462500D01*
X462000Y313000D02*
X462999Y312000D01*
X462500D02*
X462999Y312500D01*
X465998Y314999D02*
X464999Y314499D01*
X463999Y313499D01*
Y312500D01*
X464499Y312000D01*
X465498D01*
X465998Y312500D01*
Y313000D01*
X465498Y313499D01*
X463999D01*
X462999Y336500D02*
Y338499D01*
X462500Y338999D01*
X461500D01*
X461000Y338499D01*
Y336500D01*
X461500Y336000D01*
X462500D01*
X462000Y337000D02*
X462999Y336000D01*
X462500D02*
X462999Y336500D01*
X465998Y338999D02*
X463999D01*
Y337499D01*
X464999Y337999D01*
X465498D01*
X465998Y337499D01*
Y336500D01*
X465498Y336000D01*
X464499D01*
X463999Y336500D01*
X461999Y282500D02*
Y284499D01*
X461500Y284999D01*
X460500D01*
X460000Y284499D01*
Y282500D01*
X460500Y282000D01*
X461500D01*
X461000Y283000D02*
X461999Y282000D01*
X461500D02*
X461999Y282500D01*
X464499Y282000D02*
Y284999D01*
X462999Y283500D01*
X464998D01*
X462999Y306500D02*
Y308499D01*
X462500Y308999D01*
X461500D01*
X461000Y308499D01*
Y306500D01*
X461500Y306000D01*
X462500D01*
X462000Y307000D02*
X462999Y306000D01*
X462500D02*
X462999Y306500D01*
X463999Y308499D02*
X464499Y308999D01*
X465498D01*
X465998Y308499D01*
Y307999D01*
X465498Y307500D01*
X464999D01*
X465498D01*
X465998Y307000D01*
Y306500D01*
X465498Y306000D01*
X464499D01*
X463999Y306500D01*
X461999Y252000D02*
Y253999D01*
X461500Y254499D01*
X460500D01*
X460000Y253999D01*
Y252000D01*
X460500Y251500D01*
X461500D01*
X461000Y252500D02*
X461999Y251500D01*
X461500D02*
X461999Y252000D01*
X464998Y251500D02*
X462999D01*
X464998Y253499D01*
Y253999D01*
X464499Y254499D01*
X463499D01*
X462999Y253999D01*
X461999Y276500D02*
Y278499D01*
X461500Y278999D01*
X460500D01*
X460000Y278499D01*
Y276500D01*
X460500Y276000D01*
X461500D01*
X461000Y277000D02*
X461999Y276000D01*
X461500D02*
X461999Y276500D01*
X462999Y276000D02*
X463999D01*
X463499D01*
Y278999D01*
X462999Y278499D01*
X302001Y152500D02*
X305000D01*
Y154499D01*
X302001Y157498D02*
Y155499D01*
X305000D01*
Y157498D01*
X303501Y155499D02*
Y156499D01*
X302001Y158498D02*
X305000D01*
Y159998D01*
X304500Y160497D01*
X302501D01*
X302001Y159998D01*
Y158498D01*
X305000Y161497D02*
Y162497D01*
Y161997D01*
X302001D01*
X302501Y161497D01*
X237599Y261399D02*
X236600D01*
X237100D01*
Y258900D01*
X236600Y258400D01*
X236100D01*
X235600Y258900D01*
X238599Y258400D02*
X239599D01*
X239099D01*
Y261399D01*
X238599Y260899D01*
X243098Y258400D02*
X241098D01*
X243098Y260399D01*
Y260899D01*
X242598Y261399D01*
X241598D01*
X241098Y260899D01*
X186599Y269399D02*
X185600D01*
X186100D01*
Y266900D01*
X185600Y266400D01*
X185100D01*
X184600Y266900D01*
X187599Y266400D02*
X188599D01*
X188099D01*
Y269399D01*
X187599Y268899D01*
X190098Y266400D02*
X191098D01*
X190598D01*
Y269399D01*
X190098Y268899D01*
X246099Y231399D02*
X245100D01*
X245600D01*
Y228900D01*
X245100Y228400D01*
X244600D01*
X244100Y228900D01*
X247099Y228400D02*
X248099D01*
X247599D01*
Y231399D01*
X247099Y230899D01*
X249598D02*
X250098Y231399D01*
X251098D01*
X251598Y230899D01*
Y228900D01*
X251098Y228400D01*
X250098D01*
X249598Y228900D01*
Y230899D01*
X492999Y414999D02*
X492000D01*
X492499D01*
Y412500D01*
X492000Y412000D01*
X491500D01*
X491000Y412500D01*
X493999D02*
X494499Y412000D01*
X495499D01*
X495998Y412500D01*
Y414499D01*
X495499Y414999D01*
X494499D01*
X493999Y414499D01*
Y413999D01*
X494499Y413499D01*
X495998D01*
X389999Y396999D02*
X389000D01*
X389499D01*
Y394500D01*
X389000Y394000D01*
X388500D01*
X388000Y394500D01*
X390999Y396499D02*
X391499Y396999D01*
X392498D01*
X392998Y396499D01*
Y395999D01*
X392498Y395499D01*
X392998Y395000D01*
Y394500D01*
X392498Y394000D01*
X391499D01*
X390999Y394500D01*
Y395000D01*
X391499Y395499D01*
X390999Y395999D01*
Y396499D01*
X391499Y395499D02*
X392498D01*
X319999Y395999D02*
X319000D01*
X319499D01*
Y393500D01*
X319000Y393000D01*
X318500D01*
X318000Y393500D01*
X320999Y395999D02*
X322998D01*
Y395499D01*
X320999Y393500D01*
Y393000D01*
X249999Y395999D02*
X249000D01*
X249500D01*
Y393500D01*
X249000Y393000D01*
X248500D01*
X248000Y393500D01*
X252998Y395999D02*
X251999Y395499D01*
X250999Y394499D01*
Y393500D01*
X251499Y393000D01*
X252499D01*
X252998Y393500D01*
Y394000D01*
X252499Y394499D01*
X250999D01*
X179999Y395999D02*
X179000D01*
X179499D01*
Y393500D01*
X179000Y393000D01*
X178500D01*
X178000Y393500D01*
X182998Y395999D02*
X180999D01*
Y394499D01*
X181999Y394999D01*
X182499D01*
X182998Y394499D01*
Y393500D01*
X182499Y393000D01*
X181499D01*
X180999Y393500D01*
X388999Y495999D02*
X388000D01*
X388499D01*
Y493500D01*
X388000Y493000D01*
X387500D01*
X387000Y493500D01*
X391498Y493000D02*
Y495999D01*
X389999Y494499D01*
X391998D01*
X319999Y495999D02*
X319000D01*
X319499D01*
Y493500D01*
X319000Y493000D01*
X318500D01*
X318000Y493500D01*
X320999Y495499D02*
X321499Y495999D01*
X322498D01*
X322998Y495499D01*
Y494999D01*
X322498Y494499D01*
X321999D01*
X322498D01*
X322998Y494000D01*
Y493500D01*
X322498Y493000D01*
X321499D01*
X320999Y493500D01*
X249999Y495999D02*
X249000D01*
X249500D01*
Y493500D01*
X249000Y493000D01*
X248500D01*
X248000Y493500D01*
X252998Y493000D02*
X250999D01*
X252998Y494999D01*
Y495499D01*
X252499Y495999D01*
X251499D01*
X250999Y495499D01*
X179999Y495999D02*
X179000D01*
X179499D01*
Y493500D01*
X179000Y493000D01*
X178500D01*
X178000Y493500D01*
X180999Y493000D02*
X181999D01*
X181499D01*
Y495999D01*
X180999Y495499D01*
X416001Y250999D02*
X415501Y250500D01*
Y249500D01*
X416001Y249000D01*
X418000D01*
X418500Y249500D01*
Y250500D01*
X418000Y250999D01*
Y251999D02*
X418500Y252499D01*
Y253499D01*
X418000Y253998D01*
X416001D01*
X415501Y253499D01*
Y252499D01*
X416001Y251999D01*
X416501D01*
X417000Y252499D01*
Y253998D01*
X314501Y238999D02*
X314001Y238499D01*
Y237500D01*
X314501Y237000D01*
X316500D01*
X317000Y237500D01*
Y238499D01*
X316500Y238999D01*
X314501Y239999D02*
X314001Y240499D01*
Y241498D01*
X314501Y241998D01*
X315001D01*
X315500Y241498D01*
X316000Y241998D01*
X316500D01*
X317000Y241498D01*
Y240499D01*
X316500Y239999D01*
X316000D01*
X315500Y240499D01*
X315001Y239999D01*
X314501D01*
X315500Y240499D02*
Y241498D01*
X314501Y256999D02*
X314001Y256500D01*
Y255500D01*
X314501Y255000D01*
X316500D01*
X317000Y255500D01*
Y256500D01*
X316500Y256999D01*
X314001Y257999D02*
Y259998D01*
X314501D01*
X316500Y257999D01*
X317000D01*
X335999Y281499D02*
X335500Y281999D01*
X334500D01*
X334000Y281499D01*
Y279500D01*
X334500Y279000D01*
X335500D01*
X335999Y279500D01*
X338998Y281999D02*
X336999D01*
Y280500D01*
X337999Y280999D01*
X338498D01*
X338998Y280500D01*
Y279500D01*
X338498Y279000D01*
X337499D01*
X336999Y279500D01*
X355999Y179999D02*
X355500Y180499D01*
X354500D01*
X354000Y179999D01*
Y178000D01*
X354500Y177500D01*
X355500D01*
X355999Y178000D01*
X358499Y177500D02*
Y180499D01*
X356999Y178999D01*
X358998D01*
X364499Y186499D02*
X364000Y186999D01*
X363000D01*
X362500Y186499D01*
Y184500D01*
X363000Y184000D01*
X364000D01*
X364499Y184500D01*
X365499Y186499D02*
X365999Y186999D01*
X366999D01*
X367498Y186499D01*
Y185999D01*
X366999Y185500D01*
X366499D01*
X366999D01*
X367498Y185000D01*
Y184500D01*
X366999Y184000D01*
X365999D01*
X365499Y184500D01*
X355999Y186499D02*
X355500Y186999D01*
X354500D01*
X354000Y186499D01*
Y184500D01*
X354500Y184000D01*
X355500D01*
X355999Y184500D01*
X358998Y184000D02*
X356999D01*
X358998Y185999D01*
Y186499D01*
X358499Y186999D01*
X357499D01*
X356999Y186499D01*
X374499Y215999D02*
X374000Y216499D01*
X373000D01*
X372500Y215999D01*
Y214000D01*
X373000Y213500D01*
X374000D01*
X374499Y214000D01*
X375499Y213500D02*
X376499D01*
X375999D01*
Y216499D01*
X375499Y215999D01*
X170499Y241399D02*
X170000Y241899D01*
X169000D01*
X168500Y241399D01*
Y239400D01*
X169000Y238900D01*
X170000D01*
X170499Y239400D01*
X171499Y238900D02*
X172499D01*
X171999D01*
Y241899D01*
X171499Y241399D01*
X173998D02*
X174498Y241899D01*
X175498D01*
X175998Y241399D01*
Y239400D01*
X175498Y238900D01*
X174498D01*
X173998Y239400D01*
Y241399D01*
X170499Y232599D02*
X170000Y233099D01*
X169000D01*
X168500Y232599D01*
Y230600D01*
X169000Y230100D01*
X170000D01*
X170499Y230600D01*
X171499Y230100D02*
X172499D01*
X171999D01*
Y233099D01*
X171499Y232599D01*
X173998Y230100D02*
X174998D01*
X174498D01*
Y233099D01*
X173998Y232599D01*
X189701Y294094D02*
X189201Y293594D01*
Y292594D01*
X189701Y292094D01*
X191700D01*
X192200Y292594D01*
Y293594D01*
X191700Y294094D01*
X192200Y295093D02*
Y296093D01*
Y295593D01*
X189201D01*
X189701Y295093D01*
Y297593D02*
X189201Y298093D01*
Y299092D01*
X189701Y299592D01*
X190201D01*
X190700Y299092D01*
Y298592D01*
Y299092D01*
X191200Y299592D01*
X191700D01*
X192200Y299092D01*
Y298093D01*
X191700Y297593D01*
X242501Y295999D02*
X242001Y295499D01*
Y294500D01*
X242501Y294000D01*
X244500D01*
X245000Y294500D01*
Y295499D01*
X244500Y295999D01*
X245000Y296999D02*
Y297999D01*
Y297499D01*
X242001D01*
X242501Y296999D01*
X245000Y300998D02*
X242001D01*
X243500Y299498D01*
Y301498D01*
X233501Y295999D02*
X233001Y295499D01*
Y294500D01*
X233501Y294000D01*
X235500D01*
X236000Y294500D01*
Y295499D01*
X235500Y295999D01*
X236000Y296999D02*
Y297999D01*
Y297499D01*
X233001D01*
X233501Y296999D01*
X233001Y301498D02*
Y299498D01*
X234501D01*
X234001Y300498D01*
Y300998D01*
X234501Y301498D01*
X235500D01*
X236000Y300998D01*
Y299998D01*
X235500Y299498D01*
X306001Y215999D02*
X305501Y215499D01*
Y214500D01*
X306001Y214000D01*
X308000D01*
X308500Y214500D01*
Y215499D01*
X308000Y215999D01*
X308500Y216999D02*
Y217999D01*
Y217499D01*
X305501D01*
X306001Y216999D01*
X305501Y221498D02*
X306001Y220498D01*
X307000Y219498D01*
X308000D01*
X308500Y219998D01*
Y220998D01*
X308000Y221498D01*
X307500D01*
X307000Y220998D01*
Y219498D01*
X109501Y440999D02*
X109001Y440499D01*
Y439500D01*
X109501Y439000D01*
X111500D01*
X112000Y439500D01*
Y440499D01*
X111500Y440999D01*
X112000Y441999D02*
Y442999D01*
Y442499D01*
X109001D01*
X109501Y441999D01*
X109001Y444498D02*
Y446498D01*
X109501D01*
X111500Y444498D01*
X112000D01*
X179501Y440999D02*
X179001Y440499D01*
Y439500D01*
X179501Y439000D01*
X181500D01*
X182000Y439500D01*
Y440499D01*
X181500Y440999D01*
X182000Y441999D02*
Y442999D01*
Y442499D01*
X179001D01*
X179501Y441999D01*
Y444498D02*
X179001Y444998D01*
Y445998D01*
X179501Y446498D01*
X180001D01*
X180500Y445998D01*
X181000Y446498D01*
X181500D01*
X182000Y445998D01*
Y444998D01*
X181500Y444498D01*
X181000D01*
X180500Y444998D01*
X180001Y444498D01*
X179501D01*
X180500Y444998D02*
Y445998D01*
X249501Y440999D02*
X249001Y440499D01*
Y439500D01*
X249501Y439000D01*
X251500D01*
X252000Y439500D01*
Y440499D01*
X251500Y440999D01*
X252000Y441999D02*
Y442999D01*
Y442499D01*
X249001D01*
X249501Y441999D01*
X251500Y444498D02*
X252000Y444998D01*
Y445998D01*
X251500Y446498D01*
X249501D01*
X249001Y445998D01*
Y444998D01*
X249501Y444498D01*
X250001D01*
X250500Y444998D01*
Y446498D01*
X319501Y440999D02*
X319001Y440499D01*
Y439500D01*
X319501Y439000D01*
X321500D01*
X322000Y439500D01*
Y440499D01*
X321500Y440999D01*
X322000Y443998D02*
Y441999D01*
X320001Y443998D01*
X319501D01*
X319001Y443499D01*
Y442499D01*
X319501Y441999D01*
Y444998D02*
X319001Y445498D01*
Y446498D01*
X319501Y446997D01*
X321500D01*
X322000Y446498D01*
Y445498D01*
X321500Y444998D01*
X319501D01*
X108501Y342999D02*
X108001Y342499D01*
Y341500D01*
X108501Y341000D01*
X110500D01*
X111000Y341500D01*
Y342499D01*
X110500Y342999D01*
X111000Y345998D02*
Y343999D01*
X109001Y345998D01*
X108501D01*
X108001Y345498D01*
Y344499D01*
X108501Y343999D01*
X111000Y346998D02*
Y347998D01*
Y347498D01*
X108001D01*
X108501Y346998D01*
X179501Y340999D02*
X179001Y340499D01*
Y339500D01*
X179501Y339000D01*
X181500D01*
X182000Y339500D01*
Y340499D01*
X181500Y340999D01*
X182000Y343998D02*
Y341999D01*
X180001Y343998D01*
X179501D01*
X179001Y343498D01*
Y342499D01*
X179501Y341999D01*
X182000Y346997D02*
Y344998D01*
X180001Y346997D01*
X179501D01*
X179001Y346498D01*
Y345498D01*
X179501Y344998D01*
X249501Y340999D02*
X249001Y340499D01*
Y339500D01*
X249501Y339000D01*
X251500D01*
X252000Y339500D01*
Y340499D01*
X251500Y340999D01*
X252000Y343998D02*
Y341999D01*
X250001Y343998D01*
X249501D01*
X249001Y343498D01*
Y342499D01*
X249501Y341999D01*
Y344998D02*
X249001Y345498D01*
Y346498D01*
X249501Y346997D01*
X250001D01*
X250500Y346498D01*
Y345998D01*
Y346498D01*
X251000Y346997D01*
X251500D01*
X252000Y346498D01*
Y345498D01*
X251500Y344998D01*
X319501Y340999D02*
X319001Y340499D01*
Y339500D01*
X319501Y339000D01*
X321500D01*
X322000Y339500D01*
Y340499D01*
X321500Y340999D01*
X322000Y343998D02*
Y341999D01*
X320001Y343998D01*
X319501D01*
X319001Y343498D01*
Y342499D01*
X319501Y341999D01*
X322000Y346498D02*
X319001D01*
X320500Y344998D01*
Y346997D01*
X286999Y250499D02*
X286500Y250999D01*
X285500D01*
X285000Y250499D01*
Y248500D01*
X285500Y248000D01*
X286500D01*
X286999Y248500D01*
X289998Y248000D02*
X287999D01*
X289998Y249999D01*
Y250499D01*
X289498Y250999D01*
X288499D01*
X287999Y250499D01*
X292997Y250999D02*
X290998D01*
Y249500D01*
X291998Y249999D01*
X292498D01*
X292997Y249500D01*
Y248500D01*
X292498Y248000D01*
X291498D01*
X290998Y248500D01*
X350000Y289999D02*
Y287500D01*
X350500Y287000D01*
X351500D01*
X351999Y287500D01*
Y289999D01*
X352999Y287000D02*
X353999D01*
X353499D01*
Y289999D01*
X352999Y289499D01*
X355498Y287000D02*
X356498D01*
X355998D01*
Y289999D01*
X355498Y289499D01*
X309001Y177000D02*
X312000D01*
Y178999D01*
X309001Y181998D02*
Y179999D01*
X312000D01*
Y181998D01*
X310501Y179999D02*
Y180999D01*
X309001Y182998D02*
X312000D01*
Y184498D01*
X311500Y184997D01*
X309501D01*
X309001Y184498D01*
Y182998D01*
X309501Y185997D02*
X309001Y186497D01*
Y187497D01*
X309501Y187996D01*
X310001D01*
X310501Y187497D01*
Y186997D01*
Y187497D01*
X311000Y187996D01*
X311500D01*
X312000Y187497D01*
Y186497D01*
X311500Y185997D01*
X282001Y183000D02*
X285000D01*
Y184999D01*
X282001Y187998D02*
Y185999D01*
X285000D01*
Y187998D01*
X283501Y185999D02*
Y186999D01*
X282001Y188998D02*
X285000D01*
Y190498D01*
X284500Y190997D01*
X282501D01*
X282001Y190498D01*
Y188998D01*
X285000Y193497D02*
X282001D01*
X283501Y191997D01*
Y193996D01*
X290000Y185000D02*
X287001D01*
Y186500D01*
X287501Y186999D01*
X288500D01*
X289000Y186500D01*
Y185000D01*
Y186000D02*
X290000Y186999D01*
X289500Y187999D02*
X290000Y188499D01*
Y189499D01*
X289500Y189998D01*
X287501D01*
X287001Y189499D01*
Y188499D01*
X287501Y187999D01*
X288001D01*
X288500Y188499D01*
Y189998D01*
X290000Y190998D02*
Y191998D01*
Y191498D01*
X287001D01*
X287501Y190998D01*
X262000Y184000D02*
X259001D01*
Y185500D01*
X259501Y185999D01*
X260501D01*
X261000Y185500D01*
Y184000D01*
Y185000D02*
X262000Y185999D01*
X261500Y186999D02*
X262000Y187499D01*
Y188499D01*
X261500Y188998D01*
X259501D01*
X259001Y188499D01*
Y187499D01*
X259501Y186999D01*
X260001D01*
X260501Y187499D01*
Y188998D01*
X262000Y191997D02*
Y189998D01*
X260001Y191997D01*
X259501D01*
X259001Y191498D01*
Y190498D01*
X259501Y189998D01*
X215501Y295999D02*
X215001Y295499D01*
Y294500D01*
X215501Y294000D01*
X217500D01*
X218000Y294500D01*
Y295499D01*
X217500Y295999D01*
X218000Y298998D02*
Y296999D01*
X216001Y298998D01*
X215501D01*
X215001Y298499D01*
Y297499D01*
X215501Y296999D01*
X215001Y301997D02*
X215501Y300998D01*
X216500Y299998D01*
X217500D01*
X218000Y300498D01*
Y301498D01*
X217500Y301997D01*
X217000D01*
X216500Y301498D01*
Y299998D01*
X224501Y295999D02*
X224001Y295499D01*
Y294500D01*
X224501Y294000D01*
X226500D01*
X227000Y294500D01*
Y295499D01*
X226500Y295999D01*
X227000Y298998D02*
Y296999D01*
X225001Y298998D01*
X224501D01*
X224001Y298499D01*
Y297499D01*
X224501Y296999D01*
X224001Y299998D02*
Y301997D01*
X224501D01*
X226500Y299998D01*
X227000D01*
X170501Y218999D02*
X170001Y218499D01*
Y217500D01*
X170501Y217000D01*
X172500D01*
X173000Y217500D01*
Y218499D01*
X172500Y218999D01*
X173000Y221998D02*
Y219999D01*
X171001Y221998D01*
X170501D01*
X170001Y221498D01*
Y220499D01*
X170501Y219999D01*
Y222998D02*
X170001Y223498D01*
Y224498D01*
X170501Y224997D01*
X171001D01*
X171501Y224498D01*
X172000Y224997D01*
X172500D01*
X173000Y224498D01*
Y223498D01*
X172500Y222998D01*
X172000D01*
X171501Y223498D01*
X171001Y222998D01*
X170501D01*
X171501Y223498D02*
Y224498D01*
X170501Y207999D02*
X170001Y207500D01*
Y206500D01*
X170501Y206000D01*
X172500D01*
X173000Y206500D01*
Y207500D01*
X172500Y207999D01*
X173000Y210998D02*
Y208999D01*
X171001Y210998D01*
X170501D01*
X170001Y210498D01*
Y209499D01*
X170501Y208999D01*
X172500Y211998D02*
X173000Y212498D01*
Y213498D01*
X172500Y213997D01*
X170501D01*
X170001Y213498D01*
Y212498D01*
X170501Y211998D01*
X171001D01*
X171501Y212498D01*
Y213997D01*
X173000Y195000D02*
X170001D01*
Y196500D01*
X170501Y196999D01*
X171501D01*
X172000Y196500D01*
Y195000D01*
Y196000D02*
X173000Y196999D01*
X172500Y197999D02*
X173000Y198499D01*
Y199499D01*
X172500Y199998D01*
X170501D01*
X170001Y199499D01*
Y198499D01*
X170501Y197999D01*
X171001D01*
X171501Y198499D01*
Y199998D01*
X170501Y200998D02*
X170001Y201498D01*
Y202498D01*
X170501Y202997D01*
X171001D01*
X171501Y202498D01*
Y201998D01*
Y202498D01*
X172000Y202997D01*
X172500D01*
X173000Y202498D01*
Y201498D01*
X172500Y200998D01*
X179000Y195000D02*
X176001D01*
Y196500D01*
X176501Y196999D01*
X177500D01*
X178000Y196500D01*
Y195000D01*
Y196000D02*
X179000Y196999D01*
X178500Y197999D02*
X179000Y198499D01*
Y199499D01*
X178500Y199998D01*
X176501D01*
X176001Y199499D01*
Y198499D01*
X176501Y197999D01*
X177001D01*
X177500Y198499D01*
Y199998D01*
X179000Y202498D02*
X176001D01*
X177500Y200998D01*
Y202997D01*
X179000Y217000D02*
X176001D01*
Y218499D01*
X176501Y218999D01*
X177500D01*
X178000Y218499D01*
Y217000D01*
Y218000D02*
X179000Y218999D01*
X178500Y219999D02*
X179000Y220499D01*
Y221498D01*
X178500Y221998D01*
X176501D01*
X176001Y221498D01*
Y220499D01*
X176501Y219999D01*
X177001D01*
X177500Y220499D01*
Y221998D01*
X176001Y224997D02*
Y222998D01*
X177500D01*
X177001Y223998D01*
Y224498D01*
X177500Y224997D01*
X178500D01*
X179000Y224498D01*
Y223498D01*
X178500Y222998D01*
X125000Y238000D02*
Y240999D01*
X126499D01*
X126999Y240499D01*
Y239499D01*
X126499Y239000D01*
X125000D01*
X126000D02*
X126999Y238000D01*
X127999Y238500D02*
X128499Y238000D01*
X129499D01*
X129998Y238500D01*
Y240499D01*
X129499Y240999D01*
X128499D01*
X127999Y240499D01*
Y239999D01*
X128499Y239499D01*
X129998D01*
X132997Y240999D02*
X131998Y240499D01*
X130998Y239499D01*
Y238500D01*
X131498Y238000D01*
X132498D01*
X132997Y238500D01*
Y239000D01*
X132498Y239499D01*
X130998D01*
X179000Y206000D02*
X176001D01*
Y207500D01*
X176501Y207999D01*
X177500D01*
X178000Y207500D01*
Y206000D01*
Y207000D02*
X179000Y207999D01*
X178500Y208999D02*
X179000Y209499D01*
Y210498D01*
X178500Y210998D01*
X176501D01*
X176001Y210498D01*
Y209499D01*
X176501Y208999D01*
X177001D01*
X177500Y209499D01*
Y210998D01*
X176001Y211998D02*
Y213997D01*
X176501D01*
X178500Y211998D01*
X179000D01*
X203395Y294040D02*
X202895Y293540D01*
Y292540D01*
X203395Y292040D01*
X205395D01*
X205894Y292540D01*
Y293540D01*
X205395Y294040D01*
X205894Y295039D02*
Y296039D01*
Y295539D01*
X202895D01*
X203395Y295039D01*
X205894Y299538D02*
Y297538D01*
X203895Y299538D01*
X203395D01*
X202895Y299038D01*
Y298038D01*
X203395Y297538D01*
X105100Y297499D02*
Y295000D01*
X105600Y294500D01*
X106599D01*
X107099Y295000D01*
Y297499D01*
X108099Y294500D02*
X109099D01*
X108599D01*
Y297499D01*
X108099Y296999D01*
X112598Y294500D02*
X110598D01*
X112598Y296499D01*
Y296999D01*
X112098Y297499D01*
X111098D01*
X110598Y296999D01*
X302000Y109000D02*
Y111999D01*
X303500D01*
X303999Y111499D01*
Y110500D01*
X303500Y110000D01*
X302000D01*
X303000D02*
X303999Y109000D01*
X304999Y109500D02*
X305499Y109000D01*
X306499D01*
X306998Y109500D01*
Y111499D01*
X306499Y111999D01*
X305499D01*
X304999Y111499D01*
Y110999D01*
X305499Y110500D01*
X306998D01*
X307998Y109500D02*
X308498Y109000D01*
X309498D01*
X309997Y109500D01*
Y111499D01*
X309498Y111999D01*
X308498D01*
X307998Y111499D01*
Y110999D01*
X308498Y110500D01*
X309997D01*
X245999Y213499D02*
X245499Y213999D01*
X244500D01*
X244000Y213499D01*
Y211500D01*
X244500Y211000D01*
X245499D01*
X245999Y211500D01*
Y212499D01*
X245000D01*
X246999Y211000D02*
Y213999D01*
X248998Y211000D01*
Y213999D01*
X249998D02*
Y211000D01*
X251498D01*
X251997Y211500D01*
Y213499D01*
X251498Y213999D01*
X249998D01*
X266000Y142000D02*
Y144999D01*
X267499D01*
X267999Y144499D01*
Y143500D01*
X267499Y143000D01*
X266000D01*
X270498Y144999D02*
X269499D01*
X268999Y144499D01*
Y142500D01*
X269499Y142000D01*
X270498D01*
X270998Y142500D01*
Y144499D01*
X270498Y144999D01*
X271998D02*
Y142000D01*
X272998Y143000D01*
X273997Y142000D01*
Y144999D01*
X276996D02*
X274997D01*
Y142000D01*
X276996D01*
X274997Y143500D02*
X275997D01*
X277996Y142000D02*
Y144999D01*
X279496D01*
X279995Y144499D01*
Y143500D01*
X279496Y143000D01*
X277996D01*
X278996D02*
X279995Y142000D01*
X308000D02*
Y144999D01*
X309500D01*
X309999Y144499D01*
Y143500D01*
X309500Y143000D01*
X308000D01*
X309000D02*
X309999Y142000D01*
X312998Y144499D02*
X312498Y144999D01*
X311499D01*
X310999Y144499D01*
Y143999D01*
X311499Y143500D01*
X312498D01*
X312998Y143000D01*
Y142500D01*
X312498Y142000D01*
X311499D01*
X310999Y142500D01*
X315997Y142000D02*
X313998D01*
X315997Y143999D01*
Y144499D01*
X315498Y144999D01*
X314498D01*
X313998Y144499D01*
X316997D02*
X317497Y144999D01*
X318497D01*
X318996Y144499D01*
Y143999D01*
X318497Y143500D01*
X317997D01*
X318497D01*
X318996Y143000D01*
Y142500D01*
X318497Y142000D01*
X317497D01*
X316997Y142500D01*
X321995Y142000D02*
X319996D01*
X321995Y143999D01*
Y144499D01*
X321496Y144999D01*
X320496D01*
X319996Y144499D01*
X202000Y147000D02*
Y149999D01*
X203500D01*
X203999Y149499D01*
Y148500D01*
X203500Y148000D01*
X202000D01*
X203000D02*
X203999Y147000D01*
X206998Y149499D02*
X206499Y149999D01*
X205499D01*
X204999Y149499D01*
Y148999D01*
X205499Y148500D01*
X206499D01*
X206998Y148000D01*
Y147500D01*
X206499Y147000D01*
X205499D01*
X204999Y147500D01*
X209997Y147000D02*
X207998D01*
X209997Y148999D01*
Y149499D01*
X209498Y149999D01*
X208498D01*
X207998Y149499D01*
X210997D02*
X211497Y149999D01*
X212497D01*
X212996Y149499D01*
Y148999D01*
X212497Y148500D01*
X211997D01*
X212497D01*
X212996Y148000D01*
Y147500D01*
X212497Y147000D01*
X211497D01*
X210997Y147500D01*
X215996Y147000D02*
X213996D01*
X215996Y148999D01*
Y149499D01*
X215496Y149999D01*
X214496D01*
X213996Y149499D01*
X153000Y148000D02*
Y150999D01*
X154499D01*
X154999Y150499D01*
Y149499D01*
X154499Y149000D01*
X153000D01*
X154000D02*
X154999Y148000D01*
X157499D02*
X156499D01*
X155999Y148500D01*
Y149499D01*
X156499Y149999D01*
X157499D01*
X157998Y149499D01*
Y149000D01*
X155999D01*
X158998Y148000D02*
X160498D01*
X160997Y148500D01*
X160498Y149000D01*
X159498D01*
X158998Y149499D01*
X159498Y149999D01*
X160997D01*
X163497Y148000D02*
X162497D01*
X161997Y148500D01*
Y149499D01*
X162497Y149999D01*
X163497D01*
X163996Y149499D01*
Y149000D01*
X161997D01*
X165496Y150499D02*
Y149999D01*
X164996D01*
X165996D01*
X165496D01*
Y148500D01*
X165996Y148000D01*
X268000Y177999D02*
X269000D01*
X268500D01*
Y175000D01*
X268000D01*
X269000D01*
X270499D02*
Y177999D01*
X272498Y175000D01*
Y177999D01*
X273498D02*
X275498D01*
X274498D01*
Y175000D01*
X276497D02*
X277497D01*
X276997D01*
Y177999D01*
X276497Y177499D01*
X294000Y177999D02*
X295000D01*
X294500D01*
Y175000D01*
X294000D01*
X295000D01*
X296499D02*
Y177999D01*
X298499Y175000D01*
Y177999D01*
X299498D02*
X301498D01*
X300498D01*
Y175000D01*
X302497Y177499D02*
X302997Y177999D01*
X303997D01*
X304497Y177499D01*
Y175500D01*
X303997Y175000D01*
X302997D01*
X302497Y175500D01*
Y177499D01*
X468007Y120099D02*
X470006D01*
X469006D01*
Y117100D01*
X471005D02*
Y117600D01*
X471505D01*
Y117100D01*
X471005D01*
X476504Y120099D02*
X478503D01*
X477503D01*
Y117100D01*
X480003D02*
X481002D01*
X481502Y117600D01*
Y118599D01*
X481002Y119099D01*
X480003D01*
X479503Y118599D01*
Y117600D01*
X480003Y117100D01*
X482502Y116100D02*
Y119099D01*
X484001D01*
X484501Y118599D01*
Y117600D01*
X484001Y117100D01*
X482502D01*
X485501Y116100D02*
Y119099D01*
X487000D01*
X487500Y118599D01*
Y117600D01*
X487000Y117100D01*
X485501D01*
X488500D02*
X489500D01*
X489000D01*
Y119099D01*
X488500D01*
X490999Y117100D02*
Y119099D01*
X492498D01*
X492998Y118599D01*
Y117100D01*
X494998Y116100D02*
X495498D01*
X495997Y116600D01*
Y119099D01*
X494498D01*
X493998Y118599D01*
Y117600D01*
X494498Y117100D01*
X495997D01*
X473005Y130299D02*
Y129799D01*
X474005Y128799D01*
X475004Y129799D01*
Y130299D01*
X474005Y128799D02*
Y127300D01*
X476504D02*
X477503D01*
X478003Y127800D01*
Y128799D01*
X477503Y129299D01*
X476504D01*
X476004Y128799D01*
Y127800D01*
X476504Y127300D01*
X479003Y130299D02*
Y129799D01*
X480003Y128799D01*
X481002Y129799D01*
Y130299D01*
X480003Y128799D02*
Y127300D01*
X482502D02*
X483501D01*
X484001Y127800D01*
Y128799D01*
X483501Y129299D01*
X482502D01*
X482002Y128799D01*
Y127800D01*
X482502Y127300D01*
X485001Y130299D02*
Y127300D01*
X486501D01*
X487000Y127800D01*
Y129799D01*
X486501Y130299D01*
X485001D01*
X488000Y129299D02*
Y127800D01*
X488500Y127300D01*
X489999D01*
Y126800D01*
X489500Y126300D01*
X489000D01*
X489999Y127300D02*
Y129299D01*
X490999Y127300D02*
Y129299D01*
X492498D01*
X492998Y128799D01*
Y127300D01*
X495498D02*
X494498D01*
X493998Y127800D01*
Y128799D01*
X494498Y129299D01*
X495498D01*
X495997Y128799D01*
Y128300D01*
X493998D01*
D45*
X221175Y153857D02*
G03*
X221175Y153857I-492J0D01*
G01*
X447949Y475087D02*
G03*
X447949Y475087I-492J0D01*
G01*
X181175Y153857D02*
G03*
X181175Y153857I-492J0D01*
G01*
X195500Y370000D02*
G03*
X195500Y370000I-492J0D01*
G01*
X447949Y280087D02*
G03*
X447949Y280087I-492J0D01*
G01*
Y265087D02*
G03*
X447949Y265087I-492J0D01*
G01*
Y310087D02*
G03*
X447949Y310087I-492J0D01*
G01*
Y295087D02*
G03*
X447949Y295087I-492J0D01*
G01*
Y340087D02*
G03*
X447949Y340087I-492J0D01*
G01*
Y325087D02*
G03*
X447949Y325087I-492J0D01*
G01*
Y370087D02*
G03*
X447949Y370087I-492J0D01*
G01*
Y355087D02*
G03*
X447949Y355087I-492J0D01*
G01*
Y400087D02*
G03*
X447949Y400087I-492J0D01*
G01*
Y385087D02*
G03*
X447949Y385087I-492J0D01*
G01*
Y430087D02*
G03*
X447949Y430087I-492J0D01*
G01*
Y415087D02*
G03*
X447949Y415087I-492J0D01*
G01*
Y460087D02*
G03*
X447949Y460087I-492J0D01*
G01*
Y445087D02*
G03*
X447949Y445087I-492J0D01*
G01*
Y490087D02*
G03*
X447949Y490087I-492J0D01*
G01*
X141175Y153857D02*
G03*
X141175Y153857I-492J0D01*
G01*
X125500Y470000D02*
G03*
X125500Y470000I-492J0D01*
G01*
X195500D02*
G03*
X195500Y470000I-492J0D01*
G01*
X265500D02*
G03*
X265500Y470000I-492J0D01*
G01*
X335500D02*
G03*
X335500Y470000I-492J0D01*
G01*
X125500Y370000D02*
G03*
X125500Y370000I-492J0D01*
G01*
X335500D02*
G03*
X335500Y370000I-492J0D01*
G01*
X265500D02*
G03*
X265500Y370000I-492J0D01*
G01*
D46*
X321500Y210380D02*
G03*
X321500Y212880I0J1250D01*
G01*
X267500Y279380D02*
G03*
X267500Y281880I0J1250D01*
G01*
X321425Y242193D02*
X324575D01*
X321425Y268193D02*
X324575D01*
X247220Y153268D02*
X251107Y157156D01*
X224780Y186732D02*
X247220D01*
X224780Y153268D02*
X247220D01*
X219268Y166063D02*
Y173937D01*
X252732Y166063D02*
Y173937D01*
X247220Y186732D02*
X251107Y182844D01*
X221675Y156387D02*
X224780Y153268D01*
X220893Y182844D02*
X224780Y186732D01*
X359559Y237673D02*
Y267772D01*
Y237673D02*
X394717D01*
Y272831D01*
X364618D02*
X394717D01*
X359559Y267772D02*
X364618Y272831D01*
X311441Y210520D02*
X316559D01*
X452181Y473906D02*
X453756D01*
Y470756D02*
Y473906D01*
X452181Y462094D02*
X453756D01*
Y465244D01*
X180893Y182844D02*
X184780Y186732D01*
X181675Y156387D02*
X184780Y153268D01*
X207221Y186732D02*
X211107Y182844D01*
X212732Y166063D02*
Y173937D01*
X179268Y166063D02*
Y173937D01*
X184780Y153268D02*
X207221D01*
X184780Y186732D02*
X207221D01*
Y153268D02*
X211107Y157156D01*
X321500Y207240D02*
X361500D01*
Y216020D01*
X321500D02*
X361500D01*
X321500Y212880D02*
Y216020D01*
Y207240D02*
Y210380D01*
X265835Y148634D02*
X270165D01*
X274279Y196366D02*
X278610D01*
X301835D02*
X306165D01*
X281520Y254941D02*
Y260059D01*
X317441Y352520D02*
X322559D01*
X247441D02*
X252559D01*
X177441D02*
X182559D01*
X107441D02*
X112559D01*
X317441Y452520D02*
X322559D01*
X247441D02*
X252559D01*
X177441D02*
X182559D01*
X107441D02*
X112559D01*
X308335Y148634D02*
X312665D01*
X452181Y278906D02*
X453756D01*
Y275756D02*
Y278906D01*
X452181Y267094D02*
X453756D01*
Y270244D01*
X452181Y263906D02*
X453756D01*
Y260756D02*
Y263906D01*
X452181Y252095D02*
X453756D01*
Y255244D01*
X452181Y308906D02*
X453756D01*
Y305756D02*
Y308906D01*
X452181Y297094D02*
X453756D01*
Y300244D01*
X452181Y293905D02*
X453756D01*
Y290756D02*
Y293905D01*
X452181Y282095D02*
X453756D01*
Y285244D01*
X452181Y338906D02*
X453756D01*
Y335756D02*
Y338906D01*
X452181Y327095D02*
X453756D01*
Y330244D01*
X452181Y323905D02*
X453756D01*
Y320756D02*
Y323905D01*
X452181Y312094D02*
X453756D01*
Y315244D01*
X452181Y368905D02*
X453756D01*
Y365756D02*
Y368905D01*
X452181Y357095D02*
X453756D01*
Y360244D01*
X452181Y353906D02*
X453756D01*
Y350756D02*
Y353906D01*
X452181Y342094D02*
X453756D01*
Y345244D01*
X452181Y398905D02*
X453756D01*
Y395756D02*
Y398905D01*
X452181Y387094D02*
X453756D01*
Y390244D01*
X452181Y383906D02*
X453756D01*
Y380756D02*
Y383906D01*
X452181Y372094D02*
X453756D01*
Y375244D01*
X452181Y428905D02*
X453756D01*
Y425756D02*
Y428905D01*
X452181Y417095D02*
X453756D01*
Y420244D01*
X452181Y413905D02*
X453756D01*
Y410756D02*
Y413905D01*
X452181Y402095D02*
X453756D01*
Y405244D01*
X452181Y458906D02*
X453756D01*
Y455756D02*
Y458906D01*
X452181Y447094D02*
X453756D01*
Y450244D01*
X452181Y443905D02*
X453756D01*
Y440756D02*
Y443905D01*
X452181Y432094D02*
X453756D01*
Y435244D01*
X452181Y488905D02*
X453756D01*
Y485756D02*
Y488905D01*
X452181Y477095D02*
X453756D01*
Y480244D01*
X140893Y182844D02*
X144780Y186732D01*
X141675Y156387D02*
X144780Y153268D01*
X167220Y186732D02*
X171107Y182844D01*
X172732Y166063D02*
Y173937D01*
X139268Y166063D02*
Y173937D01*
X144780Y153268D02*
X167220D01*
X144780Y186732D02*
X167220D01*
Y153268D02*
X171107Y157156D01*
X267500Y276240D02*
Y279380D01*
Y281880D02*
Y285020D01*
X307500D01*
Y276240D02*
Y285020D01*
X267500Y276240D02*
X307500D01*
D47*
X325000Y209000D02*
G03*
X325000Y209000I-1000J0D01*
G01*
X271000Y278000D02*
G03*
X271000Y278000I-1000J0D01*
G01*
D48*
X197932Y372500D02*
G03*
X202000Y372500I2034J0D01*
G01*
X127932Y472500D02*
G03*
X132000Y472500I2034J0D01*
G01*
X197932D02*
G03*
X202000Y472500I2034J0D01*
G01*
X267932D02*
G03*
X272000Y472500I2034J0D01*
G01*
X337932D02*
G03*
X342000Y472500I2034J0D01*
G01*
X127932Y372500D02*
G03*
X132000Y372500I2034J0D01*
G01*
X337932D02*
G03*
X342000Y372500I2034J0D01*
G01*
X267932D02*
G03*
X272000Y372500I2034J0D01*
G01*
X481000Y343000D02*
X487000D01*
X481000Y333000D02*
X487000D01*
X479000Y335000D02*
Y341000D01*
X489000Y335000D02*
Y341000D01*
X487000Y333000D02*
X489000Y335000D01*
X479000D02*
X481000Y333000D01*
X479000Y335000D02*
Y341000D01*
X481000Y343000D01*
X487000D01*
X489000Y341000D01*
X481000Y353000D02*
X487000D01*
X481000Y343000D02*
X487000D01*
X479000Y345000D02*
Y351000D01*
X489000Y345000D02*
Y351000D01*
X487000Y343000D02*
X489000Y345000D01*
X479000D02*
X481000Y343000D01*
X479000Y345000D02*
Y351000D01*
X481000Y353000D01*
X487000D01*
X489000Y351000D01*
X481000Y363000D02*
X487000D01*
X481000Y353000D02*
X487000D01*
X479000Y355000D02*
Y361000D01*
X489000Y355000D02*
Y361000D01*
X487000Y353000D02*
X489000Y355000D01*
X479000D02*
X481000Y353000D01*
X479000Y355000D02*
Y361000D01*
X481000Y363000D01*
X487000D01*
X489000Y361000D01*
X481000Y373000D02*
X487000D01*
X481000Y363000D02*
X487000D01*
X479000Y365000D02*
Y371000D01*
X489000Y365000D02*
Y371000D01*
X487000Y363000D02*
X489000Y365000D01*
X479000D02*
X481000Y363000D01*
X479000Y365000D02*
Y371000D01*
X481000Y373000D01*
X487000D01*
X489000Y371000D01*
X481000Y383000D02*
X487000D01*
X481000Y373000D02*
X487000D01*
X479000Y375000D02*
Y381000D01*
X489000Y375000D02*
Y381000D01*
X487000Y373000D02*
X489000Y375000D01*
X479000D02*
X481000Y373000D01*
X479000Y375000D02*
Y381000D01*
X481000Y383000D01*
X487000D01*
X489000Y381000D01*
X481000Y393000D02*
X487000D01*
X481000Y383000D02*
X487000D01*
X479000Y385000D02*
Y391000D01*
X489000Y385000D02*
Y391000D01*
X487000Y383000D02*
X489000Y385000D01*
X479000D02*
X481000Y383000D01*
X479000Y385000D02*
Y391000D01*
X481000Y393000D01*
X487000D01*
X489000Y391000D01*
X481000Y403000D02*
X487000D01*
X481000Y393000D02*
X487000D01*
X479000Y395000D02*
Y401000D01*
X489000Y395000D02*
Y401000D01*
X487000Y393000D02*
X489000Y395000D01*
X479000D02*
X481000Y393000D01*
X479000Y395000D02*
Y401000D01*
X481000Y403000D01*
X487000D01*
X489000Y401000D01*
X481000Y413000D02*
X487000D01*
X481000Y403000D02*
X487000D01*
X479000Y405000D02*
Y411000D01*
X489000Y405000D02*
Y411000D01*
X487000Y403000D02*
X489000Y405000D01*
X479000D02*
X481000Y403000D01*
X479000Y405000D02*
Y411000D01*
X481000Y413000D01*
X487000D01*
X489000Y411000D01*
X243500Y223000D02*
X245500Y225000D01*
X243500Y217000D02*
Y223000D01*
Y217000D02*
X245500Y215000D01*
X251500D01*
X253500Y217000D01*
X251500Y225000D02*
X253500Y223000D01*
X245500Y225000D02*
X251500D01*
X245500Y215000D02*
X251500D01*
X253500Y217000D02*
Y223000D01*
X243500Y217000D02*
Y223000D01*
X253500D02*
X255500Y225000D01*
X253500Y217000D02*
Y223000D01*
Y217000D02*
X255500Y215000D01*
X261500D01*
X263500Y217000D01*
X261500Y225000D02*
X263500Y223000D01*
X255500Y225000D02*
X261500D01*
X255500Y215000D02*
X261500D01*
X263500Y217000D02*
Y223000D01*
X253500Y217000D02*
Y223000D01*
X263500D02*
X265500Y225000D01*
X263500Y217000D02*
Y223000D01*
Y217000D02*
X265500Y215000D01*
X271500D01*
X273500Y217000D01*
X271500Y225000D02*
X273500Y223000D01*
X265500Y225000D02*
X271500D01*
X265500Y215000D02*
X271500D01*
X273500Y217000D02*
Y223000D01*
X263500Y217000D02*
Y223000D01*
X273500D02*
X275500Y225000D01*
X273500Y217000D02*
Y223000D01*
Y217000D02*
X275500Y215000D01*
X281500D01*
X283500Y217000D01*
X281500Y225000D02*
X283500Y223000D01*
X275500Y225000D02*
X281500D01*
X275500Y215000D02*
X281500D01*
X283500Y217000D02*
Y223000D01*
X273500Y217000D02*
Y223000D01*
X194000Y215000D02*
X196000Y213000D01*
X202000D01*
X204000Y215000D01*
Y221000D01*
X202000Y223000D02*
X204000Y221000D01*
X194000D02*
X196000Y223000D01*
X194000Y215000D02*
Y221000D01*
X204000Y215000D02*
Y221000D01*
X196000Y223000D02*
X202000D01*
X196000Y213000D02*
X202000D01*
X194000Y225000D02*
X196000Y223000D01*
X202000D01*
X204000Y225000D01*
Y231000D01*
X202000Y233000D02*
X204000Y231000D01*
X194000D02*
X196000Y233000D01*
X194000Y225000D02*
Y231000D01*
X204000Y225000D02*
Y231000D01*
X196000Y233000D02*
X202000D01*
X196000Y223000D02*
X202000D01*
X194000Y235000D02*
X196000Y233000D01*
X202000D01*
X204000Y235000D01*
Y241000D01*
X202000Y243000D02*
X204000Y241000D01*
X194000D02*
X196000Y243000D01*
X194000Y235000D02*
Y241000D01*
X204000Y235000D02*
Y241000D01*
X196000Y243000D02*
X202000D01*
X196000Y233000D02*
X202000D01*
X194000Y245000D02*
X196000Y243000D01*
X202000D01*
X204000Y245000D01*
Y251000D01*
X202000Y253000D02*
X204000Y251000D01*
X194000D02*
X196000Y253000D01*
X194000Y245000D02*
Y251000D01*
X204000Y245000D02*
Y251000D01*
X196000Y253000D02*
X202000D01*
X196000Y243000D02*
X202000D01*
X194000Y255000D02*
X196000Y253000D01*
X202000D01*
X204000Y255000D01*
Y261000D01*
X202000Y263000D02*
X204000Y261000D01*
X194000D02*
X196000Y263000D01*
X194000Y255000D02*
Y261000D01*
X204000Y255000D02*
Y261000D01*
X196000Y263000D02*
X202000D01*
X196000Y253000D02*
X202000D01*
X184000Y215000D02*
X186000Y213000D01*
X192000D01*
X194000Y215000D01*
Y221000D01*
X192000Y223000D02*
X194000Y221000D01*
X184000D02*
X186000Y223000D01*
X184000Y215000D02*
Y221000D01*
X194000Y215000D02*
Y221000D01*
X186000Y223000D02*
X192000D01*
X186000Y213000D02*
X192000D01*
X184000Y225000D02*
X186000Y223000D01*
X192000D01*
X194000Y225000D01*
Y231000D01*
X192000Y233000D02*
X194000Y231000D01*
X184000D02*
X186000Y233000D01*
X184000Y225000D02*
Y231000D01*
X194000Y225000D02*
Y231000D01*
X186000Y233000D02*
X192000D01*
X186000Y223000D02*
X192000D01*
X184000Y235000D02*
X186000Y233000D01*
X192000D01*
X194000Y235000D01*
Y241000D01*
X192000Y243000D02*
X194000Y241000D01*
X184000D02*
X186000Y243000D01*
X184000Y235000D02*
Y241000D01*
X194000Y235000D02*
Y241000D01*
X186000Y243000D02*
X192000D01*
X186000Y233000D02*
X192000D01*
X184000Y245000D02*
X186000Y243000D01*
X192000D01*
X194000Y245000D01*
Y251000D01*
X192000Y253000D02*
X194000Y251000D01*
X184000D02*
X186000Y253000D01*
X184000Y245000D02*
Y251000D01*
X194000Y245000D02*
Y251000D01*
X186000Y253000D02*
X192000D01*
X186000Y243000D02*
X192000D01*
X184000Y255000D02*
X186000Y253000D01*
X192000D01*
X194000Y255000D01*
Y261000D01*
X192000Y263000D02*
X194000Y261000D01*
X184000D02*
X186000Y263000D01*
X184000Y255000D02*
Y261000D01*
X194000Y255000D02*
Y261000D01*
X186000Y263000D02*
X192000D01*
X186000Y253000D02*
X192000D01*
X235000D02*
X237000Y255000D01*
X235000Y247000D02*
Y253000D01*
Y247000D02*
X237000Y245000D01*
X243000D01*
X245000Y247000D01*
X243000Y255000D02*
X245000Y253000D01*
X237000Y255000D02*
X243000D01*
X237000Y245000D02*
X243000D01*
X245000Y247000D02*
Y253000D01*
X235000Y247000D02*
Y253000D01*
X245000D02*
X247000Y255000D01*
X245000Y247000D02*
Y253000D01*
Y247000D02*
X247000Y245000D01*
X253000D01*
X255000Y247000D01*
X253000Y255000D02*
X255000Y253000D01*
X247000Y255000D02*
X253000D01*
X247000Y245000D02*
X253000D01*
X255000Y247000D02*
Y253000D01*
X245000Y247000D02*
Y253000D01*
X202000Y372500D02*
X207500D01*
Y347500D02*
Y372500D01*
X192500Y347500D02*
X207500D01*
X192500D02*
Y372500D01*
X194932D01*
X198000D01*
X167000Y485000D02*
X173000D01*
X167000Y495000D02*
X173000D01*
X175000Y487000D02*
Y493000D01*
X165000Y487000D02*
Y493000D01*
X167000Y495000D01*
X173000D02*
X175000Y493000D01*
Y487000D02*
Y493000D01*
X173000Y485000D02*
X175000Y487000D01*
X167000Y485000D02*
X173000D01*
X165000Y487000D02*
X167000Y485000D01*
Y475000D02*
X173000D01*
X167000Y485000D02*
X173000D01*
X175000Y477000D02*
Y483000D01*
X165000Y477000D02*
Y483000D01*
X167000Y485000D01*
X173000D02*
X175000Y483000D01*
Y477000D02*
Y483000D01*
X173000Y475000D02*
X175000Y477000D01*
X167000Y475000D02*
X173000D01*
X165000Y477000D02*
X167000Y475000D01*
Y465000D02*
X173000D01*
X167000Y475000D02*
X173000D01*
X175000Y467000D02*
Y473000D01*
X165000Y467000D02*
Y473000D01*
X167000Y475000D01*
X173000D02*
X175000Y473000D01*
Y467000D02*
Y473000D01*
X173000Y465000D02*
X175000Y467000D01*
X167000Y465000D02*
X173000D01*
X165000Y467000D02*
X167000Y465000D01*
Y455000D02*
X173000D01*
X167000Y465000D02*
X173000D01*
X175000Y457000D02*
Y463000D01*
X165000Y457000D02*
Y463000D01*
X167000Y465000D01*
X173000D02*
X175000Y463000D01*
Y457000D02*
Y463000D01*
X173000Y455000D02*
X175000Y457000D01*
X167000Y455000D02*
X173000D01*
X165000Y457000D02*
X167000Y455000D01*
Y445000D02*
X173000D01*
X167000Y455000D02*
X173000D01*
X175000Y447000D02*
Y453000D01*
X165000Y447000D02*
Y453000D01*
X167000Y455000D01*
X173000D02*
X175000Y453000D01*
Y447000D02*
Y453000D01*
X173000Y445000D02*
X175000Y447000D01*
X167000Y445000D02*
X173000D01*
X165000Y447000D02*
X167000Y445000D01*
Y435000D02*
X173000D01*
X167000Y445000D02*
X173000D01*
X175000Y437000D02*
Y443000D01*
X165000Y437000D02*
Y443000D01*
X167000Y445000D01*
X173000D02*
X175000Y443000D01*
Y437000D02*
Y443000D01*
X173000Y435000D02*
X175000Y437000D01*
X167000Y435000D02*
X173000D01*
X165000Y437000D02*
X167000Y435000D01*
Y425000D02*
X173000D01*
X167000Y435000D02*
X173000D01*
X175000Y427000D02*
Y433000D01*
X165000Y427000D02*
Y433000D01*
X167000Y435000D01*
X173000D02*
X175000Y433000D01*
Y427000D02*
Y433000D01*
X173000Y425000D02*
X175000Y427000D01*
X167000Y425000D02*
X173000D01*
X165000Y427000D02*
X167000Y425000D01*
Y415000D02*
X173000D01*
X167000Y425000D02*
X173000D01*
X175000Y417000D02*
Y423000D01*
X165000Y417000D02*
Y423000D01*
X167000Y425000D01*
X173000D02*
X175000Y423000D01*
Y417000D02*
Y423000D01*
X173000Y415000D02*
X175000Y417000D01*
X167000Y415000D02*
X173000D01*
X165000Y417000D02*
X167000Y415000D01*
X237000Y485000D02*
X243000D01*
X237000Y495000D02*
X243000D01*
X245000Y487000D02*
Y493000D01*
X235000Y487000D02*
Y493000D01*
X237000Y495000D01*
X243000D02*
X245000Y493000D01*
Y487000D02*
Y493000D01*
X243000Y485000D02*
X245000Y487000D01*
X237000Y485000D02*
X243000D01*
X235000Y487000D02*
X237000Y485000D01*
Y475000D02*
X243000D01*
X237000Y485000D02*
X243000D01*
X245000Y477000D02*
Y483000D01*
X235000Y477000D02*
Y483000D01*
X237000Y485000D01*
X243000D02*
X245000Y483000D01*
Y477000D02*
Y483000D01*
X243000Y475000D02*
X245000Y477000D01*
X237000Y475000D02*
X243000D01*
X235000Y477000D02*
X237000Y475000D01*
Y465000D02*
X243000D01*
X237000Y475000D02*
X243000D01*
X245000Y467000D02*
Y473000D01*
X235000Y467000D02*
Y473000D01*
X237000Y475000D01*
X243000D02*
X245000Y473000D01*
Y467000D02*
Y473000D01*
X243000Y465000D02*
X245000Y467000D01*
X237000Y465000D02*
X243000D01*
X235000Y467000D02*
X237000Y465000D01*
Y455000D02*
X243000D01*
X237000Y465000D02*
X243000D01*
X245000Y457000D02*
Y463000D01*
X235000Y457000D02*
Y463000D01*
X237000Y465000D01*
X243000D02*
X245000Y463000D01*
Y457000D02*
Y463000D01*
X243000Y455000D02*
X245000Y457000D01*
X237000Y455000D02*
X243000D01*
X235000Y457000D02*
X237000Y455000D01*
Y445000D02*
X243000D01*
X237000Y455000D02*
X243000D01*
X245000Y447000D02*
Y453000D01*
X235000Y447000D02*
Y453000D01*
X237000Y455000D01*
X243000D02*
X245000Y453000D01*
Y447000D02*
Y453000D01*
X243000Y445000D02*
X245000Y447000D01*
X237000Y445000D02*
X243000D01*
X235000Y447000D02*
X237000Y445000D01*
Y435000D02*
X243000D01*
X237000Y445000D02*
X243000D01*
X245000Y437000D02*
Y443000D01*
X235000Y437000D02*
Y443000D01*
X237000Y445000D01*
X243000D02*
X245000Y443000D01*
Y437000D02*
Y443000D01*
X243000Y435000D02*
X245000Y437000D01*
X237000Y435000D02*
X243000D01*
X235000Y437000D02*
X237000Y435000D01*
Y425000D02*
X243000D01*
X237000Y435000D02*
X243000D01*
X245000Y427000D02*
Y433000D01*
X235000Y427000D02*
Y433000D01*
X237000Y435000D01*
X243000D02*
X245000Y433000D01*
Y427000D02*
Y433000D01*
X243000Y425000D02*
X245000Y427000D01*
X237000Y425000D02*
X243000D01*
X235000Y427000D02*
X237000Y425000D01*
Y415000D02*
X243000D01*
X237000Y425000D02*
X243000D01*
X245000Y417000D02*
Y423000D01*
X235000Y417000D02*
Y423000D01*
X237000Y425000D01*
X243000D02*
X245000Y423000D01*
Y417000D02*
Y423000D01*
X243000Y415000D02*
X245000Y417000D01*
X237000Y415000D02*
X243000D01*
X235000Y417000D02*
X237000Y415000D01*
X307000Y485000D02*
X313000D01*
X307000Y495000D02*
X313000D01*
X315000Y487000D02*
Y493000D01*
X305000Y487000D02*
Y493000D01*
X307000Y495000D01*
X313000D02*
X315000Y493000D01*
Y487000D02*
Y493000D01*
X313000Y485000D02*
X315000Y487000D01*
X307000Y485000D02*
X313000D01*
X305000Y487000D02*
X307000Y485000D01*
Y475000D02*
X313000D01*
X307000Y485000D02*
X313000D01*
X315000Y477000D02*
Y483000D01*
X305000Y477000D02*
Y483000D01*
X307000Y485000D01*
X313000D02*
X315000Y483000D01*
Y477000D02*
Y483000D01*
X313000Y475000D02*
X315000Y477000D01*
X307000Y475000D02*
X313000D01*
X305000Y477000D02*
X307000Y475000D01*
Y465000D02*
X313000D01*
X307000Y475000D02*
X313000D01*
X315000Y467000D02*
Y473000D01*
X305000Y467000D02*
Y473000D01*
X307000Y475000D01*
X313000D02*
X315000Y473000D01*
Y467000D02*
Y473000D01*
X313000Y465000D02*
X315000Y467000D01*
X307000Y465000D02*
X313000D01*
X305000Y467000D02*
X307000Y465000D01*
Y455000D02*
X313000D01*
X307000Y465000D02*
X313000D01*
X315000Y457000D02*
Y463000D01*
X305000Y457000D02*
Y463000D01*
X307000Y465000D01*
X313000D02*
X315000Y463000D01*
Y457000D02*
Y463000D01*
X313000Y455000D02*
X315000Y457000D01*
X307000Y455000D02*
X313000D01*
X305000Y457000D02*
X307000Y455000D01*
Y445000D02*
X313000D01*
X307000Y455000D02*
X313000D01*
X315000Y447000D02*
Y453000D01*
X305000Y447000D02*
Y453000D01*
X307000Y455000D01*
X313000D02*
X315000Y453000D01*
Y447000D02*
Y453000D01*
X313000Y445000D02*
X315000Y447000D01*
X307000Y445000D02*
X313000D01*
X305000Y447000D02*
X307000Y445000D01*
Y435000D02*
X313000D01*
X307000Y445000D02*
X313000D01*
X315000Y437000D02*
Y443000D01*
X305000Y437000D02*
Y443000D01*
X307000Y445000D01*
X313000D02*
X315000Y443000D01*
Y437000D02*
Y443000D01*
X313000Y435000D02*
X315000Y437000D01*
X307000Y435000D02*
X313000D01*
X305000Y437000D02*
X307000Y435000D01*
Y425000D02*
X313000D01*
X307000Y435000D02*
X313000D01*
X315000Y427000D02*
Y433000D01*
X305000Y427000D02*
Y433000D01*
X307000Y435000D01*
X313000D02*
X315000Y433000D01*
Y427000D02*
Y433000D01*
X313000Y425000D02*
X315000Y427000D01*
X307000Y425000D02*
X313000D01*
X305000Y427000D02*
X307000Y425000D01*
Y415000D02*
X313000D01*
X307000Y425000D02*
X313000D01*
X315000Y417000D02*
Y423000D01*
X305000Y417000D02*
Y423000D01*
X307000Y425000D01*
X313000D02*
X315000Y423000D01*
Y417000D02*
Y423000D01*
X313000Y415000D02*
X315000Y417000D01*
X307000Y415000D02*
X313000D01*
X305000Y417000D02*
X307000Y415000D01*
X377000Y485000D02*
X383000D01*
X377000Y495000D02*
X383000D01*
X385000Y487000D02*
Y493000D01*
X375000Y487000D02*
Y493000D01*
X377000Y495000D01*
X383000D02*
X385000Y493000D01*
Y487000D02*
Y493000D01*
X383000Y485000D02*
X385000Y487000D01*
X377000Y485000D02*
X383000D01*
X375000Y487000D02*
X377000Y485000D01*
Y475000D02*
X383000D01*
X377000Y485000D02*
X383000D01*
X385000Y477000D02*
Y483000D01*
X375000Y477000D02*
Y483000D01*
X377000Y485000D01*
X383000D02*
X385000Y483000D01*
Y477000D02*
Y483000D01*
X383000Y475000D02*
X385000Y477000D01*
X377000Y475000D02*
X383000D01*
X375000Y477000D02*
X377000Y475000D01*
Y465000D02*
X383000D01*
X377000Y475000D02*
X383000D01*
X385000Y467000D02*
Y473000D01*
X375000Y467000D02*
Y473000D01*
X377000Y475000D01*
X383000D02*
X385000Y473000D01*
Y467000D02*
Y473000D01*
X383000Y465000D02*
X385000Y467000D01*
X377000Y465000D02*
X383000D01*
X375000Y467000D02*
X377000Y465000D01*
Y455000D02*
X383000D01*
X377000Y465000D02*
X383000D01*
X385000Y457000D02*
Y463000D01*
X375000Y457000D02*
Y463000D01*
X377000Y465000D01*
X383000D02*
X385000Y463000D01*
Y457000D02*
Y463000D01*
X383000Y455000D02*
X385000Y457000D01*
X377000Y455000D02*
X383000D01*
X375000Y457000D02*
X377000Y455000D01*
Y445000D02*
X383000D01*
X377000Y455000D02*
X383000D01*
X385000Y447000D02*
Y453000D01*
X375000Y447000D02*
Y453000D01*
X377000Y455000D01*
X383000D02*
X385000Y453000D01*
Y447000D02*
Y453000D01*
X383000Y445000D02*
X385000Y447000D01*
X377000Y445000D02*
X383000D01*
X375000Y447000D02*
X377000Y445000D01*
Y435000D02*
X383000D01*
X377000Y445000D02*
X383000D01*
X385000Y437000D02*
Y443000D01*
X375000Y437000D02*
Y443000D01*
X377000Y445000D01*
X383000D02*
X385000Y443000D01*
Y437000D02*
Y443000D01*
X383000Y435000D02*
X385000Y437000D01*
X377000Y435000D02*
X383000D01*
X375000Y437000D02*
X377000Y435000D01*
Y425000D02*
X383000D01*
X377000Y435000D02*
X383000D01*
X385000Y427000D02*
Y433000D01*
X375000Y427000D02*
Y433000D01*
X377000Y435000D01*
X383000D02*
X385000Y433000D01*
Y427000D02*
Y433000D01*
X383000Y425000D02*
X385000Y427000D01*
X377000Y425000D02*
X383000D01*
X375000Y427000D02*
X377000Y425000D01*
Y415000D02*
X383000D01*
X377000Y425000D02*
X383000D01*
X385000Y417000D02*
Y423000D01*
X375000Y417000D02*
Y423000D01*
X377000Y425000D01*
X383000D02*
X385000Y423000D01*
Y417000D02*
Y423000D01*
X383000Y415000D02*
X385000Y417000D01*
X377000Y415000D02*
X383000D01*
X375000Y417000D02*
X377000Y415000D01*
X167000Y385000D02*
X173000D01*
X167000Y395000D02*
X173000D01*
X175000Y387000D02*
Y393000D01*
X165000Y387000D02*
Y393000D01*
X167000Y395000D01*
X173000D02*
X175000Y393000D01*
Y387000D02*
Y393000D01*
X173000Y385000D02*
X175000Y387000D01*
X167000Y385000D02*
X173000D01*
X165000Y387000D02*
X167000Y385000D01*
Y375000D02*
X173000D01*
X167000Y385000D02*
X173000D01*
X175000Y377000D02*
Y383000D01*
X165000Y377000D02*
Y383000D01*
X167000Y385000D01*
X173000D02*
X175000Y383000D01*
Y377000D02*
Y383000D01*
X173000Y375000D02*
X175000Y377000D01*
X167000Y375000D02*
X173000D01*
X165000Y377000D02*
X167000Y375000D01*
Y365000D02*
X173000D01*
X167000Y375000D02*
X173000D01*
X175000Y367000D02*
Y373000D01*
X165000Y367000D02*
Y373000D01*
X167000Y375000D01*
X173000D02*
X175000Y373000D01*
Y367000D02*
Y373000D01*
X173000Y365000D02*
X175000Y367000D01*
X167000Y365000D02*
X173000D01*
X165000Y367000D02*
X167000Y365000D01*
Y355000D02*
X173000D01*
X167000Y365000D02*
X173000D01*
X175000Y357000D02*
Y363000D01*
X165000Y357000D02*
Y363000D01*
X167000Y365000D01*
X173000D02*
X175000Y363000D01*
Y357000D02*
Y363000D01*
X173000Y355000D02*
X175000Y357000D01*
X167000Y355000D02*
X173000D01*
X165000Y357000D02*
X167000Y355000D01*
Y345000D02*
X173000D01*
X167000Y355000D02*
X173000D01*
X175000Y347000D02*
Y353000D01*
X165000Y347000D02*
Y353000D01*
X167000Y355000D01*
X173000D02*
X175000Y353000D01*
Y347000D02*
Y353000D01*
X173000Y345000D02*
X175000Y347000D01*
X167000Y345000D02*
X173000D01*
X165000Y347000D02*
X167000Y345000D01*
Y335000D02*
X173000D01*
X167000Y345000D02*
X173000D01*
X175000Y337000D02*
Y343000D01*
X165000Y337000D02*
Y343000D01*
X167000Y345000D01*
X173000D02*
X175000Y343000D01*
Y337000D02*
Y343000D01*
X173000Y335000D02*
X175000Y337000D01*
X167000Y335000D02*
X173000D01*
X165000Y337000D02*
X167000Y335000D01*
Y325000D02*
X173000D01*
X167000Y335000D02*
X173000D01*
X175000Y327000D02*
Y333000D01*
X165000Y327000D02*
Y333000D01*
X167000Y335000D01*
X173000D02*
X175000Y333000D01*
Y327000D02*
Y333000D01*
X173000Y325000D02*
X175000Y327000D01*
X167000Y325000D02*
X173000D01*
X165000Y327000D02*
X167000Y325000D01*
Y315000D02*
X173000D01*
X167000Y325000D02*
X173000D01*
X175000Y317000D02*
Y323000D01*
X165000Y317000D02*
Y323000D01*
X167000Y325000D01*
X173000D02*
X175000Y323000D01*
Y317000D02*
Y323000D01*
X173000Y315000D02*
X175000Y317000D01*
X167000Y315000D02*
X173000D01*
X165000Y317000D02*
X167000Y315000D01*
X237000Y385000D02*
X243000D01*
X237000Y395000D02*
X243000D01*
X245000Y387000D02*
Y393000D01*
X235000Y387000D02*
Y393000D01*
X237000Y395000D01*
X243000D02*
X245000Y393000D01*
Y387000D02*
Y393000D01*
X243000Y385000D02*
X245000Y387000D01*
X237000Y385000D02*
X243000D01*
X235000Y387000D02*
X237000Y385000D01*
Y375000D02*
X243000D01*
X237000Y385000D02*
X243000D01*
X245000Y377000D02*
Y383000D01*
X235000Y377000D02*
Y383000D01*
X237000Y385000D01*
X243000D02*
X245000Y383000D01*
Y377000D02*
Y383000D01*
X243000Y375000D02*
X245000Y377000D01*
X237000Y375000D02*
X243000D01*
X235000Y377000D02*
X237000Y375000D01*
Y365000D02*
X243000D01*
X237000Y375000D02*
X243000D01*
X245000Y367000D02*
Y373000D01*
X235000Y367000D02*
Y373000D01*
X237000Y375000D01*
X243000D02*
X245000Y373000D01*
Y367000D02*
Y373000D01*
X243000Y365000D02*
X245000Y367000D01*
X237000Y365000D02*
X243000D01*
X235000Y367000D02*
X237000Y365000D01*
Y355000D02*
X243000D01*
X237000Y365000D02*
X243000D01*
X245000Y357000D02*
Y363000D01*
X235000Y357000D02*
Y363000D01*
X237000Y365000D01*
X243000D02*
X245000Y363000D01*
Y357000D02*
Y363000D01*
X243000Y355000D02*
X245000Y357000D01*
X237000Y355000D02*
X243000D01*
X235000Y357000D02*
X237000Y355000D01*
Y345000D02*
X243000D01*
X237000Y355000D02*
X243000D01*
X245000Y347000D02*
Y353000D01*
X235000Y347000D02*
Y353000D01*
X237000Y355000D01*
X243000D02*
X245000Y353000D01*
Y347000D02*
Y353000D01*
X243000Y345000D02*
X245000Y347000D01*
X237000Y345000D02*
X243000D01*
X235000Y347000D02*
X237000Y345000D01*
Y335000D02*
X243000D01*
X237000Y345000D02*
X243000D01*
X245000Y337000D02*
Y343000D01*
X235000Y337000D02*
Y343000D01*
X237000Y345000D01*
X243000D02*
X245000Y343000D01*
Y337000D02*
Y343000D01*
X243000Y335000D02*
X245000Y337000D01*
X237000Y335000D02*
X243000D01*
X235000Y337000D02*
X237000Y335000D01*
Y325000D02*
X243000D01*
X237000Y335000D02*
X243000D01*
X245000Y327000D02*
Y333000D01*
X235000Y327000D02*
Y333000D01*
X237000Y335000D01*
X243000D02*
X245000Y333000D01*
Y327000D02*
Y333000D01*
X243000Y325000D02*
X245000Y327000D01*
X237000Y325000D02*
X243000D01*
X235000Y327000D02*
X237000Y325000D01*
Y315000D02*
X243000D01*
X237000Y325000D02*
X243000D01*
X245000Y317000D02*
Y323000D01*
X235000Y317000D02*
Y323000D01*
X237000Y325000D01*
X243000D02*
X245000Y323000D01*
Y317000D02*
Y323000D01*
X243000Y315000D02*
X245000Y317000D01*
X237000Y315000D02*
X243000D01*
X235000Y317000D02*
X237000Y315000D01*
X307000Y385000D02*
X313000D01*
X307000Y395000D02*
X313000D01*
X315000Y387000D02*
Y393000D01*
X305000Y387000D02*
Y393000D01*
X307000Y395000D01*
X313000D02*
X315000Y393000D01*
Y387000D02*
Y393000D01*
X313000Y385000D02*
X315000Y387000D01*
X307000Y385000D02*
X313000D01*
X305000Y387000D02*
X307000Y385000D01*
Y375000D02*
X313000D01*
X307000Y385000D02*
X313000D01*
X315000Y377000D02*
Y383000D01*
X305000Y377000D02*
Y383000D01*
X307000Y385000D01*
X313000D02*
X315000Y383000D01*
Y377000D02*
Y383000D01*
X313000Y375000D02*
X315000Y377000D01*
X307000Y375000D02*
X313000D01*
X305000Y377000D02*
X307000Y375000D01*
Y365000D02*
X313000D01*
X307000Y375000D02*
X313000D01*
X315000Y367000D02*
Y373000D01*
X305000Y367000D02*
Y373000D01*
X307000Y375000D01*
X313000D02*
X315000Y373000D01*
Y367000D02*
Y373000D01*
X313000Y365000D02*
X315000Y367000D01*
X307000Y365000D02*
X313000D01*
X305000Y367000D02*
X307000Y365000D01*
Y355000D02*
X313000D01*
X307000Y365000D02*
X313000D01*
X315000Y357000D02*
Y363000D01*
X305000Y357000D02*
Y363000D01*
X307000Y365000D01*
X313000D02*
X315000Y363000D01*
Y357000D02*
Y363000D01*
X313000Y355000D02*
X315000Y357000D01*
X307000Y355000D02*
X313000D01*
X305000Y357000D02*
X307000Y355000D01*
Y345000D02*
X313000D01*
X307000Y355000D02*
X313000D01*
X315000Y347000D02*
Y353000D01*
X305000Y347000D02*
Y353000D01*
X307000Y355000D01*
X313000D02*
X315000Y353000D01*
Y347000D02*
Y353000D01*
X313000Y345000D02*
X315000Y347000D01*
X307000Y345000D02*
X313000D01*
X305000Y347000D02*
X307000Y345000D01*
Y335000D02*
X313000D01*
X307000Y345000D02*
X313000D01*
X315000Y337000D02*
Y343000D01*
X305000Y337000D02*
Y343000D01*
X307000Y345000D01*
X313000D02*
X315000Y343000D01*
Y337000D02*
Y343000D01*
X313000Y335000D02*
X315000Y337000D01*
X307000Y335000D02*
X313000D01*
X305000Y337000D02*
X307000Y335000D01*
Y325000D02*
X313000D01*
X307000Y335000D02*
X313000D01*
X315000Y327000D02*
Y333000D01*
X305000Y327000D02*
Y333000D01*
X307000Y335000D01*
X313000D02*
X315000Y333000D01*
Y327000D02*
Y333000D01*
X313000Y325000D02*
X315000Y327000D01*
X307000Y325000D02*
X313000D01*
X305000Y327000D02*
X307000Y325000D01*
Y315000D02*
X313000D01*
X307000Y325000D02*
X313000D01*
X315000Y317000D02*
Y323000D01*
X305000Y317000D02*
Y323000D01*
X307000Y325000D01*
X313000D02*
X315000Y323000D01*
Y317000D02*
Y323000D01*
X313000Y315000D02*
X315000Y317000D01*
X307000Y315000D02*
X313000D01*
X305000Y317000D02*
X307000Y315000D01*
X377000Y385000D02*
X383000D01*
X377000Y395000D02*
X383000D01*
X385000Y387000D02*
Y393000D01*
X375000Y387000D02*
Y393000D01*
X377000Y395000D01*
X383000D02*
X385000Y393000D01*
Y387000D02*
Y393000D01*
X383000Y385000D02*
X385000Y387000D01*
X377000Y385000D02*
X383000D01*
X375000Y387000D02*
X377000Y385000D01*
Y375000D02*
X383000D01*
X377000Y385000D02*
X383000D01*
X385000Y377000D02*
Y383000D01*
X375000Y377000D02*
Y383000D01*
X377000Y385000D01*
X383000D02*
X385000Y383000D01*
Y377000D02*
Y383000D01*
X383000Y375000D02*
X385000Y377000D01*
X377000Y375000D02*
X383000D01*
X375000Y377000D02*
X377000Y375000D01*
Y365000D02*
X383000D01*
X377000Y375000D02*
X383000D01*
X385000Y367000D02*
Y373000D01*
X375000Y367000D02*
Y373000D01*
X377000Y375000D01*
X383000D02*
X385000Y373000D01*
Y367000D02*
Y373000D01*
X383000Y365000D02*
X385000Y367000D01*
X377000Y365000D02*
X383000D01*
X375000Y367000D02*
X377000Y365000D01*
Y355000D02*
X383000D01*
X377000Y365000D02*
X383000D01*
X385000Y357000D02*
Y363000D01*
X375000Y357000D02*
Y363000D01*
X377000Y365000D01*
X383000D02*
X385000Y363000D01*
Y357000D02*
Y363000D01*
X383000Y355000D02*
X385000Y357000D01*
X377000Y355000D02*
X383000D01*
X375000Y357000D02*
X377000Y355000D01*
Y345000D02*
X383000D01*
X377000Y355000D02*
X383000D01*
X385000Y347000D02*
Y353000D01*
X375000Y347000D02*
Y353000D01*
X377000Y355000D01*
X383000D02*
X385000Y353000D01*
Y347000D02*
Y353000D01*
X383000Y345000D02*
X385000Y347000D01*
X377000Y345000D02*
X383000D01*
X375000Y347000D02*
X377000Y345000D01*
Y335000D02*
X383000D01*
X377000Y345000D02*
X383000D01*
X385000Y337000D02*
Y343000D01*
X375000Y337000D02*
Y343000D01*
X377000Y345000D01*
X383000D02*
X385000Y343000D01*
Y337000D02*
Y343000D01*
X383000Y335000D02*
X385000Y337000D01*
X377000Y335000D02*
X383000D01*
X375000Y337000D02*
X377000Y335000D01*
Y325000D02*
X383000D01*
X377000Y335000D02*
X383000D01*
X385000Y327000D02*
Y333000D01*
X375000Y327000D02*
Y333000D01*
X377000Y335000D01*
X383000D02*
X385000Y333000D01*
Y327000D02*
Y333000D01*
X383000Y325000D02*
X385000Y327000D01*
X377000Y325000D02*
X383000D01*
X375000Y327000D02*
X377000Y325000D01*
Y315000D02*
X383000D01*
X377000Y325000D02*
X383000D01*
X385000Y317000D02*
Y323000D01*
X375000Y317000D02*
Y323000D01*
X377000Y325000D01*
X383000D02*
X385000Y323000D01*
Y317000D02*
Y323000D01*
X383000Y315000D02*
X385000Y317000D01*
X377000Y315000D02*
X383000D01*
X375000Y317000D02*
X377000Y315000D01*
X132000Y472500D02*
X137500D01*
Y447500D02*
Y472500D01*
X122500Y447500D02*
X137500D01*
X122500D02*
Y472500D01*
X124932D01*
X128000D01*
X202000D02*
X207500D01*
Y447500D02*
Y472500D01*
X192500Y447500D02*
X207500D01*
X192500D02*
Y472500D01*
X194932D01*
X198000D01*
X272000D02*
X277500D01*
Y447500D02*
Y472500D01*
X262500Y447500D02*
X277500D01*
X262500D02*
Y472500D01*
X264932D01*
X268000D01*
X342000D02*
X347500D01*
Y447500D02*
Y472500D01*
X332500Y447500D02*
X347500D01*
X332500D02*
Y472500D01*
X334932D01*
X338000D01*
X132000Y372500D02*
X137500D01*
Y347500D02*
Y372500D01*
X122500Y347500D02*
X137500D01*
X122500D02*
Y372500D01*
X124932D01*
X128000D01*
X342000D02*
X347500D01*
Y347500D02*
Y372500D01*
X332500Y347500D02*
X347500D01*
X332500D02*
Y372500D01*
X334932D01*
X338000D01*
X272000D02*
X277500D01*
Y347500D02*
Y372500D01*
X262500Y347500D02*
X277500D01*
X262500D02*
Y372500D01*
X264932D01*
X268000D01*
D49*
X264457Y149815D02*
X271445D01*
X271543Y149913D01*
Y164185D01*
X264457D02*
X271543D01*
X264457Y149815D02*
Y164185D01*
X279988Y180815D02*
Y195185D01*
X272901Y180815D02*
X279988D01*
X272901D02*
Y195087D01*
X273000Y195185D01*
X279988D01*
X307543Y180815D02*
Y195185D01*
X300457Y180815D02*
X307543D01*
X300457D02*
Y195087D01*
X300555Y195185D01*
X307543D01*
X306957Y149815D02*
X313945D01*
X314043Y149913D01*
Y164185D01*
X306957D02*
X314043D01*
X306957Y149815D02*
Y164185D01*
M02*
