%FSLAX25Y25*%
%MOIN*%
G70*
G01*
G75*
G04 Layer_Color=32896*
%ADD10R,0.03937X0.04331*%
%ADD11R,0.33622X0.21063*%
%ADD12R,0.12047X0.03504*%
%ADD13R,0.05906X0.01598*%
%ADD14R,0.01598X0.05906*%
%ADD15R,0.05906X0.05118*%
%ADD16R,0.11024X0.03740*%
%ADD17R,0.05906X0.02362*%
%ADD18R,0.03347X0.05512*%
%ADD19R,0.04724X0.13780*%
%ADD20O,0.02165X0.05906*%
%ADD21R,0.02165X0.05906*%
%ADD22R,0.05118X0.04528*%
%ADD23R,0.03937X0.01378*%
%ADD24R,0.05512X0.03347*%
%ADD25R,0.05118X0.05906*%
%ADD26C,0.01000*%
%ADD27R,0.06496X0.06496*%
%ADD28C,0.06496*%
G04:AMPARAMS|DCode=29|XSize=60mil|YSize=85mil|CornerRadius=0mil|HoleSize=0mil|Usage=FLASHONLY|Rotation=90.000|XOffset=0mil|YOffset=0mil|HoleType=Round|Shape=Octagon|*
%AMOCTAGOND29*
4,1,8,-0.04250,-0.01500,-0.04250,0.01500,-0.02750,0.03000,0.02750,0.03000,0.04250,0.01500,0.04250,-0.01500,0.02750,-0.03000,-0.02750,-0.03000,-0.04250,-0.01500,0.0*
%
%ADD29OCTAGOND29*%

G04:AMPARAMS|DCode=30|XSize=60mil|YSize=85mil|CornerRadius=0mil|HoleSize=0mil|Usage=FLASHONLY|Rotation=180.000|XOffset=0mil|YOffset=0mil|HoleType=Round|Shape=Octagon|*
%AMOCTAGOND30*
4,1,8,0.01500,-0.04250,-0.01500,-0.04250,-0.03000,-0.02750,-0.03000,0.02750,-0.01500,0.04250,0.01500,0.04250,0.03000,0.02750,0.03000,-0.02750,0.01500,-0.04250,0.0*
%
%ADD30OCTAGOND30*%

%ADD31C,0.03000*%
%ADD32C,0.08000*%
%ADD33C,0.05000*%
%ADD34C,0.40000*%
%ADD35C,0.10000*%
%ADD36C,0.04000*%
%ADD37C,0.07937*%
%ADD38C,0.07500*%
%ADD39C,0.05500*%
%ADD40C,0.09000*%
%ADD41C,0.30000*%
%ADD42C,0.09500*%
%ADD43R,0.38000X0.34000*%
%ADD44C,0.06800*%
%ADD45C,0.00984*%
%ADD46C,0.00787*%
%ADD47C,0.00500*%
%ADD48C,0.00800*%
%ADD49C,0.00700*%
%ADD50R,0.04737X0.05131*%
%ADD51R,0.34422X0.21863*%
%ADD52R,0.12847X0.04304*%
%ADD53R,0.06706X0.02398*%
%ADD54R,0.02398X0.06706*%
%ADD55R,0.06706X0.05918*%
%ADD56R,0.11824X0.04540*%
%ADD57R,0.06706X0.03162*%
%ADD58R,0.04147X0.06312*%
%ADD59R,0.05524X0.14579*%
%ADD60O,0.02965X0.06706*%
%ADD61R,0.02965X0.06706*%
%ADD62R,0.05918X0.05328*%
%ADD63R,0.04737X0.02178*%
%ADD64R,0.06312X0.04147*%
%ADD65R,0.05918X0.06706*%
%ADD66R,0.07296X0.07296*%
%ADD67C,0.07296*%
G04:AMPARAMS|DCode=68|XSize=68mil|YSize=93mil|CornerRadius=0mil|HoleSize=0mil|Usage=FLASHONLY|Rotation=90.000|XOffset=0mil|YOffset=0mil|HoleType=Round|Shape=Octagon|*
%AMOCTAGOND68*
4,1,8,-0.04650,-0.01700,-0.04650,0.01700,-0.02950,0.03400,0.02950,0.03400,0.04650,0.01700,0.04650,-0.01700,0.02950,-0.03400,-0.02950,-0.03400,-0.04650,-0.01700,0.0*
%
%ADD68OCTAGOND68*%

G04:AMPARAMS|DCode=69|XSize=68mil|YSize=93mil|CornerRadius=0mil|HoleSize=0mil|Usage=FLASHONLY|Rotation=180.000|XOffset=0mil|YOffset=0mil|HoleType=Round|Shape=Octagon|*
%AMOCTAGOND69*
4,1,8,0.01700,-0.04650,-0.01700,-0.04650,-0.03400,-0.02950,-0.03400,0.02950,-0.01700,0.04650,0.01700,0.04650,0.03400,0.02950,0.03400,-0.02950,0.01700,-0.04650,0.0*
%
%ADD69OCTAGOND69*%

%ADD70C,0.03800*%
%ADD71C,0.08800*%
%ADD72C,0.05800*%
%ADD73C,0.40800*%
%ADD74C,0.10800*%
G36*
X326871Y137647D02*
X327018Y137627D01*
X327164Y137588D01*
X327310Y137549D01*
X327564Y137432D01*
X327691Y137373D01*
X327798Y137305D01*
X327896Y137237D01*
X327984Y137178D01*
X328062Y137119D01*
X328130Y137061D01*
X328179Y137022D01*
X328218Y136983D01*
X328238Y136963D01*
X328247Y136954D01*
X328345Y136837D01*
X328443Y136710D01*
X328530Y136573D01*
X328608Y136427D01*
X328745Y136124D01*
X328862Y135821D01*
X328911Y135685D01*
X328950Y135548D01*
X328979Y135431D01*
X329009Y135324D01*
X329028Y135236D01*
X329048Y135177D01*
X329057Y135138D01*
Y135119D01*
X329184Y134494D01*
X329331D01*
X329526Y134484D01*
X329682Y134475D01*
X329819Y134455D01*
X329916Y134426D01*
X329985Y134397D01*
X330033Y134377D01*
X330063Y134367D01*
X330072Y134357D01*
X330131Y134299D01*
X330190Y134211D01*
X330229Y134104D01*
X330268Y134006D01*
X330297Y133908D01*
X330316Y133821D01*
X330336Y133762D01*
Y133752D01*
Y133743D01*
X330170Y133840D01*
X330004Y133908D01*
X329838Y133957D01*
X329682Y133987D01*
X329555Y134016D01*
X329448Y134026D01*
X329282D01*
X329946Y130678D01*
X329985Y130453D01*
X330014Y130268D01*
X330033Y130112D01*
X330043Y129985D01*
X330053Y129887D01*
X330063Y129819D01*
Y129780D01*
Y129770D01*
X330053Y129653D01*
X330014Y129565D01*
X329965Y129497D01*
X329907Y129458D01*
X329848Y129429D01*
X329799Y129419D01*
X329760Y129409D01*
X329750D01*
X329663Y129419D01*
X329575Y129429D01*
X329380Y129477D01*
X329292Y129497D01*
X329223Y129516D01*
X329184Y129526D01*
X329165Y129536D01*
X329223Y129682D01*
X329253Y129809D01*
Y129868D01*
X329262Y129907D01*
Y129936D01*
Y129946D01*
Y130083D01*
X329253Y130219D01*
X329233Y130356D01*
X329214Y130492D01*
X329204Y130600D01*
X329184Y130688D01*
X329175Y130746D01*
Y130756D01*
Y130766D01*
X328521Y134026D01*
X327057D01*
X326920Y134035D01*
X326793D01*
X326686Y134045D01*
X326643Y134049D01*
X326647Y134045D01*
X326744Y133918D01*
X326822Y133791D01*
X326891Y133665D01*
X326949Y133538D01*
X327008Y133411D01*
X327076Y133167D01*
X327105Y133059D01*
X327125Y132962D01*
X327135Y132874D01*
X327145Y132796D01*
X327154Y132737D01*
Y132688D01*
Y132659D01*
Y132649D01*
X327145Y132503D01*
X327135Y132366D01*
X327076Y132122D01*
X326998Y131908D01*
X326910Y131722D01*
X326822Y131576D01*
X326783Y131517D01*
X326754Y131468D01*
X326715Y131429D01*
X326695Y131400D01*
X326686Y131390D01*
X326676Y131381D01*
X326578Y131293D01*
X326481Y131225D01*
X326383Y131156D01*
X326276Y131107D01*
X326071Y131019D01*
X325876Y130961D01*
X325700Y130932D01*
X325632Y130922D01*
X325563Y130912D01*
X325505Y130902D01*
X325436D01*
X325251Y130912D01*
X325075Y130941D01*
X324900Y130981D01*
X324744Y131029D01*
X324587Y131088D01*
X324441Y131156D01*
X324304Y131234D01*
X324187Y131312D01*
X324080Y131381D01*
X323973Y131459D01*
X323894Y131527D01*
X323816Y131586D01*
X323767Y131634D01*
X323719Y131673D01*
X323699Y131703D01*
X323689Y131712D01*
X323553Y131869D01*
X323445Y132035D01*
X323338Y132191D01*
X323250Y132357D01*
X323182Y132523D01*
X323123Y132679D01*
X323075Y132835D01*
X323036Y132981D01*
X322996Y133108D01*
X322977Y133235D01*
X322957Y133342D01*
X322948Y133440D01*
X322938Y133518D01*
Y133577D01*
Y133616D01*
Y133625D01*
Y133684D01*
X322948Y133733D01*
X322957Y133772D01*
Y133791D01*
X322762Y133733D01*
X322577Y133694D01*
X322411Y133655D01*
X322274Y133635D01*
X322157Y133625D01*
X322069Y133616D01*
X321991D01*
X321874Y133625D01*
X321757Y133635D01*
X321533Y133684D01*
X321318Y133752D01*
X321242Y133784D01*
X321249Y133733D01*
X321279Y133528D01*
X321308Y133342D01*
X321327Y133264D01*
X321337Y133196D01*
X321347Y133137D01*
X321357Y133098D01*
X321367Y133069D01*
Y133059D01*
X321562Y132113D01*
X321581Y131986D01*
X321601Y131878D01*
X321620Y131771D01*
X321630Y131683D01*
X321650Y131595D01*
X321659Y131527D01*
X321669Y131420D01*
X321679Y131332D01*
X321689Y131283D01*
Y131254D01*
Y131244D01*
X321669Y131127D01*
X321630Y131049D01*
X321571Y130990D01*
X321493Y130941D01*
X321425Y130922D01*
X321367Y130912D01*
X321327Y130902D01*
X321308D01*
X321249Y130912D01*
X321171Y130922D01*
X321035Y130961D01*
X320976Y130981D01*
X320927Y131000D01*
X320898Y131019D01*
X320888D01*
Y131088D01*
X320869Y131215D01*
X320830Y131361D01*
X320781Y131517D01*
X320713Y131673D01*
X320654Y131820D01*
X320596Y131937D01*
X320576Y131976D01*
X320556Y132015D01*
X320547Y132035D01*
Y132044D01*
X320410Y132298D01*
X320273Y132542D01*
X320147Y132767D01*
X320020Y132962D01*
X319912Y133128D01*
X319864Y133196D01*
X319825Y133255D01*
X319795Y133303D01*
X319766Y133333D01*
X319756Y133352D01*
X319746Y133362D01*
X319610Y133547D01*
X319473Y133703D01*
X319356Y133840D01*
X319239Y133957D01*
X319131Y134065D01*
X319024Y134143D01*
X318936Y134211D01*
X318848Y134270D01*
X318770Y134309D01*
X318712Y134338D01*
X318653Y134367D01*
X318604Y134377D01*
X318565Y134387D01*
X318536Y134397D01*
X318517D01*
X318419Y134387D01*
X318341Y134348D01*
X318263Y134299D01*
X318204Y134250D01*
X318165Y134192D01*
X318136Y134143D01*
X318116Y134104D01*
X318107Y134094D01*
X317999Y134172D01*
X317912Y134250D01*
X317833Y134318D01*
X317765Y134387D01*
X317707Y134455D01*
X317668Y134514D01*
X317589Y134611D01*
X317550Y134689D01*
X317531Y134748D01*
X317521Y134787D01*
Y134797D01*
X317531Y134855D01*
X317541Y134914D01*
X317599Y135011D01*
X317614Y135029D01*
X317599Y135031D01*
X316887D01*
X317062Y134387D01*
X317131Y134143D01*
X317189Y133918D01*
X317238Y133713D01*
X317277Y133518D01*
X317316Y133333D01*
X317345Y133167D01*
X317365Y133011D01*
X317385Y132874D01*
X317404Y132757D01*
X317414Y132649D01*
X317424Y132562D01*
Y132493D01*
X317433Y132435D01*
Y132386D01*
Y132366D01*
Y132357D01*
X317424Y132122D01*
X317385Y131917D01*
X317345Y131742D01*
X317287Y131586D01*
X317238Y131468D01*
X317189Y131381D01*
X317160Y131322D01*
X317150Y131303D01*
X317033Y131166D01*
X316916Y131068D01*
X316789Y131000D01*
X316672Y130951D01*
X316565Y130922D01*
X316487Y130912D01*
X316428Y130902D01*
X316408D01*
X316311Y130912D01*
X316213Y130922D01*
X316008Y130971D01*
X315823Y131039D01*
X315647Y131127D01*
X315491Y131205D01*
X315423Y131244D01*
X315374Y131273D01*
X315325Y131303D01*
X315296Y131322D01*
X315276Y131342D01*
X315267D01*
X315159Y131429D01*
X315062Y131508D01*
X314974Y131586D01*
X314905Y131664D01*
X314847Y131732D01*
X314798Y131800D01*
X314720Y131917D01*
X314671Y132025D01*
X314652Y132093D01*
X314642Y132142D01*
Y132161D01*
X314661Y132279D01*
X314691Y132386D01*
X314710Y132425D01*
X314720Y132464D01*
X314739Y132483D01*
Y132493D01*
X314808Y132366D01*
X314896Y132249D01*
X314984Y132142D01*
X315081Y132044D01*
X315159Y131966D01*
X315228Y131908D01*
X315276Y131869D01*
X315296Y131859D01*
X315433Y131771D01*
X315569Y131703D01*
X315686Y131654D01*
X315794Y131625D01*
X315872Y131605D01*
X315940Y131586D01*
X315999D01*
X316106Y131595D01*
X316203Y131625D01*
X316291Y131664D01*
X316369Y131722D01*
X316428Y131791D01*
X316477Y131869D01*
X316555Y132025D01*
X316604Y132191D01*
X316613Y132259D01*
X316623Y132327D01*
X316633Y132386D01*
Y132425D01*
Y132454D01*
Y132464D01*
X316623Y132620D01*
X316613Y132796D01*
X316594Y132981D01*
X316555Y133177D01*
X316487Y133567D01*
X316399Y133948D01*
X316350Y134133D01*
X316311Y134299D01*
X316272Y134445D01*
X316233Y134582D01*
X316203Y134689D01*
X316184Y134767D01*
X316174Y134816D01*
X316164Y134836D01*
X316155Y134894D01*
X316135Y134963D01*
X316125Y135011D01*
X316116Y135021D01*
Y135031D01*
X313978D01*
X313832Y135041D01*
X313705Y135050D01*
X313607Y135070D01*
X313520Y135089D01*
X313461Y135109D01*
X313422Y135128D01*
X313402Y135148D01*
X313393D01*
X313334Y135207D01*
X313285Y135275D01*
X313246Y135363D01*
X313207Y135451D01*
X313178Y135529D01*
X313158Y135597D01*
X313139Y135636D01*
Y135655D01*
X313256Y135607D01*
X313383Y135577D01*
X313520Y135548D01*
X313646Y135538D01*
X313763Y135529D01*
X313861Y135519D01*
X315940D01*
X315881Y135685D01*
X315823Y135831D01*
X315764Y135968D01*
X315716Y136095D01*
X315657Y136212D01*
X315608Y136319D01*
X315559Y136417D01*
X315511Y136495D01*
X315472Y136563D01*
X315433Y136632D01*
X315403Y136680D01*
X315374Y136729D01*
X315335Y136778D01*
X315325Y136797D01*
X315403Y136807D01*
X315511D01*
X315686Y136797D01*
X315833Y136768D01*
X315960Y136739D01*
X316067Y136700D01*
X316145Y136651D01*
X316203Y136622D01*
X316243Y136592D01*
X316252Y136583D01*
X316340Y136485D01*
X316418Y136368D01*
X316496Y136231D01*
X316555Y136095D01*
X316604Y135968D01*
X316643Y135870D01*
X316652Y135831D01*
X316662Y135802D01*
X316672Y135782D01*
Y135773D01*
X316740Y135519D01*
X317433D01*
X317541Y135499D01*
X317619Y135490D01*
X317687Y135470D01*
X317736Y135451D01*
X317775Y135431D01*
X317794Y135421D01*
X317804Y135412D01*
X317863Y135363D01*
X317921Y135294D01*
X317980Y135216D01*
X317983Y135212D01*
X317999Y135216D01*
X318038D01*
X318156Y135207D01*
X318263Y135187D01*
X318380Y135148D01*
X318497Y135099D01*
X318722Y134972D01*
X318927Y134826D01*
X319102Y134679D01*
X319180Y134621D01*
X319239Y134562D01*
X319297Y134504D01*
X319337Y134465D01*
X319356Y134445D01*
X319366Y134435D01*
X319502Y134289D01*
X319639Y134123D01*
X319893Y133772D01*
X320137Y133411D01*
X320352Y133059D01*
X320449Y132903D01*
X320537Y132747D01*
X320615Y132620D01*
X320674Y132503D01*
X320732Y132405D01*
X320771Y132327D01*
X320791Y132288D01*
X320800Y132269D01*
X320586Y133372D01*
X320547Y133528D01*
X320517Y133674D01*
X320498Y133801D01*
X320469Y133918D01*
X320449Y134026D01*
X320439Y134113D01*
X320430Y134192D01*
X320410Y134260D01*
Y134309D01*
X320400Y134357D01*
X320391Y134426D01*
Y134465D01*
Y134475D01*
X320400Y134592D01*
X320430Y134670D01*
X320478Y134728D01*
X320527Y134777D01*
X320576Y134797D01*
X320625Y134806D01*
X320654Y134816D01*
X320664D01*
X320761Y134806D01*
X320869Y134797D01*
X320986Y134767D01*
X321083Y134748D01*
X321181Y134719D01*
X321249Y134689D01*
X321298Y134679D01*
X321318Y134670D01*
X321279Y134611D01*
X321240Y134553D01*
X321210Y134435D01*
X321201Y134387D01*
X321191Y134348D01*
Y134318D01*
Y134309D01*
Y134231D01*
X321191Y134228D01*
X321318Y134182D01*
X321474Y134133D01*
X321620Y134104D01*
X321737Y134084D01*
X321825Y134065D01*
X321903D01*
X322157Y134084D01*
X322401Y134133D01*
X322626Y134192D01*
X322821Y134270D01*
X322987Y134348D01*
X323055Y134377D01*
X323114Y134406D01*
X323162Y134435D01*
X323192Y134455D01*
X323211Y134475D01*
X323221D01*
X323338Y134631D01*
X323465Y134767D01*
X323592Y134885D01*
X323719Y134992D01*
X323855Y135089D01*
X323982Y135168D01*
X324109Y135226D01*
X324226Y135285D01*
X324343Y135324D01*
X324441Y135363D01*
X324539Y135382D01*
X324617Y135402D01*
X324685Y135421D01*
X324734Y135431D01*
X324773D01*
X324812Y135363D01*
X324841Y135304D01*
X324870Y135187D01*
X324880Y135148D01*
X324890Y135109D01*
Y135089D01*
Y135080D01*
X324880Y134982D01*
X324841Y134894D01*
X324831Y134845D01*
X324812Y134816D01*
X324802Y134797D01*
Y134787D01*
X324900Y134806D01*
X324988Y134826D01*
X325075D01*
X325232Y134816D01*
X325378Y134797D01*
X325524Y134767D01*
X325661Y134728D01*
X325905Y134621D01*
X326022Y134562D01*
X326045Y134549D01*
X326159Y134533D01*
X326383Y134514D01*
X326598Y134504D01*
X326793D01*
X326881Y134494D01*
X328433D01*
X328257Y135333D01*
X328218Y135499D01*
X328179Y135665D01*
X328140Y135812D01*
X328101Y135948D01*
X328003Y136202D01*
X327906Y136417D01*
X327808Y136602D01*
X327701Y136749D01*
X327603Y136875D01*
X327506Y136973D01*
X327408Y137051D01*
X327320Y137110D01*
X327242Y137149D01*
X327164Y137178D01*
X327105Y137198D01*
X327066Y137207D01*
X327027D01*
X326940Y137198D01*
X326861Y137178D01*
X326783Y137149D01*
X326725Y137119D01*
X326617Y137022D01*
X326530Y136915D01*
X326471Y136807D01*
X326432Y136710D01*
X326422Y136680D01*
X326413Y136651D01*
X326403Y136632D01*
Y136622D01*
X326315Y136671D01*
X326237Y136729D01*
X326178Y136778D01*
X326120Y136817D01*
X326032Y136905D01*
X325973Y136983D01*
X325944Y137041D01*
X325924Y137090D01*
X325915Y137119D01*
Y137129D01*
X325924Y137207D01*
X325954Y137276D01*
X325993Y137344D01*
X326032Y137393D01*
X326071Y137442D01*
X326110Y137471D01*
X326139Y137490D01*
X326149Y137500D01*
X326237Y137549D01*
X326334Y137588D01*
X326432Y137617D01*
X326520Y137637D01*
X326598Y137647D01*
X326657Y137656D01*
X326715D01*
X326871Y137647D01*
D02*
G37*
G36*
X353653Y135294D02*
X353780Y135207D01*
X353887Y135109D01*
X353984Y135011D01*
X354063Y134914D01*
X354131Y134816D01*
X354189Y134728D01*
X354228Y134631D01*
X354287Y134475D01*
X354307Y134397D01*
X354326Y134338D01*
Y134289D01*
X354336Y134250D01*
Y134231D01*
Y134221D01*
X354326Y134123D01*
X354321Y134067D01*
X354443Y133860D01*
X354560Y133665D01*
X354677Y133479D01*
X354795Y133303D01*
X354902Y133137D01*
X355009Y132991D01*
X355117Y132854D01*
X355224Y132728D01*
X355322Y132610D01*
X355409Y132503D01*
X355507Y132415D01*
X355673Y132249D01*
X355829Y132113D01*
X355966Y132005D01*
X356093Y131937D01*
X356200Y131878D01*
X356288Y131839D01*
X356356Y131820D01*
X356405Y131810D01*
X356434Y131800D01*
X356444D01*
X356512Y131810D01*
X356581Y131839D01*
X356629Y131878D01*
X356678Y131927D01*
X356747Y132064D01*
X356795Y132220D01*
X356825Y132366D01*
X356834Y132503D01*
X356844Y132552D01*
Y132591D01*
Y132620D01*
Y132630D01*
X356834Y132835D01*
X356825Y133040D01*
X356805Y133245D01*
X356786Y133421D01*
X356766Y133577D01*
X356756Y133635D01*
X356747Y133694D01*
X356737Y133743D01*
X356727Y133772D01*
Y133791D01*
Y133801D01*
X356688Y133987D01*
X356668Y134074D01*
X356649Y134172D01*
X356639Y134211D01*
X356629Y134250D01*
X356620Y134270D01*
Y134279D01*
X356600Y134367D01*
X356581Y134435D01*
X356561Y134494D01*
X356551Y134533D01*
Y134553D01*
X356542Y134572D01*
Y134582D01*
X356522Y134660D01*
X356503Y134719D01*
X356493Y134767D01*
X356483Y134806D01*
Y134836D01*
X356473Y134855D01*
Y134865D01*
X356454Y134924D01*
X356434Y134972D01*
Y135002D01*
Y135011D01*
X356444Y135080D01*
X356483Y135128D01*
X356542Y135168D01*
X356600Y135187D01*
X356668Y135207D01*
X356717Y135216D01*
X356776D01*
X356951Y135207D01*
X357039Y135187D01*
X357117Y135177D01*
X357195Y135158D01*
X357254Y135138D01*
X357293Y135128D01*
X357303D01*
X357274Y135070D01*
X357264Y135021D01*
X357254Y134982D01*
Y134972D01*
X357264Y134865D01*
X357283Y134738D01*
X357332Y134601D01*
X357381Y134455D01*
X357508Y134152D01*
X357654Y133860D01*
X357732Y133713D01*
X357801Y133577D01*
X357869Y133459D01*
X357927Y133352D01*
X357976Y133264D01*
X358015Y133206D01*
X358045Y133167D01*
X358054Y133147D01*
X358230Y132874D01*
X358406Y132630D01*
X358562Y132425D01*
X358718Y132249D01*
X358864Y132093D01*
X358991Y131966D01*
X359118Y131869D01*
X359226Y131781D01*
X359323Y131712D01*
X359411Y131664D01*
X359489Y131634D01*
X359548Y131615D01*
X359596Y131595D01*
X359635Y131586D01*
X359665D01*
X359733Y131595D01*
X359792Y131605D01*
X359840Y131634D01*
X359889Y131673D01*
X359948Y131761D01*
X359997Y131869D01*
X360026Y131966D01*
X360036Y132054D01*
X360045Y132093D01*
Y132122D01*
Y132132D01*
Y132142D01*
X360036Y132288D01*
X360016Y132464D01*
X359997Y132640D01*
X359958Y132806D01*
X359928Y132962D01*
X359919Y133030D01*
X359909Y133089D01*
X359899Y133137D01*
X359889Y133177D01*
X359879Y133196D01*
Y133206D01*
X359821Y133430D01*
X359811Y133469D01*
X359801Y133518D01*
X359772Y133625D01*
X359753Y133674D01*
X359743Y133713D01*
X359733Y133743D01*
Y133752D01*
X359694Y133889D01*
X359655Y134016D01*
X359626Y134123D01*
X359596Y134221D01*
X359577Y134309D01*
X359557Y134387D01*
X359538Y134455D01*
X359528Y134514D01*
X359509Y134592D01*
X359499Y134650D01*
Y134679D01*
Y134689D01*
X359518Y134777D01*
X359557Y134845D01*
X359606Y134885D01*
X359675Y134924D01*
X359743Y134943D01*
X359792Y134953D01*
X359850D01*
X360377Y134943D01*
X360329Y134855D01*
X360309Y134777D01*
X360299Y134719D01*
Y134709D01*
Y134699D01*
Y134641D01*
X360319Y134562D01*
X360338Y134475D01*
X360358Y134387D01*
X360377Y134299D01*
X360397Y134221D01*
X360407Y134172D01*
X360416Y134162D01*
Y134152D01*
X360453Y133997D01*
X360553Y133850D01*
X360690Y133645D01*
X360826Y133450D01*
X360953Y133274D01*
X361080Y133108D01*
X361197Y132952D01*
X361314Y132815D01*
X361422Y132688D01*
X361509Y132581D01*
X361597Y132483D01*
X361666Y132405D01*
X361724Y132337D01*
X361763Y132298D01*
X361792Y132269D01*
X361802Y132259D01*
X361949Y132122D01*
X362075Y131995D01*
X362212Y131888D01*
X362329Y131800D01*
X362437Y131722D01*
X362544Y131664D01*
X362642Y131605D01*
X362720Y131566D01*
X362866Y131508D01*
X362925Y131498D01*
X362973Y131478D01*
X363013D01*
X363042Y131468D01*
X363061D01*
X363130Y131478D01*
X363188Y131488D01*
X363286Y131547D01*
X363354Y131615D01*
X363403Y131703D01*
X363432Y131791D01*
X363442Y131869D01*
X363452Y131917D01*
Y131927D01*
Y131937D01*
X363442Y132015D01*
X363432Y132113D01*
X363413Y132230D01*
X363393Y132347D01*
X363374Y132454D01*
X363364Y132542D01*
X363354Y132581D01*
X363344Y132610D01*
Y132620D01*
Y132630D01*
X363208Y133372D01*
X363169Y133567D01*
X363139Y133733D01*
X363120Y133879D01*
X363100Y133996D01*
Y134094D01*
X363091Y134152D01*
Y134201D01*
Y134211D01*
X363100Y134338D01*
X363130Y134435D01*
X363178Y134504D01*
X363227Y134553D01*
X363286Y134582D01*
X363325Y134592D01*
X363364Y134601D01*
X363432D01*
X363520Y134582D01*
X363627Y134562D01*
X363735Y134543D01*
X363832Y134523D01*
X363920Y134504D01*
X363979Y134494D01*
X363988Y134484D01*
X363998D01*
X363949Y134426D01*
X363920Y134377D01*
X363881Y134260D01*
X363871Y134211D01*
X363862Y134172D01*
Y134143D01*
Y134133D01*
Y134055D01*
X363871Y133977D01*
X363891Y133782D01*
X363920Y133577D01*
X363949Y133362D01*
X363988Y133167D01*
X364008Y133089D01*
X364018Y133011D01*
X364028Y132952D01*
X364037Y132903D01*
X364047Y132874D01*
Y132864D01*
X364135Y132445D01*
X364154Y132318D01*
X364174Y132201D01*
X364184Y132113D01*
X364193Y132035D01*
X364203Y131976D01*
Y131937D01*
Y131917D01*
Y131908D01*
X364193Y131742D01*
X364164Y131595D01*
X364125Y131478D01*
X364076Y131371D01*
X364028Y131283D01*
X363988Y131225D01*
X363959Y131185D01*
X363949Y131176D01*
X363842Y131088D01*
X363735Y131019D01*
X363618Y130971D01*
X363510Y130941D01*
X363413Y130922D01*
X363335Y130902D01*
X363266D01*
X363130Y130912D01*
X362993Y130941D01*
X362856Y130981D01*
X362720Y131029D01*
X362583Y131098D01*
X362456Y131166D01*
X362212Y131322D01*
X362105Y131400D01*
X361997Y131478D01*
X361910Y131547D01*
X361831Y131615D01*
X361773Y131664D01*
X361724Y131703D01*
X361695Y131732D01*
X361685Y131742D01*
X361519Y131908D01*
X361353Y132083D01*
X361041Y132474D01*
X360748Y132864D01*
X360686Y132954D01*
X360690Y132932D01*
X360719Y132747D01*
X360748Y132591D01*
X360768Y132454D01*
X360787Y132327D01*
X360797Y132220D01*
X360807Y132132D01*
Y132064D01*
X360817Y132015D01*
Y131976D01*
Y131957D01*
Y131947D01*
X360807Y131781D01*
X360777Y131634D01*
X360738Y131498D01*
X360690Y131390D01*
X360641Y131303D01*
X360602Y131234D01*
X360573Y131195D01*
X360563Y131185D01*
X360455Y131088D01*
X360348Y131019D01*
X360231Y130971D01*
X360123Y130941D01*
X360036Y130922D01*
X359958Y130902D01*
X359889D01*
X359792Y130912D01*
X359694Y130932D01*
X359587Y130961D01*
X359489Y131010D01*
X359294Y131117D01*
X359118Y131244D01*
X358962Y131361D01*
X358894Y131420D01*
X358835Y131468D01*
X358786Y131517D01*
X358757Y131547D01*
X358738Y131566D01*
X358728Y131576D01*
X358494Y131849D01*
X358269Y132132D01*
X358074Y132425D01*
X357898Y132708D01*
X357820Y132835D01*
X357752Y132952D01*
X357693Y133059D01*
X357645Y133157D01*
X357605Y133225D01*
X357576Y133284D01*
X357566Y133323D01*
X357557Y133333D01*
X357566Y133177D01*
Y133040D01*
Y132923D01*
X357576Y132815D01*
Y132737D01*
Y132669D01*
Y132630D01*
Y132620D01*
X357566Y132357D01*
X357537Y132122D01*
X357498Y131927D01*
X357439Y131752D01*
X357381Y131605D01*
X357303Y131488D01*
X357225Y131381D01*
X357147Y131303D01*
X357069Y131244D01*
X356991Y131195D01*
X356912Y131166D01*
X356854Y131137D01*
X356795Y131127D01*
X356756Y131117D01*
X356717D01*
X356600Y131127D01*
X356473Y131146D01*
X356346Y131195D01*
X356229Y131244D01*
X356102Y131312D01*
X355976Y131390D01*
X355849Y131488D01*
X355732Y131586D01*
X355487Y131810D01*
X355253Y132064D01*
X355019Y132327D01*
X354804Y132610D01*
X354609Y132893D01*
X354433Y133157D01*
X354268Y133411D01*
X354167Y133576D01*
X354160Y133557D01*
X354063Y133333D01*
X353965Y133137D01*
X353916Y133050D01*
X353877Y132972D01*
X353838Y132913D01*
X353809Y132864D01*
X353799Y132835D01*
X353789Y132825D01*
X353487Y132337D01*
X353643Y132259D01*
X353789Y132191D01*
X353926Y132113D01*
X354043Y132044D01*
X354160Y131986D01*
X354258Y131927D01*
X354355Y131869D01*
X354433Y131820D01*
X354502Y131771D01*
X354560Y131732D01*
X354609Y131703D01*
X354658Y131673D01*
X354707Y131625D01*
X354726Y131615D01*
X354843Y131498D01*
X354931Y131390D01*
X354999Y131293D01*
X355039Y131195D01*
X355068Y131117D01*
X355078Y131059D01*
X355087Y131019D01*
Y131010D01*
X355078Y130912D01*
X355048Y130824D01*
X354999Y130746D01*
X354951Y130678D01*
X354912Y130629D01*
X354863Y130590D01*
X354834Y130561D01*
X354824Y130551D01*
X354716Y130483D01*
X354609Y130434D01*
X354492Y130395D01*
X354394Y130375D01*
X354307Y130356D01*
X354228Y130346D01*
X354170D01*
X354053Y130356D01*
X353936Y130366D01*
X353711Y130414D01*
X353526Y130483D01*
X353350Y130561D01*
X353213Y130639D01*
X353116Y130707D01*
X353077Y130736D01*
X353047Y130756D01*
X353038Y130775D01*
X353028D01*
X352940Y130854D01*
X352862Y130941D01*
X352803Y131029D01*
X352745Y131117D01*
X352657Y131283D01*
X352599Y131439D01*
X352569Y131576D01*
X352550Y131683D01*
X352540Y131722D01*
Y131752D01*
Y131771D01*
Y131781D01*
X352550Y131878D01*
X352559Y131976D01*
X352579Y132074D01*
X352608Y132161D01*
X352638Y132230D01*
X352657Y132288D01*
X352667Y132327D01*
X352677Y132337D01*
X352433Y132474D01*
X352208Y132630D01*
X351993Y132776D01*
X351788Y132932D01*
X351593Y133089D01*
X351418Y133235D01*
X351261Y133381D01*
X351115Y133528D01*
X350978Y133655D01*
X350871Y133782D01*
X350773Y133889D01*
X350686Y133977D01*
X350627Y134055D01*
X350578Y134113D01*
X350549Y134152D01*
X350539Y134162D01*
X350851Y134348D01*
X351047Y134123D01*
X351232Y133928D01*
X351388Y133762D01*
X351525Y133625D01*
X351632Y133528D01*
X351710Y133450D01*
X351759Y133411D01*
X351779Y133391D01*
X351935Y133274D01*
X352101Y133147D01*
X352286Y133020D01*
X352462Y132903D01*
X352628Y132806D01*
X352696Y132757D01*
X352755Y132728D01*
X352803Y132688D01*
X352843Y132669D01*
X352862Y132659D01*
X352872Y132649D01*
X353204Y133264D01*
X353633Y134065D01*
X353516Y134143D01*
X353418Y134211D01*
X353331Y134289D01*
X353262Y134357D01*
X353194Y134426D01*
X353145Y134494D01*
X353067Y134621D01*
X353018Y134728D01*
X352999Y134816D01*
X352989Y134865D01*
Y134885D01*
X352999Y134943D01*
X353009Y134992D01*
X353067Y135089D01*
X353155Y135168D01*
X353243Y135246D01*
X353340Y135304D01*
X353428Y135343D01*
X353487Y135372D01*
X353497Y135382D01*
X353506D01*
X353653Y135294D01*
D02*
G37*
G36*
X426365Y137647D02*
X426511Y137627D01*
X426657Y137588D01*
X426804Y137549D01*
X427058Y137432D01*
X427184Y137373D01*
X427292Y137305D01*
X427389Y137237D01*
X427477Y137178D01*
X427555Y137119D01*
X427624Y137061D01*
X427672Y137022D01*
X427711Y136983D01*
X427731Y136963D01*
X427741Y136954D01*
X427838Y136837D01*
X427936Y136710D01*
X428024Y136573D01*
X428102Y136427D01*
X428239Y136124D01*
X428356Y135821D01*
X428405Y135685D01*
X428443Y135548D01*
X428473Y135431D01*
X428502Y135324D01*
X428522Y135236D01*
X428541Y135177D01*
X428551Y135138D01*
Y135119D01*
X428678Y134494D01*
X428824D01*
X429019Y134484D01*
X429176Y134475D01*
X429312Y134455D01*
X429410Y134426D01*
X429478Y134397D01*
X429527Y134377D01*
X429556Y134367D01*
X429566Y134357D01*
X429625Y134299D01*
X429683Y134211D01*
X429722Y134104D01*
X429761Y134006D01*
X429790Y133908D01*
X429810Y133821D01*
X429829Y133762D01*
Y133752D01*
Y133743D01*
X429664Y133840D01*
X429498Y133908D01*
X429332Y133957D01*
X429176Y133987D01*
X429049Y134016D01*
X428941Y134026D01*
X428775D01*
X429439Y130678D01*
X429478Y130453D01*
X429507Y130268D01*
X429527Y130112D01*
X429537Y129985D01*
X429546Y129887D01*
X429556Y129819D01*
Y129780D01*
Y129770D01*
X429546Y129653D01*
X429507Y129565D01*
X429459Y129497D01*
X429400Y129458D01*
X429341Y129429D01*
X429293Y129419D01*
X429254Y129409D01*
X429244D01*
X429156Y129419D01*
X429068Y129429D01*
X428873Y129477D01*
X428785Y129497D01*
X428717Y129516D01*
X428678Y129526D01*
X428658Y129536D01*
X428717Y129682D01*
X428746Y129809D01*
Y129868D01*
X428756Y129907D01*
Y129936D01*
Y129946D01*
Y130083D01*
X428746Y130219D01*
X428727Y130356D01*
X428707Y130492D01*
X428697Y130600D01*
X428678Y130688D01*
X428668Y130746D01*
Y130756D01*
Y130766D01*
X428014Y134026D01*
X426550D01*
X426413Y134035D01*
X426287D01*
X426179Y134045D01*
X426148Y134048D01*
X426199Y133967D01*
X426277Y133801D01*
X426345Y133645D01*
X426404Y133489D01*
X426452Y133333D01*
X426491Y133196D01*
X426521Y133059D01*
X426540Y132932D01*
X426560Y132825D01*
X426570Y132728D01*
Y132649D01*
X426579Y132591D01*
Y132552D01*
Y132542D01*
X426560Y132269D01*
X426521Y132035D01*
X426452Y131830D01*
X426384Y131654D01*
X426316Y131517D01*
X426248Y131420D01*
X426228Y131390D01*
X426208Y131361D01*
X426189Y131351D01*
Y131342D01*
X426111Y131263D01*
X426023Y131195D01*
X425847Y131088D01*
X425672Y131010D01*
X425496Y130961D01*
X425340Y130922D01*
X425272Y130912D01*
X425223D01*
X425174Y130902D01*
X425106D01*
X424901Y130912D01*
X424705Y130941D01*
X424501Y130990D01*
X424305Y131049D01*
X424110Y131117D01*
X423925Y131185D01*
X423749Y131273D01*
X423583Y131361D01*
X423427Y131439D01*
X423280Y131527D01*
X423163Y131595D01*
X423056Y131673D01*
X422968Y131722D01*
X422900Y131771D01*
X422861Y131800D01*
X422851Y131810D01*
X422636Y131986D01*
X422422Y132171D01*
X422226Y132357D01*
X422041Y132552D01*
X421875Y132747D01*
X421709Y132932D01*
X421563Y133118D01*
X421491Y133217D01*
X421494Y133196D01*
X421504Y133137D01*
X421514Y133098D01*
X421524Y133069D01*
Y133059D01*
X421719Y132113D01*
X421738Y131986D01*
X421758Y131878D01*
X421777Y131771D01*
X421787Y131683D01*
X421807Y131595D01*
X421816Y131527D01*
X421826Y131420D01*
X421836Y131332D01*
X421846Y131283D01*
Y131254D01*
Y131244D01*
X421826Y131127D01*
X421787Y131049D01*
X421729Y130990D01*
X421651Y130941D01*
X421582Y130922D01*
X421524Y130912D01*
X421485Y130902D01*
X421465D01*
X421407Y130912D01*
X421328Y130922D01*
X421192Y130961D01*
X421133Y130981D01*
X421084Y131000D01*
X421055Y131019D01*
X421045D01*
Y131088D01*
X421026Y131215D01*
X420987Y131361D01*
X420938Y131517D01*
X420870Y131673D01*
X420811Y131820D01*
X420753Y131937D01*
X420733Y131976D01*
X420714Y132015D01*
X420704Y132035D01*
Y132044D01*
X420567Y132298D01*
X420431Y132542D01*
X420304Y132767D01*
X420177Y132962D01*
X420069Y133128D01*
X420021Y133196D01*
X419982Y133255D01*
X419952Y133303D01*
X419923Y133333D01*
X419913Y133352D01*
X419904Y133362D01*
X419767Y133547D01*
X419630Y133703D01*
X419513Y133840D01*
X419396Y133957D01*
X419289Y134065D01*
X419181Y134143D01*
X419093Y134211D01*
X419006Y134270D01*
X418927Y134309D01*
X418869Y134338D01*
X418810Y134367D01*
X418762Y134377D01*
X418723Y134387D01*
X418693Y134397D01*
X418674D01*
X418576Y134387D01*
X418498Y134348D01*
X418420Y134299D01*
X418361Y134250D01*
X418322Y134192D01*
X418293Y134143D01*
X418274Y134104D01*
X418264Y134094D01*
X418156Y134172D01*
X418069Y134250D01*
X417991Y134318D01*
X417922Y134387D01*
X417864Y134455D01*
X417825Y134514D01*
X417747Y134611D01*
X417707Y134689D01*
X417688Y134748D01*
X417678Y134787D01*
Y134797D01*
X417688Y134855D01*
X417698Y134914D01*
X417756Y135011D01*
X417805Y135070D01*
X417825Y135080D01*
X417834Y135089D01*
X417893Y135128D01*
X417951Y135168D01*
X418069Y135197D01*
X418117Y135207D01*
X418156Y135216D01*
X418195D01*
X418313Y135207D01*
X418420Y135187D01*
X418537Y135148D01*
X418654Y135099D01*
X418879Y134972D01*
X419084Y134826D01*
X419259Y134679D01*
X419337Y134621D01*
X419396Y134562D01*
X419455Y134504D01*
X419494Y134465D01*
X419513Y134445D01*
X419523Y134435D01*
X419660Y134289D01*
X419796Y134123D01*
X420050Y133772D01*
X420294Y133411D01*
X420509Y133059D01*
X420606Y132903D01*
X420694Y132747D01*
X420772Y132620D01*
X420831Y132503D01*
X420889Y132405D01*
X420928Y132327D01*
X420948Y132288D01*
X420958Y132269D01*
X420743Y133372D01*
X420704Y133528D01*
X420675Y133674D01*
X420655Y133801D01*
X420626Y133918D01*
X420606Y134026D01*
X420597Y134113D01*
X420587Y134192D01*
X420567Y134260D01*
Y134309D01*
X420557Y134357D01*
X420548Y134426D01*
Y134465D01*
Y134475D01*
X420557Y134592D01*
X420587Y134670D01*
X420636Y134728D01*
X420684Y134777D01*
X420733Y134797D01*
X420782Y134806D01*
X420811Y134816D01*
X420821D01*
X420919Y134806D01*
X421026Y134797D01*
X421143Y134767D01*
X421241Y134748D01*
X421338Y134719D01*
X421407Y134689D01*
X421455Y134679D01*
X421475Y134670D01*
X421436Y134611D01*
X421397Y134553D01*
X421368Y134435D01*
X421358Y134387D01*
X421348Y134348D01*
Y134318D01*
Y134309D01*
Y134231D01*
X421358Y134133D01*
X421361Y134096D01*
X421387Y134055D01*
X421543Y133840D01*
X421699Y133625D01*
X421855Y133430D01*
X422002Y133255D01*
X422148Y133079D01*
X422295Y132932D01*
X422422Y132786D01*
X422548Y132659D01*
X422666Y132552D01*
X422763Y132464D01*
X422851Y132386D01*
X422919Y132318D01*
X422968Y132279D01*
X423007Y132249D01*
X423017Y132239D01*
X423202Y132103D01*
X423378Y131986D01*
X423544Y131878D01*
X423710Y131791D01*
X423866Y131722D01*
X424013Y131654D01*
X424149Y131605D01*
X424276Y131566D01*
X424393Y131537D01*
X424501Y131508D01*
X424588Y131488D01*
X424666Y131478D01*
X424735D01*
X424774Y131468D01*
X424813D01*
X424979Y131478D01*
X425125Y131517D01*
X425242Y131566D01*
X425350Y131644D01*
X425447Y131722D01*
X425525Y131820D01*
X425584Y131917D01*
X425633Y132025D01*
X425672Y132122D01*
X425701Y132220D01*
X425721Y132318D01*
X425730Y132396D01*
X425740Y132474D01*
X425750Y132523D01*
Y132562D01*
Y132571D01*
X425555Y132581D01*
X425359Y132591D01*
X425008Y132649D01*
X424842Y132698D01*
X424686Y132737D01*
X424540Y132786D01*
X424413Y132835D01*
X424286Y132884D01*
X424178Y132932D01*
X424091Y132981D01*
X424013Y133020D01*
X423944Y133050D01*
X423905Y133079D01*
X423876Y133089D01*
X423866Y133098D01*
X423720Y133196D01*
X423593Y133303D01*
X423485Y133401D01*
X423388Y133508D01*
X423310Y133606D01*
X423241Y133713D01*
X423193Y133801D01*
X423144Y133899D01*
X423085Y134055D01*
X423075Y134123D01*
X423056Y134182D01*
Y134231D01*
X423046Y134270D01*
Y134289D01*
Y134299D01*
X423056Y134445D01*
X423095Y134582D01*
X423144Y134689D01*
X423193Y134787D01*
X423251Y134865D01*
X423300Y134914D01*
X423339Y134953D01*
X423349Y134963D01*
X423466Y135050D01*
X423593Y135109D01*
X423720Y135158D01*
X423847Y135187D01*
X423964Y135207D01*
X424052Y135216D01*
X424130D01*
X424315Y135207D01*
X424491Y135187D01*
X424666Y135148D01*
X424832Y135089D01*
X424979Y135031D01*
X425125Y134963D01*
X425262Y134894D01*
X425379Y134826D01*
X425486Y134748D01*
X425584Y134679D01*
X425672Y134611D01*
X425740Y134553D01*
X425770Y134523D01*
X425877Y134514D01*
X426091Y134504D01*
X426287D01*
X426374Y134494D01*
X427926D01*
X427751Y135333D01*
X427711Y135499D01*
X427672Y135665D01*
X427633Y135812D01*
X427594Y135948D01*
X427497Y136202D01*
X427399Y136417D01*
X427302Y136602D01*
X427194Y136749D01*
X427097Y136875D01*
X426999Y136973D01*
X426901Y137051D01*
X426814Y137110D01*
X426735Y137149D01*
X426657Y137178D01*
X426599Y137198D01*
X426560Y137207D01*
X426521D01*
X426433Y137198D01*
X426355Y137178D01*
X426277Y137149D01*
X426218Y137119D01*
X426111Y137022D01*
X426023Y136915D01*
X425964Y136807D01*
X425925Y136710D01*
X425916Y136680D01*
X425906Y136651D01*
X425896Y136632D01*
Y136622D01*
X425808Y136671D01*
X425730Y136729D01*
X425672Y136778D01*
X425613Y136817D01*
X425525Y136905D01*
X425467Y136983D01*
X425437Y137041D01*
X425418Y137090D01*
X425408Y137119D01*
Y137129D01*
X425418Y137207D01*
X425447Y137276D01*
X425486Y137344D01*
X425525Y137393D01*
X425564Y137442D01*
X425603Y137471D01*
X425633Y137490D01*
X425642Y137500D01*
X425730Y137549D01*
X425828Y137588D01*
X425925Y137617D01*
X426013Y137637D01*
X426091Y137647D01*
X426150Y137656D01*
X426208D01*
X426365Y137647D01*
D02*
G37*
G36*
X304482Y136680D02*
X304609Y136583D01*
X304735Y136495D01*
X304853Y136417D01*
X304960Y136358D01*
X305048Y136309D01*
X305106Y136270D01*
X305116Y136261D01*
X305126D01*
X305292Y136183D01*
X305438Y136114D01*
X305555Y136075D01*
X305663Y136046D01*
X305741Y136026D01*
X305799Y136017D01*
X305838Y136007D01*
X305848D01*
X305907Y136017D01*
X305956Y135851D01*
X305965Y135773D01*
X305975Y135695D01*
X305985Y135636D01*
Y135587D01*
Y135548D01*
Y135538D01*
X305975Y135480D01*
X305965Y135431D01*
X305936Y135402D01*
X305907Y135372D01*
X305858Y135353D01*
X305838D01*
X305790Y135363D01*
X305741Y135372D01*
X305604Y135441D01*
X305468Y135519D01*
X305321Y135626D01*
X305185Y135724D01*
X305077Y135802D01*
X305028Y135841D01*
X304999Y135870D01*
X304979Y135880D01*
X304970Y135890D01*
X304823Y136026D01*
X304696Y136173D01*
X304589Y136329D01*
X304511Y136466D01*
X304452Y136592D01*
X304404Y136690D01*
X304394Y136729D01*
X304384Y136758D01*
X304374Y136768D01*
Y136778D01*
X304482Y136680D01*
D02*
G37*
G36*
X278989D02*
X279116Y136583D01*
X279242Y136495D01*
X279360Y136417D01*
X279467Y136358D01*
X279555Y136309D01*
X279613Y136270D01*
X279623Y136261D01*
X279633D01*
X279799Y136183D01*
X279945Y136114D01*
X280062Y136075D01*
X280170Y136046D01*
X280248Y136026D01*
X280306Y136017D01*
X280345Y136007D01*
X280355D01*
X280414Y136017D01*
X280462Y135851D01*
X280472Y135773D01*
X280482Y135695D01*
X280492Y135636D01*
Y135587D01*
Y135548D01*
Y135538D01*
X280482Y135480D01*
X280472Y135431D01*
X280443Y135402D01*
X280414Y135372D01*
X280365Y135353D01*
X280345D01*
X280296Y135363D01*
X280248Y135372D01*
X280111Y135441D01*
X279974Y135519D01*
X279828Y135626D01*
X279691Y135724D01*
X279584Y135802D01*
X279535Y135841D01*
X279506Y135870D01*
X279486Y135880D01*
X279477Y135890D01*
X279330Y136026D01*
X279203Y136173D01*
X279096Y136329D01*
X279018Y136466D01*
X278959Y136592D01*
X278911Y136690D01*
X278901Y136729D01*
X278891Y136758D01*
X278881Y136768D01*
Y136778D01*
X278989Y136680D01*
D02*
G37*
G36*
X337968Y135294D02*
X338095Y135207D01*
X338203Y135109D01*
X338300Y135011D01*
X338378Y134914D01*
X338447Y134816D01*
X338505Y134728D01*
X338544Y134631D01*
X338603Y134475D01*
X338622Y134397D01*
X338642Y134338D01*
Y134289D01*
X338651Y134250D01*
Y134231D01*
Y134221D01*
X338642Y134123D01*
X338638Y134086D01*
X338651Y134065D01*
X338798Y133850D01*
X338935Y133645D01*
X339071Y133450D01*
X339198Y133274D01*
X339325Y133108D01*
X339442Y132952D01*
X339559Y132815D01*
X339667Y132688D01*
X339754Y132581D01*
X339842Y132483D01*
X339911Y132405D01*
X339969Y132337D01*
X340008Y132298D01*
X340037Y132269D01*
X340047Y132259D01*
X340194Y132122D01*
X340320Y131995D01*
X340457Y131888D01*
X340574Y131800D01*
X340682Y131722D01*
X340789Y131664D01*
X340887Y131605D01*
X340965Y131566D01*
X341111Y131508D01*
X341170Y131498D01*
X341218Y131478D01*
X341257D01*
X341287Y131468D01*
X341306D01*
X341375Y131478D01*
X341433Y131488D01*
X341531Y131547D01*
X341599Y131615D01*
X341648Y131703D01*
X341677Y131791D01*
X341687Y131869D01*
X341697Y131917D01*
Y131927D01*
Y131937D01*
X341687Y132015D01*
X341677Y132113D01*
X341658Y132230D01*
X341638Y132347D01*
X341619Y132454D01*
X341609Y132542D01*
X341599Y132581D01*
X341589Y132610D01*
Y132620D01*
Y132630D01*
X341453Y133372D01*
X341414Y133567D01*
X341384Y133733D01*
X341365Y133879D01*
X341345Y133996D01*
Y134094D01*
X341336Y134152D01*
Y134201D01*
Y134211D01*
X341345Y134338D01*
X341375Y134435D01*
X341423Y134504D01*
X341472Y134553D01*
X341531Y134582D01*
X341570Y134592D01*
X341609Y134601D01*
X341677D01*
X341765Y134582D01*
X341872Y134562D01*
X341980Y134543D01*
X342077Y134523D01*
X342165Y134504D01*
X342224Y134494D01*
X342233Y134484D01*
X342243D01*
X342194Y134426D01*
X342165Y134377D01*
X342126Y134260D01*
X342116Y134211D01*
X342107Y134172D01*
Y134143D01*
Y134133D01*
Y134055D01*
X342111Y134021D01*
X342126Y133996D01*
X342282Y133743D01*
X342429Y133508D01*
X342565Y133294D01*
X342682Y133108D01*
X342799Y132932D01*
X342897Y132786D01*
X342985Y132659D01*
X343063Y132542D01*
X343131Y132445D01*
X343190Y132366D01*
X343239Y132308D01*
X343268Y132259D01*
X343297Y132230D01*
X343307Y132210D01*
X343317Y132201D01*
X343395Y132113D01*
X343463Y132035D01*
X343541Y131957D01*
X343610Y131898D01*
X343727Y131810D01*
X343844Y131752D01*
X343932Y131712D01*
X344000Y131693D01*
X344039Y131683D01*
X344059D01*
X344137Y131693D01*
X344195Y131732D01*
X344244Y131781D01*
X344293Y131839D01*
X344322Y131888D01*
X344342Y131937D01*
X344361Y131976D01*
Y131986D01*
X344371Y132044D01*
X344390Y132122D01*
X344410Y132288D01*
X344420Y132464D01*
X344429Y132649D01*
X344439Y132815D01*
Y132893D01*
Y132962D01*
Y133011D01*
Y133050D01*
Y133079D01*
Y133089D01*
Y133547D01*
Y133703D01*
X344449Y133840D01*
X344478Y134094D01*
X344517Y134318D01*
X344576Y134514D01*
X344634Y134670D01*
X344703Y134806D01*
X344781Y134924D01*
X344859Y135011D01*
X344947Y135080D01*
X345015Y135128D01*
X345093Y135168D01*
X345152Y135187D01*
X345210Y135207D01*
X345249Y135216D01*
X345288D01*
X345386Y135207D01*
X345493Y135187D01*
X345601Y135148D01*
X345698Y135089D01*
X345806Y135031D01*
X345913Y134953D01*
X346011Y134865D01*
X346118Y134767D01*
X346323Y134553D01*
X346528Y134318D01*
X346723Y134055D01*
X346899Y133791D01*
X347074Y133528D01*
X347231Y133264D01*
X347367Y133030D01*
X347484Y132815D01*
X347533Y132718D01*
X347582Y132630D01*
X347611Y132552D01*
X347650Y132493D01*
X347670Y132435D01*
X347689Y132396D01*
X347708Y132377D01*
X347709Y132366D01*
Y132376D01*
X347708Y132377D01*
X347611Y133421D01*
X347601Y133499D01*
X347592Y133577D01*
X347582Y133625D01*
Y133635D01*
Y133645D01*
X347562Y133840D01*
X347543Y134006D01*
X347533Y134133D01*
Y134240D01*
X347523Y134328D01*
Y134387D01*
Y134416D01*
Y134426D01*
Y134504D01*
X347533Y134572D01*
X347572Y134679D01*
X347621Y134758D01*
X347670Y134806D01*
X347728Y134845D01*
X347777Y134855D01*
X347816Y134865D01*
X347826D01*
X347943Y134855D01*
X348060Y134826D01*
X348119Y134806D01*
X348158Y134787D01*
X348187Y134777D01*
X348197D01*
X348314Y134738D01*
X348402Y134709D01*
X348451Y134689D01*
X348470D01*
X348402Y134592D01*
X348353Y134494D01*
X348324Y134387D01*
X348294Y134289D01*
X348285Y134192D01*
X348275Y134123D01*
Y134074D01*
Y134055D01*
Y133938D01*
X348285Y133801D01*
X348294Y133665D01*
X348304Y133538D01*
X348314Y133421D01*
X348324Y133323D01*
Y133284D01*
X348333Y133255D01*
Y133245D01*
Y133235D01*
X348421Y132415D01*
X348441Y132239D01*
X348451Y132093D01*
X348470Y131957D01*
X348480Y131830D01*
X348490Y131732D01*
X348499Y131644D01*
Y131566D01*
X348509Y131508D01*
Y131449D01*
Y131410D01*
X348519Y131351D01*
Y131332D01*
Y131322D01*
Y131244D01*
X348499Y131185D01*
X348460Y131078D01*
X348402Y131010D01*
X348324Y130951D01*
X348255Y130922D01*
X348197Y130912D01*
X348158Y130902D01*
X348138D01*
X348021Y130922D01*
X347894Y130951D01*
X347845Y130971D01*
X347806Y130981D01*
X347777Y131000D01*
X347767D01*
X347797Y131059D01*
X347806Y131117D01*
X347816Y131156D01*
Y131166D01*
X347806Y131263D01*
X347767Y131371D01*
X347719Y131498D01*
X347670Y131615D01*
X347611Y131722D01*
X347572Y131820D01*
X347533Y131878D01*
X347523Y131888D01*
Y131898D01*
X347484Y131966D01*
X347435Y132064D01*
X347377Y132161D01*
X347318Y132269D01*
X347260Y132366D01*
X347211Y132454D01*
X347182Y132513D01*
X347172Y132523D01*
Y132532D01*
X347065Y132718D01*
X346967Y132884D01*
X346879Y133040D01*
X346782Y133196D01*
X346694Y133333D01*
X346606Y133459D01*
X346450Y133694D01*
X346303Y133879D01*
X346167Y134045D01*
X346050Y134182D01*
X345942Y134279D01*
X345854Y134367D01*
X345767Y134426D01*
X345708Y134475D01*
X345649Y134504D01*
X345610Y134523D01*
X345571Y134533D01*
X345552D01*
X345483Y134523D01*
X345425Y134494D01*
X345376Y134455D01*
X345337Y134406D01*
X345318Y134357D01*
X345298Y134318D01*
X345279Y134289D01*
Y134279D01*
X345249Y134172D01*
X345230Y134035D01*
X345210Y133889D01*
X345200Y133743D01*
X345191Y133616D01*
Y133499D01*
Y133459D01*
Y133430D01*
Y133411D01*
Y133401D01*
Y133079D01*
Y132874D01*
X345181Y132679D01*
X345171Y132503D01*
X345161Y132337D01*
X345142Y132191D01*
X345132Y132064D01*
X345113Y131947D01*
X345093Y131839D01*
X345074Y131742D01*
X345054Y131664D01*
X345044Y131605D01*
X345025Y131547D01*
X345015Y131508D01*
X345005Y131478D01*
X344995Y131468D01*
Y131459D01*
X344956Y131381D01*
X344908Y131312D01*
X344810Y131195D01*
X344693Y131117D01*
X344586Y131059D01*
X344488Y131029D01*
X344400Y131010D01*
X344342Y131000D01*
X344322D01*
X344225Y131010D01*
X344117Y131029D01*
X344020Y131068D01*
X343912Y131117D01*
X343717Y131244D01*
X343531Y131381D01*
X343366Y131517D01*
X343297Y131586D01*
X343239Y131644D01*
X343200Y131693D01*
X343161Y131732D01*
X343141Y131752D01*
X343131Y131761D01*
X343004Y131917D01*
X342878Y132083D01*
X342751Y132259D01*
X342614Y132445D01*
X342360Y132835D01*
X342267Y132987D01*
X342272Y132952D01*
X342282Y132903D01*
X342292Y132874D01*
Y132864D01*
X342380Y132445D01*
X342399Y132318D01*
X342419Y132201D01*
X342429Y132113D01*
X342438Y132035D01*
X342448Y131976D01*
Y131937D01*
Y131917D01*
Y131908D01*
X342438Y131742D01*
X342409Y131595D01*
X342370Y131478D01*
X342321Y131371D01*
X342272Y131283D01*
X342233Y131225D01*
X342204Y131185D01*
X342194Y131176D01*
X342087Y131088D01*
X341980Y131019D01*
X341863Y130971D01*
X341755Y130941D01*
X341658Y130922D01*
X341580Y130902D01*
X341511D01*
X341375Y130912D01*
X341238Y130941D01*
X341101Y130981D01*
X340965Y131029D01*
X340828Y131098D01*
X340701Y131166D01*
X340457Y131322D01*
X340350Y131400D01*
X340242Y131478D01*
X340155Y131547D01*
X340076Y131615D01*
X340018Y131664D01*
X339969Y131703D01*
X339940Y131732D01*
X339930Y131742D01*
X339764Y131908D01*
X339598Y132083D01*
X339286Y132474D01*
X338993Y132864D01*
X338857Y133059D01*
X338730Y133245D01*
X338613Y133421D01*
X338515Y133577D01*
X338495Y133607D01*
X338476Y133557D01*
X338378Y133333D01*
X338281Y133137D01*
X338232Y133050D01*
X338193Y132972D01*
X338154Y132913D01*
X338124Y132864D01*
X338115Y132835D01*
X338105Y132825D01*
X337802Y132337D01*
X337959Y132259D01*
X338105Y132191D01*
X338242Y132113D01*
X338359Y132044D01*
X338476Y131986D01*
X338573Y131927D01*
X338671Y131869D01*
X338749Y131820D01*
X338817Y131771D01*
X338876Y131732D01*
X338925Y131703D01*
X338974Y131673D01*
X339022Y131625D01*
X339042Y131615D01*
X339159Y131498D01*
X339247Y131390D01*
X339315Y131293D01*
X339354Y131195D01*
X339384Y131117D01*
X339393Y131059D01*
X339403Y131019D01*
Y131010D01*
X339393Y130912D01*
X339364Y130824D01*
X339315Y130746D01*
X339266Y130678D01*
X339227Y130629D01*
X339179Y130590D01*
X339149Y130561D01*
X339140Y130551D01*
X339032Y130483D01*
X338925Y130434D01*
X338808Y130395D01*
X338710Y130375D01*
X338622Y130356D01*
X338544Y130346D01*
X338486D01*
X338369Y130356D01*
X338251Y130366D01*
X338027Y130414D01*
X337841Y130483D01*
X337666Y130561D01*
X337529Y130639D01*
X337432Y130707D01*
X337392Y130736D01*
X337363Y130756D01*
X337353Y130775D01*
X337344D01*
X337256Y130854D01*
X337178Y130941D01*
X337119Y131029D01*
X337061Y131117D01*
X336973Y131283D01*
X336914Y131439D01*
X336885Y131576D01*
X336865Y131683D01*
X336856Y131722D01*
Y131752D01*
Y131771D01*
Y131781D01*
X336865Y131878D01*
X336875Y131976D01*
X336895Y132074D01*
X336924Y132161D01*
X336953Y132230D01*
X336973Y132288D01*
X336983Y132327D01*
X336992Y132337D01*
X336748Y132474D01*
X336524Y132630D01*
X336309Y132776D01*
X336104Y132932D01*
X335909Y133089D01*
X335733Y133235D01*
X335577Y133381D01*
X335431Y133528D01*
X335383Y133573D01*
X335411Y133362D01*
X335450Y133167D01*
X335470Y133089D01*
X335479Y133011D01*
X335489Y132952D01*
X335499Y132903D01*
X335509Y132874D01*
Y132864D01*
X335597Y132445D01*
X335616Y132318D01*
X335636Y132201D01*
X335645Y132113D01*
X335655Y132035D01*
X335665Y131976D01*
Y131937D01*
Y131917D01*
Y131908D01*
X335655Y131742D01*
X335626Y131595D01*
X335587Y131478D01*
X335538Y131371D01*
X335489Y131283D01*
X335450Y131225D01*
X335421Y131185D01*
X335411Y131176D01*
X335304Y131088D01*
X335196Y131019D01*
X335079Y130971D01*
X334972Y130941D01*
X334874Y130922D01*
X334796Y130902D01*
X334728D01*
X334591Y130912D01*
X334455Y130941D01*
X334318Y130981D01*
X334181Y131029D01*
X334045Y131098D01*
X333918Y131166D01*
X333674Y131322D01*
X333567Y131400D01*
X333459Y131478D01*
X333371Y131547D01*
X333293Y131615D01*
X333235Y131664D01*
X333186Y131703D01*
X333157Y131732D01*
X333147Y131742D01*
X332981Y131908D01*
X332815Y132083D01*
X332503Y132474D01*
X332210Y132864D01*
X332073Y133059D01*
X331946Y133245D01*
X331829Y133421D01*
X331732Y133577D01*
X331634Y133723D01*
X331556Y133850D01*
X331497Y133957D01*
X331449Y134035D01*
X331419Y134084D01*
X331410Y134104D01*
X331732Y134289D01*
X331868Y134065D01*
X332015Y133850D01*
X332151Y133645D01*
X332288Y133450D01*
X332415Y133274D01*
X332542Y133108D01*
X332659Y132952D01*
X332776Y132815D01*
X332883Y132688D01*
X332971Y132581D01*
X333059Y132483D01*
X333127Y132405D01*
X333186Y132337D01*
X333225Y132298D01*
X333254Y132269D01*
X333264Y132259D01*
X333410Y132122D01*
X333537Y131995D01*
X333674Y131888D01*
X333791Y131800D01*
X333898Y131722D01*
X334006Y131664D01*
X334103Y131605D01*
X334181Y131566D01*
X334328Y131508D01*
X334386Y131498D01*
X334435Y131478D01*
X334474D01*
X334504Y131468D01*
X334523D01*
X334591Y131478D01*
X334650Y131488D01*
X334748Y131547D01*
X334816Y131615D01*
X334865Y131703D01*
X334894Y131791D01*
X334904Y131869D01*
X334913Y131917D01*
Y131927D01*
Y131937D01*
X334904Y132015D01*
X334894Y132113D01*
X334874Y132230D01*
X334855Y132347D01*
X334835Y132454D01*
X334826Y132542D01*
X334816Y132581D01*
X334806Y132610D01*
Y132620D01*
Y132630D01*
X334669Y133372D01*
X334630Y133567D01*
X334601Y133733D01*
X334582Y133879D01*
X334562Y133996D01*
Y134094D01*
X334552Y134152D01*
Y134201D01*
Y134211D01*
X334562Y134338D01*
X334591Y134435D01*
X334640Y134504D01*
X334689Y134553D01*
X334748Y134582D01*
X334787Y134592D01*
X334826Y134601D01*
X334894D01*
X334982Y134582D01*
X335089Y134562D01*
X335196Y134543D01*
X335294Y134523D01*
X335382Y134504D01*
X335440Y134494D01*
X335450Y134484D01*
X335460D01*
X335411Y134426D01*
X335382Y134377D01*
X335343Y134260D01*
X335333Y134211D01*
X335323Y134172D01*
Y134168D01*
X335362Y134123D01*
X335548Y133928D01*
X335704Y133762D01*
X335841Y133625D01*
X335948Y133528D01*
X336026Y133450D01*
X336075Y133411D01*
X336094Y133391D01*
X336251Y133274D01*
X336417Y133147D01*
X336602Y133020D01*
X336778Y132903D01*
X336944Y132806D01*
X337012Y132757D01*
X337070Y132728D01*
X337119Y132688D01*
X337158Y132669D01*
X337178Y132659D01*
X337188Y132649D01*
X337519Y133264D01*
X337949Y134065D01*
X337832Y134143D01*
X337734Y134211D01*
X337646Y134289D01*
X337578Y134357D01*
X337510Y134426D01*
X337461Y134494D01*
X337383Y134621D01*
X337334Y134728D01*
X337314Y134816D01*
X337305Y134865D01*
Y134885D01*
X337314Y134943D01*
X337324Y134992D01*
X337383Y135089D01*
X337471Y135168D01*
X337558Y135246D01*
X337656Y135304D01*
X337744Y135343D01*
X337802Y135372D01*
X337812Y135382D01*
X337822D01*
X337968Y135294D01*
D02*
G37*
G36*
X415560Y135207D02*
X415736Y135187D01*
X415912Y135148D01*
X416078Y135089D01*
X416224Y135031D01*
X416370Y134963D01*
X416507Y134894D01*
X416624Y134826D01*
X416732Y134748D01*
X416829Y134679D01*
X416917Y134611D01*
X416985Y134553D01*
X417034Y134504D01*
X417083Y134465D01*
X417102Y134435D01*
X417112Y134426D01*
X417239Y134279D01*
X417346Y134123D01*
X417444Y133967D01*
X417522Y133801D01*
X417590Y133645D01*
X417649Y133489D01*
X417698Y133333D01*
X417737Y133196D01*
X417766Y133059D01*
X417786Y132932D01*
X417805Y132825D01*
X417815Y132728D01*
Y132649D01*
X417825Y132591D01*
Y132552D01*
Y132542D01*
X417805Y132269D01*
X417766Y132035D01*
X417698Y131830D01*
X417629Y131654D01*
X417561Y131517D01*
X417493Y131420D01*
X417473Y131390D01*
X417454Y131361D01*
X417434Y131351D01*
Y131342D01*
X417356Y131263D01*
X417268Y131195D01*
X417093Y131088D01*
X416917Y131010D01*
X416741Y130961D01*
X416585Y130922D01*
X416517Y130912D01*
X416468D01*
X416419Y130902D01*
X416351D01*
X416146Y130912D01*
X415951Y130941D01*
X415746Y130990D01*
X415551Y131049D01*
X415355Y131117D01*
X415170Y131185D01*
X414994Y131273D01*
X414828Y131361D01*
X414672Y131439D01*
X414526Y131527D01*
X414409Y131595D01*
X414301Y131673D01*
X414213Y131722D01*
X414145Y131771D01*
X414106Y131800D01*
X414096Y131810D01*
X413882Y131986D01*
X413667Y132171D01*
X413472Y132357D01*
X413286Y132552D01*
X413120Y132747D01*
X412954Y132932D01*
X412808Y133118D01*
X412681Y133294D01*
X412564Y133459D01*
X412457Y133616D01*
X412369Y133752D01*
X412291Y133869D01*
X412232Y133967D01*
X412193Y134045D01*
X412164Y134084D01*
X412154Y134104D01*
X412486Y134289D01*
X412632Y134055D01*
X412788Y133840D01*
X412945Y133625D01*
X413101Y133430D01*
X413247Y133255D01*
X413394Y133079D01*
X413540Y132932D01*
X413667Y132786D01*
X413794Y132659D01*
X413911Y132552D01*
X414009Y132464D01*
X414096Y132386D01*
X414165Y132318D01*
X414213Y132279D01*
X414253Y132249D01*
X414262Y132239D01*
X414448Y132103D01*
X414623Y131986D01*
X414789Y131878D01*
X414955Y131791D01*
X415111Y131722D01*
X415258Y131654D01*
X415394Y131605D01*
X415521Y131566D01*
X415638Y131537D01*
X415746Y131508D01*
X415834Y131488D01*
X415912Y131478D01*
X415980D01*
X416019Y131468D01*
X416058D01*
X416224Y131478D01*
X416370Y131517D01*
X416488Y131566D01*
X416595Y131644D01*
X416692Y131722D01*
X416771Y131820D01*
X416829Y131917D01*
X416878Y132025D01*
X416917Y132122D01*
X416946Y132220D01*
X416966Y132318D01*
X416975Y132396D01*
X416985Y132474D01*
X416995Y132523D01*
Y132562D01*
Y132571D01*
X416800Y132581D01*
X416605Y132591D01*
X416253Y132649D01*
X416087Y132698D01*
X415931Y132737D01*
X415785Y132786D01*
X415658Y132835D01*
X415531Y132884D01*
X415424Y132932D01*
X415336Y132981D01*
X415258Y133020D01*
X415189Y133050D01*
X415150Y133079D01*
X415121Y133089D01*
X415111Y133098D01*
X414965Y133196D01*
X414838Y133303D01*
X414731Y133401D01*
X414633Y133508D01*
X414555Y133606D01*
X414487Y133713D01*
X414438Y133801D01*
X414389Y133899D01*
X414331Y134055D01*
X414321Y134123D01*
X414301Y134182D01*
Y134231D01*
X414291Y134270D01*
Y134289D01*
Y134299D01*
X414301Y134445D01*
X414340Y134582D01*
X414389Y134689D01*
X414438Y134787D01*
X414497Y134865D01*
X414545Y134914D01*
X414584Y134953D01*
X414594Y134963D01*
X414711Y135050D01*
X414838Y135109D01*
X414965Y135158D01*
X415092Y135187D01*
X415209Y135207D01*
X415297Y135216D01*
X415375D01*
X415560Y135207D01*
D02*
G37*
G36*
X452385D02*
X452561Y135187D01*
X452736Y135148D01*
X452902Y135089D01*
X453049Y135031D01*
X453195Y134963D01*
X453332Y134894D01*
X453449Y134826D01*
X453556Y134748D01*
X453654Y134679D01*
X453741Y134611D01*
X453810Y134553D01*
X453859Y134504D01*
X453907Y134465D01*
X453927Y134435D01*
X453937Y134426D01*
X454064Y134279D01*
X454171Y134123D01*
X454269Y133967D01*
X454347Y133801D01*
X454415Y133645D01*
X454473Y133489D01*
X454522Y133333D01*
X454561Y133196D01*
X454591Y133059D01*
X454610Y132932D01*
X454630Y132825D01*
X454639Y132728D01*
Y132649D01*
X454649Y132591D01*
Y132552D01*
Y132542D01*
X454630Y132269D01*
X454591Y132035D01*
X454522Y131830D01*
X454454Y131654D01*
X454386Y131517D01*
X454317Y131420D01*
X454298Y131390D01*
X454278Y131361D01*
X454259Y131351D01*
Y131342D01*
X454181Y131263D01*
X454093Y131195D01*
X453917Y131088D01*
X453741Y131010D01*
X453566Y130961D01*
X453410Y130922D01*
X453341Y130912D01*
X453293D01*
X453244Y130902D01*
X453175D01*
X452970Y130912D01*
X452775Y130941D01*
X452570Y130990D01*
X452375Y131049D01*
X452180Y131117D01*
X451994Y131185D01*
X451819Y131273D01*
X451653Y131361D01*
X451497Y131439D01*
X451350Y131527D01*
X451233Y131595D01*
X451126Y131673D01*
X451038Y131722D01*
X450970Y131771D01*
X450931Y131800D01*
X450921Y131810D01*
X450706Y131986D01*
X450491Y132171D01*
X450296Y132357D01*
X450111Y132552D01*
X449945Y132747D01*
X449779Y132932D01*
X449633Y133118D01*
X449506Y133294D01*
X449389Y133459D01*
X449385Y133465D01*
X449389Y133421D01*
X449398Y133323D01*
Y133284D01*
X449408Y133255D01*
Y133245D01*
Y133235D01*
X449496Y132415D01*
X449515Y132239D01*
X449525Y132093D01*
X449545Y131957D01*
X449554Y131830D01*
X449564Y131732D01*
X449574Y131644D01*
Y131566D01*
X449584Y131508D01*
Y131449D01*
Y131410D01*
X449593Y131351D01*
Y131332D01*
Y131322D01*
Y131244D01*
X449574Y131185D01*
X449535Y131078D01*
X449476Y131010D01*
X449398Y130951D01*
X449330Y130922D01*
X449271Y130912D01*
X449232Y130902D01*
X449213D01*
X449096Y130922D01*
X448969Y130951D01*
X448920Y130971D01*
X448881Y130981D01*
X448852Y131000D01*
X448842D01*
X448871Y131059D01*
X448881Y131117D01*
X448891Y131156D01*
Y131166D01*
X448881Y131263D01*
X448842Y131371D01*
X448793Y131498D01*
X448744Y131615D01*
X448686Y131722D01*
X448647Y131820D01*
X448608Y131878D01*
X448598Y131888D01*
Y131898D01*
X448559Y131966D01*
X448510Y132064D01*
X448452Y132161D01*
X448393Y132269D01*
X448334Y132366D01*
X448286Y132454D01*
X448256Y132513D01*
X448247Y132523D01*
Y132532D01*
X448139Y132718D01*
X448042Y132884D01*
X447954Y133040D01*
X447856Y133196D01*
X447768Y133333D01*
X447681Y133459D01*
X447524Y133694D01*
X447378Y133879D01*
X447241Y134045D01*
X447124Y134182D01*
X447017Y134279D01*
X446929Y134367D01*
X446841Y134426D01*
X446783Y134475D01*
X446724Y134504D01*
X446685Y134523D01*
X446646Y134533D01*
X446626D01*
X446558Y134523D01*
X446499Y134494D01*
X446451Y134455D01*
X446412Y134406D01*
X446392Y134357D01*
X446373Y134318D01*
X446353Y134289D01*
Y134279D01*
X446324Y134172D01*
X446304Y134035D01*
X446285Y133889D01*
X446275Y133743D01*
X446265Y133616D01*
Y133499D01*
Y133459D01*
Y133430D01*
Y133411D01*
Y133401D01*
Y133079D01*
Y132874D01*
X446255Y132679D01*
X446246Y132503D01*
X446236Y132337D01*
X446216Y132191D01*
X446207Y132064D01*
X446187Y131947D01*
X446168Y131839D01*
X446148Y131742D01*
X446129Y131664D01*
X446119Y131605D01*
X446099Y131547D01*
X446090Y131508D01*
X446080Y131478D01*
X446070Y131468D01*
Y131459D01*
X446031Y131381D01*
X445982Y131312D01*
X445885Y131195D01*
X445767Y131117D01*
X445660Y131059D01*
X445563Y131029D01*
X445475Y131010D01*
X445416Y131000D01*
X445397D01*
X445299Y131010D01*
X445192Y131029D01*
X445094Y131068D01*
X444987Y131117D01*
X444792Y131244D01*
X444606Y131381D01*
X444440Y131517D01*
X444372Y131586D01*
X444313Y131644D01*
X444274Y131693D01*
X444235Y131732D01*
X444216Y131752D01*
X444206Y131761D01*
X444079Y131917D01*
X443952Y132083D01*
X443825Y132259D01*
X443689Y132445D01*
X443435Y132835D01*
X443341Y132987D01*
X443347Y132952D01*
X443357Y132903D01*
X443367Y132874D01*
Y132864D01*
X443454Y132445D01*
X443474Y132318D01*
X443493Y132201D01*
X443503Y132113D01*
X443513Y132035D01*
X443523Y131976D01*
Y131937D01*
Y131917D01*
Y131908D01*
X443513Y131742D01*
X443484Y131595D01*
X443445Y131478D01*
X443396Y131371D01*
X443347Y131283D01*
X443308Y131225D01*
X443279Y131185D01*
X443269Y131176D01*
X443162Y131088D01*
X443054Y131019D01*
X442937Y130971D01*
X442830Y130941D01*
X442732Y130922D01*
X442654Y130902D01*
X442586D01*
X442449Y130912D01*
X442312Y130941D01*
X442176Y130981D01*
X442039Y131029D01*
X441903Y131098D01*
X441776Y131166D01*
X441532Y131322D01*
X441424Y131400D01*
X441317Y131478D01*
X441229Y131547D01*
X441151Y131615D01*
X441092Y131664D01*
X441044Y131703D01*
X441014Y131732D01*
X441005Y131742D01*
X440839Y131908D01*
X440673Y132083D01*
X440360Y132474D01*
X440068Y132864D01*
X439931Y133059D01*
X439804Y133245D01*
X439687Y133421D01*
X439650Y133480D01*
X439658Y133391D01*
X439668Y133303D01*
X439677Y133255D01*
Y133245D01*
Y133235D01*
X439765Y132425D01*
X439785Y132239D01*
X439804Y132074D01*
X439814Y131937D01*
X439824Y131810D01*
X439833Y131703D01*
X439843Y131615D01*
X439853Y131547D01*
X439863Y131478D01*
Y131429D01*
Y131400D01*
X439873Y131351D01*
Y131322D01*
X439853Y131185D01*
X439814Y131088D01*
X439746Y131010D01*
X439677Y130961D01*
X439609Y130932D01*
X439541Y130922D01*
X439502Y130912D01*
X439482D01*
X439345Y130922D01*
X439219Y130961D01*
X439170Y130971D01*
X439131Y130990D01*
X439101Y131000D01*
X439092D01*
X439121Y131049D01*
X439141Y131098D01*
X439150Y131137D01*
Y131146D01*
X439141Y131215D01*
X439111Y131303D01*
X439072Y131410D01*
X439023Y131537D01*
X438965Y131673D01*
X438897Y131820D01*
X438750Y132122D01*
X438682Y132269D01*
X438613Y132405D01*
X438545Y132542D01*
X438487Y132649D01*
X438428Y132747D01*
X438389Y132825D01*
X438369Y132864D01*
X438360Y132884D01*
X438213Y133147D01*
X438077Y133372D01*
X437959Y133567D01*
X437842Y133733D01*
X437735Y133879D01*
X437628Y133996D01*
X437540Y134094D01*
X437462Y134172D01*
X437393Y134231D01*
X437335Y134279D01*
X437276Y134309D01*
X437237Y134338D01*
X437179Y134357D01*
X437159D01*
X437091Y134348D01*
X437042Y134318D01*
X437013Y134270D01*
X436983Y134231D01*
X436974Y134182D01*
X436964Y134133D01*
Y134104D01*
Y134094D01*
Y134055D01*
X436974Y134006D01*
X436983Y133938D01*
X436993Y133860D01*
X437023Y133694D01*
X437052Y133518D01*
X437091Y133342D01*
X437110Y133264D01*
X437120Y133196D01*
X437130Y133137D01*
X437140Y133098D01*
X437149Y133069D01*
Y133059D01*
X437306Y132249D01*
X437335Y132093D01*
X437354Y132025D01*
X437364Y131966D01*
X437374Y131917D01*
X437384Y131878D01*
X437393Y131859D01*
Y131849D01*
X437432Y131673D01*
X437452Y131537D01*
X437471Y131429D01*
X437491Y131351D01*
Y131293D01*
X437501Y131263D01*
Y131244D01*
Y131234D01*
X437481Y131127D01*
X437442Y131039D01*
X437393Y130981D01*
X437325Y130941D01*
X437257Y130922D01*
X437208Y130912D01*
X437169Y130902D01*
X437081D01*
X437023Y130912D01*
X436993Y130922D01*
X436983D01*
X436896Y130951D01*
X436837Y130961D01*
X436808Y130971D01*
X436798D01*
X436808Y131000D01*
Y131019D01*
Y131039D01*
X436798Y131098D01*
X436769Y131176D01*
X436720Y131273D01*
X436661Y131400D01*
X436583Y131527D01*
X436505Y131673D01*
X436330Y131966D01*
X436242Y132113D01*
X436154Y132259D01*
X436076Y132386D01*
X435998Y132503D01*
X435939Y132601D01*
X435890Y132669D01*
X435861Y132718D01*
X435851Y132737D01*
X435656Y133030D01*
X435480Y133274D01*
X435324Y133499D01*
X435168Y133684D01*
X435041Y133840D01*
X434914Y133977D01*
X434807Y134084D01*
X434719Y134172D01*
X434631Y134240D01*
X434563Y134289D01*
X434505Y134328D01*
X434456Y134348D01*
X434426Y134367D01*
X434397Y134377D01*
X434378D01*
X434319Y134367D01*
X434280Y134348D01*
X434241Y134328D01*
X434221Y134299D01*
X434202Y134240D01*
Y134221D01*
Y134211D01*
Y134143D01*
X434221Y134055D01*
X434231Y133948D01*
X434251Y133830D01*
X434270Y133723D01*
X434290Y133635D01*
X434300Y133596D01*
Y133567D01*
X434309Y133557D01*
Y133547D01*
X434417Y133020D01*
X434465Y132757D01*
X434505Y132532D01*
X434524Y132347D01*
X434544Y132191D01*
X434553Y132074D01*
X434563Y131995D01*
Y131947D01*
Y131927D01*
X434553Y131752D01*
X434534Y131586D01*
X434495Y131449D01*
X434436Y131332D01*
X434378Y131234D01*
X434319Y131156D01*
X434241Y131088D01*
X434173Y131029D01*
X434104Y130990D01*
X434026Y130961D01*
X433899Y130922D01*
X433851Y130912D01*
X433812Y130902D01*
X433782D01*
X433665Y130912D01*
X433548Y130941D01*
X433431Y130981D01*
X433304Y131039D01*
X433187Y131117D01*
X433060Y131195D01*
X432933Y131293D01*
X432816Y131400D01*
X432572Y131644D01*
X432328Y131917D01*
X432103Y132210D01*
X431879Y132513D01*
X431674Y132806D01*
X431489Y133098D01*
X431323Y133372D01*
X431176Y133616D01*
X431118Y133723D01*
X431059Y133821D01*
X431020Y133899D01*
X430971Y133977D01*
X430942Y134035D01*
X430923Y134074D01*
X430903Y134104D01*
Y134113D01*
X431225Y134289D01*
X431362Y134045D01*
X431498Y133811D01*
X431625Y133596D01*
X431752Y133401D01*
X431879Y133206D01*
X431996Y133040D01*
X432103Y132874D01*
X432211Y132728D01*
X432318Y132591D01*
X432416Y132464D01*
X432504Y132347D01*
X432601Y132249D01*
X432679Y132152D01*
X432757Y132064D01*
X432914Y131927D01*
X433041Y131810D01*
X433148Y131732D01*
X433245Y131664D01*
X433323Y131625D01*
X433382Y131605D01*
X433421Y131595D01*
X433450Y131586D01*
X433460D01*
X433519Y131595D01*
X433567Y131605D01*
X433646Y131654D01*
X433704Y131732D01*
X433743Y131810D01*
X433763Y131888D01*
X433773Y131966D01*
X433782Y132015D01*
Y132035D01*
Y132142D01*
X433763Y132269D01*
X433753Y132405D01*
X433733Y132532D01*
X433714Y132649D01*
X433704Y132747D01*
X433694Y132786D01*
X433685Y132815D01*
Y132825D01*
Y132835D01*
X433567Y133421D01*
X433538Y133577D01*
X433509Y133713D01*
X433489Y133850D01*
X433470Y133957D01*
X433450Y134065D01*
X433431Y134152D01*
X433421Y134231D01*
X433411Y134299D01*
X433402Y134357D01*
Y134406D01*
X433392Y134484D01*
Y134523D01*
Y134533D01*
X433402Y134650D01*
X433421Y134758D01*
X433450Y134845D01*
X433480Y134933D01*
X433529Y134992D01*
X433577Y135050D01*
X433626Y135099D01*
X433685Y135128D01*
X433792Y135177D01*
X433890Y135207D01*
X433919Y135216D01*
X433977D01*
X434075Y135207D01*
X434182Y135177D01*
X434280Y135138D01*
X434387Y135080D01*
X434495Y135021D01*
X434592Y134953D01*
X434788Y134797D01*
X434963Y134641D01*
X435032Y134562D01*
X435100Y134504D01*
X435149Y134445D01*
X435188Y134406D01*
X435207Y134377D01*
X435217Y134367D01*
X435354Y134201D01*
X435480Y134026D01*
X435734Y133655D01*
X435968Y133284D01*
X436076Y133098D01*
X436183Y132923D01*
X436271Y132757D01*
X436359Y132601D01*
X436427Y132464D01*
X436486Y132347D01*
X436535Y132249D01*
X436574Y132171D01*
X436593Y132132D01*
X436603Y132113D01*
X436369Y133264D01*
X436330Y133440D01*
X436300Y133606D01*
X436271Y133752D01*
X436251Y133889D01*
X436232Y134006D01*
X436212Y134104D01*
X436203Y134201D01*
X436193Y134279D01*
X436183Y134348D01*
X436173Y134397D01*
Y134445D01*
X436164Y134484D01*
Y134533D01*
Y134543D01*
X436173Y134660D01*
X436183Y134767D01*
X436203Y134855D01*
X436232Y134933D01*
X436271Y135002D01*
X436310Y135050D01*
X436349Y135099D01*
X436398Y135128D01*
X436486Y135177D01*
X436554Y135207D01*
X436613Y135216D01*
X436632D01*
X436730Y135207D01*
X436837Y135187D01*
X436935Y135148D01*
X437042Y135089D01*
X437140Y135031D01*
X437247Y134953D01*
X437354Y134865D01*
X437452Y134767D01*
X437657Y134543D01*
X437862Y134299D01*
X438057Y134045D01*
X438233Y133772D01*
X438409Y133499D01*
X438565Y133245D01*
X438701Y133001D01*
X438818Y132776D01*
X438877Y132679D01*
X438916Y132591D01*
X438955Y132513D01*
X438994Y132454D01*
X439014Y132396D01*
X439033Y132357D01*
X439052Y132338D01*
X438955Y133411D01*
X438936Y133577D01*
X438926Y133713D01*
X438906Y133840D01*
X438897Y133957D01*
X438887Y134055D01*
X438877Y134143D01*
Y134211D01*
X438867Y134270D01*
Y134328D01*
X438857Y134367D01*
Y134416D01*
Y134445D01*
Y134455D01*
X438867Y134592D01*
X438906Y134689D01*
X438965Y134758D01*
X439023Y134806D01*
X439092Y134836D01*
X439141Y134845D01*
X439180Y134855D01*
X439199D01*
X439277Y134845D01*
X439365Y134826D01*
X439570Y134777D01*
X439668Y134738D01*
X439746Y134719D01*
X439794Y134699D01*
X439804Y134689D01*
X439814D01*
X439755Y134601D01*
X439707Y134504D01*
X439677Y134387D01*
X439648Y134279D01*
X439641Y134205D01*
X439726Y134065D01*
X439873Y133850D01*
X440009Y133645D01*
X440146Y133450D01*
X440273Y133274D01*
X440400Y133108D01*
X440517Y132952D01*
X440634Y132815D01*
X440741Y132688D01*
X440829Y132581D01*
X440917Y132483D01*
X440985Y132405D01*
X441044Y132337D01*
X441083Y132298D01*
X441112Y132269D01*
X441122Y132259D01*
X441268Y132122D01*
X441395Y131995D01*
X441532Y131888D01*
X441649Y131800D01*
X441756Y131722D01*
X441863Y131664D01*
X441961Y131605D01*
X442039Y131566D01*
X442186Y131508D01*
X442244Y131498D01*
X442293Y131478D01*
X442332D01*
X442361Y131468D01*
X442381D01*
X442449Y131478D01*
X442508Y131488D01*
X442605Y131547D01*
X442674Y131615D01*
X442722Y131703D01*
X442752Y131791D01*
X442761Y131869D01*
X442771Y131917D01*
Y131927D01*
Y131937D01*
X442761Y132015D01*
X442752Y132113D01*
X442732Y132230D01*
X442713Y132347D01*
X442693Y132454D01*
X442683Y132542D01*
X442674Y132581D01*
X442664Y132610D01*
Y132620D01*
Y132630D01*
X442527Y133372D01*
X442488Y133567D01*
X442459Y133733D01*
X442439Y133879D01*
X442420Y133996D01*
Y134094D01*
X442410Y134152D01*
Y134201D01*
Y134211D01*
X442420Y134338D01*
X442449Y134435D01*
X442498Y134504D01*
X442547Y134553D01*
X442605Y134582D01*
X442644Y134592D01*
X442683Y134601D01*
X442752D01*
X442839Y134582D01*
X442947Y134562D01*
X443054Y134543D01*
X443152Y134523D01*
X443240Y134504D01*
X443298Y134494D01*
X443308Y134484D01*
X443318D01*
X443269Y134426D01*
X443240Y134377D01*
X443201Y134260D01*
X443191Y134211D01*
X443181Y134172D01*
Y134143D01*
Y134133D01*
Y134055D01*
X443185Y134021D01*
X443201Y133996D01*
X443357Y133743D01*
X443503Y133508D01*
X443640Y133294D01*
X443757Y133108D01*
X443874Y132932D01*
X443972Y132786D01*
X444060Y132659D01*
X444138Y132542D01*
X444206Y132445D01*
X444265Y132366D01*
X444313Y132308D01*
X444343Y132259D01*
X444372Y132230D01*
X444382Y132210D01*
X444391Y132201D01*
X444469Y132113D01*
X444538Y132035D01*
X444616Y131957D01*
X444684Y131898D01*
X444801Y131810D01*
X444918Y131752D01*
X445006Y131712D01*
X445075Y131693D01*
X445114Y131683D01*
X445133D01*
X445211Y131693D01*
X445270Y131732D01*
X445319Y131781D01*
X445367Y131839D01*
X445397Y131888D01*
X445416Y131937D01*
X445436Y131976D01*
Y131986D01*
X445445Y132044D01*
X445465Y132122D01*
X445484Y132288D01*
X445494Y132464D01*
X445504Y132649D01*
X445514Y132815D01*
Y132893D01*
Y132962D01*
Y133011D01*
Y133050D01*
Y133079D01*
Y133089D01*
Y133547D01*
Y133703D01*
X445524Y133840D01*
X445553Y134094D01*
X445592Y134318D01*
X445650Y134514D01*
X445709Y134670D01*
X445777Y134806D01*
X445855Y134924D01*
X445933Y135011D01*
X446021Y135080D01*
X446090Y135128D01*
X446168Y135168D01*
X446226Y135187D01*
X446285Y135207D01*
X446324Y135216D01*
X446363D01*
X446460Y135207D01*
X446568Y135187D01*
X446675Y135148D01*
X446773Y135089D01*
X446880Y135031D01*
X446987Y134953D01*
X447085Y134865D01*
X447192Y134767D01*
X447397Y134553D01*
X447602Y134318D01*
X447798Y134055D01*
X447973Y133791D01*
X448149Y133528D01*
X448305Y133264D01*
X448442Y133030D01*
X448559Y132815D01*
X448608Y132718D01*
X448657Y132630D01*
X448686Y132552D01*
X448725Y132493D01*
X448744Y132435D01*
X448764Y132396D01*
X448782Y132377D01*
X448783Y132366D01*
Y132376D01*
X448782Y132377D01*
X448686Y133421D01*
X448676Y133499D01*
X448666Y133577D01*
X448657Y133625D01*
Y133635D01*
Y133645D01*
X448637Y133840D01*
X448617Y134006D01*
X448608Y134133D01*
Y134240D01*
X448598Y134328D01*
Y134387D01*
Y134416D01*
Y134426D01*
Y134504D01*
X448608Y134572D01*
X448647Y134679D01*
X448696Y134758D01*
X448744Y134806D01*
X448803Y134845D01*
X448852Y134855D01*
X448891Y134865D01*
X448901D01*
X449018Y134855D01*
X449135Y134826D01*
X449193Y134806D01*
X449232Y134787D01*
X449262Y134777D01*
X449271D01*
X449389Y134738D01*
X449476Y134709D01*
X449525Y134689D01*
X449545D01*
X449476Y134592D01*
X449428Y134494D01*
X449398Y134387D01*
X449369Y134289D01*
X449361Y134208D01*
X449457Y134055D01*
X449613Y133840D01*
X449769Y133625D01*
X449925Y133430D01*
X450072Y133255D01*
X450218Y133079D01*
X450364Y132932D01*
X450491Y132786D01*
X450618Y132659D01*
X450735Y132552D01*
X450833Y132464D01*
X450921Y132386D01*
X450989Y132318D01*
X451038Y132279D01*
X451077Y132249D01*
X451087Y132239D01*
X451272Y132103D01*
X451448Y131986D01*
X451614Y131878D01*
X451780Y131791D01*
X451936Y131722D01*
X452082Y131654D01*
X452219Y131605D01*
X452346Y131566D01*
X452463Y131537D01*
X452570Y131508D01*
X452658Y131488D01*
X452736Y131478D01*
X452805D01*
X452844Y131468D01*
X452883D01*
X453049Y131478D01*
X453195Y131517D01*
X453312Y131566D01*
X453419Y131644D01*
X453517Y131722D01*
X453595Y131820D01*
X453654Y131917D01*
X453702Y132025D01*
X453741Y132122D01*
X453771Y132220D01*
X453790Y132318D01*
X453800Y132396D01*
X453810Y132474D01*
X453820Y132523D01*
Y132562D01*
Y132571D01*
X453624Y132581D01*
X453429Y132591D01*
X453078Y132649D01*
X452912Y132698D01*
X452756Y132737D01*
X452609Y132786D01*
X452482Y132835D01*
X452355Y132884D01*
X452248Y132932D01*
X452160Y132981D01*
X452082Y133020D01*
X452014Y133050D01*
X451975Y133079D01*
X451946Y133089D01*
X451936Y133098D01*
X451789Y133196D01*
X451663Y133303D01*
X451555Y133401D01*
X451458Y133508D01*
X451379Y133606D01*
X451311Y133713D01*
X451262Y133801D01*
X451214Y133899D01*
X451155Y134055D01*
X451145Y134123D01*
X451126Y134182D01*
Y134231D01*
X451116Y134270D01*
Y134289D01*
Y134299D01*
X451126Y134445D01*
X451165Y134582D01*
X451214Y134689D01*
X451262Y134787D01*
X451321Y134865D01*
X451370Y134914D01*
X451409Y134953D01*
X451419Y134963D01*
X451536Y135050D01*
X451663Y135109D01*
X451789Y135158D01*
X451916Y135187D01*
X452033Y135207D01*
X452121Y135216D01*
X452199D01*
X452385Y135207D01*
D02*
G37*
G36*
X311987D02*
X312163Y135187D01*
X312339Y135148D01*
X312505Y135089D01*
X312651Y135031D01*
X312797Y134963D01*
X312934Y134894D01*
X313051Y134826D01*
X313158Y134748D01*
X313256Y134679D01*
X313344Y134611D01*
X313412Y134553D01*
X313461Y134504D01*
X313510Y134465D01*
X313529Y134435D01*
X313539Y134426D01*
X313666Y134279D01*
X313773Y134123D01*
X313871Y133967D01*
X313949Y133801D01*
X314017Y133645D01*
X314076Y133489D01*
X314125Y133333D01*
X314164Y133196D01*
X314193Y133059D01*
X314212Y132932D01*
X314232Y132825D01*
X314242Y132728D01*
Y132649D01*
X314251Y132591D01*
Y132552D01*
Y132542D01*
X314232Y132269D01*
X314193Y132035D01*
X314125Y131830D01*
X314056Y131654D01*
X313988Y131517D01*
X313920Y131420D01*
X313900Y131390D01*
X313881Y131361D01*
X313861Y131351D01*
Y131342D01*
X313783Y131263D01*
X313695Y131195D01*
X313520Y131088D01*
X313344Y131010D01*
X313168Y130961D01*
X313012Y130922D01*
X312944Y130912D01*
X312895D01*
X312846Y130902D01*
X312778D01*
X312573Y130912D01*
X312378Y130941D01*
X312173Y130990D01*
X311977Y131049D01*
X311782Y131117D01*
X311597Y131185D01*
X311421Y131273D01*
X311255Y131361D01*
X311099Y131439D01*
X310953Y131527D01*
X310836Y131595D01*
X310728Y131673D01*
X310640Y131722D01*
X310572Y131771D01*
X310533Y131800D01*
X310523Y131810D01*
X310309Y131986D01*
X310094Y132171D01*
X309899Y132357D01*
X309713Y132552D01*
X309547Y132747D01*
X309381Y132932D01*
X309235Y133118D01*
X309108Y133294D01*
X308991Y133459D01*
X308884Y133616D01*
X308796Y133752D01*
X308718Y133869D01*
X308659Y133967D01*
X308620Y134045D01*
X308591Y134084D01*
X308581Y134104D01*
X308913Y134289D01*
X309059Y134055D01*
X309215Y133840D01*
X309371Y133625D01*
X309528Y133430D01*
X309674Y133255D01*
X309821Y133079D01*
X309967Y132932D01*
X310094Y132786D01*
X310221Y132659D01*
X310338Y132552D01*
X310435Y132464D01*
X310523Y132386D01*
X310592Y132318D01*
X310640Y132279D01*
X310679Y132249D01*
X310689Y132239D01*
X310875Y132103D01*
X311050Y131986D01*
X311216Y131878D01*
X311382Y131791D01*
X311538Y131722D01*
X311685Y131654D01*
X311821Y131605D01*
X311948Y131566D01*
X312065Y131537D01*
X312173Y131508D01*
X312261Y131488D01*
X312339Y131478D01*
X312407D01*
X312446Y131468D01*
X312485D01*
X312651Y131478D01*
X312797Y131517D01*
X312914Y131566D01*
X313022Y131644D01*
X313119Y131722D01*
X313197Y131820D01*
X313256Y131917D01*
X313305Y132025D01*
X313344Y132122D01*
X313373Y132220D01*
X313393Y132318D01*
X313402Y132396D01*
X313412Y132474D01*
X313422Y132523D01*
Y132562D01*
Y132571D01*
X313227Y132581D01*
X313032Y132591D01*
X312680Y132649D01*
X312514Y132698D01*
X312358Y132737D01*
X312212Y132786D01*
X312085Y132835D01*
X311958Y132884D01*
X311851Y132932D01*
X311763Y132981D01*
X311685Y133020D01*
X311616Y133050D01*
X311577Y133079D01*
X311548Y133089D01*
X311538Y133098D01*
X311392Y133196D01*
X311265Y133303D01*
X311158Y133401D01*
X311060Y133508D01*
X310982Y133606D01*
X310914Y133713D01*
X310865Y133801D01*
X310816Y133899D01*
X310757Y134055D01*
X310748Y134123D01*
X310728Y134182D01*
Y134231D01*
X310718Y134270D01*
Y134289D01*
Y134299D01*
X310728Y134445D01*
X310767Y134582D01*
X310816Y134689D01*
X310865Y134787D01*
X310923Y134865D01*
X310972Y134914D01*
X311011Y134953D01*
X311021Y134963D01*
X311138Y135050D01*
X311265Y135109D01*
X311392Y135158D01*
X311519Y135187D01*
X311636Y135207D01*
X311724Y135216D01*
X311802D01*
X311987Y135207D01*
D02*
G37*
G36*
X460212Y135363D02*
X460242Y135304D01*
X460271Y135187D01*
X460281Y135148D01*
X460290Y135109D01*
Y135089D01*
Y135080D01*
X460281Y134982D01*
X460242Y134894D01*
X460232Y134845D01*
X460212Y134816D01*
X460203Y134797D01*
Y134787D01*
X460300Y134806D01*
X460388Y134826D01*
X460476D01*
X460632Y134816D01*
X460778Y134797D01*
X460925Y134767D01*
X461061Y134728D01*
X461305Y134621D01*
X461423Y134562D01*
X461520Y134504D01*
X461618Y134435D01*
X461696Y134377D01*
X461774Y134328D01*
X461833Y134279D01*
X461871Y134231D01*
X461911Y134201D01*
X461930Y134182D01*
X461940Y134172D01*
X462047Y134045D01*
X462145Y133918D01*
X462223Y133791D01*
X462291Y133665D01*
X462350Y133538D01*
X462408Y133411D01*
X462477Y133167D01*
X462506Y133059D01*
X462525Y132962D01*
X462527Y132947D01*
X462574Y132874D01*
X462682Y132728D01*
X462789Y132591D01*
X462887Y132464D01*
X462974Y132347D01*
X463072Y132249D01*
X463150Y132152D01*
X463228Y132064D01*
X463384Y131927D01*
X463511Y131810D01*
X463619Y131732D01*
X463716Y131664D01*
X463794Y131625D01*
X463853Y131605D01*
X463892Y131595D01*
X463921Y131586D01*
X463931D01*
X463989Y131595D01*
X464038Y131605D01*
X464116Y131654D01*
X464175Y131732D01*
X464214Y131810D01*
X464233Y131888D01*
X464243Y131966D01*
X464253Y132015D01*
Y132035D01*
Y132142D01*
X464233Y132269D01*
X464224Y132405D01*
X464204Y132532D01*
X464185Y132649D01*
X464175Y132747D01*
X464165Y132786D01*
X464155Y132815D01*
Y132825D01*
Y132835D01*
X464038Y133421D01*
X464009Y133577D01*
X463980Y133713D01*
X463960Y133850D01*
X463941Y133957D01*
X463921Y134065D01*
X463902Y134152D01*
X463892Y134231D01*
X463882Y134299D01*
X463872Y134357D01*
Y134406D01*
X463863Y134484D01*
Y134523D01*
Y134533D01*
X463872Y134650D01*
X463892Y134758D01*
X463921Y134845D01*
X463950Y134933D01*
X463999Y134992D01*
X464048Y135050D01*
X464097Y135099D01*
X464155Y135128D01*
X464263Y135177D01*
X464360Y135207D01*
X464390Y135216D01*
X464448D01*
X464546Y135207D01*
X464653Y135177D01*
X464751Y135138D01*
X464858Y135080D01*
X464965Y135021D01*
X465063Y134953D01*
X465258Y134797D01*
X465434Y134641D01*
X465502Y134562D01*
X465571Y134504D01*
X465619Y134445D01*
X465658Y134406D01*
X465678Y134377D01*
X465688Y134367D01*
X465824Y134201D01*
X465951Y134026D01*
X466205Y133655D01*
X466439Y133284D01*
X466547Y133098D01*
X466654Y132923D01*
X466742Y132757D01*
X466830Y132601D01*
X466898Y132464D01*
X466957Y132347D01*
X467005Y132249D01*
X467044Y132171D01*
X467064Y132132D01*
X467074Y132113D01*
X466839Y133264D01*
X466800Y133440D01*
X466771Y133606D01*
X466742Y133752D01*
X466722Y133889D01*
X466703Y134006D01*
X466683Y134104D01*
X466673Y134201D01*
X466664Y134279D01*
X466654Y134348D01*
X466644Y134397D01*
Y134445D01*
X466634Y134484D01*
Y134533D01*
Y134543D01*
X466644Y134660D01*
X466654Y134767D01*
X466673Y134855D01*
X466703Y134933D01*
X466742Y135002D01*
X466781Y135050D01*
X466820Y135099D01*
X466869Y135128D01*
X466957Y135177D01*
X467025Y135207D01*
X467083Y135216D01*
X467103D01*
X467201Y135207D01*
X467308Y135187D01*
X467405Y135148D01*
X467513Y135089D01*
X467610Y135031D01*
X467718Y134953D01*
X467825Y134865D01*
X467923Y134767D01*
X468128Y134543D01*
X468333Y134299D01*
X468528Y134045D01*
X468704Y133772D01*
X468879Y133499D01*
X469035Y133245D01*
X469172Y133001D01*
X469289Y132776D01*
X469348Y132679D01*
X469387Y132591D01*
X469426Y132513D01*
X469465Y132454D01*
X469484Y132396D01*
X469504Y132357D01*
X469522Y132338D01*
X469426Y133411D01*
X469406Y133577D01*
X469396Y133713D01*
X469377Y133840D01*
X469367Y133957D01*
X469357Y134055D01*
X469348Y134143D01*
Y134211D01*
X469338Y134270D01*
Y134328D01*
X469328Y134367D01*
Y134416D01*
Y134445D01*
Y134455D01*
X469338Y134592D01*
X469377Y134689D01*
X469436Y134758D01*
X469494Y134806D01*
X469562Y134836D01*
X469611Y134845D01*
X469650Y134855D01*
X469670D01*
X469748Y134845D01*
X469836Y134826D01*
X470041Y134777D01*
X470138Y134738D01*
X470216Y134719D01*
X470265Y134699D01*
X470275Y134689D01*
X470285D01*
X470226Y134601D01*
X470177Y134504D01*
X470148Y134387D01*
X470119Y134279D01*
X470112Y134207D01*
X470207Y134055D01*
X470363Y133840D01*
X470519Y133625D01*
X470675Y133430D01*
X470821Y133255D01*
X470968Y133079D01*
X471114Y132932D01*
X471241Y132786D01*
X471368Y132659D01*
X471485Y132552D01*
X471583Y132464D01*
X471671Y132386D01*
X471739Y132318D01*
X471788Y132279D01*
X471827Y132249D01*
X471837Y132239D01*
X472022Y132103D01*
X472198Y131986D01*
X472364Y131878D01*
X472529Y131791D01*
X472686Y131722D01*
X472832Y131654D01*
X472969Y131605D01*
X473096Y131566D01*
X473213Y131537D01*
X473320Y131508D01*
X473408Y131488D01*
X473486Y131478D01*
X473554D01*
X473593Y131468D01*
X473632D01*
X473798Y131478D01*
X473945Y131517D01*
X474062Y131566D01*
X474169Y131644D01*
X474267Y131722D01*
X474345Y131820D01*
X474403Y131917D01*
X474452Y132025D01*
X474491Y132122D01*
X474520Y132220D01*
X474540Y132318D01*
X474550Y132396D01*
X474559Y132474D01*
X474569Y132523D01*
Y132562D01*
Y132571D01*
X474374Y132581D01*
X474179Y132591D01*
X473828Y132649D01*
X473662Y132698D01*
X473505Y132737D01*
X473359Y132786D01*
X473232Y132835D01*
X473105Y132884D01*
X472998Y132932D01*
X472910Y132981D01*
X472832Y133020D01*
X472764Y133050D01*
X472725Y133079D01*
X472695Y133089D01*
X472686Y133098D01*
X472539Y133196D01*
X472412Y133303D01*
X472305Y133401D01*
X472207Y133508D01*
X472129Y133606D01*
X472061Y133713D01*
X472012Y133801D01*
X471963Y133899D01*
X471905Y134055D01*
X471895Y134123D01*
X471875Y134182D01*
Y134231D01*
X471866Y134270D01*
Y134289D01*
Y134299D01*
X471875Y134445D01*
X471915Y134582D01*
X471963Y134689D01*
X472012Y134787D01*
X472071Y134865D01*
X472120Y134914D01*
X472159Y134953D01*
X472168Y134963D01*
X472285Y135050D01*
X472412Y135109D01*
X472539Y135158D01*
X472666Y135187D01*
X472783Y135207D01*
X472871Y135216D01*
X472949D01*
X473135Y135207D01*
X473310Y135187D01*
X473486Y135148D01*
X473652Y135089D01*
X473798Y135031D01*
X473945Y134963D01*
X474081Y134894D01*
X474198Y134826D01*
X474306Y134748D01*
X474403Y134679D01*
X474491Y134611D01*
X474559Y134553D01*
X474608Y134504D01*
X474657Y134465D01*
X474677Y134435D01*
X474686Y134426D01*
X474813Y134279D01*
X474921Y134123D01*
X475018Y133967D01*
X475096Y133801D01*
X475165Y133645D01*
X475223Y133489D01*
X475272Y133333D01*
X475311Y133196D01*
X475340Y133059D01*
X475360Y132932D01*
X475379Y132825D01*
X475389Y132728D01*
Y132649D01*
X475399Y132591D01*
Y132552D01*
Y132542D01*
X475379Y132269D01*
X475340Y132035D01*
X475272Y131830D01*
X475204Y131654D01*
X475135Y131517D01*
X475067Y131420D01*
X475047Y131390D01*
X475028Y131361D01*
X475008Y131351D01*
Y131342D01*
X474930Y131263D01*
X474843Y131195D01*
X474667Y131088D01*
X474491Y131010D01*
X474316Y130961D01*
X474159Y130922D01*
X474091Y130912D01*
X474042D01*
X473993Y130902D01*
X473925D01*
X473720Y130912D01*
X473525Y130941D01*
X473320Y130990D01*
X473125Y131049D01*
X472930Y131117D01*
X472744Y131185D01*
X472569Y131273D01*
X472403Y131361D01*
X472246Y131439D01*
X472100Y131527D01*
X471983Y131595D01*
X471875Y131673D01*
X471788Y131722D01*
X471719Y131771D01*
X471680Y131800D01*
X471671Y131810D01*
X471456Y131986D01*
X471241Y132171D01*
X471046Y132357D01*
X470860Y132552D01*
X470695Y132747D01*
X470529Y132932D01*
X470382Y133118D01*
X470255Y133294D01*
X470138Y133459D01*
X470120Y133486D01*
X470128Y133391D01*
X470138Y133303D01*
X470148Y133255D01*
Y133245D01*
Y133235D01*
X470236Y132425D01*
X470255Y132239D01*
X470275Y132074D01*
X470285Y131937D01*
X470294Y131810D01*
X470304Y131703D01*
X470314Y131615D01*
X470324Y131547D01*
X470333Y131478D01*
Y131429D01*
Y131400D01*
X470343Y131351D01*
Y131322D01*
X470324Y131185D01*
X470285Y131088D01*
X470216Y131010D01*
X470148Y130961D01*
X470080Y130932D01*
X470011Y130922D01*
X469972Y130912D01*
X469953D01*
X469816Y130922D01*
X469689Y130961D01*
X469640Y130971D01*
X469601Y130990D01*
X469572Y131000D01*
X469562D01*
X469592Y131049D01*
X469611Y131098D01*
X469621Y131137D01*
Y131146D01*
X469611Y131215D01*
X469582Y131303D01*
X469543Y131410D01*
X469494Y131537D01*
X469436Y131673D01*
X469367Y131820D01*
X469221Y132122D01*
X469152Y132269D01*
X469084Y132405D01*
X469016Y132542D01*
X468957Y132649D01*
X468899Y132747D01*
X468860Y132825D01*
X468840Y132864D01*
X468830Y132884D01*
X468684Y133147D01*
X468547Y133372D01*
X468430Y133567D01*
X468313Y133733D01*
X468206Y133879D01*
X468098Y133996D01*
X468011Y134094D01*
X467933Y134172D01*
X467864Y134231D01*
X467806Y134279D01*
X467747Y134309D01*
X467708Y134338D01*
X467649Y134357D01*
X467630D01*
X467562Y134348D01*
X467513Y134318D01*
X467484Y134270D01*
X467454Y134231D01*
X467445Y134182D01*
X467435Y134133D01*
Y134104D01*
Y134094D01*
Y134055D01*
X467445Y134006D01*
X467454Y133938D01*
X467464Y133860D01*
X467493Y133694D01*
X467523Y133518D01*
X467562Y133342D01*
X467581Y133264D01*
X467591Y133196D01*
X467601Y133137D01*
X467610Y133098D01*
X467620Y133069D01*
Y133059D01*
X467776Y132249D01*
X467806Y132093D01*
X467825Y132025D01*
X467835Y131966D01*
X467845Y131917D01*
X467854Y131878D01*
X467864Y131859D01*
Y131849D01*
X467903Y131673D01*
X467923Y131537D01*
X467942Y131429D01*
X467962Y131351D01*
Y131293D01*
X467972Y131263D01*
Y131244D01*
Y131234D01*
X467952Y131127D01*
X467913Y131039D01*
X467864Y130981D01*
X467796Y130941D01*
X467728Y130922D01*
X467679Y130912D01*
X467640Y130902D01*
X467552D01*
X467493Y130912D01*
X467464Y130922D01*
X467454D01*
X467366Y130951D01*
X467308Y130961D01*
X467279Y130971D01*
X467269D01*
X467279Y131000D01*
Y131019D01*
Y131039D01*
X467269Y131098D01*
X467240Y131176D01*
X467191Y131273D01*
X467132Y131400D01*
X467054Y131527D01*
X466976Y131673D01*
X466800Y131966D01*
X466713Y132113D01*
X466625Y132259D01*
X466547Y132386D01*
X466468Y132503D01*
X466410Y132601D01*
X466361Y132669D01*
X466332Y132718D01*
X466322Y132737D01*
X466127Y133030D01*
X465951Y133274D01*
X465795Y133499D01*
X465639Y133684D01*
X465512Y133840D01*
X465385Y133977D01*
X465278Y134084D01*
X465190Y134172D01*
X465102Y134240D01*
X465034Y134289D01*
X464975Y134328D01*
X464926Y134348D01*
X464897Y134367D01*
X464868Y134377D01*
X464848D01*
X464790Y134367D01*
X464751Y134348D01*
X464712Y134328D01*
X464692Y134299D01*
X464673Y134240D01*
Y134221D01*
Y134211D01*
Y134143D01*
X464692Y134055D01*
X464702Y133948D01*
X464721Y133830D01*
X464741Y133723D01*
X464760Y133635D01*
X464770Y133596D01*
Y133567D01*
X464780Y133557D01*
Y133547D01*
X464887Y133020D01*
X464936Y132757D01*
X464975Y132532D01*
X464995Y132347D01*
X465014Y132191D01*
X465024Y132074D01*
X465034Y131995D01*
Y131947D01*
Y131927D01*
X465024Y131752D01*
X465004Y131586D01*
X464965Y131449D01*
X464907Y131332D01*
X464848Y131234D01*
X464790Y131156D01*
X464712Y131088D01*
X464643Y131029D01*
X464575Y130990D01*
X464497Y130961D01*
X464370Y130922D01*
X464321Y130912D01*
X464282Y130902D01*
X464253D01*
X464136Y130912D01*
X464019Y130941D01*
X463902Y130981D01*
X463775Y131039D01*
X463658Y131117D01*
X463531Y131195D01*
X463404Y131293D01*
X463287Y131400D01*
X463043Y131644D01*
X462799Y131917D01*
X462574Y132210D01*
X462516Y132288D01*
X462477Y132122D01*
X462399Y131908D01*
X462311Y131722D01*
X462223Y131576D01*
X462184Y131517D01*
X462155Y131468D01*
X462115Y131429D01*
X462096Y131400D01*
X462086Y131390D01*
X462077Y131381D01*
X461979Y131293D01*
X461881Y131225D01*
X461784Y131156D01*
X461676Y131107D01*
X461471Y131019D01*
X461276Y130961D01*
X461100Y130932D01*
X461032Y130922D01*
X460964Y130912D01*
X460905Y130902D01*
X460837D01*
X460651Y130912D01*
X460476Y130941D01*
X460300Y130981D01*
X460144Y131029D01*
X459988Y131088D01*
X459841Y131156D01*
X459705Y131234D01*
X459588Y131312D01*
X459480Y131381D01*
X459373Y131459D01*
X459295Y131527D01*
X459217Y131586D01*
X459168Y131634D01*
X459119Y131673D01*
X459100Y131703D01*
X459090Y131712D01*
X458953Y131869D01*
X458846Y132035D01*
X458739Y132191D01*
X458651Y132357D01*
X458582Y132523D01*
X458524Y132679D01*
X458475Y132835D01*
X458436Y132981D01*
X458397Y133108D01*
X458377Y133235D01*
X458358Y133342D01*
X458348Y133440D01*
X458338Y133518D01*
Y133577D01*
Y133616D01*
Y133625D01*
Y133684D01*
X458348Y133733D01*
X458358Y133772D01*
Y133791D01*
X458163Y133733D01*
X457977Y133694D01*
X457811Y133655D01*
X457675Y133635D01*
X457558Y133625D01*
X457470Y133616D01*
X457392D01*
X457275Y133625D01*
X457157Y133635D01*
X456933Y133684D01*
X456718Y133752D01*
X456533Y133830D01*
X456377Y133899D01*
X456308Y133938D01*
X456259Y133967D01*
X456211Y133996D01*
X456181Y134016D01*
X456162Y134035D01*
X456152D01*
X456347Y134348D01*
X456533Y134250D01*
X456718Y134182D01*
X456874Y134133D01*
X457021Y134104D01*
X457138Y134084D01*
X457226Y134065D01*
X457304D01*
X457558Y134084D01*
X457802Y134133D01*
X458026Y134192D01*
X458221Y134270D01*
X458387Y134348D01*
X458456Y134377D01*
X458514Y134406D01*
X458563Y134435D01*
X458592Y134455D01*
X458612Y134475D01*
X458621D01*
X458739Y134631D01*
X458865Y134767D01*
X458992Y134885D01*
X459119Y134992D01*
X459256Y135089D01*
X459383Y135168D01*
X459510Y135226D01*
X459627Y135285D01*
X459744Y135324D01*
X459841Y135363D01*
X459939Y135382D01*
X460017Y135402D01*
X460085Y135421D01*
X460134Y135431D01*
X460173D01*
X460212Y135363D01*
D02*
G37*
G36*
X480679Y137266D02*
X480786Y137237D01*
X480903Y137188D01*
X481030Y137139D01*
X481147Y137090D01*
X481245Y137041D01*
X481284Y137032D01*
X481313Y137012D01*
X481333Y137002D01*
X481343D01*
X481284Y136973D01*
X481226Y136934D01*
X481118Y136837D01*
X481021Y136719D01*
X480943Y136592D01*
X480874Y136475D01*
X480825Y136378D01*
X480806Y136339D01*
X480796Y136309D01*
X480786Y136290D01*
Y136280D01*
X480669Y135978D01*
X481235Y133557D01*
X481313Y133215D01*
X481382Y132903D01*
X481440Y132630D01*
X481499Y132386D01*
X481538Y132171D01*
X481577Y131976D01*
X481606Y131820D01*
X481626Y131683D01*
X481645Y131566D01*
X481665Y131468D01*
X481675Y131400D01*
Y131342D01*
X481684Y131303D01*
Y131273D01*
Y131263D01*
Y131254D01*
X481675Y131185D01*
X481665Y131127D01*
X481616Y131029D01*
X481548Y130961D01*
X481470Y130912D01*
X481401Y130883D01*
X481333Y130873D01*
X481284Y130863D01*
X481265D01*
X481157Y130873D01*
X481050Y130883D01*
X480943Y130902D01*
X480845Y130932D01*
X480767Y130961D01*
X480699Y130981D01*
X480659Y130990D01*
X480640Y131000D01*
X480738Y131088D01*
X480806Y131205D01*
X480864Y131322D01*
X480894Y131439D01*
X480913Y131556D01*
X480923Y131644D01*
X480933Y131683D01*
Y131712D01*
Y131722D01*
Y131732D01*
X480923Y131878D01*
X480913Y132044D01*
X480894Y132220D01*
X480864Y132386D01*
X480835Y132542D01*
X480825Y132601D01*
X480816Y132659D01*
X480806Y132708D01*
Y132747D01*
X480796Y132767D01*
Y132776D01*
X480308Y135207D01*
X480191Y134933D01*
X480152Y134836D01*
X480093Y134719D01*
X480035Y134592D01*
X479976Y134455D01*
X479927Y134328D01*
X479879Y134231D01*
X479859Y134192D01*
X479849Y134162D01*
X479840Y134143D01*
Y134133D01*
X479693Y133801D01*
X479557Y133499D01*
X479430Y133225D01*
X479313Y132962D01*
X479205Y132737D01*
X479098Y132523D01*
X479010Y132337D01*
X478922Y132171D01*
X478844Y132035D01*
X478776Y131908D01*
X478727Y131810D01*
X478678Y131732D01*
X478639Y131664D01*
X478610Y131625D01*
X478600Y131595D01*
X478590Y131586D01*
X478503Y131459D01*
X478415Y131351D01*
X478327Y131254D01*
X478249Y131166D01*
X478171Y131098D01*
X478102Y131039D01*
X478034Y130990D01*
X477966Y130951D01*
X477858Y130902D01*
X477771Y130873D01*
X477722Y130863D01*
X477702D01*
X477614Y130883D01*
X477527Y130922D01*
X477449Y130990D01*
X477361Y131068D01*
X477292Y131176D01*
X477214Y131283D01*
X477087Y131537D01*
X476980Y131781D01*
X476941Y131888D01*
X476902Y131995D01*
X476873Y132074D01*
X476853Y132142D01*
X476834Y132181D01*
Y132201D01*
X476746Y132523D01*
X476668Y132864D01*
X476590Y133196D01*
X476521Y133518D01*
X476502Y133665D01*
X476473Y133801D01*
X476453Y133918D01*
X476433Y134026D01*
X476414Y134104D01*
X476404Y134172D01*
X476394Y134211D01*
Y134221D01*
X476355Y134445D01*
X476326Y134650D01*
X476297Y134836D01*
X476277Y135011D01*
X476258Y135177D01*
X476238Y135324D01*
X476229Y135451D01*
X476219Y135577D01*
X476209Y135675D01*
X476199Y135773D01*
Y135841D01*
X476189Y135909D01*
Y135958D01*
Y135987D01*
Y136007D01*
Y136017D01*
Y136144D01*
X476209Y136261D01*
X476229Y136358D01*
X476258Y136446D01*
X476297Y136514D01*
X476336Y136573D01*
X476375Y136632D01*
X476414Y136671D01*
X476502Y136719D01*
X476580Y136749D01*
X476629Y136758D01*
X476648D01*
X476765Y136749D01*
X476882Y136719D01*
X476990Y136671D01*
X477097Y136622D01*
X477185Y136573D01*
X477263Y136524D01*
X477302Y136495D01*
X477322Y136485D01*
X477244Y136427D01*
X477165Y136348D01*
X477107Y136261D01*
X477058Y136163D01*
X476970Y135958D01*
X476921Y135753D01*
X476882Y135558D01*
X476873Y135470D01*
Y135392D01*
X476863Y135324D01*
Y135275D01*
Y135246D01*
Y135236D01*
X476873Y134797D01*
X476902Y134387D01*
X476921Y134182D01*
X476941Y133996D01*
X476970Y133821D01*
X476990Y133655D01*
X477009Y133499D01*
X477039Y133362D01*
X477058Y133235D01*
X477078Y133137D01*
X477097Y133050D01*
X477107Y132991D01*
X477117Y132952D01*
Y132942D01*
X477165Y132747D01*
X477205Y132571D01*
X477253Y132425D01*
X477302Y132298D01*
X477341Y132191D01*
X477390Y132103D01*
X477429Y132025D01*
X477468Y131966D01*
X477497Y131927D01*
X477536Y131888D01*
X477566Y131869D01*
X477585Y131849D01*
X477624Y131830D01*
X477634D01*
X477673Y131839D01*
X477712Y131859D01*
X477751Y131898D01*
X477800Y131947D01*
X477849Y132005D01*
X477897Y132074D01*
X478015Y132239D01*
X478132Y132435D01*
X478259Y132659D01*
X478376Y132893D01*
X478503Y133147D01*
X478620Y133391D01*
X478737Y133625D01*
X478834Y133850D01*
X478922Y134045D01*
X479000Y134211D01*
X479030Y134279D01*
X479059Y134338D01*
X479078Y134387D01*
X479098Y134426D01*
X479108Y134445D01*
Y134455D01*
X479195Y134670D01*
X479283Y134875D01*
X479361Y135060D01*
X479439Y135236D01*
X479508Y135402D01*
X479576Y135568D01*
X479635Y135714D01*
X479693Y135851D01*
X479801Y136095D01*
X479888Y136300D01*
X479967Y136475D01*
X480035Y136622D01*
X480084Y136739D01*
X480132Y136837D01*
X480162Y136905D01*
X480181Y136963D01*
X480201Y136993D01*
X480211Y137022D01*
X480220Y137032D01*
X480269Y137110D01*
X480337Y137168D01*
X480396Y137217D01*
X480464Y137246D01*
X480523Y137266D01*
X480572Y137276D01*
X480640D01*
X480679Y137266D01*
D02*
G37*
G36*
X333371Y136680D02*
X333498Y136583D01*
X333625Y136495D01*
X333742Y136417D01*
X333850Y136358D01*
X333937Y136309D01*
X333996Y136270D01*
X334006Y136261D01*
X334015D01*
X334181Y136183D01*
X334328Y136114D01*
X334445Y136075D01*
X334552Y136046D01*
X334630Y136026D01*
X334689Y136017D01*
X334728Y136007D01*
X334738D01*
X334796Y136017D01*
X334845Y135851D01*
X334855Y135773D01*
X334865Y135695D01*
X334874Y135636D01*
Y135587D01*
Y135548D01*
Y135538D01*
X334865Y135480D01*
X334855Y135431D01*
X334826Y135402D01*
X334796Y135372D01*
X334748Y135353D01*
X334728D01*
X334679Y135363D01*
X334630Y135372D01*
X334494Y135441D01*
X334357Y135519D01*
X334211Y135626D01*
X334074Y135724D01*
X333967Y135802D01*
X333918Y135841D01*
X333889Y135870D01*
X333869Y135880D01*
X333859Y135890D01*
X333713Y136026D01*
X333586Y136173D01*
X333479Y136329D01*
X333401Y136466D01*
X333342Y136592D01*
X333293Y136690D01*
X333283Y136729D01*
X333274Y136758D01*
X333264Y136768D01*
Y136778D01*
X333371Y136680D01*
D02*
G37*
G36*
X274050Y137529D02*
X274138D01*
X274099Y137461D01*
X274070Y137383D01*
X274021Y137198D01*
X273991Y137002D01*
X273962Y136807D01*
X273953Y136632D01*
Y136553D01*
X273943Y136485D01*
Y136427D01*
Y136388D01*
Y136358D01*
Y136348D01*
X273933Y136134D01*
Y136036D01*
X273923Y135958D01*
X273904Y135899D01*
X273894Y135851D01*
X273874Y135812D01*
X273865Y135782D01*
X273855Y135773D01*
Y135763D01*
X273816Y135734D01*
X273777Y135704D01*
X273669Y135675D01*
X273630D01*
X273591Y135665D01*
X273425D01*
X273455Y135734D01*
X273474Y135792D01*
X273484Y135831D01*
Y135851D01*
Y135919D01*
X273474Y135997D01*
X273455Y136173D01*
X273445Y136251D01*
X273435Y136319D01*
X273425Y136358D01*
Y136378D01*
X273396Y136710D01*
X273377Y136846D01*
X273367Y136954D01*
X273357Y137041D01*
Y137110D01*
X273347Y137149D01*
Y137188D01*
Y137198D01*
Y137207D01*
X273357Y137266D01*
X273377Y137315D01*
X273406Y137364D01*
X273435Y137403D01*
X273533Y137461D01*
X273640Y137500D01*
X273757Y137520D01*
X273845Y137539D01*
X273943D01*
X274050Y137529D01*
D02*
G37*
G36*
X272723D02*
X272811D01*
X272772Y137461D01*
X272742Y137383D01*
X272693Y137207D01*
X272664Y137012D01*
X272635Y136817D01*
X272625Y136632D01*
Y136553D01*
X272615Y136485D01*
Y136427D01*
Y136388D01*
Y136358D01*
Y136348D01*
Y136134D01*
Y136036D01*
X272606Y135958D01*
X272586Y135899D01*
X272576Y135851D01*
X272557Y135812D01*
X272547Y135782D01*
X272537Y135773D01*
Y135763D01*
X272498Y135734D01*
X272459Y135704D01*
X272352Y135675D01*
X272303D01*
X272264Y135665D01*
X272108D01*
X272137Y135743D01*
X272157Y135802D01*
X272166Y135851D01*
Y135870D01*
Y135919D01*
X272157Y135987D01*
X272147Y136075D01*
X272137Y136163D01*
X272127Y136241D01*
X272118Y136309D01*
X272108Y136358D01*
Y136378D01*
X272069Y136710D01*
X272049Y136846D01*
X272040Y136954D01*
X272030Y137041D01*
Y137110D01*
X272020Y137159D01*
Y137188D01*
Y137207D01*
X272030Y137266D01*
X272049Y137315D01*
X272079Y137364D01*
X272108Y137403D01*
X272205Y137461D01*
X272313Y137500D01*
X272430Y137520D01*
X272518Y137539D01*
X272615D01*
X272723Y137529D01*
D02*
G37*
G36*
X386437Y136797D02*
X386583Y136768D01*
X386710Y136739D01*
X386817Y136700D01*
X386895Y136651D01*
X386954Y136622D01*
X386993Y136592D01*
X387003Y136583D01*
X387090Y136485D01*
X387169Y136368D01*
X387247Y136231D01*
X387305Y136095D01*
X387354Y135968D01*
X387393Y135870D01*
X387403Y135831D01*
X387413Y135802D01*
X387422Y135782D01*
Y135773D01*
X387491Y135519D01*
X388183D01*
X388291Y135499D01*
X388369Y135490D01*
X388437Y135470D01*
X388486Y135451D01*
X388525Y135431D01*
X388545Y135421D01*
X388554Y135412D01*
X388613Y135363D01*
X388671Y135294D01*
X388730Y135216D01*
X388789Y135128D01*
X388837Y135050D01*
X388877Y134982D01*
X388906Y134933D01*
X388915Y134914D01*
X388818Y134953D01*
X388720Y134982D01*
X388613Y135002D01*
X388506Y135021D01*
X388418D01*
X388349Y135031D01*
X387637D01*
X387813Y134387D01*
X387881Y134143D01*
X387940Y133918D01*
X387971Y133786D01*
X387988Y133762D01*
X388115Y133596D01*
X388232Y133440D01*
X388349Y133294D01*
X388457Y133167D01*
X388564Y133050D01*
X388652Y132942D01*
X388740Y132845D01*
X388818Y132767D01*
X388877Y132698D01*
X388935Y132640D01*
X388974Y132601D01*
X388994Y132581D01*
X389003Y132571D01*
X389130Y132454D01*
X389257Y132347D01*
X389374Y132259D01*
X389482Y132181D01*
X389579Y132113D01*
X389667Y132054D01*
X389755Y132005D01*
X389833Y131976D01*
X389960Y131927D01*
X390048Y131898D01*
X390106Y131888D01*
X390126D01*
X390194Y131898D01*
X390253Y131927D01*
X390301Y131966D01*
X390350Y132015D01*
X390409Y132152D01*
X390458Y132308D01*
X390487Y132454D01*
X390497Y132591D01*
X390506Y132640D01*
Y132679D01*
Y132708D01*
Y132718D01*
X390497Y132981D01*
X390487Y133215D01*
X390467Y133430D01*
X390448Y133616D01*
X390428Y133772D01*
Y133830D01*
X390419Y133879D01*
X390409Y133918D01*
X390399Y133957D01*
Y133967D01*
Y133977D01*
X390340Y134299D01*
X390292Y134504D01*
X390243Y134679D01*
X390184Y134836D01*
X390126Y134972D01*
X390087Y135070D01*
X390048Y135148D01*
X390018Y135187D01*
X390009Y135207D01*
X390282D01*
X390389Y135187D01*
X390487Y135177D01*
X390575Y135148D01*
X390653Y135128D01*
X390721Y135099D01*
X390819Y135031D01*
X390887Y134963D01*
X390926Y134914D01*
X390946Y134875D01*
X390955Y134855D01*
X391199Y134972D01*
X391434Y135060D01*
X391648Y135128D01*
X391834Y135168D01*
X391990Y135197D01*
X392049Y135207D01*
X392107D01*
X392146Y135216D01*
X392205D01*
X392380Y135207D01*
X392546Y135177D01*
X392712Y135128D01*
X392868Y135080D01*
X393015Y135002D01*
X393151Y134933D01*
X393278Y134845D01*
X393395Y134767D01*
X393503Y134679D01*
X393591Y134592D01*
X393678Y134523D01*
X393747Y134455D01*
X393805Y134397D01*
X393844Y134348D01*
X393864Y134318D01*
X393874Y134309D01*
X394001Y134133D01*
X394108Y133957D01*
X394205Y133782D01*
X394284Y133596D01*
X394352Y133421D01*
X394410Y133245D01*
X394459Y133079D01*
X394498Y132923D01*
X394528Y132767D01*
X394547Y132640D01*
X394567Y132513D01*
X394576Y132415D01*
Y132327D01*
X394586Y132259D01*
Y132220D01*
Y132210D01*
X394576Y131995D01*
X394547Y131810D01*
X394508Y131644D01*
X394469Y131508D01*
X394430Y131400D01*
X394391Y131322D01*
X394362Y131273D01*
X394352Y131254D01*
X394254Y131137D01*
X394147Y131049D01*
X394040Y130990D01*
X393942Y130951D01*
X393844Y130922D01*
X393776Y130912D01*
X393727Y130902D01*
X393708D01*
X393600Y130912D01*
X393503Y130932D01*
X393395Y130971D01*
X393288Y131010D01*
X393073Y131127D01*
X392878Y131254D01*
X392712Y131381D01*
X392644Y131439D01*
X392576Y131498D01*
X392527Y131537D01*
X392488Y131576D01*
X392468Y131595D01*
X392458Y131605D01*
X392205Y131878D01*
X391970Y132171D01*
X391765Y132454D01*
X391590Y132728D01*
X391512Y132845D01*
X391453Y132962D01*
X391395Y133059D01*
X391346Y133147D01*
X391307Y133215D01*
X391277Y133264D01*
X391268Y133303D01*
X391258Y133313D01*
X391268Y133147D01*
Y132991D01*
Y132864D01*
X391277Y132757D01*
Y132669D01*
Y132601D01*
Y132562D01*
Y132552D01*
X391268Y132308D01*
X391238Y132103D01*
X391199Y131917D01*
X391151Y131761D01*
X391092Y131634D01*
X391024Y131517D01*
X390946Y131429D01*
X390867Y131361D01*
X390799Y131303D01*
X390721Y131254D01*
X390653Y131225D01*
X390594Y131205D01*
X390545Y131195D01*
X390506Y131185D01*
X390467D01*
X390340Y131195D01*
X390214Y131225D01*
X390077Y131263D01*
X389950Y131312D01*
X389687Y131449D01*
X389443Y131605D01*
X389335Y131673D01*
X389238Y131752D01*
X389140Y131820D01*
X389062Y131888D01*
X389003Y131937D01*
X388955Y131976D01*
X388925Y132005D01*
X388915Y132015D01*
X388750Y132181D01*
X388584Y132347D01*
X388281Y132698D01*
X388133Y132889D01*
X388135Y132874D01*
X388154Y132757D01*
X388164Y132649D01*
X388174Y132562D01*
Y132493D01*
X388183Y132435D01*
Y132386D01*
Y132366D01*
Y132357D01*
X388174Y132122D01*
X388135Y131917D01*
X388096Y131742D01*
X388037Y131586D01*
X387988Y131468D01*
X387940Y131381D01*
X387910Y131322D01*
X387900Y131303D01*
X387783Y131166D01*
X387666Y131068D01*
X387539Y131000D01*
X387422Y130951D01*
X387315Y130922D01*
X387237Y130912D01*
X387178Y130902D01*
X387159D01*
X387061Y130912D01*
X386964Y130922D01*
X386759Y130971D01*
X386573Y131039D01*
X386397Y131127D01*
X386241Y131205D01*
X386173Y131244D01*
X386124Y131273D01*
X386075Y131303D01*
X386046Y131322D01*
X386027Y131342D01*
X386017D01*
X385909Y131429D01*
X385812Y131508D01*
X385724Y131586D01*
X385656Y131664D01*
X385597Y131732D01*
X385548Y131800D01*
X385470Y131917D01*
X385421Y132025D01*
X385402Y132093D01*
X385392Y132142D01*
Y132161D01*
X385412Y132279D01*
X385441Y132386D01*
X385460Y132425D01*
X385470Y132464D01*
X385490Y132483D01*
Y132493D01*
X385558Y132366D01*
X385646Y132249D01*
X385734Y132142D01*
X385831Y132044D01*
X385909Y131966D01*
X385978Y131908D01*
X386027Y131869D01*
X386046Y131859D01*
X386183Y131771D01*
X386319Y131703D01*
X386437Y131654D01*
X386544Y131625D01*
X386622Y131605D01*
X386690Y131586D01*
X386749D01*
X386856Y131595D01*
X386954Y131625D01*
X387042Y131664D01*
X387120Y131722D01*
X387178Y131791D01*
X387227Y131869D01*
X387305Y132025D01*
X387354Y132191D01*
X387364Y132259D01*
X387373Y132327D01*
X387383Y132386D01*
Y132425D01*
Y132454D01*
Y132464D01*
X387373Y132620D01*
X387364Y132796D01*
X387344Y132981D01*
X387305Y133177D01*
X387237Y133567D01*
X387149Y133948D01*
X387100Y134133D01*
X387061Y134299D01*
X387022Y134445D01*
X386983Y134582D01*
X386954Y134689D01*
X386934Y134767D01*
X386925Y134816D01*
X386915Y134836D01*
X386905Y134894D01*
X386885Y134963D01*
X386876Y135011D01*
X386866Y135021D01*
Y135031D01*
X384729D01*
X384582Y135041D01*
X384455Y135050D01*
X384358Y135070D01*
X384270Y135089D01*
X384211Y135109D01*
X384172Y135128D01*
X384153Y135148D01*
X384143D01*
X384084Y135207D01*
X384035Y135275D01*
X383997Y135363D01*
X383957Y135451D01*
X383928Y135529D01*
X383909Y135597D01*
X383889Y135636D01*
Y135655D01*
X384006Y135607D01*
X384133Y135577D01*
X384270Y135548D01*
X384397Y135538D01*
X384514Y135529D01*
X384611Y135519D01*
X386690D01*
X386632Y135685D01*
X386573Y135831D01*
X386515Y135968D01*
X386466Y136095D01*
X386407Y136212D01*
X386358Y136319D01*
X386310Y136417D01*
X386261Y136495D01*
X386222Y136563D01*
X386183Y136632D01*
X386153Y136680D01*
X386124Y136729D01*
X386085Y136778D01*
X386075Y136797D01*
X386153Y136807D01*
X386261D01*
X386437Y136797D01*
D02*
G37*
G36*
X482885Y137529D02*
X482973D01*
X482934Y137461D01*
X482904Y137383D01*
X482856Y137207D01*
X482826Y137012D01*
X482797Y136817D01*
X482787Y136632D01*
Y136553D01*
X482777Y136485D01*
Y136427D01*
Y136388D01*
Y136358D01*
Y136348D01*
Y136134D01*
Y136036D01*
X482768Y135958D01*
X482748Y135899D01*
X482738Y135851D01*
X482719Y135812D01*
X482709Y135782D01*
X482699Y135773D01*
Y135763D01*
X482660Y135734D01*
X482621Y135704D01*
X482514Y135675D01*
X482465D01*
X482426Y135665D01*
X482270D01*
X482299Y135743D01*
X482319Y135802D01*
X482329Y135851D01*
Y135870D01*
Y135919D01*
X482319Y135987D01*
X482309Y136075D01*
X482299Y136163D01*
X482289Y136241D01*
X482280Y136309D01*
X482270Y136358D01*
Y136378D01*
X482231Y136710D01*
X482211Y136846D01*
X482202Y136954D01*
X482192Y137041D01*
Y137110D01*
X482182Y137159D01*
Y137188D01*
Y137207D01*
X482192Y137266D01*
X482211Y137315D01*
X482241Y137364D01*
X482270Y137403D01*
X482368Y137461D01*
X482475Y137500D01*
X482592Y137520D01*
X482680Y137539D01*
X482777D01*
X482885Y137529D01*
D02*
G37*
G36*
X399261Y137559D02*
X399437Y137490D01*
X399603Y137442D01*
X399759Y137412D01*
X399896Y137393D01*
X400003Y137373D01*
X400101D01*
X400305Y137383D01*
X400501Y137412D01*
X400676Y137451D01*
X400833Y137500D01*
X400950Y137549D01*
X401047Y137588D01*
X401106Y137617D01*
X401116Y137627D01*
X401125D01*
Y137539D01*
X401116Y137412D01*
X401086Y137295D01*
X401047Y137198D01*
X400989Y137119D01*
X400920Y137041D01*
X400852Y136983D01*
X400774Y136934D01*
X400686Y136895D01*
X400530Y136846D01*
X400462Y136827D01*
X400393Y136817D01*
X400335D01*
X400296Y136807D01*
X400169D01*
X400081Y136817D01*
X400052D01*
X400022Y136827D01*
X399993D01*
X400560Y133994D01*
X400598Y133938D01*
X400725Y133762D01*
X400852Y133596D01*
X400969Y133440D01*
X401086Y133294D01*
X401194Y133167D01*
X401301Y133050D01*
X401389Y132942D01*
X401477Y132845D01*
X401555Y132767D01*
X401613Y132698D01*
X401672Y132640D01*
X401711Y132601D01*
X401730Y132581D01*
X401740Y132571D01*
X401867Y132454D01*
X401994Y132347D01*
X402111Y132259D01*
X402218Y132181D01*
X402316Y132113D01*
X402404Y132054D01*
X402492Y132005D01*
X402570Y131976D01*
X402697Y131927D01*
X402784Y131898D01*
X402843Y131888D01*
X402863D01*
X402931Y131898D01*
X402989Y131927D01*
X403038Y131966D01*
X403087Y132015D01*
X403146Y132152D01*
X403194Y132308D01*
X403224Y132454D01*
X403233Y132591D01*
X403243Y132640D01*
Y132679D01*
Y132708D01*
Y132718D01*
X403233Y132981D01*
X403224Y133215D01*
X403204Y133430D01*
X403185Y133616D01*
X403165Y133772D01*
Y133830D01*
X403155Y133879D01*
X403146Y133918D01*
X403136Y133957D01*
Y133967D01*
Y133977D01*
X403077Y134299D01*
X403028Y134504D01*
X402980Y134679D01*
X402921Y134836D01*
X402863Y134972D01*
X402823Y135070D01*
X402784Y135148D01*
X402755Y135187D01*
X402745Y135207D01*
X403019D01*
X403126Y135187D01*
X403224Y135177D01*
X403311Y135148D01*
X403390Y135128D01*
X403458Y135099D01*
X403555Y135031D01*
X403624Y134963D01*
X403663Y134914D01*
X403682Y134875D01*
X403692Y134855D01*
X403936Y134972D01*
X404170Y135060D01*
X404385Y135128D01*
X404571Y135168D01*
X404727Y135197D01*
X404785Y135207D01*
X404844D01*
X404883Y135216D01*
X404941D01*
X405117Y135207D01*
X405283Y135177D01*
X405449Y135128D01*
X405605Y135080D01*
X405752Y135002D01*
X405888Y134933D01*
X406015Y134845D01*
X406132Y134767D01*
X406240Y134679D01*
X406327Y134592D01*
X406415Y134523D01*
X406484Y134455D01*
X406542Y134397D01*
X406581Y134348D01*
X406601Y134318D01*
X406610Y134309D01*
X406737Y134133D01*
X406807Y134019D01*
X406893Y133928D01*
X407050Y133762D01*
X407186Y133625D01*
X407294Y133528D01*
X407372Y133450D01*
X407420Y133411D01*
X407440Y133391D01*
X407596Y133274D01*
X407762Y133147D01*
X407947Y133020D01*
X408123Y132903D01*
X408289Y132806D01*
X408357Y132757D01*
X408416Y132728D01*
X408465Y132688D01*
X408504Y132669D01*
X408523Y132659D01*
X408533Y132649D01*
X408865Y133264D01*
X409294Y134065D01*
X409177Y134143D01*
X409080Y134211D01*
X408992Y134289D01*
X408923Y134357D01*
X408855Y134426D01*
X408806Y134494D01*
X408728Y134621D01*
X408679Y134728D01*
X408660Y134816D01*
X408650Y134865D01*
Y134885D01*
X408660Y134943D01*
X408670Y134992D01*
X408728Y135089D01*
X408816Y135168D01*
X408904Y135246D01*
X409002Y135304D01*
X409089Y135343D01*
X409148Y135372D01*
X409158Y135382D01*
X409167D01*
X409314Y135294D01*
X409441Y135207D01*
X409548Y135109D01*
X409646Y135011D01*
X409724Y134914D01*
X409792Y134816D01*
X409851Y134728D01*
X409890Y134631D01*
X409948Y134475D01*
X409968Y134397D01*
X409987Y134338D01*
Y134289D01*
X409997Y134250D01*
Y134231D01*
Y134221D01*
X409987Y134123D01*
X409978Y134016D01*
X409909Y133791D01*
X409821Y133557D01*
X409724Y133333D01*
X409626Y133137D01*
X409577Y133050D01*
X409538Y132972D01*
X409499Y132913D01*
X409470Y132864D01*
X409460Y132835D01*
X409451Y132825D01*
X409148Y132337D01*
X409304Y132259D01*
X409451Y132191D01*
X409587Y132113D01*
X409704Y132044D01*
X409821Y131986D01*
X409919Y131927D01*
X410017Y131869D01*
X410095Y131820D01*
X410163Y131771D01*
X410222Y131732D01*
X410270Y131703D01*
X410319Y131673D01*
X410368Y131625D01*
X410388Y131615D01*
X410505Y131498D01*
X410593Y131390D01*
X410661Y131293D01*
X410700Y131195D01*
X410729Y131117D01*
X410739Y131059D01*
X410749Y131019D01*
Y131010D01*
X410739Y130912D01*
X410710Y130824D01*
X410661Y130746D01*
X410612Y130678D01*
X410573Y130629D01*
X410524Y130590D01*
X410495Y130561D01*
X410485Y130551D01*
X410378Y130483D01*
X410270Y130434D01*
X410153Y130395D01*
X410056Y130375D01*
X409968Y130356D01*
X409890Y130346D01*
X409831D01*
X409714Y130356D01*
X409597Y130366D01*
X409373Y130414D01*
X409187Y130483D01*
X409011Y130561D01*
X408875Y130639D01*
X408777Y130707D01*
X408738Y130736D01*
X408709Y130756D01*
X408699Y130775D01*
X408689D01*
X408601Y130854D01*
X408523Y130941D01*
X408465Y131029D01*
X408406Y131117D01*
X408318Y131283D01*
X408260Y131439D01*
X408231Y131576D01*
X408211Y131683D01*
X408201Y131722D01*
Y131752D01*
Y131771D01*
Y131781D01*
X408211Y131878D01*
X408221Y131976D01*
X408240Y132074D01*
X408270Y132161D01*
X408299Y132230D01*
X408318Y132288D01*
X408328Y132327D01*
X408338Y132337D01*
X408094Y132474D01*
X407869Y132630D01*
X407655Y132776D01*
X407450Y132932D01*
X407255Y133089D01*
X407173Y133156D01*
X407196Y133079D01*
X407235Y132923D01*
X407264Y132767D01*
X407284Y132640D01*
X407303Y132513D01*
X407313Y132415D01*
Y132327D01*
X407323Y132259D01*
Y132220D01*
Y132210D01*
X407313Y131995D01*
X407284Y131810D01*
X407245Y131644D01*
X407206Y131508D01*
X407167Y131400D01*
X407128Y131322D01*
X407098Y131273D01*
X407089Y131254D01*
X406991Y131137D01*
X406884Y131049D01*
X406776Y130990D01*
X406679Y130951D01*
X406581Y130922D01*
X406513Y130912D01*
X406464Y130902D01*
X406445D01*
X406337Y130912D01*
X406240Y130932D01*
X406132Y130971D01*
X406025Y131010D01*
X405810Y131127D01*
X405615Y131254D01*
X405449Y131381D01*
X405381Y131439D01*
X405312Y131498D01*
X405264Y131537D01*
X405225Y131576D01*
X405205Y131595D01*
X405195Y131605D01*
X404941Y131878D01*
X404707Y132171D01*
X404502Y132454D01*
X404327Y132728D01*
X404249Y132845D01*
X404190Y132962D01*
X404131Y133059D01*
X404083Y133147D01*
X404043Y133215D01*
X404014Y133264D01*
X404004Y133303D01*
X403995Y133313D01*
X404004Y133147D01*
Y132991D01*
Y132864D01*
X404014Y132757D01*
Y132669D01*
Y132601D01*
Y132562D01*
Y132552D01*
X404004Y132308D01*
X403975Y132103D01*
X403936Y131917D01*
X403887Y131761D01*
X403829Y131634D01*
X403760Y131517D01*
X403682Y131429D01*
X403604Y131361D01*
X403536Y131303D01*
X403458Y131254D01*
X403390Y131225D01*
X403331Y131205D01*
X403282Y131195D01*
X403243Y131185D01*
X403204D01*
X403077Y131195D01*
X402950Y131225D01*
X402814Y131263D01*
X402687Y131312D01*
X402423Y131449D01*
X402179Y131605D01*
X402072Y131673D01*
X401974Y131752D01*
X401877Y131820D01*
X401799Y131888D01*
X401740Y131937D01*
X401691Y131976D01*
X401662Y132005D01*
X401652Y132015D01*
X401486Y132181D01*
X401321Y132347D01*
X401018Y132698D01*
X400750Y133043D01*
X400754Y133020D01*
X400793Y132825D01*
X400813Y132649D01*
X400833Y132493D01*
X400852Y132366D01*
Y132269D01*
X400862Y132201D01*
Y132161D01*
Y132142D01*
X400852Y131947D01*
X400823Y131771D01*
X400774Y131615D01*
X400725Y131488D01*
X400686Y131381D01*
X400637Y131303D01*
X400608Y131263D01*
X400598Y131244D01*
X400491Y131127D01*
X400374Y131049D01*
X400247Y130990D01*
X400130Y130941D01*
X400032Y130922D01*
X399954Y130912D01*
X399896Y130902D01*
X399876D01*
X399759Y130912D01*
X399642Y130941D01*
X399515Y130981D01*
X399398Y131029D01*
X399281Y131098D01*
X399164Y131166D01*
X398939Y131322D01*
X398841Y131400D01*
X398754Y131478D01*
X398675Y131547D01*
X398607Y131615D01*
X398549Y131664D01*
X398510Y131703D01*
X398480Y131732D01*
X398471Y131742D01*
X398324Y131908D01*
X398178Y132083D01*
X397885Y132464D01*
X397735Y132686D01*
X397739Y132649D01*
X397748Y132562D01*
Y132493D01*
X397758Y132435D01*
Y132386D01*
Y132366D01*
Y132357D01*
X397748Y132122D01*
X397709Y131917D01*
X397670Y131742D01*
X397612Y131586D01*
X397563Y131468D01*
X397514Y131381D01*
X397485Y131322D01*
X397475Y131303D01*
X397358Y131166D01*
X397241Y131068D01*
X397114Y131000D01*
X396997Y130951D01*
X396889Y130922D01*
X396811Y130912D01*
X396753Y130902D01*
X396733D01*
X396636Y130912D01*
X396538Y130922D01*
X396333Y130971D01*
X396148Y131039D01*
X395972Y131127D01*
X395816Y131205D01*
X395747Y131244D01*
X395699Y131273D01*
X395650Y131303D01*
X395621Y131322D01*
X395601Y131342D01*
X395591D01*
X395484Y131429D01*
X395386Y131508D01*
X395299Y131586D01*
X395230Y131664D01*
X395172Y131732D01*
X395123Y131800D01*
X395045Y131917D01*
X394996Y132025D01*
X394976Y132093D01*
X394967Y132142D01*
Y132161D01*
X394986Y132279D01*
X395016Y132386D01*
X395035Y132425D01*
X395045Y132464D01*
X395064Y132483D01*
Y132493D01*
X395133Y132366D01*
X395220Y132249D01*
X395308Y132142D01*
X395406Y132044D01*
X395484Y131966D01*
X395552Y131908D01*
X395601Y131869D01*
X395621Y131859D01*
X395757Y131771D01*
X395894Y131703D01*
X396011Y131654D01*
X396118Y131625D01*
X396197Y131605D01*
X396265Y131586D01*
X396323D01*
X396431Y131595D01*
X396528Y131625D01*
X396616Y131664D01*
X396694Y131722D01*
X396753Y131791D01*
X396802Y131869D01*
X396880Y132025D01*
X396929Y132191D01*
X396938Y132259D01*
X396948Y132327D01*
X396958Y132386D01*
Y132425D01*
Y132454D01*
Y132464D01*
X396948Y132620D01*
X396938Y132796D01*
X396919Y132981D01*
X396880Y133177D01*
X396811Y133567D01*
X396724Y133948D01*
X396675Y134133D01*
X396636Y134299D01*
X396597Y134445D01*
X396558Y134582D01*
X396528Y134689D01*
X396509Y134767D01*
X396499Y134816D01*
X396489Y134836D01*
X396480Y134894D01*
X396460Y134963D01*
X396450Y135011D01*
X396441Y135021D01*
Y135031D01*
X394303D01*
X394157Y135041D01*
X394030Y135050D01*
X393932Y135070D01*
X393844Y135089D01*
X393786Y135109D01*
X393747Y135128D01*
X393727Y135148D01*
X393717D01*
X393659Y135207D01*
X393610Y135275D01*
X393571Y135363D01*
X393532Y135451D01*
X393503Y135529D01*
X393483Y135597D01*
X393464Y135636D01*
Y135655D01*
X393581Y135607D01*
X393708Y135577D01*
X393844Y135548D01*
X393971Y135538D01*
X394088Y135529D01*
X394186Y135519D01*
X396265D01*
X396206Y135685D01*
X396148Y135831D01*
X396089Y135968D01*
X396040Y136095D01*
X395982Y136212D01*
X395933Y136319D01*
X395884Y136417D01*
X395835Y136495D01*
X395796Y136563D01*
X395757Y136632D01*
X395728Y136680D01*
X395699Y136729D01*
X395660Y136778D01*
X395650Y136797D01*
X395728Y136807D01*
X395835D01*
X396011Y136797D01*
X396157Y136768D01*
X396284Y136739D01*
X396392Y136700D01*
X396470Y136651D01*
X396528Y136622D01*
X396567Y136592D01*
X396577Y136583D01*
X396665Y136485D01*
X396743Y136368D01*
X396821Y136231D01*
X396880Y136095D01*
X396929Y135968D01*
X396968Y135870D01*
X396977Y135831D01*
X396987Y135802D01*
X396997Y135782D01*
Y135773D01*
X397065Y135519D01*
X397758D01*
X397865Y135499D01*
X397943Y135490D01*
X398012Y135470D01*
X398061Y135451D01*
X398100Y135431D01*
X398119Y135421D01*
X398129Y135412D01*
X398187Y135363D01*
X398246Y135294D01*
X398305Y135216D01*
X398363Y135128D01*
X398412Y135050D01*
X398451Y134982D01*
X398480Y134933D01*
X398490Y134914D01*
X398393Y134953D01*
X398295Y134982D01*
X398187Y135002D01*
X398080Y135021D01*
X397992D01*
X397924Y135031D01*
X397212D01*
X397387Y134387D01*
X397456Y134143D01*
X397514Y133918D01*
X397563Y133713D01*
X397729Y133459D01*
X397875Y133235D01*
X398012Y133040D01*
X398139Y132854D01*
X398246Y132698D01*
X398353Y132562D01*
X398431Y132445D01*
X398510Y132347D01*
X398578Y132269D01*
X398627Y132201D01*
X398666Y132152D01*
X398695Y132122D01*
X398705Y132103D01*
X398715Y132093D01*
X398802Y132005D01*
X398881Y131927D01*
X398968Y131859D01*
X399046Y131800D01*
X399203Y131712D01*
X399339Y131654D01*
X399456Y131615D01*
X399544Y131595D01*
X399603Y131586D01*
X399622D01*
X399700Y131595D01*
X399778Y131615D01*
X399837Y131644D01*
X399896Y131683D01*
X399974Y131791D01*
X400032Y131908D01*
X400061Y132015D01*
X400081Y132122D01*
X400091Y132161D01*
Y132191D01*
Y132210D01*
Y132220D01*
X400081Y132327D01*
X400071Y132454D01*
X400052Y132591D01*
X400032Y132737D01*
X400013Y132864D01*
X399993Y132972D01*
X399983Y133011D01*
X399974Y133040D01*
Y133059D01*
Y133069D01*
X399095Y137656D01*
X399261Y137559D01*
D02*
G37*
G36*
X372041Y137578D02*
X372285Y137520D01*
X372509Y137471D01*
X372685Y137442D01*
X372831Y137422D01*
X372890D01*
X372938Y137412D01*
X373026D01*
X373212Y137422D01*
X373378Y137451D01*
X373504Y137490D01*
X373622Y137529D01*
X373700Y137568D01*
X373758Y137608D01*
X373797Y137637D01*
X373807Y137647D01*
X373797Y137500D01*
X373768Y137364D01*
X373729Y137256D01*
X373680Y137159D01*
X373622Y137071D01*
X373553Y137002D01*
X373485Y136954D01*
X373407Y136905D01*
X373329Y136866D01*
X373260Y136846D01*
X373134Y136807D01*
X373085D01*
X373036Y136797D01*
X373007D01*
X372890Y136807D01*
X372782Y136817D01*
X372743D01*
X372704Y136827D01*
X372675D01*
X373190Y134211D01*
X373270Y134182D01*
X373426Y134133D01*
X373573Y134104D01*
X373690Y134084D01*
X373778Y134065D01*
X373856D01*
X374110Y134084D01*
X374354Y134133D01*
X374578Y134192D01*
X374773Y134270D01*
X374939Y134348D01*
X375008Y134377D01*
X375066Y134406D01*
X375115Y134435D01*
X375144Y134455D01*
X375164Y134475D01*
X375173D01*
X375291Y134631D01*
X375417Y134767D01*
X375544Y134885D01*
X375671Y134992D01*
X375808Y135089D01*
X375935Y135168D01*
X376062Y135226D01*
X376179Y135285D01*
X376296Y135324D01*
X376393Y135363D01*
X376491Y135382D01*
X376569Y135402D01*
X376637Y135421D01*
X376686Y135431D01*
X376725D01*
X376764Y135363D01*
X376794Y135304D01*
X376823Y135187D01*
X376833Y135148D01*
X376842Y135109D01*
Y135089D01*
Y135080D01*
X376833Y134982D01*
X376794Y134894D01*
X376784Y134845D01*
X376764Y134816D01*
X376755Y134797D01*
Y134787D01*
X376852Y134806D01*
X376940Y134826D01*
X377028D01*
X377184Y134816D01*
X377330Y134797D01*
X377477Y134767D01*
X377613Y134728D01*
X377857Y134621D01*
X377975Y134562D01*
X378072Y134504D01*
X378170Y134435D01*
X378248Y134377D01*
X378326Y134328D01*
X378384Y134279D01*
X378424Y134231D01*
X378463Y134201D01*
X378482Y134182D01*
X378492Y134172D01*
X378599Y134045D01*
X378697Y133918D01*
X378775Y133791D01*
X378809Y133728D01*
X378911Y133625D01*
X379019Y133528D01*
X379097Y133450D01*
X379146Y133411D01*
X379165Y133391D01*
X379321Y133274D01*
X379487Y133147D01*
X379673Y133020D01*
X379849Y132903D01*
X380014Y132806D01*
X380083Y132757D01*
X380141Y132728D01*
X380190Y132688D01*
X380229Y132669D01*
X380249Y132659D01*
X380258Y132649D01*
X380590Y133264D01*
X381020Y134065D01*
X380903Y134143D01*
X380805Y134211D01*
X380717Y134289D01*
X380649Y134357D01*
X380580Y134426D01*
X380532Y134494D01*
X380454Y134621D01*
X380405Y134728D01*
X380385Y134816D01*
X380376Y134865D01*
Y134885D01*
X380385Y134943D01*
X380395Y134992D01*
X380454Y135089D01*
X380541Y135168D01*
X380629Y135246D01*
X380727Y135304D01*
X380815Y135343D01*
X380873Y135372D01*
X380883Y135382D01*
X380893D01*
X381039Y135294D01*
X381166Y135207D01*
X381273Y135109D01*
X381371Y135011D01*
X381449Y134914D01*
X381517Y134816D01*
X381576Y134728D01*
X381615Y134631D01*
X381674Y134475D01*
X381693Y134397D01*
X381713Y134338D01*
Y134289D01*
X381722Y134250D01*
Y134231D01*
Y134221D01*
X381713Y134123D01*
X381703Y134016D01*
X381635Y133791D01*
X381547Y133557D01*
X381449Y133333D01*
X381351Y133137D01*
X381303Y133050D01*
X381264Y132972D01*
X381225Y132913D01*
X381195Y132864D01*
X381186Y132835D01*
X381176Y132825D01*
X380873Y132337D01*
X381029Y132259D01*
X381176Y132191D01*
X381312Y132113D01*
X381430Y132044D01*
X381547Y131986D01*
X381644Y131927D01*
X381742Y131869D01*
X381820Y131820D01*
X381888Y131771D01*
X381947Y131732D01*
X381996Y131703D01*
X382045Y131673D01*
X382093Y131625D01*
X382113Y131615D01*
X382230Y131498D01*
X382318Y131390D01*
X382386Y131293D01*
X382425Y131195D01*
X382454Y131117D01*
X382464Y131059D01*
X382474Y131019D01*
Y131010D01*
X382464Y130912D01*
X382435Y130824D01*
X382386Y130746D01*
X382337Y130678D01*
X382298Y130629D01*
X382249Y130590D01*
X382220Y130561D01*
X382210Y130551D01*
X382103Y130483D01*
X381996Y130434D01*
X381879Y130395D01*
X381781Y130375D01*
X381693Y130356D01*
X381615Y130346D01*
X381557D01*
X381439Y130356D01*
X381322Y130366D01*
X381098Y130414D01*
X380912Y130483D01*
X380737Y130561D01*
X380600Y130639D01*
X380502Y130707D01*
X380463Y130736D01*
X380434Y130756D01*
X380424Y130775D01*
X380415D01*
X380327Y130854D01*
X380249Y130941D01*
X380190Y131029D01*
X380132Y131117D01*
X380044Y131283D01*
X379985Y131439D01*
X379956Y131576D01*
X379936Y131683D01*
X379927Y131722D01*
Y131752D01*
Y131771D01*
Y131781D01*
X379936Y131878D01*
X379946Y131976D01*
X379966Y132074D01*
X379995Y132161D01*
X380024Y132230D01*
X380044Y132288D01*
X380053Y132327D01*
X380063Y132337D01*
X379819Y132474D01*
X379595Y132630D01*
X379380Y132776D01*
X379175Y132932D01*
X379066Y133020D01*
X379077Y132962D01*
X379087Y132874D01*
X379097Y132796D01*
X379107Y132737D01*
Y132688D01*
Y132659D01*
Y132649D01*
X379097Y132503D01*
X379087Y132366D01*
X379029Y132122D01*
X378951Y131908D01*
X378863Y131722D01*
X378775Y131576D01*
X378736Y131517D01*
X378707Y131468D01*
X378667Y131429D01*
X378648Y131400D01*
X378638Y131390D01*
X378628Y131381D01*
X378531Y131293D01*
X378433Y131225D01*
X378336Y131156D01*
X378228Y131107D01*
X378023Y131019D01*
X377828Y130961D01*
X377653Y130932D01*
X377584Y130922D01*
X377516Y130912D01*
X377457Y130902D01*
X377389D01*
X377203Y130912D01*
X377028Y130941D01*
X376852Y130981D01*
X376696Y131029D01*
X376540Y131088D01*
X376393Y131156D01*
X376257Y131234D01*
X376140Y131312D01*
X376032Y131381D01*
X375925Y131459D01*
X375847Y131527D01*
X375769Y131586D01*
X375720Y131634D01*
X375671Y131673D01*
X375652Y131703D01*
X375642Y131712D01*
X375505Y131869D01*
X375398Y132035D01*
X375291Y132191D01*
X375203Y132357D01*
X375134Y132523D01*
X375076Y132679D01*
X375027Y132835D01*
X374988Y132981D01*
X374949Y133108D01*
X374929Y133235D01*
X374910Y133342D01*
X374900Y133440D01*
X374890Y133518D01*
Y133577D01*
Y133616D01*
Y133625D01*
Y133684D01*
X374900Y133733D01*
X374910Y133772D01*
Y133791D01*
X374715Y133733D01*
X374529Y133694D01*
X374363Y133655D01*
X374227Y133635D01*
X374110Y133625D01*
X374022Y133616D01*
X373944D01*
X373827Y133625D01*
X373709Y133635D01*
X373485Y133684D01*
X373281Y133749D01*
X373309Y133606D01*
X373368Y133313D01*
X373407Y133050D01*
X373436Y132825D01*
X373446Y132728D01*
X373456Y132640D01*
X373465Y132562D01*
Y132493D01*
Y132445D01*
X373475Y132396D01*
Y132357D01*
Y132327D01*
Y132318D01*
Y132308D01*
X373456Y132083D01*
X373407Y131888D01*
X373348Y131712D01*
X373270Y131566D01*
X373192Y131449D01*
X373134Y131361D01*
X373085Y131312D01*
X373065Y131293D01*
X372899Y131166D01*
X372714Y131068D01*
X372538Y131000D01*
X372363Y130951D01*
X372216Y130922D01*
X372148Y130912D01*
X372089D01*
X372050Y130902D01*
X371982D01*
X371816Y130912D01*
X371660Y130932D01*
X371504Y130971D01*
X371357Y131010D01*
X371094Y131127D01*
X370967Y131185D01*
X370860Y131254D01*
X370762Y131322D01*
X370674Y131381D01*
X370596Y131439D01*
X370528Y131498D01*
X370479Y131537D01*
X370440Y131576D01*
X370420Y131595D01*
X370411Y131605D01*
X370293Y131742D01*
X370186Y131878D01*
X370098Y132015D01*
X370020Y132161D01*
X369952Y132298D01*
X369903Y132435D01*
X369854Y132571D01*
X369825Y132698D01*
X369796Y132815D01*
X369776Y132923D01*
X369757Y133011D01*
X369747Y133098D01*
X369737Y133167D01*
Y133215D01*
Y133245D01*
Y133255D01*
X369747Y133401D01*
X369766Y133518D01*
X369776Y133567D01*
X369786Y133606D01*
X369796Y133625D01*
Y133635D01*
X369542Y133586D01*
X369415Y133567D01*
X369308Y133557D01*
X369220D01*
X369142Y133547D01*
X369083D01*
X368927Y133557D01*
X368781Y133567D01*
X368507Y133625D01*
X368254Y133703D01*
X368081Y133779D01*
X368088Y133733D01*
X368117Y133528D01*
X368146Y133342D01*
X368166Y133264D01*
X368176Y133196D01*
X368185Y133137D01*
X368195Y133098D01*
X368205Y133069D01*
Y133059D01*
X368400Y132113D01*
X368420Y131986D01*
X368439Y131878D01*
X368459Y131771D01*
X368468Y131683D01*
X368488Y131595D01*
X368498Y131527D01*
X368507Y131420D01*
X368517Y131332D01*
X368527Y131283D01*
Y131254D01*
Y131244D01*
X368507Y131127D01*
X368468Y131049D01*
X368410Y130990D01*
X368332Y130941D01*
X368263Y130922D01*
X368205Y130912D01*
X368166Y130902D01*
X368146D01*
X368088Y130912D01*
X368010Y130922D01*
X367873Y130961D01*
X367814Y130981D01*
X367766Y131000D01*
X367736Y131019D01*
X367727D01*
Y131088D01*
X367707Y131215D01*
X367668Y131361D01*
X367619Y131517D01*
X367551Y131673D01*
X367492Y131820D01*
X367434Y131937D01*
X367414Y131976D01*
X367395Y132015D01*
X367385Y132035D01*
Y132044D01*
X367248Y132298D01*
X367112Y132542D01*
X366985Y132767D01*
X366858Y132962D01*
X366751Y133128D01*
X366702Y133196D01*
X366663Y133255D01*
X366633Y133303D01*
X366604Y133333D01*
X366594Y133352D01*
X366585Y133362D01*
X366448Y133547D01*
X366311Y133703D01*
X366194Y133840D01*
X366077Y133957D01*
X365970Y134065D01*
X365862Y134143D01*
X365775Y134211D01*
X365687Y134270D01*
X365609Y134309D01*
X365550Y134338D01*
X365492Y134367D01*
X365443Y134377D01*
X365404Y134387D01*
X365374Y134397D01*
X365355D01*
X365257Y134387D01*
X365179Y134348D01*
X365101Y134299D01*
X365043Y134250D01*
X365003Y134192D01*
X364974Y134143D01*
X364955Y134104D01*
X364945Y134094D01*
X364838Y134172D01*
X364750Y134250D01*
X364672Y134318D01*
X364603Y134387D01*
X364545Y134455D01*
X364506Y134514D01*
X364428Y134611D01*
X364389Y134689D01*
X364369Y134748D01*
X364359Y134787D01*
Y134797D01*
X364369Y134855D01*
X364379Y134914D01*
X364437Y135011D01*
X364486Y135070D01*
X364506Y135080D01*
X364515Y135089D01*
X364574Y135128D01*
X364633Y135168D01*
X364750Y135197D01*
X364799Y135207D01*
X364838Y135216D01*
X364877D01*
X364994Y135207D01*
X365101Y135187D01*
X365218Y135148D01*
X365335Y135099D01*
X365560Y134972D01*
X365765Y134826D01*
X365940Y134679D01*
X366019Y134621D01*
X366077Y134562D01*
X366136Y134504D01*
X366175Y134465D01*
X366194Y134445D01*
X366204Y134435D01*
X366341Y134289D01*
X366477Y134123D01*
X366731Y133772D01*
X366975Y133411D01*
X367190Y133059D01*
X367287Y132903D01*
X367375Y132747D01*
X367453Y132620D01*
X367512Y132503D01*
X367570Y132405D01*
X367609Y132327D01*
X367629Y132288D01*
X367639Y132269D01*
X367424Y133372D01*
X367385Y133528D01*
X367356Y133674D01*
X367336Y133801D01*
X367307Y133918D01*
X367287Y134026D01*
X367278Y134113D01*
X367268Y134192D01*
X367248Y134260D01*
Y134309D01*
X367239Y134357D01*
X367229Y134426D01*
Y134465D01*
Y134475D01*
X367239Y134592D01*
X367268Y134670D01*
X367317Y134728D01*
X367365Y134777D01*
X367414Y134797D01*
X367463Y134806D01*
X367492Y134816D01*
X367502D01*
X367600Y134806D01*
X367707Y134797D01*
X367824Y134767D01*
X367922Y134748D01*
X368019Y134719D01*
X368088Y134689D01*
X368137Y134679D01*
X368156Y134670D01*
X368117Y134611D01*
X368078Y134553D01*
X368049Y134435D01*
X368039Y134387D01*
X368029Y134348D01*
Y134318D01*
Y134309D01*
Y134232D01*
X368215Y134152D01*
X368410Y134094D01*
X368576Y134055D01*
X368722Y134035D01*
X368781Y134026D01*
X368829D01*
X368868Y134016D01*
X368927D01*
X369132Y134026D01*
X369317Y134055D01*
X369493Y134094D01*
X369649Y134133D01*
X369786Y134172D01*
X369883Y134211D01*
X369923Y134231D01*
X369952Y134240D01*
X369962Y134250D01*
X369971D01*
X370079Y134397D01*
X370196Y134523D01*
X370313Y134631D01*
X370440Y134728D01*
X370567Y134816D01*
X370703Y134885D01*
X370830Y134953D01*
X370957Y135002D01*
X371074Y135041D01*
X371182Y135070D01*
X371279Y135099D01*
X371367Y135109D01*
X371435Y135128D01*
X371484Y135138D01*
X371533D01*
X371591Y134992D01*
X371611Y134933D01*
X371621Y134885D01*
Y134845D01*
X371631Y134816D01*
Y134806D01*
Y134797D01*
X371621Y134709D01*
X371582Y134621D01*
X371533Y134533D01*
X371474Y134455D01*
X371426Y134397D01*
X371377Y134338D01*
X371338Y134309D01*
X371328Y134299D01*
X371211Y134211D01*
X371074Y134123D01*
X370947Y134055D01*
X370820Y133996D01*
X370713Y133948D01*
X370625Y133908D01*
X370567Y133889D01*
X370557Y133879D01*
X370547D01*
X370508Y133743D01*
X370469Y133616D01*
X370450Y133489D01*
X370440Y133381D01*
X370430Y133284D01*
X370420Y133215D01*
Y133167D01*
Y133147D01*
Y133011D01*
X370440Y132874D01*
X370489Y132620D01*
X370557Y132396D01*
X370625Y132201D01*
X370664Y132122D01*
X370703Y132054D01*
X370742Y131986D01*
X370772Y131937D01*
X370801Y131898D01*
X370820Y131869D01*
X370830Y131849D01*
X370840Y131839D01*
X370918Y131742D01*
X371006Y131664D01*
X371094Y131595D01*
X371172Y131527D01*
X371347Y131429D01*
X371504Y131371D01*
X371640Y131332D01*
X371757Y131312D01*
X371796Y131303D01*
X371855D01*
X372001Y131312D01*
X372128Y131351D01*
X372236Y131390D01*
X372323Y131449D01*
X372402Y131498D01*
X372450Y131547D01*
X372489Y131576D01*
X372499Y131586D01*
X372577Y131703D01*
X372636Y131830D01*
X372685Y131957D01*
X372714Y132074D01*
X372733Y132181D01*
X372743Y132269D01*
Y132327D01*
Y132337D01*
Y132347D01*
Y132483D01*
X372733Y132620D01*
X372714Y132757D01*
X372704Y132884D01*
X372685Y132991D01*
X372675Y133079D01*
X372665Y133137D01*
Y133147D01*
Y133157D01*
X371757Y137656D01*
X372041Y137578D01*
D02*
G37*
G36*
X484212Y137529D02*
X484300D01*
X484261Y137461D01*
X484232Y137383D01*
X484183Y137198D01*
X484154Y137002D01*
X484124Y136807D01*
X484115Y136632D01*
Y136553D01*
X484105Y136485D01*
Y136427D01*
Y136388D01*
Y136358D01*
Y136348D01*
X484095Y136134D01*
Y136036D01*
X484085Y135958D01*
X484066Y135899D01*
X484056Y135851D01*
X484036Y135812D01*
X484027Y135782D01*
X484017Y135773D01*
Y135763D01*
X483978Y135734D01*
X483939Y135704D01*
X483832Y135675D01*
X483792D01*
X483753Y135665D01*
X483588D01*
X483617Y135734D01*
X483636Y135792D01*
X483646Y135831D01*
Y135851D01*
Y135919D01*
X483636Y135997D01*
X483617Y136173D01*
X483607Y136251D01*
X483597Y136319D01*
X483588Y136358D01*
Y136378D01*
X483558Y136710D01*
X483539Y136846D01*
X483529Y136954D01*
X483519Y137041D01*
Y137110D01*
X483509Y137149D01*
Y137188D01*
Y137198D01*
Y137207D01*
X483519Y137266D01*
X483539Y137315D01*
X483568Y137364D01*
X483597Y137403D01*
X483695Y137461D01*
X483802Y137500D01*
X483919Y137520D01*
X484007Y137539D01*
X484105D01*
X484212Y137529D01*
D02*
G37*
G36*
X441229Y136680D02*
X441356Y136583D01*
X441483Y136495D01*
X441600Y136417D01*
X441707Y136358D01*
X441795Y136309D01*
X441854Y136270D01*
X441863Y136261D01*
X441873D01*
X442039Y136183D01*
X442186Y136114D01*
X442303Y136075D01*
X442410Y136046D01*
X442488Y136026D01*
X442547Y136017D01*
X442586Y136007D01*
X442595D01*
X442654Y136017D01*
X442703Y135851D01*
X442713Y135773D01*
X442722Y135695D01*
X442732Y135636D01*
Y135587D01*
Y135548D01*
Y135538D01*
X442722Y135480D01*
X442713Y135431D01*
X442683Y135402D01*
X442654Y135372D01*
X442605Y135353D01*
X442586D01*
X442537Y135363D01*
X442488Y135372D01*
X442351Y135441D01*
X442215Y135519D01*
X442068Y135626D01*
X441932Y135724D01*
X441824Y135802D01*
X441776Y135841D01*
X441746Y135870D01*
X441727Y135880D01*
X441717Y135890D01*
X441571Y136026D01*
X441444Y136173D01*
X441336Y136329D01*
X441258Y136466D01*
X441200Y136592D01*
X441151Y136690D01*
X441141Y136729D01*
X441131Y136758D01*
X441122Y136768D01*
Y136778D01*
X441229Y136680D01*
D02*
G37*
G36*
X276158Y136797D02*
X276305Y136768D01*
X276431Y136739D01*
X276539Y136700D01*
X276617Y136651D01*
X276676Y136622D01*
X276715Y136592D01*
X276724Y136583D01*
X276812Y136485D01*
X276890Y136368D01*
X276968Y136231D01*
X277027Y136095D01*
X277076Y135968D01*
X277115Y135870D01*
X277125Y135831D01*
X277134Y135802D01*
X277144Y135782D01*
Y135773D01*
X277212Y135519D01*
X277905D01*
X278013Y135499D01*
X278091Y135490D01*
X278159Y135470D01*
X278208Y135451D01*
X278247Y135431D01*
X278266Y135421D01*
X278276Y135412D01*
X278335Y135363D01*
X278393Y135294D01*
X278452Y135216D01*
X278510Y135128D01*
X278559Y135050D01*
X278598Y134982D01*
X278627Y134933D01*
X278637Y134914D01*
X278540Y134953D01*
X278442Y134982D01*
X278335Y135002D01*
X278227Y135021D01*
X278139D01*
X278071Y135031D01*
X277359D01*
X277534Y134387D01*
X277603Y134143D01*
X277661Y133918D01*
X277703Y133744D01*
X277769Y133645D01*
X277905Y133450D01*
X278032Y133274D01*
X278159Y133108D01*
X278276Y132952D01*
X278393Y132815D01*
X278501Y132688D01*
X278589Y132581D01*
X278676Y132483D01*
X278745Y132405D01*
X278803Y132337D01*
X278842Y132298D01*
X278871Y132269D01*
X278881Y132259D01*
X279028Y132122D01*
X279155Y131995D01*
X279291Y131888D01*
X279408Y131800D01*
X279516Y131722D01*
X279623Y131664D01*
X279721Y131605D01*
X279799Y131566D01*
X279945Y131508D01*
X280004Y131498D01*
X280052Y131478D01*
X280092D01*
X280121Y131468D01*
X280140D01*
X280209Y131478D01*
X280267Y131488D01*
X280365Y131547D01*
X280433Y131615D01*
X280482Y131703D01*
X280511Y131791D01*
X280521Y131869D01*
X280531Y131917D01*
Y131927D01*
Y131937D01*
X280521Y132015D01*
X280511Y132113D01*
X280492Y132230D01*
X280472Y132347D01*
X280453Y132454D01*
X280443Y132542D01*
X280433Y132581D01*
X280423Y132610D01*
Y132620D01*
Y132630D01*
X280287Y133372D01*
X280248Y133567D01*
X280218Y133733D01*
X280199Y133879D01*
X280179Y133996D01*
Y134094D01*
X280170Y134152D01*
Y134201D01*
Y134211D01*
X280179Y134338D01*
X280209Y134435D01*
X280257Y134504D01*
X280306Y134553D01*
X280365Y134582D01*
X280404Y134592D01*
X280443Y134601D01*
X280511D01*
X280599Y134582D01*
X280706Y134562D01*
X280814Y134543D01*
X280911Y134523D01*
X280999Y134504D01*
X281058Y134494D01*
X281067Y134484D01*
X281077D01*
X281029Y134426D01*
X280999Y134377D01*
X280960Y134260D01*
X280950Y134211D01*
X280941Y134172D01*
Y134143D01*
Y134133D01*
Y134055D01*
X280945Y134021D01*
X280960Y133996D01*
X281116Y133743D01*
X281263Y133508D01*
X281399Y133294D01*
X281517Y133108D01*
X281634Y132932D01*
X281731Y132786D01*
X281819Y132659D01*
X281897Y132542D01*
X281965Y132445D01*
X282024Y132366D01*
X282073Y132308D01*
X282102Y132259D01*
X282131Y132230D01*
X282141Y132210D01*
X282151Y132201D01*
X282229Y132113D01*
X282297Y132035D01*
X282375Y131957D01*
X282444Y131898D01*
X282561Y131810D01*
X282678Y131752D01*
X282766Y131712D01*
X282834Y131693D01*
X282873Y131683D01*
X282893D01*
X282971Y131693D01*
X283029Y131732D01*
X283078Y131781D01*
X283127Y131839D01*
X283156Y131888D01*
X283176Y131937D01*
X283195Y131976D01*
Y131986D01*
X283205Y132044D01*
X283225Y132122D01*
X283244Y132288D01*
X283254Y132464D01*
X283263Y132649D01*
X283273Y132815D01*
Y132893D01*
Y132962D01*
Y133011D01*
Y133050D01*
Y133079D01*
Y133089D01*
Y133547D01*
Y133703D01*
X283283Y133840D01*
X283312Y134094D01*
X283351Y134318D01*
X283410Y134514D01*
X283469Y134670D01*
X283537Y134806D01*
X283615Y134924D01*
X283693Y135011D01*
X283781Y135080D01*
X283849Y135128D01*
X283927Y135168D01*
X283986Y135187D01*
X284044Y135207D01*
X284083Y135216D01*
X284122D01*
X284220Y135207D01*
X284327Y135187D01*
X284435Y135148D01*
X284532Y135089D01*
X284640Y135031D01*
X284747Y134953D01*
X284845Y134865D01*
X284952Y134767D01*
X285157Y134553D01*
X285362Y134318D01*
X285557Y134055D01*
X285733Y133791D01*
X285909Y133528D01*
X286065Y133264D01*
X286201Y133030D01*
X286318Y132815D01*
X286367Y132718D01*
X286416Y132630D01*
X286445Y132552D01*
X286484Y132493D01*
X286504Y132435D01*
X286523Y132396D01*
X286542Y132377D01*
X286543Y132366D01*
Y132376D01*
X286542Y132377D01*
X286445Y133421D01*
X286436Y133499D01*
X286426Y133577D01*
X286416Y133625D01*
Y133635D01*
Y133645D01*
X286397Y133840D01*
X286377Y134006D01*
X286367Y134133D01*
Y134240D01*
X286357Y134328D01*
Y134387D01*
Y134416D01*
Y134426D01*
Y134504D01*
X286367Y134572D01*
X286406Y134679D01*
X286455Y134758D01*
X286504Y134806D01*
X286562Y134845D01*
X286611Y134855D01*
X286650Y134865D01*
X286660D01*
X286777Y134855D01*
X286894Y134826D01*
X286953Y134806D01*
X286992Y134787D01*
X287021Y134777D01*
X287031D01*
X287148Y134738D01*
X287236Y134709D01*
X287285Y134689D01*
X287304D01*
X287236Y134592D01*
X287187Y134494D01*
X287158Y134387D01*
X287128Y134289D01*
X287121Y134210D01*
X287177Y134123D01*
X287304Y133938D01*
X287431Y133762D01*
X287558Y133596D01*
X287675Y133440D01*
X287792Y133294D01*
X287899Y133167D01*
X288007Y133050D01*
X288095Y132942D01*
X288183Y132845D01*
X288261Y132767D01*
X288319Y132698D01*
X288378Y132640D01*
X288417Y132601D01*
X288436Y132581D01*
X288446Y132571D01*
X288573Y132454D01*
X288700Y132347D01*
X288817Y132259D01*
X288924Y132181D01*
X289022Y132113D01*
X289110Y132054D01*
X289198Y132005D01*
X289276Y131976D01*
X289403Y131927D01*
X289490Y131898D01*
X289549Y131888D01*
X289568D01*
X289637Y131898D01*
X289695Y131927D01*
X289744Y131966D01*
X289793Y132015D01*
X289851Y132152D01*
X289900Y132308D01*
X289930Y132454D01*
X289939Y132591D01*
X289949Y132640D01*
Y132679D01*
Y132708D01*
Y132718D01*
X289939Y132981D01*
X289930Y133215D01*
X289910Y133430D01*
X289891Y133616D01*
X289871Y133772D01*
Y133830D01*
X289861Y133879D01*
X289851Y133918D01*
X289842Y133957D01*
Y133967D01*
Y133977D01*
X289783Y134299D01*
X289734Y134504D01*
X289686Y134679D01*
X289627Y134836D01*
X289568Y134972D01*
X289529Y135070D01*
X289490Y135148D01*
X289461Y135187D01*
X289451Y135207D01*
X289725D01*
X289832Y135187D01*
X289930Y135177D01*
X290017Y135148D01*
X290095Y135128D01*
X290164Y135099D01*
X290261Y135031D01*
X290330Y134963D01*
X290369Y134914D01*
X290388Y134875D01*
X290398Y134855D01*
X290642Y134972D01*
X290876Y135060D01*
X291091Y135128D01*
X291277Y135168D01*
X291433Y135197D01*
X291491Y135207D01*
X291550D01*
X291589Y135216D01*
X291647D01*
X291823Y135207D01*
X291989Y135177D01*
X292155Y135128D01*
X292311Y135080D01*
X292457Y135002D01*
X292594Y134933D01*
X292721Y134845D01*
X292838Y134767D01*
X292945Y134679D01*
X293033Y134592D01*
X293121Y134523D01*
X293189Y134455D01*
X293248Y134397D01*
X293287Y134348D01*
X293307Y134318D01*
X293316Y134309D01*
X293443Y134133D01*
X293513Y134019D01*
X293599Y133928D01*
X293756Y133762D01*
X293892Y133625D01*
X294000Y133528D01*
X294078Y133450D01*
X294126Y133411D01*
X294146Y133391D01*
X294302Y133274D01*
X294468Y133147D01*
X294653Y133020D01*
X294829Y132903D01*
X294995Y132806D01*
X295063Y132757D01*
X295122Y132728D01*
X295171Y132688D01*
X295210Y132669D01*
X295229Y132659D01*
X295239Y132649D01*
X295571Y133264D01*
X296000Y134065D01*
X295883Y134143D01*
X295786Y134211D01*
X295698Y134289D01*
X295629Y134357D01*
X295561Y134426D01*
X295512Y134494D01*
X295434Y134621D01*
X295385Y134728D01*
X295366Y134816D01*
X295356Y134865D01*
Y134885D01*
X295366Y134943D01*
X295376Y134992D01*
X295434Y135089D01*
X295522Y135168D01*
X295610Y135246D01*
X295708Y135304D01*
X295795Y135343D01*
X295854Y135372D01*
X295864Y135382D01*
X295873D01*
X296020Y135294D01*
X296147Y135207D01*
X296254Y135109D01*
X296352Y135011D01*
X296430Y134914D01*
X296498Y134816D01*
X296557Y134728D01*
X296596Y134631D01*
X296654Y134475D01*
X296674Y134397D01*
X296693Y134338D01*
Y134289D01*
X296703Y134250D01*
Y134231D01*
Y134221D01*
X296693Y134123D01*
X296688Y134067D01*
X296732Y133996D01*
X296888Y133743D01*
X297035Y133508D01*
X297171Y133294D01*
X297289Y133108D01*
X297406Y132932D01*
X297503Y132786D01*
X297591Y132659D01*
X297669Y132542D01*
X297738Y132445D01*
X297796Y132366D01*
X297845Y132308D01*
X297874Y132259D01*
X297903Y132230D01*
X297913Y132210D01*
X297923Y132201D01*
X298001Y132113D01*
X298069Y132035D01*
X298148Y131957D01*
X298216Y131898D01*
X298333Y131810D01*
X298450Y131752D01*
X298538Y131712D01*
X298606Y131693D01*
X298645Y131683D01*
X298665D01*
X298743Y131693D01*
X298801Y131732D01*
X298850Y131781D01*
X298899Y131839D01*
X298928Y131888D01*
X298948Y131937D01*
X298967Y131976D01*
Y131986D01*
X298977Y132044D01*
X298997Y132122D01*
X299016Y132288D01*
X299026Y132464D01*
X299036Y132649D01*
X299045Y132815D01*
Y132893D01*
Y132962D01*
Y133011D01*
Y133050D01*
Y133079D01*
Y133089D01*
Y133547D01*
Y133703D01*
X299055Y133840D01*
X299084Y134094D01*
X299124Y134318D01*
X299182Y134514D01*
X299241Y134670D01*
X299309Y134806D01*
X299387Y134924D01*
X299465Y135011D01*
X299553Y135080D01*
X299621Y135128D01*
X299699Y135168D01*
X299758Y135187D01*
X299816Y135207D01*
X299855Y135216D01*
X299895D01*
X299992Y135207D01*
X300099Y135187D01*
X300207Y135148D01*
X300305Y135089D01*
X300412Y135031D01*
X300519Y134953D01*
X300617Y134865D01*
X300724Y134767D01*
X300929Y134553D01*
X301134Y134318D01*
X301329Y134055D01*
X301505Y133791D01*
X301681Y133528D01*
X301837Y133264D01*
X301973Y133030D01*
X302091Y132815D01*
X302139Y132718D01*
X302188Y132630D01*
X302217Y132552D01*
X302256Y132493D01*
X302276Y132435D01*
X302295Y132396D01*
X302314Y132377D01*
X302217Y133421D01*
X302208Y133499D01*
X302198Y133577D01*
X302188Y133625D01*
Y133635D01*
Y133645D01*
X302169Y133840D01*
X302149Y134006D01*
X302139Y134133D01*
Y134240D01*
X302130Y134328D01*
Y134387D01*
Y134416D01*
Y134426D01*
Y134504D01*
X302139Y134572D01*
X302178Y134679D01*
X302227Y134758D01*
X302276Y134806D01*
X302335Y134845D01*
X302383Y134855D01*
X302422Y134865D01*
X302432D01*
X302549Y134855D01*
X302666Y134826D01*
X302725Y134806D01*
X302764Y134787D01*
X302793Y134777D01*
X302803D01*
X302920Y134738D01*
X303008Y134709D01*
X303057Y134689D01*
X303076D01*
X303008Y134592D01*
X302959Y134494D01*
X302930Y134387D01*
X302901Y134289D01*
X302892Y134206D01*
X302979Y134065D01*
X303125Y133850D01*
X303262Y133645D01*
X303398Y133450D01*
X303525Y133274D01*
X303652Y133108D01*
X303769Y132952D01*
X303886Y132815D01*
X303994Y132688D01*
X304082Y132581D01*
X304169Y132483D01*
X304238Y132405D01*
X304296Y132337D01*
X304335Y132298D01*
X304365Y132269D01*
X304374Y132259D01*
X304521Y132122D01*
X304648Y131995D01*
X304784Y131888D01*
X304901Y131800D01*
X305009Y131722D01*
X305116Y131664D01*
X305214Y131605D01*
X305292Y131566D01*
X305438Y131508D01*
X305497Y131498D01*
X305546Y131478D01*
X305585D01*
X305614Y131468D01*
X305633D01*
X305702Y131478D01*
X305760Y131488D01*
X305858Y131547D01*
X305926Y131615D01*
X305975Y131703D01*
X306004Y131791D01*
X306014Y131869D01*
X306024Y131917D01*
Y131927D01*
Y131937D01*
X306014Y132015D01*
X306004Y132113D01*
X305985Y132230D01*
X305965Y132347D01*
X305946Y132454D01*
X305936Y132542D01*
X305926Y132581D01*
X305917Y132610D01*
Y132620D01*
Y132630D01*
X305780Y133372D01*
X305741Y133567D01*
X305712Y133733D01*
X305692Y133879D01*
X305673Y133996D01*
Y134094D01*
X305663Y134152D01*
Y134201D01*
Y134211D01*
X305673Y134338D01*
X305702Y134435D01*
X305751Y134504D01*
X305799Y134553D01*
X305858Y134582D01*
X305897Y134592D01*
X305936Y134601D01*
X306004D01*
X306092Y134582D01*
X306200Y134562D01*
X306307Y134543D01*
X306404Y134523D01*
X306492Y134504D01*
X306551Y134494D01*
X306561Y134484D01*
X306570D01*
X306522Y134426D01*
X306492Y134377D01*
X306453Y134260D01*
X306444Y134211D01*
X306434Y134172D01*
Y134143D01*
Y134133D01*
Y134055D01*
X306444Y133977D01*
X306463Y133782D01*
X306492Y133577D01*
X306522Y133362D01*
X306561Y133167D01*
X306580Y133089D01*
X306590Y133011D01*
X306600Y132952D01*
X306609Y132903D01*
X306619Y132874D01*
Y132864D01*
X306707Y132445D01*
X306727Y132318D01*
X306746Y132201D01*
X306756Y132113D01*
X306766Y132035D01*
X306775Y131976D01*
Y131937D01*
Y131917D01*
Y131908D01*
X306766Y131742D01*
X306736Y131595D01*
X306697Y131478D01*
X306648Y131371D01*
X306600Y131283D01*
X306561Y131225D01*
X306531Y131185D01*
X306522Y131176D01*
X306414Y131088D01*
X306307Y131019D01*
X306190Y130971D01*
X306082Y130941D01*
X305985Y130922D01*
X305907Y130902D01*
X305838D01*
X305702Y130912D01*
X305565Y130941D01*
X305429Y130981D01*
X305292Y131029D01*
X305155Y131098D01*
X305028Y131166D01*
X304784Y131322D01*
X304677Y131400D01*
X304570Y131478D01*
X304482Y131547D01*
X304404Y131615D01*
X304345Y131664D01*
X304296Y131703D01*
X304267Y131732D01*
X304257Y131742D01*
X304091Y131908D01*
X303925Y132083D01*
X303613Y132474D01*
X303320Y132864D01*
X303184Y133059D01*
X303057Y133245D01*
X302940Y133421D01*
X302917Y133457D01*
X302920Y133421D01*
X302930Y133323D01*
Y133284D01*
X302940Y133255D01*
Y133245D01*
Y133235D01*
X303028Y132415D01*
X303047Y132239D01*
X303057Y132093D01*
X303076Y131957D01*
X303086Y131830D01*
X303096Y131732D01*
X303106Y131644D01*
Y131566D01*
X303115Y131508D01*
Y131449D01*
Y131410D01*
X303125Y131351D01*
Y131332D01*
Y131322D01*
Y131244D01*
X303106Y131185D01*
X303067Y131078D01*
X303008Y131010D01*
X302930Y130951D01*
X302862Y130922D01*
X302803Y130912D01*
X302764Y130902D01*
X302745D01*
X302627Y130922D01*
X302501Y130951D01*
X302452Y130971D01*
X302413Y130981D01*
X302383Y131000D01*
X302374D01*
X302403Y131059D01*
X302413Y131117D01*
X302422Y131156D01*
Y131166D01*
X302413Y131263D01*
X302374Y131371D01*
X302325Y131498D01*
X302276Y131615D01*
X302217Y131722D01*
X302178Y131820D01*
X302139Y131878D01*
X302130Y131888D01*
Y131898D01*
X302091Y131966D01*
X302042Y132064D01*
X301983Y132161D01*
X301925Y132269D01*
X301866Y132366D01*
X301817Y132454D01*
X301788Y132513D01*
X301778Y132523D01*
Y132532D01*
X301671Y132718D01*
X301573Y132884D01*
X301485Y133040D01*
X301388Y133196D01*
X301300Y133333D01*
X301212Y133459D01*
X301056Y133694D01*
X300910Y133879D01*
X300773Y134045D01*
X300656Y134182D01*
X300549Y134279D01*
X300461Y134367D01*
X300373Y134426D01*
X300314Y134475D01*
X300256Y134504D01*
X300217Y134523D01*
X300178Y134533D01*
X300158D01*
X300090Y134523D01*
X300031Y134494D01*
X299982Y134455D01*
X299943Y134406D01*
X299924Y134357D01*
X299904Y134318D01*
X299885Y134289D01*
Y134279D01*
X299855Y134172D01*
X299836Y134035D01*
X299816Y133889D01*
X299807Y133743D01*
X299797Y133616D01*
Y133499D01*
Y133459D01*
Y133430D01*
Y133411D01*
Y133401D01*
Y133079D01*
Y132874D01*
X299787Y132679D01*
X299777Y132503D01*
X299768Y132337D01*
X299748Y132191D01*
X299738Y132064D01*
X299719Y131947D01*
X299699Y131839D01*
X299680Y131742D01*
X299660Y131664D01*
X299651Y131605D01*
X299631Y131547D01*
X299621Y131508D01*
X299611Y131478D01*
X299602Y131468D01*
Y131459D01*
X299563Y131381D01*
X299514Y131312D01*
X299416Y131195D01*
X299299Y131117D01*
X299192Y131059D01*
X299094Y131029D01*
X299006Y131010D01*
X298948Y131000D01*
X298928D01*
X298831Y131010D01*
X298723Y131029D01*
X298626Y131068D01*
X298518Y131117D01*
X298323Y131244D01*
X298138Y131381D01*
X297972Y131517D01*
X297903Y131586D01*
X297845Y131644D01*
X297806Y131693D01*
X297767Y131732D01*
X297747Y131752D01*
X297738Y131761D01*
X297611Y131917D01*
X297484Y132083D01*
X297357Y132259D01*
X297220Y132445D01*
X296967Y132835D01*
X296732Y133215D01*
X296635Y133391D01*
X296537Y133557D01*
X296531Y133567D01*
X296527Y133557D01*
X296430Y133333D01*
X296332Y133137D01*
X296283Y133050D01*
X296244Y132972D01*
X296205Y132913D01*
X296176Y132864D01*
X296166Y132835D01*
X296157Y132825D01*
X295854Y132337D01*
X296010Y132259D01*
X296157Y132191D01*
X296293Y132113D01*
X296410Y132044D01*
X296527Y131986D01*
X296625Y131927D01*
X296723Y131869D01*
X296801Y131820D01*
X296869Y131771D01*
X296927Y131732D01*
X296976Y131703D01*
X297025Y131673D01*
X297074Y131625D01*
X297093Y131615D01*
X297211Y131498D01*
X297298Y131390D01*
X297367Y131293D01*
X297406Y131195D01*
X297435Y131117D01*
X297445Y131059D01*
X297455Y131019D01*
Y131010D01*
X297445Y130912D01*
X297415Y130824D01*
X297367Y130746D01*
X297318Y130678D01*
X297279Y130629D01*
X297230Y130590D01*
X297201Y130561D01*
X297191Y130551D01*
X297084Y130483D01*
X296976Y130434D01*
X296859Y130395D01*
X296762Y130375D01*
X296674Y130356D01*
X296596Y130346D01*
X296537D01*
X296420Y130356D01*
X296303Y130366D01*
X296078Y130414D01*
X295893Y130483D01*
X295717Y130561D01*
X295581Y130639D01*
X295483Y130707D01*
X295444Y130736D01*
X295415Y130756D01*
X295405Y130775D01*
X295395D01*
X295307Y130854D01*
X295229Y130941D01*
X295171Y131029D01*
X295112Y131117D01*
X295024Y131283D01*
X294966Y131439D01*
X294936Y131576D01*
X294917Y131683D01*
X294907Y131722D01*
Y131752D01*
Y131771D01*
Y131781D01*
X294917Y131878D01*
X294927Y131976D01*
X294946Y132074D01*
X294975Y132161D01*
X295005Y132230D01*
X295024Y132288D01*
X295034Y132327D01*
X295044Y132337D01*
X294800Y132474D01*
X294575Y132630D01*
X294361Y132776D01*
X294156Y132932D01*
X293960Y133089D01*
X293879Y133156D01*
X293902Y133079D01*
X293941Y132923D01*
X293970Y132767D01*
X293990Y132640D01*
X294009Y132513D01*
X294019Y132415D01*
Y132327D01*
X294029Y132259D01*
Y132220D01*
Y132210D01*
X294019Y131995D01*
X293990Y131810D01*
X293951Y131644D01*
X293912Y131508D01*
X293873Y131400D01*
X293834Y131322D01*
X293804Y131273D01*
X293795Y131254D01*
X293697Y131137D01*
X293590Y131049D01*
X293482Y130990D01*
X293385Y130951D01*
X293287Y130922D01*
X293219Y130912D01*
X293170Y130902D01*
X293150D01*
X293043Y130912D01*
X292945Y130932D01*
X292838Y130971D01*
X292731Y131010D01*
X292516Y131127D01*
X292321Y131254D01*
X292155Y131381D01*
X292087Y131439D01*
X292018Y131498D01*
X291969Y131537D01*
X291930Y131576D01*
X291911Y131595D01*
X291901Y131605D01*
X291647Y131878D01*
X291413Y132171D01*
X291208Y132454D01*
X291033Y132728D01*
X290954Y132845D01*
X290896Y132962D01*
X290837Y133059D01*
X290789Y133147D01*
X290749Y133215D01*
X290720Y133264D01*
X290710Y133303D01*
X290701Y133313D01*
X290710Y133147D01*
Y132991D01*
Y132864D01*
X290720Y132757D01*
Y132669D01*
Y132601D01*
Y132562D01*
Y132552D01*
X290710Y132308D01*
X290681Y132103D01*
X290642Y131917D01*
X290593Y131761D01*
X290535Y131634D01*
X290466Y131517D01*
X290388Y131429D01*
X290310Y131361D01*
X290242Y131303D01*
X290164Y131254D01*
X290095Y131225D01*
X290037Y131205D01*
X289988Y131195D01*
X289949Y131185D01*
X289910D01*
X289783Y131195D01*
X289656Y131225D01*
X289520Y131263D01*
X289393Y131312D01*
X289129Y131449D01*
X288885Y131605D01*
X288778Y131673D01*
X288680Y131752D01*
X288583Y131820D01*
X288505Y131888D01*
X288446Y131937D01*
X288397Y131976D01*
X288368Y132005D01*
X288358Y132015D01*
X288192Y132181D01*
X288026Y132347D01*
X287724Y132698D01*
X287451Y133050D01*
X287324Y133215D01*
X287216Y133381D01*
X287143Y133482D01*
X287148Y133421D01*
X287158Y133323D01*
Y133284D01*
X287168Y133255D01*
Y133245D01*
Y133235D01*
X287255Y132415D01*
X287275Y132239D01*
X287285Y132093D01*
X287304Y131957D01*
X287314Y131830D01*
X287324Y131732D01*
X287333Y131644D01*
Y131566D01*
X287343Y131508D01*
Y131449D01*
Y131410D01*
X287353Y131351D01*
Y131332D01*
Y131322D01*
Y131244D01*
X287333Y131185D01*
X287294Y131078D01*
X287236Y131010D01*
X287158Y130951D01*
X287089Y130922D01*
X287031Y130912D01*
X286992Y130902D01*
X286972D01*
X286855Y130922D01*
X286728Y130951D01*
X286680Y130971D01*
X286641Y130981D01*
X286611Y131000D01*
X286601D01*
X286631Y131059D01*
X286641Y131117D01*
X286650Y131156D01*
Y131166D01*
X286641Y131263D01*
X286601Y131371D01*
X286553Y131498D01*
X286504Y131615D01*
X286445Y131722D01*
X286406Y131820D01*
X286367Y131878D01*
X286357Y131888D01*
Y131898D01*
X286318Y131966D01*
X286270Y132064D01*
X286211Y132161D01*
X286153Y132269D01*
X286094Y132366D01*
X286045Y132454D01*
X286016Y132513D01*
X286006Y132523D01*
Y132532D01*
X285899Y132718D01*
X285801Y132884D01*
X285713Y133040D01*
X285616Y133196D01*
X285528Y133333D01*
X285440Y133459D01*
X285284Y133694D01*
X285137Y133879D01*
X285001Y134045D01*
X284884Y134182D01*
X284776Y134279D01*
X284688Y134367D01*
X284601Y134426D01*
X284542Y134475D01*
X284484Y134504D01*
X284444Y134523D01*
X284405Y134533D01*
X284386D01*
X284318Y134523D01*
X284259Y134494D01*
X284210Y134455D01*
X284171Y134406D01*
X284152Y134357D01*
X284132Y134318D01*
X284113Y134289D01*
Y134279D01*
X284083Y134172D01*
X284064Y134035D01*
X284044Y133889D01*
X284035Y133743D01*
X284025Y133616D01*
Y133499D01*
Y133459D01*
Y133430D01*
Y133411D01*
Y133401D01*
Y133079D01*
Y132874D01*
X284015Y132679D01*
X284005Y132503D01*
X283996Y132337D01*
X283976Y132191D01*
X283966Y132064D01*
X283947Y131947D01*
X283927Y131839D01*
X283908Y131742D01*
X283888Y131664D01*
X283878Y131605D01*
X283859Y131547D01*
X283849Y131508D01*
X283839Y131478D01*
X283830Y131468D01*
Y131459D01*
X283791Y131381D01*
X283742Y131312D01*
X283644Y131195D01*
X283527Y131117D01*
X283420Y131059D01*
X283322Y131029D01*
X283234Y131010D01*
X283176Y131000D01*
X283156D01*
X283059Y131010D01*
X282951Y131029D01*
X282854Y131068D01*
X282746Y131117D01*
X282551Y131244D01*
X282366Y131381D01*
X282200Y131517D01*
X282131Y131586D01*
X282073Y131644D01*
X282034Y131693D01*
X281995Y131732D01*
X281975Y131752D01*
X281965Y131761D01*
X281839Y131917D01*
X281712Y132083D01*
X281585Y132259D01*
X281448Y132445D01*
X281194Y132835D01*
X281101Y132987D01*
X281107Y132952D01*
X281116Y132903D01*
X281126Y132874D01*
Y132864D01*
X281214Y132445D01*
X281233Y132318D01*
X281253Y132201D01*
X281263Y132113D01*
X281273Y132035D01*
X281282Y131976D01*
Y131937D01*
Y131917D01*
Y131908D01*
X281273Y131742D01*
X281243Y131595D01*
X281204Y131478D01*
X281155Y131371D01*
X281107Y131283D01*
X281067Y131225D01*
X281038Y131185D01*
X281029Y131176D01*
X280921Y131088D01*
X280814Y131019D01*
X280697Y130971D01*
X280589Y130941D01*
X280492Y130922D01*
X280414Y130902D01*
X280345D01*
X280209Y130912D01*
X280072Y130941D01*
X279935Y130981D01*
X279799Y131029D01*
X279662Y131098D01*
X279535Y131166D01*
X279291Y131322D01*
X279184Y131400D01*
X279077Y131478D01*
X278989Y131547D01*
X278911Y131615D01*
X278852Y131664D01*
X278803Y131703D01*
X278774Y131732D01*
X278764Y131742D01*
X278598Y131908D01*
X278432Y132083D01*
X278120Y132474D01*
X277867Y132811D01*
X277876Y132757D01*
X277886Y132649D01*
X277895Y132562D01*
Y132493D01*
X277905Y132435D01*
Y132386D01*
Y132366D01*
Y132357D01*
X277895Y132122D01*
X277856Y131917D01*
X277817Y131742D01*
X277759Y131586D01*
X277710Y131468D01*
X277661Y131381D01*
X277632Y131322D01*
X277622Y131303D01*
X277505Y131166D01*
X277388Y131068D01*
X277261Y131000D01*
X277144Y130951D01*
X277037Y130922D01*
X276959Y130912D01*
X276900Y130902D01*
X276881D01*
X276783Y130912D01*
X276685Y130922D01*
X276480Y130971D01*
X276295Y131039D01*
X276119Y131127D01*
X275963Y131205D01*
X275895Y131244D01*
X275846Y131273D01*
X275797Y131303D01*
X275768Y131322D01*
X275748Y131342D01*
X275739D01*
X275631Y131429D01*
X275534Y131508D01*
X275446Y131586D01*
X275377Y131664D01*
X275319Y131732D01*
X275270Y131800D01*
X275192Y131917D01*
X275143Y132025D01*
X275124Y132093D01*
X275114Y132142D01*
Y132161D01*
X275133Y132279D01*
X275163Y132386D01*
X275182Y132425D01*
X275192Y132464D01*
X275212Y132483D01*
Y132493D01*
X275280Y132366D01*
X275368Y132249D01*
X275455Y132142D01*
X275553Y132044D01*
X275631Y131966D01*
X275699Y131908D01*
X275748Y131869D01*
X275768Y131859D01*
X275904Y131771D01*
X276041Y131703D01*
X276158Y131654D01*
X276266Y131625D01*
X276344Y131605D01*
X276412Y131586D01*
X276471D01*
X276578Y131595D01*
X276676Y131625D01*
X276763Y131664D01*
X276841Y131722D01*
X276900Y131791D01*
X276949Y131869D01*
X277027Y132025D01*
X277076Y132191D01*
X277085Y132259D01*
X277095Y132327D01*
X277105Y132386D01*
Y132425D01*
Y132454D01*
Y132464D01*
X277095Y132620D01*
X277085Y132796D01*
X277066Y132981D01*
X277027Y133177D01*
X276959Y133567D01*
X276871Y133948D01*
X276822Y134133D01*
X276783Y134299D01*
X276744Y134445D01*
X276705Y134582D01*
X276676Y134689D01*
X276656Y134767D01*
X276646Y134816D01*
X276637Y134836D01*
X276627Y134894D01*
X276607Y134963D01*
X276597Y135011D01*
X276588Y135021D01*
Y135031D01*
X274450D01*
X274304Y135041D01*
X274177Y135050D01*
X274079Y135070D01*
X273991Y135089D01*
X273933Y135109D01*
X273894Y135128D01*
X273874Y135148D01*
X273865D01*
X273806Y135207D01*
X273757Y135275D01*
X273718Y135363D01*
X273679Y135451D01*
X273650Y135529D01*
X273630Y135597D01*
X273611Y135636D01*
Y135655D01*
X273728Y135607D01*
X273855Y135577D01*
X273991Y135548D01*
X274118Y135538D01*
X274236Y135529D01*
X274333Y135519D01*
X276412D01*
X276353Y135685D01*
X276295Y135831D01*
X276236Y135968D01*
X276187Y136095D01*
X276129Y136212D01*
X276080Y136319D01*
X276031Y136417D01*
X275983Y136495D01*
X275943Y136563D01*
X275904Y136632D01*
X275875Y136680D01*
X275846Y136729D01*
X275807Y136778D01*
X275797Y136797D01*
X275875Y136807D01*
X275983D01*
X276158Y136797D01*
D02*
G37*
G36*
X340155Y136680D02*
X340281Y136583D01*
X340408Y136495D01*
X340525Y136417D01*
X340633Y136358D01*
X340721Y136309D01*
X340779Y136270D01*
X340789Y136261D01*
X340799D01*
X340965Y136183D01*
X341111Y136114D01*
X341228Y136075D01*
X341336Y136046D01*
X341414Y136026D01*
X341472Y136017D01*
X341511Y136007D01*
X341521D01*
X341580Y136017D01*
X341628Y135851D01*
X341638Y135773D01*
X341648Y135695D01*
X341658Y135636D01*
Y135587D01*
Y135548D01*
Y135538D01*
X341648Y135480D01*
X341638Y135431D01*
X341609Y135402D01*
X341580Y135372D01*
X341531Y135353D01*
X341511D01*
X341462Y135363D01*
X341414Y135372D01*
X341277Y135441D01*
X341140Y135519D01*
X340994Y135626D01*
X340857Y135724D01*
X340750Y135802D01*
X340701Y135841D01*
X340672Y135870D01*
X340652Y135880D01*
X340643Y135890D01*
X340496Y136026D01*
X340369Y136173D01*
X340262Y136329D01*
X340184Y136466D01*
X340125Y136592D01*
X340076Y136690D01*
X340067Y136729D01*
X340057Y136758D01*
X340047Y136768D01*
Y136778D01*
X340155Y136680D01*
D02*
G37*
G36*
X361910D02*
X362036Y136583D01*
X362163Y136495D01*
X362281Y136417D01*
X362388Y136358D01*
X362476Y136309D01*
X362534Y136270D01*
X362544Y136261D01*
X362554D01*
X362720Y136183D01*
X362866Y136114D01*
X362983Y136075D01*
X363091Y136046D01*
X363169Y136026D01*
X363227Y136017D01*
X363266Y136007D01*
X363276D01*
X363335Y136017D01*
X363383Y135851D01*
X363393Y135773D01*
X363403Y135695D01*
X363413Y135636D01*
Y135587D01*
Y135548D01*
Y135538D01*
X363403Y135480D01*
X363393Y135431D01*
X363364Y135402D01*
X363335Y135372D01*
X363286Y135353D01*
X363266D01*
X363217Y135363D01*
X363169Y135372D01*
X363032Y135441D01*
X362895Y135519D01*
X362749Y135626D01*
X362612Y135724D01*
X362505Y135802D01*
X362456Y135841D01*
X362427Y135870D01*
X362407Y135880D01*
X362398Y135890D01*
X362251Y136026D01*
X362124Y136173D01*
X362017Y136329D01*
X361939Y136466D01*
X361880Y136592D01*
X361831Y136690D01*
X361822Y136729D01*
X361812Y136758D01*
X361802Y136768D01*
Y136778D01*
X361910Y136680D01*
D02*
G37*
%LPC*%
G36*
X376735Y134445D02*
X376677D01*
X376569Y134435D01*
X376462Y134416D01*
X376423Y134406D01*
X376384D01*
X376364Y134397D01*
X376354D01*
X376247Y134328D01*
X376149Y134270D01*
X376052Y134221D01*
X375954Y134182D01*
X375886Y134152D01*
X375818Y134133D01*
X375779Y134113D01*
X375769D01*
X375710Y133899D01*
X375691Y133791D01*
X375681Y133703D01*
X375671Y133625D01*
X375661Y133567D01*
Y133518D01*
Y133508D01*
X375671Y133342D01*
X375681Y133186D01*
X375740Y132893D01*
X375818Y132630D01*
X375857Y132513D01*
X375896Y132405D01*
X375944Y132308D01*
X375984Y132220D01*
X376023Y132142D01*
X376062Y132083D01*
X376091Y132035D01*
X376110Y131995D01*
X376120Y131976D01*
X376130Y131966D01*
X376218Y131849D01*
X376306Y131752D01*
X376403Y131664D01*
X376491Y131595D01*
X376589Y131527D01*
X376677Y131478D01*
X376852Y131400D01*
X377008Y131361D01*
X377067Y131342D01*
X377125Y131332D01*
X377174Y131322D01*
X377233D01*
X377399Y131342D01*
X377555Y131381D01*
X377692Y131429D01*
X377799Y131498D01*
X377896Y131556D01*
X377955Y131615D01*
X378004Y131654D01*
X378014Y131664D01*
X378111Y131800D01*
X378180Y131947D01*
X378238Y132093D01*
X378267Y132230D01*
X378287Y132357D01*
X378297Y132454D01*
X378306Y132493D01*
Y132523D01*
Y132532D01*
Y132542D01*
X378297Y132679D01*
X378287Y132815D01*
X378228Y133059D01*
X378150Y133284D01*
X378053Y133479D01*
X378014Y133567D01*
X377965Y133635D01*
X377926Y133703D01*
X377887Y133762D01*
X377857Y133801D01*
X377828Y133830D01*
X377818Y133850D01*
X377809Y133860D01*
X377711Y133957D01*
X377613Y134055D01*
X377516Y134123D01*
X377418Y134192D01*
X377321Y134250D01*
X377233Y134299D01*
X377057Y134367D01*
X376901Y134416D01*
X376842Y134426D01*
X376784Y134435D01*
X376735Y134445D01*
D02*
G37*
G36*
X460183D02*
X460124D01*
X460017Y134435D01*
X459910Y134416D01*
X459871Y134406D01*
X459832D01*
X459812Y134397D01*
X459802D01*
X459695Y134328D01*
X459597Y134270D01*
X459500Y134221D01*
X459402Y134182D01*
X459334Y134152D01*
X459266Y134133D01*
X459227Y134113D01*
X459217D01*
X459158Y133899D01*
X459139Y133791D01*
X459129Y133703D01*
X459119Y133625D01*
X459109Y133567D01*
Y133518D01*
Y133508D01*
X459119Y133342D01*
X459129Y133186D01*
X459188Y132893D01*
X459266Y132630D01*
X459305Y132513D01*
X459344Y132405D01*
X459392Y132308D01*
X459432Y132220D01*
X459471Y132142D01*
X459510Y132083D01*
X459539Y132035D01*
X459558Y131995D01*
X459568Y131976D01*
X459578Y131966D01*
X459666Y131849D01*
X459754Y131752D01*
X459851Y131664D01*
X459939Y131595D01*
X460037Y131527D01*
X460124Y131478D01*
X460300Y131400D01*
X460456Y131361D01*
X460515Y131342D01*
X460573Y131332D01*
X460622Y131322D01*
X460681D01*
X460847Y131342D01*
X461003Y131381D01*
X461139Y131429D01*
X461247Y131498D01*
X461344Y131556D01*
X461403Y131615D01*
X461452Y131654D01*
X461462Y131664D01*
X461559Y131800D01*
X461627Y131947D01*
X461686Y132093D01*
X461715Y132230D01*
X461735Y132357D01*
X461745Y132454D01*
X461754Y132493D01*
Y132523D01*
Y132532D01*
Y132542D01*
X461745Y132679D01*
X461735Y132815D01*
X461676Y133059D01*
X461598Y133284D01*
X461501Y133479D01*
X461462Y133567D01*
X461413Y133635D01*
X461374Y133703D01*
X461335Y133762D01*
X461305Y133801D01*
X461276Y133830D01*
X461266Y133850D01*
X461257Y133860D01*
X461159Y133957D01*
X461061Y134055D01*
X460964Y134123D01*
X460866Y134192D01*
X460769Y134250D01*
X460681Y134299D01*
X460505Y134367D01*
X460349Y134416D01*
X460290Y134426D01*
X460232Y134435D01*
X460183Y134445D01*
D02*
G37*
G36*
X353321Y131995D02*
X353262Y131830D01*
X353243Y131761D01*
X353233Y131693D01*
X353223Y131634D01*
Y131595D01*
Y131566D01*
Y131556D01*
X353233Y131429D01*
X353253Y131322D01*
X353292Y131225D01*
X353331Y131137D01*
X353370Y131068D01*
X353409Y131019D01*
X353428Y130990D01*
X353438Y130981D01*
X353526Y130902D01*
X353614Y130854D01*
X353701Y130815D01*
X353789Y130785D01*
X353867Y130766D01*
X353926Y130756D01*
X354063D01*
X354131Y130766D01*
X354248Y130805D01*
X354326Y130854D01*
X354375Y130912D01*
X354414Y130961D01*
X354424Y131010D01*
X354433Y131049D01*
Y131059D01*
X354424Y131127D01*
X354385Y131195D01*
X354326Y131273D01*
X354258Y131342D01*
X354180Y131420D01*
X354082Y131498D01*
X353877Y131654D01*
X353672Y131791D01*
X353575Y131849D01*
X353497Y131898D01*
X353418Y131937D01*
X353370Y131966D01*
X353331Y131986D01*
X353321Y131995D01*
D02*
G37*
G36*
X408982D02*
X408923Y131830D01*
X408904Y131761D01*
X408894Y131693D01*
X408884Y131634D01*
Y131595D01*
Y131566D01*
Y131556D01*
X408894Y131429D01*
X408914Y131322D01*
X408953Y131225D01*
X408992Y131137D01*
X409031Y131068D01*
X409070Y131019D01*
X409089Y130990D01*
X409099Y130981D01*
X409187Y130902D01*
X409275Y130854D01*
X409363Y130815D01*
X409451Y130785D01*
X409529Y130766D01*
X409587Y130756D01*
X409724D01*
X409792Y130766D01*
X409909Y130805D01*
X409987Y130854D01*
X410036Y130912D01*
X410075Y130961D01*
X410085Y131010D01*
X410095Y131049D01*
Y131059D01*
X410085Y131127D01*
X410046Y131195D01*
X409987Y131273D01*
X409919Y131342D01*
X409841Y131420D01*
X409743Y131498D01*
X409538Y131654D01*
X409333Y131791D01*
X409236Y131849D01*
X409158Y131898D01*
X409080Y131937D01*
X409031Y131966D01*
X408992Y131986D01*
X408982Y131995D01*
D02*
G37*
G36*
X380707D02*
X380649Y131830D01*
X380629Y131761D01*
X380620Y131693D01*
X380610Y131634D01*
Y131595D01*
Y131566D01*
Y131556D01*
X380620Y131429D01*
X380639Y131322D01*
X380678Y131225D01*
X380717Y131137D01*
X380756Y131068D01*
X380795Y131019D01*
X380815Y130990D01*
X380824Y130981D01*
X380912Y130902D01*
X381000Y130854D01*
X381088Y130815D01*
X381176Y130785D01*
X381254Y130766D01*
X381312Y130756D01*
X381449D01*
X381517Y130766D01*
X381635Y130805D01*
X381713Y130854D01*
X381761Y130912D01*
X381801Y130961D01*
X381810Y131010D01*
X381820Y131049D01*
Y131059D01*
X381810Y131127D01*
X381771Y131195D01*
X381713Y131273D01*
X381644Y131342D01*
X381566Y131420D01*
X381469Y131498D01*
X381264Y131654D01*
X381059Y131791D01*
X380961Y131849D01*
X380883Y131898D01*
X380805Y131937D01*
X380756Y131966D01*
X380717Y131986D01*
X380707Y131995D01*
D02*
G37*
G36*
X324783Y134445D02*
X324724D01*
X324617Y134435D01*
X324509Y134416D01*
X324470Y134406D01*
X324431D01*
X324412Y134397D01*
X324402D01*
X324295Y134328D01*
X324197Y134270D01*
X324099Y134221D01*
X324002Y134182D01*
X323933Y134152D01*
X323865Y134133D01*
X323826Y134113D01*
X323816D01*
X323758Y133899D01*
X323738Y133791D01*
X323728Y133703D01*
X323719Y133625D01*
X323709Y133567D01*
Y133518D01*
Y133508D01*
X323719Y133342D01*
X323728Y133186D01*
X323787Y132893D01*
X323865Y132630D01*
X323904Y132513D01*
X323943Y132405D01*
X323992Y132308D01*
X324031Y132220D01*
X324070Y132142D01*
X324109Y132083D01*
X324138Y132035D01*
X324158Y131995D01*
X324168Y131976D01*
X324177Y131966D01*
X324265Y131849D01*
X324353Y131752D01*
X324451Y131664D01*
X324539Y131595D01*
X324636Y131527D01*
X324724Y131478D01*
X324900Y131400D01*
X325056Y131361D01*
X325114Y131342D01*
X325173Y131332D01*
X325222Y131322D01*
X325280D01*
X325446Y131342D01*
X325602Y131381D01*
X325739Y131429D01*
X325846Y131498D01*
X325944Y131556D01*
X326003Y131615D01*
X326051Y131654D01*
X326061Y131664D01*
X326159Y131800D01*
X326227Y131947D01*
X326286Y132093D01*
X326315Y132230D01*
X326334Y132357D01*
X326344Y132454D01*
X326354Y132493D01*
Y132523D01*
Y132532D01*
Y132542D01*
X326344Y132679D01*
X326334Y132815D01*
X326276Y133059D01*
X326198Y133284D01*
X326100Y133479D01*
X326061Y133567D01*
X326012Y133635D01*
X325973Y133703D01*
X325934Y133762D01*
X325905Y133801D01*
X325876Y133830D01*
X325866Y133850D01*
X325856Y133860D01*
X325759Y133957D01*
X325661Y134055D01*
X325563Y134123D01*
X325466Y134192D01*
X325368Y134250D01*
X325280Y134299D01*
X325105Y134367D01*
X324949Y134416D01*
X324890Y134426D01*
X324831Y134435D01*
X324783Y134445D01*
D02*
G37*
G36*
X295688Y131995D02*
X295629Y131830D01*
X295610Y131761D01*
X295600Y131693D01*
X295590Y131634D01*
Y131595D01*
Y131566D01*
Y131556D01*
X295600Y131429D01*
X295620Y131322D01*
X295659Y131225D01*
X295698Y131137D01*
X295737Y131068D01*
X295776Y131019D01*
X295795Y130990D01*
X295805Y130981D01*
X295893Y130902D01*
X295981Y130854D01*
X296069Y130815D01*
X296157Y130785D01*
X296235Y130766D01*
X296293Y130756D01*
X296430D01*
X296498Y130766D01*
X296615Y130805D01*
X296693Y130854D01*
X296742Y130912D01*
X296781Y130961D01*
X296791Y131010D01*
X296801Y131049D01*
Y131059D01*
X296791Y131127D01*
X296752Y131195D01*
X296693Y131273D01*
X296625Y131342D01*
X296547Y131420D01*
X296449Y131498D01*
X296244Y131654D01*
X296039Y131791D01*
X295942Y131849D01*
X295864Y131898D01*
X295786Y131937D01*
X295737Y131966D01*
X295698Y131986D01*
X295688Y131995D01*
D02*
G37*
G36*
X337636D02*
X337578Y131830D01*
X337558Y131761D01*
X337549Y131693D01*
X337539Y131634D01*
Y131595D01*
Y131566D01*
Y131556D01*
X337549Y131429D01*
X337568Y131322D01*
X337607Y131225D01*
X337646Y131137D01*
X337685Y131068D01*
X337724Y131019D01*
X337744Y130990D01*
X337754Y130981D01*
X337841Y130902D01*
X337929Y130854D01*
X338017Y130815D01*
X338105Y130785D01*
X338183Y130766D01*
X338242Y130756D01*
X338378D01*
X338447Y130766D01*
X338564Y130805D01*
X338642Y130854D01*
X338691Y130912D01*
X338730Y130961D01*
X338739Y131010D01*
X338749Y131049D01*
Y131059D01*
X338739Y131127D01*
X338700Y131195D01*
X338642Y131273D01*
X338573Y131342D01*
X338495Y131420D01*
X338398Y131498D01*
X338193Y131654D01*
X337988Y131791D01*
X337890Y131849D01*
X337812Y131898D01*
X337734Y131937D01*
X337685Y131966D01*
X337646Y131986D01*
X337636Y131995D01*
D02*
G37*
G36*
X415512Y134836D02*
X415463D01*
X415385Y134826D01*
X415316Y134816D01*
X415209Y134758D01*
X415131Y134679D01*
X415082Y134592D01*
X415043Y134504D01*
X415033Y134426D01*
X415024Y134367D01*
Y134357D01*
Y134348D01*
X415033Y134250D01*
X415053Y134152D01*
X415072Y134065D01*
X415111Y133977D01*
X415209Y133811D01*
X415307Y133674D01*
X415414Y133557D01*
X415512Y133469D01*
X415551Y133440D01*
X415570Y133421D01*
X415590Y133411D01*
X415599Y133401D01*
X415824Y133264D01*
X416058Y133157D01*
X416283Y133079D01*
X416497Y133020D01*
X416683Y132991D01*
X416761Y132972D01*
X416829Y132962D01*
X416888D01*
X416927Y132952D01*
X416966D01*
X416907Y133235D01*
X416839Y133489D01*
X416741Y133713D01*
X416653Y133908D01*
X416605Y133996D01*
X416566Y134065D01*
X416527Y134133D01*
X416488Y134182D01*
X416458Y134221D01*
X416439Y134250D01*
X416419Y134270D01*
Y134279D01*
X416331Y134377D01*
X416253Y134465D01*
X416165Y134533D01*
X416087Y134601D01*
X416000Y134660D01*
X415921Y134699D01*
X415775Y134767D01*
X415648Y134806D01*
X415551Y134826D01*
X415512Y134836D01*
D02*
G37*
G36*
X311938D02*
X311890D01*
X311811Y134826D01*
X311743Y134816D01*
X311636Y134758D01*
X311558Y134679D01*
X311509Y134592D01*
X311470Y134504D01*
X311460Y134426D01*
X311450Y134367D01*
Y134357D01*
Y134348D01*
X311460Y134250D01*
X311480Y134152D01*
X311499Y134065D01*
X311538Y133977D01*
X311636Y133811D01*
X311733Y133674D01*
X311841Y133557D01*
X311938Y133469D01*
X311977Y133440D01*
X311997Y133421D01*
X312017Y133411D01*
X312026Y133401D01*
X312251Y133264D01*
X312485Y133157D01*
X312709Y133079D01*
X312924Y133020D01*
X313110Y132991D01*
X313188Y132972D01*
X313256Y132962D01*
X313315D01*
X313354Y132952D01*
X313393D01*
X313334Y133235D01*
X313266Y133489D01*
X313168Y133713D01*
X313080Y133908D01*
X313032Y133996D01*
X312993Y134065D01*
X312953Y134133D01*
X312914Y134182D01*
X312885Y134221D01*
X312866Y134250D01*
X312846Y134270D01*
Y134279D01*
X312758Y134377D01*
X312680Y134465D01*
X312592Y134533D01*
X312514Y134601D01*
X312426Y134660D01*
X312348Y134699D01*
X312202Y134767D01*
X312075Y134806D01*
X311977Y134826D01*
X311938Y134836D01*
D02*
G37*
G36*
X424266D02*
X424217D01*
X424139Y134826D01*
X424071Y134816D01*
X423964Y134758D01*
X423886Y134679D01*
X423837Y134592D01*
X423798Y134504D01*
X423788Y134426D01*
X423778Y134367D01*
Y134357D01*
Y134348D01*
X423788Y134250D01*
X423807Y134152D01*
X423827Y134065D01*
X423866Y133977D01*
X423964Y133811D01*
X424061Y133674D01*
X424169Y133557D01*
X424266Y133469D01*
X424305Y133440D01*
X424325Y133421D01*
X424344Y133411D01*
X424354Y133401D01*
X424579Y133264D01*
X424813Y133157D01*
X425037Y133079D01*
X425252Y133020D01*
X425437Y132991D01*
X425516Y132972D01*
X425584Y132962D01*
X425642D01*
X425681Y132952D01*
X425721D01*
X425662Y133235D01*
X425594Y133489D01*
X425496Y133713D01*
X425408Y133908D01*
X425359Y133996D01*
X425320Y134065D01*
X425281Y134133D01*
X425242Y134182D01*
X425213Y134221D01*
X425193Y134250D01*
X425174Y134270D01*
Y134279D01*
X425086Y134377D01*
X425008Y134465D01*
X424920Y134533D01*
X424842Y134601D01*
X424754Y134660D01*
X424676Y134699D01*
X424530Y134767D01*
X424403Y134806D01*
X424305Y134826D01*
X424266Y134836D01*
D02*
G37*
G36*
X473086D02*
X473037D01*
X472959Y134826D01*
X472891Y134816D01*
X472783Y134758D01*
X472705Y134679D01*
X472656Y134592D01*
X472617Y134504D01*
X472608Y134426D01*
X472598Y134367D01*
Y134357D01*
Y134348D01*
X472608Y134250D01*
X472627Y134152D01*
X472647Y134065D01*
X472686Y133977D01*
X472783Y133811D01*
X472881Y133674D01*
X472988Y133557D01*
X473086Y133469D01*
X473125Y133440D01*
X473144Y133421D01*
X473164Y133411D01*
X473174Y133401D01*
X473398Y133264D01*
X473632Y133157D01*
X473857Y133079D01*
X474072Y133020D01*
X474257Y132991D01*
X474335Y132972D01*
X474403Y132962D01*
X474462D01*
X474501Y132952D01*
X474540D01*
X474481Y133235D01*
X474413Y133489D01*
X474316Y133713D01*
X474228Y133908D01*
X474179Y133996D01*
X474140Y134065D01*
X474101Y134133D01*
X474062Y134182D01*
X474032Y134221D01*
X474013Y134250D01*
X473993Y134270D01*
Y134279D01*
X473906Y134377D01*
X473828Y134465D01*
X473740Y134533D01*
X473662Y134601D01*
X473574Y134660D01*
X473496Y134699D01*
X473349Y134767D01*
X473222Y134806D01*
X473125Y134826D01*
X473086Y134836D01*
D02*
G37*
G36*
X452336D02*
X452287D01*
X452209Y134826D01*
X452141Y134816D01*
X452033Y134758D01*
X451955Y134679D01*
X451907Y134592D01*
X451867Y134504D01*
X451858Y134426D01*
X451848Y134367D01*
Y134357D01*
Y134348D01*
X451858Y134250D01*
X451877Y134152D01*
X451897Y134065D01*
X451936Y133977D01*
X452033Y133811D01*
X452131Y133674D01*
X452238Y133557D01*
X452336Y133469D01*
X452375Y133440D01*
X452395Y133421D01*
X452414Y133411D01*
X452424Y133401D01*
X452648Y133264D01*
X452883Y133157D01*
X453107Y133079D01*
X453322Y133020D01*
X453507Y132991D01*
X453585Y132972D01*
X453654Y132962D01*
X453712D01*
X453751Y132952D01*
X453790D01*
X453732Y133235D01*
X453663Y133489D01*
X453566Y133713D01*
X453478Y133908D01*
X453429Y133996D01*
X453390Y134065D01*
X453351Y134133D01*
X453312Y134182D01*
X453283Y134221D01*
X453263Y134250D01*
X453244Y134270D01*
Y134279D01*
X453156Y134377D01*
X453078Y134465D01*
X452990Y134533D01*
X452912Y134601D01*
X452824Y134660D01*
X452746Y134699D01*
X452599Y134767D01*
X452473Y134806D01*
X452375Y134826D01*
X452336Y134836D01*
D02*
G37*
G36*
X302314Y132377D02*
X302315Y132366D01*
Y132376D01*
X302314Y132377D01*
D02*
G37*
G36*
X392468Y134748D02*
X392410D01*
X392312Y134738D01*
X392205Y134728D01*
X391980Y134670D01*
X391756Y134582D01*
X391551Y134484D01*
X391365Y134387D01*
X391287Y134348D01*
X391219Y134299D01*
X391160Y134270D01*
X391121Y134240D01*
X391092Y134231D01*
X391082Y134221D01*
X391131Y134162D01*
X391160Y134113D01*
X391190Y134074D01*
X391209Y134045D01*
X391229Y134016D01*
X391238Y134006D01*
X391375Y133791D01*
X391512Y133586D01*
X391639Y133401D01*
X391765Y133215D01*
X391883Y133059D01*
X392000Y132903D01*
X392107Y132757D01*
X392205Y132630D01*
X392302Y132513D01*
X392400Y132396D01*
X392566Y132210D01*
X392722Y132044D01*
X392849Y131927D01*
X392966Y131820D01*
X393063Y131752D01*
X393142Y131693D01*
X393210Y131664D01*
X393259Y131644D01*
X393288Y131634D01*
X393307Y131625D01*
X393317D01*
X393405Y131634D01*
X393483Y131654D01*
X393551Y131693D01*
X393600Y131742D01*
X393698Y131869D01*
X393757Y132005D01*
X393786Y132142D01*
X393805Y132269D01*
X393815Y132318D01*
Y132357D01*
Y132376D01*
Y132386D01*
X393795Y132728D01*
X393747Y133050D01*
X393717Y133196D01*
X393688Y133333D01*
X393649Y133459D01*
X393610Y133577D01*
X393571Y133684D01*
X393532Y133772D01*
X393503Y133850D01*
X393473Y133918D01*
X393444Y133977D01*
X393425Y134016D01*
X393405Y134035D01*
Y134045D01*
X393327Y134172D01*
X393239Y134279D01*
X393161Y134367D01*
X393073Y134455D01*
X392985Y134523D01*
X392907Y134572D01*
X392829Y134621D01*
X392751Y134660D01*
X392615Y134709D01*
X392507Y134738D01*
X392468Y134748D01*
D02*
G37*
G36*
X291911D02*
X291852D01*
X291755Y134738D01*
X291647Y134728D01*
X291423Y134670D01*
X291198Y134582D01*
X290993Y134484D01*
X290808Y134387D01*
X290730Y134348D01*
X290662Y134299D01*
X290603Y134270D01*
X290564Y134240D01*
X290535Y134231D01*
X290525Y134221D01*
X290574Y134162D01*
X290603Y134113D01*
X290632Y134074D01*
X290652Y134045D01*
X290671Y134016D01*
X290681Y134006D01*
X290818Y133791D01*
X290954Y133586D01*
X291081Y133401D01*
X291208Y133215D01*
X291325Y133059D01*
X291442Y132903D01*
X291550Y132757D01*
X291647Y132630D01*
X291745Y132513D01*
X291843Y132396D01*
X292008Y132210D01*
X292165Y132044D01*
X292291Y131927D01*
X292409Y131820D01*
X292506Y131752D01*
X292584Y131693D01*
X292653Y131664D01*
X292701Y131644D01*
X292731Y131634D01*
X292750Y131625D01*
X292760D01*
X292848Y131634D01*
X292926Y131654D01*
X292994Y131693D01*
X293043Y131742D01*
X293141Y131869D01*
X293199Y132005D01*
X293229Y132142D01*
X293248Y132269D01*
X293258Y132318D01*
Y132357D01*
Y132376D01*
Y132386D01*
X293238Y132728D01*
X293189Y133050D01*
X293160Y133196D01*
X293131Y133333D01*
X293092Y133459D01*
X293053Y133577D01*
X293014Y133684D01*
X292975Y133772D01*
X292945Y133850D01*
X292916Y133918D01*
X292887Y133977D01*
X292867Y134016D01*
X292848Y134035D01*
Y134045D01*
X292770Y134172D01*
X292682Y134279D01*
X292604Y134367D01*
X292516Y134455D01*
X292428Y134523D01*
X292350Y134572D01*
X292272Y134621D01*
X292194Y134660D01*
X292057Y134709D01*
X291950Y134738D01*
X291911Y134748D01*
D02*
G37*
G36*
X405205D02*
X405146D01*
X405049Y134738D01*
X404941Y134728D01*
X404717Y134670D01*
X404493Y134582D01*
X404287Y134484D01*
X404102Y134387D01*
X404024Y134348D01*
X403956Y134299D01*
X403897Y134270D01*
X403858Y134240D01*
X403829Y134231D01*
X403819Y134221D01*
X403868Y134162D01*
X403897Y134113D01*
X403926Y134074D01*
X403946Y134045D01*
X403965Y134016D01*
X403975Y134006D01*
X404112Y133791D01*
X404249Y133586D01*
X404375Y133401D01*
X404502Y133215D01*
X404619Y133059D01*
X404737Y132903D01*
X404844Y132757D01*
X404941Y132630D01*
X405039Y132513D01*
X405137Y132396D01*
X405303Y132210D01*
X405459Y132044D01*
X405586Y131927D01*
X405703Y131820D01*
X405800Y131752D01*
X405878Y131693D01*
X405947Y131664D01*
X405996Y131644D01*
X406025Y131634D01*
X406044Y131625D01*
X406054D01*
X406142Y131634D01*
X406220Y131654D01*
X406288Y131693D01*
X406337Y131742D01*
X406435Y131869D01*
X406493Y132005D01*
X406523Y132142D01*
X406542Y132269D01*
X406552Y132318D01*
Y132357D01*
Y132376D01*
Y132386D01*
X406532Y132728D01*
X406484Y133050D01*
X406454Y133196D01*
X406425Y133333D01*
X406386Y133459D01*
X406347Y133577D01*
X406308Y133684D01*
X406269Y133772D01*
X406240Y133850D01*
X406210Y133918D01*
X406181Y133977D01*
X406161Y134016D01*
X406142Y134035D01*
Y134045D01*
X406064Y134172D01*
X405976Y134279D01*
X405898Y134367D01*
X405810Y134455D01*
X405722Y134523D01*
X405644Y134572D01*
X405566Y134621D01*
X405488Y134660D01*
X405351Y134709D01*
X405244Y134738D01*
X405205Y134748D01*
D02*
G37*
G36*
X469522Y132338D02*
X469523Y132327D01*
Y132337D01*
X469522Y132338D01*
D02*
G37*
G36*
X439052D02*
X439053Y132327D01*
Y132337D01*
X439052Y132338D01*
D02*
G37*
%LPD*%
M02*
