%FSLAX25Y25*%
%MOIN*%
G70*
G01*
G75*
%ADD10R,0.03937X0.04331*%
%ADD11R,0.33622X0.21063*%
%ADD12R,0.12047X0.03504*%
%ADD13R,0.05906X0.01598*%
%ADD14R,0.01598X0.05906*%
%ADD15R,0.05906X0.05118*%
%ADD16R,0.11024X0.03740*%
%ADD17R,0.05906X0.02362*%
%ADD18R,0.03347X0.05512*%
%ADD19R,0.04724X0.13780*%
%ADD20O,0.02165X0.05906*%
%ADD21R,0.02165X0.05906*%
%ADD22R,0.05118X0.04528*%
%ADD23R,0.03937X0.01378*%
%ADD24R,0.05512X0.03347*%
%ADD25R,0.05118X0.05906*%
%ADD26C,0.01000*%
%ADD27R,0.06496X0.06496*%
%ADD28C,0.06496*%
G04:AMPARAMS|DCode=29|XSize=60mil|YSize=85mil|CornerRadius=0mil|HoleSize=0mil|Usage=FLASHONLY|Rotation=90.000|XOffset=0mil|YOffset=0mil|HoleType=Round|Shape=Octagon|*
%AMOCTAGOND29*
4,1,8,-0.04250,-0.01500,-0.04250,0.01500,-0.02750,0.03000,0.02750,0.03000,0.04250,0.01500,0.04250,-0.01500,0.02750,-0.03000,-0.02750,-0.03000,-0.04250,-0.01500,0.0*
%
%ADD29OCTAGOND29*%

G04:AMPARAMS|DCode=30|XSize=60mil|YSize=85mil|CornerRadius=0mil|HoleSize=0mil|Usage=FLASHONLY|Rotation=180.000|XOffset=0mil|YOffset=0mil|HoleType=Round|Shape=Octagon|*
%AMOCTAGOND30*
4,1,8,0.01500,-0.04250,-0.01500,-0.04250,-0.03000,-0.02750,-0.03000,0.02750,-0.01500,0.04250,0.01500,0.04250,0.03000,0.02750,0.03000,-0.02750,0.01500,-0.04250,0.0*
%
%ADD30OCTAGOND30*%

%ADD31C,0.03000*%
%ADD32C,0.08000*%
%ADD33C,0.05000*%
%ADD34C,0.40000*%
%ADD35C,0.10000*%
%ADD36C,0.04000*%
%ADD37C,0.07937*%
%ADD38C,0.07500*%
%ADD39C,0.05500*%
%ADD40C,0.09000*%
%ADD41C,0.30000*%
%ADD42C,0.09500*%
%ADD43R,0.38000X0.34000*%
%ADD44C,0.06800*%
%ADD45C,0.00984*%
%ADD46C,0.00787*%
%ADD47C,0.00500*%
%ADD48C,0.00800*%
%ADD49C,0.00700*%
%ADD50R,0.04737X0.05131*%
%ADD51R,0.34422X0.21863*%
%ADD52R,0.12847X0.04304*%
%ADD53R,0.06706X0.02398*%
%ADD54R,0.02398X0.06706*%
%ADD55R,0.06706X0.05918*%
%ADD56R,0.11824X0.04540*%
%ADD57R,0.06706X0.03162*%
%ADD58R,0.04147X0.06312*%
%ADD59R,0.05524X0.14579*%
%ADD60O,0.02965X0.06706*%
%ADD61R,0.02965X0.06706*%
%ADD62R,0.05918X0.05328*%
%ADD63R,0.04737X0.02178*%
%ADD64R,0.06312X0.04147*%
%ADD65R,0.05918X0.06706*%
%ADD66R,0.07296X0.07296*%
%ADD67C,0.07296*%
G04:AMPARAMS|DCode=68|XSize=68mil|YSize=93mil|CornerRadius=0mil|HoleSize=0mil|Usage=FLASHONLY|Rotation=90.000|XOffset=0mil|YOffset=0mil|HoleType=Round|Shape=Octagon|*
%AMOCTAGOND68*
4,1,8,-0.04650,-0.01700,-0.04650,0.01700,-0.02950,0.03400,0.02950,0.03400,0.04650,0.01700,0.04650,-0.01700,0.02950,-0.03400,-0.02950,-0.03400,-0.04650,-0.01700,0.0*
%
%ADD68OCTAGOND68*%

G04:AMPARAMS|DCode=69|XSize=68mil|YSize=93mil|CornerRadius=0mil|HoleSize=0mil|Usage=FLASHONLY|Rotation=180.000|XOffset=0mil|YOffset=0mil|HoleType=Round|Shape=Octagon|*
%AMOCTAGOND69*
4,1,8,0.01700,-0.04650,-0.01700,-0.04650,-0.03400,-0.02950,-0.03400,0.02950,-0.01700,0.04650,0.01700,0.04650,0.03400,0.02950,0.03400,-0.02950,0.01700,-0.04650,0.0*
%
%ADD69OCTAGOND69*%

%ADD70C,0.03800*%
%ADD71C,0.08800*%
%ADD72C,0.05800*%
%ADD73C,0.40800*%
%ADD74C,0.10800*%
%ADD75C,0.00667*%
%ADD76C,0.00600*%
D47*
X221236Y161142D02*
X225173D01*
X223205Y159173D02*
Y163110D01*
X221236Y178858D02*
X225173D01*
X223205Y176890D02*
Y180827D01*
X246827Y178858D02*
X250764D01*
X248795Y176890D02*
Y180827D01*
X246827Y161142D02*
X250764D01*
X248795Y159173D02*
Y163110D01*
X482250Y338000D02*
X485750D01*
X484000Y336250D02*
Y339750D01*
X482250Y348000D02*
X485750D01*
X484000Y346250D02*
Y349750D01*
X482250Y358000D02*
X485750D01*
X484000Y356250D02*
Y359750D01*
X482250Y368000D02*
X485750D01*
X484000Y366250D02*
Y369750D01*
X482250Y378000D02*
X485750D01*
X484000Y376250D02*
Y379750D01*
X482250Y388000D02*
X485750D01*
X484000Y386250D02*
Y389750D01*
X482250Y398000D02*
X485750D01*
X484000Y396250D02*
Y399750D01*
X482250Y408000D02*
X485750D01*
X484000Y406250D02*
Y409750D01*
X246750Y220000D02*
X250250D01*
X248500Y218250D02*
Y221750D01*
X256750Y220000D02*
X260250D01*
X258500Y218250D02*
Y221750D01*
X266750Y220000D02*
X270250D01*
X268500Y218250D02*
Y221750D01*
X276750Y220000D02*
X280250D01*
X278500Y218250D02*
Y221750D01*
X197250Y218000D02*
X200750D01*
X199000Y216250D02*
Y219750D01*
X197250Y228000D02*
X200750D01*
X199000Y226250D02*
Y229750D01*
X197250Y238000D02*
X200750D01*
X199000Y236250D02*
Y239750D01*
X197250Y248000D02*
X200750D01*
X199000Y246250D02*
Y249750D01*
X197250Y258000D02*
X200750D01*
X199000Y256250D02*
Y259750D01*
X187250Y218000D02*
X190750D01*
X189000Y216250D02*
Y219750D01*
X187250Y228000D02*
X190750D01*
X189000Y226250D02*
Y229750D01*
X187250Y238000D02*
X190750D01*
X189000Y236250D02*
Y239750D01*
X187250Y248000D02*
X190750D01*
X189000Y246250D02*
Y249750D01*
X187250Y258000D02*
X190750D01*
X189000Y256250D02*
Y259750D01*
X238250Y250000D02*
X241750D01*
X240000Y248250D02*
Y251750D01*
X248250Y250000D02*
X251750D01*
X250000Y248250D02*
Y251750D01*
X206827Y161142D02*
X210764D01*
X208795Y159173D02*
Y163110D01*
X206827Y178858D02*
X210764D01*
X208795Y176890D02*
Y180827D01*
X181236Y178858D02*
X185173D01*
X183205Y176890D02*
Y180827D01*
X181236Y161142D02*
X185173D01*
X183205Y159173D02*
Y163110D01*
X168250Y490000D02*
X171750D01*
X170000Y488250D02*
Y491750D01*
X168250Y480000D02*
X171750D01*
X170000Y478250D02*
Y481750D01*
X168250Y470000D02*
X171750D01*
X170000Y468250D02*
Y471750D01*
X168250Y460000D02*
X171750D01*
X170000Y458250D02*
Y461750D01*
X168250Y450000D02*
X171750D01*
X170000Y448250D02*
Y451750D01*
X168250Y440000D02*
X171750D01*
X170000Y438250D02*
Y441750D01*
X168250Y430000D02*
X171750D01*
X170000Y428250D02*
Y431750D01*
X168250Y420000D02*
X171750D01*
X170000Y418250D02*
Y421750D01*
X238250Y490000D02*
X241750D01*
X240000Y488250D02*
Y491750D01*
X238250Y480000D02*
X241750D01*
X240000Y478250D02*
Y481750D01*
X238250Y470000D02*
X241750D01*
X240000Y468250D02*
Y471750D01*
X238250Y460000D02*
X241750D01*
X240000Y458250D02*
Y461750D01*
X238250Y450000D02*
X241750D01*
X240000Y448250D02*
Y451750D01*
X238250Y440000D02*
X241750D01*
X240000Y438250D02*
Y441750D01*
X238250Y430000D02*
X241750D01*
X240000Y428250D02*
Y431750D01*
X238250Y420000D02*
X241750D01*
X240000Y418250D02*
Y421750D01*
X308250Y490000D02*
X311750D01*
X310000Y488250D02*
Y491750D01*
X308250Y480000D02*
X311750D01*
X310000Y478250D02*
Y481750D01*
X308250Y470000D02*
X311750D01*
X310000Y468250D02*
Y471750D01*
X308250Y460000D02*
X311750D01*
X310000Y458250D02*
Y461750D01*
X308250Y450000D02*
X311750D01*
X310000Y448250D02*
Y451750D01*
X308250Y440000D02*
X311750D01*
X310000Y438250D02*
Y441750D01*
X308250Y430000D02*
X311750D01*
X310000Y428250D02*
Y431750D01*
X308250Y420000D02*
X311750D01*
X310000Y418250D02*
Y421750D01*
X378250Y490000D02*
X381750D01*
X380000Y488250D02*
Y491750D01*
X378250Y480000D02*
X381750D01*
X380000Y478250D02*
Y481750D01*
X378250Y470000D02*
X381750D01*
X380000Y468250D02*
Y471750D01*
X378250Y460000D02*
X381750D01*
X380000Y458250D02*
Y461750D01*
X378250Y450000D02*
X381750D01*
X380000Y448250D02*
Y451750D01*
X378250Y440000D02*
X381750D01*
X380000Y438250D02*
Y441750D01*
X378250Y430000D02*
X381750D01*
X380000Y428250D02*
Y431750D01*
X378250Y420000D02*
X381750D01*
X380000Y418250D02*
Y421750D01*
X168250Y390000D02*
X171750D01*
X170000Y388250D02*
Y391750D01*
X168250Y380000D02*
X171750D01*
X170000Y378250D02*
Y381750D01*
X168250Y370000D02*
X171750D01*
X170000Y368250D02*
Y371750D01*
X168250Y360000D02*
X171750D01*
X170000Y358250D02*
Y361750D01*
X168250Y350000D02*
X171750D01*
X170000Y348250D02*
Y351750D01*
X168250Y340000D02*
X171750D01*
X170000Y338250D02*
Y341750D01*
X168250Y330000D02*
X171750D01*
X170000Y328250D02*
Y331750D01*
X168250Y320000D02*
X171750D01*
X170000Y318250D02*
Y321750D01*
X238250Y390000D02*
X241750D01*
X240000Y388250D02*
Y391750D01*
X238250Y380000D02*
X241750D01*
X240000Y378250D02*
Y381750D01*
X238250Y370000D02*
X241750D01*
X240000Y368250D02*
Y371750D01*
X238250Y360000D02*
X241750D01*
X240000Y358250D02*
Y361750D01*
X238250Y350000D02*
X241750D01*
X240000Y348250D02*
Y351750D01*
X238250Y340000D02*
X241750D01*
X240000Y338250D02*
Y341750D01*
X238250Y330000D02*
X241750D01*
X240000Y328250D02*
Y331750D01*
X238250Y320000D02*
X241750D01*
X240000Y318250D02*
Y321750D01*
X308250Y390000D02*
X311750D01*
X310000Y388250D02*
Y391750D01*
X308250Y380000D02*
X311750D01*
X310000Y378250D02*
Y381750D01*
X308250Y370000D02*
X311750D01*
X310000Y368250D02*
Y371750D01*
X308250Y360000D02*
X311750D01*
X310000Y358250D02*
Y361750D01*
X308250Y350000D02*
X311750D01*
X310000Y348250D02*
Y351750D01*
X308250Y340000D02*
X311750D01*
X310000Y338250D02*
Y341750D01*
X308250Y330000D02*
X311750D01*
X310000Y328250D02*
Y331750D01*
X308250Y320000D02*
X311750D01*
X310000Y318250D02*
Y321750D01*
X378250Y390000D02*
X381750D01*
X380000Y388250D02*
Y391750D01*
X378250Y380000D02*
X381750D01*
X380000Y378250D02*
Y381750D01*
X378250Y370000D02*
X381750D01*
X380000Y368250D02*
Y371750D01*
X378250Y360000D02*
X381750D01*
X380000Y358250D02*
Y361750D01*
X378250Y350000D02*
X381750D01*
X380000Y348250D02*
Y351750D01*
X378250Y340000D02*
X381750D01*
X380000Y338250D02*
Y341750D01*
X378250Y330000D02*
X381750D01*
X380000Y328250D02*
Y331750D01*
X378250Y320000D02*
X381750D01*
X380000Y318250D02*
Y321750D01*
X166827Y161142D02*
X170764D01*
X168795Y159173D02*
Y163110D01*
X166827Y178858D02*
X170764D01*
X168795Y176890D02*
Y180827D01*
X141236Y178858D02*
X145173D01*
X143205Y176890D02*
Y180827D01*
X141236Y161142D02*
X145173D01*
X143205Y159173D02*
Y163110D01*
X335850Y348800D02*
X337350D01*
X336600Y348050D02*
Y349550D01*
X265950Y348700D02*
X267450D01*
X266700Y347950D02*
Y349450D01*
X195450Y348500D02*
X196950D01*
X196200Y347750D02*
Y349250D01*
X125150Y348800D02*
X126650D01*
X125900Y348050D02*
Y349550D01*
X335050Y448400D02*
X336550D01*
X335800Y447650D02*
Y449150D01*
X264850Y448700D02*
X266350D01*
X265600Y447950D02*
Y449450D01*
X194250Y463750D02*
X195750D01*
X195000Y463000D02*
Y464500D01*
X194250Y448750D02*
X195750D01*
X195000Y448000D02*
Y449500D01*
X124207Y471250D02*
X125707D01*
X124957Y470500D02*
Y472000D01*
X124030Y456250D02*
X125530D01*
X124780Y455500D02*
Y457000D01*
X124250Y448750D02*
X125750D01*
X125000Y448000D02*
Y449500D01*
X291500Y120000D02*
X296500D01*
X294000Y117500D02*
Y122500D01*
X272500Y120000D02*
X277500D01*
X275000Y117500D02*
Y122500D01*
X259250Y298000D02*
X260750D01*
X260000Y297250D02*
Y298750D01*
X249250Y298000D02*
X250750D01*
X250000Y297250D02*
Y298750D01*
X239250Y298000D02*
X240750D01*
X240000Y297250D02*
Y298750D01*
X229250Y298000D02*
X230750D01*
X230000Y297250D02*
Y298750D01*
X219250Y298000D02*
X220750D01*
X220000Y297250D02*
Y298750D01*
X209250Y298000D02*
X210750D01*
X210000Y297250D02*
Y298750D01*
X199250Y298000D02*
X200750D01*
X200000Y297250D02*
Y298750D01*
X189250Y298000D02*
X190750D01*
X190000Y297250D02*
Y298750D01*
X179250Y298000D02*
X180750D01*
X180000Y297250D02*
Y298750D01*
X114250Y280000D02*
X115750D01*
X115000Y279250D02*
Y280750D01*
X119250Y280000D02*
X120750D01*
X120000Y279250D02*
Y280750D01*
X124250Y280000D02*
X125750D01*
X125000Y279250D02*
Y280750D01*
X129250Y280000D02*
X130750D01*
X130000Y279250D02*
Y280750D01*
X268570Y257500D02*
X270071D01*
X269321Y256750D02*
Y258250D01*
X354250Y276000D02*
X355750D01*
X355000Y275250D02*
Y276750D01*
X144600Y232000D02*
X147400D01*
X146000Y230600D02*
Y233400D01*
X376388Y258862D02*
X377888D01*
X377138Y258112D02*
Y259612D01*
X219250Y240000D02*
X220750D01*
X220000Y239250D02*
Y240750D01*
X351061Y482189D02*
X352561D01*
X351811Y481439D02*
Y482939D01*
X281061Y482189D02*
X282561D01*
X281811Y481439D02*
Y482939D01*
X211061Y482689D02*
X212561D01*
X211811Y481939D02*
Y483439D01*
X141061Y482189D02*
X142561D01*
X141811Y481439D02*
Y482939D01*
X198971Y345000D02*
X200471D01*
X199721Y344250D02*
Y345750D01*
X141061Y382189D02*
X142561D01*
X141811Y381439D02*
Y382939D01*
X211061Y382311D02*
X212561D01*
X211811Y381561D02*
Y383061D01*
X281750Y382500D02*
X283250D01*
X282500Y381750D02*
Y383250D01*
X351061Y381811D02*
X352561D01*
X351811Y381061D02*
Y382561D01*
X279250Y311500D02*
X280750D01*
X280000Y310750D02*
Y312250D01*
X284250Y317500D02*
X285750D01*
X285000Y316750D02*
Y318250D01*
X279250Y305000D02*
X280750D01*
X280000Y304250D02*
Y305750D01*
X284250Y300000D02*
X285750D01*
X285000Y299250D02*
Y300750D01*
X269250Y367500D02*
X270750D01*
X270000Y366750D02*
Y368250D01*
X399250Y360000D02*
X400750D01*
X400000Y359250D02*
Y360750D01*
X391750Y371250D02*
X393250D01*
X392500Y370500D02*
Y372000D01*
X396750Y363750D02*
X398250D01*
X397500Y363000D02*
Y364500D01*
X404250Y356250D02*
X405750D01*
X405000Y355500D02*
Y357000D01*
X409250Y348750D02*
X410750D01*
X410000Y348000D02*
Y349500D01*
X401750Y375000D02*
X403250D01*
X402500Y374250D02*
Y375750D01*
X394250Y367500D02*
X395750D01*
X395000Y366750D02*
Y368250D01*
X406750Y352500D02*
X408250D01*
X407500Y351750D02*
Y353250D01*
X411750Y345000D02*
X413250D01*
X412500Y344250D02*
Y345750D01*
X335050Y471250D02*
X336550D01*
X335800Y470500D02*
Y472000D01*
X338971Y467500D02*
X340471D01*
X339721Y466750D02*
Y468250D01*
X335050Y463750D02*
X336550D01*
X335800Y463000D02*
Y464500D01*
X338971Y460000D02*
X340471D01*
X339721Y459250D02*
Y460750D01*
X335050Y456250D02*
X336550D01*
X335800Y455500D02*
Y457000D01*
X338971Y452500D02*
X340471D01*
X339721Y451750D02*
Y453250D01*
X338971Y445000D02*
X340471D01*
X339721Y444250D02*
Y445750D01*
X338971Y475000D02*
X340471D01*
X339721Y474250D02*
Y475750D01*
X264850Y471250D02*
X266350D01*
X265600Y470500D02*
Y472000D01*
X268971Y467500D02*
X270471D01*
X269721Y466750D02*
Y468250D01*
X264850Y463750D02*
X266350D01*
X265600Y463000D02*
Y464500D01*
X268971Y460000D02*
X270471D01*
X269721Y459250D02*
Y460750D01*
X264850Y456250D02*
X266350D01*
X265600Y455500D02*
Y457000D01*
X268971Y452500D02*
X270471D01*
X269721Y451750D02*
Y453250D01*
X268971Y445000D02*
X270471D01*
X269721Y444250D02*
Y445750D01*
X268971Y475000D02*
X270471D01*
X269721Y474250D02*
Y475750D01*
X194250Y471250D02*
X195750D01*
X195000Y470500D02*
Y472000D01*
X198971Y467500D02*
X200471D01*
X199721Y466750D02*
Y468250D01*
X198971Y460000D02*
X200471D01*
X199721Y459250D02*
Y460750D01*
X194250Y456250D02*
X195750D01*
X195000Y455500D02*
Y457000D01*
X198971Y452500D02*
X200471D01*
X199721Y451750D02*
Y453250D01*
X198971Y445000D02*
X200471D01*
X199721Y444250D02*
Y445750D01*
X198971Y475000D02*
X200471D01*
X199721Y474250D02*
Y475750D01*
X128971Y467500D02*
X130471D01*
X129721Y466750D02*
Y468250D01*
X123970Y463750D02*
X125470D01*
X124720Y463000D02*
Y464500D01*
X128971Y460000D02*
X130471D01*
X129721Y459250D02*
Y460750D01*
X128971Y452500D02*
X130471D01*
X129721Y451750D02*
Y453250D01*
X128971Y445000D02*
X130471D01*
X129721Y444250D02*
Y445750D01*
X128971Y475000D02*
X130471D01*
X129721Y474250D02*
Y475750D01*
X125150Y371250D02*
X126650D01*
X125900Y370500D02*
Y372000D01*
X128971Y367500D02*
X130471D01*
X129721Y366750D02*
Y368250D01*
X125150Y363750D02*
X126650D01*
X125900Y363000D02*
Y364500D01*
X128971Y360000D02*
X130471D01*
X129721Y359250D02*
Y360750D01*
X125150Y356250D02*
X126650D01*
X125900Y355500D02*
Y357000D01*
X128971Y352500D02*
X130471D01*
X129721Y351750D02*
Y353250D01*
X128971Y345000D02*
X130471D01*
X129721Y344250D02*
Y345750D01*
X128971Y375000D02*
X130471D01*
X129721Y374250D02*
Y375750D01*
X195450Y371250D02*
X196950D01*
X196200Y370500D02*
Y372000D01*
X198971Y367500D02*
X200471D01*
X199721Y366750D02*
Y368250D01*
X195450Y363750D02*
X196950D01*
X196200Y363000D02*
Y364500D01*
X198971Y360000D02*
X200471D01*
X199721Y359250D02*
Y360750D01*
X195450Y356250D02*
X196950D01*
X196200Y355500D02*
Y357000D01*
X198971Y352500D02*
X200471D01*
X199721Y351750D02*
Y353250D01*
X198971Y375000D02*
X200471D01*
X199721Y374250D02*
Y375750D01*
X269250Y375000D02*
X270750D01*
X270000Y374250D02*
Y375750D01*
X338971Y375000D02*
X340471D01*
X339721Y374250D02*
Y375750D01*
X269250Y345000D02*
X270750D01*
X270000Y344250D02*
Y345750D01*
X269250Y352500D02*
X270750D01*
X270000Y351750D02*
Y353250D01*
X265950Y356250D02*
X267450D01*
X266700Y355500D02*
Y357000D01*
X269250Y360000D02*
X270750D01*
X270000Y359250D02*
Y360750D01*
X265950Y363750D02*
X267450D01*
X266700Y363000D02*
Y364500D01*
X265950Y371250D02*
X267450D01*
X266700Y370500D02*
Y372000D01*
X335850Y371250D02*
X337350D01*
X336600Y370500D02*
Y372000D01*
X335850Y363750D02*
X337350D01*
X336600Y363000D02*
Y364500D01*
X335850Y356250D02*
X337350D01*
X336600Y355500D02*
Y357000D01*
X338971Y345000D02*
X340471D01*
X339721Y344250D02*
Y345750D01*
X338971Y352500D02*
X340471D01*
X339721Y351750D02*
Y353250D01*
X338971Y360000D02*
X340471D01*
X339721Y359250D02*
Y360750D01*
X338971Y367500D02*
X340471D01*
X339721Y366750D02*
Y368250D01*
X479250Y476000D02*
X480750D01*
X480000Y475250D02*
Y476750D01*
X470482Y432500D02*
X471982D01*
X471232Y431750D02*
Y433250D01*
X466750Y395000D02*
X468250D01*
X467500Y394250D02*
Y395750D01*
X470482Y345232D02*
X471982D01*
X471232Y344482D02*
Y345982D01*
X470482Y315232D02*
X471982D01*
X471232Y314482D02*
Y315982D01*
X470482Y285268D02*
X471982D01*
X471232Y284518D02*
Y286018D01*
X470482Y255232D02*
X471982D01*
X471232Y254482D02*
Y255982D01*
X370250Y242500D02*
X371750D01*
X371000Y241750D02*
Y243250D01*
X372750Y264701D02*
X374250D01*
X373500Y263951D02*
Y265451D01*
X372750Y271000D02*
X374250D01*
X373500Y270250D02*
Y271750D01*
X368750Y267500D02*
X370250D01*
X369500Y266750D02*
Y268250D01*
X368750Y261500D02*
X370250D01*
X369500Y260750D02*
Y262250D01*
X374018Y295768D02*
X375518D01*
X374768Y295018D02*
Y296518D01*
X382482Y295768D02*
X383982D01*
X383232Y295018D02*
Y296518D01*
X381982Y215732D02*
X383482D01*
X382732Y214982D02*
Y216482D01*
X388250Y250000D02*
X389750D01*
X389000Y249250D02*
Y250750D01*
X269250Y170000D02*
X270750D01*
X270000Y169250D02*
Y170750D01*
X313518Y231268D02*
X315018D01*
X314268Y230518D02*
Y232018D01*
X322250Y275000D02*
X323750D01*
X323000Y274250D02*
Y275750D01*
X249250Y380000D02*
X250750D01*
X250000Y379250D02*
Y380750D01*
X319250Y380000D02*
X320750D01*
X320000Y379250D02*
Y380750D01*
X179250Y383000D02*
X180750D01*
X180000Y382250D02*
Y383750D01*
X109250Y372000D02*
X110750D01*
X110000Y371250D02*
Y372750D01*
X109250Y472000D02*
X110750D01*
X110000Y471250D02*
Y472750D01*
X179250Y480000D02*
X180750D01*
X180000Y479250D02*
Y480750D01*
X319250Y480000D02*
X320750D01*
X320000Y479250D02*
Y480750D01*
X249250Y480000D02*
X250750D01*
X250000Y479250D02*
Y480750D01*
X117439Y435189D02*
X118939D01*
X118189Y434439D02*
Y435939D01*
X187439Y435189D02*
X188939D01*
X188189Y434439D02*
Y435939D01*
X257439Y435189D02*
X258939D01*
X258189Y434439D02*
Y435939D01*
X327439Y435189D02*
X328939D01*
X328189Y434439D02*
Y435939D01*
X327439Y335189D02*
X328939D01*
X328189Y334439D02*
Y335939D01*
X257439Y335189D02*
X258939D01*
X258189Y334439D02*
Y335939D01*
X187439Y335189D02*
X188939D01*
X188189Y334439D02*
Y335939D01*
X117439Y335189D02*
X118939D01*
X118189Y334439D02*
Y335939D01*
X179250Y435000D02*
X180750D01*
X180000Y434250D02*
Y435750D01*
X249250Y435000D02*
X250750D01*
X250000Y434250D02*
Y435750D01*
X319250Y435000D02*
X320750D01*
X320000Y434250D02*
Y435750D01*
X343250Y213000D02*
X344750D01*
X344000Y212250D02*
Y213750D01*
X287250Y197000D02*
X288750D01*
X288000Y196250D02*
Y197750D01*
X300990Y221740D02*
X302490D01*
X301740Y220990D02*
Y222490D01*
X312187Y191937D02*
X313687D01*
X312937Y191187D02*
Y192687D01*
X219600Y126900D02*
X245600D01*
X232600Y113900D02*
Y139900D01*
X327000Y310000D02*
X353000D01*
X340000Y297000D02*
Y323000D01*
X447950Y249900D02*
X449450D01*
X448700Y249150D02*
Y250650D01*
X451850Y265400D02*
X453350D01*
X452600Y264650D02*
Y266150D01*
X451850Y280400D02*
X453350D01*
X452600Y279650D02*
Y281150D01*
X451850Y295400D02*
X453350D01*
X452600Y294650D02*
Y296150D01*
X451850Y310400D02*
X453350D01*
X452600Y309650D02*
Y311150D01*
X451850Y325400D02*
X453350D01*
X452600Y324650D02*
Y326150D01*
X451850Y340400D02*
X453350D01*
X452600Y339650D02*
Y341150D01*
X451850Y355400D02*
X453350D01*
X452600Y354650D02*
Y356150D01*
X451850Y370400D02*
X453350D01*
X452600Y369650D02*
Y371150D01*
X451850Y385400D02*
X453350D01*
X452600Y384650D02*
Y386150D01*
X451850Y400400D02*
X453350D01*
X452600Y399650D02*
Y401150D01*
X451850Y415400D02*
X453350D01*
X452600Y414650D02*
Y416150D01*
X451850Y430400D02*
X453350D01*
X452600Y429650D02*
Y431150D01*
X451850Y445400D02*
X453350D01*
X452600Y444650D02*
Y446150D01*
X451850Y460400D02*
X453350D01*
X452600Y459650D02*
Y461150D01*
X114250Y255000D02*
X115750D01*
X115000Y254250D02*
Y255750D01*
X114250Y260000D02*
X115750D01*
X115000Y259250D02*
Y260750D01*
X114250Y265000D02*
X115750D01*
X115000Y264250D02*
Y265750D01*
X114250Y270000D02*
X115750D01*
X115000Y269250D02*
Y270750D01*
X114250Y275000D02*
X115750D01*
X115000Y274250D02*
Y275750D01*
X119250Y255000D02*
X120750D01*
X120000Y254250D02*
Y255750D01*
X124250Y255000D02*
X125750D01*
X125000Y254250D02*
Y255750D01*
X129250Y255000D02*
X130750D01*
X130000Y254250D02*
Y255750D01*
X134250Y255000D02*
X135750D01*
X135000Y254250D02*
Y255750D01*
X139250Y255000D02*
X140750D01*
X140000Y254250D02*
Y255750D01*
X139250Y260000D02*
X140750D01*
X140000Y259250D02*
Y260750D01*
X134250Y260000D02*
X135750D01*
X135000Y259250D02*
Y260750D01*
X129250Y260000D02*
X130750D01*
X130000Y259250D02*
Y260750D01*
X124250Y260000D02*
X125750D01*
X125000Y259250D02*
Y260750D01*
X119250Y260000D02*
X120750D01*
X120000Y259250D02*
Y260750D01*
X119250Y265000D02*
X120750D01*
X120000Y264250D02*
Y265750D01*
X134250Y280000D02*
X135750D01*
X135000Y279250D02*
Y280750D01*
X139250Y280000D02*
X140750D01*
X140000Y279250D02*
Y280750D01*
X144250Y280000D02*
X145750D01*
X145000Y279250D02*
Y280750D01*
X144250Y275000D02*
X145750D01*
X145000Y274250D02*
Y275750D01*
X139250Y275000D02*
X140750D01*
X140000Y274250D02*
Y275750D01*
X134250Y275000D02*
X135750D01*
X135000Y274250D02*
Y275750D01*
X129250Y275000D02*
X130750D01*
X130000Y274250D02*
Y275750D01*
X124250Y275000D02*
X125750D01*
X125000Y274250D02*
Y275750D01*
X119250Y275000D02*
X120750D01*
X120000Y274250D02*
Y275750D01*
X119250Y270000D02*
X120750D01*
X120000Y269250D02*
Y270750D01*
X124250Y270000D02*
X125750D01*
X125000Y269250D02*
Y270750D01*
X129250Y270000D02*
X130750D01*
X130000Y269250D02*
Y270750D01*
X134250Y270000D02*
X135750D01*
X135000Y269250D02*
Y270750D01*
X139250Y270000D02*
X140750D01*
X140000Y269250D02*
Y270750D01*
X144250Y270000D02*
X145750D01*
X145000Y269250D02*
Y270750D01*
X144250Y265000D02*
X145750D01*
X145000Y264250D02*
Y265750D01*
X139250Y265000D02*
X140750D01*
X140000Y264250D02*
Y265750D01*
X134250Y265000D02*
X135750D01*
X135000Y264250D02*
Y265750D01*
X129250Y265000D02*
X130750D01*
X130000Y264250D02*
Y265750D01*
X124250Y265000D02*
X125750D01*
X125000Y264250D02*
Y265750D01*
X144250Y260000D02*
X145750D01*
X145000Y259250D02*
Y260750D01*
X144250Y255000D02*
X145750D01*
X145000Y254250D02*
Y255750D01*
X122250Y210000D02*
X127750D01*
X125000Y207250D02*
Y212750D01*
X122250Y175000D02*
X127750D01*
X125000Y172250D02*
Y177750D01*
X321500Y120000D02*
X326500D01*
X324000Y117500D02*
Y122500D01*
M02*
