%FSLAX25Y25*%
%MOIN*%
G70*
G01*
G75*
G04 Layer_Color=2752767*
%ADD10R,0.03937X0.04331*%
%ADD11R,0.33622X0.21063*%
%ADD12R,0.12047X0.03504*%
%ADD13R,0.05906X0.01598*%
%ADD14R,0.01598X0.05906*%
%ADD15R,0.05906X0.05118*%
%ADD16R,0.11024X0.03740*%
%ADD17R,0.05906X0.02362*%
%ADD18R,0.03347X0.05512*%
%ADD19R,0.04724X0.13780*%
%ADD20O,0.02165X0.05906*%
%ADD21R,0.02165X0.05906*%
%ADD22R,0.05118X0.04528*%
%ADD23R,0.03937X0.01378*%
%ADD24R,0.05512X0.03347*%
%ADD25R,0.05118X0.05906*%
%ADD26C,0.01000*%
%ADD27R,0.06496X0.06496*%
%ADD28C,0.06496*%
G04:AMPARAMS|DCode=29|XSize=60mil|YSize=85mil|CornerRadius=0mil|HoleSize=0mil|Usage=FLASHONLY|Rotation=90.000|XOffset=0mil|YOffset=0mil|HoleType=Round|Shape=Octagon|*
%AMOCTAGOND29*
4,1,8,-0.04250,-0.01500,-0.04250,0.01500,-0.02750,0.03000,0.02750,0.03000,0.04250,0.01500,0.04250,-0.01500,0.02750,-0.03000,-0.02750,-0.03000,-0.04250,-0.01500,0.0*
%
%ADD29OCTAGOND29*%

G04:AMPARAMS|DCode=30|XSize=60mil|YSize=85mil|CornerRadius=0mil|HoleSize=0mil|Usage=FLASHONLY|Rotation=180.000|XOffset=0mil|YOffset=0mil|HoleType=Round|Shape=Octagon|*
%AMOCTAGOND30*
4,1,8,0.01500,-0.04250,-0.01500,-0.04250,-0.03000,-0.02750,-0.03000,0.02750,-0.01500,0.04250,0.01500,0.04250,0.03000,0.02750,0.03000,-0.02750,0.01500,-0.04250,0.0*
%
%ADD30OCTAGOND30*%

%ADD31C,0.03000*%
%ADD32C,0.08000*%
%ADD33C,0.05000*%
%ADD34C,0.40000*%
%ADD35C,0.10000*%
%ADD36C,0.04000*%
%ADD37C,0.07937*%
%ADD38C,0.07500*%
%ADD39C,0.05500*%
%ADD40C,0.09000*%
%ADD41C,0.30000*%
%ADD42C,0.09500*%
%ADD43R,0.38000X0.34000*%
%ADD44C,0.06800*%
%ADD45C,0.00984*%
%ADD46C,0.00787*%
%ADD47C,0.00500*%
%ADD48C,0.00800*%
%ADD49C,0.00700*%
%ADD50R,0.04737X0.05131*%
%ADD51R,0.34422X0.21863*%
%ADD52R,0.12847X0.04304*%
%ADD53R,0.06706X0.02398*%
%ADD54R,0.02398X0.06706*%
%ADD55R,0.06706X0.05918*%
%ADD56R,0.11824X0.04540*%
%ADD57R,0.06706X0.03162*%
%ADD58R,0.04147X0.06312*%
%ADD59R,0.05524X0.14579*%
%ADD60O,0.02965X0.06706*%
%ADD61R,0.02965X0.06706*%
%ADD62R,0.05918X0.05328*%
%ADD63R,0.04737X0.02178*%
%ADD64R,0.06312X0.04147*%
%ADD65R,0.05918X0.06706*%
%ADD66R,0.07296X0.07296*%
%ADD67C,0.07296*%
G04:AMPARAMS|DCode=68|XSize=68mil|YSize=93mil|CornerRadius=0mil|HoleSize=0mil|Usage=FLASHONLY|Rotation=90.000|XOffset=0mil|YOffset=0mil|HoleType=Round|Shape=Octagon|*
%AMOCTAGOND68*
4,1,8,-0.04650,-0.01700,-0.04650,0.01700,-0.02950,0.03400,0.02950,0.03400,0.04650,0.01700,0.04650,-0.01700,0.02950,-0.03400,-0.02950,-0.03400,-0.04650,-0.01700,0.0*
%
%ADD68OCTAGOND68*%

G04:AMPARAMS|DCode=69|XSize=68mil|YSize=93mil|CornerRadius=0mil|HoleSize=0mil|Usage=FLASHONLY|Rotation=180.000|XOffset=0mil|YOffset=0mil|HoleType=Round|Shape=Octagon|*
%AMOCTAGOND69*
4,1,8,0.01700,-0.04650,-0.01700,-0.04650,-0.03400,-0.02950,-0.03400,0.02950,-0.01700,0.04650,0.01700,0.04650,0.03400,0.02950,0.03400,-0.02950,0.01700,-0.04650,0.0*
%
%ADD69OCTAGOND69*%

%ADD70C,0.03800*%
%ADD71C,0.08800*%
%ADD72C,0.05800*%
%ADD73C,0.40800*%
%ADD74C,0.10800*%
%ADD75C,0.00667*%
%ADD76C,0.00600*%
D26*
X500000Y59000D02*
Y99000D01*
X100000Y59000D02*
Y99000D01*
X319494Y60000D02*
X500000D01*
X100000D02*
X277306D01*
X494000Y62000D02*
X500000Y60000D01*
X494000Y58000D02*
X500000Y60000D01*
X100000D02*
X106000Y58000D01*
X100000Y60000D02*
X106000Y62000D01*
X79000Y100000D02*
X99000D01*
X79000Y500000D02*
X99000D01*
X80000Y100000D02*
Y277306D01*
Y319494D02*
Y500000D01*
Y100000D02*
X82000Y106000D01*
X78000D02*
X80000Y100000D01*
X78000Y494000D02*
X80000Y500000D01*
X82000Y494000D01*
D47*
X221205Y159142D02*
Y163142D01*
X225205D01*
Y159142D01*
X221205D01*
Y176858D02*
Y180858D01*
X225205D01*
Y176858D01*
X221205D01*
X246795D02*
Y180858D01*
X250795D01*
Y176858D01*
X246795D01*
Y159142D02*
Y163142D01*
X250795D01*
Y159142D01*
X246795D01*
X206795D02*
Y163142D01*
X210795D01*
Y159142D01*
X206795D01*
Y176858D02*
Y180858D01*
X210795D01*
Y176858D01*
X206795D01*
X181205D02*
Y180858D01*
X185205D01*
Y176858D01*
X181205D01*
Y159142D02*
Y163142D01*
X185205D01*
Y159142D01*
X181205D01*
X166795D02*
Y163142D01*
X170795D01*
Y159142D01*
X166795D01*
Y176858D02*
Y180858D01*
X170795D01*
Y176858D01*
X166795D01*
X141205D02*
Y180858D01*
X145205D01*
Y176858D01*
X141205D01*
Y159142D02*
Y163142D01*
X145205D01*
Y159142D01*
X141205D01*
X336600Y346800D02*
X334600Y350800D01*
X338600D01*
X336600Y346800D01*
X266700Y346700D02*
X264700Y350700D01*
X268700D01*
X266700Y346700D01*
X196200Y346500D02*
X194200Y350500D01*
X198200D01*
X196200Y346500D01*
X125900Y346800D02*
X123900Y350800D01*
X127900D01*
X125900Y346800D01*
X335800Y446400D02*
X333800Y450400D01*
X337800D01*
X335800Y446400D01*
X265600Y446700D02*
X263600Y450700D01*
X267600D01*
X265600Y446700D01*
X195000Y461750D02*
X193000Y465750D01*
X197000D01*
X195000Y461750D01*
Y446750D02*
X193000Y450750D01*
X197000D01*
X195000Y446750D01*
X124957Y469250D02*
X122957Y473250D01*
X126957D01*
X124957Y469250D01*
X124780Y454250D02*
X122780Y458250D01*
X126780D01*
X124780Y454250D01*
X125000Y446750D02*
X123000Y450750D01*
X127000D01*
X125000Y446750D01*
X294000Y118000D02*
X295000Y119000D01*
X296000D01*
X295000Y120000D01*
X296000Y121000D01*
X295000D01*
X294000Y122000D01*
X293000Y121000D01*
X292000D01*
X293000Y120000D01*
X292000Y119000D01*
X293000D01*
X294000Y118000D01*
X275000D02*
X276000Y119000D01*
X277000D01*
X276000Y120000D01*
X277000Y121000D01*
X276000D01*
X275000Y122000D01*
X274000Y121000D01*
X273000D01*
X274000Y120000D01*
X273000Y119000D01*
X274000D01*
X275000Y118000D01*
X260000Y296000D02*
X258000Y300000D01*
X262000D01*
X260000Y296000D01*
X250000D02*
X248000Y300000D01*
X252000D01*
X250000Y296000D01*
X240000D02*
X238000Y300000D01*
X242000D01*
X240000Y296000D01*
X230000D02*
X228000Y300000D01*
X232000D01*
X230000Y296000D01*
X220000D02*
X218000Y300000D01*
X222000D01*
X220000Y296000D01*
X210000D02*
X208000Y300000D01*
X212000D01*
X210000Y296000D01*
X200000D02*
X198000Y300000D01*
X202000D01*
X200000Y296000D01*
X190000D02*
X188000Y300000D01*
X192000D01*
X190000Y296000D01*
X180000D02*
X178000Y300000D01*
X182000D01*
X180000Y296000D01*
X115000Y278000D02*
X113000Y282000D01*
X117000D01*
X115000Y278000D01*
X120000D02*
X118000Y282000D01*
X122000D01*
X120000Y278000D01*
X125000D02*
X123000Y282000D01*
X127000D01*
X125000Y278000D01*
X130000D02*
X128000Y282000D01*
X132000D01*
X130000Y278000D01*
X269321Y255500D02*
X267320Y259500D01*
X271321D01*
X269321Y255500D01*
X355000Y274000D02*
X353000Y278000D01*
X357000D01*
X355000Y274000D01*
X144000Y230000D02*
X145000Y232000D01*
X144000Y234000D01*
X146000Y233000D01*
X148000Y234000D01*
X147000Y232000D01*
X148000Y230000D01*
X146000Y231000D01*
X144000Y230000D01*
X377138Y256862D02*
X375138Y260862D01*
X379138D01*
X377138Y256862D01*
X220000Y238000D02*
X218000Y242000D01*
X222000D01*
X220000Y238000D01*
X351811Y480189D02*
X349811Y484189D01*
X353811D01*
X351811Y480189D01*
X281811D02*
X279811Y484189D01*
X283811D01*
X281811Y480189D01*
X211811Y480689D02*
X209811Y484689D01*
X213811D01*
X211811Y480689D01*
X141811Y480189D02*
X139811Y484189D01*
X143811D01*
X141811Y480189D01*
X199721Y343000D02*
X197721Y347000D01*
X201721D01*
X199721Y343000D01*
X141811Y380189D02*
X139811Y384189D01*
X143811D01*
X141811Y380189D01*
X211811Y380311D02*
X209811Y384311D01*
X213811D01*
X211811Y380311D01*
X282500Y380500D02*
X280500Y384500D01*
X284500D01*
X282500Y380500D01*
X351811Y379811D02*
X349811Y383811D01*
X353811D01*
X351811Y379811D01*
X280000Y309500D02*
X278000Y313500D01*
X282000D01*
X280000Y309500D01*
X285000Y315500D02*
X283000Y319500D01*
X287000D01*
X285000Y315500D01*
X280000Y303000D02*
X278000Y307000D01*
X282000D01*
X280000Y303000D01*
X285000Y298000D02*
X283000Y302000D01*
X287000D01*
X285000Y298000D01*
X270000Y365500D02*
X268000Y369500D01*
X272000D01*
X270000Y365500D01*
X400000Y358000D02*
X398000Y362000D01*
X402000D01*
X400000Y358000D01*
X392500Y369250D02*
X390500Y373250D01*
X394500D01*
X392500Y369250D01*
X397500Y361750D02*
X395500Y365750D01*
X399500D01*
X397500Y361750D01*
X405000Y354250D02*
X403000Y358250D01*
X407000D01*
X405000Y354250D01*
X410000Y346750D02*
X408000Y350750D01*
X412000D01*
X410000Y346750D01*
X402500Y373000D02*
X400500Y377000D01*
X404500D01*
X402500Y373000D01*
X395000Y365500D02*
X393000Y369500D01*
X397000D01*
X395000Y365500D01*
X407500Y350500D02*
X405500Y354500D01*
X409500D01*
X407500Y350500D01*
X412500Y343000D02*
X410500Y347000D01*
X414500D01*
X412500Y343000D01*
X335800Y469250D02*
X333800Y473250D01*
X337800D01*
X335800Y469250D01*
X339721Y465500D02*
X337721Y469500D01*
X341721D01*
X339721Y465500D01*
X335800Y461750D02*
X333800Y465750D01*
X337800D01*
X335800Y461750D01*
X339721Y458000D02*
X337721Y462000D01*
X341721D01*
X339721Y458000D01*
X335800Y454250D02*
X333800Y458250D01*
X337800D01*
X335800Y454250D01*
X339721Y450500D02*
X337721Y454500D01*
X341721D01*
X339721Y450500D01*
Y443000D02*
X337721Y447000D01*
X341721D01*
X339721Y443000D01*
Y473000D02*
X337721Y477000D01*
X341721D01*
X339721Y473000D01*
X265600Y469250D02*
X263600Y473250D01*
X267600D01*
X265600Y469250D01*
X269721Y465500D02*
X267721Y469500D01*
X271721D01*
X269721Y465500D01*
X265600Y461750D02*
X263600Y465750D01*
X267600D01*
X265600Y461750D01*
X269721Y458000D02*
X267721Y462000D01*
X271721D01*
X269721Y458000D01*
X265600Y454250D02*
X263600Y458250D01*
X267600D01*
X265600Y454250D01*
X269721Y450500D02*
X267721Y454500D01*
X271721D01*
X269721Y450500D01*
Y443000D02*
X267721Y447000D01*
X271721D01*
X269721Y443000D01*
Y473000D02*
X267721Y477000D01*
X271721D01*
X269721Y473000D01*
X195000Y469250D02*
X193000Y473250D01*
X197000D01*
X195000Y469250D01*
X199721Y465500D02*
X197721Y469500D01*
X201721D01*
X199721Y465500D01*
Y458000D02*
X197721Y462000D01*
X201721D01*
X199721Y458000D01*
X195000Y454250D02*
X193000Y458250D01*
X197000D01*
X195000Y454250D01*
X199721Y450500D02*
X197721Y454500D01*
X201721D01*
X199721Y450500D01*
Y443000D02*
X197721Y447000D01*
X201721D01*
X199721Y443000D01*
Y473000D02*
X197721Y477000D01*
X201721D01*
X199721Y473000D01*
X129721Y465500D02*
X127721Y469500D01*
X131721D01*
X129721Y465500D01*
X124720Y461750D02*
X122720Y465750D01*
X126720D01*
X124720Y461750D01*
X129721Y458000D02*
X127721Y462000D01*
X131721D01*
X129721Y458000D01*
Y450500D02*
X127721Y454500D01*
X131721D01*
X129721Y450500D01*
Y443000D02*
X127721Y447000D01*
X131721D01*
X129721Y443000D01*
Y473000D02*
X127721Y477000D01*
X131721D01*
X129721Y473000D01*
X125900Y369250D02*
X123900Y373250D01*
X127900D01*
X125900Y369250D01*
X129721Y365500D02*
X127721Y369500D01*
X131721D01*
X129721Y365500D01*
X125900Y361750D02*
X123900Y365750D01*
X127900D01*
X125900Y361750D01*
X129721Y358000D02*
X127721Y362000D01*
X131721D01*
X129721Y358000D01*
X125900Y354250D02*
X123900Y358250D01*
X127900D01*
X125900Y354250D01*
X129721Y350500D02*
X127721Y354500D01*
X131721D01*
X129721Y350500D01*
Y343000D02*
X127721Y347000D01*
X131721D01*
X129721Y343000D01*
Y373000D02*
X127721Y377000D01*
X131721D01*
X129721Y373000D01*
X196200Y369250D02*
X194200Y373250D01*
X198200D01*
X196200Y369250D01*
X199721Y365500D02*
X197721Y369500D01*
X201721D01*
X199721Y365500D01*
X196200Y361750D02*
X194200Y365750D01*
X198200D01*
X196200Y361750D01*
X199721Y358000D02*
X197721Y362000D01*
X201721D01*
X199721Y358000D01*
X196200Y354250D02*
X194200Y358250D01*
X198200D01*
X196200Y354250D01*
X199721Y350500D02*
X197721Y354500D01*
X201721D01*
X199721Y350500D01*
Y373000D02*
X197721Y377000D01*
X201721D01*
X199721Y373000D01*
X270000Y373000D02*
X268000Y377000D01*
X272000D01*
X270000Y373000D01*
X339721Y373000D02*
X337721Y377000D01*
X341721D01*
X339721Y373000D01*
X270000Y343000D02*
X268000Y347000D01*
X272000D01*
X270000Y343000D01*
Y350500D02*
X268000Y354500D01*
X272000D01*
X270000Y350500D01*
X266700Y354250D02*
X264700Y358250D01*
X268700D01*
X266700Y354250D01*
X270000Y358000D02*
X268000Y362000D01*
X272000D01*
X270000Y358000D01*
X266700Y361750D02*
X264700Y365750D01*
X268700D01*
X266700Y361750D01*
Y369250D02*
X264700Y373250D01*
X268700D01*
X266700Y369250D01*
X336600Y369250D02*
X334600Y373250D01*
X338600D01*
X336600Y369250D01*
Y361750D02*
X334600Y365750D01*
X338600D01*
X336600Y361750D01*
Y354250D02*
X334600Y358250D01*
X338600D01*
X336600Y354250D01*
X339721Y343000D02*
X337721Y347000D01*
X341721D01*
X339721Y343000D01*
Y350500D02*
X337721Y354500D01*
X341721D01*
X339721Y350500D01*
Y358000D02*
X337721Y362000D01*
X341721D01*
X339721Y358000D01*
Y365500D02*
X337721Y369500D01*
X341721D01*
X339721Y365500D01*
X480000Y474000D02*
X478000Y478000D01*
X482000D01*
X480000Y474000D01*
X471232Y430500D02*
X469232Y434500D01*
X473232D01*
X471232Y430500D01*
X467500Y393000D02*
X465500Y397000D01*
X469500D01*
X467500Y393000D01*
X471232Y343232D02*
X469232Y347232D01*
X473232D01*
X471232Y343232D01*
Y313232D02*
X469232Y317232D01*
X473232D01*
X471232Y313232D01*
Y283268D02*
X469232Y287268D01*
X473232D01*
X471232Y283268D01*
Y253232D02*
X469232Y257232D01*
X473232D01*
X471232Y253232D01*
X371000Y240500D02*
X369000Y244500D01*
X373000D01*
X371000Y240500D01*
X373500Y262701D02*
X371500Y266701D01*
X375500D01*
X373500Y262701D01*
Y269000D02*
X371500Y273000D01*
X375500D01*
X373500Y269000D01*
X369500Y265500D02*
X367500Y269500D01*
X371500D01*
X369500Y265500D01*
Y259500D02*
X367500Y263500D01*
X371500D01*
X369500Y259500D01*
X374768Y293768D02*
X372768Y297768D01*
X376768D01*
X374768Y293768D01*
X383232Y293768D02*
X381232Y297768D01*
X385232D01*
X383232Y293768D01*
X382732Y213732D02*
X380732Y217732D01*
X384732D01*
X382732Y213732D01*
X389000Y248000D02*
X387000Y252000D01*
X391000D01*
X389000Y248000D01*
X270000Y168000D02*
X268000Y172000D01*
X272000D01*
X270000Y168000D01*
X314268Y229268D02*
X312268Y233268D01*
X316268D01*
X314268Y229268D01*
X323000Y273000D02*
X321000Y277000D01*
X325000D01*
X323000Y273000D01*
X250000Y378000D02*
X248000Y382000D01*
X252000D01*
X250000Y378000D01*
X320000D02*
X318000Y382000D01*
X322000D01*
X320000Y378000D01*
X180000Y381000D02*
X178000Y385000D01*
X182000D01*
X180000Y381000D01*
X110000Y370000D02*
X108000Y374000D01*
X112000D01*
X110000Y370000D01*
Y470000D02*
X108000Y474000D01*
X112000D01*
X110000Y470000D01*
X180000Y478000D02*
X178000Y482000D01*
X182000D01*
X180000Y478000D01*
X320000D02*
X318000Y482000D01*
X322000D01*
X320000Y478000D01*
X250000D02*
X248000Y482000D01*
X252000D01*
X250000Y478000D01*
X118189Y433189D02*
X116189Y437189D01*
X120189D01*
X118189Y433189D01*
X188189D02*
X186189Y437189D01*
X190189D01*
X188189Y433189D01*
X258189D02*
X256189Y437189D01*
X260189D01*
X258189Y433189D01*
X328189D02*
X326189Y437189D01*
X330189D01*
X328189Y433189D01*
Y333189D02*
X326189Y337189D01*
X330189D01*
X328189Y333189D01*
X258189D02*
X256189Y337189D01*
X260189D01*
X258189Y333189D01*
X188189D02*
X186189Y337189D01*
X190189D01*
X188189Y333189D01*
X118189D02*
X116189Y337189D01*
X120189D01*
X118189Y333189D01*
X180000Y433000D02*
X178000Y437000D01*
X182000D01*
X180000Y433000D01*
X250000D02*
X248000Y437000D01*
X252000D01*
X250000Y433000D01*
X320000D02*
X318000Y437000D01*
X322000D01*
X320000Y433000D01*
X344000Y211000D02*
X342000Y215000D01*
X346000D01*
X344000Y211000D01*
X288000Y195000D02*
X286000Y199000D01*
X290000D01*
X288000Y195000D01*
X301740Y219740D02*
X299740Y223740D01*
X303740D01*
X301740Y219740D01*
X312937Y189937D02*
X310937Y193937D01*
X314937D01*
X312937Y189937D01*
X231600Y125900D02*
Y124900D01*
X233600D01*
Y125900D01*
X234600D01*
Y127900D01*
X233600D01*
Y128900D01*
X231600D01*
Y127900D01*
X230600D01*
Y125900D01*
X231600D01*
X339000Y309000D02*
Y308000D01*
X341000D01*
Y309000D01*
X342000D01*
Y311000D01*
X341000D01*
Y312000D01*
X339000D01*
Y311000D01*
X338000D01*
Y309000D01*
X339000D01*
X448700Y247900D02*
X446700Y251900D01*
X450700D01*
X448700Y247900D01*
X452600Y263400D02*
X450600Y267400D01*
X454600D01*
X452600Y263400D01*
Y278400D02*
X450600Y282400D01*
X454600D01*
X452600Y278400D01*
Y293400D02*
X450600Y297400D01*
X454600D01*
X452600Y293400D01*
Y308400D02*
X450600Y312400D01*
X454600D01*
X452600Y308400D01*
Y323400D02*
X450600Y327400D01*
X454600D01*
X452600Y323400D01*
Y338400D02*
X450600Y342400D01*
X454600D01*
X452600Y338400D01*
Y353400D02*
X450600Y357400D01*
X454600D01*
X452600Y353400D01*
Y368400D02*
X450600Y372400D01*
X454600D01*
X452600Y368400D01*
Y383400D02*
X450600Y387400D01*
X454600D01*
X452600Y383400D01*
Y398400D02*
X450600Y402400D01*
X454600D01*
X452600Y398400D01*
Y413400D02*
X450600Y417400D01*
X454600D01*
X452600Y413400D01*
Y428400D02*
X450600Y432400D01*
X454600D01*
X452600Y428400D01*
Y443400D02*
X450600Y447400D01*
X454600D01*
X452600Y443400D01*
Y458400D02*
X450600Y462400D01*
X454600D01*
X452600Y458400D01*
X115000Y253000D02*
X113000Y257000D01*
X117000D01*
X115000Y253000D01*
Y258000D02*
X113000Y262000D01*
X117000D01*
X115000Y258000D01*
Y263000D02*
X113000Y267000D01*
X117000D01*
X115000Y263000D01*
Y268000D02*
X113000Y272000D01*
X117000D01*
X115000Y268000D01*
Y273000D02*
X113000Y277000D01*
X117000D01*
X115000Y273000D01*
X120000Y253000D02*
X118000Y257000D01*
X122000D01*
X120000Y253000D01*
X125000D02*
X123000Y257000D01*
X127000D01*
X125000Y253000D01*
X130000D02*
X128000Y257000D01*
X132000D01*
X130000Y253000D01*
X135000D02*
X133000Y257000D01*
X137000D01*
X135000Y253000D01*
X140000D02*
X138000Y257000D01*
X142000D01*
X140000Y253000D01*
Y258000D02*
X138000Y262000D01*
X142000D01*
X140000Y258000D01*
X135000D02*
X133000Y262000D01*
X137000D01*
X135000Y258000D01*
X130000D02*
X128000Y262000D01*
X132000D01*
X130000Y258000D01*
X125000D02*
X123000Y262000D01*
X127000D01*
X125000Y258000D01*
X120000D02*
X118000Y262000D01*
X122000D01*
X120000Y258000D01*
Y263000D02*
X118000Y267000D01*
X122000D01*
X120000Y263000D01*
X135000Y278000D02*
X133000Y282000D01*
X137000D01*
X135000Y278000D01*
X140000D02*
X138000Y282000D01*
X142000D01*
X140000Y278000D01*
X145000D02*
X143000Y282000D01*
X147000D01*
X145000Y278000D01*
Y273000D02*
X143000Y277000D01*
X147000D01*
X145000Y273000D01*
X140000D02*
X138000Y277000D01*
X142000D01*
X140000Y273000D01*
X135000D02*
X133000Y277000D01*
X137000D01*
X135000Y273000D01*
X130000D02*
X128000Y277000D01*
X132000D01*
X130000Y273000D01*
X125000D02*
X123000Y277000D01*
X127000D01*
X125000Y273000D01*
X120000D02*
X118000Y277000D01*
X122000D01*
X120000Y273000D01*
Y268000D02*
X118000Y272000D01*
X122000D01*
X120000Y268000D01*
X125000D02*
X123000Y272000D01*
X127000D01*
X125000Y268000D01*
X130000D02*
X128000Y272000D01*
X132000D01*
X130000Y268000D01*
X135000D02*
X133000Y272000D01*
X137000D01*
X135000Y268000D01*
X140000D02*
X138000Y272000D01*
X142000D01*
X140000Y268000D01*
X145000D02*
X143000Y272000D01*
X147000D01*
X145000Y268000D01*
Y263000D02*
X143000Y267000D01*
X147000D01*
X145000Y263000D01*
X140000D02*
X138000Y267000D01*
X142000D01*
X140000Y263000D01*
X135000D02*
X133000Y267000D01*
X137000D01*
X135000Y263000D01*
X130000D02*
X128000Y267000D01*
X132000D01*
X130000Y263000D01*
X125000D02*
X123000Y267000D01*
X127000D01*
X125000Y263000D01*
X145000Y258000D02*
X143000Y262000D01*
X147000D01*
X145000Y258000D01*
Y253000D02*
X143000Y257000D01*
X147000D01*
X145000Y253000D01*
X123000Y208000D02*
X124000D01*
X125000Y209000D01*
X126000Y208000D01*
X127000D01*
Y209000D01*
X126000Y210000D01*
X127000Y211000D01*
Y212000D01*
X126000D01*
X125000Y211000D01*
X124000Y212000D01*
X123000D01*
Y211000D01*
X124000Y210000D01*
X123000Y209000D01*
Y208000D01*
Y173000D02*
X124000D01*
X125000Y174000D01*
X126000Y173000D01*
X127000D01*
Y174000D01*
X126000Y175000D01*
X127000Y176000D01*
Y177000D01*
X126000D01*
X125000Y176000D01*
X124000Y177000D01*
X123000D01*
Y176000D01*
X124000Y175000D01*
X123000Y174000D01*
Y173000D01*
X324000Y118000D02*
X325000Y119000D01*
X326000D01*
X325000Y120000D01*
X326000Y121000D01*
X325000D01*
X324000Y122000D01*
X323000Y121000D01*
X322000D01*
X323000Y120000D01*
X322000Y119000D01*
X323000D01*
X324000Y118000D01*
D75*
X486000Y338000D02*
G03*
X486000Y338000I-2000J0D01*
G01*
Y348000D02*
G03*
X486000Y348000I-2000J0D01*
G01*
Y358000D02*
G03*
X486000Y358000I-2000J0D01*
G01*
Y368000D02*
G03*
X486000Y368000I-2000J0D01*
G01*
Y378000D02*
G03*
X486000Y378000I-2000J0D01*
G01*
Y388000D02*
G03*
X486000Y388000I-2000J0D01*
G01*
Y398000D02*
G03*
X486000Y398000I-2000J0D01*
G01*
Y408000D02*
G03*
X486000Y408000I-2000J0D01*
G01*
X250500Y220000D02*
G03*
X250500Y220000I-2000J0D01*
G01*
X260500D02*
G03*
X260500Y220000I-2000J0D01*
G01*
X270500D02*
G03*
X270500Y220000I-2000J0D01*
G01*
X280500D02*
G03*
X280500Y220000I-2000J0D01*
G01*
X201000Y218000D02*
G03*
X201000Y218000I-2000J0D01*
G01*
Y228000D02*
G03*
X201000Y228000I-2000J0D01*
G01*
Y238000D02*
G03*
X201000Y238000I-2000J0D01*
G01*
Y248000D02*
G03*
X201000Y248000I-2000J0D01*
G01*
Y258000D02*
G03*
X201000Y258000I-2000J0D01*
G01*
X191000Y218000D02*
G03*
X191000Y218000I-2000J0D01*
G01*
Y228000D02*
G03*
X191000Y228000I-2000J0D01*
G01*
Y238000D02*
G03*
X191000Y238000I-2000J0D01*
G01*
Y248000D02*
G03*
X191000Y248000I-2000J0D01*
G01*
Y258000D02*
G03*
X191000Y258000I-2000J0D01*
G01*
X242000Y250000D02*
G03*
X242000Y250000I-2000J0D01*
G01*
X252000D02*
G03*
X252000Y250000I-2000J0D01*
G01*
X172000Y490000D02*
G03*
X172000Y490000I-2000J0D01*
G01*
Y480000D02*
G03*
X172000Y480000I-2000J0D01*
G01*
Y470000D02*
G03*
X172000Y470000I-2000J0D01*
G01*
Y460000D02*
G03*
X172000Y460000I-2000J0D01*
G01*
Y450000D02*
G03*
X172000Y450000I-2000J0D01*
G01*
Y440000D02*
G03*
X172000Y440000I-2000J0D01*
G01*
Y430000D02*
G03*
X172000Y430000I-2000J0D01*
G01*
Y420000D02*
G03*
X172000Y420000I-2000J0D01*
G01*
X242000Y490000D02*
G03*
X242000Y490000I-2000J0D01*
G01*
Y480000D02*
G03*
X242000Y480000I-2000J0D01*
G01*
Y470000D02*
G03*
X242000Y470000I-2000J0D01*
G01*
Y460000D02*
G03*
X242000Y460000I-2000J0D01*
G01*
Y450000D02*
G03*
X242000Y450000I-2000J0D01*
G01*
Y440000D02*
G03*
X242000Y440000I-2000J0D01*
G01*
Y430000D02*
G03*
X242000Y430000I-2000J0D01*
G01*
Y420000D02*
G03*
X242000Y420000I-2000J0D01*
G01*
X312000Y490000D02*
G03*
X312000Y490000I-2000J0D01*
G01*
Y480000D02*
G03*
X312000Y480000I-2000J0D01*
G01*
Y470000D02*
G03*
X312000Y470000I-2000J0D01*
G01*
Y460000D02*
G03*
X312000Y460000I-2000J0D01*
G01*
Y450000D02*
G03*
X312000Y450000I-2000J0D01*
G01*
Y440000D02*
G03*
X312000Y440000I-2000J0D01*
G01*
Y430000D02*
G03*
X312000Y430000I-2000J0D01*
G01*
Y420000D02*
G03*
X312000Y420000I-2000J0D01*
G01*
X382000Y490000D02*
G03*
X382000Y490000I-2000J0D01*
G01*
Y480000D02*
G03*
X382000Y480000I-2000J0D01*
G01*
Y470000D02*
G03*
X382000Y470000I-2000J0D01*
G01*
Y460000D02*
G03*
X382000Y460000I-2000J0D01*
G01*
Y450000D02*
G03*
X382000Y450000I-2000J0D01*
G01*
Y440000D02*
G03*
X382000Y440000I-2000J0D01*
G01*
Y430000D02*
G03*
X382000Y430000I-2000J0D01*
G01*
Y420000D02*
G03*
X382000Y420000I-2000J0D01*
G01*
X172000Y390000D02*
G03*
X172000Y390000I-2000J0D01*
G01*
Y380000D02*
G03*
X172000Y380000I-2000J0D01*
G01*
Y370000D02*
G03*
X172000Y370000I-2000J0D01*
G01*
Y360000D02*
G03*
X172000Y360000I-2000J0D01*
G01*
Y350000D02*
G03*
X172000Y350000I-2000J0D01*
G01*
Y340000D02*
G03*
X172000Y340000I-2000J0D01*
G01*
Y330000D02*
G03*
X172000Y330000I-2000J0D01*
G01*
Y320000D02*
G03*
X172000Y320000I-2000J0D01*
G01*
X242000Y390000D02*
G03*
X242000Y390000I-2000J0D01*
G01*
Y380000D02*
G03*
X242000Y380000I-2000J0D01*
G01*
Y370000D02*
G03*
X242000Y370000I-2000J0D01*
G01*
Y360000D02*
G03*
X242000Y360000I-2000J0D01*
G01*
Y350000D02*
G03*
X242000Y350000I-2000J0D01*
G01*
Y340000D02*
G03*
X242000Y340000I-2000J0D01*
G01*
Y330000D02*
G03*
X242000Y330000I-2000J0D01*
G01*
Y320000D02*
G03*
X242000Y320000I-2000J0D01*
G01*
X312000Y390000D02*
G03*
X312000Y390000I-2000J0D01*
G01*
Y380000D02*
G03*
X312000Y380000I-2000J0D01*
G01*
Y370000D02*
G03*
X312000Y370000I-2000J0D01*
G01*
Y360000D02*
G03*
X312000Y360000I-2000J0D01*
G01*
Y350000D02*
G03*
X312000Y350000I-2000J0D01*
G01*
Y340000D02*
G03*
X312000Y340000I-2000J0D01*
G01*
Y330000D02*
G03*
X312000Y330000I-2000J0D01*
G01*
Y320000D02*
G03*
X312000Y320000I-2000J0D01*
G01*
X382000Y390000D02*
G03*
X382000Y390000I-2000J0D01*
G01*
Y380000D02*
G03*
X382000Y380000I-2000J0D01*
G01*
Y370000D02*
G03*
X382000Y370000I-2000J0D01*
G01*
Y360000D02*
G03*
X382000Y360000I-2000J0D01*
G01*
Y350000D02*
G03*
X382000Y350000I-2000J0D01*
G01*
Y340000D02*
G03*
X382000Y340000I-2000J0D01*
G01*
Y330000D02*
G03*
X382000Y330000I-2000J0D01*
G01*
Y320000D02*
G03*
X382000Y320000I-2000J0D01*
G01*
D76*
X281905Y56401D02*
Y62399D01*
X278906Y59400D01*
X282905D01*
X284904Y61399D02*
X285904Y62399D01*
X287903D01*
X288903Y61399D01*
Y57401D01*
X287903Y56401D01*
X285904D01*
X284904Y57401D01*
Y61399D01*
X290902D02*
X291902Y62399D01*
X293901D01*
X294901Y61399D01*
Y57401D01*
X293901Y56401D01*
X291902D01*
X290902Y57401D01*
Y61399D01*
X296901D02*
X297900Y62399D01*
X299900D01*
X300899Y61399D01*
Y57401D01*
X299900Y56401D01*
X297900D01*
X296901Y57401D01*
Y61399D01*
X302899Y56401D02*
Y57401D01*
X303898D01*
Y56401D01*
X302899D01*
X307897Y61399D02*
X308897Y62399D01*
X310896D01*
X311896Y61399D01*
Y57401D01*
X310896Y56401D01*
X308897D01*
X307897Y57401D01*
Y61399D01*
X313895D02*
X314895Y62399D01*
X316894D01*
X317894Y61399D01*
Y57401D01*
X316894Y56401D01*
X314895D01*
X313895Y57401D01*
Y61399D01*
X83599Y281905D02*
X77601D01*
X80600Y278906D01*
Y282905D01*
X78601Y284904D02*
X77601Y285904D01*
Y287903D01*
X78601Y288903D01*
X82599D01*
X83599Y287903D01*
Y285904D01*
X82599Y284904D01*
X78601D01*
Y290902D02*
X77601Y291902D01*
Y293901D01*
X78601Y294901D01*
X82599D01*
X83599Y293901D01*
Y291902D01*
X82599Y290902D01*
X78601D01*
Y296901D02*
X77601Y297900D01*
Y299900D01*
X78601Y300899D01*
X82599D01*
X83599Y299900D01*
Y297900D01*
X82599Y296901D01*
X78601D01*
X83599Y302899D02*
X82599D01*
Y303898D01*
X83599D01*
Y302899D01*
X78601Y307897D02*
X77601Y308897D01*
Y310896D01*
X78601Y311896D01*
X82599D01*
X83599Y310896D01*
Y308897D01*
X82599Y307897D01*
X78601D01*
Y313895D02*
X77601Y314895D01*
Y316894D01*
X78601Y317894D01*
X82599D01*
X83599Y316894D01*
Y314895D01*
X82599Y313895D01*
X78601D01*
M02*
