%FSLAX25Y25*%
%MOIN*%
G70*
G01*
G75*
G04 Layer_Color=8388736*
%ADD10R,0.03937X0.04331*%
%ADD11R,0.33622X0.21063*%
%ADD12R,0.12047X0.03504*%
%ADD13R,0.05906X0.01598*%
%ADD14R,0.01598X0.05906*%
%ADD15R,0.05906X0.05118*%
%ADD16R,0.11024X0.03740*%
%ADD17R,0.05906X0.02362*%
%ADD18R,0.03347X0.05512*%
%ADD19R,0.04724X0.13780*%
%ADD20O,0.02165X0.05906*%
%ADD21R,0.02165X0.05906*%
%ADD22R,0.05118X0.04528*%
%ADD23R,0.03937X0.01378*%
%ADD24R,0.05512X0.03347*%
%ADD25R,0.05118X0.05906*%
%ADD26C,0.01000*%
%ADD27R,0.06496X0.06496*%
%ADD28C,0.06496*%
G04:AMPARAMS|DCode=29|XSize=60mil|YSize=85mil|CornerRadius=0mil|HoleSize=0mil|Usage=FLASHONLY|Rotation=90.000|XOffset=0mil|YOffset=0mil|HoleType=Round|Shape=Octagon|*
%AMOCTAGOND29*
4,1,8,-0.04250,-0.01500,-0.04250,0.01500,-0.02750,0.03000,0.02750,0.03000,0.04250,0.01500,0.04250,-0.01500,0.02750,-0.03000,-0.02750,-0.03000,-0.04250,-0.01500,0.0*
%
%ADD29OCTAGOND29*%

G04:AMPARAMS|DCode=30|XSize=60mil|YSize=85mil|CornerRadius=0mil|HoleSize=0mil|Usage=FLASHONLY|Rotation=180.000|XOffset=0mil|YOffset=0mil|HoleType=Round|Shape=Octagon|*
%AMOCTAGOND30*
4,1,8,0.01500,-0.04250,-0.01500,-0.04250,-0.03000,-0.02750,-0.03000,0.02750,-0.01500,0.04250,0.01500,0.04250,0.03000,0.02750,0.03000,-0.02750,0.01500,-0.04250,0.0*
%
%ADD30OCTAGOND30*%

%ADD31C,0.03000*%
%ADD32C,0.08000*%
%ADD33C,0.05000*%
%ADD34C,0.40000*%
%ADD35C,0.10000*%
%ADD36C,0.04000*%
%ADD37C,0.07937*%
%ADD38C,0.07500*%
%ADD39C,0.05500*%
%ADD40C,0.09000*%
%ADD41C,0.30000*%
%ADD42C,0.09500*%
%ADD43R,0.38000X0.34000*%
%ADD44C,0.06800*%
%ADD45C,0.00984*%
%ADD46C,0.00787*%
%ADD47C,0.00500*%
%ADD48C,0.00800*%
%ADD49C,0.00700*%
%ADD50R,0.04737X0.05131*%
%ADD51R,0.34422X0.21863*%
%ADD52R,0.12847X0.04304*%
%ADD53R,0.06706X0.02398*%
%ADD54R,0.02398X0.06706*%
%ADD55R,0.06706X0.05918*%
%ADD56R,0.11824X0.04540*%
%ADD57R,0.06706X0.03162*%
%ADD58R,0.04147X0.06312*%
%ADD59R,0.05524X0.14579*%
%ADD60O,0.02965X0.06706*%
%ADD61R,0.02965X0.06706*%
%ADD62R,0.05918X0.05328*%
%ADD63R,0.04737X0.02178*%
%ADD64R,0.06312X0.04147*%
%ADD65R,0.05918X0.06706*%
%ADD66R,0.07296X0.07296*%
%ADD67C,0.07296*%
G04:AMPARAMS|DCode=68|XSize=68mil|YSize=93mil|CornerRadius=0mil|HoleSize=0mil|Usage=FLASHONLY|Rotation=90.000|XOffset=0mil|YOffset=0mil|HoleType=Round|Shape=Octagon|*
%AMOCTAGOND68*
4,1,8,-0.04650,-0.01700,-0.04650,0.01700,-0.02950,0.03400,0.02950,0.03400,0.04650,0.01700,0.04650,-0.01700,0.02950,-0.03400,-0.02950,-0.03400,-0.04650,-0.01700,0.0*
%
%ADD68OCTAGOND68*%

G04:AMPARAMS|DCode=69|XSize=68mil|YSize=93mil|CornerRadius=0mil|HoleSize=0mil|Usage=FLASHONLY|Rotation=180.000|XOffset=0mil|YOffset=0mil|HoleType=Round|Shape=Octagon|*
%AMOCTAGOND69*
4,1,8,0.01700,-0.04650,-0.01700,-0.04650,-0.03400,-0.02950,-0.03400,0.02950,-0.01700,0.04650,0.01700,0.04650,0.03400,0.02950,0.03400,-0.02950,0.01700,-0.04650,0.0*
%
%ADD69OCTAGOND69*%

%ADD70C,0.03800*%
%ADD71C,0.08800*%
%ADD72C,0.05800*%
%ADD73C,0.40800*%
%ADD74C,0.10800*%
D50*
X323000Y232154D02*
D03*
Y238846D02*
D03*
Y258154D02*
D03*
Y264846D02*
D03*
D51*
X128340Y268500D02*
D03*
D52*
X157100Y253500D02*
D03*
Y258500D02*
D03*
Y263500D02*
D03*
Y268500D02*
D03*
Y273500D02*
D03*
Y278500D02*
D03*
Y283500D02*
D03*
D53*
X354500Y271000D02*
D03*
Y267850D02*
D03*
Y264701D02*
D03*
Y261551D02*
D03*
Y258402D02*
D03*
Y255252D02*
D03*
Y252102D02*
D03*
Y248953D02*
D03*
Y245803D02*
D03*
Y242653D02*
D03*
Y239504D02*
D03*
X399776D02*
D03*
Y242653D02*
D03*
Y245803D02*
D03*
Y248953D02*
D03*
Y252102D02*
D03*
Y255252D02*
D03*
Y258402D02*
D03*
Y261551D02*
D03*
Y264701D02*
D03*
Y267850D02*
D03*
Y271000D02*
D03*
D54*
X361390Y232614D02*
D03*
X364539D02*
D03*
X367689D02*
D03*
X370839D02*
D03*
X373988D02*
D03*
X377138D02*
D03*
X380287D02*
D03*
X383437D02*
D03*
X386587D02*
D03*
X389736D02*
D03*
X392886D02*
D03*
Y277890D02*
D03*
X389736D02*
D03*
X386587D02*
D03*
X383437D02*
D03*
X380287D02*
D03*
X377138D02*
D03*
X373988D02*
D03*
X370839D02*
D03*
X367689D02*
D03*
X364539D02*
D03*
X361390D02*
D03*
D55*
X314000Y214260D02*
D03*
Y221740D02*
D03*
X320000Y356260D02*
D03*
Y363740D02*
D03*
X250000Y356260D02*
D03*
Y363740D02*
D03*
X180000Y356260D02*
D03*
Y363740D02*
D03*
X110000Y356260D02*
D03*
Y363740D02*
D03*
X320000Y456260D02*
D03*
Y463740D02*
D03*
X250000Y456260D02*
D03*
Y463740D02*
D03*
X180000Y456260D02*
D03*
Y463740D02*
D03*
X110000Y456260D02*
D03*
Y463740D02*
D03*
D56*
X190200Y288146D02*
D03*
Y274563D02*
D03*
X204600Y288091D02*
D03*
Y274509D02*
D03*
D57*
X447457Y471740D02*
D03*
Y464260D02*
D03*
X454543Y468000D02*
D03*
X447457Y276740D02*
D03*
Y269260D02*
D03*
X454543Y273000D02*
D03*
X447457Y261740D02*
D03*
Y254260D02*
D03*
X454543Y258000D02*
D03*
X447457Y306740D02*
D03*
Y299260D02*
D03*
X454543Y303000D02*
D03*
X447457Y291740D02*
D03*
Y284260D02*
D03*
X454543Y288000D02*
D03*
X447457Y336740D02*
D03*
Y329260D02*
D03*
X454543Y333000D02*
D03*
X447457Y321740D02*
D03*
Y314260D02*
D03*
X454543Y318000D02*
D03*
X447457Y366740D02*
D03*
Y359260D02*
D03*
X454543Y363000D02*
D03*
X447457Y351740D02*
D03*
Y344260D02*
D03*
X454543Y348000D02*
D03*
X447457Y396740D02*
D03*
Y389260D02*
D03*
X454543Y393000D02*
D03*
X447457Y381740D02*
D03*
Y374260D02*
D03*
X454543Y378000D02*
D03*
X447457Y426740D02*
D03*
Y419260D02*
D03*
X454543Y423000D02*
D03*
X447457Y411740D02*
D03*
Y404260D02*
D03*
X454543Y408000D02*
D03*
X447457Y456740D02*
D03*
Y449260D02*
D03*
X454543Y453000D02*
D03*
X447457Y441740D02*
D03*
Y434260D02*
D03*
X454543Y438000D02*
D03*
X447457Y486740D02*
D03*
Y479260D02*
D03*
X454543Y483000D02*
D03*
D58*
X471232Y476000D02*
D03*
X462768D02*
D03*
X374768Y289000D02*
D03*
X383232D02*
D03*
X137768Y240800D02*
D03*
X146232D02*
D03*
X161732Y232100D02*
D03*
X153268D02*
D03*
X161732Y240900D02*
D03*
X153268D02*
D03*
X382732Y223000D02*
D03*
X374268D02*
D03*
X331232Y189000D02*
D03*
X322768D02*
D03*
X346232D02*
D03*
X337768D02*
D03*
X331232Y180000D02*
D03*
X322768D02*
D03*
X336768Y273500D02*
D03*
X345232D02*
D03*
X220000Y490000D02*
D03*
X228465D02*
D03*
X290000D02*
D03*
X298465D02*
D03*
X360000D02*
D03*
X368465D02*
D03*
X220000Y482000D02*
D03*
X228465D02*
D03*
X290000D02*
D03*
X298465D02*
D03*
X360000D02*
D03*
X368465D02*
D03*
X220000Y474000D02*
D03*
X228465D02*
D03*
X290000D02*
D03*
X298465D02*
D03*
X360000D02*
D03*
X368465D02*
D03*
X220000Y466000D02*
D03*
X228465D02*
D03*
X290000D02*
D03*
X298465D02*
D03*
X360000D02*
D03*
X368465D02*
D03*
X220000Y458000D02*
D03*
X228465D02*
D03*
X290000D02*
D03*
X298465D02*
D03*
X360000D02*
D03*
X368465D02*
D03*
X220000Y450000D02*
D03*
X228465D02*
D03*
X290000D02*
D03*
X298465D02*
D03*
X360000D02*
D03*
X368465D02*
D03*
X220000Y442000D02*
D03*
X228465D02*
D03*
X290000D02*
D03*
X298465D02*
D03*
X360000D02*
D03*
X368465D02*
D03*
X150000Y434000D02*
D03*
X158465D02*
D03*
X220000D02*
D03*
X228465D02*
D03*
X290000D02*
D03*
X298465D02*
D03*
X360000D02*
D03*
X368465D02*
D03*
X149768Y357000D02*
D03*
X158232D02*
D03*
X149768Y349000D02*
D03*
X158232D02*
D03*
X149768Y341000D02*
D03*
X158232D02*
D03*
X430768Y270000D02*
D03*
X439232D02*
D03*
X430768Y261000D02*
D03*
X439232D02*
D03*
X430768Y300000D02*
D03*
X439232D02*
D03*
X430768Y291000D02*
D03*
X439232D02*
D03*
X430768Y330000D02*
D03*
X439232D02*
D03*
X430768Y321000D02*
D03*
X439232D02*
D03*
X430768Y360000D02*
D03*
X439232D02*
D03*
X430768Y351000D02*
D03*
X439232D02*
D03*
X430768Y390000D02*
D03*
X439232D02*
D03*
X430768Y381000D02*
D03*
X439232D02*
D03*
X430768Y420000D02*
D03*
X439232D02*
D03*
X430768Y411000D02*
D03*
X439232D02*
D03*
X430768Y450000D02*
D03*
X439232D02*
D03*
X430768Y441000D02*
D03*
X439232D02*
D03*
X430768Y480000D02*
D03*
X439232D02*
D03*
X430768Y471000D02*
D03*
X439232D02*
D03*
X471232Y265000D02*
D03*
X462768D02*
D03*
X471232Y295143D02*
D03*
X462768D02*
D03*
X471232Y325286D02*
D03*
X462768D02*
D03*
X471232Y355429D02*
D03*
X462768D02*
D03*
X471232Y385571D02*
D03*
X462768D02*
D03*
X471232Y415714D02*
D03*
X462768D02*
D03*
X471232Y445857D02*
D03*
X462768D02*
D03*
X313232Y120000D02*
D03*
X304768D02*
D03*
X360000Y334000D02*
D03*
X368465D02*
D03*
X360000Y342000D02*
D03*
X368465D02*
D03*
X360000Y350000D02*
D03*
X368465D02*
D03*
X360000Y358000D02*
D03*
X368465D02*
D03*
X360000Y366000D02*
D03*
X368465D02*
D03*
X360000Y374000D02*
D03*
X368465D02*
D03*
X360000Y382000D02*
D03*
X368465D02*
D03*
X360000Y390000D02*
D03*
X368465D02*
D03*
X290000Y334000D02*
D03*
X298465D02*
D03*
X290000Y342000D02*
D03*
X298465D02*
D03*
X290000Y350000D02*
D03*
X298465D02*
D03*
X290000Y358000D02*
D03*
X298465D02*
D03*
X290000Y366000D02*
D03*
X298465D02*
D03*
X290000Y374000D02*
D03*
X298465D02*
D03*
X290000Y382000D02*
D03*
X298465D02*
D03*
X290000Y390000D02*
D03*
X298465D02*
D03*
X220000Y334000D02*
D03*
X228465D02*
D03*
X149768Y333000D02*
D03*
X158232D02*
D03*
X220000Y342000D02*
D03*
X228465D02*
D03*
X220000Y350000D02*
D03*
X228465D02*
D03*
X220000Y358000D02*
D03*
X228465D02*
D03*
X220000Y366000D02*
D03*
X228465D02*
D03*
X220000Y374000D02*
D03*
X228465D02*
D03*
X220000Y382000D02*
D03*
X228465D02*
D03*
X220000Y390000D02*
D03*
X228465D02*
D03*
X149768Y373000D02*
D03*
X158232D02*
D03*
X149768Y381000D02*
D03*
X158232D02*
D03*
X149768Y365000D02*
D03*
X158232D02*
D03*
X149768Y389000D02*
D03*
X158232D02*
D03*
X150000Y442000D02*
D03*
X158465D02*
D03*
X150000Y450000D02*
D03*
X158465D02*
D03*
X150000Y458000D02*
D03*
X158465D02*
D03*
X150000Y466000D02*
D03*
X158465D02*
D03*
X150000Y474000D02*
D03*
X158465D02*
D03*
X150000Y482000D02*
D03*
X158465D02*
D03*
X150000Y490000D02*
D03*
X158465D02*
D03*
X225768Y240000D02*
D03*
X234232D02*
D03*
D59*
X338000Y259327D02*
D03*
Y237673D02*
D03*
D60*
X359000Y222260D02*
D03*
X354000D02*
D03*
X349000D02*
D03*
X344000D02*
D03*
X339000D02*
D03*
X334000D02*
D03*
X329000D02*
D03*
X324000D02*
D03*
X359000Y201000D02*
D03*
X354000D02*
D03*
X349000D02*
D03*
X344000D02*
D03*
X339000D02*
D03*
X334000D02*
D03*
X329000D02*
D03*
X275000Y270000D02*
D03*
X280000D02*
D03*
X285000D02*
D03*
X290000D02*
D03*
X295000D02*
D03*
X300000D02*
D03*
X305000D02*
D03*
X270000Y291260D02*
D03*
X275000D02*
D03*
X280000D02*
D03*
X285000D02*
D03*
X290000D02*
D03*
X295000D02*
D03*
X300000D02*
D03*
X305000D02*
D03*
D61*
X324000Y201000D02*
D03*
X270000Y270000D02*
D03*
D62*
X268000Y153063D02*
D03*
Y160937D02*
D03*
X276445Y184063D02*
D03*
Y191937D02*
D03*
X304000Y184063D02*
D03*
Y191937D02*
D03*
X310500Y153063D02*
D03*
Y160937D02*
D03*
D63*
X188189Y371516D02*
D03*
Y368957D02*
D03*
Y366398D02*
D03*
Y363839D02*
D03*
Y361279D02*
D03*
Y358720D02*
D03*
Y356161D02*
D03*
Y353602D02*
D03*
Y351043D02*
D03*
Y348484D02*
D03*
X211811Y348484D02*
D03*
Y351043D02*
D03*
Y353602D02*
D03*
Y356161D02*
D03*
Y358720D02*
D03*
Y361279D02*
D03*
Y363838D02*
D03*
Y366398D02*
D03*
Y368957D02*
D03*
Y371516D02*
D03*
X118189Y471516D02*
D03*
Y468957D02*
D03*
Y466397D02*
D03*
Y463838D02*
D03*
Y461279D02*
D03*
Y458720D02*
D03*
Y456161D02*
D03*
Y453602D02*
D03*
Y451043D02*
D03*
Y448484D02*
D03*
X141811Y448484D02*
D03*
Y451043D02*
D03*
Y453602D02*
D03*
Y456161D02*
D03*
Y458720D02*
D03*
Y461279D02*
D03*
Y463838D02*
D03*
Y466397D02*
D03*
Y468957D02*
D03*
Y471516D02*
D03*
X188189Y471516D02*
D03*
Y468957D02*
D03*
Y466397D02*
D03*
Y463838D02*
D03*
Y461279D02*
D03*
Y458720D02*
D03*
Y456161D02*
D03*
Y453602D02*
D03*
Y451043D02*
D03*
Y448484D02*
D03*
X211811Y448484D02*
D03*
Y451043D02*
D03*
Y453602D02*
D03*
Y456161D02*
D03*
Y458720D02*
D03*
Y461279D02*
D03*
Y463838D02*
D03*
Y466397D02*
D03*
Y468957D02*
D03*
Y471516D02*
D03*
X258189Y471516D02*
D03*
Y468957D02*
D03*
Y466397D02*
D03*
Y463838D02*
D03*
Y461279D02*
D03*
Y458720D02*
D03*
Y456161D02*
D03*
Y453602D02*
D03*
Y451043D02*
D03*
Y448484D02*
D03*
X281811Y448484D02*
D03*
Y451043D02*
D03*
Y453602D02*
D03*
Y456161D02*
D03*
Y458720D02*
D03*
Y461279D02*
D03*
Y463838D02*
D03*
Y466397D02*
D03*
Y468957D02*
D03*
Y471516D02*
D03*
X328189Y471516D02*
D03*
Y468957D02*
D03*
Y466397D02*
D03*
Y463838D02*
D03*
Y461279D02*
D03*
Y458720D02*
D03*
Y456161D02*
D03*
Y453602D02*
D03*
Y451043D02*
D03*
Y448484D02*
D03*
X351811Y448484D02*
D03*
Y451043D02*
D03*
Y453602D02*
D03*
Y456161D02*
D03*
Y458720D02*
D03*
Y461279D02*
D03*
Y463838D02*
D03*
Y466397D02*
D03*
Y468957D02*
D03*
Y471516D02*
D03*
X118189Y371516D02*
D03*
Y368957D02*
D03*
Y366398D02*
D03*
Y363839D02*
D03*
Y361279D02*
D03*
Y358720D02*
D03*
Y356161D02*
D03*
Y353602D02*
D03*
Y351043D02*
D03*
Y348484D02*
D03*
X141811Y348484D02*
D03*
Y351043D02*
D03*
Y353602D02*
D03*
Y356161D02*
D03*
Y358720D02*
D03*
Y361279D02*
D03*
Y363838D02*
D03*
Y366398D02*
D03*
Y368957D02*
D03*
Y371516D02*
D03*
X328189Y371516D02*
D03*
Y368957D02*
D03*
Y366398D02*
D03*
Y363839D02*
D03*
Y361279D02*
D03*
Y358720D02*
D03*
Y356161D02*
D03*
Y353602D02*
D03*
Y351043D02*
D03*
Y348484D02*
D03*
X351811Y348484D02*
D03*
Y351043D02*
D03*
Y353602D02*
D03*
Y356161D02*
D03*
Y358720D02*
D03*
Y361279D02*
D03*
Y363838D02*
D03*
Y366398D02*
D03*
Y368957D02*
D03*
Y371516D02*
D03*
X258189Y371516D02*
D03*
Y368957D02*
D03*
Y366398D02*
D03*
Y363839D02*
D03*
Y361279D02*
D03*
Y358720D02*
D03*
Y356161D02*
D03*
Y353602D02*
D03*
Y351043D02*
D03*
Y348484D02*
D03*
X281811Y348484D02*
D03*
Y351043D02*
D03*
Y353602D02*
D03*
Y356161D02*
D03*
Y358720D02*
D03*
Y361279D02*
D03*
Y363838D02*
D03*
Y366398D02*
D03*
Y368957D02*
D03*
Y371516D02*
D03*
D64*
X178500Y279780D02*
D03*
Y288244D02*
D03*
X169600Y279780D02*
D03*
Y288244D02*
D03*
X225500Y279768D02*
D03*
Y288232D02*
D03*
X216400Y279768D02*
D03*
Y288232D02*
D03*
X178500Y264268D02*
D03*
Y272732D02*
D03*
X169600Y272732D02*
D03*
Y264268D02*
D03*
X178500Y248756D02*
D03*
Y257221D02*
D03*
X169600Y248756D02*
D03*
Y257221D02*
D03*
X268000Y183768D02*
D03*
Y192232D02*
D03*
X295000Y183768D02*
D03*
Y192232D02*
D03*
X234600Y279768D02*
D03*
Y288232D02*
D03*
X243700Y279780D02*
D03*
Y288244D02*
D03*
X410000Y259732D02*
D03*
Y251268D02*
D03*
X319000Y152815D02*
D03*
Y161279D02*
D03*
X277000D02*
D03*
Y152815D02*
D03*
D65*
X285260Y257500D02*
D03*
X292740D02*
D03*
D66*
X223205Y161142D02*
D03*
X183205D02*
D03*
X143205D02*
D03*
D67*
X223205Y178858D02*
D03*
X248795D02*
D03*
Y161142D02*
D03*
X208795D02*
D03*
Y178858D02*
D03*
X183205D02*
D03*
X168795Y161142D02*
D03*
Y178858D02*
D03*
X143205D02*
D03*
D68*
X484000Y338000D02*
D03*
Y348000D02*
D03*
Y358000D02*
D03*
Y368000D02*
D03*
Y378000D02*
D03*
Y388000D02*
D03*
Y398000D02*
D03*
Y408000D02*
D03*
X199000Y218000D02*
D03*
Y228000D02*
D03*
Y238000D02*
D03*
Y248000D02*
D03*
Y258000D02*
D03*
X189000Y218000D02*
D03*
Y228000D02*
D03*
Y238000D02*
D03*
Y248000D02*
D03*
Y258000D02*
D03*
X170000Y490000D02*
D03*
Y480000D02*
D03*
Y470000D02*
D03*
Y460000D02*
D03*
Y450000D02*
D03*
Y440000D02*
D03*
Y430000D02*
D03*
Y420000D02*
D03*
X240000Y490000D02*
D03*
Y480000D02*
D03*
Y470000D02*
D03*
Y460000D02*
D03*
Y450000D02*
D03*
Y440000D02*
D03*
Y430000D02*
D03*
Y420000D02*
D03*
X310000Y490000D02*
D03*
Y480000D02*
D03*
Y470000D02*
D03*
Y460000D02*
D03*
Y450000D02*
D03*
Y440000D02*
D03*
Y430000D02*
D03*
Y420000D02*
D03*
X380000Y490000D02*
D03*
Y480000D02*
D03*
Y470000D02*
D03*
Y460000D02*
D03*
Y450000D02*
D03*
Y440000D02*
D03*
Y430000D02*
D03*
Y420000D02*
D03*
X170000Y390000D02*
D03*
Y380000D02*
D03*
Y370000D02*
D03*
Y360000D02*
D03*
Y350000D02*
D03*
Y340000D02*
D03*
Y330000D02*
D03*
Y320000D02*
D03*
X240000Y390000D02*
D03*
Y380000D02*
D03*
Y370000D02*
D03*
Y360000D02*
D03*
Y350000D02*
D03*
Y340000D02*
D03*
Y330000D02*
D03*
Y320000D02*
D03*
X310000Y390000D02*
D03*
Y380000D02*
D03*
Y370000D02*
D03*
Y360000D02*
D03*
Y350000D02*
D03*
Y340000D02*
D03*
Y330000D02*
D03*
Y320000D02*
D03*
X380000Y390000D02*
D03*
Y380000D02*
D03*
Y370000D02*
D03*
Y360000D02*
D03*
Y350000D02*
D03*
Y340000D02*
D03*
Y330000D02*
D03*
Y320000D02*
D03*
D69*
X248500Y220000D02*
D03*
X258500D02*
D03*
X268500D02*
D03*
X278500D02*
D03*
X240000Y250000D02*
D03*
X250000D02*
D03*
D70*
X336600Y348800D02*
D03*
X266700Y348700D02*
D03*
X196200Y348500D02*
D03*
X125900Y348800D02*
D03*
X335800Y448400D02*
D03*
X265600Y448700D02*
D03*
X195000Y463750D02*
D03*
Y448750D02*
D03*
X124957Y471250D02*
D03*
X124780Y456250D02*
D03*
X125000Y448750D02*
D03*
X260000Y298000D02*
D03*
X250000D02*
D03*
X240000D02*
D03*
X230000D02*
D03*
X220000D02*
D03*
X210000D02*
D03*
X200000D02*
D03*
X190000D02*
D03*
X180000D02*
D03*
X115000Y280000D02*
D03*
X120000D02*
D03*
X125000D02*
D03*
X130000D02*
D03*
X269321Y257500D02*
D03*
X355000Y276000D02*
D03*
X377138Y258862D02*
D03*
X220000Y240000D02*
D03*
X351811Y482189D02*
D03*
X281811D02*
D03*
X211811Y482689D02*
D03*
X141811Y482189D02*
D03*
X199721Y345000D02*
D03*
X141811Y382189D02*
D03*
X211811Y382311D02*
D03*
X282500Y382500D02*
D03*
X351811Y381811D02*
D03*
X280000Y311500D02*
D03*
X285000Y317500D02*
D03*
X280000Y305000D02*
D03*
X285000Y300000D02*
D03*
X270000Y367500D02*
D03*
X400000Y360000D02*
D03*
X392500Y371250D02*
D03*
X397500Y363750D02*
D03*
X405000Y356250D02*
D03*
X410000Y348750D02*
D03*
X402500Y375000D02*
D03*
X395000Y367500D02*
D03*
X407500Y352500D02*
D03*
X412500Y345000D02*
D03*
X335800Y471250D02*
D03*
X339721Y467500D02*
D03*
X335800Y463750D02*
D03*
X339721Y460000D02*
D03*
X335800Y456250D02*
D03*
X339721Y452500D02*
D03*
Y445000D02*
D03*
Y475000D02*
D03*
X265600Y471250D02*
D03*
X269721Y467500D02*
D03*
X265600Y463750D02*
D03*
X269721Y460000D02*
D03*
X265600Y456250D02*
D03*
X269721Y452500D02*
D03*
Y445000D02*
D03*
Y475000D02*
D03*
X195000Y471250D02*
D03*
X199721Y467500D02*
D03*
Y460000D02*
D03*
X195000Y456250D02*
D03*
X199721Y452500D02*
D03*
Y445000D02*
D03*
Y475000D02*
D03*
X129721Y467500D02*
D03*
X124720Y463750D02*
D03*
X129721Y460000D02*
D03*
Y452500D02*
D03*
Y445000D02*
D03*
Y475000D02*
D03*
X125900Y371250D02*
D03*
X129721Y367500D02*
D03*
X125900Y363750D02*
D03*
X129721Y360000D02*
D03*
X125900Y356250D02*
D03*
X129721Y352500D02*
D03*
Y345000D02*
D03*
Y375000D02*
D03*
X196200Y371250D02*
D03*
X199721Y367500D02*
D03*
X196200Y363750D02*
D03*
X199721Y360000D02*
D03*
X196200Y356250D02*
D03*
X199721Y352500D02*
D03*
Y375000D02*
D03*
X270000Y375000D02*
D03*
X339721Y375000D02*
D03*
X270000Y345000D02*
D03*
Y352500D02*
D03*
X266700Y356250D02*
D03*
X270000Y360000D02*
D03*
X266700Y363750D02*
D03*
Y371250D02*
D03*
X336600Y371250D02*
D03*
Y363750D02*
D03*
Y356250D02*
D03*
X339721Y345000D02*
D03*
Y352500D02*
D03*
Y360000D02*
D03*
Y367500D02*
D03*
X480000Y476000D02*
D03*
X471232Y432500D02*
D03*
X467500Y395000D02*
D03*
X471232Y345232D02*
D03*
Y315232D02*
D03*
Y285268D02*
D03*
Y255232D02*
D03*
X371000Y242500D02*
D03*
X373500Y264701D02*
D03*
Y271000D02*
D03*
X369500Y267500D02*
D03*
Y261500D02*
D03*
X374768Y295768D02*
D03*
X383232Y295768D02*
D03*
X382732Y215732D02*
D03*
X389000Y250000D02*
D03*
X270000Y170000D02*
D03*
X314268Y231268D02*
D03*
X323000Y275000D02*
D03*
X250000Y380000D02*
D03*
X320000D02*
D03*
X180000Y383000D02*
D03*
X110000Y372000D02*
D03*
Y472000D02*
D03*
X180000Y480000D02*
D03*
X320000D02*
D03*
X250000D02*
D03*
X118189Y435189D02*
D03*
X188189D02*
D03*
X258189D02*
D03*
X328189D02*
D03*
Y335189D02*
D03*
X258189D02*
D03*
X188189D02*
D03*
X118189D02*
D03*
X180000Y435000D02*
D03*
X250000D02*
D03*
X320000D02*
D03*
X344000Y213000D02*
D03*
X288000Y197000D02*
D03*
X301740Y221740D02*
D03*
X312937Y191937D02*
D03*
X448700Y249900D02*
D03*
X452600Y265400D02*
D03*
Y280400D02*
D03*
Y295400D02*
D03*
Y310400D02*
D03*
Y325400D02*
D03*
Y340400D02*
D03*
Y355400D02*
D03*
Y370400D02*
D03*
Y385400D02*
D03*
Y400400D02*
D03*
Y415400D02*
D03*
Y430400D02*
D03*
Y445400D02*
D03*
Y460400D02*
D03*
X115000Y255000D02*
D03*
Y260000D02*
D03*
Y265000D02*
D03*
Y270000D02*
D03*
Y275000D02*
D03*
X120000Y255000D02*
D03*
X125000D02*
D03*
X130000D02*
D03*
X135000D02*
D03*
X140000D02*
D03*
Y260000D02*
D03*
X135000D02*
D03*
X130000D02*
D03*
X125000D02*
D03*
X120000D02*
D03*
Y265000D02*
D03*
X135000Y280000D02*
D03*
X140000D02*
D03*
X145000D02*
D03*
Y275000D02*
D03*
X140000D02*
D03*
X135000D02*
D03*
X130000D02*
D03*
X125000D02*
D03*
X120000D02*
D03*
Y270000D02*
D03*
X125000D02*
D03*
X130000D02*
D03*
X135000D02*
D03*
X140000D02*
D03*
X145000D02*
D03*
Y265000D02*
D03*
X140000D02*
D03*
X135000D02*
D03*
X130000D02*
D03*
X125000D02*
D03*
X145000Y260000D02*
D03*
Y255000D02*
D03*
D71*
X294000Y120000D02*
D03*
X275000D02*
D03*
X324000D02*
D03*
D72*
X146000Y232000D02*
D03*
D73*
X232600Y126900D02*
D03*
X340000Y310000D02*
D03*
D74*
X125000Y210000D02*
D03*
Y175000D02*
D03*
M02*
